<?xml version="1.0" encoding="UTF-8"?>
<!DOCTYPE svg PUBLIC "-//W3C//DTD SVG 1.1//EN" "http://www.w3.org/Graphics/SVG/1.1/DTD/svg11.dtd">
<svg version="1.1" xmlns="http://www.w3.org/2000/svg" xmlns:xlink="http://www.w3.org/1999/xlink" x="0" y="0" width="950" height="507.5" viewBox="0, 0, 950, 507.5">
  <g id="Layer_1">
    <path d="M75.777,246.57 L237.012,117.33 L545.532,101.265 L803.27,173.535 L896.982,246.57 C896.982,246.57 728.232,382.492 713.247,382.492 C698.24,382.492 312.005,430.598 312.005,430.598 L124.512,296.25 L75.777,246.57" fill="#FFFFFE"/>
    <path d="M942.523,205.463 C934.67,203.73 809.075,176.235 803.27,173.535 C801.357,172.635 793.955,170.228 784.775,167.348 C784.078,180.398 781.198,193.11 776.27,205.35 C743.352,287.633 620.435,348.743 473.78,348.743 C326.878,348.743 203.713,287.43 171.043,204.923 C167.803,196.688 165.418,188.228 164.045,179.61 L9.02,204.81 L3.935,204.81 C4.003,205.058 4.025,205.305 4.093,205.53 C34.49,370.995 233.165,498.728 473.78,498.728 C714.35,498.728 913.025,370.995 943.468,205.53 L943.49,205.463 L942.523,205.463" fill="#D03F44"/>
    <path d="M748.078,246.575 C625.105,246.57 540.828,186.022 473.713,186.022 C473.708,186.022 473.717,186.022 473.713,186.022 C406.583,186.022 322.195,246.507 199.25,246.507 C198.335,246.507 197.428,246.503 196.505,246.495 C191.21,240.255 186.475,233.81 182.345,227.19 C313.375,216.223 403.828,147.682 473.78,147.682 C473.785,147.682 473.775,147.682 473.78,147.682 C543.718,147.682 634.16,216.192 765.143,227.185 C760.997,233.83 756.245,240.3 750.927,246.562 C749.975,246.57 749.025,246.575 748.078,246.575" fill="#CFE1E4"/>
    <path d="M750.927,246.562 C756.245,240.3 760.997,233.83 765.143,227.185 C776.562,228.143 788.297,228.665 800.347,228.665 C830.075,228.665 861.747,225.497 895.587,217.905 C842.008,238.405 794.1,246.235 750.927,246.562 M196.505,246.495 C153.357,246.175 105.45,238.365 51.95,217.905 C85.777,225.495 117.472,228.665 147.19,228.665 C159.22,228.665 170.942,228.143 182.345,227.19 C186.475,233.81 191.21,240.255 196.505,246.495" fill="#B03941"/>
    <path d="M531.763,9.443 C509.51,14.438 489.17,23.73 473.78,35.97 C458.368,23.73 438.05,14.438 415.775,9.443 C288.425,-19.132 113.443,136.725 4.633,205.53 C19.91,210.12 35.75,214.26 51.95,217.905 C256.835,263.872 382.7,147.683 473.78,147.683 C564.86,147.683 690.703,263.872 895.588,217.905 C911.81,214.26 927.628,210.12 942.927,205.53 C834.095,136.725 659.112,-19.132 531.763,9.443" fill="#D03F44"/>
    <path d="M473.848,448.148 C452.225,448.148 438.5,446.798 436.925,446.64 C427.318,445.628 420.343,437.033 421.333,427.425 C422.28,418.438 429.843,411.735 438.695,411.735 C439.308,411.735 439.925,411.768 440.548,411.833 C440.895,411.863 453.058,413.04 472.815,413.04 C511.71,413.04 580.05,408.48 645.703,381.638 C647.875,380.748 650.12,380.328 652.325,380.328 C659.218,380.328 665.74,384.433 668.518,391.2 C672.185,400.155 667.888,410.37 658.932,414.038 C588.035,443.018 515.945,448.148 473.848,448.148" fill="#EFD3CE"/>
    <path d="M299.212,106.95 C282.97,106.95 271.317,103.38 270.177,97.08 C268.512,87.855 289.91,76.268 317.967,71.205 C326.822,69.605 335.285,68.848 342.772,68.848 C358.987,68.848 370.625,72.41 371.765,78.72 C373.43,87.945 352.055,99.51 323.997,104.595 C315.15,106.192 306.692,106.95 299.212,106.95" fill="#EFD3CE"/>
  </g>
</svg>