<?xml version="1.0" encoding="UTF-8"?>
<!DOCTYPE svg PUBLIC "-//W3C//DTD SVG 1.1//EN" "http://www.w3.org/Graphics/SVG/1.1/DTD/svg11.dtd">
<svg version="1.1" xmlns="http://www.w3.org/2000/svg" xmlns:xlink="http://www.w3.org/1999/xlink" x="0" y="0" width="301.858" height="719.049" viewBox="0, 0, 301.858, 719.049">
  <defs>
    <radialGradient id="Gradient_1" gradientUnits="userSpaceOnUse" cx="256.427" cy="299.924" r="26.466" gradientTransform="matrix(1, 0, 0, 1, -159.24, -53.55)">
      <stop offset="0" stop-color="#F7C6BE"/>
      <stop offset="1" stop-color="#F7C6BE" stop-opacity="0"/>
    </radialGradient>
    <clipPath id="Clip_1">
      <path d="M97.187,272.827 C112.44,272.358 122.894,261.385 123.653,246.364 L123.653,246.36 C123.183,231.109 112.208,220.656 97.189,219.897 L97.185,219.897 C81.933,220.367 71.479,231.342 70.721,246.362 C70.721,260.979 82.571,272.827 97.187,272.827 z"/>
    </clipPath>
    <radialGradient id="Gradient_2" gradientUnits="userSpaceOnUse" cx="348.851" cy="299.924" r="26.465" gradientTransform="matrix(1, 0, 0, 1, -159.24, -53.562)">
      <stop offset="0" stop-color="#F7C6BE"/>
      <stop offset="1" stop-color="#F7C6BE" stop-opacity="0"/>
    </radialGradient>
    <clipPath id="Clip_2">
      <path d="M189.612,272.827 C204.865,272.358 215.317,261.384 216.076,246.364 L216.076,246.36 C215.606,231.11 204.633,220.656 189.614,219.897 L189.61,219.897 C174.357,220.367 163.904,231.341 163.146,246.362 C163.146,260.979 174.994,272.827 189.612,272.827 z"/>
    </clipPath>
  </defs>
  <g id="Layer_1">
    <path d="M228.425,177.689 L239.826,177.689 C237.112,175.517 224.083,159.231 224.083,159.231 C201.826,141.858 148.625,140.774 142.651,139.687 C108.449,139.145 73.164,147.289 69.906,147.831 C69.906,147.831 53.621,176.06 41.136,179.861 C41.136,179.861 49.279,182.032 54.164,181.49 C54.164,181.49 49.278,198.861 44.934,201.033 L56.334,199.404 C57.42,200.489 53.621,202.119 60.135,217.319 L65.479,217.441 C64.846,211.643 64.41,206.549 64.41,204.018 C64.41,194.653 71.129,169.41 87.414,151.495 C99.63,146.61 183.911,150.274 199.79,151.495 C216.076,169.41 222.794,194.653 222.794,204.018 C222.794,207.058 222.166,213.791 221.323,221.006 L226.254,221.119 C231.683,214.062 231.683,201.033 231.683,201.033 L239.826,200.489 C236.026,197.232 228.425,177.689 228.425,177.689" fill="#7D6E5C" id="path846"/>
    <path d="M228.425,177.689 L239.826,177.689 C237.112,175.517 224.083,159.231 224.083,159.231 C201.826,141.858 148.625,140.774 142.651,139.687 C108.449,139.145 73.164,147.289 69.906,147.831 C69.906,147.831 53.621,176.06 41.136,179.861 C41.136,179.861 49.279,182.032 54.164,181.49 C54.164,181.49 49.278,198.861 44.934,201.033 L56.334,199.404 C57.42,200.489 53.621,202.119 60.135,217.319 L65.479,217.441 C64.846,211.643 64.41,206.549 64.41,204.018 C64.41,194.653 71.129,169.41 87.414,151.495 C99.63,146.61 183.911,150.274 199.79,151.495 C216.076,169.41 222.794,194.653 222.794,204.018 C222.794,207.058 222.166,213.791 221.323,221.006 L226.254,221.119 C231.683,214.062 231.683,201.033 231.683,201.033 L239.826,200.489 C236.026,197.232 228.425,177.689 228.425,177.689 z" fill-opacity="0" stroke="#665448" stroke-width="4.5" stroke-linecap="round" stroke-linejoin="round" id="path848"/>
    <g id="g854">
      <path d="M144.26,311.101 C150.635,312.976 171.26,309.226 171.26,309.226 C176.51,310.726 189.635,315.601 193.385,317.851 C197.51,321.601 202.01,332.101 207.635,347.477 C211.385,353.102 228.26,407.102 228.26,407.102 L261.635,427.352 C257.51,434.477 232.385,449.477 228.635,450.227 C216.26,444.227 203.51,433.352 192.635,415.727 L190.884,438.725 C190.884,438.725 163.509,450.725 142.884,450.725 C124.134,450.725 94.385,433.227 94.385,433.227 L95.135,415.727 C84.26,433.352 71.51,444.227 59.135,450.227 C55.385,449.477 29.885,431.852 25.76,424.727 L59.51,407.102 C59.51,407.102 76.385,353.102 80.135,347.477 C85.76,332.101 90.26,321.601 94.385,317.851 C98.135,315.601 111.26,310.726 116.51,309.226 C116.51,309.226 137.135,312.976 143.51,311.101" fill="#FEFEFE" id="path850"/>
      <path d="M144.26,311.101 C150.635,312.976 171.26,309.226 171.26,309.226 C176.51,310.726 189.635,315.601 193.385,317.851 C197.51,321.601 202.01,332.101 207.635,347.477 C211.385,353.102 228.26,407.102 228.26,407.102 L261.635,427.352 C257.51,434.477 232.385,449.477 228.635,450.227 C216.26,444.227 203.51,433.352 192.635,415.727 L190.884,438.725 C190.884,438.725 163.509,450.725 142.884,450.725 C124.134,450.725 94.385,433.227 94.385,433.227 L95.135,415.727 C84.26,433.352 71.51,444.227 59.135,450.227 C55.385,449.477 29.885,431.852 25.76,424.727 L59.51,407.102 C59.51,407.102 76.385,353.102 80.135,347.477 C85.76,332.101 90.26,321.601 94.385,317.851 C98.135,315.601 111.26,310.726 116.51,309.226 C116.51,309.226 137.135,312.976 143.51,311.101" fill-opacity="0" stroke="#665448" stroke-width="4.5" stroke-linecap="round" stroke-linejoin="round" id="path852"/>
    </g>
    <path d="M102.635,323.476 C102.635,323.476 95.51,406.352 95.135,415.727" fill-opacity="0" stroke="#665448" stroke-width="4.5" stroke-linecap="round" stroke-linejoin="round" id="path856"/>
    <path d="M185.135,323.476 C185.135,323.476 192.26,406.352 192.635,415.727" fill-opacity="0" stroke="#665448" stroke-width="4.5" stroke-linecap="round" stroke-linejoin="round" id="path858"/>
    <path d="M142.948,286.164 L161.698,286.164 C162.072,303.602 165.635,311.289 165.635,311.289 L142.948,311.289 L120.26,311.289 C120.26,311.289 123.822,303.602 124.198,286.164 z" fill="#FDF5E8" id="path860"/>
    <path d="M142.948,286.164 L161.698,286.164 C162.072,303.602 165.635,311.289 165.635,311.289 L142.948,311.289 L120.26,311.289 C120.26,311.289 123.822,303.602 124.198,286.164 z" fill-opacity="0" stroke="#665448" stroke-width="4.5" stroke-linecap="round" stroke-linejoin="round" id="path862"/>
    <path d="M113.885,310.164 C113.885,310.164 115.198,299.289 115.198,297.789 C115.198,297.789 138.823,298.539 139.76,298.539 C139.76,298.539 138.635,310.539 139.948,311.852 C133.198,312.227 117.073,311.852 113.885,310.164" fill="#FEFEFE" id="path864"/>
    <path d="M113.885,310.164 C113.885,310.164 115.198,299.289 115.198,297.789 C115.198,297.789 138.823,298.539 139.76,298.539 C139.76,298.539 138.635,310.539 139.948,311.852 C133.198,312.227 117.073,311.852 113.885,310.164 z" fill-opacity="0" stroke="#665448" stroke-width="4.5" stroke-linecap="round" stroke-linejoin="round" id="path866"/>
    <path d="M173.385,310.164 C173.385,310.164 172.072,299.289 172.072,297.789 C172.072,297.789 148.447,298.539 147.51,298.539 C147.51,298.539 148.635,310.539 147.322,311.852 C154.072,312.227 170.197,311.852 173.385,310.164" fill="#FEFEFE" id="path868"/>
    <path d="M173.385,310.164 C173.385,310.164 172.072,299.289 172.072,297.789 C172.072,297.789 148.447,298.539 147.51,298.539 C147.51,298.539 148.635,310.539 147.322,311.852 C154.072,312.227 170.197,311.852 173.385,310.164 z" fill-opacity="0" stroke="#665448" stroke-width="4.5" stroke-linecap="round" stroke-linejoin="round" id="path870"/>
    <path d="M13.01,396.227 C11.885,390.977 3.635,372.602 7.01,349.352 C7.76,317.476 15.635,313.351 31.01,312.601 C45.26,307.351 59.51,308.476 64.76,310.726 C82.76,308.851 102.635,306.601 111.635,319.726 C118.385,330.226 120.635,341.101 113.885,355.727 C112.385,361.727 112.01,393.977 112.76,401.852 z" fill="#C9A167" id="path872"/>
    <path d="M13.01,396.227 C11.885,390.977 3.635,372.602 7.01,349.352 C7.76,317.476 15.635,313.351 31.01,312.601 C45.26,307.351 59.51,308.476 64.76,310.726 C82.76,308.851 102.635,306.601 111.635,319.726 C118.385,330.226 120.635,341.101 113.885,355.727 C112.385,361.727 112.01,393.977 112.76,401.852 z" fill-opacity="0" stroke="#665448" stroke-width="3" stroke-linecap="round" stroke-linejoin="round" id="path874"/>
    <path d="M56.135,394.352 C56.135,390.602 56.51,374.852 53.51,357.602 C48.26,344.852 48.635,320.476 79.01,313.351 C89.51,311.101 107.885,313.726 111.635,331.351 C112.76,337.351 113.51,345.977 108.26,355.727 C108.26,360.227 107.135,396.227 107.135,397.352 C107.135,398.477 56.135,394.352 56.135,394.352" fill="#FFFBDB" id="path876"/>
    <path d="M56.135,394.352 C56.135,390.602 56.51,374.852 53.51,357.602 C48.26,344.852 48.635,320.476 79.01,313.351 C89.51,311.101 107.885,313.726 111.635,331.351 C112.76,337.351 113.51,345.977 108.26,355.727 C108.26,360.227 107.135,396.227 107.135,397.352 C107.135,398.477 56.135,394.352 56.135,394.352 z" fill-opacity="0" stroke="#665448" stroke-width="3" stroke-linecap="round" stroke-linejoin="round" id="path878"/>
    <path d="M29.885,318.601 C40.01,314.476 50.885,314.476 55.01,315.601 C65.135,315.601 77.885,309.226 90.635,310.726 C90.68,310.495 90.507,310.059 90.15,309.478 C82.16,308.875 73.251,309.841 64.76,310.726 C59.51,308.476 45.26,307.351 31.01,312.601 C16.494,313.309 8.666,317.038 7.205,344.275 C8.02,344.404 8.51,344.477 8.51,344.477 C12.26,329.101 13.76,319.351 29.885,318.601" fill="#DDBB9A" id="path880"/>
    <path d="M107.135,397.352 C107.135,396.227 108.26,360.227 108.26,355.727 C112.112,348.57 112.729,342.026 112.342,336.675 C96.32,354.497 72.674,359.231 53.614,358.235 C56.493,375.233 56.135,390.649 56.135,394.352 C56.135,394.352 107.135,398.477 107.135,397.352" fill="#FEF4D6" id="path882"/>
    <path d="M56.135,394.352 C56.135,390.602 56.51,374.852 53.51,357.602 C48.26,344.852 48.635,320.476 79.01,313.351 C89.51,311.101 107.885,313.726 111.635,331.351 C112.76,337.351 113.51,345.977 108.26,355.727 C108.26,360.227 107.135,396.227 107.135,397.352 C107.135,398.477 56.135,394.352 56.135,394.352 z" fill-opacity="0" stroke="#665448" stroke-width="3" stroke-linecap="round" stroke-linejoin="round" id="path884"/>
    <path d="M13.01,396.227 C11.885,390.977 3.635,372.602 7.01,349.352 C7.76,317.476 15.635,313.351 31.01,312.601 C45.26,307.351 59.51,308.476 64.76,310.726 C82.76,308.851 102.635,306.601 111.635,319.726 C118.385,330.226 120.635,341.101 113.885,355.727 C112.385,361.727 112.01,393.977 112.76,401.852 z" fill-opacity="0" stroke="#665448" stroke-width="3" stroke-linecap="round" stroke-linejoin="round" id="path886"/>
    <path d="M123.635,398.852 C110.51,397.727 95.135,379.352 110.51,357.602 C119.51,345.977 133.01,338.476 144.635,342.227 C158.51,345.977 172.01,358.352 163.385,378.602 C161.885,384.227 158.885,408.977 123.635,398.852" fill="#A58D7B" id="path888"/>
    <path d="M123.635,398.852 C110.51,397.727 95.135,379.352 110.51,357.602 C119.51,345.977 133.01,338.476 144.635,342.227 C158.51,345.977 172.01,358.352 163.385,378.602 C161.885,384.227 158.885,408.977 123.635,398.852 z" fill-opacity="0" stroke="#665448" stroke-width="3" stroke-linecap="round" stroke-linejoin="round" id="path890"/>
    <path d="M109.385,362.477 C109.385,362.477 117.26,358.727 124.76,359.102 C124.76,359.102 132.635,348.227 144.635,346.352 C144.635,346.352 136.01,356.852 134.885,360.227 C134.885,360.227 151.76,362.102 158.135,377.477 C158.135,377.477 139.76,367.352 133.385,369.227 C131.135,369.227 118.385,381.227 120.26,393.227 C120.26,393.227 114.26,377.102 120.26,367.352 C120.26,367.352 116.135,362.102 109.385,362.477" fill="#C9BD9E" id="path892"/>
    <path d="M109.385,362.477 C109.385,362.477 117.26,358.727 124.76,359.102 C124.76,359.102 132.635,348.227 144.635,346.352 C144.635,346.352 136.01,356.852 134.885,360.227 C134.885,360.227 151.76,362.102 158.135,377.477 C158.135,377.477 139.76,367.352 133.385,369.227 C131.135,369.227 118.385,381.227 120.26,393.227 C120.26,393.227 114.26,377.102 120.26,367.352 C120.26,367.352 116.135,362.102 109.385,362.477 z" fill-opacity="0" stroke="#665448" stroke-width="3" stroke-linecap="round" stroke-linejoin="round" id="path894"/>
    <path d="M156.26,405.602 C143.135,404.477 127.76,386.102 143.135,364.352 C152.135,352.727 165.635,345.227 177.26,348.977 C191.135,352.727 204.635,365.102 196.01,385.352 C194.51,390.977 191.51,415.727 156.26,405.602" fill="#A58D7B" id="path896"/>
    <path d="M156.26,405.602 C143.135,404.477 127.76,386.102 143.135,364.352 C152.135,352.727 165.635,345.227 177.26,348.977 C191.135,352.727 204.635,365.102 196.01,385.352 C194.51,390.977 191.51,415.727 156.26,405.602 z" fill-opacity="0" stroke="#665448" stroke-width="3" stroke-linecap="round" stroke-linejoin="round" id="path898"/>
    <path d="M142.01,369.227 C142.01,369.227 149.885,365.477 157.385,365.852 C157.385,365.852 165.26,354.977 177.26,353.102 C177.26,353.102 168.635,363.602 167.51,366.977 C167.51,366.977 184.385,368.852 190.76,384.227 C190.76,384.227 172.385,374.102 166.01,375.977 C163.76,375.977 151.01,387.977 152.885,399.977 C152.885,399.977 146.885,383.852 152.885,374.102 C152.885,374.102 148.76,368.852 142.01,369.227" fill="#C9BD9E" id="path900"/>
    <path d="M142.01,369.227 C142.01,369.227 149.885,365.477 157.385,365.852 C157.385,365.852 165.26,354.977 177.26,353.102 C177.26,353.102 168.635,363.602 167.51,366.977 C167.51,366.977 184.385,368.852 190.76,384.227 C190.76,384.227 172.385,374.102 166.01,375.977 C163.76,375.977 151.01,387.977 152.885,399.977 C152.885,399.977 146.885,383.852 152.885,374.102 C152.885,374.102 148.76,368.852 142.01,369.227 z" fill-opacity="0" stroke="#665448" stroke-width="3" stroke-linecap="round" stroke-linejoin="round" id="path902"/>
    <path d="M167.51,392.477 C181.01,384.977 188.135,375.602 210.26,361.727 C226.01,347.102 233.51,336.601 251.135,327.976 C264.26,320.476 284.51,306.601 292.76,314.101 C299.51,320.851 314.51,342.227 266.135,379.727 C259.01,386.852 205.385,413.102 200.885,415.727 C189.635,420.602 138.26,422.477 167.51,392.477" fill="#B2844F" id="path904"/>
    <path d="M167.51,392.477 C181.01,384.977 188.135,375.602 210.26,361.727 C226.01,347.102 233.51,336.601 251.135,327.976 C264.26,320.476 284.51,306.601 292.76,314.101 C299.51,320.851 314.51,342.227 266.135,379.727 C259.01,386.852 205.385,413.102 200.885,415.727 C189.635,420.602 138.26,422.477 167.51,392.477 z" fill-opacity="0" stroke="#665448" stroke-width="3" stroke-linecap="round" stroke-linejoin="round" id="path906"/>
    <path d="M294.506,316.009 C293.895,315.28 293.3,314.643 292.76,314.102 C284.51,306.602 264.26,320.477 251.135,327.977 C233.51,336.602 226.01,347.103 210.26,361.728 C188.135,375.603 181.01,384.978 167.51,392.478 C160.45,399.718 158.096,405.097 158.733,409.03 C163.568,403.347 166.119,398.63 178.01,393.228 C198.635,379.728 205.01,369.978 221.885,359.103 C238.01,342.603 236.135,340.352 252.26,332.852 C270.864,323.38 287.329,312.999 294.506,316.009" fill="#C9A167" id="path908"/>
    <path d="M250.32,328.395 C245.3,330.913 241.093,333.59 237.281,336.485 C252.863,334.238 258.656,339.825 266.134,343.727 C271.009,347.852 270.259,345.227 269.134,338.851 C266.13,331.086 257.774,328.357 250.32,328.395" fill="#C9A167" id="path910"/>
    <path d="M250.32,328.395 C245.3,330.913 241.093,333.59 237.281,336.485 C252.863,334.238 258.656,339.825 266.134,343.727 C271.009,347.852 270.259,345.227 269.134,338.851 C266.13,331.086 257.774,328.357 250.32,328.395 z" fill-opacity="0" stroke="#665448" stroke-width="3" stroke-linecap="round" stroke-linejoin="round" id="path912"/>
    <path d="M247.76,350.477 C241.989,350.155 232.108,346.572 221.864,350.451 C218.367,353.926 214.637,357.661 210.26,361.727 C209.728,362.059 209.213,362.387 208.697,362.715 C213.84,362.727 217.76,360.977 217.76,360.977 C226.76,362.477 245.135,358.727 259.01,356.852 C265.01,354.602 253.76,351.977 247.76,350.477" fill="#C9A167" id="path914"/>
    <path d="M247.76,350.477 C241.989,350.155 232.108,346.572 221.864,350.451 C218.367,353.926 214.637,357.661 210.26,361.727 C209.728,362.059 209.213,362.387 208.697,362.715 C213.84,362.727 217.76,360.977 217.76,360.977 C226.76,362.477 245.135,358.727 259.01,356.852 C265.01,354.602 253.76,351.977 247.76,350.477 z" fill-opacity="0" stroke="#665448" stroke-width="3" stroke-linecap="round" stroke-linejoin="round" id="path916"/>
    <path d="M219.635,375.977 C224.885,375.977 232.01,374.102 229.01,372.602 C224.672,372.936 213.8,366.454 197.196,370.561 C192.813,373.756 189.15,376.678 185.805,379.368 C197.004,380.071 209.353,378.157 219.635,375.977" fill="#C9A167" id="path918"/>
    <path d="M219.635,375.977 C224.885,375.977 232.01,374.102 229.01,372.602 C224.672,372.936 213.8,366.454 197.196,370.561 C192.813,373.756 189.15,376.678 185.805,379.368 C197.004,380.071 209.353,378.157 219.635,375.977 z" fill-opacity="0" stroke="#665448" stroke-width="3" stroke-linecap="round" stroke-linejoin="round" id="path920"/>
    <path d="M167.51,392.477 C181.01,384.977 188.135,375.602 210.26,361.727 C226.01,347.102 233.51,336.601 251.135,327.976 C264.26,320.476 284.51,306.601 292.76,314.101 C299.51,320.851 314.51,342.227 266.135,379.727 C259.01,386.852 205.385,413.102 200.885,415.727 C189.635,420.602 138.26,422.477 167.51,392.477 z" fill-opacity="0" stroke="#665448" stroke-width="3" stroke-linecap="round" stroke-linejoin="round" id="path922"/>
    <path d="M131.154,681.108 C131.535,700.356 136.99,714.186 125.031,715.579 C108.332,717.374 82.835,717.96 80.632,711.778 C79.486,707.313 81.844,702.987 85.234,699.624 C88.893,696.749 99.962,683.381 101.104,680.094 z" fill="#7D6E5C" id="path924"/>
    <path d="M131.154,681.108 C131.535,700.356 136.99,714.186 125.031,715.579 C108.332,717.374 82.835,717.96 80.632,711.778 C79.486,707.313 81.844,702.987 85.234,699.624 C88.893,696.749 99.962,683.381 101.104,680.094 z" fill-opacity="0" stroke="#665448" stroke-width="4.5" stroke-linecap="round" stroke-linejoin="round" id="path926"/>
    <path d="M95.789,624.737 C95.789,624.737 92.789,670.61 90.475,683.944 C94.796,686.053 121.895,688.667 135.316,685.977 C136.166,681.444 135.398,627.442 135.284,623.944 z" fill="#FEFEFE" id="path928"/>
    <path d="M95.789,624.737 C95.789,624.737 92.789,670.61 90.475,683.944 C94.796,686.053 121.895,688.667 135.316,685.977 C136.166,681.444 135.398,627.442 135.284,623.944 z" fill-opacity="0" stroke="#665448" stroke-width="4.5" stroke-linecap="round" stroke-linejoin="round" id="path930"/>
    <path d="M154.615,681.108 C154.234,700.356 148.778,714.186 160.738,715.579 C177.437,717.374 202.933,717.96 205.136,711.778 C206.285,707.313 203.924,702.987 200.535,699.624 C196.876,696.749 185.807,683.381 184.665,680.094 z" fill="#7D6E5C" id="path932"/>
    <path d="M154.615,681.108 C154.234,700.356 148.778,714.186 160.738,715.579 C177.437,717.374 202.933,717.96 205.136,711.778 C206.285,707.313 203.924,702.987 200.535,699.624 C196.876,696.749 185.807,683.381 184.665,680.094 z" fill-opacity="0" stroke="#665448" stroke-width="4.5" stroke-linecap="round" stroke-linejoin="round" id="path934"/>
    <path d="M189.981,624.737 C189.981,624.737 192.979,670.61 195.295,683.944 C190.972,686.053 163.873,688.667 150.454,685.977 C149.602,681.444 150.372,627.442 150.485,623.944 z" fill="#FEFEFE" id="path936"/>
    <path d="M189.981,624.737 C189.981,624.737 192.979,670.61 195.295,683.944 C190.972,686.053 163.873,688.667 150.454,685.977 C149.602,681.444 150.372,627.442 150.485,623.944 z" fill-opacity="0" stroke="#665448" stroke-width="4.5" stroke-linecap="round" stroke-linejoin="round" id="path938"/>
    <path d="M143.385,439.727 C109.885,439.727 99.885,434.727 94.385,431.727 C94.385,431.727 74.385,610.727 72.885,628.727 C82.385,631.727 170.135,633.602 213.885,628.727 C213.885,615.725 190.884,437.727 190.884,433.727 C190.884,433.727 163.76,439.602 143.385,439.727" fill="#757475" id="path940"/>
    <path d="M143.385,439.727 C109.885,439.727 99.885,434.727 94.385,431.727 C94.385,431.727 74.385,610.727 72.885,628.727 C82.385,631.727 170.135,633.602 213.885,628.727 C213.885,615.725 190.884,437.727 190.884,433.727 C190.884,433.727 163.76,439.602 143.385,439.727 z" fill-opacity="0" stroke="#665448" stroke-width="4.5" stroke-linecap="round" stroke-linejoin="round" id="path942"/>
    <path d="M196.503,480.725 L169.503,481.727 L170.502,523.227 C172.002,528.227 184.058,541.974 203.057,533.472" fill-opacity="0" stroke="#665448" stroke-width="3" stroke-linecap="round" stroke-linejoin="round" id="path944"/>
    <path d="M77.98,629.589 C81.361,591.671 98.177,463.54 102.168,435.157 C98.59,433.966 96.231,432.735 94.385,431.728 C94.385,431.728 74.385,610.728 72.885,628.728 C73.836,629.026 75.584,629.318 77.98,629.589" fill="#A0A1A1" id="path946"/>
    <path d="M88.948,480.696 L116.886,481.727 L115.885,523.227 C114.385,528.227 102.088,541.977 83.089,533.477" fill-opacity="0" stroke="#665448" stroke-width="3" stroke-linecap="round" stroke-linejoin="round" id="path948"/>
    <path d="M143.385,439.727 C109.885,439.727 99.885,434.727 94.385,431.727 C94.385,431.727 74.385,610.727 72.885,628.727 C82.385,631.727 170.135,633.602 213.885,628.727 C213.885,615.725 190.884,437.727 190.884,433.727 C190.884,433.727 163.76,439.602 143.385,439.727 z" fill-opacity="0" stroke="#665448" stroke-width="4.5" stroke-linecap="round" stroke-linejoin="round" id="path950"/>
    <path d="M143.885,453.134 C165.51,454.382 186.073,451.446 192.635,446.009 C195.635,444.134 195.26,436.071 191.135,436.884 C188.135,441.759 172.01,449.196 143.51,449.196 C115.01,449.196 97.01,441.759 94.01,436.884 C89.885,436.071 89.51,444.134 92.51,446.009 C99.317,451.65 125.764,454.181 143.885,453.134" fill="#757475" id="path952"/>
    <path d="M143.885,453.134 C165.51,454.382 186.073,451.446 192.635,446.009 C195.635,444.134 195.26,436.071 191.135,436.884 C188.135,441.759 172.01,449.196 143.51,449.196 C115.01,449.196 97.01,441.759 94.01,436.884 C89.885,436.071 89.51,444.134 92.51,446.009 C99.317,451.65 125.764,454.181 143.885,453.134 z" fill-opacity="0" stroke="#665448" stroke-width="3" stroke-linecap="round" stroke-linejoin="round" id="path954"/>
    <path d="M146.041,449.102 C148.385,447.602 154.666,445.914 158.416,446.008 C159.166,447.789 159.072,454.727 158.416,456.508 C158.416,456.508 149.885,455.852 145.947,454.54 z" fill="#757475" id="path956"/>
    <path d="M146.041,449.102 C148.385,447.602 154.666,445.914 158.416,446.008 C159.166,447.789 159.072,454.727 158.416,456.508 C158.416,456.508 149.885,455.852 145.947,454.54 z" fill-opacity="0" stroke="#665448" stroke-width="3" stroke-linecap="round" stroke-linejoin="round" id="path958"/>
    <path d="M142.479,449.102 C140.135,447.602 133.854,445.914 130.104,446.008 C129.354,447.789 129.448,454.727 130.104,456.508 C130.104,456.508 138.635,455.852 142.573,454.54 z" fill="#757475" id="path960"/>
    <path d="M142.479,449.102 C140.135,447.602 133.854,445.914 130.104,446.008 C129.354,447.789 129.448,454.727 130.104,456.508 C130.104,456.508 138.635,455.852 142.573,454.54 z" fill-opacity="0" stroke="#665448" stroke-width="3" stroke-linecap="round" stroke-linejoin="round" id="path962"/>
    <path d="M143.698,452.665 C143.698,452.665 138.448,471.603 139.948,474.603 L133.384,472.353 C131.134,470.478 137.884,456.79 143.698,452.665" fill="#757475" id="path964"/>
    <path d="M143.698,452.665 C143.698,452.665 138.448,471.603 139.948,474.603 L133.384,472.353 C131.134,470.478 137.884,456.79 143.698,452.665 z" fill-opacity="0" stroke="#665448" stroke-width="3" stroke-linecap="round" stroke-linejoin="round" id="path966"/>
    <path d="M144.072,452.665 C144.072,452.665 149.322,471.603 147.822,474.603 L154.386,472.353 C156.636,470.478 149.886,456.79 144.072,452.665" fill="#757475" id="path968"/>
    <path d="M144.072,452.665 C144.072,452.665 149.322,471.603 147.822,474.603 L154.386,472.353 C156.636,470.478 149.886,456.79 144.072,452.665 z" fill-opacity="0" stroke="#665448" stroke-width="3" stroke-linecap="round" stroke-linejoin="round" id="path970"/>
    <path d="M144.072,446.571 C143.135,446.477 141.166,446.571 140.698,449.009 C139.948,450.79 138.166,456.696 143.791,456.79 C147.072,456.696 147.354,455.665 147.448,452.384 C147.541,450.04 146.698,446.665 144.072,446.571" fill="#757475" id="path972"/>
    <path d="M144.072,446.571 C143.135,446.477 141.166,446.571 140.698,449.009 C139.948,450.79 138.166,456.696 143.791,456.79 C147.072,456.696 147.354,455.665 147.448,452.384 C147.541,450.04 146.698,446.665 144.072,446.571 z" fill-opacity="0" stroke="#665448" stroke-width="3" stroke-linecap="round" stroke-linejoin="round" id="path974"/>
    <path d="M86.633,389.518 C78.46,387.461 69.61,383.102 86.868,360.395 C93.135,354.711 97.037,356.981 100.631,359.038 C108.621,364.627 110.557,366.438 105.952,372.372 C101.438,378.823 90.964,391.176 86.633,389.518" fill="#DDBB91" id="path976"/>
    <path d="M86.633,389.518 C78.46,387.461 69.61,383.102 86.868,360.395 C93.135,354.711 97.037,356.981 100.631,359.038 C108.621,364.627 110.557,366.438 105.952,372.372 C101.438,378.823 90.964,391.176 86.633,389.518 z" fill-opacity="0" stroke="#665448" stroke-width="3" stroke-linecap="round" stroke-linejoin="round" id="path978"/>
    <path d="M86.868,360.395 C87.108,360.178 87.34,359.993 87.571,359.797 C80.763,358.209 69.469,356.346 68.282,363.413 C67.363,371.922 65.892,381.875 77.475,384.946 L77.845,384.295 C75.683,380.301 77.041,373.327 86.868,360.395" fill="#DDBB91" id="path980"/>
    <path d="M86.868,360.395 C87.108,360.178 87.34,359.993 87.571,359.797 C80.763,358.209 69.469,356.346 68.282,363.413 C67.363,371.922 65.892,381.875 77.475,384.946 L77.845,384.295 C75.683,380.301 77.041,373.327 86.868,360.395 z" fill-opacity="0" stroke="#665448" stroke-width="3" stroke-linecap="round" stroke-linejoin="round" id="path982"/>
    <path d="M68.283,363.413 C68.33,363.132 68.393,362.87 68.47,362.618 C63.132,365.132 58.158,369.741 56.645,376.778 C55.509,380.604 61.009,380.956 68.845,378.145 C67.041,373.849 67.746,368.388 68.283,363.413" fill="#DDBB91" id="path984"/>
    <path d="M68.283,363.413 C68.33,363.132 68.393,362.87 68.47,362.618 C63.132,365.132 58.158,369.741 56.645,376.778 C55.509,380.604 61.009,380.956 68.845,378.145 C67.041,373.849 67.746,368.388 68.283,363.413 z" fill-opacity="0" stroke="#665448" stroke-width="3" stroke-linecap="round" stroke-linejoin="round" id="path986"/>
    <path d="M110.347,385.057 C113.299,379.57 111.437,374.166 108.009,369.026 C107.619,370 106.949,371.084 105.952,372.371 C102.296,377.594 94.738,386.682 89.693,389.077 C96.795,396.905 104.953,393.383 110.347,385.057" fill="#DDBB91" id="path988"/>
    <path d="M110.347,385.057 C113.299,379.57 111.437,374.166 108.009,369.026 C107.619,370 106.949,371.084 105.952,372.371 C102.296,377.594 94.738,386.682 89.693,389.077 C96.795,396.905 104.953,393.383 110.347,385.057 z" fill-opacity="0" stroke="#665448" stroke-width="3" stroke-linecap="round" stroke-linejoin="round" id="path990"/>
    <path d="M110.734,384.257 C110.612,384.525 110.491,384.79 110.347,385.058 L111.73,383.736 z" fill="#DDBB91" id="path992"/>
    <path d="M110.734,384.257 C110.612,384.525 110.491,384.79 110.347,385.058 L111.73,383.736 z" fill-opacity="0" stroke="#665448" stroke-width="3" stroke-linecap="round" stroke-linejoin="round" id="path994"/>
    <path d="M110.347,385.058 C107.64,389.235 104.237,392.202 100.62,393.131 C100.647,400.347 95.183,407.519 103.995,408.53 C108.326,405.609 112.099,390.402 110.347,385.058" fill="#DDBB91" id="path996"/>
    <path d="M110.347,385.058 C107.64,389.235 104.237,392.202 100.62,393.131 C100.647,400.347 95.183,407.519 103.995,408.53 C108.326,405.609 112.099,390.402 110.347,385.058 z" fill-opacity="0" stroke="#665448" stroke-width="3" stroke-linecap="round" stroke-linejoin="round" id="path998"/>
    <path d="M113.852,378.495 C109.043,371.571 105.241,362.47 133.172,356.7 C141.631,356.534 143.081,360.811 144.437,364.722 C146.784,374.19 147.051,376.827 139.684,378.268 C132.04,380.165 116.028,382.591 113.852,378.495" fill="#DDBB91" id="path1000"/>
    <path d="M113.852,378.495 C109.043,371.571 105.241,362.47 133.172,356.7 C141.631,356.534 143.081,360.811 144.437,364.722 C146.784,374.19 147.051,376.827 139.684,378.268 C132.04,380.165 116.028,382.591 113.852,378.495 z" fill-opacity="0" stroke="#665448" stroke-width="3" stroke-linecap="round" stroke-linejoin="round" id="path1002"/>
    <path d="M133.172,356.7 C133.497,356.692 133.793,356.706 134.095,356.712 C130.008,351.04 122.722,342.21 117.185,346.757 C110.898,352.567 103.245,359.1 109.959,369.026 L110.663,368.78 C111.659,364.35 117.267,359.985 133.172,356.7" fill="#DDBB91" id="path1004"/>
    <path d="M133.172,356.7 C133.497,356.692 133.793,356.706 134.095,356.712 C130.008,351.04 122.722,342.21 117.185,346.757 C110.898,352.567 103.245,359.1 109.959,369.026 L110.663,368.78 C111.659,364.35 117.267,359.985 133.172,356.7 z" fill-opacity="0" stroke="#665448" stroke-width="3" stroke-linecap="round" stroke-linejoin="round" id="path1006"/>
    <path d="M117.185,346.757 C117.405,346.578 117.624,346.421 117.847,346.283 C112.17,344.669 105.393,344.871 99.627,349.181 C96.258,351.317 100.169,355.195 107.924,358.23 C109.389,353.804 113.508,350.155 117.185,346.757" fill="#DDBB91" id="path1008"/>
    <path d="M117.185,346.757 C117.405,346.578 117.624,346.421 117.847,346.283 C112.17,344.669 105.393,344.871 99.627,349.181 C96.258,351.317 100.169,355.195 107.924,358.23 C109.389,353.804 113.508,350.155 117.185,346.757 z" fill-opacity="0" stroke="#665448" stroke-width="3" stroke-linecap="round" stroke-linejoin="round" id="path1010"/>
    <path d="M134.657,390.72 C140.489,388.523 142.636,383.23 143.432,377.101 C142.498,377.581 141.278,377.956 139.683,378.269 C133.494,379.804 121.825,381.685 116.45,380.173 C116.657,390.741 125.119,393.45 134.657,390.72" fill="#DDBB91" id="path1012"/>
    <path d="M134.657,390.72 C140.489,388.523 142.636,383.23 143.432,377.101 C142.498,377.581 141.278,377.956 139.683,378.269 C133.494,379.804 121.825,381.685 116.45,380.173 C116.657,390.741 125.119,393.45 134.657,390.72 z" fill-opacity="0" stroke="#665448" stroke-width="3" stroke-linecap="round" stroke-linejoin="round" id="path1014"/>
    <path d="M135.475,390.372 C135.207,390.491 134.94,390.614 134.658,390.72 L136.568,390.632 z" fill="#DDBB91" id="path1016"/>
    <path d="M135.475,390.372 C135.207,390.491 134.94,390.614 134.658,390.72 L136.568,390.632 z" fill-opacity="0" stroke="#665448" stroke-width="3" stroke-linecap="round" stroke-linejoin="round" id="path1018"/>
    <path d="M134.657,390.72 C129.871,392.089 125.355,392.089 122.019,390.413 C117.296,395.868 108.467,397.681 114.442,404.236 C119.626,404.88 132.467,395.9 134.657,390.72" fill="#DDBB91" id="path1020"/>
    <path d="M134.657,390.72 C129.871,392.089 125.355,392.089 122.019,390.413 C117.296,395.868 108.467,397.681 114.442,404.236 C119.626,404.88 132.467,395.9 134.657,390.72 z" fill-opacity="0" stroke="#665448" stroke-width="3" stroke-linecap="round" stroke-linejoin="round" id="path1022"/>
    <path d="M251.76,395.477 C224.01,402.602 151.884,402.977 143.634,402.977 C135.384,402.977 63.26,402.602 35.51,395.477 C31.014,394.28 10.489,392.434 3.695,385.239 C2.285,394.27 5.5,415.452 37.884,421.727 C51.384,424.227 105.885,431.727 143.385,431.727 C180.885,431.727 235.385,424.227 248.885,421.727 C279.249,415.842 284.16,394.557 283.415,385.403 C276.465,392.463 256.221,394.288 251.76,395.477" fill="#C9A167" id="path1024"/>
    <path d="M251.76,395.477 C224.01,402.602 151.884,402.977 143.634,402.977 C135.384,402.977 63.26,402.602 35.51,395.477 C31.014,394.28 10.489,392.434 3.695,385.239 C2.285,394.27 5.5,415.452 37.884,421.727 C51.384,424.227 105.885,431.727 143.385,431.727 C180.885,431.727 235.385,424.227 248.885,421.727 C279.249,415.842 284.16,394.557 283.415,385.403 C276.465,392.463 256.221,394.288 251.76,395.477 z" fill-opacity="0" stroke="#665448" stroke-width="3" stroke-linecap="round" stroke-linejoin="round" id="path1026"/>
    <path d="M143.634,402.977 C151.884,402.977 224.01,402.602 251.76,395.477 C257.385,393.977 288.135,391.475 285.635,378.725 C284.135,372.477 278.387,372.977 269.135,376.227 C262.135,378.477 223.633,389.477 143.634,389.477 C63.636,389.477 25.134,378.477 18.135,376.227 C8.883,372.977 3.135,372.477 1.635,378.725 C-0.865,391.475 29.885,393.977 35.51,395.477 C63.26,402.602 135.384,402.977 143.634,402.977" fill="#C9A167" id="path1028"/>
    <path d="M143.634,402.977 C151.884,402.977 224.01,402.602 251.76,395.477 C257.385,393.977 288.135,391.475 285.635,378.725 C284.135,372.477 278.387,372.977 269.135,376.227 C262.135,378.477 223.633,389.477 143.634,389.477 C63.636,389.477 25.134,378.477 18.135,376.227 C8.883,372.977 3.135,372.477 1.635,378.725 C-0.865,391.475 29.885,393.977 35.51,395.477 C63.26,402.602 135.384,402.977 143.634,402.977 z" fill-opacity="0" stroke="#665448" stroke-width="3" stroke-linecap="round" stroke-linejoin="round" id="path1030"/>
    <path d="M143.634,402.977 C151.884,402.977 224.01,402.602 251.76,395.477 C257.385,393.977 288.135,391.475 285.635,378.725 C285.067,376.358 283.885,374.963 282.139,374.317 C282.588,379.739 278.857,380.997 273.885,383.979 C241.635,397.979 161.385,397.479 150.135,397.479 C72.635,397.229 42.885,390.227 24.135,386.727 C8.35,384.039 3.624,380.114 2.446,376.614 C2.106,377.207 1.831,377.905 1.635,378.725 C-0.865,391.475 29.885,393.977 35.51,395.477 C63.26,402.602 135.384,402.977 143.634,402.977" fill="#AF8D5B" id="path1032"/>
    <path d="M14.385,375.477 C12.885,377.727 12.384,387.729 20.135,392.727" fill-opacity="0" stroke="#665448" stroke-width="3" stroke-linecap="round" stroke-linejoin="round" id="path1034"/>
    <path d="M33.135,380.975 C31.884,384.477 35.135,394.227 42.384,396.477" fill-opacity="0" stroke="#665448" stroke-width="3" stroke-linecap="round" stroke-linejoin="round" id="path1036"/>
    <path d="M53.385,383.477 C52.385,387.227 54.885,396.227 60.135,399.477" fill-opacity="0" stroke="#665448" stroke-width="3" stroke-linecap="round" stroke-linejoin="round" id="path1038"/>
    <path d="M73.635,386.727 C73.134,389.727 74.885,398.225 83.135,400.475" fill-opacity="0" stroke="#665448" stroke-width="3" stroke-linecap="round" stroke-linejoin="round" id="path1040"/>
    <path d="M92.135,387.725 C92.634,390.227 94.135,400.227 105.885,401.975" fill-opacity="0" stroke="#665448" stroke-width="3" stroke-linecap="round" stroke-linejoin="round" id="path1042"/>
    <path d="M111.885,388.977 C111.885,391.475 111.463,399.946 121.713,402.696" fill-opacity="0" stroke="#665448" stroke-width="3" stroke-linecap="round" stroke-linejoin="round" id="path1044"/>
    <path d="M128.385,389.477 C128.885,392.225 130.134,400.227 141.384,402.725" fill-opacity="0" stroke="#665448" stroke-width="3" stroke-linecap="round" stroke-linejoin="round" id="path1046"/>
    <path d="M145.134,390.477 C146.634,395.225 151.635,401.477 162.635,402.477" fill-opacity="0" stroke="#665448" stroke-width="3" stroke-linecap="round" stroke-linejoin="round" id="path1048"/>
    <path d="M162.135,390.227 C163.134,394.227 172.385,401.979 179.634,402.227" fill-opacity="0" stroke="#665448" stroke-width="3" stroke-linecap="round" stroke-linejoin="round" id="path1050"/>
    <path d="M179.634,389.727 C179.634,392.979 187.635,399.227 195.384,401.225" fill-opacity="0" stroke="#665448" stroke-width="3" stroke-linecap="round" stroke-linejoin="round" id="path1052"/>
    <path d="M196.134,388.475 C196.635,394.227 205.135,400.227 211.385,400.475" fill-opacity="0" stroke="#665448" stroke-width="3" stroke-linecap="round" stroke-linejoin="round" id="path1054"/>
    <path d="M212.135,386.225 C212.385,390.227 218.133,397.977 226.884,399.477" fill-opacity="0" stroke="#665448" stroke-width="3" stroke-linecap="round" stroke-linejoin="round" id="path1056"/>
    <path d="M228.135,385.227 C228.384,388.227 233.634,395.727 241.884,396.977" fill-opacity="0" stroke="#665448" stroke-width="3" stroke-linecap="round" stroke-linejoin="round" id="path1058"/>
    <path d="M243.885,382.727 C244.884,385.977 251.136,392.727 258.885,393.725" fill-opacity="0" stroke="#665448" stroke-width="3" stroke-linecap="round" stroke-linejoin="round" id="path1060"/>
    <path d="M258.885,379.475 C260.634,382.475 264.384,389.727 273.635,390.477" fill-opacity="0" stroke="#665448" stroke-width="3" stroke-linecap="round" stroke-linejoin="round" id="path1062"/>
    <path d="M268.134,376.977 C270.135,379.727 275.883,383.975 283.884,382.727" fill-opacity="0" stroke="#665448" stroke-width="3" stroke-linecap="round" stroke-linejoin="round" id="path1064"/>
    <path d="M143.634,402.977 C151.884,402.977 224.01,402.602 251.76,395.477 C257.385,393.977 288.135,391.475 285.635,378.725 C284.135,372.477 278.387,372.977 269.135,376.227 C262.135,378.477 223.633,389.477 143.634,389.477 C63.636,389.477 25.134,378.477 18.135,376.227 C8.883,372.977 3.135,372.477 1.635,378.725 C-0.865,391.475 29.885,393.977 35.51,395.477 C63.26,402.602 135.384,402.977 143.634,402.977 z" fill-opacity="0" stroke="#665448" stroke-width="3" stroke-linecap="round" stroke-linejoin="round" id="path1066"/>
    <path d="M251.76,395.477 C251.156,395.633 250.527,395.782 249.882,395.932 C225.126,427.715 152.602,423.758 136.134,424.727 C46.326,424.727 13.471,408.62 6.586,401.858 C10.723,409.989 19.708,418.206 37.884,421.727 C51.384,424.227 105.885,431.727 143.385,431.727 C180.885,431.727 235.385,424.227 248.885,421.727 C279.249,415.842 284.16,394.557 283.415,385.403 C276.465,392.463 256.221,394.288 251.76,395.477" fill="#AF8D5B" id="path1068"/>
    <path d="M196.76,402.227 C196.76,402.227 192.635,420.977 178.385,429.977" fill-opacity="0" stroke="#665448" stroke-width="3" stroke-linecap="round" stroke-linejoin="round" id="path1070"/>
    <path d="M224.885,400.727 C224.51,404.477 223.01,419.477 212.51,426.977" fill-opacity="0" stroke="#665448" stroke-width="3" stroke-linecap="round" stroke-linejoin="round" id="path1072"/>
    <path d="M251.76,395.477 C251.76,395.477 250.76,411.977 241.01,421.727" fill-opacity="0" stroke="#665448" stroke-width="3" stroke-linecap="round" stroke-linejoin="round" id="path1074"/>
    <path d="M273.635,390.477 C273.635,390.477 272.51,405.977 263.885,416.477" fill-opacity="0" stroke="#665448" stroke-width="3" stroke-linecap="round" stroke-linejoin="round" id="path1076"/>
    <path d="M164.885,403.352 C162.635,408.977 161.135,422.477 148.385,431.102" fill-opacity="0" stroke="#665448" stroke-width="3" stroke-linecap="round" stroke-linejoin="round" id="path1078"/>
    <path d="M134.885,403.727 C134.51,410.102 126.135,423.725 115.635,430.475" fill-opacity="0" stroke="#665448" stroke-width="3" stroke-linecap="round" stroke-linejoin="round" id="path1080"/>
    <path d="M101.885,401.852 C101.135,405.602 97.509,421.977 82.134,427.977" fill-opacity="0" stroke="#665448" stroke-width="3" stroke-linecap="round" stroke-linejoin="round" id="path1082"/>
    <path d="M71.135,400.727 C71.385,405.227 66.26,418.727 52.385,423.602" fill-opacity="0" stroke="#665448" stroke-width="3" stroke-linecap="round" stroke-linejoin="round" id="path1084"/>
    <path d="M45.635,397.727 C44.634,404.979 38.51,414.602 25.76,417.602" fill-opacity="0" stroke="#665448" stroke-width="3" stroke-linecap="round" stroke-linejoin="round" id="path1086"/>
    <path d="M20.135,392.727 C20.135,392.727 18.635,402.977 8.885,404.477" fill-opacity="0" stroke="#665448" stroke-width="3" stroke-linecap="round" stroke-linejoin="round" id="path1088"/>
    <path d="M111.885,403.227 C111.384,407.727 117.885,428.975 142.134,431.975" fill-opacity="0" stroke="#665448" stroke-width="3" stroke-linecap="round" stroke-linejoin="round" id="path1090"/>
    <path d="M78.885,400.727 C78.635,405.977 79.884,425.477 109.134,430.227" fill-opacity="0" stroke="#665448" stroke-width="3" stroke-linecap="round" stroke-linejoin="round" id="path1092"/>
    <path d="M52.134,398.477 C51.635,402.725 52.134,421.977 72.384,426.477" fill-opacity="0" stroke="#665448" stroke-width="3" stroke-linecap="round" stroke-linejoin="round" id="path1094"/>
    <path d="M27.384,393.725 C26.385,397.475 29.635,417.227 42.885,422.727" fill-opacity="0" stroke="#665448" stroke-width="3" stroke-linecap="round" stroke-linejoin="round" id="path1096"/>
    <path d="M8.634,388.475 C8.385,392.727 11.136,409.227 16.635,413.477" fill-opacity="0" stroke="#665448" stroke-width="3" stroke-linecap="round" stroke-linejoin="round" id="path1098"/>
    <path d="M147.384,402.977 C148.134,408.977 150.385,425.477 168.885,430.727" fill-opacity="0" stroke="#665448" stroke-width="3" stroke-linecap="round" stroke-linejoin="round" id="path1100"/>
    <path d="M177.885,402.477 C178.385,408.977 186.885,426.477 203.634,427.475" fill-opacity="0" stroke="#665448" stroke-width="3" stroke-linecap="round" stroke-linejoin="round" id="path1102"/>
    <path d="M209.885,400.727 C211.885,405.977 217.884,422.727 233.135,424.227" fill-opacity="0" stroke="#665448" stroke-width="3" stroke-linecap="round" stroke-linejoin="round" id="path1104"/>
    <path d="M236.885,397.977 C236.385,404.225 242.383,418.977 257.885,419.225" fill-opacity="0" stroke="#665448" stroke-width="3" stroke-linecap="round" stroke-linejoin="round" id="path1106"/>
    <path d="M262.135,393.726 C262.885,396.477 265.385,404.976 276.885,405.726" fill-opacity="0" stroke="#665448" stroke-width="3" stroke-linecap="round" stroke-linejoin="round" id="path1108"/>
    <path d="M251.76,395.477 C224.01,402.602 151.884,402.977 143.634,402.977 C135.384,402.977 63.26,402.602 35.51,395.477 C31.014,394.28 10.489,392.434 3.695,385.239 C2.285,394.27 5.5,415.452 37.884,421.727 C51.384,424.227 105.885,431.727 143.385,431.727 C180.885,431.727 235.385,424.227 248.885,421.727 C279.249,415.842 284.16,394.557 283.415,385.403 C276.465,392.463 256.221,394.288 251.76,395.477 z" fill-opacity="0" stroke="#665448" stroke-width="3" stroke-linecap="round" stroke-linejoin="round" id="path1110"/>
    <path d="M62.259,429.726 C49.884,438.603 32.135,430.978 27.635,428.478 C24.51,427.101 20.385,423.853 18.51,418.101 C17.135,414.726 19.509,412.851 21.635,412.603 C22.509,412.476 24.759,412.228 27.009,415.851 C28.509,418.476 29.634,419.226 32.259,420.726 C33.635,421.476 35.259,421.476 37.385,419.103 C40.385,416.728 42.51,414.603 45.885,408.978 C47.259,407.103 49.134,404.605 51.26,405.853 C51.26,405.853 53.01,406.538 52.01,410.915 C52.509,409.915 55.626,403.494 58.76,404.226 C60.135,404.478 62.135,407.226 60.384,410.976 C61.947,407.478 64.635,405.726 66.635,406.353 C68.01,406.728 68.758,409.978 67.134,413.103 C68.259,411.978 69.885,410.103 71.259,411.853 C72.635,412.978 71.259,421.978 62.259,429.726" fill="#FDF5E8" id="path1112"/>
    <path d="M62.259,429.726 C49.884,438.603 32.135,430.978 27.635,428.478 C24.51,427.101 20.385,423.853 18.51,418.101 C17.135,414.726 19.509,412.851 21.635,412.603 C22.509,412.476 24.759,412.228 27.009,415.851 C28.509,418.476 29.634,419.226 32.259,420.726 C33.635,421.476 35.259,421.476 37.385,419.103 C40.385,416.728 42.51,414.603 45.885,408.978 C47.259,407.103 49.134,404.605 51.26,405.853 C51.26,405.853 53.01,406.538 52.01,410.915 C52.509,409.915 55.626,403.494 58.76,404.226 C60.135,404.478 62.135,407.226 60.384,410.976 C61.947,407.478 64.635,405.726 66.635,406.353 C68.01,406.728 68.758,409.978 67.134,413.103 C68.259,411.978 69.885,410.103 71.259,411.853 C72.635,412.978 71.259,421.978 62.259,429.726 z" fill-opacity="0" stroke="#665448" stroke-width="3" stroke-linecap="round" stroke-linejoin="round" id="path1114"/>
    <path d="M52.01,410.915 C52.01,410.915 50.01,418.228 47.76,420.351" fill-opacity="0" stroke="#665448" stroke-width="3" stroke-linecap="round" stroke-linejoin="round" id="path1116"/>
    <path d="M60.384,410.975 C60.384,410.975 56.76,420.477 55.01,422.225" fill-opacity="0" stroke="#665448" stroke-width="3" stroke-linecap="round" stroke-linejoin="round" id="path1118"/>
    <path d="M67.134,413.102 C67.134,413.102 64.134,421.352 61.01,424.352" fill-opacity="0" stroke="#665448" stroke-width="3" stroke-linecap="round" stroke-linejoin="round" id="path1120"/>
    <path d="M224.51,432.351 C236.885,441.228 254.634,433.603 259.134,431.103 C262.258,429.726 266.383,426.478 268.258,420.726 C269.634,417.351 267.26,415.476 265.134,415.228 C264.26,415.101 262.01,414.853 259.76,418.476 C258.26,421.101 257.135,421.851 254.51,423.351 C253.134,424.101 251.51,424.101 249.384,421.728 C246.384,419.353 244.258,417.228 240.883,411.603 C239.51,409.728 237.635,407.23 235.509,408.478 C235.509,408.478 233.758,409.163 234.759,413.54 C234.26,412.54 231.143,406.119 228.009,406.851 C226.633,407.103 224.634,409.851 226.385,413.601 C224.822,410.103 222.133,408.351 220.134,408.978 C218.758,409.353 218.01,412.603 219.635,415.728 C218.51,414.603 216.883,412.728 215.51,414.478 C214.134,415.603 215.51,424.603 224.51,432.351" fill="#FDF5E8" id="path1122"/>
    <path d="M224.51,432.351 C236.885,441.228 254.634,433.603 259.134,431.103 C262.258,429.726 266.383,426.478 268.258,420.726 C269.634,417.351 267.26,415.476 265.134,415.228 C264.26,415.101 262.01,414.853 259.76,418.476 C258.26,421.101 257.135,421.851 254.51,423.351 C253.134,424.101 251.51,424.101 249.384,421.728 C246.384,419.353 244.258,417.228 240.883,411.603 C239.51,409.728 237.635,407.23 235.509,408.478 C235.509,408.478 233.758,409.163 234.759,413.54 C234.26,412.54 231.143,406.119 228.009,406.851 C226.633,407.103 224.634,409.851 226.385,413.601 C224.822,410.103 222.133,408.351 220.134,408.978 C218.758,409.353 218.01,412.603 219.635,415.728 C218.51,414.603 216.883,412.728 215.51,414.478 C214.134,415.603 215.51,424.603 224.51,432.351 z" fill-opacity="0" stroke="#665448" stroke-width="3" stroke-linecap="round" stroke-linejoin="round" id="path1124"/>
    <path d="M234.759,413.54 C234.759,413.54 236.758,420.853 239.008,422.976" fill-opacity="0" stroke="#665448" stroke-width="3" stroke-linecap="round" stroke-linejoin="round" id="path1126"/>
    <path d="M226.385,413.6 C226.385,413.6 230.008,423.102 231.759,424.85" fill-opacity="0" stroke="#665448" stroke-width="3" stroke-linecap="round" stroke-linejoin="round" id="path1128"/>
    <path d="M219.635,415.727 C219.635,415.727 222.635,423.977 225.759,426.977" fill-opacity="0" stroke="#665448" stroke-width="3" stroke-linecap="round" stroke-linejoin="round" id="path1130"/>
    <g id="g1136">
      <path d="M125.51,312.976 L115.385,326.101" fill="#DDBB91" id="path1132"/>
      <path d="M125.51,312.976 L115.385,326.101" fill-opacity="0" stroke="#665448" stroke-width="3" stroke-linecap="round" stroke-linejoin="round" id="path1134"/>
    </g>
    <path d="M199.79,151.495 C216.076,169.41 222.794,194.653 222.794,204.018 C222.794,210.94 219.536,236.998 217.907,244.327 C214.854,259.595 198.161,290.539 143.602,290.539 C89.043,290.539 72.35,259.595 69.296,244.327 C67.667,236.998 64.41,210.94 64.41,204.018 C64.41,194.653 71.129,169.41 87.414,151.495 C99.63,146.61 183.911,150.274 199.79,151.495" fill="#FDF5E8" id="path1138"/>
    <path d="M199.79,151.495 C216.076,169.41 222.794,194.653 222.794,204.018 C222.794,210.94 219.536,236.998 217.907,244.327 C214.854,259.595 198.161,290.539 143.602,290.539 C89.043,290.539 72.35,259.595 69.296,244.327 C67.667,236.998 64.41,210.94 64.41,204.018 C64.41,194.653 71.129,169.41 87.414,151.495 C99.63,146.61 183.911,150.274 199.79,151.495 z" fill-opacity="0" stroke="#665448" stroke-width="4.5" id="path1140"/>
    <path d="M64.791,210.516 C59.552,210.007 52.021,215.705 53.213,223.154 C52.846,229.404 58.455,240.296 68.236,238.458 C66.99,230.596 65.486,218.516 64.791,210.516" fill="#FDF5E8" id="path1142"/>
    <path d="M64.791,210.516 C59.552,210.007 52.021,215.705 53.213,223.154 C52.846,229.404 58.455,240.296 68.236,238.458 C66.99,230.596 65.486,218.516 64.791,210.516 z" fill-opacity="0" stroke="#665448" stroke-width="4.5" id="path1144"/>
    <path d="M222.413,210.485 C221.719,218.526 220.199,230.712 218.945,238.58 C228.237,239.702 233.534,229.233 233.177,223.154 C234.308,216.085 227.582,210.591 222.413,210.485" fill="#FDF5E8" id="path1146"/>
    <path d="M222.413,210.485 C221.719,218.526 220.199,230.712 218.945,238.58 C228.237,239.702 233.534,229.233 233.177,223.154 C234.308,216.085 227.582,210.591 222.413,210.485 z" fill-opacity="0" stroke="#665448" stroke-width="4.5" id="path1148"/>
    <path d="M225.168,97.344 C225.168,103.859 224.627,158.146 223.539,163.575 C218.518,178.368 62.307,170.089 67.193,146.202 C74.248,115.802 77.506,101.688 84.021,77.259 C69.906,70.743 53.621,35.456 87.278,14.284 C101.395,3.427 131.795,4.513 136.137,27.857 C139.938,12.113 151.883,-2.002 181.197,3.427 C198.568,5.599 209.424,19.714 205.626,38.714 C220.826,28.943 243.084,36 250.685,56.086 C258.826,80.516 238.742,99.516 225.168,97.344" fill="#FEFEFE" id="path1150"/>
    <path d="M225.168,97.344 C225.168,103.859 224.627,158.146 223.539,163.575 C218.518,178.368 62.307,170.089 67.193,146.202 C74.248,115.802 77.506,101.688 84.021,77.259 C69.906,70.743 53.621,35.456 87.278,14.284 C101.395,3.427 131.795,4.513 136.137,27.857 C139.938,12.113 151.883,-2.002 181.197,3.427 C198.568,5.599 209.424,19.714 205.626,38.714 C220.826,28.943 243.084,36 250.685,56.086 C258.826,80.516 238.742,99.516 225.168,97.344 z" fill-opacity="0" stroke="#665448" stroke-width="4.5" stroke-linecap="round" stroke-linejoin="round" id="path1152"/>
    <path d="M76.014,113.224 C78.457,118.516 186.76,131.138 224.627,122.995" fill-opacity="0" stroke="#665448" stroke-width="3" stroke-linecap="round" stroke-linejoin="round" id="path1154"/>
    <path d="M144.416,189.36 C142.38,198.318 136.273,234.554 135.459,236.998 C135.459,236.998 146.045,239.847 148.895,241.069" fill-opacity="0" stroke="#665448" stroke-width="3" stroke-linecap="round" stroke-linejoin="round" id="path1156"/>
    <path d="M118.766,253.556 C124.467,261.701 154.188,265.365 167.623,254.779" fill-opacity="0" stroke="#665448" stroke-width="3" stroke-linecap="round" stroke-linejoin="round" id="path1158"/>
    <g clip-path="url(#Clip_1)" id="g1162">
      <path d="M123.653,246.362 C123.653,260.979 111.803,272.827 97.187,272.827 C82.571,272.827 70.721,260.979 70.721,246.362 C70.721,231.747 82.571,219.897 97.187,219.897 C111.803,219.897 123.653,231.747 123.653,246.362 z" fill="url(#Gradient_1)" id="path1160"/>
    </g>
    <g clip-path="url(#Clip_2)" id="g1166">
      <path d="M216.076,246.362 C216.076,260.979 204.227,272.827 189.612,272.827 C174.994,272.827 163.146,260.979 163.146,246.362 C163.146,231.747 174.994,219.897 189.612,219.897 C204.227,219.897 216.076,231.747 216.076,246.362 z" fill="url(#Gradient_2)" id="path1164"/>
    </g>
    <path d="M187.779,212.976 C187.779,215.788 185.5,218.066 182.69,218.066 C179.88,218.066 177.6,215.788 177.6,212.976 C177.6,210.166 179.88,207.887 182.69,207.887 C185.5,207.887 187.779,210.166 187.779,212.976" fill="#665448" id="path1168"/>
    <path d="M109.604,212.976 C109.604,215.788 107.327,218.066 104.516,218.066 C101.705,218.066 99.426,215.788 99.426,212.976 C99.426,210.166 101.705,207.887 104.516,207.887 C107.327,207.887 109.604,210.166 109.604,212.976" fill="#665448" id="path1170"/>
    <path d="M77.751,30.162 C76.204,38.93 69.5,65.232 89.098,72.452 C98.897,75.032 114.883,79.157 127.262,59.044 C121.588,62.138 87.035,72.969 77.751,30.162" fill="#E9F5FC" id="path1172"/>
    <path d="M140.346,49.096 C139.862,65.066 141.771,73.729 161.028,78.014 C177.211,80.488 186.315,76.4 192.296,57.748 C189.201,60.928 178.617,68.436 162.955,65.397 C157.424,64.029 148.758,63.55 140.346,49.096" fill="#E9F5FC" id="path1174"/>
    <path d="M194.089,75.764 C203.963,92.966 224.627,92.711 236.434,83.5 C242.998,78.664 248.203,64.868 239.233,51.026 C241.176,60.178 240.852,67.972 229.207,76.426 C219.893,83.143 201.589,78.98 194.089,75.764" fill="#E9F5FC" id="path1176"/>
    <path d="M221.423,145.306 L222.454,156.653 C216.782,160.778 136.843,177.797 72.377,148.916 L74.955,136.539 C75.987,140.664 77.019,146.853 87.848,149.948 C100.227,153.558 137.874,164.388 199.762,157.685 C204.918,157.168 214.72,153.042 221.423,145.306" fill="#E9F5FC" id="path1178"/>
  </g>
</svg>