<?xml version="1.0" encoding="UTF-8"?>
<!DOCTYPE svg PUBLIC "-//W3C//DTD SVG 1.1//EN" "http://www.w3.org/Graphics/SVG/1.1/DTD/svg11.dtd">
<svg version="1.1" xmlns="http://www.w3.org/2000/svg" xmlns:xlink="http://www.w3.org/1999/xlink" x="0" y="0" width="766" height="1081" viewBox="0, 0, 766, 1081">
  <defs>
    <clipPath id="Clip_1">
      <path d="M0.06,0.15 L765.525,0.15 L765.525,1080.94 L0.06,1080.94 z"/>
    </clipPath>
  </defs>
  <g id="Layer_1">
    <g clip-path="url(#Clip_1)">
      <path d="M244.715,1077.02 L243.934,1074.58 L243.359,1072.8 L221.382,1004.34 L234.715,927.004 L261.382,864.337 L300.049,842.337 L400.049,853.671 L467.382,845.671 L502.715,852.337 L528.715,889.004 L544.715,935.004 L556.715,977.671 L554.715,1019.67 L547.382,1055.67 L540.715,1079.67 L242.715,1081 L244.715,1077.02" fill="#FEFEFE"/>
      <path d="M271.403,846.464 C251.547,839.601 233.387,831.099 216.362,820.278 C169.437,790.453 137.723,748.323 117.107,697.271 C111.314,682.927 106.551,668.238 102.91,653.192 C102.344,650.855 102.13,648.679 98.494,648.471 C73.99,647.071 57.204,633.651 51.124,609.971 C45.887,589.572 46.075,569.134 53.143,549.016 C54.383,545.487 58.828,542.115 57.383,539.155 C56.185,536.702 51.029,536.265 47.711,534.749 C21.468,522.764 8.482,501.145 3.037,473.799 C-3.632,440.309 1.336,407.962 11.581,375.967 C27.397,326.571 53.95,283.604 89.771,246.409 C144.541,189.54 210.407,150.117 285.084,125.507 C330.728,110.465 377.89,107.087 425.663,111.311 C446.423,113.147 466.917,116.521 487.155,121.478 C487.6,121.587 488.094,121.491 489.041,121.491 C487.178,111.745 486.639,102.044 487.945,92.281 C491.158,68.256 498.047,45.568 515.087,27.594 C537.492,3.96 565.935,-2.746 597.311,1.217 C647.365,7.538 684.937,51.493 693.944,99.061 C697.513,117.913 697.018,136.509 689.95,154.578 C682.451,173.748 669.117,187.554 650.734,196.61 C649.245,197.344 647.744,198.053 646.255,198.786 C646.134,198.845 646.062,199.003 645.673,199.465 C659.495,209.971 671.84,222.099 683.512,234.872 C719.517,274.274 747.06,318.535 759.324,371.086 C769.347,414.037 768.146,456.289 748.857,496.891 C741.254,512.896 731.906,527.516 715.562,536.114 C713.671,537.109 713.89,537.819 714.863,539.47 C729.892,564.947 729.151,591.73 719.275,618.261 C711.961,637.912 696.01,647.662 675.122,648.4 C670.463,648.565 669.84,650.818 669,654.142 C658.995,693.733 642.92,730.495 617.984,763.098 C590.51,799.02 555.433,824.834 513.538,841.566 C512.306,842.058 511.062,842.519 509.838,843.03 C509.382,843.221 508.968,843.514 508.237,843.93 C511.738,847.68 515.355,851.233 518.612,855.092 C542.266,883.116 555.761,915.89 562.88,951.466 C569.062,982.36 569.578,1013.26 561.006,1043.9 C558.266,1053.7 554.508,1063.1 549.293,1071.87 C546.574,1076.43 539.507,1078.28 534.92,1075.81 C530.458,1073.4 528.43,1067.17 531.169,1062.3 C544.193,1039.17 547.939,1014.03 546.7,988.068 C544.865,949.632 534.24,913.783 512.89,881.467 C506.814,872.269 499.741,863.863 491.276,856.712 C489.299,855.041 476.042,853.519 474.003,854.699 C472.715,855.445 473.069,856.741 473.019,857.828 C472.596,866.944 469.623,875.085 463.629,881.994 C462.408,883.401 462.171,884.858 461.987,886.524 C458.014,922.602 425.78,949.819 389.733,947.554 C361.24,945.764 334.422,920.588 331.045,892.367 C330.834,890.608 330.366,889.236 329.068,888.005 C321.267,880.61 317.411,871.132 315.251,860.891 C314.763,858.577 314.055,857.474 311.69,857.088 C307.922,856.472 304.23,855.404 300.469,854.726 C296.001,853.921 292.273,854.93 288.737,858.295 C266.633,879.334 253.276,905.45 244.625,934.195 C234.584,967.559 231.35,1001.35 240.041,1035.61 C242.257,1044.34 245.539,1052.67 249.906,1060.57 C253.349,1066.8 252.106,1073.11 247.049,1075.82 C241.799,1078.63 235.133,1076.36 231.932,1070.55 C220.868,1050.46 215.878,1028.73 214.978,1006.01 C213.103,958.68 224.454,914.706 249.194,874.276 C255.29,864.314 262.582,855.224 271.403,846.464" fill="#6E4100"/>
    </g>
    <path d="M122.237,645.583 C113.198,609.325 108.93,572.426 111.233,535.207 C115.414,467.644 132.199,403.499 169.721,346.309 C212.52,281.078 273.296,242.14 350.27,230.818 C431.648,218.848 502.517,243.759 562.761,298.811 C600.528,333.322 624.09,377.05 639.974,425.172 C650.226,456.231 657.058,488.094 660.181,520.624 C663.152,551.579 661.165,582.463 656.466,613.176 C654.956,623.042 653.116,632.843 650.706,642.533 C647.083,642.156 646.791,638.809 645.618,636.482 C639.661,624.659 631.265,615.101 620.171,607.851 C614.51,604.152 608.083,602.487 601.794,600.416 C593.561,592.374 584.787,585.09 574.066,580.494 C571.772,579.51 569.531,578.399 567.031,578.049 C563.564,577.563 560.707,578.458 559.274,581.946 C557.815,585.493 559.495,588.06 562.207,590.121 C564.621,591.957 567.696,592.472 570.3,593.937 C572.153,594.979 574.278,595.726 575.236,597.905 C574.307,600.666 571.684,600.614 569.54,601.266 C544.912,608.748 528.045,624.345 519.439,648.769 C512.018,669.828 520.817,689.219 535.254,701.113 C546.836,710.654 560.614,714.846 575.086,717.15 C586.033,718.893 596.934,718.973 607.708,715.601 C613.181,713.888 618.219,711.467 622.924,708.239 C624.508,707.153 625.999,705.499 628.288,706.588 C617.564,729.934 603.267,750.879 585.493,769.389 C549.875,806.481 505.713,827.43 455.768,836.901 C399.802,847.515 344.085,846.35 289.21,830.435 C223.101,811.263 174.851,770.436 144.639,708.473 C144.353,707.885 144.175,707.245 143.947,706.629 C145.396,703.547 147.337,705.949 148.673,706.495 C158.598,710.552 168.787,713.356 179.487,714.503 C196.426,716.32 211.543,712.417 224.26,700.79 C231.393,694.268 238.332,687.518 242.387,678.463 C248.436,664.955 245.799,651.973 239.418,639.541 C229.427,620.077 214.058,607.743 191.742,605.193 C188.914,604.87 186.089,605.017 183.267,604.883 C181.328,604.791 179.189,605.227 177.802,603.247 C177.855,600.662 179.907,599.632 181.676,598.49 C186.003,595.697 190.543,593.306 195.3,591.293 C199.853,589.368 201.735,585.568 200.243,581.869 C198.837,578.385 194.99,576.687 190.504,578.469 C173.531,585.21 159.087,594.95 151.827,612.723 C148.403,617.7 142.977,620.527 138.853,624.811 C133.639,630.228 129.42,636.22 125.822,642.748 C125.066,644.121 124.986,646.623 122.237,645.583" fill="#FEF2DF"/>
    <path d="M644.24,379.506 C628.956,346.081 609.112,315.753 583.115,289.618 C544.14,250.436 497.439,224.914 443.513,213.821 C347.761,194.125 264.56,220.338 193.163,285.813 C168.52,308.413 149.844,335.734 134.725,365.494 C132.062,366.546 131.641,364.194 131.075,362.764 C126.235,350.532 122.307,337.995 120.757,324.904 C118.058,302.103 119.871,279.498 124.773,257.13 C126.696,248.356 129.106,239.713 134.975,232.543 C144.403,223.304 155.096,215.633 165.899,208.169 C208.419,178.791 253.803,155.185 303.836,141.364 C329.762,134.203 356.283,130.813 383.201,130.465 C471.856,129.318 551.763,155.279 623.04,207.875 C634.015,215.973 644.566,224.641 654.005,234.56 C659.87,241.827 661.843,250.655 663.634,259.449 C668.414,282.913 670.491,306.596 666.171,330.316 C663.308,346.039 659.25,361.562 650.423,375.265 C649.067,377.371 648.17,380.854 644.24,379.506" fill="#FEFEFE"/>
    <path d="M628.288,706.588 C623.353,708.612 619.564,712.533 614.595,714.592 C597.161,721.816 579.611,720.483 561.976,715.692 C550.121,712.472 539.178,707.49 530.453,698.526 C515.407,683.067 511.214,664.578 519.719,644.17 C529.439,620.846 546.629,606.063 571.013,599.603 C572.475,599.216 573.931,598.943 574.897,597.634 C580.927,598.843 584.576,603.451 588.572,607.446 C591.151,610.024 592.688,613.413 594.443,616.614 C596.755,620.832 600.326,622.208 603.869,620.539 C607.205,618.967 608.33,615.611 606.982,611.159 C606.258,608.764 605.058,606.601 603.767,604.465 C602.868,602.975 601.287,601.672 601.97,599.578 C621.842,603.445 635.099,615.893 645.033,632.699 C646.959,635.957 647.719,639.889 650.706,642.532 C645.483,664.672 638.558,686.215 628.288,706.588" fill="#FFD7BA"/>
    <path d="M177.975,602.578 C179.784,604.415 182.088,603.565 184.14,603.54 C218.527,603.117 240.55,627.466 246.687,656.957 C249.255,669.292 244.705,680.715 236.544,690.174 C229.17,698.72 221.294,706.944 210.608,711.519 C195.449,718.008 179.973,717.289 164.381,713.225 C158.258,711.629 152.326,709.553 146.605,706.854 C145.792,706.47 144.923,705.565 143.947,706.629 C134.609,688.433 128.316,669.127 123.096,649.431 C122.76,648.161 122.521,646.866 122.237,645.583 C125.15,643.867 125.516,640.484 127.027,637.905 C133.088,627.569 141.991,620.039 150.997,612.556 C152.185,613.479 152.09,614.907 152.415,616.168 C153.17,619.102 155.216,620.635 158.056,621.087 C161.048,621.562 163.235,620.202 164.579,617.567 C166.93,612.957 169.444,608.466 173.394,604.994 C174.712,603.837 175.759,602.072 177.975,602.578" fill="#FFD7BA"/>
    <path d="M508.117,105.573 C504.63,70.005 527.603,32.648 559.248,23.975 C590.433,15.428 618.132,22.833 641.858,44.783 C645.14,47.819 647.96,51.354 650.994,54.658 C652.259,57.107 651.625,59.489 650.794,61.891 C647.163,72.399 640.852,81.067 632.529,88.307 C613.185,105.136 590.719,114.576 565.187,117.054 C553.367,118.201 541.619,118.514 529.827,116.964 C523.595,116.145 517.936,113.867 512.522,110.807 C510.386,109.599 508.976,107.83 508.117,105.573" fill="#FEFEFE"/>
    <path d="M96.234,483.728 C94.85,493.276 93.37,502.811 92.156,512.38 C91.882,514.539 90.674,515.614 89.21,516.675 C82.649,521.43 75.249,522.04 67.76,520.104 C43.405,513.808 29.475,497.793 23.993,473.448 C17.427,444.284 20.905,415.935 29.416,387.806 C35.775,366.788 44.203,346.656 54.947,327.499 C57.985,328.203 56.682,330.524 56.648,332.277 C56.432,343.244 54.881,354.163 55.433,365.16 C56.78,391.995 59.37,418.599 69.996,443.714 C75.299,456.249 82.233,467.697 92.099,477.237 C93.959,479.035 96.332,480.629 96.234,483.728" fill="#FEFEFE"/>
    <path d="M673.06,469.595 C668.356,446.491 661.721,423.939 653.714,401.777 C653.561,400.142 654.354,398.866 655.409,397.785 C669.277,383.579 675.516,365.63 680.684,347.052 C686.624,325.697 686.231,304.017 684.799,282.233 C684.571,278.753 684.166,275.284 684.055,271.801 C684.018,270.675 684.356,269.413 686.015,269.529 C693.742,279.354 701.246,289.334 707.206,300.373 C711.552,309.785 712.063,319.998 713.334,330.04 C715.288,345.471 714.862,361.021 714.175,376.449 C713.102,400.561 708.64,424.109 697.344,445.836 C692.688,454.791 686.641,462.729 678.489,468.834 C677.017,469.936 675.278,472.42 673.06,469.595" fill="#FEFEFE"/>
    <path d="M123.223,389.761 C114.51,411.528 107.253,433.759 101.939,456.608 C100.367,460.762 98.706,457.837 97.561,456.467 C92.5,450.416 88.888,443.461 85.996,436.191 C77.732,415.419 74.285,393.73 73.523,371.451 C72.869,352.317 73.709,333.321 76.612,314.407 C77.783,306.777 80.574,299.296 78.738,291.388 C86.012,281.09 94.316,271.655 102.935,262.483 C106.177,263.302 105.072,265.835 104.751,267.726 C102.286,282.253 102.326,296.894 102.461,311.552 C102.695,337.059 109.528,360.812 121.368,383.252 C122.443,385.29 123.882,387.227 123.223,389.761" fill="#FEFEFE"/>
    <path d="M734.726,358.739 C741.89,381.945 746.106,405.588 744.928,429.974 C743.702,455.368 736.359,478.943 723.321,500.742 C720.924,504.75 717.863,508.253 714.592,511.614 C705.361,521.098 694.514,522.354 682.434,518.505 C680.368,517.847 680.593,516.337 680.406,515.013 C679.456,508.263 678.635,501.494 677.769,494.732 C676.884,492.02 678.101,490.266 680.374,488.973 C699.902,477.862 711.705,460.484 719.443,440.047 C727.17,419.638 730.942,398.393 731.634,376.586 C731.793,371.603 732.82,366.68 732.773,361.665 C732.761,360.468 732.816,358.863 734.726,358.739" fill="#FEFEFE"/>
    <path d="M78.738,291.388 C81.276,295.836 81.203,300.373 80.024,305.306 C76.735,319.06 75.476,333.09 74.95,347.213 C73.989,373.037 75.557,398.573 83.032,423.488 C86.491,435.018 91.182,445.977 98.57,455.603 C99.3,456.554 99.936,459.313 101.939,456.607 C100.037,465.648 98.135,474.689 96.233,483.729 C88.869,475.84 81.323,468.189 75.83,458.674 C66.543,442.586 61.302,425.186 58.107,407.102 C54.834,388.572 53.653,369.837 54.167,351.028 C54.358,344.071 55.106,337.128 55.64,330.182 C55.717,329.172 55.97,328.192 54.946,327.499 C62.064,314.926 69.708,302.701 78.738,291.388" fill="#BEBEBE"/>
    <path d="M734.726,358.739 C733.385,366.066 733.481,373.508 732.957,380.901 C731.232,405.26 726.892,429.034 716.094,451.186 C708.055,467.679 696.967,481.575 680.44,490.395 C678.518,491.42 677.893,492.816 677.769,494.733 C676.199,486.353 674.63,477.973 673.06,469.594 C676.589,470.221 678.307,467.337 680.371,465.515 C690.853,456.27 697.377,444.443 702.16,431.489 C711.998,404.845 713.573,377.151 713.072,349.126 C712.777,332.651 710.279,316.489 707.206,300.373 C718.124,316.798 726.268,334.573 732.859,353.102 C733.522,354.967 734.106,356.859 734.726,358.739" fill="#BEBEBE"/>
    <path d="M508.117,105.573 C515.625,113.102 525.291,115.814 535.33,116.391 C573.691,118.595 608.878,110.732 636.842,82.106 C644.277,74.496 649.693,65.567 650.994,54.658 C657.073,61.966 662.022,69.975 665.895,78.652 C658.49,93.583 646.564,104.286 633.242,113.728 C611.073,129.439 586.088,136.369 559.281,138.085 C553.178,138.476 547.126,139.119 541.017,138.536 C533.253,135.746 525.514,132.884 517.708,130.216 C515.773,129.555 514.896,128.183 513.849,126.686 C509.398,120.319 507.692,113.244 508.117,105.573" fill="#BEBEBE"/>
    <path d="M541.017,138.536 C547.583,136.643 554.392,137.312 561.073,136.813 C596.793,134.142 627.82,121.362 652.845,95.219 C656.778,91.111 659.903,86.397 662.946,81.623 C663.706,80.431 663.906,78.639 665.896,78.652 C666.959,81.289 668.023,83.927 669.087,86.565 C669.775,88.541 669.473,90.489 668.883,92.416 C664.138,107.927 657.798,122.704 647.966,135.721 C639.55,146.862 629.697,156.44 616.218,161.287 C609.663,163.644 602.928,165.543 595.795,164.859 C578.071,154.97 559.925,145.961 541.017,138.536" fill="#FEFEFE"/>
    <path d="M686.015,269.529 C684.158,273.896 685.982,278.255 686.369,282.516 C689.576,317.863 685.281,351.774 668.13,383.408 C664.364,390.354 658.814,395.886 653.715,401.777 C650.556,394.353 647.398,386.929 644.24,379.505 C649.8,377.296 651.365,371.773 653.388,367.203 C664.333,342.482 668.841,316.665 666.299,289.548 C665.057,276.293 663.405,263.208 659.982,250.336 C658.522,244.85 655.732,239.917 654.005,234.56 C665.891,245.103 676.245,257.049 686.015,269.529" fill="#BEBEBE"/>
    <path d="M123.223,389.761 C113.526,374.023 107.848,356.751 103.846,338.849 C99.629,319.982 100.367,300.911 101.747,281.843 C102.165,276.069 103.156,270.337 103.866,264.584 C103.972,263.727 103.814,262.93 102.935,262.483 C113.012,251.858 123.208,241.36 134.974,232.543 C129.08,244.924 125.47,257.951 123.453,271.507 C118.924,301.942 120.044,331.819 131.718,360.716 C132.402,362.408 132.27,364.834 134.726,365.494 C130.891,373.583 127.057,381.672 123.223,389.761" fill="#BEBEBE"/>
    <path d="M439.151,894.738 C434.439,907.768 425.902,916.822 413.806,922.454 C391.934,932.636 367.43,924.35 355.592,903.18 C353.512,899.46 353.96,898.695 358.27,898.597 C371.474,898.297 382.596,892.6 392.54,884.291 C393.918,883.139 394.783,881.743 397.016,883.579 C408.566,893.074 422.05,896.075 436.704,894.746 C437.351,894.687 438.008,894.738 439.151,894.738" fill="#D3A0F2"/>
    <path d="M595.795,164.859 C602.421,162.77 609.505,162.703 616.032,160.088 C629.947,154.512 640.156,144.596 648.616,132.607 C658.486,118.622 664.77,103.026 669.087,86.564 C674.421,100.495 676.785,114.821 674.842,129.721 C674.167,130.939 674.201,132.39 673.562,133.623 C662.556,153.339 647.972,169.379 627.07,178.95 C625.1,179.851 623.184,180.828 620.932,180.663 C612.553,175.395 604.174,170.127 595.795,164.859" fill="#BEBEBE"/>
    <path d="M705.091,582.491 C705.413,591.703 704.459,600.939 700.84,609.712 C696.728,619.682 689.45,625.853 678.657,627.641 C676.142,628.058 674.68,628.17 675.331,624.584 C679.799,599.963 681.973,575.11 681.851,550.09 C681.832,546.074 683.252,545.323 686.73,545.594 C693.861,546.149 698.343,550.039 701.018,556.373 C704.521,564.67 705.346,573.402 705.091,582.491" fill="#FEF8EA"/>
    <path d="M68.157,582.238 C68.21,573.546 68.953,564.946 72.255,556.806 C74.877,550.343 79.358,546.112 86.732,545.594 C89.218,545.419 90.251,545.98 90.249,548.758 C90.234,574.236 92.296,599.548 96.85,624.629 C97.415,627.742 96.163,628.004 93.702,627.491 C82.779,625.213 75.857,618.441 72.062,608.209 C68.955,599.833 68.198,591.087 68.157,582.238" fill="#FEF8EA"/>
    <path d="M382.922,864.124 C375.966,873.913 361.688,879.965 351.79,877.755 C344.121,876.042 340.192,870.557 337.41,863.841 C336.728,862.195 337.068,861.242 339.044,861.458 C353.518,863.045 368.051,863.804 382.922,864.124" fill="#D3A0F2"/>
    <path d="M620.932,180.663 C635.167,174.562 647.652,166.053 657.886,154.3 C663.705,147.617 668.322,140.137 673.028,132.698 C674.918,132.638 674.473,133.689 674.004,134.751 C670.332,157.313 657.106,172.009 636.327,180.46 C634.334,181.271 632.209,181.76 630.223,182.586 C626.643,184.076 623.501,183.861 620.932,180.663" fill="#FDFDFD"/>
    <path d="M430.495,874.494 C423.378,874.345 416.669,872.81 410.872,868.412 C409.672,867.502 408.348,866.4 408.69,864.754 C409.123,862.671 411.134,863.406 412.465,863.29 C424.718,862.222 436.979,861.192 449.092,859.002 C452.622,858.364 452.236,859.944 451.619,862.201 C449.789,868.904 443.116,873.723 434.485,874.478 C433.164,874.593 431.825,874.494 430.495,874.494" fill="#D3A0F2"/>
    <path d="M674.004,134.751 C673.678,134.067 673.353,133.382 673.027,132.698 C673.415,131.573 673.781,130.436 674.842,129.722 C674.964,131.465 675.129,133.215 674.004,134.751" fill="#F2F2F2"/>
    <path d="M239.868,544.887 C239.767,536.258 241.629,529.588 245.323,523.487 C246.461,521.608 246.976,520.34 245.389,518.304 C241.603,513.45 240.008,507.705 239.606,501.594 C239.263,496.392 241.374,493.167 245.494,492.783 C249.681,492.392 252.299,495.1 252.921,500.251 C253.199,502.55 253.465,504.924 254.262,507.07 C255.499,510.403 256.997,513.445 261.818,511.889 C264.494,511.025 267.433,511.999 270.092,513.069 C290.519,521.285 295.211,551.639 278.142,565.429 C271.248,570.999 263.568,572.36 255.222,569.001 C245.933,565.262 241.383,558.01 240.063,548.415 C239.837,546.773 239.878,545.093 239.868,544.887" fill="#6E4100"/>
    <path d="M528.235,541.977 C528.088,554.784 524.412,563.835 513.558,568.662 C504.305,572.777 495.808,571.068 488.691,564.278 C480.099,556.08 476.686,546.11 480.54,534.329 C482.108,529.536 484.221,524.987 487.66,521.306 C489.68,519.144 489.554,517.618 487.937,515.388 C485.389,511.876 483.546,507.927 482.478,503.712 C481.486,499.801 482.708,496.646 486.799,495.476 C490.692,494.363 493.602,495.77 495.104,499.752 C495.923,501.921 496.969,504.004 497.907,506.128 C499.544,509.84 501.717,511.848 506.438,511.996 C515.36,512.278 523.811,521.454 526.78,532.79 C527.708,536.33 528.399,539.935 528.235,541.977" fill="#6E4100"/>
    <path d="M390.887,775.598 C385.075,775.424 379.679,773.341 374.776,770.048 C360.257,760.295 349.852,746.687 340.21,732.459 C337.54,728.519 339.113,723.49 342.982,721.123 C346.972,718.682 351.443,719.479 354.383,723.628 C360.551,732.334 366.999,740.789 374.595,748.316 C377.318,751.014 380.198,753.518 383.441,755.596 C390.202,759.929 393.279,759.856 399.568,754.665 C408.989,746.889 415.168,736.612 421.144,726.201 C421.971,724.76 422.738,723.281 423.626,721.879 C426.312,717.643 430.608,716.36 434.776,718.497 C438.697,720.507 440.77,725.009 438.614,729.118 C430.468,744.644 421.544,759.673 406.898,770.198 C402.207,773.569 396.941,775.497 390.887,775.598" fill="#6E4100"/>
    <path d="M251.851,769.223 C255.745,739.266 261.926,710.013 278.32,683.914 C282.316,677.554 286.935,671.695 292.45,666.57 C295.841,663.42 299.607,663.733 302.869,666.302 C306.014,668.78 306.743,672.246 304.823,676.126 C302.99,679.828 299.54,682.077 297.143,685.265 C283.534,703.362 276.739,724.273 272.129,746.038 C270.416,754.127 269.174,762.333 268.092,770.535 C267.219,777.148 263.863,781.075 258.79,780.505 C253.882,779.953 251.519,776.049 251.851,769.223" fill="#F5CEA8"/>
    <path d="M534.074,771.839 C534.176,775.695 534.096,779.513 532.223,783.026 C530.254,786.72 527.257,788.202 523.102,787.132 C518.986,786.072 516.294,783.298 517.129,779.232 C518.974,770.255 516.57,761.768 514.921,753.237 C510.973,732.813 504.779,713.06 495.803,694.247 C493.874,690.205 491.586,686.359 488.827,682.782 C485.92,679.012 486.286,673.533 489.359,670.995 C493.208,667.816 497.435,668.066 501.18,672.344 C508.171,680.332 512.313,689.968 516.134,699.73 C524.32,720.643 530.249,742.176 533.667,764.379 C534.045,766.829 533.95,769.351 534.074,771.839" fill="#F5CEA8"/>
    <path d="M177.975,602.578 C173.207,606.255 169.14,610.561 166.789,616.17 C164.929,620.607 162.227,623.698 157.062,622.375 C152.164,621.121 150.263,617.534 150.998,612.556 C154.642,599.69 164.32,591.928 174.688,584.856 C179.344,581.681 184.415,579.165 189.755,577.25 C194.875,575.414 199.952,577.082 201.674,581.231 C203.533,585.71 201.013,590.449 195.638,592.545 C189.261,595.031 183.442,598.493 177.975,602.578" fill="#F5CEA8"/>
    <path d="M601.97,599.578 C604.67,603.569 607.545,607.478 608.705,612.275 C609.767,616.672 607.832,620.55 603.907,622.074 C599.972,623.603 595.602,622.257 593.853,618.11 C589.975,608.915 582.765,603.02 574.898,597.633 C571.155,595.903 567.402,594.194 563.672,592.437 C558.302,589.908 556.205,586.141 557.803,581.982 C559.766,576.872 563.609,575.144 569.555,577.366 C582.164,582.078 593.223,589.171 601.97,599.578" fill="#F5CEA8"/>
    <path d="M225.851,361.789 C225.976,343.666 246.776,326.804 263.111,331.569 C267.202,332.762 270.785,334.847 273.52,338.078 C276.223,341.269 276.386,344.799 273.43,347.958 C270.466,351.125 266.726,351.435 263.664,348.58 C259.615,344.806 255.542,344.275 251.048,347.062 C245.351,350.596 240.607,355.272 240.423,362.328 C240.236,369.496 238.818,372.59 233.851,372.735 C228.713,372.884 225.802,368.902 225.851,361.789" fill="#6E4100"/>
    <path d="M502.298,330.612 C520.019,330.759 536.753,349.58 534.149,365.131 C533.242,370.548 530.113,373.284 525.545,372.655 C521.221,372.06 519.274,368.926 519.786,363.384 C520.478,355.9 511.186,345.435 503.657,345.253 C501.2,345.193 499.305,346.342 497.445,347.917 C493.479,351.277 489.331,351.095 486.486,347.706 C483.866,344.586 484.324,340.341 487.734,337.054 C492.113,332.834 497.386,330.723 502.298,330.612" fill="#6E4100"/>
    <path d="M583.065,546.542 C594.453,546.296 603.515,549.787 610.99,557.14 C614.769,560.858 614.993,565.817 611.84,569.142 C608.669,572.485 603.922,572.405 599.811,568.917 C592.984,563.123 585.307,561.055 576.655,563.881 C573.199,565.01 570.073,564.919 567.368,562.374 C563.169,558.422 564.453,551.533 569.906,549.168 C574.356,547.238 579.005,545.968 583.065,546.542" fill="#F5CEA8"/>
    <path d="M185.907,564.687 C185.052,564.491 183.889,564.347 182.815,563.957 C174.474,560.928 167.254,563.102 160.553,568.426 C154.525,573.216 148.663,572.243 146.052,566.387 C144.428,562.743 145.709,559.738 148.091,557.318 C158.053,547.198 176.38,543.512 189.3,548.831 C193.11,550.399 195.173,553.308 194.495,557.395 C193.757,561.851 190.744,564.225 185.907,564.687" fill="#F5CEA8"/>
    <path d="M371.85,616.448 C372.096,610.687 374.319,607.281 378.706,605.893 C382.925,604.558 387.149,605.166 389.947,608.994 C392.386,612.331 394.691,615.877 396.355,619.641 C398.239,623.901 397.598,628.206 393.872,631.448 C390.398,634.471 386.124,635.322 382.369,632.701 C376.454,628.573 373.585,622.23 371.85,616.448" fill="#6E4100"/>
  </g>
</svg>