<?xml version="1.0" encoding="UTF-8"?>
<!DOCTYPE svg PUBLIC "-//W3C//DTD SVG 1.1//EN" "http://www.w3.org/Graphics/SVG/1.1/DTD/svg11.dtd">
<svg version="1.1" xmlns="http://www.w3.org/2000/svg" xmlns:xlink="http://www.w3.org/1999/xlink" x="0" y="0" width="769" height="1029" viewBox="0, 0, 769, 1029">
  <defs>
    <clipPath id="Clip_1">
      <path d="M0,1029 L768.698,1029 L768.698,0.31 L0,0.31 z"/>
    </clipPath>
  </defs>
  <g id="Layer_1">
    <g clip-path="url(#Clip_1)">
      <path d="M214.664,1019.21 C212.926,1027.33 208.446,1030.29 200.61,1028.49 C196.539,1027.56 193.632,1023.06 194.288,1017.36 C195.847,1003.81 197.566,990.274 199.58,976.784 C206.26,932.032 214.069,887.482 224.342,843.396 C233.175,805.488 243.284,767.958 258.48,732.007 C259.987,728.441 258.984,727.97 255.681,727.514 C226.832,723.528 198.377,717.906 170.503,709.124 C135.469,698.085 111.917,674.792 96.368,642.45 C83.347,615.366 78.041,586.334 75.384,556.684 C73.419,534.762 73.367,512.784 73.639,490.804 C73.667,488.473 73.319,487.717 70.89,487.434 C64.622,486.704 58.395,485.663 52.295,483.904 C27.901,476.868 15.001,459.895 14.525,434.489 C14.17,415.568 20.935,400.117 36.571,388.354 C15.527,376.505 5.652,357.675 1.8,335.081 C-0.655,320.681 -0.487,306.156 1.626,291.778 C8.585,244.423 26.5,201.609 56.057,163.867 C66.5,150.532 78.624,138.955 94.126,131.448 C100.027,128.591 106.221,126.383 112.753,126.397 C116.94,126.406 118.37,124.518 119.829,121.173 C129.665,98.626 142.175,77.716 158.709,59.381 C187.485,27.471 223.498,9.512 266,4.636 C292.809,1.56 319.773,0.885 346.751,0.458 C395.914,-0.323 444.942,2.017 493.827,6.891 C556.814,13.171 602.615,45.631 633.35,100.317 C637.504,107.708 641.298,115.285 644.655,123.08 C645.402,124.813 645.857,126.575 648.772,126.338 C664.866,125.032 678.293,131.641 690.462,141.298 C711.224,157.775 725.787,179.207 737.962,202.332 C753.421,231.695 764.442,262.647 767.638,295.85 C769.279,312.896 769.555,330.087 764.462,346.862 C759.072,364.614 749.304,378.907 732.485,388.196 C734.933,390.378 737.416,392.302 739.561,394.55 C755.043,410.781 757.293,430.181 751.887,450.797 C746.84,470.042 732.714,480.041 714.166,484.542 C708.683,485.873 703.077,486.848 697.471,487.462 C694.352,487.803 693.89,488.751 694.005,491.775 C695.071,519.733 695.622,547.702 692.268,575.564 C687.811,612.599 677.908,647.577 653.75,677.195 C632.813,702.865 605.523,717.304 573.399,723.605 C559.027,726.424 544.655,729.201 530.08,730.681 C526.069,731.089 525.869,732.383 527.023,735.92 C545.927,793.867 559.752,853.066 570.402,913.041 C576.453,947.117 581.587,981.325 585.45,1015.72 C586.254,1022.87 583.715,1027.65 578.954,1028.52 C570.876,1030 566.915,1027.27 565.127,1018.97 C562.27,1014.89 562.691,1010.02 562.118,1005.47 C552.066,925.66 537.132,846.838 514.549,769.555 C511.651,759.638 508.406,749.83 505.181,740.015 C503.98,736.361 502.093,735.03 498.175,735.64 C493.256,736.407 488.223,736.477 483.253,736.773 C478.635,737.047 477.076,739.202 476.908,743.256 C476.686,748.605 475.662,753.848 474.685,759.084 C471.955,773.718 467.878,787.922 461.101,801.275 C458.412,806.573 454.809,811.071 450.358,814.93 C442.363,821.859 432.153,822.845 422.939,817.599 C416.569,813.973 411.586,808.957 407.767,802.323 C407.77,824.029 407.769,845.505 407.769,866.98 C407.768,887.143 407.772,907.306 407.766,927.469 C407.766,930.137 407.767,932.799 406.979,935.396 C405.315,940.886 401.002,944.215 395.607,944.125 C389.911,944.029 385.67,940.467 384.335,934.618 C383.773,932.157 383.924,929.644 383.923,927.148 C383.916,889.821 383.92,852.494 383.91,815.167 C383.91,813.557 384.09,811.921 383.699,810.192 C381.866,810.95 381.025,812.464 379.873,813.598 C368.638,824.66 353.365,825.08 341.765,814.387 C333.779,807.026 328.539,797.739 324.167,787.934 C317.569,773.136 312.671,757.742 308.217,742.194 C306.052,734.634 305.694,734.318 297.976,734.016 C294.471,733.879 291.03,733.226 287.545,732.917 C283.57,732.565 281.357,734.105 279.891,737.704 C275.869,747.582 271.858,757.462 268.379,767.547 C257.329,799.58 249.203,832.403 241.965,865.463 C231.979,911.067 224.596,957.124 217.985,1003.32 C217.218,1008.67 217.96,1014.38 214.664,1019.21" fill="#6E4100"/>
    </g>
    <path d="M214.664,1019.21 C220.569,970.853 228.378,922.8 238.414,875.13 C248.079,829.216 259.167,783.681 277.311,740.195 C281.296,730.644 281.261,730.621 291.504,731.725 C292.825,731.867 294.126,732.196 295.446,732.346 C307.306,733.7 307.136,733.745 310.506,745.012 C316.083,763.657 321.806,782.269 331.687,799.24 C334.632,804.299 338.076,808.982 342.361,813.013 C353.587,823.571 368.019,823.431 378.893,812.588 C380.889,810.597 382.687,808.409 384.799,806.065 C385.951,807.688 385.438,809.505 385.439,811.148 C385.474,851.297 385.481,891.446 385.447,931.595 C385.443,936.365 387.066,940.167 391.578,942.076 C395.769,943.849 399.831,943.157 403.1,939.898 C406.037,936.972 406.235,933.093 406.233,929.19 C406.213,887.875 406.221,846.56 406.221,805.245 C406.221,803.418 406.221,801.592 406.221,798.639 C408.253,801.254 409.685,803.119 411.142,804.964 C412.174,806.269 413.185,807.597 414.298,808.831 C428.159,824.196 445.491,823.037 456.771,805.711 C466.115,791.359 470.16,775.021 473.268,758.451 C474.492,751.924 475.254,745.302 476.012,738.699 C476.268,736.469 476.985,735.569 479.317,735.429 C486.616,734.992 493.924,734.512 501.18,733.649 C504.836,733.214 505.271,735.545 506.061,737.913 C515.746,766.947 524.014,796.388 531.247,826.12 C544.065,878.812 553.654,932.113 561.105,985.808 C562.635,996.834 563.795,1007.91 565.127,1018.97 C450.63,1018.97 336.134,1018.97 221.637,1018.98 C219.313,1018.98 216.988,1019.13 214.664,1019.21" fill="#D0CF00"/>
    <path d="M97.206,416.411 C97.948,366.48 99.78,316.596 105.569,266.964 C110.996,220.432 119.614,174.586 138.382,131.262 C150.353,103.631 166.172,78.651 189.416,58.938 C211.769,39.979 237.743,29.276 266.643,25.745 C292.103,22.635 317.729,21.958 343.36,21.483 C389.667,20.626 435.83,23.055 481.967,26.751 C514.289,29.339 544.457,37.677 570.538,57.825 C594.423,76.277 610.976,100.326 623.492,127.437 C638.743,160.472 647.332,195.43 653.273,231.127 C660.829,276.514 663.684,322.342 665.775,368.233 C666.6,386.341 667.375,404.451 668.172,422.56 C665.63,422.222 665.513,419.846 664.701,418.198 C660.932,410.553 657.122,402.916 650.38,397.38 C634.31,384.185 614.893,382.846 597.141,394.491 C582.439,404.137 573.921,418.301 571.816,435.715 C569.815,452.263 579.151,468.341 594.069,476.06 C605.792,482.125 618.25,485.075 631.255,482.637 C648.079,479.484 658.011,467.511 665.815,453.349 C666.873,451.429 667.022,448.641 670.17,448.647 C672.363,477.356 674.245,506.086 673.748,534.898 C673.18,567.815 669.966,600.339 657.009,631.085 C645.647,658.044 627.895,679.552 601.348,692.65 C585.418,700.511 567.924,703.647 550.532,706.567 C512.38,712.972 473.875,715.184 435.25,716.104 C389.609,717.19 344.064,715.549 298.629,711.368 C262.836,708.074 227.493,702.214 192.401,694.008 C144.796,682.877 118.162,652.174 105.402,606.896 C98.45,582.225 95.907,556.963 94.902,531.471 C94.024,509.166 94.75,486.881 95.573,464.595 C96.42,461.363 95.423,457.989 96.207,454.532 C98.78,454.843 99.404,456.897 100.239,458.564 C110.084,478.224 127.494,486.083 147.96,487.092 C175.143,488.432 198.077,468.177 201.766,441.106 C202.761,433.81 200.949,426.796 198.254,420.129 C192.782,406.594 185.477,394.396 171.624,387.726 C153.853,379.169 137.028,381.6 121.132,392.54 C111.955,398.856 105.799,407.674 101.182,417.674 C100.328,419.523 99.917,421.758 97.422,422.982 C96.601,420.563 96.786,418.495 97.206,416.411" fill="#FEF2DF"/>
    <path d="M97.206,416.411 C97.349,418.062 97.491,419.713 97.702,422.15 C101.306,414.136 105.002,406.962 110.304,400.659 C129.094,378.321 163.312,373.556 184.684,395.608 C195.231,406.491 201.782,419.821 203.177,434.985 C204.381,448.075 198.979,459.362 190.397,468.947 C185.551,474.36 180.635,479.821 174.018,483.382 C160.672,490.564 146.945,489.703 132.93,485.967 C116.171,481.5 104.013,471.676 97.119,455.036 C95.605,458.532 97.418,461.852 95.573,464.596 C96.117,448.534 96.662,432.472 97.206,416.411" fill="#F5CEB1"/>
    <path d="M670.17,448.647 C666.173,453.111 664.608,458.99 660.987,463.786 C643.625,486.783 622.72,489.657 597.371,479.014 C578.997,471.3 569.65,456.791 570.421,436.649 C570.838,425.747 575.316,415.891 581.698,407.288 C589.06,397.364 598.612,389.843 610.896,386.716 C631.319,381.517 652.011,391.037 662.047,410.084 C664.205,414.181 666.136,418.398 668.172,422.56 C668.838,431.256 669.504,439.951 670.17,448.647" fill="#F5CEB1"/>
    <path d="M673.36,222.647 C669.219,201.455 664.866,180.314 658.315,159.699 C656.981,155.499 655.607,151.311 654.106,146.672 C660.195,147.162 665.151,149.332 669.868,152.1 C680.657,158.431 689.284,167.2 696.984,176.882 C715.287,199.897 728.308,225.729 737.356,253.631 C735.407,254.642 735.362,254.716 733.654,253.658 C729.702,251.209 725.878,248.564 721.883,246.175 C707.732,237.711 693.083,230.335 677.284,225.425 C675.663,224.921 674.136,224.325 673.36,222.647" fill="#FEFEFE"/>
    <path d="M31.406,254.65 C43.471,217.999 60.528,184.373 90.085,158.409 C95.484,153.666 101.619,150.003 109.404,147.59 C100.684,173.049 95.002,198.704 90.227,224.575 C89.243,226.049 87.718,226.66 86.13,227.217 C68.949,233.246 53.103,241.856 38.039,252.004 C36.068,253.332 34.288,255.471 31.406,254.65" fill="#FEFEFE"/>
    <path d="M746.235,291.683 C749.351,307.74 749.127,323.721 745.156,339.619 C742.33,342.629 741.86,339.032 741.098,337.891 C737.42,332.384 734.106,326.651 729.944,321.449 C718.158,306.719 703.167,295.885 687.381,285.979 C685.288,284.665 682.962,283.651 681.459,281.544 C680.002,269.957 678.545,258.37 677.089,246.783 C678.578,243.824 680.684,245.72 682.284,246.376 C697.256,252.517 711.6,259.849 724.598,269.591 C731.242,274.571 737.949,279.483 743.224,286.044 C744.614,287.772 745.536,289.641 746.235,291.683" fill="#FEFEFE"/>
    <path d="M24.573,341.508 C19.41,325.095 19.749,308.464 22.598,291.734 C24.987,284.909 30.671,280.713 35.758,276.343 C49.497,264.537 65.205,255.752 81.648,248.269 C83.124,247.597 84.681,246.77 86.407,247.641 C85.017,259.944 83.628,272.248 82.237,284.551 C81.118,286.291 79.383,287.259 77.698,288.356 C61.862,298.668 47.086,310.188 35.714,325.546 C32.832,329.439 30.522,333.678 28.073,337.838 C27.216,339.293 27.015,341.513 24.573,341.508" fill="#FEFEFE"/>
    <path d="M688.217,411.933 C688.217,407.453 688.264,402.973 688.193,398.494 C688.165,396.757 688.331,395.634 690.574,395.881 C702.439,397.19 713.917,399.546 723.316,407.652 C733.885,416.768 734.99,428.727 733.051,441.397 C731.251,453.156 723.999,460.194 712.835,463.592 C707.414,465.243 701.852,466.078 696.289,467.047 C692.944,467.629 692.43,466.587 692.249,463.64 C691.191,446.4 689.949,429.172 688.769,411.94 C688.585,411.937 688.401,411.935 688.217,411.933" fill="#FEF8EA"/>
    <path d="M339.64,735.556 C353.715,736.929 367.872,736.268 381.967,737.234 C384.497,737.408 385.641,737.948 385.184,740.707 C382.462,757.153 378.736,773.3 371.076,788.268 C369.719,790.918 368.156,793.516 366.339,795.867 C362.018,801.457 359.086,801.508 354.544,796.001 C347.894,787.94 343.862,778.424 340.083,768.824 C336.187,758.93 333.032,748.781 330.086,738.562 C329.314,735.883 328.991,734.401 332.675,735.182 C334.922,735.658 337.314,735.454 339.64,735.556" fill="#D0CF00"/>
    <path d="M74.529,431.244 C74.529,441.874 74.431,452.505 74.586,463.133 C74.635,466.553 73.389,467.427 70.235,466.677 C67.333,465.988 64.331,465.717 61.433,465.016 C39.909,459.817 30.871,444.667 36.181,423.098 C38.543,413.502 44.635,407.121 53.028,402.606 C58.94,399.426 65.387,397.9 71.939,396.622 C75.809,395.866 76.58,397.14 76.478,400.851 C76.202,410.976 76.383,421.113 76.383,431.245 C75.765,431.245 75.147,431.245 74.529,431.244" fill="#FEF8EA"/>
    <path d="M425.446,736.634 C434.24,736.634 443.037,736.754 451.827,736.566 C454.788,736.503 455.654,737.471 455.277,740.279 C453.063,756.774 450.183,773.119 443.027,788.32 C436.914,801.307 433.391,801.56 425.391,789.584 C415.463,774.722 409.477,758.302 406.722,740.655 C406.323,738.101 407.09,737.399 409.486,737.441 C414.805,737.533 420.127,737.47 425.448,737.47 C425.447,737.191 425.447,736.912 425.446,736.634" fill="#D0CF00"/>
    <path d="M732.357,362.677 C722.316,372.631 710.031,376.628 696.166,375.752 C687.403,375.199 687.271,374.911 686.728,365.893 C685.54,346.175 684.521,326.447 683.434,306.723 C685.494,305.911 686.943,307.265 688.386,308.267 C701.957,317.694 714.101,328.523 722.911,342.764 C726.816,349.077 728.738,356.267 732.357,362.677" fill="#FEFEFE"/>
    <path d="M732.357,362.677 C729.472,359.815 727.807,356.32 726.325,352.539 C721.416,340.025 712.902,330.024 702.991,321.244 C696.916,315.863 690.679,310.583 683.434,306.724 C682.567,298.347 681.501,289.986 681.459,281.544 C692.778,286.862 702.652,294.36 712.313,302.149 C724.834,312.246 735.126,324.24 742.653,338.519 C743.219,339.592 743.691,340.683 745.156,339.619 C742.659,348.287 739.084,356.357 732.357,362.677" fill="#BEBEBE"/>
    <path d="M80.28,310.679 C79.299,331.203 78.288,351.726 77.378,372.253 C77.272,374.636 76.681,375.63 74.028,375.796 C59.586,376.702 46.898,372.888 36.467,362.545 C44.324,341.926 57.163,325.108 75.036,312.171 C76.512,311.102 77.981,309.201 80.28,310.679" fill="#FEFEFE"/>
    <path d="M746.235,291.683 C732.73,274.321 714.487,263.263 695.286,253.522 C690.848,251.271 686.241,249.343 681.654,247.402 C680.251,246.807 678.806,245.474 677.089,246.784 C675.846,238.738 674.603,230.692 673.36,222.646 C695.785,229.62 716.439,240.158 735.649,253.599 C736.231,254.007 736.774,254.312 737.356,253.631 C741.506,266.037 745.046,278.586 746.235,291.683" fill="#BEBEBE"/>
    <path d="M80.28,310.679 C72.069,314.672 65.877,321.218 59.556,327.491 C50.95,336.03 44.474,346.051 40.505,357.591 C39.767,359.736 38.109,361.135 36.467,362.545 C30.437,356.7 26.612,349.609 24.573,341.508 C36.913,316.772 56.997,299.699 79.998,285.519 C80.683,285.097 81.488,284.87 82.237,284.551 C81.585,293.26 80.932,301.97 80.28,310.679" fill="#BEBEBE"/>
    <path d="M86.407,247.641 C64.745,257.07 44.27,268.334 27.781,285.72 C25.962,287.638 24.321,289.725 22.598,291.733 C24.032,279.016 27.07,266.678 31.406,254.65 C43.187,247.167 54.795,239.403 67.535,233.544 C74.942,230.137 82.42,226.951 90.227,224.575 C88.953,232.264 87.68,239.952 86.407,247.641" fill="#BEBEBE"/>
    <path d="M263.101,241.702 C246.443,241.489 231.478,238.526 218.601,228.615 C202.728,216.398 201.568,198.822 215.973,184.96 C227.215,174.142 241.253,169.171 256.401,167.258 C277.9,164.543 298.916,166.013 318.698,175.933 C322.735,177.958 326.44,180.49 329.705,183.62 C342.005,195.416 341.286,212.986 328.144,223.81 C322.128,228.765 315.182,231.922 307.875,234.259 C293.048,239.001 277.776,241.198 263.101,241.702" fill="#6E4100"/>
    <path d="M493.944,166.085 C512.811,166.177 529.377,168.885 544.316,178.186 C548.01,180.486 551.381,183.168 554.393,186.317 C566.37,198.84 565.925,214.636 553.029,226.332 C542.903,235.514 530.613,239.925 517.211,240.999 C493.928,242.866 471.47,239.246 450.055,229.735 C446.85,228.312 443.933,226.377 441.222,224.145 C426.911,212.363 426.729,193.724 441.085,182.014 C453.117,172.2 467.554,168.454 482.623,166.734 C486.913,166.245 491.258,166.229 493.944,166.085" fill="#6E4100"/>
    <path d="M201.299,638.894 C202.315,594.548 207.796,550.899 222.509,508.823 C233.283,478.015 248.772,449.937 272.554,427.056 C276.847,422.925 281.606,419.244 286.375,415.654 C290.905,412.244 296.052,412.716 298.798,416.35 C301.911,420.471 300.951,424.758 295.918,428.626 C269.942,448.588 253.05,475.017 241.343,505.151 C231.011,531.747 224.757,559.302 221.21,587.591 C218.603,608.388 216.973,629.196 217.328,650.153 C217.386,653.565 216.946,656.836 214.2,659.262 C211.785,661.396 209.079,662.371 205.948,660.839 C203.065,659.427 201.161,657.44 201.263,653.889 C201.407,648.894 201.299,643.892 201.299,638.894" fill="#F5CEA8"/>
    <path d="M568.274,646.141 C568.274,648.98 568.41,651.156 568.245,653.309 C567.918,657.552 563.945,661.521 560.22,661.513 C555.517,661.503 552.49,658.303 552.259,653.112 C551.602,638.356 551.532,623.545 550.173,608.854 C546.006,563.798 537.593,519.761 515.663,479.44 C505.249,460.292 492.189,443.212 474.488,430.068 C473.557,429.376 472.727,428.54 471.895,427.725 C467.675,423.59 467.221,419.683 470.502,415.936 C473.337,412.699 478.593,412.506 482.709,415.579 C491.133,421.869 498.874,428.953 505.842,436.789 C517.728,450.156 527.365,465.111 535.046,481.225 C547.551,507.46 555.622,535.092 560.457,563.743 C564.409,587.158 567.231,610.643 567.494,634.422 C567.539,638.53 568.573,642.642 568.274,646.141" fill="#F5CEA8"/>
    <path d="M391.693,642.432 C368.009,641.026 346.248,629.468 331.906,605.2 C329.768,601.583 329.565,597.942 332.019,594.419 C334.24,591.231 337.463,590.085 341.203,590.717 C344.776,591.321 346.68,593.887 348.542,596.865 C359.313,614.09 374.961,623.272 395.287,623.695 C414.065,624.086 427.165,614.94 435.307,598.286 C435.817,597.243 436.217,596.147 436.703,595.091 C439.291,589.464 444.178,587.192 449.18,589.276 C454.218,591.376 456.03,596.368 453.888,602.25 C445.015,626.621 422.077,642.46 391.693,642.432" fill="#6E4100"/>
    <path d="M445.392,69.719 C447.225,69.719 449.068,69.596 450.889,69.743 C455.708,70.133 458.539,73.53 458.365,78.55 C458.199,83.33 455.861,85.525 450.69,85.733 C434.097,86.399 417.485,86.748 400.918,87.804 C380.743,89.091 360.61,91.027 340.451,92.566 C333.335,93.11 326.197,93.47 319.063,93.615 C313.589,93.727 310.306,90.461 310.361,85.552 C310.414,80.824 313.555,77.988 318.766,77.618 C340.426,76.084 362.084,74.515 383.738,72.917 C398.618,71.819 413.527,70.441 428.501,70.568 C434.127,70.616 439.758,69.956 445.387,69.619 C445.389,69.652 445.39,69.686 445.392,69.719" fill="#F5CEA8"/>
    <path d="M389.181,123.636 C403.548,123.462 416.683,123.567 429.684,125.591 C435.236,126.455 437.818,130.004 436.969,134.361 C435.951,139.58 431.802,141.738 426.174,141.23 C416.428,140.349 406.661,139.648 396.841,139.588 C378.709,139.478 360.654,139.792 342.803,143.536 C337.157,144.72 333.065,142.195 332.342,137.763 C331.385,131.894 333.85,128.862 340.389,127.596 C356.919,124.395 373.594,123.083 389.181,123.636" fill="#F5CEA8"/>
    <path d="M445.811,284.03 C445.918,272.607 452.951,264.09 464.169,261.799 C471.409,260.32 477.811,262.872 481.806,269.181 C486.421,276.467 487.426,284.353 484.682,292.552 C481.456,302.19 472.857,306.613 461.409,304.73 C451.931,303.172 445.709,294.915 445.811,284.03" fill="#6E4100"/>
    <path d="M323.189,284.027 C323.221,297.163 315.43,305.208 302.717,305.167 C290.966,305.129 282.799,296.557 282.836,284.302 C282.875,271.496 292.503,261.562 304.949,261.484 C315.447,261.419 323.156,270.947 323.189,284.027" fill="#6E4100"/>
    <path d="M395.419,445.119 C380.771,444.914 365.963,429.854 365.841,415.362 C365.805,411.185 368.712,407.507 372.877,406.925 C377.116,406.332 380.48,407.967 382.129,412.026 C383.434,415.237 384.015,418.736 385.823,421.764 C390.315,429.287 397,429.574 401.96,422.445 C403.877,419.689 404.83,416.511 405.975,413.39 C407.542,409.121 410.869,407.134 415.398,407.789 C419.613,408.398 422.341,411.916 422.338,416.249 C422.331,427.435 410.032,442.435 399.054,444.613 C397.752,444.872 396.421,444.983 395.419,445.119" fill="#6E4100"/>
    <path d="M356.955,192.65 C349.659,192.731 346.522,190.258 346.289,185.371 C346.028,179.928 348.8,177.346 354.749,176.582 C367.558,174.937 380.321,172.938 393.124,171.235 C400.34,170.275 407.584,169.46 414.839,168.887 C418.628,168.587 422.842,172.545 423.231,176.155 C423.686,180.366 420.811,184.072 416.109,184.73 C401.356,186.798 386.58,188.706 371.812,190.674 C366.396,191.396 360.98,192.115 356.955,192.65" fill="#F5CEA8"/>
    <path d="M262.85,224.121 C251.054,223.954 239.635,222.398 229.822,215.033 C221.594,208.856 221.402,203.167 229.355,196.485 C239.048,188.344 250.716,185.208 262.953,184.066 C276.986,182.756 290.867,183.689 304.226,188.71 C309.064,190.528 313.754,192.66 317.482,196.404 C322.241,201.185 321.983,206.121 316.712,210.424 C312.393,213.949 307.31,216.013 302.072,217.663 C289.313,221.681 276.198,223.637 262.85,224.121" fill="#FEFEFE"/>
    <path d="M506.403,224.174 C490.717,223.362 475.773,221.36 461.567,215.649 C458.665,214.483 455.81,212.996 453.263,211.192 C446.413,206.338 446.345,200.05 453.053,194.901 C458.815,190.478 465.505,187.952 472.515,186.327 C490.548,182.146 508.425,182.301 526.007,188.633 C531.857,190.739 537.163,193.833 541.517,198.314 C546.965,203.92 546.778,208.481 540.897,213.599 C533.732,219.834 525.072,222.514 515.84,223.594 C512.544,223.98 509.207,224.011 506.403,224.174" fill="#FEFEFE"/>
  </g>
</svg>