<?xml version="1.0" encoding="UTF-8"?>
<!DOCTYPE svg PUBLIC "-//W3C//DTD SVG 1.1//EN" "http://www.w3.org/Graphics/SVG/1.1/DTD/svg11.dtd">
<svg version="1.1" xmlns="http://www.w3.org/2000/svg" xmlns:xlink="http://www.w3.org/1999/xlink" x="0" y="0" width="239.283" height="410.024" viewBox="0, 0, 239.283, 410.024">
  <g id="ãƒ_x00ac_ã_x201a__x00a4_ãƒ_x00a4_ãƒ_x00bc__x0020_1">
    <g id="g828">
      <path d="M49.166,108.983 L56.222,135.911 C53.486,136.559 37.646,137.495 32.462,127.991 C25.983,116.183 31.886,108.623 39.086,107.399 C39.086,107.399 43.766,106.535 49.166,108.983 z" fill="#FCD7C4" id="path824"/>
      <path d="M56.222,135.911 C53.486,136.559 37.646,137.495 32.462,127.991 C25.983,116.183 31.886,108.623 39.086,107.399 C39.086,107.399 43.766,106.535 49.166,108.983" fill-opacity="0" stroke="#373435" stroke-width="3.2" stroke-linecap="round" stroke-linejoin="round" id="path826"/>
    </g>
    <g id="g834">
      <path d="M28.79,48 C28.79,48 11.511,85.655 37.79,103.079 L79.261,165.431 C79.261,165.431 88.333,202.294 114.036,205.174 C114.036,205.174 202.738,200.062 206.842,141.239 C206.842,141.239 193.162,157.223 185.53,142.535 C185.53,142.535 204.25,99.839 185.53,53.544 C168.179,10.776 120.012,-15.576 58.526,14.52 C58.526,14.52 37.934,26.904 28.862,47.928 z" fill="#674E2A" id="path830"/>
      <path d="M28.79,48 C28.79,48 11.511,85.655 37.79,103.079 L79.261,165.431 C79.261,165.431 88.333,202.294 114.036,205.174 C114.036,205.174 202.738,200.062 206.842,141.239 C206.842,141.239 193.162,157.223 185.53,142.535 C185.53,142.535 204.25,99.839 185.53,53.544 C168.179,10.776 120.012,-15.576 58.526,14.52 C58.526,14.52 37.934,26.904 28.862,47.928 z" fill-opacity="0" stroke="#373435" stroke-width="3.2" stroke-linejoin="round" id="path832"/>
    </g>
    <g id="g840">
      <path d="M45.278,342.045 C45.278,342.045 14.319,360.837 25.695,385.245 C25.695,385.245 46.934,427.509 127.5,381.933 L156.875,364.869 C156.875,364.869 173.507,370.269 192.658,367.101 C211.81,364.005 182.938,353.493 161.555,341.469 C142.187,330.597 137.58,331.461 137.58,331.461 C137.58,331.461 133.116,340.893 124.26,340.101 C109.284,338.805 66.086,320.877 45.278,341.973 z" fill="#FCD7C4" id="path836"/>
      <path d="M45.278,342.045 C45.278,342.045 14.319,360.837 25.695,385.245 C25.695,385.245 46.934,427.509 127.5,381.933 L156.875,364.869 C156.875,364.869 173.507,370.269 192.658,367.101 C211.81,364.005 182.938,353.493 161.555,341.469 C142.187,330.597 137.58,331.461 137.58,331.461 C137.58,331.461 133.116,340.893 124.26,340.101 C109.284,338.805 66.086,320.877 45.278,341.973 z" fill-opacity="0" stroke="#373435" stroke-width="3.2" stroke-linejoin="round" id="path838"/>
    </g>
    <path d="M118.788,350.325 L58.022,379.125 C58.022,379.125 85.453,356.301 118.788,350.325 z" fill="#FFFFFF" id="path842"/>
    <path d="M58.094,379.125 C58.094,379.125 85.525,356.301 118.86,350.325" fill-opacity="0" stroke="#373435" stroke-width="3.2" stroke-linecap="round" stroke-linejoin="round" id="path844"/>
    <g id="g850">
      <path d="M84.589,350.037 C84.589,350.037 54.062,370.125 64.934,390.789 C64.934,390.789 78.973,432.764 159.539,387.189 L188.842,369.549 C188.842,369.549 212.386,380.637 231.537,377.541 C250.689,374.445 220.809,363.861 200.938,349.461 C184.162,337.293 178.259,339.885 178.259,339.885 C178.259,339.885 175.739,342.693 169.475,350.685 C154.499,349.389 105.396,328.941 84.661,350.109 z" fill="#FCD7C4" id="path846"/>
      <path d="M84.589,350.037 C84.589,350.037 54.062,370.125 64.934,390.789 C64.934,390.789 78.973,432.764 159.539,387.189 L188.842,369.549 C188.842,369.549 212.386,380.637 231.537,377.541 C250.689,374.445 220.809,363.861 200.938,349.461 C184.162,337.293 178.259,339.885 178.259,339.885 C178.259,339.885 175.739,342.693 169.475,350.685 C154.499,349.389 105.396,328.941 84.661,350.109 z" fill-opacity="0" stroke="#373435" stroke-width="3.2" stroke-linejoin="round" id="path848"/>
    </g>
    <path d="M104.244,378.117 C104.244,378.117 136.212,356.085 169.547,350.109" fill-opacity="0" stroke="#373435" stroke-width="3.2" stroke-linecap="round" stroke-linejoin="round" id="path852"/>
    <g id="g858">
      <path d="M169.187,351.117 L64.79,330.741 C64.79,330.741 41.966,338.733 28.935,356.157 C28.935,356.157 45.926,338.157 73.573,360.189 C73.573,360.189 95.317,350.973 117.276,370.269 C117.276,370.269 143.771,355.437 169.187,351.189 z" fill="#90C74A" id="path854"/>
      <path d="M169.187,351.117 L64.79,330.741 C64.79,330.741 41.966,338.733 28.935,356.157 C28.935,356.157 45.926,338.157 73.573,360.189 C73.573,360.189 95.317,350.973 117.276,370.269 C117.276,370.269 143.771,355.437 169.187,351.189 z" fill-opacity="0" stroke="#373435" stroke-width="3.2" stroke-linejoin="round" id="path856"/>
    </g>
    <path d="M160.259,311.446 L76.957,334.773 C119.22,371.133 173.003,346.149 173.003,346.149 C164.363,342.117 160.259,311.446 160.259,311.446 z" fill="#EEA1C0" id="path860"/>
    <path d="M76.885,334.773 C119.148,371.133 172.931,346.149 172.931,346.149 C164.291,342.117 160.187,311.446 160.187,311.446" fill-opacity="0" stroke="#373435" stroke-width="3.2" stroke-linecap="round" stroke-linejoin="round" id="path862"/>
    <path d="M160.259,311.446 L198.922,290.782" fill-opacity="0" stroke="#373435" stroke-width="3.2" stroke-linecap="round" stroke-linejoin="round" id="path864"/>
    <path d="M102.229,277.462 L198.922,290.782 C198.922,290.782 178.906,233.47 182.29,220.078 C185.602,206.758 154.643,191.063 154.643,191.063 C154.643,191.063 116.988,192.719 102.301,277.39 z" fill="#EEA1C0" id="path866"/>
    <path d="M198.922,290.782 C198.922,290.782 178.907,233.47 182.29,220.078 C185.602,206.758 154.643,191.063 154.643,191.063 C154.643,191.063 116.988,192.719 102.301,277.39" fill-opacity="0" stroke="#373435" stroke-width="3.2" stroke-linecap="round" stroke-linejoin="round" id="path868"/>
    <g id="g874">
      <path d="M140.316,302.518 C140.316,302.518 153.995,304.174 155.075,317.421 C155.075,317.421 166.019,304.678 173.651,315.621 C173.651,315.621 179.482,325.269 160.259,344.997 C160.259,344.997 151.907,350.325 147.587,338.445 C147.587,338.445 142.763,328.077 130.884,336.429 L140.244,302.59 z" fill="#FFF8B4" id="path870"/>
      <path d="M140.316,302.518 C140.316,302.518 153.995,304.174 155.075,317.421 C155.075,317.421 166.019,304.678 173.651,315.621 C173.651,315.621 179.482,325.269 160.259,344.997 C160.259,344.997 151.907,350.325 147.587,338.445 C147.587,338.445 142.763,328.077 130.884,336.429 L140.244,302.59 z" fill-opacity="0" stroke="#373435" stroke-width="3.2" stroke-linejoin="round" id="path872"/>
    </g>
    <g id="g880">
      <path d="M135.78,131.159 C135.78,131.159 157.163,117.263 153.131,89.471 L153.131,89.687 C153.131,89.687 160.475,86.447 162.923,90.119 C163.931,91.559 158.891,97.031 158.963,98.903 C161.195,136.775 150.971,155.135 130.956,169.751 L135.708,182.207 L152.987,191.495 C137.508,204.526 106.188,269.326 106.188,269.326 C106.476,268.102 69.109,283.078 63.782,269.326 C57.23,252.262 78.973,206.47 83.653,201.79 C86.677,191.351 116.556,182.135 116.556,182.135 L114.9,176.303 C82.573,182.783 40.742,163.055 34.55,103.079 C32.462,83.207 37.574,64.704 47.006,50.304 C47.006,50.304 87.037,104.591 135.132,84.431 C135.132,84.431 142.907,100.127 135.78,131.231 z" fill="#FCD7C4" id="path876"/>
      <path d="M135.78,131.159 C135.78,131.159 157.163,117.263 153.131,89.471 L153.131,89.687 C153.131,89.687 160.475,86.447 162.923,90.119 C163.931,91.559 158.891,97.031 158.963,98.903 C161.195,136.775 150.971,155.135 130.956,169.751 L135.708,182.207 L152.987,191.495 C137.508,204.526 106.188,269.326 106.188,269.326 C106.476,268.102 69.109,283.078 63.782,269.326 C57.23,252.262 78.973,206.47 83.653,201.79 C86.677,191.351 116.556,182.135 116.556,182.135 L114.9,176.303 C82.573,182.783 40.742,163.055 34.55,103.079 C32.462,83.207 37.574,64.704 47.006,50.304 C47.006,50.304 87.037,104.591 135.132,84.431 C135.132,84.431 142.907,100.127 135.78,131.231 z" fill-opacity="0" stroke="#373435" stroke-width="3.2" stroke-linejoin="round" id="path878"/>
    </g>
    <path d="M112.164,132.815 C112.164,132.815 110.364,143.327 102.733,145.919 C99.709,146.999 94.381,147.071 90.637,144.191" fill-opacity="0" stroke="#373435" stroke-width="3.95" stroke-linecap="round" stroke-linejoin="round" id="path882"/>
    <g id="g888">
      <path d="M82.861,262.342 L54.206,240.454 C63.638,204.166 88.477,194.734 88.477,194.734 C88.477,194.734 69.829,217.558 82.861,262.342 z" fill="#EEA1C0" id="path884"/>
      <path d="M82.861,262.342 L54.206,240.454 C63.638,204.166 88.477,194.734 88.477,194.734 C88.477,194.734 69.829,217.558 82.861,262.342 z" fill-opacity="0" stroke="#373435" stroke-width="3.2" id="path886"/>
    </g>
    <path d="M163.571,245.494 L167.603,266.806 L130.236,254.782 L118.284,274.798" fill-opacity="0" stroke="#373435" stroke-width="3.2" stroke-linecap="round" stroke-linejoin="round" id="path890"/>
    <path d="M180.13,210.43 L118.212,274.798 C118.212,274.798 169.259,309.79 194.89,302.158 C203.026,299.71 206.914,286.822 194.242,250.822 C183.73,220.87 180.13,210.502 180.13,210.502 z" fill="#EEA1C0" id="path892"/>
    <path d="M118.284,274.798 C118.284,274.798 169.331,309.79 194.962,302.158 C203.098,299.71 206.986,286.822 194.314,250.822 C183.802,220.87 180.202,210.502 180.202,210.502" fill-opacity="0" stroke="#373435" stroke-width="3.2" stroke-linecap="round" stroke-linejoin="round" id="path894"/>
    <path d="M90.277,220.15 C90.277,220.15 81.133,229.942 81.133,246.502" fill-opacity="0" stroke="#373435" stroke-width="3.2" stroke-linecap="round" stroke-linejoin="round" id="path896"/>
    <g id="g902">
      <path d="M137.148,253.342 C137.148,253.342 138.804,238.654 133.404,237.574 C128.004,236.566 127.428,249.67 127.428,249.67 C127.428,249.67 128.508,255.358 116.628,247.078 C110.796,242.974 104.029,238.654 101.581,241.246 C96.541,246.574 105.972,251.542 105.972,251.542 C105.972,251.542 90.925,246.07 90.421,253.558 C89.917,261.046 102.157,260.038 102.157,260.038 C102.157,260.038 89.701,260.254 90.133,266.374 C90.637,272.494 103.381,270.19 103.381,270.19 C103.381,270.19 94.885,274.294 96.325,278.182 C97.405,281.134 103.525,277.822 111.588,276.31 C115.548,275.59 122.82,276.598 127.284,273.214 C127.284,273.214 135.78,268.75 137.148,253.342 z" fill="#FCD7C4" id="path898"/>
      <path d="M137.148,253.342 C137.148,253.342 138.804,238.654 133.404,237.574 C128.004,236.566 127.428,249.67 127.428,249.67 C127.428,249.67 128.508,255.358 116.628,247.078 C110.796,242.974 104.029,238.654 101.581,241.246 C96.541,246.574 105.972,251.542 105.972,251.542 C105.972,251.542 90.925,246.07 90.421,253.558 C89.917,261.046 102.157,260.038 102.157,260.038 C102.157,260.038 89.701,260.254 90.133,266.374 C90.637,272.494 103.381,270.19 103.381,270.19 C103.381,270.19 94.885,274.294 96.325,278.182 C97.405,281.134 103.525,277.822 111.588,276.31 C115.548,275.59 122.82,276.598 127.284,273.214 C127.284,273.214 135.78,268.75 137.148,253.342 z" fill-opacity="0" stroke="#373435" stroke-width="3.2" stroke-linejoin="round" id="path900"/>
    </g>
    <g id="g908">
      <path d="M35.414,305.038 C-11.096,261.982 25.767,239.23 25.767,239.23 C25.767,239.23 56.366,214.75 80.989,242.83 C82.501,244.486 82.573,239.878 85.021,240.598 C86.101,240.886 86.317,245.35 86.029,246.07 C88.477,245.494 99.565,250.822 97.045,264.646 L35.486,305.038 z" fill="#FCD7C4" id="path904"/>
      <path d="M35.414,305.038 C-11.096,261.982 25.767,239.23 25.767,239.23 C25.767,239.23 56.366,214.75 80.989,242.83 C82.501,244.486 82.573,239.878 85.021,240.598 C86.101,240.886 86.317,245.35 86.029,246.07 C88.477,245.494 99.565,250.822 97.045,264.646 L35.486,305.038 z" fill-opacity="0" stroke="#373435" stroke-width="3.2" stroke-linejoin="round" id="path906"/>
    </g>
    <path d="M120.3,241.246 L120.228,225.406 C120.228,225.406 122.964,231.886 120.3,241.246 z" fill="#EEA1C0" id="path910"/>
    <path d="M120.228,225.478 C120.228,225.478 122.964,231.958 120.3,241.318" fill-opacity="0" stroke="#373435" stroke-width="3.2" stroke-linecap="round" stroke-linejoin="round" id="path912"/>
    <path d="M62.558,266.446 L54.71,256.582 C54.71,256.582 44.558,259.75 49.166,266.23 C53.846,272.71 62.342,268.606 62.558,266.374 z" fill="#FCD7C4" id="path914"/>
    <path d="M54.782,256.654 C54.782,256.654 44.63,259.822 49.238,266.302 C53.918,272.782 62.414,268.678 62.63,266.446" fill-opacity="0" stroke="#373435" stroke-width="3.2" stroke-linecap="round" stroke-linejoin="round" id="path916"/>
    <g id="g922">
      <path d="M179.626,286.894 C168.323,279.838 162.491,296.47 162.491,296.47 C154.859,283.654 139.524,288.838 139.524,288.838 C125.628,282.79 124.188,279.982 124.188,279.982 C126.564,271.486 112.524,265.15 112.524,265.15 C94.237,258.814 76.165,263.926 62.702,270.55 C57.878,268.102 33.974,254.71 37.574,229.942 C37.574,229.942 23.607,233.974 20.079,241.966 C20.079,241.966 9.063,229.942 3.591,239.95 C-1.881,249.958 4.599,258.454 13.599,259.462 C13.599,259.462 -0.513,282.502 30.518,301.654 C30.014,302.806 29.726,303.598 29.726,303.598 C72.493,328.005 66.805,336.357 93.517,347.805 C107.628,353.853 123.324,350.325 131.604,341.973 C139.74,333.765 141.252,322.893 141.252,322.893 C147.371,318.645 157.811,320.085 157.811,320.085 C169.619,331.389 178.115,321.957 178.115,321.957 C195.106,296.47 179.698,286.894 179.698,286.894 z" fill="#FFF8B4" id="path918"/>
      <path d="M179.626,286.894 C168.323,279.838 162.491,296.47 162.491,296.47 C154.859,283.654 139.524,288.838 139.524,288.838 C125.628,282.79 124.188,279.982 124.188,279.982 C126.564,271.486 112.524,265.15 112.524,265.15 C94.237,258.814 76.165,263.926 62.702,270.55 C57.878,268.102 33.974,254.71 37.574,229.942 C37.574,229.942 23.607,233.974 20.079,241.966 C20.079,241.966 9.063,229.942 3.591,239.95 C-1.881,249.958 4.599,258.454 13.599,259.462 C13.599,259.462 -0.513,282.502 30.518,301.654 C30.014,302.806 29.726,303.598 29.726,303.598 C72.493,328.005 66.805,336.357 93.517,347.805 C107.628,353.853 123.324,350.325 131.604,341.973 C139.74,333.765 141.252,322.893 141.252,322.893 C147.371,318.645 157.811,320.085 157.811,320.085 C169.619,331.389 178.115,321.957 178.115,321.957 C195.106,296.47 179.698,286.894 179.698,286.894 z" fill-opacity="0" stroke="#373435" stroke-width="3.2" stroke-linejoin="round" id="path920"/>
    </g>
    <g id="g928">
      <path d="M26.415,304.678 C26.415,304.678 24.759,289.99 30.158,288.91 C35.558,287.902 36.134,300.934 36.134,300.934 C36.134,300.934 35.054,306.622 46.934,298.342 C52.766,294.238 59.534,289.918 61.982,292.51 C67.021,297.838 57.59,302.806 57.59,302.806 C57.59,302.806 72.637,297.334 73.141,304.822 C73.645,312.31 61.406,311.302 61.406,311.302 C61.406,311.302 73.861,311.518 73.429,317.637 C72.925,323.757 60.182,321.453 60.182,321.453 C60.182,321.453 68.677,325.557 67.237,329.445 C66.158,332.397 60.038,329.085 51.974,327.573 C48.014,326.853 40.742,327.861 36.278,324.477 C36.278,324.477 27.783,320.013 26.415,304.606 z" fill="#FCD7C4" id="path924"/>
      <path d="M26.415,304.678 C26.415,304.678 24.759,289.99 30.158,288.91 C35.558,287.902 36.134,300.934 36.134,300.934 C36.134,300.934 35.054,306.622 46.934,298.342 C52.766,294.238 59.534,289.918 61.982,292.51 C67.021,297.838 57.59,302.806 57.59,302.806 C57.59,302.806 72.637,297.334 73.141,304.822 C73.645,312.31 61.406,311.302 61.406,311.302 C61.406,311.302 73.861,311.518 73.429,317.637 C72.925,323.757 60.182,321.453 60.182,321.453 C60.182,321.453 68.677,325.557 67.237,329.445 C66.158,332.397 60.038,329.085 51.974,327.573 C48.014,326.853 40.742,327.861 36.278,324.477 C36.278,324.477 27.783,320.013 26.415,304.606 z" fill-opacity="0" stroke="#373435" stroke-width="3.2" stroke-linejoin="round" id="path926"/>
    </g>
    <path d="M37.574,233.974 C37.574,233.974 52.046,226.99 45.566,218.998 C45.566,218.998 39.59,215.974 37.574,222.022" fill-opacity="0" stroke="#373435" stroke-width="3.2" stroke-linecap="round" stroke-linejoin="round" id="path930"/>
    <path d="M48.734,234.046 C43.55,239.086 37.142,234.19 37.142,234.19 C37.142,234.19 40.382,241.318 47.654,241.03" fill-opacity="0" stroke="#373435" stroke-width="3.2" stroke-linecap="round" stroke-linejoin="round" id="path932"/>
    <g id="g938">
      <path d="M155.291,88.967 L156.515,116.759 C159.323,116.615 174.731,112.799 176.891,102.143 C179.554,88.967 171.779,83.423 164.507,84.431 C164.507,84.431 159.755,85.007 155.363,88.967 z" fill="#FCD7C4" id="path934"/>
      <path d="M156.515,116.759 C159.323,116.615 174.731,112.799 176.891,102.143 C179.554,88.967 171.779,83.423 164.507,84.431 C164.507,84.431 159.755,85.007 155.363,88.967" fill-opacity="0" stroke="#373435" stroke-width="3.2" stroke-linecap="round" stroke-linejoin="round" id="path936"/>
    </g>
    <path d="M82.069,288.478 L122.604,272.998 C122.604,272.998 126.132,278.686 120.66,282.07 C115.764,285.094 104.82,288.118 82.069,288.406 z" fill="#FFF8B4" id="path940"/>
    <path d="M122.676,272.998 C122.676,272.998 126.204,278.686 120.732,282.07 C115.836,285.094 104.892,288.118 82.141,288.406" fill-opacity="0" stroke="#373435" stroke-width="3.2" stroke-linecap="round" stroke-linejoin="round" id="path942"/>
    <path d="M127.572,297.478 L143.483,287.974 C143.483,287.974 136.572,287.974 127.572,297.478 z" fill="#FFF8B4" id="path944"/>
    <path d="M143.483,287.902 C143.483,287.902 136.572,287.902 127.572,297.406" fill-opacity="0" stroke="#373435" stroke-width="3.2" stroke-linecap="round" stroke-linejoin="round" id="path946"/>
    <path d="M66.805,115.967 C67.165,117.623 63.062,119.999 57.518,121.295 C51.974,122.591 47.222,122.375 46.862,120.719 C46.502,119.063 50.606,116.687 56.15,115.391 C61.694,114.095 66.445,114.311 66.805,115.967 z" fill="#F8B7B3" fill-opacity="0.702" id="path948"/>
    <path d="M56.942,114.239 L55.142,108.047 C55.142,108.047 55.43,109.343 56.942,114.239 z" fill="#FEFEFE" id="path950"/>
    <path d="M55.142,108.047 C55.142,108.047 55.43,109.343 56.942,114.239" fill-opacity="0" stroke="#373435" stroke-width="5.615" stroke-linecap="round" stroke-linejoin="round" id="path952"/>
    <path d="M116.052,104.375 C116.556,106.031 112.452,108.551 107.052,110.135 C101.581,111.719 96.829,111.647 96.325,110.063 C95.821,108.407 99.925,105.887 105.396,104.303 C110.796,102.719 115.62,102.791 116.052,104.375 z" fill="#F8B7B3" fill-opacity="0.702" id="path954"/>
    <path d="M104.892,104.231 L102.877,96.887 C102.877,96.887 103.381,99.335 104.892,104.231 z" fill="#FEFEFE" id="path956"/>
    <path d="M102.877,96.887 C102.877,96.887 103.381,99.335 104.892,104.231" fill-opacity="0" stroke="#373435" stroke-width="5.615" stroke-linecap="round" stroke-linejoin="round" id="path958"/>
    <path d="M79.693,108.767 C82.285,113.231 71.341,112.583 73.861,116.903 C75.445,119.711 82.357,117.551 84.661,116.903" fill-opacity="0" stroke="#373435" stroke-width="3.369" stroke-linecap="round" stroke-linejoin="round" id="path960"/>
    <path d="M78.325,245.998 C79.333,246.862 77.965,250.39 75.301,253.99 C72.637,257.518 69.757,259.75 68.749,258.886 C67.741,258.022 69.109,254.494 71.773,250.894 C74.437,247.366 77.317,245.134 78.325,245.998 z" fill="#F8B7B3" fill-opacity="0.702" id="path962"/>
    <path d="M70.549,244.558 C70.837,244.702 71.125,244.918 71.341,245.134 C73.069,246.502 73.717,248.446 72.853,249.598 C71.989,250.678 69.901,250.462 68.173,249.094 C67.885,248.878 67.669,248.662 67.525,248.446" fill-opacity="0" stroke="#373435" stroke-width="3.2" stroke-linecap="round" stroke-linejoin="round" id="path964"/>
    <path d="M57.374,39.216 C57.374,39.216 89.701,78.815 129.804,72.048" fill-opacity="0" stroke="#373435" stroke-width="3.2" stroke-linecap="round" stroke-linejoin="round" id="path966"/>
    <path d="M68.029,27.624 C68.029,27.624 79.117,43.536 101.869,48.36" fill-opacity="0" stroke="#373435" stroke-width="3.2" stroke-linecap="round" stroke-linejoin="round" id="path968"/>
    <path d="M146.723,157.079 C146.723,157.079 154.931,176.375 177.179,172.991" fill-opacity="0" stroke="#373435" stroke-width="3.2" stroke-linecap="round" stroke-linejoin="round" id="path970"/>
    <path d="M152.987,146.495 C152.987,146.495 159.251,158.591 169.907,160.031" fill-opacity="0" stroke="#373435" stroke-width="3.2" stroke-linecap="round" stroke-linejoin="round" id="path972"/>
  </g>
</svg>