<?xml version="1.0" encoding="UTF-8"?>
<!DOCTYPE svg PUBLIC "-//W3C//DTD SVG 1.1//EN" "http://www.w3.org/Graphics/SVG/1.1/DTD/svg11.dtd">
<svg version="1.1" xmlns="http://www.w3.org/2000/svg" xmlns:xlink="http://www.w3.org/1999/xlink" x="0" y="0" width="278" height="513" viewBox="0, 0, 278, 513">
  <defs>
    <clipPath id="Clip_1">
      <path d="M0.06,0.11 L277.911,0.11 L277.911,513 L0.06,513 z"/>
    </clipPath>
  </defs>
  <g id="Layer_1">
    <g clip-path="url(#Clip_1)">
      <path d="M199.495,270.798 C195.138,270.111 193.397,268.05 192.996,263.835 C192.037,253.761 190.794,243.713 189.666,233.655 C189.25,232.589 188.801,231.507 190.709,231.651 C194.796,243.191 200.783,253.998 203.95,265.893 C205.598,272.083 205.641,271.766 199.495,270.798 z M128.217,465.439 C128.126,458.346 121.563,455.447 119.972,449.479 C122.629,449.084 125.506,450.345 127.96,448.419 C129.146,451.997 130.25,455.604 131.544,459.142 C132.499,461.754 130.988,463.16 128.217,465.439 z M274.969,68.279 C266.115,58.06 256.573,48.517 245.814,40.334 C191.444,-1.021 131.941,-11.012 67.688,12.797 C40.892,22.726 19.799,40.066 8.189,67.124 C-1.473,89.645 -1.224,113.108 2.026,136.802 C2.351,139.166 3.741,140.893 6.041,141.388 C8.243,141.862 8.448,142.772 8.12,144.862 C7.423,149.29 6.92,153.787 6.847,158.264 C6.762,163.515 10.915,165.664 15.307,162.802 C17.482,161.385 19.431,159.621 22.418,157.28 C22.331,166.901 26.893,174.407 28.182,183.185 C31.651,206.803 40.518,228.044 63.684,240.285 C57.256,242.308 54.118,247.101 51.73,252.586 C47.738,261.756 46.514,271.508 46.381,281.338 C46.199,294.881 47.126,308.362 54.494,320.322 C55.984,322.741 55.916,323.929 54.215,326.144 C49.455,332.343 46.262,338.98 51.612,346.606 C52.612,348.031 51.587,349.478 51.255,350.901 C50.088,355.892 48.303,360.87 51.489,365.848 C51.938,366.55 51.72,367.793 51.569,368.748 C49.604,381.137 49.79,393.63 50.005,406.095 C50.199,417.368 56.443,424.823 67.27,427.651 C75.948,429.918 75.948,429.918 76.84,439.325 C76.887,439.823 76.854,440.349 77.01,440.811 C77.855,443.322 76.725,444.209 74.372,444.974 C65.115,447.984 58.111,453.75 53.902,462.673 C50.304,468.514 49.486,474.785 51.793,481.184 C55.528,491.542 63.644,496.58 76.526,496.949 C89.519,497.322 102.479,497.003 115.226,494.167 C119.084,493.309 121.185,494.299 122.105,498.252 C123.054,502.33 125.562,505.348 129.306,507.356 C133.006,509.34 136.905,510.698 141.009,511.525 C155.014,514.348 168.849,512.82 182.507,509.473 C190.853,507.428 194.173,501.608 192.342,493.288 C191.617,489.998 191.401,486.811 191.799,483.428 C192.568,476.897 191.154,470.486 186.765,465.682 C181.46,459.876 175.369,454.801 171.945,447.486 C170.173,442.481 168.532,437.423 166.571,432.493 C165.641,430.155 165.647,428.968 168.137,427.473 C173.768,424.092 177.258,418.871 178.963,412.495 C181.27,403.865 180.622,395.234 177.935,386.926 C176.44,382.301 177.691,379.861 181.173,376.933 C191.997,367.83 202.618,358.469 212.328,348.147 C216.311,343.911 216.165,343.362 211.243,340.781 C202.301,336.091 196.012,328.545 189.948,320.788 C189.624,320.373 188.328,319.839 189.925,318.637 C194.068,315.52 198.089,312.434 203.335,311.302 C204.909,310.963 206.819,309.564 205.04,307.69 C199.547,301.903 204.938,298.315 207.631,293.152 C208.833,300.766 209.748,307.506 211.876,313.975 C213.928,320.211 217.221,321.212 222.493,317.202 C223.618,318.593 223.585,320.297 223.771,321.932 C224.008,324.005 225.158,324.897 227.18,324.511 C237.134,322.613 247.064,320.618 256.547,316.891 C258.796,316.007 259.277,314.797 257.864,312.716 C253.955,306.96 252.331,300.309 250.733,293.686 C246.742,277.148 245.17,260.239 243.05,243.407 C240.367,222.094 239.871,200.863 245.959,180.052 C253.722,153.516 254.393,126.65 250.834,99.491 C250.508,97.005 251.179,95.607 253.331,94.254 C260.517,89.738 267.414,84.787 274.009,79.432 C278.954,75.417 279.117,73.066 274.969,68.279" fill="#522C12"/>
    </g>
    <path d="M185.944,207.475 C185.214,202.866 184.979,197.577 179.236,196.47 C173.558,195.376 171.151,200.107 168.732,204.077 C165.328,209.662 163.781,216.023 161.428,222.897 C160.404,220.842 159.625,219.375 158.933,217.867 C156.635,212.863 154.129,207.983 150.492,203.787 C147.855,200.745 144.705,198.257 140.519,199.824 C136.577,201.3 135.836,205.108 135.643,208.919 C135.347,214.775 135.807,220.575 137.223,226.264 C138.346,230.777 139.419,235.331 140.991,239.695 C141.906,242.237 141.143,242.952 138.912,243.364 C124.373,246.044 109.814,246.217 95.208,243.902 C93.548,243.639 92.522,242.953 91.753,241.501 C81.664,222.476 76.792,202.503 80.261,180.876 C80.785,177.609 81.936,176.902 85.048,177.428 C94.498,179.025 103.138,182.97 111.983,186.327 C120.076,189.397 128.174,192.576 136.84,193.478 C158.773,195.76 176.967,181.932 181.697,159.706 C183.17,152.782 183.676,145.738 182.403,138.853 C178.973,120.32 165.84,113.38 148.662,114.217 C133.003,114.98 118.454,120.396 103.817,125.375 C86.648,131.216 69.482,137.073 51.322,139.128 C37.658,140.675 24.075,140.253 10.624,137.268 C8.957,136.898 7.082,136.768 6.807,134.16 C4.876,115.864 3.972,97.619 9.172,79.656 C16.431,54.579 32.475,36.729 55.039,24.321 C83.344,8.756 113.738,3.993 145.676,6.189 C191.409,9.334 229.152,29.017 261.175,60.904 C264.593,64.308 267.692,68.03 271.052,71.494 C272.597,73.087 272.439,74.051 270.731,75.445 C261.032,83.359 250.533,90.102 239.977,96.774 C238.017,98.013 237.249,97.656 236.555,95.378 C231.63,79.226 220.692,67.546 207.873,57.315 C206.177,55.962 204.243,54.163 202.39,56.788 C200.695,59.189 203.087,60.32 204.57,61.513 C210.812,66.537 216.656,71.957 221.622,78.276 C230.593,89.693 234.394,102.187 231.883,116.945 C228.182,138.691 223.246,159.967 213.767,180.002 C207.162,193.961 198.804,206.698 187.723,217.55 C185.536,217.502 186.406,215.804 186.296,214.747 C186.045,212.334 186.616,209.875 185.944,207.475" fill="#F290A4"/>
    <path d="M139.77,248.547 C136.529,259.093 137.099,268.757 141.062,278.648 C143.228,284.053 142.858,290.427 144.862,296.094 C146.977,302.077 149.126,308.133 155.212,311.392 C157.013,312.357 156.791,313.747 156.661,315.196 C156.231,319.996 156.027,324.841 155.191,329.573 C153.303,340.252 144.486,346.147 133.747,344.164 C130.806,343.621 127.9,342.874 124.953,341.019 C127.663,338.521 130.303,336.114 132.911,333.672 C133.935,332.714 134.83,331.525 133.636,330.236 C132.485,328.995 131.155,329.571 130.17,330.629 C119.061,342.568 104.566,340.446 90.536,340.149 C88.054,340.096 85.402,340.033 83.15,339.154 C79.736,337.822 76.809,335.645 75.955,331.588 C75.442,329.148 74.601,326.765 72.785,324.914 C71.816,323.926 70.581,323.027 69.29,324.016 C67.926,325.06 68.503,326.415 69.511,327.473 C71.295,329.344 71.747,331.713 72.778,334.565 C68.405,333.842 67.156,330.802 65.855,328.098 C62.063,320.218 60.246,311.773 59.344,303.127 C58.155,291.716 56.996,280.302 55.956,268.877 C55.594,264.893 56.016,260.902 56.699,256.949 C57.627,251.574 62.008,247.371 67.412,246.684 C68.489,246.547 69.001,247.016 69.841,247.723 C81.167,257.256 85.352,270.686 89.882,283.94 C92.212,290.757 93.284,291.034 98.018,285.645 C105.061,277.624 111.168,268.883 117.064,260.014 C122.432,251.939 130.367,249.469 139.77,248.547" fill="#F290A4"/>
    <path d="M168.533,372.222 C173.576,383.627 177.194,394.912 175.864,407.264 C174.763,417.486 169.531,423.458 159.495,425.956 C147.986,428.82 136.397,430.818 124.447,429.767 C112.555,428.721 104.732,422.609 100.944,411.323 C100.429,409.79 100.405,407.427 98.156,408.083 C95.734,408.79 96.693,411.038 97.214,412.763 C97.646,414.192 97.939,415.79 98.795,416.94 C101.968,421.204 100.266,422.667 95.73,423.368 C86.976,424.72 78.217,425.974 69.446,423.979 C59.411,421.696 54.467,416.003 54.005,405.855 C53.505,394.873 54.279,383.891 54.865,372.92 C55.027,369.894 56.052,367.947 59.702,368.342 C61.432,368.529 63.255,367.851 65.802,367.441 C64.049,373.57 62.515,379.228 60.799,384.831 C59.631,388.642 60.721,390.512 64.843,390.674 C70.161,390.883 75.484,391.18 80.777,391.711 C84.267,392.061 85.054,390.54 84.964,387.413 C84.793,381.42 84.766,375.414 84.999,369.425 C85.077,367.43 83.433,363.971 86.571,363.666 C89.754,363.356 93.107,364.715 94.273,368.647 C96.21,375.179 98.479,381.62 100.19,388.208 C101.14,391.867 102.86,393.082 106.532,392.429 C112.424,391.381 118.347,390.379 124.3,389.836 C129.119,389.396 129.016,387.383 126.972,384.044 C125.788,382.108 124.786,380.06 123.365,377.442 C139.163,380.122 154.409,383.71 168.533,372.222" fill="#F290A4"/>
    <path d="M101.009,153.782 C106.467,152.332 111.874,150.637 117.516,150.021 C119.826,149.769 122.767,148.783 124.375,149.794 C129.791,153.202 135.448,152.116 141.325,151.517 C138.84,150.117 136.033,148.59 138.069,144.801 C142.959,146.362 147.731,148.273 152.09,151.049 C154.743,152.739 157.141,155.257 160.627,153.37 C164.157,151.46 163.139,147.984 163.11,144.081 C168.146,147.164 172.129,150.743 176.151,154.251 C177.917,155.791 176.833,157.728 176.444,159.384 C171.245,181.482 152.906,192.618 130.73,187.176 C123.127,185.31 115.721,182.707 108.654,179.44 C92.833,172.125 76.63,170.293 59.545,173.842 C52.089,175.391 44.35,175.547 36.754,176.458 C34.21,176.763 32.835,175.893 31.869,173.502 C29.615,167.922 28.159,162.136 27.008,156.266 C26.402,153.177 30.871,148.575 35.971,147.168 C44.041,144.941 51.794,146.269 59.255,149.769 C60.979,150.577 62.634,151.529 64.59,152.025 C62.198,148.055 57.89,146.761 53.473,144.753 C55.924,143.048 58.477,143.549 60.697,142.972 C65.84,141.636 71.476,141.527 76.196,139.36 C92.421,131.914 106.178,138.91 120.094,145.808 C120.482,146 120.732,146.47 121.466,147.264 C113.552,147.544 106.399,149.12 99.812,152.737 C99.539,153.131 99.263,153.521 98.818,153.744 C99.541,154.212 100.276,153.926 101.009,153.782" fill="#FEF2E2"/>
    <path d="M162.459,234.223 C164.321,225.845 165.998,217.561 169.505,209.799 C170.746,207.053 172.069,204.362 173.987,202.057 C177.28,198.1 180.328,198.634 181.851,203.557 C184.122,210.898 183.039,218.398 182.429,225.853 C182.402,226.184 182.312,226.509 182.25,226.836 C180.774,234.69 179.708,241.734 184.617,249.763 C190.485,259.36 188.591,270.402 182.113,279.947 C173.112,293.21 155.697,293.509 146.444,280.41 C139.072,269.974 138.772,258.663 144.285,247.339 C145.52,244.802 145.652,242.901 144.735,240.401 C141.285,230.992 138.714,221.376 138.761,211.239 C138.766,210.241 138.697,209.217 138.889,208.25 C139.303,206.162 139.387,203.634 141.755,202.815 C144.363,201.912 146.179,203.814 147.696,205.585 C153.538,212.407 156.813,220.576 159.832,228.891 C160.478,230.669 160.376,232.89 162.459,234.223" fill="#FDEBD0"/>
    <path d="M222.163,176.597 C222.812,192.538 223.337,208.485 224.142,224.418 C225.124,243.865 225.861,263.329 227.713,282.724 C227.745,283.055 227.712,283.393 227.757,283.722 C227.971,285.301 227.597,287.508 229.976,287.483 C232.601,287.455 231.827,285.193 231.743,283.687 C231.412,277.705 230.895,271.733 230.579,265.751 C229.481,244.975 228.42,224.197 227.381,203.418 C226.85,192.784 226.658,182.125 225.83,171.515 C225.03,161.276 230.561,152.67 232.411,143.066 C234.168,149.74 233.547,156.533 233.881,163.251 C235.904,203.973 237.581,244.727 244.751,284.986 C246.327,293.839 248.169,302.668 252.101,310.831 C253.422,313.574 252.469,314.339 250.065,314.919 C243.763,316.44 237.459,317.959 231.201,319.645 C228.408,320.397 227.306,319.437 226.926,316.717 C224.572,299.911 222.05,283.129 219.76,266.315 C216.749,244.211 214.783,221.996 212.947,199.768 C212.609,195.67 213.042,191.988 215.279,188.349 C217.6,184.571 219.27,180.393 221.225,176.391 C221.538,176.46 221.85,176.528 222.163,176.597" fill="#F28FA4"/>
    <path d="M86.258,241.62 C65.954,238.477 50.59,229.002 41.63,210.302 C37.728,202.158 35.156,193.597 33.212,184.813 C32.817,183.029 32.449,181.799 35.142,181.537 C47.545,180.332 59.933,178.961 72.308,177.493 C75.279,177.141 76.171,177.969 75.709,180.929 C72.495,201.517 76.501,220.911 85.572,239.443 C85.845,240.002 85.955,240.642 86.258,241.62" fill="#F290A4"/>
    <path d="M209.731,344.853 C198.912,356.364 187.159,366.352 175.279,376.825 C173.224,372.493 170.882,369.178 173.154,364.092 C175.439,358.979 172.708,354.019 169.404,349.817 C166.505,346.13 163.028,342.999 159.055,340.505 C157.345,339.432 156.968,338.426 157.684,336.483 C159.123,332.575 159.715,328.447 160.053,323.779 C163.382,326.217 164.118,329.972 166.173,332.775 C167.941,335.186 169.445,337.789 171.121,340.269 C171.881,341.393 172.796,342.559 174.363,341.585 C176.26,340.406 175.279,339.056 174.396,337.793 C169.811,331.232 165.894,324.291 162.315,317.133 C160.956,314.414 160.141,312.608 164.077,311.336 C168.113,310.032 169.735,305.919 172.371,302.338 C182.852,318.335 192.539,334.764 209.731,344.853" fill="#F28FA4"/>
    <path d="M104.833,351.923 C112.471,350.449 120.087,350.713 126.81,346.973 C127.684,346.487 129.34,347.33 130.611,347.649 C138.129,349.535 145.203,348.389 151.541,344.024 C153.76,342.496 155.198,342.614 157.195,344.106 C160.951,346.913 164.512,349.907 167.189,353.774 C171.022,359.312 170.576,363.694 165.99,368.552 C161.915,372.87 156.864,375.063 151.029,375.672 C141.113,376.707 131.475,375.234 121.97,372.518 C120.689,372.152 119.433,371.774 118.576,370.604 C114.089,364.478 109.578,358.368 104.833,351.923" fill="#F28FA4"/>
    <path d="M177.568,148.421 C169.112,141.806 161.272,135.455 151.423,131.922 C153.876,133.896 155.492,136.342 156.505,139.142 C157.523,141.954 158.22,144.837 157.564,148.371 C148.174,142.082 137.497,139.443 126.654,134.268 C128.726,138.884 133.215,141.512 131.204,146.99 C122.033,140.086 111.951,135.604 99.707,132.213 C119.208,125.771 136.802,118.155 156.454,119.628 C170.137,120.654 178.604,131.907 177.568,148.421" fill="#D07C58"/>
    <path d="M152.434,491.681 C146.369,478.969 144.479,478.046 127.248,479.269 C129.88,468.974 135.098,461.69 146.559,460.173 C155.258,459.021 163.784,458.872 172.152,461.682 C182.358,465.109 186.883,472.24 185.884,483.755 C179.985,479.891 173.947,476.839 166.916,478.632 C159.954,480.408 156.118,485.941 152.434,491.681" fill="#FEFEFE"/>
    <path d="M68.012,468.136 C66.821,464.583 66.746,460.562 63.375,457.953 C61.773,456.714 63.604,455.942 64.274,455.298 C67.443,452.25 71.417,450.538 75.407,448.873 C76.837,448.276 77.768,448.585 78.774,449.883 C88.037,461.834 100.133,462.355 113.384,458.434 C115.608,457.776 117.889,454.658 120.396,457.981 C123.125,461.597 125.995,465.268 123.743,470.188 C122.094,473.791 119.478,476.53 115.496,477.558 C108.711,479.309 101.715,479.595 94.799,480.447 C92.304,480.754 91.963,479.348 91.206,477.524 C87.703,469.089 75.883,464.355 68.012,468.136" fill="#FEFEFE"/>
    <path d="M208.448,200.487 C210.482,207.119 209.98,213.336 210.534,219.378 C213.039,246.668 216.213,273.864 220.557,300.923 C221.278,305.416 220.774,307.618 217.513,313.631 C214.359,306.785 213.328,299.705 213.019,292.815 C212.131,273.018 207.007,254.406 198.14,236.9 C192.92,226.595 191.271,217.673 201.621,209.533 C204.256,207.461 205.831,204.041 208.448,200.487" fill="#D07B58"/>
    <path d="M100.104,456.57 C97.606,456.793 94.999,456.137 92.493,455.267 C85.199,452.735 81.373,447.854 80.791,439.814 C80.06,429.717 79.654,429.775 89.731,428.423 C92.364,428.069 95.079,427.8 97.553,426.919 C102.051,425.316 105.71,425.943 109.396,429.138 C111.251,430.747 112.648,431.982 112.991,434.601 C113.638,439.534 114.718,444.416 115.732,449.295 C116.256,451.815 115.652,453.366 112.992,454.15 C108.838,455.375 104.733,456.728 100.104,456.57" fill="#F28FA4"/>
    <path d="M170.777,456.622 C161.637,455.335 153.066,454.58 144.503,456.488 C135.53,458.488 135.523,458.456 132.779,449.501 C131.562,445.528 130.414,441.532 129.098,437.592 C128.301,435.205 128.908,434.312 131.489,434.254 C140.499,434.053 149.338,432.513 158.112,430.538 C159.603,430.202 161.175,429.201 162.047,431.813 C164.768,439.963 167.733,448.031 170.777,456.622" fill="#F28FA4"/>
    <path d="M189.977,313.994 C184.99,308.849 180.268,304.17 175.787,299.27 C173.685,296.972 174.747,291.351 177.656,289.078 C182.635,285.187 186.558,280.541 188.599,274.523 C189.355,272.294 190.599,272.283 192.429,272.829 C194.975,273.589 197.544,274.286 200.134,274.878 C206.246,276.274 209.169,282.117 205.969,287.716 C201.031,296.356 195.642,304.738 189.977,313.994" fill="#F28FA4"/>
    <path d="M237.504,181.852 C237.504,168.727 237.766,155.595 237.42,142.479 C237.152,132.35 235.796,122.214 237.689,112.144 C238.606,107.268 237.736,100.951 245.675,100.216 C249.544,127.896 248.683,155.213 239.791,181.91 C239.029,181.891 238.266,181.871 237.504,181.852" fill="#D07B58"/>
    <path d="M106.51,388.162 C104.739,388.538 104.233,387.32 103.833,385.978 C100.618,375.169 97.402,364.36 94.188,353.55 C93.903,352.592 93.497,351.51 94.575,350.873 C95.468,350.346 96.587,350.478 97.424,351.087 C98.616,351.955 99.848,352.857 100.776,353.981 C108.081,362.83 114.837,372.071 120.995,381.77 C123.43,385.604 122.317,386.433 118.361,386.652 C114.395,386.871 110.459,387.636 106.51,388.162" fill="#F28FA4"/>
    <path d="M122.423,479.191 C122.367,486.25 121.702,487.322 115.095,488.462 C101.337,490.835 87.526,492.415 73.516,490.765 C64.484,489.702 61.952,488.158 56.838,479.036 C67.777,484.176 78.788,484.936 89.904,484.526 C100.952,484.118 112.06,483.799 122.423,479.191" fill="#EDA300"/>
    <path d="M64.448,386.465 C68.274,373.97 71.959,361.941 75.637,349.91 C75.917,348.994 76.171,347.356 77.199,347.915 C78.952,348.868 81.015,349.835 80.953,352.613 C80.814,358.923 80.911,365.238 80.912,371.55 C80.913,374.541 80.913,377.531 80.913,380.521 C80.912,387.808 80.91,387.851 73.802,387.419 C70.856,387.24 67.924,386.828 64.448,386.465" fill="#F28FA4"/>
    <path d="M112.92,258.713 C107.201,267.257 101.384,275.726 94.17,283.629 C90.921,274.596 87.851,266.019 83.552,257.008 C92.998,258.392 101.844,259.116 110.672,257.484 C111.908,257.003 112.938,256.899 112.92,258.713" fill="#F18FA4"/>
    <path d="M161.156,498.4 C159.295,497.912 156.123,499.681 155.076,497.287 C154.207,495.302 156.564,493.106 157.781,491.179 C164.194,481.024 172.79,479.385 182.151,486.45 C185.85,489.241 185.856,490.705 182.021,493.544 C176.654,497.517 170.236,497.706 163.971,498.388 C163.148,498.478 162.308,498.4 161.156,498.4" fill="#FDFDFD"/>
    <path d="M171.998,292.076 C170.945,297.538 169.154,301.766 166.252,305.427 C162.123,310.635 157.144,310.653 153.048,305.362 C148.684,299.724 147.016,292.995 145.632,285.139 C153.426,292.129 161.669,294.936 171.998,292.076" fill="#FCEACF"/>
    <path d="M64.534,337.067 C64.632,341.156 66.486,344.033 69.987,345.872 C70.682,346.237 71.828,347.069 71.737,347.405 C70.427,352.195 69.566,357.274 67.261,361.565 C65.88,364.137 61.755,364.266 58.613,364.372 C55.448,364.479 53.792,362.833 53.737,359.465 C53.623,352.54 58.674,341.72 64.534,337.067" fill="#F18FA4"/>
    <path d="M126.91,495.952 C134.115,499.533 140.962,501.742 148.364,501.794 C155.318,501.842 162.225,502.865 169.237,501.86 C174.758,501.069 180.015,500.012 184.628,496.705 C185.335,496.198 186.149,494.977 187.102,496.105 C187.533,496.615 187.533,497.693 187.389,498.45 C186.842,501.323 185.105,503.255 182.249,503.935 C167.394,507.471 152.458,509.262 137.465,504.917 C133.13,503.661 128.6,502.174 126.91,495.952" fill="#ECA300"/>
    <path d="M134.892,482.575 C142.881,482.515 148.542,488.104 148.818,495.637 C148.871,497.085 148.654,497.827 147.048,497.725 C141.019,497.341 135.238,496.134 130.29,492.42 C127.929,490.649 126,487.987 126.602,485.251 C127.216,482.466 130.782,483.535 132.975,482.712 C133.712,482.435 134.612,482.589 134.892,482.575" fill="#FDFDFD"/>
    <path d="M117.88,250.884 C100.46,257.793 76.496,254.193 73.128,243.842 C87.985,248.405 102.758,251.058 117.88,250.884" fill="#EF8EA2"/>
    <path d="M51.321,266.442 C53.198,284.046 54.353,301.611 57.489,318.945 C48.471,302.249 48.55,284.449 51.321,266.442" fill="#F9E6CB"/>
    <path d="M87.552,480.41 C82.541,480.882 77.654,480.341 72.79,479.609 C71.019,479.342 67.895,479.949 68.159,477.455 C68.466,474.557 69.505,471.001 73.434,470.504 C78.412,469.874 85.714,475.027 87.552,480.41" fill="#FCFCFB"/>
    <path d="M12.208,158.925 C11.339,153.909 12.862,150.069 13.013,146.123 C13.108,143.645 14.956,143.376 16.987,143.639 C20.583,144.106 24.182,144.542 28.66,145.101 C23.091,149.781 17.984,154.072 12.208,158.925" fill="#CF7A57"/>
    <path d="M119.972,449.479 C118.902,444.017 117.831,438.554 116.756,433.068 C122.321,432.363 124.792,434.944 125.669,439.828 C126.191,442.735 127.181,445.558 127.96,448.419 C125.771,452.344 122.909,451.19 119.972,449.479" fill="#FCFBFB"/>
    <path d="M53.511,343.888 C51.401,337.395 53.455,330.287 58.029,326.525 C58.794,325.896 59.958,324.862 60.354,326.193 C61.039,328.494 64.302,330.364 61.949,333.266 C60.595,334.936 58.944,336.365 57.596,338.038 C56.273,339.681 55.164,341.497 53.511,343.888" fill="#FAE7CD"/>
    <path d="M63.709,477.122 C56.333,474.271 54.401,467.513 59.008,462.022 C60.79,459.898 61.55,461.796 62.175,462.991 C64.453,467.342 63.707,472.059 63.709,477.122" fill="#FBFAFA"/>
    <path d="M121.614,344.788 C115.241,346.823 108.956,347.526 102.562,347.583 C101.316,347.594 100.03,347.162 99.929,345.858 C99.781,343.942 101.51,344.655 102.457,344.601 C107.231,344.325 111.985,343.959 116.644,342.793 C118.476,342.335 120.138,342.477 121.614,344.788" fill="#EB8B9E"/>
    <path d="M91.762,360.259 C87.498,359.64 83.865,359.178 84.855,353.87 C85.096,352.577 84.794,351.057 86.831,351.217 C88.31,351.333 89.725,351.369 90.026,353.462 C90.329,355.566 91.063,357.607 91.762,360.259" fill="#EA8B9D"/>
    <path d="M95.23,345.591 C90.255,348.049 86.315,347.692 82.363,346.387 C81.387,346.064 80.62,345.251 80.78,344.158 C81.006,342.612 82.228,343.265 83.098,343.384 C86.75,343.881 90.531,343.695 95.23,345.591" fill="#E58799"/>
    <path d="M185.51,233.799 C185.916,237.11 186.323,240.421 186.781,244.151 C181.818,241.083 183.694,237.368 184.083,233.89 C184.558,233.859 185.034,233.829 185.51,233.799" fill="#DD8392"/>
    <path d="M68.893,337.762 C71.652,339.349 73.962,340.677 76.451,342.109 C72.477,343.571 70.56,342.538 68.893,337.762" fill="#DA818F"/>
    <path d="M185.944,207.475 C188.052,210.566 185.486,214.482 187.723,217.55 C186.184,219.13 185.884,218.006 185.874,216.641 C185.851,213.586 185.915,210.53 185.944,207.475" fill="#9D5B5A"/>
    <path d="M190.709,231.651 C189.566,231.905 190.043,233.002 189.666,233.655 C188.509,232.088 188.85,230.334 188.78,228.36 C190.213,229.276 190.91,230.218 190.709,231.651" fill="#A7978D"/>
    <path d="M101.009,153.782 C99.584,154.896 97.968,155.417 95.95,155.598 C96.775,153.626 98.358,153.273 99.812,152.737 C100.211,153.085 100.61,153.434 101.009,153.782" fill="#765843"/>
    <path d="M112.92,258.713 C112.494,257.71 111.502,257.746 110.672,257.484 C111.616,256.696 112.835,256.083 113.794,256.901 C114.542,257.54 113.644,258.289 112.92,258.713" fill="#B4696E"/>
    <path d="M47.815,76.289 C45.583,75.182 43.548,74.404 41.78,73.223 C40.374,72.283 39.429,70.788 40.279,68.903 C41.063,67.164 42.318,66.442 44.299,66.905 C47.622,67.682 50.373,65.648 53.374,64.843 C54.226,64.614 54.939,64.037 54.759,63.075 C54.489,61.633 53.444,62.015 52.437,62.233 C48.405,63.106 44.424,64.544 40.207,62.986 C38.199,62.244 36.305,61.413 36.711,58.897 C37.169,56.065 39.245,56.984 41.012,57.397 C42.249,57.686 43.247,57.084 44.308,56.57 C58.238,49.83 72.449,43.737 86.825,38.016 C88.193,37.471 89.941,36.874 90.612,35.759 C93.257,31.362 96.231,32.75 99.293,34.924 C101.592,36.555 103.899,38.224 105.947,40.149 C108.875,42.901 111.886,45.073 109.141,50.503 C107.32,54.103 108.653,59.32 108.657,63.813 C108.661,68.96 109.114,74.159 105.961,78.935 C112.443,80.843 117.812,83.548 121.6,88.832 C123.691,91.749 124.501,94.683 121.864,97.377 C119.48,99.813 116.681,98.829 114.125,97.151 C108.962,93.761 103.494,90.956 97.724,88.751 C96.179,88.161 94.283,87.248 93.31,89.201 C92.442,90.942 94.471,91.734 95.522,92.587 C98.286,94.828 101.636,95.829 105.018,96.815 C108.798,97.916 112.371,99.646 112.705,104.23 C113.042,108.867 110.094,111.715 106.302,113.462 C92.659,119.748 79.084,118.468 65.853,112.229 C62.046,110.434 59.604,109.322 59.315,115.043 C59.235,116.62 58.402,118.279 57.541,119.67 C55.787,122.503 54.996,126.983 50.502,126.333 C45.776,125.65 41.807,123.199 39.564,118.555 C38.634,116.628 39.517,115.447 40.618,114.111 C42.754,111.52 44.426,108.639 45.409,105.421 C46.931,100.436 45.691,97.406 41.252,94.916 C34.789,91.292 34.678,90.2 39.866,85.068 C42.567,82.396 45.548,79.952 47.815,76.289" fill="#FEFEFE"/>
    <path d="M142.426,300.762 C136.741,305.997 130.052,306.441 123.814,307.38 C117.781,308.288 111.525,308.068 105.672,305.474 C101.38,303.572 98.497,300.792 98.827,295.531 C106.6,301.371 108.798,301.635 142.426,300.762" fill="#D67F92"/>
    <path d="M60.666,297.634 C65.809,298.579 70.925,299.713 76.1,300.417 C81.457,301.146 86.611,300.175 91.306,297.079 C91.778,302.698 87.994,306.581 81.181,306.451 C73.491,306.305 66.315,303.962 60.666,297.634" fill="#D67F92"/>
    <path d="M46.608,159.562 C43.813,156.945 44.454,151.902 39.937,150.291 C49.948,150.407 59.356,152.009 67.278,158.36 C69.827,160.404 71.455,163.075 69.988,166.662 C68.557,170.16 65.976,171.696 62.278,171.799 C57.271,171.939 53.053,170.167 50.204,166.15 C48.91,164.325 47.227,163.152 45.727,161.677 C44.8,160.464 46.812,160.475 46.608,159.562" fill="#532E13"/>
    <path d="M145.03,162.095 C147.623,162.599 150.395,159.3 151.829,161.874 C152.52,163.115 148.904,164.716 147.076,165.914 C145.615,166.872 144.517,167.898 144.187,169.699 C143.955,170.966 143.147,171.755 141.708,171.565 C140.277,171.376 139.635,170.433 139.809,169.135 C140.462,164.275 136.999,163.163 133.514,162.423 C122.719,160.131 112.052,161.202 101.504,164.083 C99.854,164.533 97.802,166.135 96.839,163.626 C95.808,160.942 98.335,160.214 100.177,159.712 C111.369,156.662 122.7,155.556 134.206,157.741 C138.542,158.564 141.932,156.923 144.389,153.484 C145.525,151.893 146.741,153.484 148.002,152.988 C149.087,152.561 148.835,154.511 148.521,155.225 C147.527,157.491 146.294,159.653 145.03,162.095" fill="#542F15"/>
    <path d="M46.608,159.562 C47.948,160.948 45.433,160.727 45.727,161.677 C44.401,161.322 43.58,160.403 42.865,159.253 C44.288,158.393 45.374,159.77 46.608,159.562" fill="#765843"/>
    <path d="M156.477,274.217 C154.603,273.383 150.466,274.938 150.568,272.277 C150.707,268.651 154.585,271.085 156.731,270.856 C160.219,270.483 163.675,270.317 166.855,268.645 C170.25,266.86 172.503,264.322 171.448,260.253 C170.408,256.243 167.614,254.157 163.395,254.171 C159.692,254.184 156.186,255.236 152.661,256.216 C151.461,256.55 149.998,257.359 149.312,255.457 C148.513,253.237 150.57,253.437 151.594,253.159 C154.953,252.247 158.34,251.297 161.779,250.851 C167.781,250.074 172.943,253.496 174.545,258.911 C176.111,264.207 173.59,268.935 167.858,271.826 C164.324,273.608 160.528,273.832 156.477,274.217" fill="#573318"/>
    <path d="M95.792,100.235 C84.549,105.594 73.854,106.04 62.949,101.502 C61.43,100.87 60.593,99.806 60.157,98.257 C59.892,97.318 59.37,96.454 59,95.541 C58.2,93.571 53.118,93.798 55.177,91.422 C58.109,88.041 59.133,81.66 65.844,82.534 C67.092,82.696 68.433,81.926 69.742,81.876 C76.379,81.627 82.861,81.897 86.275,89.049 C88.325,93.346 91.986,96.294 95.792,100.235" fill="#F290A5"/>
    <path d="M89.664,53.696 C89.604,57.52 90.065,61.219 83.778,59.618 C80.691,58.832 76.968,60.215 73.607,60.955 C71.354,61.451 70.033,60.84 69.456,58.741 C68.818,56.422 71.04,56.667 72.153,56.15 C76.343,54.202 80.65,52.508 84.837,50.555 C89.751,48.263 89.716,48.188 89.664,53.696" fill="#F291A6"/>
    <path d="M64.114,78.915 C64.425,76.53 65.468,75.547 67.364,75.195 C72.494,74.245 77.658,74.849 82.805,74.728 C83.633,74.709 84.599,74.838 84.324,76.054 C83.954,77.687 83.015,78.895 81.165,78.406 C75.525,76.917 69.996,78.918 64.114,78.915" fill="#F39BAE"/>
    <path d="M49.825,157.583 C48.549,156.78 47.274,155.977 45.542,154.887 C48.25,154.479 49.325,155.588 50.489,156.558 C50.268,156.9 50.046,157.241 49.825,157.583" fill="#F4E7D7"/>
    <path d="M63.794,90.245 C63.769,86.955 66.229,84.955 69.397,86.135 C70.934,86.707 71.875,87.235 73.231,85.845 C74.782,84.254 76.9,84.005 78.632,85.423 C80.559,87.001 81.175,89.162 80.171,91.67 C78.925,94.782 76.953,97.426 75.033,100.114 C74.558,100.779 74.187,101.43 73.096,101.217 C70.232,100.657 63.817,93.181 63.794,90.245" fill="#FAD9E6"/>
  </g>
</svg>