<?xml version="1.0" encoding="UTF-8" standalone="no"?>
<svg version="1.1" x="0" y="0" width="204" height="518" viewBox="0, 0, 204, 518" id="svg895" sodipodi:docname="Nurse_with_Needle2-0039350vuthtd.svg" inkscape:version="1.1.1 (c3084ef, 2021-09-22)" xmlns:inkscape="http://www.inkscape.org/namespaces/inkscape" xmlns:sodipodi="http://sodipodi.sourceforge.net/DTD/sodipodi-0.dtd" xmlns="http://www.w3.org/2000/svg" xmlns:svg="http://www.w3.org/2000/svg">
  <defs id="defs899"/>
  <sodipodi:namedview id="namedview897" pagecolor="#ffffff" bordercolor="#666666" borderopacity="1.0" inkscape:pageshadow="2" inkscape:pageopacity="0.0" inkscape:pagecheckerboard="0" showgrid="false" inkscape:zoom="3.2203122" inkscape:cx="102.47454" inkscape:cy="75.303258" inkscape:window-width="1745" inkscape:window-height="1027" inkscape:window-x="0" inkscape:window-y="25" inkscape:window-maximized="0" inkscape:current-layer="svg895"/>
  <g id="Black">
    <path d="m 135.993,38.218 c 2.463,4.009 4.065,8.378 5.534,12.822 1.735,4.573 3.009,9.275 3.616,14.134 0.079,2.949 -0.326,7.994 3.891,4.989 5.439,0.151 10.417,3.892 12.018,9.11 1.754,5.147 1.936,11.11 0.113,16.215 -2.435,4.183 -5.838,8.467 -10.718,9.825 -4.276,0.692 -7.958,2.934 -9.459,7.081 0.011,4.728 0.357,9.592 -1.379,14.137 -1.746,4.611 -5.237,8.483 -9.697,10.554 -5.718,0.801 -0.464,-6.345 -1.242,-9.435 -0.377,-4.447 -4.394,5.139 -6.698,6.116 -2.851,3.71 -6.772,6.443 -9.863,9.886 -0.116,3.444 -2.406,10.271 1.346,11.672 3.816,0.864 9.209,0.217 12.013,2.573 0.147,3.959 -5.799,10.183 0.327,11.441 -0.732,3.446 -0.814,6.447 3.33,7.607 4.265,3.073 8.969,5.422 13.286,8.486 5.464,1.703 6.534,7.902 8.679,12.415 1.296,4.165 3.004,8.111 4.092,12.359 0.655,2.21 1.928,8.623 3.648,3.253 2.663,-4.145 4.95,-8.663 7.301,-13.07 2.306,-4.247 3.516,-9.054 5.223,-13.522 -1.538,-4.119 -7.403,-5.56 -8.377,-10.326 -1.059,-3.72 -1.312,-7.613 -2.64,-11.264 -1.948,-3.508 2.011,-5.237 3.369,-6.152 -1.187,-4.515 -0.263,-11.497 5.745,-10.708 2.702,-6.866 4.728,-14.041 7.166,-21.022 2.831,-1.542 3.495,-4.121 4.983,-6.587 2.409,0.939 3.944,-6.969 4.656,-2.169 -1.844,3.121 2.862,4.615 0.277,7.939 -0.827,2.43 3.347,3.193 0.917,5.957 -1.723,6.094 -3.126,12.368 -5.065,18.338 1.22,2.229 4.26,3.456 3.269,6.969 1.731,1.994 4.584,3.585 3.881,6.843 5.09,3.644 -1.811,7.879 -0.212,11.896 0.542,4.152 -0.829,8.406 -3.445,11.669 -1.66,4.449 -3.248,9.054 -4.623,13.666 -1.768,5.923 -3.791,11.784 -5.813,17.63 -1.264,4.107 -2.357,8.332 -3.871,12.393 -2.177,5.341 -3.786,11.258 -8.235,15.17 -3.371,3.657 -8.991,9.341 -14.205,6.02 -3.634,-3.472 -5.075,-8.513 -6.852,-13.055 0.082,-3.746 -5.437,-1.072 -4.33,-5.742 -0.872,-4.345 -1.792,-8.634 -3.308,-12.802 -3.262,3.897 -5.374,8.92 -8.003,13.333 -2.569,3.927 -4.654,8.5 -1.914,12.866 -3.171,3.354 -5.815,7.578 -2.842,12.156 0.099,4.207 2.951,6.98 4.261,10.347 -1.945,5.705 3.131,9.733 3.809,15.254 1.678,4.885 2.803,9.951 4.685,14.747 1.293,5.774 3.679,11.222 5.787,16.723 1.595,4.525 3.202,9.023 5.134,13.451 2.01,4.615 3.999,9.324 5.899,13.971 2.499,4.438 3.783,9.422 6.218,13.916 2.019,4.839 3.171,10.007 5.416,14.783 2.294,3.824 3.387,7.475 -0.486,10.784 -3.085,3.424 -7.062,5.704 -11.099,7.798 -5.459,3.174 -10.989,6.78 -17.363,7.806 -5.745,-0.066 -11.264,1.833 -16.957,2.359 -2.71,3.054 4.177,7.319 4.711,10.998 2.8,6.887 2.005,14.557 2.852,21.793 0.393,6.441 1.471,12.837 2.972,19.117 1.022,4.679 2.557,9.216 3.45,13.948 1.094,4.928 2.75,9.708 3.505,14.705 3.16,3.585 3.755,8.94 4.334,13.7 2.088,3.992 2.043,9.288 -3.309,10.344 -5.135,2.374 -9.784,5.6 -14.765,8.376 -3.91,2.169 -8.519,1.968 -12.758,2.079 -3.279,-2.968 -5.023,-8.279 -3.022,-12.409 3.276,-3.39 4.561,-7.473 7.805,-10.856 4.836,-3.838 4.93,-9.919 3.8,-15.558 -0.943,-7.087 -3.236,-13.885 -4.777,-20.87 -1.448,-4.063 -3.096,-8.027 -4.4,-12.12 -1.424,-4.5 -2.356,-9.155 -4.023,-13.558 -1.542,-5.976 -3.013,-11.947 -4.963,-17.808 0.512,-4.553 -3.108007,-6.48645 -7.237,-5.555 -4.128993,0.93145 -7.853,0.429 -6.424,5.01 0.376,6.671 -0.772,13.272 -0.211,19.922 -0.232,4.455 -1.741,8.638 -2.074,13.062 -1.303,4.89 -1.974,9.899 -2.751,14.883 -0.868,7.542 -1.804,15.112 -2.973,22.636 -0.232,5.349 -1.848,11.014 0.651,16.073 0.238,4.294 0.088,9.215 -2.009,13.064 -5.56,2.247 -11.645,2.614 -17.529,3.608 -4.602,0.985 -9.305,1.55 -13.923,0.362 -4.243,-0.212 -3.001,-7.521 -1.815,-9.904 0.232,-3.308 2.333,-5.832 5.6,-6.095 1.019,-4.268 6.787,-5.128 9.888,-7.846 4.216,-1.503 5.258,-6.632 5.873,-10.64 1.022,-7.268 0.944,-14.61 1.309,-21.932 -0.188,-6.265 -0.603,-12.522 -0.532,-18.796 -0.616,-9.598 -0.387,-19.224 -0.893,-28.828 1.253,-4.845 -2.135,-7.136 -6.368,-8.198 -4.602,-3.3 -9.566,-6.1 -14.776,-8.312 -4.544,-1.734 -9.163,-3.781 -12.894,-6.918 -1.349,-4.439 0.652,-9.264 0.432,-13.862 0.832,-5.684 1.647,-11.297 2.906,-16.899 0.719,-4.728 1.321,-9.471 2.713,-14.067 1.152,-4.566 1.588,-9.284 2.704,-13.921 1.786,-4.953 2.421,-10.206 3.733,-15.278 1.177,-4.426 2.864,-8.787 3.997,-13.246 0.755,-5.654 3.724,-10.695 4.35,-16.316 2.236,-6.729 4.25,-13.527 5.709,-20.452 -3.321,-0.401 -7.902,3.656 -11.658,4.763 -3.873,1.801 -9.338,6.488 -12.817,1.443 -2.101,-3.981 -2.651,-10.776 -8.739,-9.857 -2.621,-1.176 -0.42,-4.54 -3.325,-5.566 -0.237,-2.856 -4.167,-3.1 -3.584,-6.458 -3.245,-1.106 -1.439,-6.285 -6.182,-4.995 -4.82,-1.849 -0.86,-6.555 2.09,-7.176 -1.97,-4.214 -4.255,-8.317 -6.328,-12.494 -0.772,-4.273 -5.76,-8.401 -4.31,-12.472 3.736,-3.036 7.738,-5.671 12.066,-7.931 4.56,-2.344 8.778,-5.391 13.476,-7.561 4.601,-2.638 9.001,-5.394 13.505,-8.26 4.77,-4.021 5.177,5.456 7.352,8.091 1.437,2.329 3.263,10.879 5.358,4.483 2.453,-4.375 4.494,-8.851 6.47,-13.456 2.212,-4.271 3.173,-9.35 6.267,-13.112 3.504,-2.756 8.319,-3.408 12.664,-3.082 3.796,0.163 1.478,-5.634 5.642,-5.542 0.637,-4.017 -1.203,-9.382 5.022,-8.978 2.281,0.629 5.272,-1.944 1.303,-1.248 -6.592,-0.906 -12.908,-3.054 -19.236,-4.95 -5.632,-1.483 -11.308,-3.51 -16.101,-6.896 -3.271,-1.454 -4.56,-6.779 -7.727,-7.301 -1.155,3.939 -1.849,8.228 -1.306,12.416 0.24,6.776 -6.288,-1.556 -5.707,-4.894 -1.805,-4.032 -0.365,-9.558 -3.112,-12.819 -3.954,-3.51 -6.517,-9.142 -5.078,-14.424 -2.535,-3.753 -5.837,-7.313 -7.686,-11.52 -2.539,-6.677 -3.617,-13.829 -3.588,-20.958 0.899,-7.625 1.742,-15.448 4.831,-22.563 1.867,-3.897 2.393,-7.175 -1.931,-9.491 -2.935,-3.515 -7.824,-6.311 -8.617,-10.991 3.445,-3.5 5.232,-8.658 8.795,-12.276 3.165,-3.937 6.832,-7.324 10.197,-11.071 4.398,-3.824 8.904,-7.487 14.097,-10.209 4.512,-2.537 8.964,-5.05 14.029,-6.437 6.702,-1.638 13.686,-0.923 20.48,-0.599 5.354,1.03 10.89,1.731 15.732,4.378 4.924,1.895 9.86,3.87 14.282,6.806 4.326,3.238 9.135,5.86 13.256,9.414 3.745,3.422 6.664,7.386 9.48,11.526 1.623,1.694 2.184,3.233 0.577,5.226 z" fill="#000000" id="path12888" sodipodi:nodetypes="cccccccccccccccccccccccccccccccccccccccccccccccccccccccccccccccccccccccccccczccccccccccccccccccccccccccccccccccccccccccccccccccccccccccccccccccccc"/>
    <path d="M188.87,113.209 C188.406,112.423 188.85,111.496 188.633,110.654 C188.694,109.883 188.819,109.107 188.979,108.354 C189.32,107.781 189.045,107.101 189.372,106.53 C189.713,105.972 189.673,105.282 190.058,104.745 C190.453,104.075 190.733,103.265 191.453,102.862 C192.04,102.698 192.615,102.534 193.03,102.088 C193.741,102.011 194.439,101.686 195.158,101.831 C195.906,101.904 196.612,102.166 197.08,102.788 C197.711,103.408 197.438,104.329 197.552,105.105 C197.509,105.989 196.928,106.731 196.78,107.594 C196.418,108.174 195.798,108.53 195.331,109.022 C194.717,109.521 194.171,110.127 193.412,110.413 C192.73,110.771 192.025,111.104 191.411,111.568 C190.863,111.951 190.269,112.316 189.808,112.789 C189.589,113.056 189.238,113.355 188.87,113.209 z" fill="#000000" id="path12890"/>
    <path d="M203.144,117.23 C202.186,117.983 200.999,118.395 199.801,118.557 C199.222,118.824 198.563,118.782 197.948,118.697 C197.563,118.653 197.18,118.59 196.793,118.574 C196.125,118.569 195.462,118.795 194.795,118.67 C194.618,118.638 194.45,118.55 194.266,118.567 C193.382,118.553 192.531,118.822 191.671,118.988 C191.428,119.009 191.236,119.182 191.007,119.248 C190.768,119.335 190.508,119.413 190.253,119.364 C190.093,119.312 190.045,119.109 190.109,118.966 C190.188,118.696 190.357,118.464 190.449,118.199 C190.698,117.601 190.851,116.97 191.081,116.366 C191.414,115.681 191.989,115.159 192.554,114.664 C192.88,114.359 193.261,114.123 193.628,113.872 C194.027,113.609 194.445,113.368 194.894,113.2 C195.643,113.112 196.363,112.879 197.078,112.65 C197.589,112.726 198.059,112.457 198.555,112.396 C198.833,112.362 199.115,112.434 199.355,112.574 C200.005,112.853 200.757,112.733 201.395,113.05 C201.568,113.158 201.782,113.154 201.963,113.243 C202.716,113.54 203.32,114.25 203.405,115.066 C203.439,115.512 203.394,115.96 203.335,116.402 C203.292,116.682 203.23,116.96 203.144,117.23 z" fill="#000000" id="path12892"/>
  </g>
  <g id="Fill">
    <path d="M195.304,103.56 C194.77,103.056 193.973,103.45 193.454,103.78 C192.803,104.102 192.054,104.399 191.724,105.101 C191.437,105.533 191.12,105.949 191.041,106.479 C190.702,107.218 190.617,108.038 190.353,108.802 C190.159,109.422 190.848,109.958 191.327,109.465 C191.833,109.426 192.018,108.955 192.415,108.721 C192.8,108.335 193.365,108.226 193.746,107.851 C194.245,107.238 194.878,106.758 195.416,106.181 C195.723,105.82 195.926,105.377 196.073,104.933 C196.146,104.475 195.825,103.551 195.304,103.56 z" fill="#A4D7D3" id="path824"/>
    <path d="m 201.335,115.019 c -0.60561,-0.29566 -1.23315,-0.68417 -1.93709,-0.58998 -0.45564,-0.13353 -0.90514,-0.18242 -1.34352,0.021 -0.34888,-0.01 -0.70152,-0.0301 -1.03419,0.0987 -0.33509,0.0889 -0.67067,0.17609 -1.00671,0.26137 -0.72863,-0.0935 -1.29419,0.45861 -1.89155,0.77255 -0.46585,0.19606 -0.63383,0.77285 -1.11907,0.93547 -0.31051,0.0906 -0.46574,0.70303 0.004,0.58704 0.41141,-0.19348 0.83272,-0.0789 1.25886,-0.0616 1.7141,-0.0445 3.42893,0.003 5.14329,-0.0194 0.57477,-0.52237 1.52295,-0.39703 2.00409,-1.05023 0.19292,-0.27967 0.27754,-0.77498 -0.0782,-0.95493 z" fill="#a4d7d3" id="path826"/>
    <path d="m 185.652,130.701 c -0.53388,0.054 -0.51975,-0.81598 -1.12865,-0.76345 -0.4469,-0.24828 -0.91456,-0.44406 -1.38635,-0.6154 -0.53373,-0.098 -0.99402,-0.35242 -1.54014,-0.43466 -0.52318,-0.0671 -0.92436,-0.38062 -1.44997,-0.42885 -0.45726,-0.3796 -1.11997,-0.16792 -1.61711,0.0358 -0.43314,0.21741 -0.38486,0.79116 -0.59848,1.17137 -0.21979,0.514 -0.33059,1.05569 -0.588,1.5527 -0.18438,0.51407 -0.35667,1.05019 -0.50945,1.56647 -0.0211,0.54063 -0.49246,0.9008 -0.4644,1.44591 -0.30028,0.49625 -0.28236,1.13009 -0.63475,1.60478 -0.17751,0.43817 -0.38127,0.87013 -0.34005,1.35468 -0.27173,0.46727 -0.22638,1.0786 -0.5826,1.585 0.0365,0.60364 -0.46316,1.07437 -0.43958,1.69033 -0.30468,0.50979 -0.39389,1.13266 -0.60309,1.70411 -0.0361,0.61648 -0.41076,1.30524 -0.57213,1.87962 -0.0747,0.67415 -0.43388,1.33477 -0.53256,2.00647 -0.16215,0.49433 -0.27948,0.926 -0.47424,1.416 -0.14913,0.45727 -0.37023,0.89998 -0.45505,1.39169 -0.14155,0.63435 -0.51171,1.21182 -0.55703,1.86601 0.0781,0.48629 0.56835,0.8445 0.42635,1.39686 0.0636,0.44805 -0.2688,0.97736 0.0761,1.35756 0.0735,0.15116 -0.27366,0.46919 0.0984,0.60766 0.22306,0.40457 -0.34254,1.11248 0.29981,1.29238 0.63368,-0.0519 0.95739,0.51693 1.56232,0.55776 0.43603,0.14118 0.94928,0.30221 1.41804,0.44053 0.43566,0.18591 0.84077,0.15726 1.25567,0.21037 0.2829,0.56611 1.02151,0.45795 1.53567,0.42761 0.32391,-0.28603 0.40875,-0.75795 0.70665,-1.07282 0.0863,-0.46361 0.19862,-0.91681 0.30739,-1.37625 0.0768,-0.49461 0.62006,-0.78921 0.54628,-1.32407 -0.2136,-0.56377 0.52883,-0.78048 0.49333,-1.26493 -0.16938,-0.35173 0.23248,-0.82496 0.1939,-1.24023 0.28887,-0.37983 0.21473,-1.13018 -0.40973,-0.93867 -0.54853,0.0674 -0.76623,-0.57416 -1.3344,-0.49508 -0.46463,-0.11947 -1.01552,-0.24415 -1.11916,-0.84769 -0.19437,-0.5315 0.11679,-1.2517 0.73263,-1.28284 0.57757,-0.13376 1.02573,0.27617 1.52096,0.48205 0.30474,0.39295 1.23015,0.64971 1.49521,0.0769 0.009,-0.61422 0.47438,-1.10705 0.45616,-1.72301 0.0601,-0.50102 -0.0574,-0.96734 -0.63849,-1.05783 -0.26387,-0.33851 -0.87719,-0.34619 -0.95925,-0.81439 -0.11516,-0.45767 -0.093,-1.12521 0.4929,-1.21376 0.51934,-0.0851 1.02656,-5e-5 1.50855,0.20392 0.62934,0.22855 0.62945,-0.60226 0.6133,-1.00351 0.25364,-0.39224 0.42456,-0.86054 0.40819,-1.34179 -0.18693,-0.55775 -1.14969,0.11261 -1.32703,-0.62197 -0.38799,-0.42491 -1.0262,-0.82876 -0.91495,-1.48959 -0.0371,-0.64069 0.63078,-0.90059 1.15794,-0.71815 0.47071,0.12536 0.73518,0.63673 1.28474,0.51777 0.27425,0.35307 0.66712,0.2559 0.7137,-0.22677 0.10255,-0.4149 0.6076,-0.88987 0.35483,-1.31772 -0.0936,-0.26648 0.59739,-0.85724 0.0962,-1.11642 -0.39061,-0.33273 -0.90644,-0.21238 -1.31208,-0.44192 -0.44668,-0.07 -0.80273,-0.34426 -1.20895,-0.51857 -0.35362,-0.22456 -0.66154,-0.54865 -0.85784,-0.92164 -0.1753,-0.37881 -0.29905,-0.93547 0.18946,-1.1456 0.42195,-0.0383 0.82019,-0.44156 1.25074,-0.23552 0.3565,0.28205 0.667,0.61011 1.08082,0.81233 0.34806,0.3893 0.84864,0.38515 1.2985,0.51794 0.566,-0.087 0.61858,-0.81177 0.7527,-1.25953 0.11871,-0.56867 0.49266,-1.09721 0.42909,-1.69613 -0.13086,0.0548 -0.17631,-0.13734 -0.201,-0.2238 z" fill="#f4fafb" id="path828"/>
    <path d="m 177.209,159.451 c -0.34073,-0.27617 -0.42414,-0.90918 -0.98671,-0.81296 -0.56843,-0.16325 -1.02444,-0.61349 -1.62443,-0.68349 -0.51312,-0.19342 -1.05272,-0.32803 -1.52292,-0.61792 -0.39146,-0.16268 -1.0157,-0.25361 -1.26682,0.17737 -0.19516,0.49297 0.30271,0.94719 0.77614,0.95394 0.4408,0.0813 0.77106,0.41243 1.14566,0.63644 0.41404,0.20087 0.89294,0.23788 1.30486,0.45822 0.42578,0.10894 0.8271,0.29527 1.21975,0.51324 0.28082,0.33237 1.06515,0.29898 0.96441,-0.26571 -0.0107,-0.1191 -0.0329,-0.23999 -0.01,-0.35913 z" fill="#f4fafb" id="path830"/>
    <path d="m 173.188,161.06 c 0.10493,0.37933 -0.21794,0.70527 -0.20042,1.08165 -0.15747,0.22564 -0.27862,0.45797 -0.37118,0.71782 -0.0647,0.29357 -0.33491,0.21515 -0.49986,0.076 -0.29978,0.10559 -0.59046,0.18464 -0.91409,0.13392 -0.45749,-0.003 -0.55805,0.58633 -0.17716,0.79319 0.33135,0.28101 0.82286,0.21983 1.15249,0.50219 0.14932,0.22906 0.58013,0.006 0.73127,0.30973 0.34076,-0.0187 0.52954,0.36158 0.87095,0.37722 0.26765,0.17334 0.50503,0.38734 0.84956,0.44606 0.33169,-0.10813 0.59922,0.0648 0.88722,0.20372 0.47094,0.0248 0.32972,-0.72386 -0.0119,-0.81279 -0.3435,0.0403 -0.64207,-0.086 -0.79625,-0.40073 -0.29046,0.0294 -0.43991,-0.2424 -0.65532,-0.43369 -0.14166,-0.37468 -0.42973,-0.78493 -0.23333,-1.19524 0.17274,-0.3218 0.18655,-0.67792 0.34799,-0.99454 0.031,-0.30826 0.14833,-0.82976 -0.29616,-0.87748 -0.23586,-0.0569 -0.46332,-0.23473 -0.58485,0.0742 l -0.0435,0.0119 -0.0555,-0.0131 z" fill="#f4fafb" id="path832"/>
    <path d="m 185.05,123.463 c -0.35361,0.0887 -0.6814,-0.14482 -0.99498,-0.27136 -0.29768,-0.18183 -0.61308,-0.36314 -0.97515,-0.34197 -0.376,-0.0565 -0.88039,0.0565 -0.83724,0.53708 -0.0349,0.25761 -0.23749,0.36963 -0.1954,0.6349 -0.16172,0.29637 -0.25679,0.61967 -0.40879,0.91842 -0.28765,0.24687 -0.14502,0.61872 -0.36651,0.91427 -0.18558,0.33067 0.0523,0.64256 0.21702,0.91558 0.0805,0.14196 0.34834,0.17115 0.49675,0.31066 0.31943,-0.0973 0.54392,0.18731 0.84093,0.2309 0.35854,-0.1748 0.63261,0.31852 1.00166,0.18648 0.29187,-0.0754 0.60545,-0.39317 0.63364,-0.67408 -0.10524,-0.36868 0.22012,-0.57663 0.23824,-0.91436 0.13268,-0.35836 0.19616,-0.7351 0.30878,-1.09995 -0.01,-0.3675 0.27916,-0.65845 0.27284,-1.0115 -0.007,-0.15996 -0.30151,-0.17457 -0.23179,-0.33507 z" fill="#f4fafb" id="path834"/>
    <path d="M89.551,35.203 C88.124,33.695 86.347,32.562 84.558,31.537 C82.613,30.578 80.399,30.586 78.295,30.284 C75.617,29.938 72.917,29.813 70.23,29.565 C68.97,29.62 67.703,29.368 66.446,29.633 C64.105,29.971 61.788,30.542 59.551,31.294 C56.678,32.924 53.52,33.947 50.557,35.387 C49.083,36.006 47.713,36.871 46.589,38.01 C45.088,39.166 43.381,40.042 42.034,41.39 C40.252,42.775 38.858,44.569 37.13,46.015 C35.507,47.441 33.787,48.951 33.08,51.065 C32.327,52.478 31.267,53.703 30.567,55.148 C29.838,56.528 29.395,58.042 28.695,59.431 C28.13,61.255 27.352,63.011 26.883,64.863 C26.35,66.429 26.138,68.091 25.546,69.638 C25.192,71.533 24.698,73.411 24.365,75.302 C24.168,76.963 23.69,78.581 23.684,80.266 C23.504,82.09 23.273,83.906 23.348,85.743 C23.384,87.198 23.268,88.674 23.617,90.091 C23.525,91.5 23.824,92.848 23.956,94.232 C24.342,96.721 25.179,99.113 25.83,101.541 C26.72,104.594 28.068,107.506 29.676,110.243 C30.879,111.458 31.992,112.791 33.205,114.009 C34.489,115.255 35.919,116.324 37.295,117.458 C38.718,118.939 40.63,119.739 42.42,120.67 C43.026,121.176 45.205,121.708 44.208,120.316 C43.127,118.448 42.743,116.252 41.884,114.276 C41.09,112.228 40.59,110.07 40.319,107.897 C39.968,106.536 39.619,105.176 39.471,103.777 C38.888,102.164 39.532,100.559 39.164,98.935 C38.972,96.745 39.139,94.549 39.225,92.357 C39.183,89.68 39.436,87.005 39.801,84.352 C39.4,82.948 40.015,81.513 39.906,80.087 C40.039,78.42 40.007,76.695 40.66,75.131 C40.968,73.811 40.885,72.427 41.124,71.102 C41,68.393 41.815,65.764 42.17,63.099 C42.018,61.829 43.336,59.856 44.534,61.276 C44.948,62.335 44.137,63.386 44.055,64.457 C43.615,66.474 43.499,68.541 43.092,70.564 C42.993,72.11 43.199,73.665 42.894,75.205 C42.724,78.642 43.185,82.073 43.354,85.504 C43.653,87.11 43.906,88.725 44.207,90.33 C44.302,91.316 44.651,94.024 45.743,92.225 C46.788,91.118 47.975,90.151 49.037,89.066 C49.791,87.723 50.15,86.194 50.813,84.809 C51.234,83.468 51.731,82.134 52.494,80.95 C53.089,79.528 54.164,78.367 54.814,76.976 C55.87,75.562 56.275,73.762 57.426,72.41 C58.126,70.761 59.244,69.334 59.942,67.683 C60.593,66.219 62.269,65.262 62.298,63.545 C62.104,62.48 63.035,59.997 64.19,61.611 C64.705,63.164 63.945,64.875 64.034,66.551 C63.739,69.22 63.605,71.903 63.145,74.552 C62.937,76.712 62.395,78.823 62.091,80.972 C61.87,82.317 61.459,83.632 61.233,84.968 C61.311,86.245 60.334,87.797 60.696,88.835 C61.914,89.638 63.675,89.939 64.301,88.321 C65.737,86.587 66.73,84.524 68.311,82.898 C69.518,81.878 70.1,80.457 70.899,79.14 C72.188,77.315 73.215,75.333 74.337,73.407 C75.454,71.777 75.917,69.784 77.126,68.209 C77.69,66.985 77.528,65.07 78.943,64.467 C80.629,64.562 79.966,66.865 79.606,67.86 C79.297,69.448 78.729,70.975 78.5,72.58 C78.17,73.829 77.736,75.065 77.575,76.347 C76.749,78.605 76.189,80.955 75.351,83.209 C74.809,83.641 74.87,84.99 75.57,83.995 C76.443,82.727 77.598,81.691 78.572,80.49 C79.688,79.159 80.741,77.775 81.499,76.197 C82.363,74.178 83.4,72.22 84.053,70.116 C84.511,68.793 85.232,67.591 85.675,66.263 C86.319,64.885 86.782,63.434 87.501,62.094 C88.135,60.529 88.284,58.851 88.945,57.297 C89.392,55.296 89.751,53.278 90.14,51.263 C90.856,49.499 90.376,47.417 91.414,45.768 C92.529,44.566 92.814,46.859 93.776,47.031 C95.401,48.037 96.391,49.73 97.797,50.975 C98.878,52.293 100.199,53.435 100.911,55.019 C101.797,56.641 102.611,58.291 103.478,59.923 C104.04,61.505 105.199,62.81 105.792,64.412 C106.769,66.867 107.026,69.537 107.842,72.043 C108.526,73.448 108.468,75.534 109.957,76.361 C111.579,76.263 112.505,78.704 110.97,79.499 C110.338,79.455 109.476,79.426 109.796,80.442 C110.107,82.381 110.574,84.301 110.472,86.284 C110.492,87.925 111.486,85.923 111.608,85.339 C112.635,83.24 112.834,80.848 113.489,78.624 C113.78,76.895 114.294,75.211 114.538,73.475 C114.69,72.076 114.661,70.665 114.996,69.29 C115.32,67.638 115.053,65.964 114.815,64.324 C114.739,62.637 117.012,63.404 116.868,64.766 C117.187,66.041 117.081,67.366 117.477,68.605 C118.022,69.737 118.867,70.745 119.058,72.022 C119.612,73.753 120.425,75.432 120.568,77.261 C120.947,78.643 121.574,79.97 121.59,81.43 C121.958,83.258 122.659,85.004 122.891,86.863 C123.207,88.289 123.359,89.734 123.367,91.192 C123.416,92.893 124.074,94.499 124.067,96.206 C124.132,97.627 124.45,99.017 124.416,100.446 C124.824,101.67 124.08,102.932 124.515,104.023 C125.322,103.581 125.937,102.666 126.432,101.856 C127.228,100.241 128.167,98.701 128.977,97.095 C129.326,95.935 129.647,94.788 130.056,93.639 C130.576,91.838 131.06,90.03 131.571,88.227 C131.7,86.057 132.169,83.923 132.509,81.779 C132.621,80.475 132.664,79.151 132.823,77.863 C132.58,76.209 132.9,74.521 132.557,72.877 C132.461,70.679 132.011,68.526 131.596,66.375 C131.143,64.554 130.573,62.765 130.105,60.949 C129.476,59.761 129.413,58.409 128.769,57.226 C127.822,55.499 127.525,53.513 126.629,51.759 C126.004,50.495 125.091,49.385 124.734,47.98 C124.238,46.648 123.145,45.664 122.571,44.356 C121.833,42.892 120.708,41.706 119.64,40.475 C118.54,39.228 117.403,37.993 116.154,36.897 C114.895,35.911 113.563,34.928 112.055,34.383 C110.481,34.131 109.137,33.088 107.528,32.988 C105.631,32.479 103.705,32.024 101.766,31.746 C100.338,31.896 98.905,32.02 97.507,32.341 C96.079,32.62 94.559,32.805 93.339,33.667 C92.044,33.849 91.514,35.433 90.228,35.6 C89.952,35.587 89.721,35.406 89.551,35.203 z" fill="#846042" id="path836"/>
    <path d="M84.174,54.623 C82.269,54.677 80.29,54.396 78.402,54.693 C76.876,54.933 75.522,55.686 73.946,55.611 C72.644,55.549 71.42,55.109 70.093,55.098 C68.172,55.082 66.29,55.3 64.367,55.077 C62.656,54.879 61.096,54.189 59.375,54.185 C56.594,54.179 54.154,55.356 51.325,55.062 C48.979,54.818 46.99,53.851 44.616,53.838 C42.24,53.826 39.417,53.938 37.173,52.985 C36.742,52.801 32.868,49.803 33.104,49.589 C30.648,51.818 28.99,54.231 28.532,57.493 C28.304,59.123 27.84,60.425 27.147,61.929 C27,62.247 25.123,66.202 25.45,66.207 C26.351,66.222 27.303,66.292 28.15,66.643 C30.529,65.66 30.999,67.274 32.649,68.454 C34.017,69.431 36.174,70.459 37.836,70.171 C39.933,69.808 41.537,67.872 43.675,67.632 C45.748,67.398 47.585,68.672 49.615,68.752 C51.218,68.815 52.316,68.155 53.69,67.486 C56.528,66.102 59.428,67.12 62.414,66.709 C63.567,66.55 64.346,65.806 65.34,65.47 C67.034,64.898 69.186,65.388 70.856,65.784 C73.296,66.361 75.366,67.332 77.915,66.672 C79.83,66.177 81.46,64.861 83.482,64.654 C84.369,64.565 85.58,65.367 86.219,65.018 C86.835,64.683 86.893,63.651 87.127,63.067 C88.436,59.785 89.41,56.107 89.916,52.6 C88.232,54.102 86.535,54.555 84.174,54.623" fill="#B69171" id="path838"/>
    <path d="M124.734,47.98 C125.086,51.714 119.006,50.822 116.74,51.011 C114.828,51.17 113.385,51.961 111.406,51.956 C108.576,51.947 108.275,53.035 105.946,54.001 C103.515,55.011 102.279,53.16 99.86,53.368 L100.644,54.936 C101.543,56.671 102.449,58.387 103.478,59.923 C104.892,62.033 104.83,61.852 107.169,61.391 C108.93,61.042 110.585,61.67 112.311,61.524 C113.967,61.384 114.522,60.037 115.941,59.632 C119.416,58.641 122.582,60.953 126.167,60.457 C127.466,60.278 129.056,61.27 130.105,60.949 C129.484,59.205 128.906,57.407 128.169,55.599 C127.259,53.367 125.88,49.744 124.734,47.98 z" fill="#B69171" id="path840"/>
    <path d="M135.189,69.783 C136.113,68.315 136.935,66.786 137.907,65.349 C138.69,63.762 139.393,62.135 140.115,60.52 C140.668,59.152 141.443,57.737 140.784,56.263 C139.747,52.85 138.425,49.53 137.332,46.134 C136.402,44.516 135.764,42.733 134.736,41.175 C133.45,40.378 132.893,42.466 132.22,43.182 C131.264,44.843 130.05,46.319 128.824,47.784 C127.697,48.932 128.974,50.323 129.3,51.531 C130.302,54.54 131.633,57.431 132.558,60.467 C132.694,62.031 133.489,63.452 133.852,64.962 C134.44,66.417 134.463,68.011 134.892,69.502 L135.016,69.679 z" fill="#846042" id="path842"/>
    <path d="M141.623,62.144 C141.263,63.573 140.251,64.709 139.735,66.073 C139.464,66.692 139.091,67.262 138.721,67.818 C138.633,68.269 138.448,68.68 138.132,69.013 C137.629,69.784 137.15,70.568 136.683,71.359 C136.373,71.717 136.195,72.428 135.59,72.318 C134.974,72.2 135.231,73.132 135.193,73.511 C135.195,74.748 135.184,75.985 135.188,77.222 C135.917,77.27 136.308,76.536 136.614,75.992 C136.886,75.457 137.414,75.134 137.746,74.654 C138.079,74.116 138.393,73.561 138.803,73.079 C139.076,72.492 139.407,71.94 139.781,71.415 C140.129,70.892 140.468,70.356 140.601,69.734 C140.84,69.198 141.083,68.678 141.315,68.136 C141.925,67.321 142.184,66.31 142.4,65.33 C142.587,64.651 142.425,63.973 142.276,63.314 C142.3,62.859 142.274,62.083 141.623,62.144 z" fill="#846042" id="path844"/>
    <path d="M142.227,71.392 C141.599,71.95 141.192,72.733 141.031,73.553 C140.433,73.977 140.246,74.715 139.876,75.301 C139.262,76.063 138.432,76.694 138.124,77.662 C137.939,78.272 137.289,78.504 136.912,78.972 C136.509,79.354 136.252,79.852 135.932,80.295 C135.355,80.657 134.73,81.119 134.936,81.888 C134.902,82.568 134.698,83.223 134.576,83.89 C135.245,84.47 135.596,83.136 136.203,82.97 C136.834,82.51 137.215,81.811 137.877,81.398 C138.454,80.798 138.721,79.958 139.422,79.464 C139.992,78.854 140.496,78.199 140.994,77.525 C141.704,77.116 141.762,76.257 142.27,75.675 C142.846,75.259 143.492,74.608 143.219,73.828 C143.001,72.73 143.374,71.504 142.736,70.506 C142.578,70.801 142.146,71.005 142.227,71.392 z" fill="#846042" id="path846"/>
    <path d="M158.512,79.634 C157.996,78.74 157.643,77.736 156.92,76.977 C156.188,75.915 155.279,74.956 154.224,74.214 C153.244,73.842 152.301,73.355 151.332,72.997 C150.393,72.935 149.472,72.605 148.534,72.65 C147.6,72.801 146.866,73.452 146.147,74.017 C145.536,74.942 145.978,76.095 145.845,77.123 C145.851,78.538 145.856,79.953 145.819,81.368 C145.039,81.971 146.214,83.13 146.715,82.157 C147.634,81.608 148.574,81.085 149.521,80.588 C150.834,79.958 152.298,79.664 153.753,79.78 C154.898,79.813 156.057,79.655 157.181,79.955 C157.534,79.963 158.551,80.233 158.512,79.634 z" fill="#846042" id="path848"/>
    <path d="M143.03,78.227 C142.188,79.051 141.816,80.269 140.833,80.965 C139.594,82.231 138.688,83.829 137.211,84.855 C136.354,85.538 135.578,86.345 134.591,86.847 C133.941,87.378 134.039,88.291 133.889,89.033 C133.62,90.187 132.963,91.226 132.832,92.417 C132.747,93.027 132.226,93.512 132.276,94.152 C132.707,94.572 132.986,93.715 133.313,93.514 C133.788,93.038 134.344,92.635 134.968,92.379 C135.885,91.577 137.155,91.478 138.308,91.327 C139.021,91.29 139.785,91.757 140.456,91.333 C140.925,90.941 141.077,90.299 141.283,89.747 C141.539,88.823 142.055,87.994 142.24,87.048 C142.487,86.025 142.558,84.97 142.816,83.948 C143.063,82.82 143.189,81.669 143.222,80.515 C143.273,79.72 143.321,78.915 143.185,78.125 C143.118,78.045 142.967,78.135 143.03,78.227 z" fill="#846042" id="path850"/>
    <path d="M158.914,82.047 C157.45,81.666 155.902,81.454 154.403,81.751 C153.436,81.693 152.519,82.075 151.567,82.165 C150.679,82.444 149.815,82.811 148.954,83.159 C148.226,83.621 147.667,84.3 146.927,84.753 C146.186,85.398 145.387,86.014 144.811,86.821 C144.254,87.581 144.5,88.601 144.014,89.388 C143.81,89.697 143.589,90.624 144.19,90.004 C144.841,89.628 145.531,89.289 145.98,88.659 C146.859,87.859 148.008,87.455 148.957,86.752 C149.835,86.298 150.812,86.075 151.663,85.577 C152.581,85.338 153.538,85.559 154.456,85.283 C155.361,85.097 156.278,85.304 157.167,85.015 C157.964,84.857 158.789,85.5 159.542,85.151 C159.902,84.491 159.357,83.639 159.441,82.892 C159.382,82.566 159.27,82.16 158.914,82.047 z" fill="#846042" id="path852"/>
    <path d="M159.114,87.074 C157.959,86.721 156.745,86.967 155.565,86.983 C154.501,87.098 153.487,87.498 152.414,87.554 C151.378,87.74 150.494,88.36 149.578,88.839 C148.514,89.421 147.562,90.184 146.667,90.996 C146.13,91.885 144.893,92.021 144.412,92.957 C144.014,93.703 144.361,94.595 144.82,95.229 C145.094,95.588 145.401,96.052 145.911,96.034 C146.523,96.049 147.006,95.605 147.578,95.458 C148.548,95.183 149.566,95.133 150.569,95.097 C151.197,95.096 151.828,95.046 152.453,95.092 C153.535,95.229 154.545,95.693 155.468,96.254 C155.906,96.71 156.307,97.308 156.973,97.429 C157.5,97.43 157.691,96.856 157.93,96.486 C158.626,95.358 159.253,94.133 159.359,92.79 C159.504,91.884 159.736,90.993 159.83,90.078 C159.92,89.371 160.048,88.657 160.021,87.945 C159.926,87.512 159.568,87.121 159.114,87.074 z" fill="#846042" id="path854"/>
    <path d="M59.995,91.698 C59.65,92.269 59.474,93.348 59.232,94.069 C59.88,93.757 60.146,92.985 60.848,92.349 C62.068,91.837 60.461,91.187 59.995,91.386 C59.995,91.49 59.995,91.594 59.995,91.698 z" fill="#846042" id="path856"/>
    <path d="M47.53,93.306 C47.245,94.059 46.563,94.192 46.316,95.007 C45.242,95.287 46.159,96.395 46.293,97.005 C46.469,97.993 47.27,98.464 47.53,97.436 C47.427,96.63 47.699,96.056 47.824,95.309 C47.728,94.659 48.803,92.987 47.53,93.306 z" fill="#846042" id="path858"/>
    <path d="M154.893,99.337 C154.326,98.61 153.77,97.788 152.833,97.514 C151.964,97.185 151.012,97.062 150.101,97.277 C148.762,97.51 147.247,97.37 146.091,98.211 C145.379,98.882 146.182,99.813 145.999,100.609 C145.867,101.547 145.796,102.509 145.553,103.422 C145.143,104.429 146.633,104.685 147.121,103.982 C147.919,103.578 148.818,103.369 149.708,103.366 C150.587,103.221 151.355,102.729 152.177,102.417 C153.324,101.819 154.166,100.811 155.027,99.875 C155.111,99.693 155.052,99.459 154.893,99.337 z" fill="#846042" id="path860"/>
    <path d="M130.967,98.534 C129.801,100.218 129.188,102.269 127.722,103.745 C127.24,104.647 127.85,105.622 127.873,106.558 C128.012,108.594 128.82,110.502 129.226,112.486 C129.376,113.506 129.574,114.517 129.845,115.512 C130.368,117.928 130.624,120.391 130.928,122.841 C131.149,125.082 131.193,127.372 130.681,129.579 C130.529,130.151 130.576,130.763 130.416,131.323 C130.164,132.053 129.921,132.883 130.202,133.637 C130.523,134.122 131.174,133.872 131.505,133.535 C133.157,132.278 134.516,130.665 135.661,128.942 C136.59,127.488 137.305,125.897 137.764,124.233 C137.694,122.963 138.325,121.798 138.457,120.551 C138.79,118.816 138.65,117.042 138.715,115.287 C138.353,112.869 137.846,110.44 136.808,108.212 C136.505,106.728 135.444,105.545 135.069,104.086 C134.172,102.54 133.673,100.756 132.477,99.392 C132.222,98.984 131.261,97.805 130.967,98.534 z" fill="#846042" id="path862"/>
    <path d="M45.922,132.913 C45.802,132.398 45.476,132.282 45.117,131.706 C44.99,131.092 44.91,130.516 44.313,130.098 C43.973,129.358 43.444,128.782 43.308,128.087 C43.117,127.276 42.059,125.874 41.498,127.284 C40.937,127.896 41.29,128.876 40.895,129.696 C40.374,130.958 40.945,132.55 40.694,133.717 C40.669,134.909 41.018,135.384 40.894,136.89 C40.845,138.305 41.477,139.385 41.493,140.699 C41.68,141.855 41.66,142.922 42.201,143.972 C42.432,144.899 42.518,146.013 43.107,146.986 C42.967,148.025 44.119,148.215 43.71,146.986 C43.347,146.189 43.859,145.743 43.71,144.894 C43.886,144.11 43.955,143.213 44.016,141.948 C44.238,140.864 44.177,140.547 44.313,139.657 C44.324,139.01 44.505,138.608 44.72,138.044 C44.873,137.033 44.952,135.866 45.492,134.947 C45.573,134.182 46.218,133.945 46.123,133.114 C46.157,132.998 46.04,132.86 45.922,132.913 z" fill="#846042" id="path864"/>
    <path d="M133.782,36.006 C132.239,31.992 129.237,28.981 126.517,25.856 C123.798,22.48 120.225,19.995 116.378,18.05 C113.994,15.59 110.941,14.143 108.297,12.243 C104.733,10.344 101.13,9.115 97.45,7.549 C94.582,6.363 91.591,5.509 88.79,4.616 C84.61,4.025 80.641,2.626 76.383,2.833 C73.334,2.829 70.283,2.693 67.386,3.453 C64.05,3.37 60.988,4.849 57.808,5.633 C54.783,6.932 51.639,8.55 48.859,10.253 C45.482,12.223 42.001,14.382 39.085,17.006 C35.742,19.499 32.94,22.909 30.015,25.825 C26.541,29.578 22.877,33.288 20.418,37.842 C18.632,40.447 17.203,44.115 20.911,46.144 C23.836,48.034 25.724,53.17 29.349,52.915 C31.31,49.557 32.9,46.116 36.261,43.678 C39.206,41.092 41.623,38.177 45.108,36.309 C47.03,34.389 49.885,33.309 52.079,32.314 C55.559,30.486 59.142,28.413 63.002,27.548 C66.171,26.427 69.512,26.939 72.841,27.052 C76.192,27.316 79.197,27.704 82.401,28.152 C84.845,28.517 87.565,29.973 89.425,31.754 C92.321,33.14 93.658,29.441 96.364,29.945 C99.884,29.028 103.628,29.157 106.905,30.176 C110.197,30.763 113.594,32.467 116.661,34.234 C119.511,36.449 122.604,38.935 124.333,42.038 C125.46,44.351 127.168,48.264 128.695,43.998 C130.273,41.36 132.943,38.828 133.782,36.006 z" fill="#F7D1D3" id="path866"/>
    <path d="M13.955,208.105 C14.437,209.694 15.255,211.161 15.629,212.786 C15.976,214.234 17.197,215.693 18.838,215.335 C20.076,215.102 21.128,214.344 22.308,213.924 C23.744,213.291 25.156,212.611 26.601,212.007 C28.305,211.034 29.976,210.003 31.704,209.07 C33.007,208.497 33.753,206.897 33.056,205.589 C32.462,203.921 31.838,202.251 31.183,200.6 C30.561,199.802 30.788,197.353 29.187,198.194 C28.268,199.106 29.025,200.458 29.268,201.508 C29.679,202.883 30.356,204.184 30.643,205.591 C30.594,206.911 29.241,207.582 28.34,208.327 C26.713,209.456 24.8,210.074 23.133,211.125 C21.833,211.556 20.65,212.235 19.404,212.775 C18.12,213.173 17.964,211.567 17.522,210.767 C17.028,209.538 16.281,208.406 16.022,207.096 C15.853,205.55 14.07,206.093 13.578,207.083 C13.392,207.463 13.575,207.929 13.955,208.105 z" fill="#B4B8AC" id="path868"/>
    <path d="M37.88,199.863 C34.196,199.802 33.283,204.02 35.466,206.342 C35.657,209.793 31.849,211.145 29.373,212.558 C25.931,214.315 22.487,216.1 19.027,217.804 C15.543,219.116 14.862,214.011 12.186,214.01 C9.108,215.561 11.35,219.009 12.386,221.163 C14.356,225.043 16.118,229.057 18.33,232.796 C20.254,234.844 21.457,237.359 23.567,239.218 C25.223,242.062 25.864,245.357 28.234,247.889 C31.146,251.938 33.648,256.266 36.286,260.499 C37.045,264.495 41.728,262.2 44.051,261.154 C47.442,259.835 50.709,258.258 53.771,256.318 C57.809,254.47 62.114,253.132 65.915,250.808 C69.322,248.568 65.039,245.537 64.207,243.108 C60.78,236.73 56.776,230.683 53.149,224.421 C49.486,218.617 46.208,212.566 42.331,206.909 C40.89,204.658 40.129,201.837 38.16,200.005 L38.009,199.928 z" fill="#F4FAFB" id="path870"/>
    <path d="M27.827,205.492 C27.12,205.799 26.487,206.258 25.789,206.563 C25.061,206.777 24.416,207.197 23.695,207.419 C23.024,207.503 22.488,207.898 21.932,208.242 C21.39,208.542 20.814,208.773 20.264,209.057 C19.663,208.963 18.984,209.866 19.831,210.072 C20.49,210.095 20.926,209.437 21.578,209.376 C22.271,209.143 22.886,208.737 23.49,208.34 C24.17,208.048 24.803,207.669 25.402,207.24 C25.971,206.887 26.576,206.555 27.244,206.446 C27.528,206.319 28.767,205.509 27.827,205.492 z" fill="#F4FAFB" id="path872"/>
    <path d="M76.079,249.12 C72.083,241.951 67.064,235.435 62.695,228.507 C58.895,222.3 54.949,216.165 51.659,209.668 C49.045,205.945 47.194,201.759 45.31,197.658 C44.172,195.233 42.929,188.758 39.299,192.242 C37.335,194.231 32.565,194.55 32.607,197.795 C33.998,200.978 36.773,196.418 39.105,197.049 C41.399,198 41.692,201.207 43.071,203.143 C44.938,206.468 47.316,209.515 49.033,212.944 C52.037,217.992 55.172,222.981 58.127,228.064 C60.897,232.389 63.623,236.749 65.868,241.371 C67.509,244.157 69.421,246.77 71.097,249.533 C71.07,252.475 66.559,251.93 65.123,254.165 C61.839,255.842 58.337,257.02 54.955,258.418 C50.698,261.237 46.057,263.453 41.212,265.068 C38.713,267.126 34.833,266.016 34.294,262.666 C33.335,260.818 31.768,256.668 30.117,256.84 C29.09,259.628 29.59,262.438 31.169,264.883 C32.533,267.121 33.234,271.238 36.508,271.137 C38.863,270.702 40.683,268.952 42.913,268.14 C47.899,265.722 52.822,263.19 57.921,261.011 C63.062,258.666 68.138,256.122 72.906,253.081 C73.827,251.956 77.537,250.878 76.079,249.12 z" fill="#738B94" id="path874"/>
    <path d="M26.219,199.863 C25.575,200.098 24.981,200.453 24.336,200.687 C23.826,200.954 23.378,201.332 22.84,201.545 C22.301,201.843 21.835,202.254 21.296,202.552 C20.724,202.932 20.172,203.361 19.526,203.609 C18.936,203.894 18.459,204.361 17.878,204.661 C17.76,204.811 17.741,205.019 17.808,205.194 C17.918,205.513 18.173,205.776 18.211,206.121 C18.215,206.271 18.288,206.411 18.37,206.534 C18.566,206.819 18.929,207.002 19.275,206.927 C19.731,206.816 20.095,206.502 20.466,206.234 C20.57,206.159 20.679,206.093 20.774,206.008 C21.153,205.724 21.671,205.72 22.034,205.41 C22.382,205.094 22.845,204.963 23.283,204.826 C23.463,204.77 23.643,204.711 23.816,204.636 C24.221,204.592 24.557,204.341 24.902,204.146 C25.122,204.021 25.36,203.917 25.614,203.897 C25.971,203.841 26.265,203.609 26.521,203.37 C26.625,203.274 26.727,203.176 26.833,203.083 C27.029,203.006 27.194,202.837 27.229,202.624 C27.281,202.32 27.175,202.019 27.093,201.73 C27.073,201.652 27.039,201.575 27.049,201.493 C27.045,201.14 26.809,200.856 26.679,200.544 C26.634,200.427 26.589,200.298 26.601,200.172 C26.647,200.037 26.638,199.853 26.509,199.767 C26.404,199.708 26.289,199.788 26.219,199.863 z" fill="#738B94" id="path876"/>
    <path d="M12.346,210.718 C12.189,209.903 11.607,208.608 10.69,208.668 C9.712,208.829 9.175,209.728 8.391,210.208 C7.253,210.687 6.33,211.526 5.294,212.182 C4.592,212.908 3.212,213.489 3.397,214.689 C3.752,215.647 4.488,216.472 4.531,217.534 C5.002,218.458 5.471,219.369 5.956,220.271 C6.557,221.607 6.922,223.057 7.832,224.237 C8.694,225.553 9.266,227.02 9.806,228.488 C10.38,229.208 10.837,230 11.203,230.851 C12.282,232.82 13.516,234.706 14.42,236.768 C14.914,237.678 15.454,238.577 15.941,239.506 C16.422,240.533 17.779,240.683 18.35,239.664 C19.261,239.46 19.942,238.594 19.02,237.857 C17.803,236.505 16.82,234.969 15.781,233.48 C14.902,232.281 14.675,230.757 13.848,229.531 C13.671,228.405 13.023,227.528 12.543,226.559 C12.274,225.433 11.596,224.507 10.948,223.577 C10.271,222.85 10.358,221.774 9.682,221.044 C9.302,219.969 9.024,218.832 8.483,217.799 C8.134,216.687 7.111,215.56 7.623,214.349 C8.748,213.3 10.237,212.756 11.506,211.905 C11.807,211.631 13.129,211.179 12.346,210.718 z" fill="#738B94" id="path878"/>
    <path d="M12.547,240.072 C11.045,239.72 10.375,240.741 9.335,241.886 C10.102,243.104 11.415,242.66 12.834,242.948 C15.652,243.36 14.268,241.663 13.352,240.072 C13.084,240.072 12.815,240.072 12.547,240.072 z" fill="#F8D2BB" id="path880"/>
    <path d="M21.997,240.876 C20.381,240.187 19.086,241.422 18.216,242.574 C17.36,243.493 15.433,245.648 16.614,246.908 C17.665,247.195 17.917,245.582 18.88,245.299 C19.975,244.006 21.035,243.017 22.398,241.68 C22.44,241.332 22.25,241.038 21.997,240.876 z" fill="#F8D2BB" id="path882"/>
    <path d="M22.398,245.501 C20.967,245.847 20.058,247.505 19.343,248.677 C17.7,249.85 18.796,252.672 20.79,251.531 C21.953,250.795 22.047,249.613 22.801,248.718 C23.08,247.713 24.327,246.005 22.398,245.501 z" fill="#F8D2BB" id="path884"/>
    <path d="M26.419,250.527 C25.096,249.237 23.914,250.435 23.203,251.531 C22.809,252.545 21.119,254.208 22.286,254.963 C23.454,255.583 24.959,255.215 25.415,254.146 C25.722,253.487 27.444,251.457 26.419,250.527 z" fill="#F8D2BB" id="path886"/>
    <path d="M27.827,255.553 C26.471,256.135 25.144,258.064 23.806,258.369 C23.407,261.204 27.803,260.091 27.625,257.766 C27.87,257.11 28.697,256.13 27.827,255.553 z" fill="#F8D2BB" id="path888"/>
    <path d="M167.357,151.008 C165.451,151.438 165.691,153.934 165.721,155.927 C165.921,157.773 165.547,160.072 167.655,161.415 C170.414,160.99 169.091,157.515 169.167,155.228 C169.332,154.33 169.435,150.832 167.357,151.008 z" fill="#F8D2BB" id="path890"/>
    <path d="M182.638,154.625 C180.865,153.813 180.836,156.524 180.023,157.038 C179.617,158.645 178.954,160.062 178.593,161.823 C179.004,164.864 181.659,162.627 182.436,161.26 C182.888,160.011 183.693,159.301 183.643,157.659 C183.706,156.422 183.692,155.266 182.638,154.625 z" fill="#F8D2BB" id="path892"/>
    <path d="M171.78,160.256 C171.5,161.255 172.577,160.217 171.78,160.256 z" fill="#F8D2BB" id="path894"/>
    <path d="m 182.436,165.282 c -1.45,1.365 -0.083,4.033 1.517,3.225 1.061,-0.805 1.701,-2.298 2.303,-3.225 1.113,-0.843 0.48659,-4.69408 -1.04491,-3.78808 -1.5315,0.906 -1.74609,2.52608 -2.77509,3.78808 z" fill="#f8d2bb" id="path896" sodipodi:nodetypes="ccccc"/>
    <path d="M175.801,162.066 C174.414,164.538 179.036,163.875 175.801,162.066 z" fill="#F8D2BB" id="path898"/>
    <path d="M188.065,167.493 C187.087,168.975 184.563,170.107 185.652,171.915 C187.311,172.042 188.016,171.268 188.619,170.264 C189.298,169.012 189.483,166.735 188.065,167.339 z" fill="#F8D2BB" id="path900"/>
    <path d="M116.09,158.848 C116.281,160.082 115.849,161.283 115.587,162.47 C115.44,164.087 114.76,165.61 114.686,167.235 C114.718,168.323 114.277,169.403 114.499,170.485 C114.689,171.164 115.369,171.52 116.015,171.643 C116.523,171.909 116.956,172.33 117.535,172.475 C118.316,172.738 119.214,173.154 119.427,174.032 C119.617,174.674 119.799,175.324 119.779,176.001 C119.815,176.799 119.766,177.722 120.327,178.36 C120.695,178.648 121.066,178.906 121.411,179.222 C122.118,179.694 123.009,179.899 123.567,180.581 C125.347,181.614 126.651,183.311 128.517,184.215 C129.838,185.163 131.528,185.466 132.771,186.543 C134.239,187.663 136.034,188.201 137.632,189.09 C138.201,189.374 139.022,189.459 139.443,188.88 C139.818,188.283 139.957,187.479 139.879,186.806 C139.379,186.081 138.295,186.118 137.803,185.386 C136.589,184.885 135.623,183.972 134.559,183.233 C133.394,182.489 132.195,181.797 131.031,181.054 C130.115,180.327 129.111,179.682 127.993,179.315 C126.636,178.236 124.821,177.968 123.484,176.854 C122.958,176.455 122.462,175.847 122.569,175.144 C122.535,174.304 122.761,173.492 122.983,172.69 C123.126,172.061 123.264,171.261 122.753,170.758 C122.331,170.542 121.817,170.594 121.354,170.509 C120.667,170.438 119.842,170.197 119.612,169.459 C119.338,168.958 119.662,168.496 119.862,168.043 C120.414,166.811 120.854,165.531 121.169,164.219 C121.499,163.174 122.098,162.21 122.214,161.102 C122.396,160.717 122.81,160.373 122.671,159.897 C122.484,159.277 121.771,159.101 121.225,158.927 C120.635,158.79 120.042,158.632 119.434,158.633 C118.478,158.524 117.538,158.106 116.564,158.241 C116.253,158.264 116.035,158.541 116.09,158.848 z" fill="#F7D1D3" id="path902"/>
    <path d="M155.295,218.359 C154.981,216.914 154.01,215.738 153.846,214.178 C153.103,212.708 152.655,210.933 152.078,209.311 C151.476,208.042 151.665,206.155 150.827,205.138 C150.25,203.804 149.845,202.277 149.244,200.937 C149.15,199.301 148.207,197.177 147.454,196.043 C146.84,194.753 146.528,193.357 145.665,192.1 C145.15,190.718 144.518,190.21 143.835,189.408 C142.592,187.934 141.238,188.027 140.778,190.372 C140.495,191.723 139.678,192.751 139.412,194.233 C138.673,195.289 138.683,196.809 138.004,198.117 C137.407,199.734 137.327,200.734 137,202.073 C135.619,203.845 136.657,206.601 135.793,208.105 C136.428,210.019 135.15,212.793 135.691,215.091 C136.197,216.776 136.216,218.458 136.437,220.128 C136.988,221.219 137.671,222.304 137.603,223.788 C138.285,225.216 138.742,226.608 139.211,228.074 C139.077,229.802 139.979,230.806 140.016,232.433 C140.204,234.87 141.174,235.567 143.633,234.04 C144.902,233.766 145.577,232.964 146.98,232.834 C148.734,233.557 148.222,231.809 149.022,230.984 C149.2,229.442 149.859,228.416 150.269,227.205 C150.906,226.041 151.872,224.193 152.882,222.782 C153.471,221.605 154.316,220.591 154.852,219.525 C154.927,219.247 156.033,218.698 155.295,218.359 z" fill="#F7D1D3" id="path904"/>
    <path d="M117.297,258.369 C116.319,258.887 114.751,259.042 113.678,259.573 C112.299,260.24 110.884,260.44 109.496,261.022 C108.213,261.788 105.962,261.212 105.233,262.72 C105.148,264.5 105.734,265.855 105.635,267.617 C106.423,269.084 108.398,268.7 110.183,268.621 C111.411,268.139 113.113,268.376 114.295,268.134 C115.953,267.576 117.195,267.127 118.904,266.812 C121.027,266.663 120.442,264.8 120.111,262.992 C119.083,261.79 119.841,258.92 117.893,258.36 z" fill="#F7D1D3" id="path906"/>
    <path d="M64.82,260.779 C62.843,260.826 61.952,261.828 60.453,262.444 C58.422,262.829 57.986,263.825 57.892,265.613 C56.963,267.949 59.939,267.386 60.892,267.825 C63.106,268.211 64.779,267.721 64.418,265.404 C64.532,264.042 65.502,261.948 64.82,260.779 z" fill="#F7D1D3" id="path908"/>
    <path d="M108.555,157.533 C102.227,157.631 95.844,157.933 89.638,159.003 C84.396,160.793 88.877,167.808 83.648,169.693 C83.458,175.306 77.441,173.595 73.347,173.934 C68.17,174.237 64.902,178.879 63.786,183.523 C60.889,191.287 56.507,198.43 53.395,206.047 C53.906,210.89 57.596,215.318 60.284,219.061 C61.025,214.291 58.907,208.702 62.139,204.427 C64.183,200.198 67.724,196.269 68.021,191.464 C69.012,188.763 64.873,181.323 69,181.991 C70.778,186.346 71.731,192.76 68.995,197.243 C66.224,201.958 61.984,206.689 62.836,212.586 C63.176,217.858 61.59,223.776 65.331,228.252 C70.037,234.536 74.183,241.264 78.521,247.802 C81.078,252.028 75.21,254.154 72.452,256.029 C67.314,257.1 66.722,262.481 66.458,266.879 C66.131,273.561 56.164,265.8 56.046,273.058 C54.904,279.523 52.545,285.818 50.923,292.216 C47.541,303.198 44.57,314.322 42.054,325.542 C39.227,333.996 38.619,342.979 36.339,351.576 C34.654,362.316 32.216,372.969 31.623,383.862 C30.425,388.953 36.989,390.352 40.328,392.281 C48.083,394.895 54.712,399.763 61.889,403.535 C71.307,407.548 81.821,406.522 91.676,405.07 C96.989,404.647 102.102,402.92 107.269,401.776 C116.783,398.846 126.664,397.318 136.519,396.146 C142.956,394.397 148.172,389.934 154.175,387.175 C157.708,385.007 164.644,381.392 161.798,376.402 C158.802,368.886 156.635,361.071 153.056,353.796 C148.177,341.963 142.541,330.43 138.438,318.289 C133.621,307.409 131.248,295.698 127.102,284.581 C125.921,280.703 122.356,277.489 123.444,273.117 C125.574,267.215 118.263,268.194 115.158,270.28 C109.896,271.728 114.888,277.996 116.327,280.824 C117.89,285.371 113.601,283.554 113.292,280.468 C110.38,277.12 111.524,269.876 105.341,271.203 C102.63,269.373 101.209,262.083 103.958,260.142 C109.602,259.439 108.532,252.189 110.44,248.141 C111.127,246.243 111.812,239.384 114.266,242.13 C113.39,247.33 110.419,252.624 110.749,257.745 C116.378,258.864 117.889,253.709 119.903,249.649 C123.283,246.691 118.585,241.245 122.584,237.766 C125.281,231.316 129.291,225.522 132.675,219.473 C134.177,213.832 132.673,207.759 134.545,202.134 C134.473,198.523 138.239,194.857 136.717,191.584 C133.454,189.244 129.468,188.124 126.206,185.737 C122.066,182.374 116.726,180.422 116.4,174.405 C110.746,173.614 111.936,167.524 113.329,163.507 C115.142,159.52 113.087,156.473 108.555,157.533 z M107.215,161.471 C113.136,161.039 111.399,170.612 105.882,168.23 C102.928,166.824 103.754,161.506 107.215,161.471 z M107.496,163.465 C102.552,166.042 113.364,167.292 107.496,163.465 z M112.811,177.805 C119.075,177.568 116.33,188.198 111.07,183.936 C109.173,182.129 110.403,178.474 112.811,177.805 z M113.137,180.107 C110.201,182.442 117.187,183.343 113.699,180.285 C113.512,180.226 113.324,180.166 113.137,180.107 z M122.84,187.176 C128.616,187.284 126.178,197.001 120.991,194.054 C118.279,192.168 119.529,187.393 122.84,187.176 z M122.926,189.408 C119.178,191.583 127.005,193.346 123.378,189.494 z" fill="#F7D1D3" id="path910"/>
    <path d="M134.185,487.162 C132.99,487.254 132.086,488.234 131.169,488.569 C130.342,489.255 129.404,490.258 128.596,490.821 C127.893,491.708 127.589,492.304 126.694,493.344 C125.915,494.13 125.871,495.161 125.338,496.01 C123.834,497.419 122.776,495.286 122.122,494.601 C121.483,493.955 120.044,493.66 119.307,492.993 C118.232,492.852 117.331,491.3 116.542,492.64 C115.928,493.581 115.103,494.14 114.482,495.004 C113.827,495.774 111.21,497.725 113.405,498.241 C114.672,499.084 115.702,499.267 116.939,500.183 C118.194,500.873 119.415,502.264 120.312,503.448 C120.443,505.045 122.764,504.774 123.711,504.232 C124.734,503.769 128.226,503.774 126.946,501.437 C127.959,500.617 128.278,498.6 128.592,497.249 C128.806,495.241 129.575,494.039 130.565,492.993 C131.413,491.981 132.422,491.281 133.458,489.955 C134.88,489.583 135.005,488.674 134.185,487.162 z" fill="#F7D1D3" id="path912"/>
    <path d="M64.016,503.648 C62.325,503.816 62.819,501.488 62.408,500.433 C61.337,498.709 60.447,496.356 58.724,495.204 C57.073,495.473 56.446,496.223 54.869,497.014 C53.684,498.405 51.075,498.903 51.599,500.484 C51.946,501.674 52.506,502.537 52.958,503.648 C53.489,505.018 53.871,505.699 54.567,506.865 C54.513,509.514 56.121,508.126 57.783,507.871 C59.281,506.891 62.102,507.557 64.016,506.462 C64.699,505.854 65.669,506.289 66.429,505.256 C67.287,504.899 68.074,503.841 69.404,503.606 C70.571,502.951 71.463,502.515 72.863,502.04 C73.835,501.715 76.018,501.471 74.673,500.23 C73.967,499.269 72.576,500.215 71.456,500.029 C70.284,500.751 69.123,501.044 67.84,501.541 C66.5,501.876 64.88,503.401 64.016,503.648 z" fill="#F7D1D3" id="path914"/>
    <path d="M137,500.433 C135.833,500.882 135.385,501.723 134.024,502.081 C132.46,503.317 130.547,503.286 129.359,504.654 C128.522,505.168 127.132,505.585 126.143,506.262 C124.554,506.355 122.805,507.811 121.115,507.469 C119.68,508.241 118.967,508.817 117.698,509.478 C116.624,509.82 115.783,510.471 114.68,510.985 C113.117,511.347 112.842,511.827 111.004,511.892 C109.816,512.197 108.827,512.486 107.647,511.892 C107.911,513.006 108.679,513.574 109.922,514.104 C112.016,513.992 114.39,514.342 116.291,513.903 C117.128,513.823 118.394,512.855 119.709,512.696 C120.641,512.29 121.841,511.602 122.878,511.033 C124.084,510.398 125.113,509.775 125.941,508.875 C127.545,507.924 128.934,507.038 130.967,506.062 C132.334,504.681 134.019,505.03 135.189,503.85 C136.514,503.584 137.147,502.788 137.803,502.04 C138.296,502.069 137.815,499.027 137,500.433 z" fill="#F7D1D3" id="path916"/>
    <path d="M74.271,508.475 C71.605,508.419 68.951,508.761 66.326,509.196 C66.122,509.209 65.914,509.311 65.715,509.248 C64.776,509.033 63.811,509.252 62.888,509.444 C62.091,509.61 61.297,509.844 60.477,509.857 C59.319,510.294 58.026,510.225 56.894,510.749 C56.586,510.868 56.338,511.1 56.018,511.188 C54.133,511.886 52.132,512.282 50.119,512.293 C49.602,512.315 49.087,512.403 48.567,512.393 C47.561,512.397 46.49,512.183 45.721,511.49 C45.172,511.26 44.674,510.925 44.13,510.684 C43.785,510.487 43.593,510.9 43.636,511.191 C43.617,511.617 43.69,512.043 43.702,512.466 C43.628,512.913 43.657,513.463 44.064,513.749 C44.574,514.086 45.211,514.056 45.793,514.143 C46.187,514.195 46.597,514.268 46.927,514.504 C48.685,514.978 50.531,514.822 52.309,514.561 C53.645,514.367 54.974,514.118 56.32,514.009 C58.202,513.559 60.123,513.294 62.046,513.097 C63.274,513.081 64.532,512.992 65.668,512.487 C65.894,512.398 66.101,512.237 66.356,512.314 C67.735,512.403 69.062,511.954 70.395,511.676 C71.008,511.551 71.634,511.473 72.261,511.49 C72.872,510.897 73.738,510.615 74.274,509.936 C74.576,509.582 74.599,509.059 74.376,508.66 C74.344,508.597 74.309,508.535 74.271,508.475 z" fill="#F7D1D3" id="path918"/>
    <path d="M131.169,501.035 C132.619,500.239 134.162,499.126 135.189,498.421 C136.443,497.49 136.272,495.595 136.206,493.97 C136.555,492.063 134.825,491.603 134.139,492.947 C133.08,493.339 132.468,494.3 131.686,495.62 C131.268,497.018 130.777,498.402 130.565,499.829 C130.281,499.985 129.956,502.013 131.169,501.035 z" fill="#F8D2BB" id="path920"/>
    <path d="M118.301,505.659 C118.23,505.112 117.963,504.608 117.604,504.195 C117.247,503.767 116.796,503.424 116.469,502.971 C116.367,502.868 116.355,502.686 116.234,502.614 C115.576,502.267 114.979,501.812 114.298,501.507 C113.986,501.364 113.658,501.251 113.319,501.191 C112.913,500.882 112.393,500.698 111.881,500.777 C111.257,500.869 110.73,501.275 110.335,501.747 C109.783,502.403 109.214,503.049 108.577,503.624 C108.408,503.775 108.233,503.92 108.048,504.052 C107.865,504.676 107.552,505.251 107.327,505.86 C107.107,506.441 106.938,507.074 107.059,507.697 C107.128,508.039 107.276,508.373 107.517,508.629 C107.924,509.049 108.511,509.236 109.079,509.296 C109.788,509.366 110.515,509.272 111.178,509.01 C111.276,508.97 111.373,508.925 111.466,508.875 C112.356,508.932 113.242,508.723 114.065,508.394 C114.944,508.054 115.771,507.578 116.683,507.321 C116.804,507.294 116.912,507.28 116.963,507.157 C117.175,506.978 117.444,506.888 117.691,506.77 C117.982,506.633 118.297,506.515 118.529,506.284 C118.627,506.19 118.667,506.03 118.584,505.914 C118.515,505.805 118.408,505.727 118.301,505.659 z" fill="#F8D2BB" id="path922"/>
    <path d="M52.354,508.271 C51.693,507.211 51.303,506.137 50.796,505.012 C50.62,503.159 49.227,501.967 47.329,503.246 C46.347,503.694 44.972,504.891 45.479,506.221 C45.126,507.146 45.711,509.091 47.087,509.118 C48.43,509.951 51.609,510.012 52.354,508.784 C52.354,508.613 52.354,508.442 52.354,508.271 z" fill="#F8D2BB" id="path924"/>
    <path d="M74.069,504.052 C72.712,504.432 71.24,504.986 69.916,505.527 C67.248,506.745 70.467,505.923 71.593,505.859 C73.023,505.923 75.251,506.082 74.874,504.452 C74.816,503.944 74.448,504.045 74.069,504.052 z" fill="#F8D2BB" id="path926"/>
    <path d="M112.672,403.123 C110.664,403.721 108.62,404.197 106.642,404.879 C104.76,405.485 102.804,405.699 100.872,405.968 C98.55,406.645 100.656,409.122 100.233,410.761 C100.549,412.297 101.014,413.772 101.356,415.315 C102.221,418.133 103.284,420.906 103.808,423.812 C104.224,425.731 104.577,427.661 105.305,429.491 C106.176,432.028 106.969,434.59 107.667,437.178 C108.304,438.817 108.328,440.599 109.071,442.198 C109.981,444.757 110.606,447.435 111.922,449.827 C112.752,451.849 113.336,453.973 113.968,456.056 C114.357,457.601 114.775,459.141 115.17,460.677 C116.146,463.557 116.371,466.636 117.537,469.455 C117.922,471.058 118.497,472.598 118.59,474.267 C118.968,476.555 119.18,478.882 119.571,481.176 C119.954,483.389 119.547,485.632 119.583,487.858 C118.33,489.665 120.912,490.596 121.992,491.576 C122.961,492.858 124.661,492.547 125.291,491.117 C127.016,489.29 128.556,487.169 130.878,486.05 C132.001,485.53 133.054,484.866 132.283,483.479 C131.686,478.309 129.603,473.47 128.663,468.37 C127.702,465.894 127.372,463.258 126.798,460.682 C125.97,458.638 125.446,456.501 125.209,454.306 C124.486,452.221 124.396,449.984 123.789,447.864 C123.393,445.966 123.467,444.012 122.96,442.13 C122.879,440.372 122.497,438.681 122.344,436.924 C122.294,434.743 122.108,432.572 121.923,430.402 C122.005,428.172 121.676,425.968 121.362,423.77 C121.354,422.177 121.048,420.567 120.977,419.005 C120.334,416.805 120.069,414.44 118.752,412.499 C117.181,409.456 115.227,406.629 113.645,403.594 C113.421,403.297 113.053,403.086 112.672,403.123 z" fill="#F8D2BB" id="path928"/>
    <path d="M81.71,409.155 C78.576,409.201 75.436,409.212 72.312,408.97 C70.328,409.175 68.364,408.435 66.519,408.119 C65.474,409.327 65.76,411.194 65.75,412.705 C65.981,415.026 66.13,417.351 66.1,419.683 C66.059,421.765 66.304,423.835 66.367,425.91 C66.263,427.928 66.249,429.947 66.421,431.96 C66.383,434.138 66.274,436.343 66.662,438.49 C66.525,441.042 66.984,443.604 66.63,446.148 C67.5,449.025 66.621,452.072 67.264,454.983 C67.36,457.493 66.993,460.008 67.281,462.511 C67.053,467.624 66.733,472.731 66.693,477.851 C66.705,480.355 65.865,482.773 65.852,485.28 C65.035,487.3 64.737,489.537 63.357,491.293 C61.786,492.762 61.692,494.828 63.127,496.428 C63.962,497.606 64.308,500.558 66.338,499.484 C67.526,498.657 68.968,498.548 70.339,498.241 C71.483,497.633 73.606,497.819 73.806,496.197 C73.251,491.475 74.107,486.739 74.617,482.052 C75.049,479.237 75.59,476.439 75.76,473.589 C76.043,470.531 76.741,467.531 76.981,464.467 C77.825,459.435 78.145,454.294 79.554,449.37 C80.645,446.009 80.214,442.329 81.537,439.029 C81.571,437.273 81.919,435.54 81.979,433.773 C82.122,431.825 82.043,429.868 81.956,427.927 C82.157,424.852 82.451,421.774 82.435,418.693 C82.2,417.217 82.71,415.734 82.588,414.236 C82.387,412.733 82.928,410.942 82.145,409.647 L81.9,409.422 z" fill="#F8D2BB" id="path930"/>
    <path d="M178.817,178.953 C178.547,177.197 178.123,176.112 177.294,174.748 C177.033,172.52 174.761,172.735 173.791,171.715 C172.568,171.302 171.712,170.48 170.373,169.905 C168.451,169.891 168.559,167.631 167.961,166.286 C166.791,165.503 166.646,164.331 165.75,163.873 C165.298,163.172 164.595,161.738 163.538,162.266 C161.804,162.741 162.925,164.664 163.135,166.132 C163.81,167.387 164.021,168.986 164.164,170.452 C164.278,172.057 165.02,173.252 164.945,174.932 C165.826,176.166 165.9,177.471 167.156,178.753 C168.37,179.776 169.52,180.698 170.514,181.728 C171.336,182.47 172.87,183.294 173.39,184.582 C173.536,186.262 173.462,187.855 172.827,189.247 C172.185,190.702 171.833,191.849 171.379,193.319 C171.224,194.513 170.306,195.316 170.373,196.582 C169.584,197.904 168.952,199.583 168.362,200.666 C167.959,201.856 167.358,202.379 166.754,203.482 C166.303,204.409 166.097,205.389 165.508,206.255 C164.992,207.545 164.462,209.143 163.336,210.115 C162.84,211.838 161.324,213.273 160.63,214.949 C159.884,216.12 159.173,217.63 158.512,218.359 C157.982,219.775 157.188,220.115 156.397,221.571 C155.402,222.997 155.397,223.494 154.471,224.682 C153.699,226.198 153.176,226.716 152.48,228.211 C151.879,229.588 151.519,231.003 151.072,232.433 C150.517,233.576 150.15,235.098 150.067,236.654 C149.103,237.876 150.098,240.767 148.258,241.279 C146.247,241.013 146.982,238.876 147.257,237.56 C147.918,235.136 147.212,234.973 145.041,236.05 C143.395,237.084 144.858,239.63 144.84,241.079 C145.343,242.197 145.869,244.36 146.649,245.299 C147.005,246.69 147.786,247.046 148.258,248.315 C149.121,249.229 149.904,250.773 151.334,251.321 C153.136,252.231 154.818,251.309 155.696,250.527 C156.487,249.974 157.76,249.629 158.109,248.718 C159.219,248.121 159.57,247.38 160.32,246.908 C160.807,246.091 161.675,245.763 162.131,244.696 C163.314,244.236 163.801,242.392 164.929,241.363 C165.266,240.308 165.808,239.446 166.353,238.665 C166.585,237.198 167.306,236.406 167.559,235.046 C168.076,234.21 168.462,232.903 168.806,231.669 C169.327,230.814 169.834,229.53 170.172,228.411 C170.53,226.671 171.199,225.323 171.646,223.658 C172.117,222.695 172.369,221.67 172.566,220.556 C173.016,219.104 173.554,217.859 173.992,216.55 C174.206,215.01 175.254,213.971 175.199,212.528 C175.638,211.347 176.156,209.548 176.606,208.306 C176.933,207.087 177.621,205.949 178.014,204.688 C178.342,203.169 179.378,201.684 179.492,199.922 C180.117,198.32 180.804,196.846 181.23,195.238 C181.412,194.347 182.527,192.937 182.234,192.022 C181.956,190.294 182.968,188.147 183.844,187.196 C184.418,185.753 185.071,184.891 185.713,183.636 C186.426,182.005 187.088,179.701 186.584,177.895 C186.962,176.613 186.401,175.238 186.056,173.927 C184.316,173.848 182.952,172.467 182.234,170.912 C180.761,170.45 179.571,169.71 179.621,168.16 C179.523,166.673 179.782,165.868 178.014,165.282 C176.905,165.394 177.234,168.648 175.353,167.543 C174.228,166.957 172.969,166.73 171.89,166.267 C169.661,165.904 171.371,168.098 172.386,168.194 C173.881,168.592 174.373,169.891 175.842,170.317 C177.246,170.52 177.617,171.298 178.416,172.118 C179.254,172.405 179.677,173.905 180.225,174.731 C180.347,176.369 181.961,177.721 180.627,179.154 C180.063,179.492 179.283,179.472 178.817,178.953 z" fill="#F8D2BB" id="path934"/>
    <path d="M140.617,108.787 C141.322,107.496 142.176,106.293 142.413,105.059 C142.77,103.827 143.48,102.726 143.434,101.301 C143.445,99.528 142.887,98.16 142.528,96.523 C142.089,95.378 140.304,94.433 139.412,93.909 C138.24,93.903 137.081,93.308 136.144,94.26 C135.264,94.958 133.283,96.448 134.494,97.72 C135.103,99.205 136.346,100.117 136.683,101.764 C137.351,103.012 137.96,103.949 138.205,105.167 C138.867,106.073 139.425,107.11 139.646,108.352 C139.396,109.44 140.218,108.809 140.617,108.787 z" fill="#F8D2BB" id="path936"/>
    <path d="M34.06,118.638 C33.952,120.418 34.136,122.066 34.461,123.463 C35.161,124.278 35.572,126.341 36.632,127.324 C37.258,128.104 37.506,129.243 38.684,129.495 C38.602,127.975 39.439,127.022 39.689,125.583 C40.059,124.458 41.532,122.868 39.84,122.508 C39.16,121.788 38.128,121.626 37.527,120.8 C36.402,120.083 35.527,119.028 34.261,118.437 L34.22,118.598 z" fill="#F8D2BB" id="path938"/>
    <path d="M58.387,87.476 C58.637,86.252 58.992,84.493 59.323,82.984 C59.745,81.687 59.896,80.209 60.397,78.738 C60.389,77.258 60.752,76.195 61.201,74.81 C60.859,73.513 61.557,72.287 61.402,71.392 C61.967,68.887 60.847,70.977 60.196,71.995 C59.527,73.233 58.656,74.347 57.783,76.016 C57.196,77.007 56.897,77.948 56.153,78.909 C55.582,80.315 54.714,81.34 54.144,82.73 C53.23,83.657 53.659,85.176 52.556,86.068 C51.281,88.629 53.989,87.752 55.773,87.877 C56.169,87.224 58.414,88.814 58.387,87.476 z" fill="#F8D2BB" id="path940"/>
    <path d="M92.857,50.203 C91.569,50.621 92.128,52.304 91.893,53.313 C90.943,57.542 90.235,61.886 88.341,65.826 C87.174,68.481 86.183,71.208 85.157,73.919 C83.96,76.684 82.286,79.219 80.485,81.621 C77.739,84.571 75.184,87.698 72.332,90.549 C72.436,92.251 70.986,93.735 69.441,94.205 C67.84,94.57 68.32,92.392 68.918,91.651 C71.467,87.902 72.518,83.422 74.261,79.295 C74.553,77.798 72.996,80.195 72.777,80.665 C70.626,83.922 67.92,86.765 65.727,89.992 C65.081,92.495 62.715,93.86 60.925,95.487 C59.778,96.382 59.22,97.973 57.71,98.378 C56.527,98.954 54.851,97.918 55.489,96.539 C55.926,95.422 56.78,94.512 57.127,93.345 C57.592,92.253 57.877,90.276 56.321,89.957 C55.106,89.956 53.921,89.983 52.717,90.094 C50.732,90.828 50.061,93.188 50.131,95.125 C49.872,96.021 49.392,96.979 49.465,97.997 C49.354,99.546 49.72,101.185 49.112,102.663 C48.613,103.703 46.742,103.813 46.459,102.564 C44.949,99.938 43.509,97.238 42.543,94.361 C42.232,93.079 42.166,91.694 41.591,90.502 C41.19,91.472 41.452,92.739 41.311,93.821 C41.139,98.057 41.29,102.342 42.323,106.473 C42.861,109.201 43.292,112.035 44.727,114.469 C45.244,117.329 46.6,120.002 48.457,122.225 C49.472,123.418 48.548,124.955 47.023,124.795 C45.71,124.619 45.024,125.889 46.106,126.756 C46.788,127.661 47.043,128.824 47.576,129.824 C48.71,132.336 50.11,134.769 52.057,136.741 C54.181,139.648 56.891,142.169 60.147,143.753 C63.975,145.852 68.2,147.053 72.323,148.419 C74.817,149.089 77.313,149.758 79.78,150.521 C81.8,151.104 83.867,151.535 85.917,151.963 C89.113,153.351 92.817,152.685 95.788,151.051 C99.587,149.075 103.368,146.988 106.658,144.218 C109.959,141.545 113.159,138.747 116.275,135.863 C120.521,131.741 124.179,126.997 127.06,121.83 C128.358,119.075 127.7,115.942 126.861,113.16 C126.389,112.047 126.628,110.834 126.388,109.672 C126.295,108.712 125.698,106.585 124.381,107.522 C123.323,108.255 123.185,109.666 122.248,110.492 C120.779,111.294 120.503,108.839 120.921,107.907 C121.286,107.09 121.546,106.258 121.634,105.359 C122.078,102.808 122.253,100.17 121.723,97.621 C121.633,94.4 121.099,91.211 120.65,88.027 C120.108,85.108 119.491,82.185 118.442,79.404 C118.03,77.477 118.045,75.394 117.106,73.62 C116.102,72.47 116.484,74.644 116.223,75.286 C115.81,77.676 115.179,80.023 114.749,82.409 C114.042,85.303 112.926,88.094 111.467,90.691 C111.225,92.081 112.615,92.935 113.561,93.667 C115.11,94.817 117.101,95.998 117.364,98.098 C117.838,98.792 118.357,99.675 118.111,100.605 C117.935,101.624 117.11,103.259 115.881,102.77 C114.919,101.866 115.464,100.264 114.452,99.357 C113.028,98.021 112.668,100.439 113.252,101.379 C113.306,105.02 112.148,109.021 109.094,111.259 C107.149,112.668 104.548,113.087 102.274,112.29 C99.391,111.365 96.839,109.133 96.006,106.158 C94.969,102.743 95.399,99.008 96.753,95.743 C97.28,94.923 97.339,92.987 95.865,93.773 C94.825,94.223 93.673,94.658 93.092,95.711 C91.968,97.337 91.661,99.438 90.32,100.918 C89.32,101.83 87.625,100.601 88.149,99.355 C88.464,95.869 91.064,93.15 93.748,91.168 C96.783,89.642 100.327,89.448 103.659,89.8 C104.937,89.73 105.952,90.483 107.144,90.706 C108.508,90.558 108.413,88.814 108.4,87.785 C108.238,85.136 107.616,82.543 107.42,79.897 C107.299,78.508 106.686,76.693 105.031,76.619 C102.102,74.77 98.227,75.318 95.343,76.979 C94.09,77.588 93.815,79.352 92.246,79.582 C90.96,80.202 90.289,78.629 91.274,77.804 C94.036,74.078 99.226,72.503 103.645,73.787 C104.529,74.164 106.619,74.339 105.836,72.796 C105.244,71.849 105.099,70.776 104.862,69.702 C103.676,65.058 101.251,60.872 98.978,56.695 C97.671,54.423 96.06,52.268 93.985,50.645 C93.65,50.421 93.275,50.193 92.857,50.203 z M56.41,104.184 C57.529,104.24 58.57,104.595 59.664,104.821 C60.704,105.157 61.625,105.796 62.683,106.105 C63.975,106.619 65.092,107.411 66.229,108.178 C67.12,109.014 68.475,109.486 68.809,110.781 C69.352,112.463 67.165,112.346 66.073,112.46 C64.933,112.185 64.512,110.761 63.516,110.176 C62.713,109.269 61.588,108.973 60.491,108.558 C59.385,108.09 58.178,108.208 57.043,107.858 C56.011,107.503 54.941,107.962 53.908,107.803 C52.482,107.92 51.504,109.205 50.293,109.852 C49.42,110.592 48.817,111.677 47.952,112.44 C46.838,112.364 45.104,111.764 45.655,110.254 C46.154,109.134 47.043,108.233 48.038,107.538 C49.032,106.72 50.095,105.795 51.377,105.533 C52.34,104.987 53.424,104.558 54.517,104.421 C55.175,104.523 55.761,104.148 56.41,104.184 z M76.281,123.664 C76.894,123.642 77.378,123.551 77.531,124.224 C78.099,125.217 76.827,125.467 75.881,125.475 C75.228,124.883 75.369,123.993 76.2,123.835 z M95.6,129.615 C97.294,129.677 96.887,132.197 95.781,132.88 C94.334,134.366 92.685,135.822 90.608,136.314 C89.128,136.785 87.657,137.43 86.068,137.336 C84.007,137.461 81.917,137.584 79.888,137.112 C78.552,136.958 77.25,136.617 76.019,136.076 C74.972,135.669 73.48,135.346 73.238,134.056 C73.334,132.409 75.532,132.932 76.409,133.66 C78.149,134.504 80.146,134.428 82.003,134.833 C83.377,134.888 84.764,135.256 86.129,134.993 C88.666,134.578 91.119,133.631 93.26,132.205 C94.066,131.389 94.265,129.771 95.6,129.615 z" fill="#F8D2BB" id="path942"/>
    <path d="m 118.904,120.247 c 0,0.201 0,0.402 0,0.603 0.33739,0.4648 -0.3007,0.92867 -0.23128,1.42941 -0.27735,0.45853 -0.20462,1.04548 -0.48,1.4745 -0.37972,0.25521 -1.1759,0.24828 -1.29,-0.29954 -9.9e-4,-0.52956 -0.1484,-1.03098 -0.36047,-1.51299 -0.20393,-0.52857 0.0697,-1.11336 0.43661,-1.49866 0.089,-0.54913 0.72487,-0.72492 1.16041,-0.4872 0.27514,0.0179 0.56506,0.0888 0.76473,0.29148 z" fill="#ec9a84" id="path962"/>
    <path d="m 110.26,121.051 c 0.12322,0.53781 -0.18534,1.03438 -0.20221,1.54869 0.11873,0.53034 -0.22904,0.96249 -0.12071,1.45824 -0.14443,0.42678 -0.15091,1.02276 -0.6434,1.20885 -0.4431,0.10603 -1.01466,-0.019 -1.29665,-0.4043 -0.23389,-0.47699 -0.1462,-1.03539 -0.1301,-1.54783 0.0733,-0.43332 0.26963,-0.83424 0.38402,-1.25347 -0.0381,-0.46214 -0.16028,-0.97746 0.19867,-1.35519 0.33102,-0.38164 0.91658,-0.2919 1.29024,-0.0335 0.17086,0.12899 0.31495,0.30136 0.52014,0.37853 z" fill="#ec9a84" id="path964"/>
    <path d="m 113.477,120.648 c -0.1755,0.42062 0.27835,0.72965 0.42115,1.03981 -0.0892,0.34171 0.23773,0.65126 0.0841,0.97322 -0.16739,0.33242 -0.0776,0.69518 -0.11358,1.04096 -0.13501,0.24192 -0.45392,0.25646 -0.68475,0.37107 -0.37185,-0.0231 -0.76854,-0.15389 -1.04806,-0.40196 -0.15686,-0.34713 -0.81309,-0.51498 -0.49872,-0.96195 0.17486,-0.32325 -0.18388,-0.72866 0.21792,-0.9795 0.19303,-0.2055 0.0184,-0.57405 0.25603,-0.81163 0.18145,-0.42966 0.71026,-0.23936 1.06646,-0.2686 0.0997,-7.3e-4 0.20073,-1.4e-4 0.29942,-0.001 z" fill="#ec9a84" id="path966"/>
    <path d="M107.973,103.157 C108.105,103.124 108.179,103.267 108.216,103.353 C108.342,103.376 108.471,103.34 108.598,103.36 C108.728,103.348 108.774,103.461 108.814,103.552 C108.927,103.581 109.05,103.543 109.168,103.559 C109.246,103.542 109.426,103.612 109.361,103.48 C109.337,103.326 109.403,103.157 109.545,103.082 C109.653,103.007 109.785,102.919 109.795,102.774 C109.846,102.656 109.765,102.497 109.624,102.53 C109.287,102.512 108.952,102.624 108.616,102.565 C108.462,102.583 108.429,102.387 108.307,102.353 C108.201,102.364 108.066,102.325 107.978,102.375 C107.962,102.484 107.979,102.597 107.973,102.708 C107.973,102.857 107.973,103.007 107.973,103.157 z" fill="#FFFFFE" id="path968"/>
    <path d="M106.842,93.708 C106.708,93.708 106.574,93.708 106.44,93.708 C106.251,93.333 105.759,93.571 105.432,93.501 C105.052,93.544 104.617,93.391 104.312,93.666 C103.988,93.722 103.924,94.092 103.622,94.169 C103.308,94.215 103.24,94.54 103.073,94.757 C102.972,94.964 103.16,95.288 102.819,95.396 C102.584,95.711 102.968,96.086 103.008,96.387 C102.97,96.689 103.259,96.808 103.263,97.088 C103.441,97.34 103.686,97.545 103.989,97.624 C104.497,97.827 105.05,97.685 105.579,97.733 C105.895,97.794 106.098,97.539 106.375,97.461 C106.662,97.348 106.912,97.201 107.124,96.975 C107.4,96.778 107.049,96.429 107.39,96.264 C107.571,96.038 107.378,95.709 107.436,95.437 C107.43,95.111 107.476,94.781 107.447,94.457 C107.341,94.136 106.943,94.033 106.842,93.708 z" fill="#FFFFFE" id="path970"/>
    <path d="M102.419,104.565 C102.399,104.768 102.682,104.798 102.728,104.981 C102.866,105.141 103.103,105.153 103.25,105.294 C103.344,105.48 103.503,105.626 103.719,105.609 C103.931,105.663 103.944,105.993 104.177,105.974 C104.307,106.003 104.459,105.976 104.455,105.824 C104.575,105.71 104.678,105.855 104.697,105.958 C104.874,106.012 104.862,105.723 105.051,105.754 C105.213,105.738 105.525,105.485 105.309,105.358 C105.11,105.439 105.047,105.2 104.889,105.154 C104.633,105.254 104.628,104.879 104.425,104.844 C104.181,104.792 103.919,104.665 103.827,104.417 C103.66,104.273 103.399,104.455 103.229,104.29 C103.054,104.1 102.802,104.174 102.576,104.16 C102.452,104.143 102.099,104.174 102.265,104.361 C102.336,104.432 102.476,104.423 102.419,104.565 z" fill="#FFFFFE" id="path972"/>
    <path d="M108.767,147.31 C107.561,148.417 101.071,153.055 99.454,154.016 C98.031,155.383 96.711,156.549 100.045,155.969 C101.311,156.357 107.948,154.958 109.441,154.803 C110.228,153.327 108.91,149.807 109.353,147.775 C109.219,147.347 108.986,147.32 108.767,147.311 z" fill="#F8D2BB" id="path932"/>
  </g>
</svg>