<?xml version="1.0" encoding="UTF-8"?>
<!DOCTYPE svg PUBLIC "-//W3C//DTD SVG 1.1//EN" "http://www.w3.org/Graphics/SVG/1.1/DTD/svg11.dtd">
<svg version="1.1" xmlns="http://www.w3.org/2000/svg" xmlns:xlink="http://www.w3.org/1999/xlink" x="0" y="0" width="412.313" height="297.702" viewBox="0, 0, 412.313, 297.702">
  <defs>
    <linearGradient id="Gradient_1" gradientUnits="userSpaceOnUse" x1="307.852" y1="572.599" x2="307.852" y2="682.925" gradientTransform="matrix(1, 0, 0, 1, -100.621, -385.811)">
      <stop offset="0" stop-color="#FAF5C4"/>
      <stop offset="1" stop-color="#A5C430"/>
    </linearGradient>
    <linearGradient id="Gradient_2" gradientUnits="userSpaceOnUse" x1="135.78" y1="644.736" x2="135.78" y2="627.679" gradientTransform="matrix(1, 0, 0, 1, -100.621, -385.811)">
      <stop offset="0" stop-color="#E3E180"/>
      <stop offset="0.01" stop-color="#E3E180"/>
      <stop offset="1" stop-color="#7BB03B"/>
    </linearGradient>
    <linearGradient id="Gradient_3" gradientUnits="userSpaceOnUse" x1="158.553" y1="620.063" x2="158.553" y2="603.004" gradientTransform="matrix(1, 0, 0, 1, -100.621, -385.811)">
      <stop offset="0" stop-color="#F3F1C6"/>
      <stop offset="0.01" stop-color="#F3F1C6"/>
      <stop offset="1" stop-color="#A7C030"/>
    </linearGradient>
    <linearGradient id="Gradient_4" gradientUnits="userSpaceOnUse" x1="134.123" y1="664.423" x2="134.123" y2="647.367" gradientTransform="matrix(1, 0, 0, 1, -100.621, -385.811)">
      <stop offset="0" stop-color="#CBD232"/>
      <stop offset="0.01" stop-color="#CBD232"/>
      <stop offset="1" stop-color="#7BB03B"/>
    </linearGradient>
    <linearGradient id="Gradient_5" gradientUnits="userSpaceOnUse" x1="484.964" y1="663.476" x2="484.964" y2="646.413" gradientTransform="matrix(1, 0, 0, 1, -100.621, -385.811)">
      <stop offset="0" stop-color="#CBD232"/>
      <stop offset="0.01" stop-color="#CBD232"/>
      <stop offset="1" stop-color="#7BB03B"/>
    </linearGradient>
    <linearGradient id="Gradient_6" gradientUnits="userSpaceOnUse" x1="173.195" y1="675.268" x2="173.195" y2="652.12" gradientTransform="matrix(1, 0, 0, 1, -100.621, -385.811)">
      <stop offset="0" stop-color="#CBD232"/>
      <stop offset="0.01" stop-color="#CBD232"/>
      <stop offset="1" stop-color="#7BB03B"/>
    </linearGradient>
    <linearGradient id="Gradient_7" gradientUnits="userSpaceOnUse" x1="260.197" y1="671.963" x2="260.197" y2="648.401" gradientTransform="matrix(1, 0, 0, 1, -100.621, -385.811)">
      <stop offset="0" stop-color="#CBD232"/>
      <stop offset="0.01" stop-color="#CBD232"/>
      <stop offset="1" stop-color="#7BB03B"/>
    </linearGradient>
    <linearGradient id="Gradient_8" gradientUnits="userSpaceOnUse" x1="360.803" y1="673.388" x2="360.803" y2="651.468" gradientTransform="matrix(1, 0, 0, 1, -100.621, -385.811)">
      <stop offset="0" stop-color="#CBD232"/>
      <stop offset="0.01" stop-color="#CBD232"/>
      <stop offset="1" stop-color="#7BB03B"/>
    </linearGradient>
    <linearGradient id="Gradient_9" gradientUnits="userSpaceOnUse" x1="448.75" y1="671.252" x2="448.75" y2="648.309" gradientTransform="matrix(1, 0, 0, 1, -100.621, -385.811)">
      <stop offset="0" stop-color="#CBD232"/>
      <stop offset="0.01" stop-color="#CBD232"/>
      <stop offset="1" stop-color="#7BB03B"/>
    </linearGradient>
    <linearGradient id="Gradient_10" gradientUnits="userSpaceOnUse" x1="484.915" y1="643.497" x2="484.915" y2="625.528" gradientTransform="matrix(1, 0, 0, 1, -100.621, -385.811)">
      <stop offset="0" stop-color="#EFE54E"/>
      <stop offset="0.01" stop-color="#EFE54E"/>
      <stop offset="1" stop-color="#7BB03B"/>
    </linearGradient>
    <linearGradient id="Gradient_11" gradientUnits="userSpaceOnUse" x1="457.496" y1="624.28" x2="457.496" y2="612.445" gradientTransform="matrix(1, 0, 0, 1, -100.621, -385.811)">
      <stop offset="0" stop-color="#CBD232"/>
      <stop offset="0.01" stop-color="#CBD232"/>
      <stop offset="1" stop-color="#7BB03B"/>
    </linearGradient>
  </defs>
  <g id="Layer_1">
    <path d="M6.452,294.74 L408.008,294.74 L408.008,191.259 L6.452,191.259 z" fill="url(#Gradient_1)" id="path901"/>
    <path d="M28.846,251.747 C27.306,251.192 26.374,249.743 25.989,247.914 L25.989,247.914 C25.68,248.12 24.224,248.651 23.981,248.884 L23.981,248.884 C23.954,248.419 23.954,247.955 23.978,247.489 L23.978,247.489 C22.172,248.365 20.579,249.609 19.259,251.124 L19.259,251.124 C19.714,249.38 19.933,247.584 19.862,245.778 L19.862,245.778 C16.996,247.247 12.431,252.788 10.85,255.527 L10.85,255.527 L59.466,253.894 C58.764,252.081 58.344,250.124 58.344,248.177 L58.344,248.177 C55.821,248.774 53.524,251.063 51.489,252.61 L51.489,252.61 C51.657,249.776 53.082,247.197 55.127,245.3 L55.127,245.3 C51.051,246.153 44.26,248.511 42.326,251.805 L42.326,251.805 C41.865,250.424 40.949,249.568 39.82,248.928 L39.82,248.928 C39.457,250.296 39.302,251.839 39.356,253.271 L39.356,253.271 C37.988,251.542 37.028,249.588 35.327,248.231 L35.327,248.231 C34.393,249.847 33.737,251.67 33.251,253.448 L33.251,253.448 C31.931,250.343 30.9,247.079 29.176,244.165 L29.176,244.165 C30.054,246.382 29.947,249.568 28.846,251.747 z" fill="url(#Gradient_2)" id="path903"/>
    <path d="M10.851,255.527 C12.431,252.788 16.996,247.247 19.862,245.778 C19.933,247.584 19.714,249.38 19.259,251.124 C20.58,249.608 22.173,248.365 23.978,247.489 C23.955,247.954 23.955,248.419 23.982,248.883 C24.225,248.651 25.68,248.12 25.99,247.914 C26.373,249.743 27.307,251.191 28.846,251.747 C29.948,249.568 30.055,246.381 29.176,244.165 C30.901,247.079 31.932,250.342 33.252,253.448 C33.737,251.67 34.394,249.847 35.327,248.23 C37.028,249.588 37.988,251.542 39.356,253.27 C39.302,251.839 39.457,250.296 39.821,248.927 C40.949,249.568 41.865,250.423 42.327,251.804 C44.26,248.51 51.051,246.152 55.127,245.299 C53.082,247.196 51.658,249.776 51.489,252.61 C53.524,251.063 55.821,248.773 58.344,248.176 C58.344,250.124 58.765,252.081 59.466,253.893" fill-opacity="0" stroke="#83AE3A" stroke-width="1.423" stroke-linecap="round" stroke-linejoin="round" id="path905"/>
    <path d="M51.62,227.076 C50.081,226.52 49.148,225.072 48.76,223.246 L48.76,223.246 C48.451,223.452 46.995,223.98 46.756,224.217 L46.756,224.217 C46.722,223.748 46.722,223.28 46.749,222.816 L46.749,222.816 C44.948,223.694 43.351,224.938 42.031,226.454 L42.031,226.454 C42.485,224.708 42.704,222.913 42.636,221.11 L42.636,221.11 C39.77,222.576 35.203,228.124 33.626,230.859 L33.626,230.859 L82.236,229.222 C81.54,227.407 81.115,225.456 81.119,223.509 L81.119,223.509 C78.592,224.106 76.295,226.392 74.261,227.936 L74.261,227.936 C74.429,225.105 75.857,222.525 77.899,220.632 L77.899,220.632 C73.822,221.481 67.031,223.839 65.098,227.134 L65.098,227.134 C64.636,225.753 63.723,224.9 62.595,224.254 L62.595,224.254 C62.231,225.624 62.073,227.167 62.13,228.603 L62.13,228.603 C60.76,226.874 59.802,224.917 58.102,223.559 L58.102,223.559 C57.168,225.18 56.511,226.999 56.027,228.781 L56.027,228.781 C54.703,225.671 53.675,222.411 51.951,219.494 L51.951,219.494 C52.826,221.71 52.718,224.898 51.62,227.076 z" fill="url(#Gradient_3)" id="path907"/>
    <path d="M33.626,230.859 C35.203,228.124 39.77,222.576 42.637,221.11 C42.704,222.913 42.485,224.708 42.031,226.453 C43.351,224.937 44.948,223.694 46.75,222.815 C46.723,223.28 46.723,223.748 46.756,224.216 C46.996,223.98 48.451,223.452 48.761,223.246 C49.148,225.072 50.082,226.52 51.621,227.076 C52.719,224.897 52.827,221.71 51.951,219.494 C53.675,222.411 54.703,225.672 56.027,228.781 C56.512,226.999 57.168,225.179 58.102,223.559 C59.803,224.917 60.76,226.874 62.13,228.602 C62.073,227.167 62.231,225.624 62.595,224.254 C63.724,224.9 64.637,225.753 65.098,227.133 C67.032,223.838 73.823,221.481 77.899,220.631 C75.857,222.525 74.429,225.105 74.261,227.935 C76.295,226.392 78.593,224.105 81.119,223.508 C81.116,225.456 81.54,227.406 82.237,229.221" fill-opacity="0" stroke="#9BB939" stroke-width="1.423" stroke-linecap="round" stroke-linejoin="round" id="path909"/>
    <path d="M27.185,271.437 C25.645,270.884 24.712,269.429 24.328,267.606 L24.328,267.606 C24.018,267.811 22.564,268.341 22.317,268.577 L22.317,268.577 C22.29,268.108 22.29,267.64 22.317,267.176 L22.317,267.176 C20.512,268.055 18.919,269.298 17.598,270.809 L17.598,270.809 C18.053,269.069 18.269,267.273 18.204,265.47 L18.204,265.47 C15.335,266.933 10.767,272.481 9.193,275.213 L9.193,275.213 L57.808,273.579 C57.104,271.767 56.683,269.816 56.683,267.866 L56.683,267.866 C54.16,268.462 51.863,270.746 49.825,272.296 L49.825,272.296 C49.997,269.459 51.425,266.889 53.463,264.989 L53.463,264.989 C49.39,265.838 42.6,268.199 40.663,271.49 L40.663,271.49 C40.204,270.116 39.289,269.261 38.16,268.611 L38.16,268.611 C37.799,269.981 37.641,271.525 37.695,272.959 L37.695,272.959 C36.324,271.234 35.364,269.275 33.663,267.92 L33.663,267.92 C32.733,269.538 32.08,271.356 31.587,273.142 L31.587,273.142 C30.267,270.028 29.24,266.775 27.518,263.85 L27.518,263.85 C28.394,266.067 28.29,269.261 27.185,271.437 z" fill="url(#Gradient_4)" id="path911"/>
    <path d="M9.193,275.213 C10.766,272.481 15.334,266.933 18.204,265.471 C18.268,267.274 18.052,269.068 17.598,270.81 C18.918,269.298 20.511,268.055 22.317,267.176 C22.29,267.641 22.29,268.109 22.317,268.577 C22.563,268.341 24.018,267.812 24.328,267.607 C24.712,269.429 25.645,270.884 27.185,271.437 C28.289,269.261 28.395,266.067 27.518,263.851 C29.239,266.775 30.267,270.028 31.587,273.142 C32.08,271.356 32.733,269.537 33.662,267.92 C35.363,269.275 36.323,271.234 37.694,272.959 C37.64,271.525 37.8,269.982 38.16,268.61 C39.289,269.261 40.205,270.116 40.662,271.49 C42.599,268.199 49.39,265.838 53.464,264.989 C51.425,266.889 49.996,269.459 49.824,272.296 C51.862,270.746 54.16,268.462 56.683,267.866 C56.683,269.817 57.104,271.767 57.808,273.579" fill-opacity="0" stroke="#6FA33E" stroke-width="1.423" stroke-linecap="round" stroke-linejoin="round" id="path913"/>
    <path d="M378.028,270.486 C376.489,269.931 375.555,268.48 375.172,266.653 L375.172,266.653 C374.862,266.858 373.406,267.395 373.161,267.623 L373.161,267.623 C373.134,267.158 373.134,266.693 373.161,266.228 L373.161,266.228 C371.354,267.105 369.762,268.348 368.445,269.863 L368.445,269.863 C368.896,268.122 369.115,266.324 369.047,264.517 L369.047,264.517 C366.177,265.986 361.614,271.527 360.036,274.267 L360.036,274.267 L408.651,272.629 C407.947,270.816 407.526,268.863 407.53,266.916 L407.53,266.916 C405.003,267.516 402.706,269.803 400.668,271.348 L400.668,271.348 C400.84,268.512 402.267,265.936 404.31,264.039 L404.31,264.039 C400.233,264.892 393.442,267.249 391.509,270.544 L391.509,270.544 C391.047,269.16 390.131,268.311 389.003,267.671 L389.003,267.671 C388.642,269.035 388.483,270.574 388.538,272.009 L388.538,272.009 C387.17,270.281 386.207,268.324 384.513,266.97 L384.513,266.97 C383.576,268.587 382.922,270.41 382.433,272.188 L382.433,272.188 C381.113,269.082 380.083,265.818 378.362,262.901 L378.362,262.901 C379.237,265.12 379.133,268.311 378.028,270.486 z" fill="url(#Gradient_5)" id="path915"/>
    <path d="M360.036,274.267 C361.613,271.528 366.178,265.987 369.047,264.518 C369.115,266.324 368.895,268.122 368.444,269.864 C369.762,268.348 371.354,267.105 373.16,266.229 C373.134,266.694 373.134,267.159 373.16,267.623 C373.406,267.395 374.861,266.859 375.172,266.654 C375.556,268.48 376.488,269.931 378.027,270.487 C379.133,268.311 379.237,265.121 378.361,262.901 C380.083,265.818 381.113,269.082 382.433,272.188 C382.922,270.41 383.576,268.587 384.513,266.97 C386.207,268.325 387.17,270.282 388.538,272.009 C388.483,270.575 388.642,269.036 389.003,267.671 C390.131,268.311 391.047,269.16 391.509,270.544 C393.442,267.249 400.233,264.892 404.309,264.039 C402.267,265.936 400.84,268.513 400.668,271.349 C402.706,269.803 405.003,267.516 407.529,266.916 C407.526,268.864 407.947,270.817 408.651,272.629" fill-opacity="0" stroke="#6FA33E" stroke-width="1.423" stroke-linecap="round" stroke-linejoin="round" id="path917"/>
    <path d="M53.176,273.916 C53.149,272.652 52.061,271.706 51.86,270.756 L51.86,270.756 C50.818,271.757 50.01,273.111 49.573,274.549 L49.573,274.549 C49.276,273.121 48.612,271.821 47.629,270.744 L47.629,270.744 C46.688,271.734 46.015,273.155 45.823,274.573 L45.823,274.573 C44.988,272.622 43.509,270.393 41.73,269.355 L41.73,269.355 C41.666,270.965 41.72,272.579 41.707,274.182 L41.707,274.182 C40.234,273.431 39.082,271.936 38.035,270.544 L38.035,270.544 C38.395,271.551 35.782,280.977 35.607,281.159 L35.607,281.159 L109.545,286.06 C109.465,285.571 106.639,277.668 106.575,277.126 L106.575,277.126 C105.278,277.918 104.125,278.982 103.354,280.279 L103.354,280.279 C103.826,278.457 104.358,276.56 105.318,274.939 L105.318,274.939 C104.069,275.52 102.947,276.294 101.956,277.258 L101.956,277.258 C102.563,276.152 102.761,274.738 103.334,273.6 L103.334,273.6 C101.074,274.596 98.214,275.63 97.281,278.12 L97.281,278.12 C97.617,275.715 98.477,272.733 100.515,271.275 L100.515,271.275 C96.132,271.52 91.797,275.025 91.407,279.548 L91.407,279.548 C91.191,277.426 90.816,275.067 89.617,273.275 L89.617,273.275 C88.246,275.109 86.619,276.738 86.606,279.191 L86.606,279.191 C85.464,277.025 83.443,275.169 82.634,272.808 L82.634,272.808 C80.964,273.633 79.882,275.64 79.178,277.419 L79.178,277.419 C76.969,275.018 74.009,273.026 72.215,270.29 L72.215,270.29 C73.387,272.495 72.75,276.092 71.114,277.89 L71.114,277.89 C70.09,276.577 68.905,275.392 67.591,274.374 L67.591,274.374 C67.827,275.139 67.844,276.145 68.035,276.812 L68.035,276.812 C66.87,275.82 65.768,274.781 64.707,273.677 L64.707,273.677 C64.569,274.324 64.218,274.886 64.172,275.762 L64.172,275.762 C63.538,273.966 62.966,272.144 62.11,270.437 L62.11,270.437 C61.095,271.618 60.469,273.828 60.749,275.569 L60.749,275.569 C59.809,273.289 59.826,270.712 61.095,268.608 L61.095,268.608 C58.118,269.89 55.443,271.595 53.176,273.916 z M72.215,270.29 C72.129,270.13 72.034,269.977 71.93,269.833 L71.93,269.833 C72.021,269.988 72.116,270.14 72.215,270.29 z M35.607,281.159 L35.599,281.158 C35.601,281.162 35.604,281.163 35.607,281.159 z" fill="url(#Gradient_6)" id="path919"/>
    <path d="M35.6,281.158 C35.674,281.367 38.403,271.571 38.036,270.544 C39.083,271.935 40.235,273.43 41.707,274.181 C41.721,272.578 41.666,270.965 41.731,269.354 C43.509,270.392 44.988,272.622 45.824,274.573 C46.016,273.154 46.689,271.733 47.629,270.743 C48.613,271.82 49.276,273.121 49.573,274.549 C50.011,273.11 50.819,271.757 51.86,270.756 C52.062,271.706 53.15,272.652 53.177,273.916 C55.444,271.595 58.119,269.89 61.096,268.607 C59.827,270.712 59.809,273.289 60.749,275.569 C60.47,273.828 61.096,271.618 62.11,270.436 C62.966,272.143 63.538,273.966 64.172,275.762 C64.219,274.886 64.569,274.323 64.707,273.677 C65.768,274.781 66.87,275.819 68.036,276.812 C67.844,276.145 67.827,275.138 67.591,274.374 C68.905,275.391 70.09,276.577 71.114,277.89 C72.87,275.961 73.475,271.962 71.93,269.833 C73.681,272.807 76.848,274.886 79.179,277.419 C79.883,275.64 80.964,273.633 82.635,272.807 C83.443,275.169 85.464,277.025 86.606,279.19 C86.62,276.738 88.246,275.108 89.618,273.275 C90.817,275.067 91.191,277.426 91.407,279.548 C91.797,275.024 96.132,271.52 100.515,271.274 C98.477,272.733 97.618,275.715 97.281,278.12 C98.214,275.63 101.074,274.596 103.334,273.599 C102.762,274.737 102.563,276.152 101.956,277.258 C102.947,276.294 104.069,275.519 105.318,274.939 C104.358,276.56 103.826,278.457 103.354,280.279 C104.126,278.982 105.278,277.918 106.575,277.126 C106.639,277.668 109.465,285.571 109.546,286.059" fill-opacity="0" stroke="#6FA33E" stroke-width="1.423" stroke-linecap="round" stroke-linejoin="round" id="path921"/>
    <path d="M153.249,269.833 C153.606,268.264 153.047,266.486 153.263,265.01 L153.263,265.01 C148.729,267.3 144.662,270.41 140.618,273.452 L140.618,273.452 C140.62,272.608 140.418,271.578 140.458,270.716 L140.458,270.716 C136.681,272.096 133.345,275.071 131.412,278.711 L131.412,278.711 L199.62,282.755 C196.575,276.935 199.943,271.925 204.67,265.892 L204.67,265.892 C198.728,267.96 192.806,273.084 189.959,277.942 L189.959,277.942 C189.246,276.132 187.443,274.704 186.739,272.882 L186.739,272.882 C186.641,273.64 185.436,275.997 185.422,277.614 L185.422,277.614 C184.516,275.621 183.135,274.169 182.387,271.989 L182.387,271.989 C181.603,273.298 180.546,275.179 180.061,276.666 L180.061,276.666 C180.425,273.162 176.455,269.096 174.804,265.824 L174.804,265.824 C176.354,269.931 176.799,275.129 175.663,279.245 L175.663,279.245 C173.676,277.21 171.52,274.676 169.674,272.751 L169.674,272.751 C169.704,273.937 169.257,275.369 169.522,276.995 L169.522,276.995 C168.488,275.163 166.548,273.751 165.237,272.101 L165.237,272.101 C164.874,272.467 164.701,272.914 164.716,273.439 L164.716,273.439 C164.609,272.552 163.995,271.101 163.913,270.076 L163.913,270.076 C163.153,271.221 161.859,272.043 161.141,273.323 L161.141,273.323 C160.205,270.609 160.37,267.764 160.512,264.888 L160.512,264.888 C157.753,266.017 155.088,267.569 153.249,269.833 z M122.806,278.201 L130.046,278.63 C129.403,275.853 128.96,272.968 129.255,270.157 L129.255,270.157 C125.666,271.364 123.457,274.498 122.806,278.201 z M115.643,277.776 L122.618,278.19 C120.194,276.487 117.163,274.919 114.481,273.566 L114.481,273.566 C115.043,274.879 115.127,276.567 115.643,277.776 z M122.787,278.309 C122.793,278.273 122.799,278.237 122.806,278.201 L122.806,278.201 L122.618,278.19 C122.675,278.229 122.731,278.269 122.787,278.309 z M130.545,280.64 C130.789,279.98 131.08,279.336 131.412,278.711 L131.412,278.711 L130.046,278.63 C130.203,279.307 130.372,279.978 130.545,280.64 z" fill="url(#Gradient_7)" id="path923"/>
    <path d="M115.643,277.776 C115.127,276.567 115.043,274.879 114.481,273.565 C117.226,274.95 120.335,276.56 122.788,278.308 C123.414,274.559 125.631,271.376 129.255,270.156 C128.888,273.653 129.663,277.264 130.545,280.639 C132.213,276.138 136.033,272.333 140.459,270.715 C140.418,271.578 140.621,272.608 140.618,273.451 C144.663,270.409 148.729,267.299 153.263,265.009 C153.047,266.485 153.606,268.263 153.249,269.833 C155.088,267.569 157.753,266.016 160.512,264.887 C160.371,267.764 160.206,270.608 161.142,273.323 C161.859,272.043 163.153,271.22 163.914,270.075 C164.002,271.187 164.716,272.797 164.733,273.649 C164.659,273.033 164.827,272.514 165.238,272.1 C166.548,273.751 168.489,275.162 169.523,276.995 C169.257,275.368 169.705,273.936 169.674,272.75 C171.52,274.676 173.676,277.21 175.664,279.245 C176.799,275.129 176.354,269.93 174.805,265.824 C176.62,269.422 181.239,273.979 179.817,277.695 C179.999,276.159 181.407,273.626 182.387,271.989 C183.135,274.169 184.516,275.62 185.422,277.614 C185.436,275.997 186.642,273.639 186.739,272.881 C187.443,274.704 189.246,276.131 189.959,277.941 C192.806,273.084 198.728,267.96 204.67,265.891 C199.944,271.924 196.576,276.934 199.621,282.755" fill-opacity="0" stroke="#6FA33E" stroke-width="1.423" stroke-linecap="round" stroke-linejoin="round" id="path925"/>
    <path d="M247.089,274.967 C246.689,274.01 246.497,273.02 246.5,271.999 L246.5,271.999 C244.283,273.545 242.252,275.702 240.141,277.534 L240.141,277.534 C239.948,276.58 239.43,275.694 239.207,274.792 L239.207,274.792 C238.494,275.392 235.577,275.961 234.653,277.052 L234.653,277.052 C234.447,276.26 234.171,275.496 233.817,274.762 L233.817,274.762 C233.601,275.02 231.975,276.189 231.528,276.631 L231.528,276.631 C231.022,274.835 229.361,273.317 228.923,271.569 L228.923,271.569 C227.892,273.923 227.309,276.442 226.895,279.002 L226.895,279.002 C224.655,275.698 221.978,272.777 218.497,270.702 L218.497,270.702 C220.053,274.367 221.97,278.009 222.394,282.044 L222.394,282.044 L298.537,284.18 C298.284,281.795 298.197,274.536 301.865,271.403 L301.865,271.403 C298.069,271.494 295.425,274.223 292.945,276.324 L292.945,276.324 C292.827,275.418 292.797,274.481 292.781,273.572 L292.781,273.572 C292.152,273.476 291.685,273.553 291.249,273.631 L291.249,273.631 C290.7,273.728 290.199,273.825 289.487,273.575 L289.487,273.575 C288.94,274.731 287.792,275.546 287.276,276.705 L287.276,276.705 C287.212,275.526 286.347,274.2 286.208,273.061 L286.208,273.061 C283.709,274.262 281.677,276.294 280.714,278.848 L280.714,278.848 C278.757,275.418 276.41,270.042 272.923,268.903 L272.923,268.903 C272.944,272.164 273.051,275.455 272.316,278.457 L272.316,278.457 C271.397,277.035 268.972,276.052 268.045,274.927 L268.045,274.927 C267.917,275.58 267.654,276.173 267.25,276.698 L267.25,276.698 C267.035,276.298 265.438,274.664 265.152,274.353 L265.152,274.353 C264.626,275.536 263.406,276.402 262.918,277.665 L262.918,277.665 C262.73,275.846 261.326,274.34 261.012,272.565 L261.012,272.565 C259.246,273.795 257.512,275.294 256.576,277.54 L256.576,277.54 C257.73,273.976 259.449,270.702 262.063,267.954 L262.063,267.954 C256.414,268.088 252.365,273.239 247.089,274.967 z" fill="url(#Gradient_8)" id="path927"/>
    <path d="M222.395,282.044 C221.971,278.009 220.054,274.367 218.498,270.702 C221.978,272.777 224.656,275.698 226.896,279.002 C227.31,276.442 227.893,273.923 228.923,271.568 C229.362,273.316 231.022,274.835 231.528,276.631 C231.975,276.19 233.602,275.021 233.818,274.762 C234.171,275.496 234.448,276.261 234.654,277.052 C235.577,275.961 238.494,275.392 239.207,274.792 C239.43,275.694 239.949,276.58 240.141,277.534 C242.252,275.701 244.284,273.545 246.5,271.999 C246.498,273.02 246.689,274.01 247.09,274.967 C252.366,273.239 256.415,268.088 262.063,267.953 C259.45,270.702 257.731,273.977 256.576,277.54 C257.512,275.294 259.247,273.795 261.012,272.565 C261.326,274.34 262.73,275.846 262.918,277.665 C263.407,276.401 264.626,275.536 265.152,274.354 C265.438,274.664 267.036,276.298 267.25,276.698 C267.655,276.173 267.917,275.58 268.045,274.927 C268.972,276.052 271.397,277.035 272.317,278.457 C273.051,275.455 272.944,272.164 272.923,268.903 C276.41,270.042 278.757,275.418 280.714,278.848 C281.678,276.294 283.709,274.263 286.208,273.061 C286.347,274.199 287.212,275.526 287.277,276.705 C287.792,275.546 288.941,274.732 289.487,273.575 C290.766,274.023 291.363,273.354 292.781,273.572 C292.797,274.482 292.828,275.418 292.946,276.324 C295.425,274.223 298.07,271.494 301.866,271.403 C298.198,274.536 298.285,281.795 298.538,284.18" fill-opacity="0" stroke="#6FA33E" stroke-width="1.423" stroke-linecap="round" stroke-linejoin="round" id="path929"/>
    <path d="M346.872,275.526 C346.488,274.913 345.973,274.212 345.589,273.626 L345.589,273.626 C343.625,275.655 341.561,277.661 339.748,279.773 L339.748,279.773 C339.526,277.705 337.875,275.411 337.261,273.538 L337.261,273.538 C336.043,274.893 334.062,275.466 332.943,277.298 L332.943,277.298 C332.623,276.369 330.477,274.307 330.07,272.913 L330.07,272.913 C329.427,273.868 328.17,274.549 327.557,275.536 L327.557,275.536 C326.516,273.777 324.297,272.39 323.34,270.52 L323.34,270.52 C323.384,271.376 322.053,274.755 322.039,275.839 L322.039,275.839 C319.392,273.956 316.916,271.686 313.837,270.702 L313.837,270.702 C315.805,273.704 316.475,278.335 316.33,282.044 L316.33,282.044 L381.801,282.044 C384.439,280.329 377.95,271.797 375.532,268.459 L375.532,268.459 C375.205,270.379 373.693,272.697 373.396,274.226 L373.396,274.226 C372.756,272.45 371.331,271.753 370.425,270.089 L370.425,270.089 C370.138,271.43 369.057,272.548 368.869,273.939 L368.869,273.939 C368.276,272.403 366.727,271.527 366.181,270.507 L366.181,270.507 C365.151,272.246 363.136,273.398 362.523,275.546 L362.523,275.546 C362.984,273.984 362.25,271.976 362.354,270.672 L362.354,270.672 C357.453,272.4 353.829,276.456 350.976,280.687 L350.976,280.687 C351.733,274.973 355.085,269.415 357.022,264.794 L357.022,264.794 C352.686,267.02 349.142,271.309 346.872,275.526 z" fill="url(#Gradient_9)" id="path931"/>
    <path d="M316.33,282.044 C316.475,278.335 315.805,273.704 313.837,270.702 C316.916,271.686 319.392,273.956 322.039,275.839 C322.053,274.755 323.384,271.376 323.34,270.521 C324.297,272.39 326.517,273.777 327.557,275.536 C328.17,274.549 329.427,273.868 330.07,272.912 C330.477,274.307 332.623,276.368 332.943,277.298 C334.061,275.466 336.043,274.893 337.262,273.538 C337.875,275.411 339.525,277.705 339.748,279.773 C341.56,277.661 343.625,275.654 345.589,273.626 C345.973,274.212 346.488,274.913 346.872,275.526 C349.143,271.309 352.686,267.021 357.021,264.794 C355.085,269.415 351.733,274.974 350.976,280.687 C353.828,276.456 357.453,272.4 362.354,270.672 C362.25,271.976 362.984,273.983 362.522,275.546 C363.136,273.398 365.15,272.245 366.181,270.507 C366.726,271.527 368.276,272.403 368.869,273.94 C369.058,272.548 370.139,271.43 370.425,270.089 C371.331,271.753 372.756,272.45 373.396,274.226 C373.692,272.696 375.205,270.379 375.532,268.459 C377.95,271.797 384.438,280.329 381.801,282.044" fill-opacity="0" stroke="#6FA33E" stroke-width="1.423" stroke-linecap="round" stroke-linejoin="round" id="path933"/>
    <path d="M365.432,253.581 L403.154,254.292 C403.013,253.28 397.993,243.849 397.458,242.906 L397.458,242.906 C392.017,244.872 390.147,246.964 384.708,243.942 L384.708,243.942 C384.779,245.007 384.532,245.984 383.977,246.88 L383.977,246.88 C380.82,246.327 377.985,244.833 374.952,243.774 L374.952,243.774 C374.963,244.421 374.357,246.382 374.404,247.102 L374.404,247.102 C371.698,245.49 369.179,243.612 366.453,242.016 L366.453,242.016 C367.31,245.857 367.158,250.01 365.432,253.581 z" fill="url(#Gradient_10)" id="path935"/>
    <path d="M365.433,253.58 C367.158,250.01 367.31,245.856 366.454,242.016 C369.179,243.612 371.699,245.489 374.404,247.102 C374.357,246.382 374.963,244.421 374.953,243.774 C377.985,244.832 380.821,246.327 383.977,246.88 C384.533,245.983 384.779,245.007 384.708,243.942 C390.148,246.964 392.018,244.872 397.458,242.905 C397.994,243.849 403.013,253.28 403.155,254.291" fill-opacity="0" stroke="#6FA33E" stroke-width="1.423" stroke-linecap="round" stroke-linejoin="round" id="path937"/>
    <path d="M340.529,232.231 L346.038,232.732 C345.219,231.803 343.24,230.881 342.769,228.933 L342.769,228.933 C341.982,229.721 340.967,231.062 340.529,232.231 z M346.518,232.775 L351.213,233.202 C351.405,232.095 351.252,231.039 351.649,230.014 L351.649,230.014 C349.326,230.905 348.315,231.012 346.518,232.775 z M351.543,233.232 L358.266,233.843 C358.682,232.664 358.579,231.535 359.174,230.293 L359.174,230.293 C356.491,230.829 353.841,231.738 351.543,233.232 z M362.405,234.171 C361.681,233.675 362.072,233.009 361.738,232.322 L361.738,232.322 C361.008,232.766 359.428,233.132 358.394,233.855 L358.394,233.855 L371.837,235.077 C372.477,233.999 372.846,232.119 373.221,230.988 L373.221,230.988 C369.462,231.473 365.814,232.52 362.405,234.171 z M346.26,233.035 C346.348,232.945 346.434,232.858 346.518,232.775 L346.518,232.775 L346.038,232.732 C346.126,232.832 346.202,232.933 346.26,233.035 z M351.154,233.493 C351.282,233.404 351.412,233.317 351.543,233.232 L351.543,233.232 L351.213,233.202 C351.196,233.299 351.177,233.396 351.154,233.493 z M358.211,233.992 C358.27,233.945 358.331,233.899 358.394,233.855 L358.394,233.855 L358.266,233.843 C358.248,233.893 358.23,233.942 358.211,233.992 z" fill="url(#Gradient_11)" id="path939"/>
    <g id="g1195">
      <path d="M340.529,232.231 C340.966,231.061 341.981,229.72 342.769,228.932 C343.291,231.091 345.666,231.991 346.259,233.035 C348.222,231.02 349.217,230.947 351.648,230.013 C351.217,231.128 351.436,232.28 351.153,233.494 C353.539,231.843 356.338,230.859 359.174,230.293 C358.554,231.586 358.692,232.758 358.211,233.992 C359.231,233.176 360.963,232.792 361.737,232.322 C362.071,233.008 361.68,233.674 362.404,234.171 C365.813,232.52 369.462,231.473 373.22,230.987 C372.846,232.119 372.476,233.999 371.837,235.077" fill-opacity="0" stroke="#6FA33E" stroke-width="1.423" stroke-linecap="round" stroke-linejoin="round" id="path941"/>
      <g id="g947">
        <path d="M345.508,294.858 C345.654,291.145 344.987,286.515 343.016,283.509 C346.098,284.501 348.567,286.764 351.215,288.65 C351.235,287.565 352.566,284.186 352.518,283.335 C353.472,285.205 355.692,286.587 356.733,288.343 C357.345,287.363 358.609,286.679 359.245,285.725 C359.659,287.121 361.799,289.174 362.125,290.111 C363.24,288.272 365.225,287.703 366.437,286.353 C367.053,288.225 368.707,290.512 368.926,292.585 C370.736,290.475 372.8,288.462 374.764,286.436 C375.152,287.02 375.67,287.72 376.047,288.34 C378.318,284.119 381.868,279.832 386.2,277.608 C384.26,282.223 380.911,287.78 380.151,293.494 C383.007,289.27 386.635,285.213 391.529,283.486 C391.432,284.786 392.159,286.794 391.701,288.353 C392.318,286.208 394.325,285.051 395.362,283.322 C395.908,284.337 397.451,285.213 398.047,286.751 C398.236,285.356 399.314,284.241 399.6,282.903 C400.51,284.561 401.931,285.265 402.578,287.033 C402.867,285.507 404.383,283.186 404.713,281.265 C407.129,284.608 413.613,293.137 410.983,294.858" fill="#519B42" id="path943"/>
        <path d="M345.508,294.858 C345.654,291.145 344.987,286.515 343.016,283.509 C346.098,284.501 348.567,286.764 351.215,288.65 C351.235,287.565 352.566,284.186 352.518,283.335 C353.472,285.205 355.692,286.587 356.733,288.343 C357.345,287.363 358.609,286.679 359.245,285.725 C359.659,287.121 361.799,289.174 362.125,290.111 C363.24,288.272 365.225,287.703 366.437,286.353 C367.053,288.225 368.707,290.512 368.926,292.585 C370.736,290.475 372.8,288.462 374.764,286.436 C375.152,287.02 375.67,287.72 376.047,288.34 C378.318,284.119 381.868,279.832 386.2,277.608 C384.26,282.223 380.911,287.78 380.151,293.494 C383.007,289.27 386.635,285.213 391.529,283.486 C391.432,284.786 392.159,286.794 391.701,288.353 C392.318,286.208 394.325,285.051 395.362,283.322 C395.908,284.337 397.451,285.213 398.047,286.751 C398.236,285.356 399.314,284.241 399.6,282.903 C400.51,284.561 401.931,285.265 402.578,287.033 C402.867,285.507 404.383,283.186 404.713,281.265 C407.129,284.608 413.613,293.137 410.983,294.858" fill-opacity="0" stroke="#6FA33E" stroke-width="1.423" stroke-linecap="round" stroke-linejoin="round" id="path945"/>
      </g>
      <g id="g953">
        <path d="M281.459,296.99 C281.604,293.281 280.937,288.649 278.966,285.645 C282.048,286.636 284.521,288.899 287.165,290.782 C287.186,289.701 288.513,286.322 288.472,285.467 C289.429,287.336 291.648,288.723 292.683,290.478 C293.299,289.492 294.559,288.814 295.195,287.861 C295.61,289.249 297.749,291.31 298.072,292.244 C299.194,290.408 301.175,289.836 302.391,288.481 C303,290.361 304.658,292.651 304.877,294.717 C306.689,292.611 308.751,290.596 310.718,288.572 C311.108,289.155 311.621,289.855 311.998,290.475 C314.269,286.251 317.818,281.967 322.147,279.743 C320.21,284.361 316.858,289.916 316.101,295.63 C318.954,291.405 322.582,287.346 327.483,285.618 C327.382,286.918 328.109,288.929 327.654,290.489 C328.268,288.343 330.275,287.187 331.313,285.456 C331.855,286.473 333.405,287.346 333.994,288.886 C334.183,287.491 335.268,286.376 335.551,285.039 C336.46,286.696 337.885,287.396 338.528,289.169 C338.818,287.639 340.334,285.321 340.664,283.401 C343.083,286.74 349.563,295.272 346.933,296.99" fill="#519B42" id="path949"/>
        <path d="M281.459,296.99 C281.604,293.281 280.937,288.649 278.966,285.645 C282.048,286.636 284.521,288.899 287.165,290.782 C287.186,289.701 288.513,286.322 288.472,285.467 C289.429,287.336 291.648,288.723 292.683,290.478 C293.299,289.492 294.559,288.814 295.195,287.861 C295.61,289.249 297.749,291.31 298.072,292.244 C299.194,290.408 301.175,289.836 302.391,288.481 C303,290.361 304.658,292.651 304.877,294.717 C306.689,292.611 308.751,290.596 310.718,288.572 C311.108,289.155 311.621,289.855 311.998,290.475 C314.269,286.251 317.818,281.967 322.147,279.743 C320.21,284.361 316.858,289.916 316.101,295.63 C318.954,291.405 322.582,287.346 327.483,285.618 C327.382,286.918 328.109,288.929 327.654,290.489 C328.268,288.343 330.275,287.187 331.313,285.456 C331.855,286.473 333.405,287.346 333.994,288.886 C334.183,287.491 335.268,286.376 335.551,285.039 C336.46,286.696 337.885,287.396 338.528,289.169 C338.818,287.639 340.334,285.321 340.664,283.401 C343.083,286.74 349.563,295.272 346.933,296.99" fill-opacity="0" stroke="#6FA33E" stroke-width="1.423" stroke-linecap="round" stroke-linejoin="round" id="path951"/>
      </g>
      <g id="g959">
        <path d="M215.988,295.568 C216.133,291.856 215.466,287.224 213.495,284.223 C216.577,285.214 219.05,287.47 221.694,289.357 C221.715,288.279 223.045,284.897 222.998,284.042 C223.954,285.915 226.171,287.298 227.212,289.053 C227.828,288.07 229.088,287.389 229.724,286.436 C230.138,287.828 232.278,289.885 232.601,290.819 C233.723,288.986 235.7,288.414 236.92,287.059 C237.533,288.936 239.187,291.226 239.406,293.292 C241.218,291.186 243.279,289.174 245.244,287.15 C245.634,287.733 246.146,288.43 246.523,289.05 C248.797,284.83 252.344,280.542 256.683,278.318 C254.739,282.936 251.387,288.491 250.63,294.208 C253.483,289.983 257.114,285.921 262.009,284.196 C261.908,285.497 262.638,287.505 262.18,289.064 C262.797,286.918 264.801,285.766 265.839,284.028 C266.384,285.048 267.93,285.921 268.523,287.461 C268.712,286.069 269.793,284.951 270.08,283.614 C270.989,285.274 272.411,285.975 273.057,287.747 C273.347,286.217 274.863,283.9 275.189,281.98 C277.608,285.318 284.09,293.847 281.459,295.568" fill="#519B42" id="path955"/>
        <path d="M215.988,295.568 C216.133,291.856 215.466,287.224 213.495,284.223 C216.577,285.214 219.05,287.47 221.694,289.357 C221.715,288.279 223.045,284.897 222.998,284.042 C223.954,285.915 226.171,287.298 227.212,289.053 C227.828,288.07 229.088,287.389 229.724,286.436 C230.138,287.828 232.278,289.885 232.601,290.819 C233.723,288.986 235.7,288.414 236.92,287.059 C237.533,288.936 239.187,291.226 239.406,293.292 C241.218,291.186 243.279,289.174 245.244,287.15 C245.634,287.733 246.146,288.43 246.523,289.05 C248.797,284.83 252.344,280.542 256.683,278.318 C254.739,282.936 251.387,288.491 250.63,294.208 C253.483,289.983 257.114,285.921 262.009,284.196 C261.908,285.497 262.638,287.505 262.18,289.064 C262.797,286.918 264.801,285.766 265.839,284.028 C266.384,285.048 267.93,285.921 268.523,287.461 C268.712,286.069 269.793,284.951 270.08,283.614 C270.989,285.274 272.411,285.975 273.057,287.747 C273.347,286.217 274.863,283.9 275.189,281.98 C277.608,285.318 284.09,293.847 281.459,295.568" fill-opacity="0" stroke="#6FA33E" stroke-width="1.423" stroke-linecap="round" stroke-linejoin="round" id="path957"/>
      </g>
      <g id="g965">
        <path d="M150.517,295.568 C150.662,291.856 149.995,287.224 148.021,284.223 C151.106,285.214 153.576,287.47 156.223,289.357 C156.244,288.279 157.571,284.897 157.527,284.042 C158.483,285.915 160.704,287.298 161.741,289.053 C162.354,288.07 163.617,287.389 164.254,286.436 C164.665,287.828 166.804,289.885 167.131,290.819 C168.249,288.986 170.233,288.414 171.446,287.059 C172.059,288.936 173.713,291.226 173.935,293.292 C175.747,291.186 177.809,289.174 179.773,287.15 C180.16,287.733 180.676,288.43 181.056,289.05 C183.323,284.83 186.873,280.542 191.209,278.318 C189.268,282.936 185.917,288.491 185.156,294.208 C188.012,289.983 191.64,285.921 196.538,284.196 C196.437,285.497 197.164,287.505 196.71,289.064 C197.326,286.918 199.334,285.766 200.368,284.028 C200.913,285.048 202.46,285.921 203.053,287.461 C203.241,286.069 204.323,284.951 204.609,283.614 C205.515,285.274 206.943,285.975 207.583,287.747 C207.877,286.217 209.392,283.9 209.719,281.98 C212.135,285.318 218.619,293.847 215.988,295.568" fill="#519B42" id="path961"/>
        <path d="M150.517,295.568 C150.662,291.856 149.995,287.224 148.021,284.223 C151.106,285.214 153.576,287.47 156.223,289.357 C156.244,288.279 157.571,284.897 157.527,284.042 C158.483,285.915 160.704,287.298 161.741,289.053 C162.354,288.07 163.617,287.389 164.254,286.436 C164.665,287.828 166.804,289.885 167.131,290.819 C168.249,288.986 170.233,288.414 171.446,287.059 C172.059,288.936 173.713,291.226 173.935,293.292 C175.747,291.186 177.809,289.174 179.773,287.15 C180.16,287.733 180.676,288.43 181.056,289.05 C183.323,284.83 186.873,280.542 191.209,278.318 C189.268,282.936 185.917,288.491 185.156,294.208 C188.012,289.983 191.64,285.921 196.538,284.196 C196.437,285.497 197.164,287.505 196.71,289.064 C197.326,286.918 199.334,285.766 200.368,284.028 C200.913,285.048 202.46,285.921 203.053,287.461 C203.241,286.069 204.323,284.951 204.609,283.614 C205.515,285.274 206.943,285.975 207.583,287.747 C207.877,286.217 209.392,283.9 209.719,281.98 C212.135,285.318 218.619,293.847 215.988,295.568" fill-opacity="0" stroke="#6FA33E" stroke-width="1.423" stroke-linecap="round" stroke-linejoin="round" id="path963"/>
      </g>
      <g id="g971">
        <path d="M86.468,296.99 C86.613,293.281 85.946,288.649 83.972,285.645 C87.057,286.636 89.527,288.899 92.174,290.782 C92.191,289.701 93.522,286.322 93.478,285.467 C94.435,287.336 96.651,288.723 97.692,290.478 C98.308,289.492 99.568,288.814 100.205,287.861 C100.616,289.249 102.755,291.31 103.082,292.244 C104.2,290.408 106.181,289.836 107.397,288.481 C108.01,290.361 109.667,292.651 109.886,294.717 C111.698,292.611 113.76,290.596 115.727,288.572 C116.111,289.155 116.626,289.855 117.007,290.475 C119.278,286.251 122.828,281.967 127.16,279.743 C125.223,284.361 121.868,289.916 121.11,295.63 C123.963,291.405 127.591,287.346 132.489,285.618 C132.388,286.918 133.119,288.929 132.661,290.489 C133.277,288.343 135.285,287.187 136.319,285.456 C136.864,286.473 138.411,287.346 139.004,288.886 C139.192,287.491 140.274,286.376 140.563,285.039 C141.469,286.696 142.894,287.396 143.534,289.169 C143.827,287.639 145.343,285.321 145.673,283.401 C148.085,286.74 154.57,295.272 151.939,296.99" fill="#519B42" id="path967"/>
        <path d="M86.468,296.99 C86.613,293.281 85.946,288.649 83.972,285.645 C87.057,286.636 89.527,288.899 92.174,290.782 C92.191,289.701 93.522,286.322 93.478,285.467 C94.435,287.336 96.651,288.723 97.692,290.478 C98.308,289.492 99.568,288.814 100.205,287.861 C100.616,289.249 102.755,291.31 103.082,292.244 C104.2,290.408 106.181,289.836 107.397,288.481 C108.01,290.361 109.667,292.651 109.886,294.717 C111.698,292.611 113.76,290.596 115.727,288.572 C116.111,289.155 116.626,289.855 117.007,290.475 C119.278,286.251 122.828,281.967 127.16,279.743 C125.223,284.361 121.868,289.916 121.11,295.63 C123.963,291.405 127.591,287.346 132.489,285.618 C132.388,286.918 133.119,288.929 132.661,290.489 C133.277,288.343 135.285,287.187 136.319,285.456 C136.864,286.473 138.411,287.346 139.004,288.886 C139.192,287.491 140.274,286.376 140.563,285.039 C141.469,286.696 142.894,287.396 143.534,289.169 C143.827,287.639 145.343,285.321 145.673,283.401 C148.085,286.74 154.57,295.272 151.939,296.99" fill-opacity="0" stroke="#6FA33E" stroke-width="1.423" stroke-linecap="round" stroke-linejoin="round" id="path969"/>
      </g>
      <g id="g977">
        <path d="M31.669,295.568 C31.817,291.856 31.147,287.224 29.176,284.223 C32.258,285.214 34.731,287.47 37.378,289.357 C37.396,288.279 38.726,284.897 38.679,284.042 C39.639,285.915 41.856,287.298 42.896,289.053 C43.509,288.07 44.769,287.389 45.409,286.436 C45.82,287.828 47.959,289.885 48.283,290.819 C49.404,288.986 51.385,288.414 52.601,287.059 C53.214,288.936 54.868,291.226 55.087,293.292 C56.903,291.186 58.961,289.174 60.928,287.15 C61.315,287.733 61.831,288.43 62.211,289.05 C64.482,284.83 68.029,280.542 72.364,278.318 C70.424,282.936 67.072,288.491 66.315,294.208 C69.168,289.983 72.795,285.921 77.693,284.196 C77.592,285.497 78.323,287.505 77.865,289.064 C78.478,286.918 80.489,285.766 81.523,284.028 C82.065,285.048 83.615,285.921 84.205,287.461 C84.397,286.069 85.478,284.951 85.768,283.614 C86.67,285.274 88.095,285.975 88.739,287.747 C89.028,286.217 90.544,283.9 90.875,281.98 C93.29,285.318 99.774,293.847 97.143,295.568" fill="#519B42" id="path973"/>
        <path d="M31.669,295.568 C31.817,291.856 31.147,287.224 29.176,284.223 C32.258,285.214 34.731,287.47 37.378,289.357 C37.396,288.279 38.726,284.897 38.679,284.042 C39.639,285.915 41.856,287.298 42.896,289.053 C43.509,288.07 44.769,287.389 45.409,286.436 C45.82,287.828 47.959,289.885 48.283,290.819 C49.404,288.986 51.385,288.414 52.601,287.059 C53.214,288.936 54.868,291.226 55.087,293.292 C56.903,291.186 58.961,289.174 60.928,287.15 C61.315,287.733 61.831,288.43 62.211,289.05 C64.482,284.83 68.029,280.542 72.364,278.318 C70.424,282.936 67.072,288.491 66.315,294.208 C69.168,289.983 72.795,285.921 77.693,284.196 C77.592,285.497 78.323,287.505 77.865,289.064 C78.478,286.918 80.489,285.766 81.523,284.028 C82.065,285.048 83.615,285.921 84.205,287.461 C84.397,286.069 85.478,284.951 85.768,283.614 C86.67,285.274 88.095,285.975 88.739,287.747 C89.028,286.217 90.544,283.9 90.875,281.98 C93.29,285.318 99.774,293.847 97.143,295.568" fill-opacity="0" stroke="#6FA33E" stroke-width="1.423" stroke-linecap="round" stroke-linejoin="round" id="path975"/>
      </g>
      <g id="g983">
        <path d="M3.204,296.283 C3.349,292.571 2.682,287.935 0.711,284.934 C3.794,285.921 6.263,288.184 8.911,290.071 C8.927,288.986 10.261,285.611 10.214,284.756 C11.171,286.629 13.387,288.01 14.428,289.768 C15.045,288.784 16.305,288.104 16.941,287.15 C17.355,288.542 19.495,290.596 19.814,291.533 C20.936,289.697 22.92,289.128 24.133,287.774 C24.746,289.646 26.403,291.937 26.622,294.006 C28.431,291.897 30.496,289.886 32.46,287.861 C32.848,288.444 33.363,289.145 33.743,289.762 C36.014,285.544 39.564,281.253 43.892,279.032 C41.956,283.647 38.604,289.206 37.846,294.919 C40.699,290.691 44.324,286.636 49.228,284.911 C49.124,286.208 49.855,288.219 49.4,289.774 C50.01,287.633 52.021,286.477 53.055,284.742 C53.601,285.76 55.15,286.636 55.74,288.172 C55.929,286.78 57.013,285.665 57.296,284.324 C58.205,285.981 59.627,286.689 60.274,288.458 C60.563,286.929 62.079,284.614 62.41,282.687 C64.825,286.029 71.309,294.558 68.675,296.283" fill="#519B42" id="path979"/>
        <path d="M3.204,296.283 C3.349,292.571 2.682,287.935 0.711,284.934 C3.794,285.921 6.263,288.184 8.911,290.071 C8.927,288.986 10.261,285.611 10.214,284.756 C11.171,286.629 13.387,288.01 14.428,289.768 C15.045,288.784 16.305,288.104 16.941,287.15 C17.355,288.542 19.495,290.596 19.814,291.533 C20.936,289.697 22.92,289.128 24.133,287.774 C24.746,289.646 26.403,291.937 26.622,294.006 C28.431,291.897 30.496,289.886 32.46,287.861 C32.848,288.444 33.363,289.145 33.743,289.762 C36.014,285.544 39.564,281.253 43.892,279.032 C41.956,283.647 38.604,289.206 37.846,294.919 C40.699,290.691 44.324,286.636 49.228,284.911 C49.124,286.208 49.855,288.219 49.4,289.774 C50.01,287.633 52.021,286.477 53.055,284.742 C53.601,285.76 55.15,286.636 55.74,288.172 C55.929,286.78 57.013,285.665 57.296,284.324 C58.205,285.981 59.627,286.689 60.274,288.458 C60.563,286.929 62.079,284.614 62.41,282.687 C64.825,286.029 71.309,294.558 68.675,296.283" fill-opacity="0" stroke="#6FA33E" stroke-width="1.423" stroke-linecap="round" stroke-linejoin="round" id="path981"/>
      </g>
      <path d="M369.007,231.375 C369.007,240.412 321.727,247.735 263.406,247.735 C205.088,247.735 157.81,240.412 157.81,231.375 C157.81,222.337 205.088,215.014 263.406,215.014 C321.727,215.014 369.007,222.337 369.007,231.375" fill="#BABEBC" id="path985"/>
      <path d="M270.845,253.685 C270.845,262.719 223.568,270.042 165.248,270.042 C106.925,270.042 59.648,262.719 59.648,253.685 C59.648,244.651 106.925,237.324 165.248,237.324 C223.568,237.324 270.845,244.651 270.845,253.685" fill="#BABEBC" id="path987"/>
      <path d="M300.615,2.139 C305.173,5.208 309.269,10.045 312.152,14.421 C312.244,17.489 311.964,19.722 311.779,22.609 C313.732,23.26 316.525,22.609 318.664,23.815 C319.779,25.958 320.058,28.935 319.688,31.354 C318.849,44.195 318.573,56.941 318.013,70.342 C317.081,87.926 317.92,105.048 315.966,122.261 C316.34,126.913 315.686,131.75 314.011,136.126 C314.851,136.681 313.453,136.965 314.106,137.52 C311.314,140.407 308.06,143.102 304.428,144.5 C294.286,144.221 283.308,142.361 273.071,142.826 C272.7,145.804 272.235,149.522 269.072,150.361 C267.304,151.2 265.441,150.266 263.393,150.547 L263.393,151.105 C266.465,156.502 269.534,161.993 272.791,167.295 C273.071,166.551 273.815,167.018 274.284,167.109 C287.495,179.391 300.147,192.323 311.129,206.377 C313.732,209.819 317.734,211.867 319.688,215.586 C320.153,216.98 319.594,218.47 318.849,219.588 C317.269,220.889 315.316,221.912 313.177,221.263 C307.777,219.494 304.614,213.538 300.615,210.005 L300.707,209.819 C300.147,209.449 299.777,209.26 299.218,208.889 C299.871,211.214 302.101,213.168 303.219,215.401 C307.686,221.077 309.269,227.962 313.641,233.639 C314.197,235.036 314.197,237.081 312.988,238.199 C310.943,239.314 308.616,240.803 306.288,240.153 C304.893,239.314 302.939,238.664 303.125,236.616 C292.703,222.195 286.842,205.723 278.096,190.743 C272.98,179.482 266.094,169.343 259.859,158.456 C257.811,164.597 253.904,170.088 252.88,176.693 C249.158,187.301 246.648,198.747 242.926,209.54 C241.902,215.216 239.578,220.517 238.644,225.914 C238.274,227.497 237.435,229.263 236.97,230.94 C235.572,235.036 235.761,239.779 233.622,243.501 C232.783,244.805 231.2,246.011 229.715,244.99 C227.663,243.875 224.688,242.757 224.688,239.873 C225.244,231.59 228.687,224.24 230.735,216.425 C236.226,201.722 241.157,186.556 246.648,172.041 C239.295,181.345 233.807,191.582 226.177,200.515 C220.872,208.236 216.126,216.331 210.824,224.055 C207.845,228.056 206.172,232.708 201.24,234.847 C199.472,235.312 198.262,234.194 197.053,233.174 C193.331,230.846 197.798,228.151 198.448,225.732 C206.636,214.007 215.661,202.186 223.385,190.278 C232.689,176.598 241.622,162.643 250.646,148.872 C248.878,148.313 247.483,147.01 247.483,145.056 C246.834,143.661 248.972,140.778 246.274,141.057 C234.366,140.498 220.967,137.8 209.429,137.146 C208.219,136.5 206.451,136.681 205.798,135.011 C204.868,130.262 210.453,129.056 212.777,126.077 C213.616,124.774 215.756,125.612 216.126,123.935 C217.335,109.235 214.176,94.999 215.475,79.925 C215.756,71.46 216.87,62.526 217.15,53.778 C217.523,52.384 217.244,50.056 217.988,48.197 C219.289,38.984 218.638,29.96 220.222,21.12 C221.802,19.908 223.944,20.002 225.709,19.258 C245.065,14.235 263.393,6.512 283.028,2.045 C287.96,0.93 292.891,-0 298.102,-0 z" fill="#242323" id="path989"/>
      <path d="M296.425,1.671 C296.425,8.93 296.149,14.886 295.59,21.956 C290.47,18.234 282.469,16.839 276.793,20.282 C269.629,24.654 264.047,32.284 265.535,40.658 C267.21,47.733 273.91,53.594 281.355,54.617 C285.912,54.894 290.753,53.688 294.846,51.731 L295.59,51.731 C295.219,61.597 295.59,69.689 294.566,79.552 C293.821,78.811 292.518,78.716 291.683,78.527 C290.099,80.017 288.146,80.39 286.377,81.414 C286.471,80.855 285.818,80.764 285.541,80.575 C282.749,73.226 279.772,65.875 273.63,60.109 C266.651,59.175 263.487,66.435 258.186,69.689 C256.973,69.038 257.252,67.458 256.322,66.525 C251.206,60.199 250.367,52.105 247.669,44.849 C246.369,43.451 245.066,40.847 242.832,41.403 C232.783,45.03 232.69,56.757 224.689,62.991 C221.897,66.245 219.104,69.877 217.151,73.691 C218.08,66.245 218.08,59.64 218.824,52.105 C220.781,51.175 223.291,51.731 224.874,49.871 C225.804,48.662 226.643,47.079 226.083,45.404 L224.5,44.01 C233.339,39.823 243.391,38.52 251.857,33.497 C252.786,32.658 253.254,31.449 253.53,30.519 L252.696,29.68 C248.413,28.936 244.506,30.145 240.413,30.519 C241.157,29.589 241.996,28.192 241.622,26.982 L241.252,26.611 C234.273,27.541 227.663,29.306 221.337,32.008 L220.684,32.008 C220.684,28.656 221.432,25.213 221.337,22.236 C226.363,19.632 231.945,18.793 237.436,17.119 C244.971,14.795 252.51,12.558 259.671,9.674 C263.768,9.21 267.21,7.442 271.121,6.512 C279.212,4.373 287.775,1.765 296.425,1.671" fill="#ADD6DF" id="path991"/>
      <path d="M310.293,14.421 C311.873,18.702 305.453,20.747 305.918,25.123 C305.173,29.495 309.546,32.658 308.431,37.31 C307.036,41.312 305.173,44.66 305.918,49.221 C307.592,53.129 307.222,57.966 305.453,61.597 C303.404,67.27 310.943,72.571 305.453,77.412 C304.338,81.229 303.125,85.228 305.638,88.579 C308.431,93.976 303.594,98.813 304.799,104.488 C305.173,108.771 308.99,113.143 305.918,117.238 C303.125,120.587 301.73,124.865 303.594,129.147 C301.545,130.544 302.102,135.102 298.382,133.333 L295.869,132.963 C296.055,127.283 294.846,121.237 295.03,115.376 C294.751,109.515 294.846,103.094 295.59,97.604 C295.869,88.391 296.24,79.646 296.52,69.972 C296.334,52.011 298.382,35.821 297.358,18.608 C297.823,12.652 297.823,8.556 298.103,2.324 C302.755,5.208 306.848,10.234 310.293,14.421" fill="#FEFEFE" id="path993"/>
      <path d="M292.703,12.188 L292.332,13.023 C290.563,12.188 288.334,12.653 286.471,12.094 C287.216,10.699 289.634,11.164 291.218,11.353 C291.773,11.535 292.332,11.629 292.703,12.188" fill="#242323" id="path995"/>
      <path d="M305.082,13.582 C305.732,15.071 305.173,16.465 304.429,17.769 C303.869,18.702 302.849,18.608 302.102,19.073 C300.147,18.514 300.986,16.284 300.707,14.7 C300.801,13.582 301.545,12.558 302.566,11.908 C303.869,11.723 304.429,12.747 305.082,13.582" fill="#242323" id="path997"/>
      <path d="M303.778,16.284 C303.593,17.025 302.939,17.679 302.101,17.769 C301.08,16.655 301.825,15.071 302.101,13.862 C302.29,13.677 302.755,13.117 303.125,13.582 C304.152,14.512 303.964,14.977 303.778,16.284" fill="#FEFEFE" id="path999"/>
      <path d="M285.353,15.26 C284.983,16.095 284.33,15.442 283.865,15.442 C281.82,15.816 279.866,16.466 278.097,17.584 L277.448,17.399 C278.003,15.816 280.145,15.165 281.631,14.606 C283.029,15.071 285.727,12.747 285.353,15.26" fill="#242323" id="path1001"/>
      <path d="M87.35,16.749 C88.93,18.419 90.234,20.374 90.419,22.792 C92.097,20.838 94.235,19.073 96.563,18.793 C104.937,15.91 114.986,16.466 122.056,22.145 C124.754,27.167 128.85,32.844 125.034,38.705 L129.036,42.707 L128.941,42.892 C131.175,42.427 133.967,42.707 135.736,44.566 C139.553,49.033 140.293,54.618 139.643,60.665 C138.805,62.992 136.76,64.851 138.249,67.458 C142.342,66.994 146.994,67.27 149.971,70.528 C151.181,72.666 149.506,74.53 148.297,76.204 C144.39,79.181 139.643,80.017 134.897,81.229 C129.966,87.276 124.289,92.207 117.869,96.3 C118.24,97.604 119.079,98.908 119.543,100.302 C128.571,98.908 137.316,96.954 145.134,92.582 C150.621,86.251 158.44,80.95 167.09,81.6 C172.116,78.437 177.048,75.085 182.164,72.202 C184.957,69.972 189.7,70.063 190.727,65.781 C193.237,61.224 196.588,57.407 198.077,52.384 C198.913,51.082 200.405,52.011 201.426,52.291 C205.428,54.8 207.566,59.27 209.8,63.177 C210.174,64.481 209.985,66.155 208.496,66.805 C203.474,69.503 197.798,70.342 192.866,73.226 C192.587,73.691 192.213,74.156 191.562,74.061 C185.142,82.159 175.933,88.391 167.464,93.605 C167.279,99.931 161.229,103.933 156.206,106.352 C154.344,106.817 152.296,107.467 150.342,107.376 C149.783,108.306 152.201,108.865 150.807,109.889 C148.112,114.352 142.715,115.376 138.249,117.424 C134.432,119.374 130.431,119.749 126.429,121.422 C129.13,126.728 134.991,129.238 139.923,131.939 C141.782,130.821 144.016,130.262 146.155,130.262 C147.923,129.891 149.783,129.706 151.645,129.796 C151.46,128.402 150.716,126.542 151.645,125.24 C153.414,123.75 155.832,123.376 158.066,123.565 C160.764,125.148 162.623,127.843 162.903,131.009 C171.466,130.821 179.186,133.988 186.537,137.335 C193.237,141.432 198.077,148.314 198.077,156.223 C197.889,159.11 197.239,161.623 196.4,164.506 C195.005,167.019 193.796,169.249 192.401,171.667 C185.233,179.207 173.979,182.275 163.742,178.372 C156.206,175.019 155.368,166.271 152.016,159.945 C148.668,155.944 142.527,156.502 140.108,151.942 C139.269,150.453 138.993,148.408 137.41,147.57 C136.76,147.758 135.642,148.314 134.803,147.849 C132.108,147.01 129.686,145.521 127.267,144.036 C126.803,147.478 127.642,151.942 125.219,154.738 C125.873,155.479 126.523,156.502 126.897,157.432 C128.756,166.736 128.756,176.694 129.036,186.277 C129.501,198.933 130.151,212.144 131.08,224.615 C130.619,226.663 131.269,228.427 131.549,230.661 C131.734,232.8 132.014,235.501 131.919,237.826 C140.014,240.619 150.251,242.013 154.064,251.596 C154.344,252.897 154.344,254.668 153.32,255.784 C150.807,258.206 147.553,258.761 144.295,259.412 C138.619,263.414 131.08,263.414 124.195,263.972 C119.358,263.787 114.15,264.251 109.124,263.598 C108.286,263.414 107.541,262.389 106.797,261.924 L105.493,263.133 L95.725,261.924 C94.141,261.459 93.397,259.695 92.561,258.387 C92.561,254.015 92.932,249.548 94.05,245.176 C92.841,244.152 90.702,244.9 89.863,243.037 C90.234,239.129 91.163,234.943 91.072,230.661 C90.793,215.493 92.467,202.561 90.234,187.581 C88.374,184.324 84.746,182.275 83.537,178.836 C81.209,173.157 83.537,167.295 83.537,161.434 C83.722,159.945 85.117,159.11 84.372,157.248 C82.328,148.314 82.698,138.455 82.698,129.332 C82.139,129.056 82.419,128.591 82.328,128.126 L82.698,127.752 C82.792,118.819 81.859,110.259 82.139,101.791 C76.743,99.558 70.602,96.119 67.624,90.809 C62.137,90.627 58.505,85.322 56.926,80.855 C56.087,76.018 57.111,71.642 60.554,68.2 C61.298,67.644 63.066,67.55 62.787,66.526 C61.204,64.107 57.946,64.851 57.017,61.78 C53.389,57.407 47.062,54.335 45.853,48.382 C44.829,46.055 46.129,43.542 46.688,41.498 C53.294,34.892 59.994,27.912 69.113,25.77 C72.371,25.214 74.977,25.958 77.861,26.423 C76.652,24.935 74.418,23.911 74.789,21.771 C74.789,19.538 75.813,17.025 77.955,15.725 C80.745,14.421 85.208,14.421 87.35,16.749" fill="#242323" id="path1003"/>
      <path d="M275.305,15.442 C275.305,15.816 275.399,16.19 274.934,16.375 C270.094,17.305 267.49,22.981 263.768,25.587 L263.582,25.123 C267.116,21.027 269.818,16.84 274.934,14.886 z" fill="#242323" id="path1005"/>
      <path d="M293.916,16.284 C294.101,16.84 293.542,16.93 293.171,17.119 C292.147,16.56 290.658,16.749 289.54,16.375 C289.354,15.91 289.729,15.725 290.005,15.442 C291.123,15.725 293.262,14.701 293.916,16.284" fill="#242323" id="path1007"/>
      <path d="M88.001,19.632 C90.329,22.701 87.351,25.77 87.166,28.936 C87.536,29.401 87.91,29.59 88.375,29.121 L88.375,28.656 L88.56,28.656 C90.143,24.28 93.771,20.282 98.608,19.632 C99.912,19.258 101.31,18.702 102.61,18.793 C109.405,18.049 116.196,19.353 121.407,23.445 C123.545,27.727 126.988,32.379 124.196,37.31 C121.777,38.611 119.638,40.382 116.661,40.382 C116.755,38.52 119.358,36.656 118.149,34.332 C117.964,33.123 118.055,31.355 116.475,30.984 C115.081,31.449 116.381,32.658 116.661,33.123 C117.311,35.542 116.475,37.775 114.986,39.54 L115.171,40.564 C107.266,41.497 100.192,44.381 92.562,45.873 C82.14,48.847 73.58,56.662 64.741,63.177 L62.878,65.316 C61.669,64.107 60.274,63.268 58.691,62.618 C57.67,59.92 54.878,58.336 52.83,56.477 C49.108,53.594 45.945,49.032 46.875,44.381 C49.017,40.658 53.11,37.586 55.713,34.703 C62.599,30.145 72.001,23.351 80.375,29.68 C80.93,29.96 81.21,29.212 81.304,28.841 C81.119,27.912 79.815,28.006 80.001,26.982 C78.232,25.028 74.79,23.26 76.184,20.097 C76.743,17.954 79.256,16.749 81.304,16.375 C84.188,15.91 86.512,17.584 88.001,19.632" fill="#D2342D" id="path1009"/>
      <path d="M309.64,32.19 C308.617,30.054 306.942,26.888 307.778,23.815 C308.522,22.236 308.896,20.562 310.293,19.443 C310.57,23.91 310.105,27.632 309.64,32.19" fill="#F1D291" id="path1011"/>
      <path d="M295.03,24.654 L295.59,24.748 C296.425,32.937 295.495,41.032 295.59,49.871 C290.193,53.219 281.631,54.428 275.958,51.451 C270.838,49.127 267.115,43.542 266.371,38.145 C266.839,31.633 270.652,25.863 276.608,22.144 C282.098,18.513 289.354,20.002 294.381,23.445 z" fill="#D8372F" id="path1013"/>
      <path d="M318.014,26.329 C318.664,37.031 316.805,47.453 316.991,58.62 C317.081,69.129 316.805,77.693 316.617,88.391 C317.27,101.79 314.662,115.75 314.478,129.426 C314.012,131.845 313.642,135.011 311.594,136.032 C311.964,136.5 311.78,137.242 311.964,137.8 C310.011,139.66 307.687,141.614 305.082,142.732 C293.357,142.638 280.89,140.779 268.605,141.058 C253.625,140.589 240.784,138.825 225.899,137.335 C220.314,136.5 213.428,136.406 207.941,134.823 C206.823,134.172 207.567,133.149 207.661,132.31 C210.544,130.262 212.498,126.263 216.5,126.263 C217.43,128.308 219.754,127.752 221.523,128.773 C229.62,129.238 237.994,131.009 246.275,131.939 C254.555,132.124 262.932,134.079 271.771,133.798 C276.514,134.358 282.469,134.079 287.681,134.637 C290.194,134.453 292.427,134.172 295.031,135.011 C297.543,134.263 300.522,135.658 302.94,135.193 C310.2,131.286 308.245,122.818 309.64,116.027 C309.64,109.515 308.71,102.536 309.826,95.094 C308.991,88.95 310.755,82.718 309.455,76.018 C308.896,66.526 308.245,56.757 310.293,46.894 C309.826,38.985 311.688,31.725 311.964,24.281 C313.921,24.749 317.27,23.911 318.014,26.329" fill="#E99C44" id="path1015"/>
      <path d="M261.534,26.793 C259.58,30.331 258.185,34.517 259.024,38.893 C258.741,38.985 258.65,39.541 258.185,39.358 C256.882,37.405 257.811,35.168 257.997,33.124 C259.024,30.983 258.93,27.633 261.534,26.793" fill="#242323" id="path1017"/>
      <path d="M265.909,26.793 C265.441,29.4 263.487,32.189 263.022,34.702 C262.464,34.517 262.373,35.45 261.908,34.702 C262.557,33.031 263.208,31.354 263.861,29.68 C264.512,28.656 264.882,27.258 265.909,26.793" fill="#242323" id="path1019"/>
      <path d="M240.319,28.656 C239.763,30.984 236.412,30.61 235.573,32.658 L235.947,33.031 C241.064,31.913 246.553,30.236 251.857,31.169 C251.581,33.497 248.508,34.332 246.461,35.167 C238.645,38.519 230.086,40.008 222.362,43.542 C222.362,44.01 221.431,44.195 221.711,44.848 C222.736,45.495 223.944,45.684 224.875,46.519 C225.06,47.732 224.5,48.473 223.849,49.22 C222.641,50.336 220.684,49.776 219.198,50.43 C219.384,44.939 220.781,39.263 220.499,33.867 C226.177,31.074 232.598,29.589 239.109,28.47 z" fill="#FEFEFE" id="path1021"/>
      <path d="M303.964,31.819 C304.243,33.123 304.059,34.611 303.404,35.635 C302.755,36.1 301.825,36.565 300.896,36.191 C299.777,35.167 299.777,33.214 300.057,31.633 C300.707,31.169 300.707,30.61 301.451,30.519 C302.567,30.236 303.404,30.984 303.964,31.819" fill="#242323" id="path1023"/>
      <path d="M302.94,33.497 C302.849,34.053 302.94,34.612 302.381,34.982 L302.29,34.797 C302.01,35.541 301.544,34.892 301.266,34.797 C300.708,34.147 300.708,32.843 301.266,32.19 C302.381,31.449 302.661,32.749 302.94,33.497" fill="#FEFEFE" id="path1025"/>
      <path d="M127.918,43.542 C125.22,45.404 124.849,48.847 124.849,52.105 C123.545,49.127 121.313,44.566 117.499,44.566 C112.847,45.313 108.007,47.732 106.982,52.755 C106.427,54.894 106.521,58.619 106.612,60.664 C99.262,63.642 90.793,64.757 83.349,68.015 L82.514,68.199 C83.073,65.131 82.608,61.408 83.723,58.619 C82.699,58.245 83.538,57.406 83.538,56.757 C83.258,55.082 83.258,53.129 83.538,51.451 C91.443,46.803 100.471,46.243 108.94,43.171 C113.592,41.217 119.264,43.36 123.175,39.729 C125.035,40.288 126.709,42.147 127.918,43.542" fill="#F0BC87" id="path1027"/>
      <path d="M308.245,50.896 C306.941,47.824 307.222,44.01 308.616,41.033 C308.99,43.731 308.616,47.733 308.245,50.896" fill="#F1D291" id="path1029"/>
      <path d="M263.208,43.36 C263.582,45.495 264.605,47.452 265.909,49.032 L265.535,49.871 C263.022,48.662 262.558,45.495 261.908,42.892 C261.999,41.032 263.208,42.521 263.208,43.36" fill="#242323" id="path1031"/>
      <path d="M247.857,49.032 C248.508,56.757 252.509,63.267 256.043,69.688 C255.02,69.971 253.905,70.527 252.879,70.153 C252.136,68.852 251.486,67.269 250.181,66.34 C247.113,66.993 244.785,69.688 241.438,69.129 C239.762,65.505 239.948,61.038 239.294,56.941 C238.645,56.106 239.109,54.893 238.275,54.058 C231.386,58.801 225.245,65.595 220.038,71.831 C223.106,65.221 231.109,59.175 233.899,51.73 C235.667,48.197 239.109,44.848 242.646,43.171 C245.81,43.077 246.649,46.893 247.857,49.032" fill="#AB533D" id="path1033"/>
      <path d="M136.76,48.197 C138.525,52.475 139.829,56.941 137.781,61.503 C136.386,55.358 134.247,49.592 130.619,44.38 C132.199,43.73 133.594,44.66 134.803,45.59 z" fill="#FEFEFE" id="path1035"/>
      <path d="M259.21,44.849 C259.486,47.268 261.069,49.127 262.373,51.081 C263.487,51.916 264.047,53.594 265.535,53.779 C265.535,53.964 265.627,54.059 265.721,54.059 C265.165,54.335 264.791,54.989 264.047,54.8 C261.254,52.011 257.997,48.662 258.836,44.849 z" fill="#242323" id="path1037"/>
      <path d="M136.481,62.803 C135.548,65.04 133.224,65.97 131.081,66.155 C127.453,62.991 126.614,58.336 126.429,53.594 C126.244,50.71 126.153,46.803 129.037,45.031 C132.665,50.245 135.548,56.477 136.481,62.803" fill="#FEFEFE" id="path1039"/>
      <path d="M303.22,47.358 C304.243,49.127 303.685,51.451 302.567,52.94 C302.196,53.313 301.545,53.593 301.08,53.219 L300.616,52.569 C300.242,52.754 299.871,53.034 299.404,52.94 C298.473,51.265 298.473,49.127 299.218,47.358 C299.497,46.709 300.242,46.337 300.896,46.054 C302.01,45.684 302.94,46.519 303.22,47.358" fill="#242323" id="path1041"/>
      <path d="M121.871,49.221 C124.754,54.243 126.152,59.92 124.569,65.505 C122.521,68.294 118.428,68.948 114.706,68.294 C111.823,67.55 109.404,65.131 108.66,62.338 C108.565,61.689 108.845,60.944 108.1,60.664 C107.45,55.642 108.006,50.245 112.847,47.733 C115.451,46.15 120.288,45.405 121.871,49.221" fill="#FEFEFE" id="path1043"/>
      <path d="M302.567,49.406 C302.754,50.245 302.29,51.265 301.916,52.104 C301.171,52.199 300.615,51.081 300.242,51.73 C299.871,50.801 299.497,49.776 299.871,48.756 C300.336,46.708 302.754,47.732 302.567,49.406" fill="#FEFEFE" id="path1045"/>
      <path d="M82.048,52.384 C81.954,54.429 82.139,56.197 81.859,58.245 C77.301,59.175 72.835,61.129 68.277,62.433 C72.276,59.735 76.928,54.524 82.048,52.384" fill="#A3BEAD" id="path1047"/>
      <path d="M274.654,55.082 C276.049,55.642 277.261,56.662 278.841,57.13 C279.026,58.336 277.538,57.966 276.978,57.777 C274.933,56.757 272.7,56.012 271.121,53.964 C271.026,53.313 271.121,53.129 271.586,52.755 C272.791,53.22 273.445,54.708 274.654,55.082" fill="#242323" id="path1049"/>
      <path d="M208.496,64.106 C209.244,65.78 207.29,65.689 206.637,66.525 C205.798,65.315 206.263,63.732 204.963,62.802 L202.265,62.619 C202.076,61.223 204.029,58.8 201.891,57.778 C200.216,57.313 198.448,58.619 196.774,59.084 C197.147,57.406 198.913,55.546 199.287,53.405 C204.218,54.893 206.078,60.291 208.496,64.106" fill="#D8372F" id="path1051"/>
      <path d="M132.108,55.642 C132.384,56.107 132.199,56.757 132.294,57.313 C131.825,57.778 131.455,56.942 131.081,56.942 C130.525,56.107 131.364,55.642 132.108,55.642" fill="#242323" id="path1053"/>
      <path d="M240.319,70.342 C244.506,73.691 250.647,62.803 252.046,71.831 C253.531,72.666 255.02,71.177 256.697,71.177 C255.673,74.155 252.51,76.392 250.462,78.902 C248.973,81.04 247.484,83.183 246.461,85.602 C244.042,84.113 240.414,89.695 239.296,84.392 C238.74,83.738 238.366,82.904 237.622,82.53 C232.505,82.065 227.013,87.185 222.362,82.718 C219.943,82.065 218.081,84.484 216.686,86.067 C216.686,83.183 216.686,79.834 217.151,76.857 C219.384,75.833 220.782,72.666 222.736,70.807 C226.923,65.222 232.319,60.29 237.622,56.288 C239.205,61.129 238.366,65.41 240.319,70.342" fill="#EED17C" id="path1055"/>
      <path d="M291.028,57.313 C288.704,58.801 286.282,58.62 283.678,58.246 C283.119,57.595 283.864,57.222 284.329,56.942 C286.562,57.778 289.354,56.757 291.028,56.572 z" fill="#242323" id="path1057"/>
      <path d="M121.218,57.313 C121.497,57.778 121.032,57.966 120.568,58.246 C120.103,58.431 119.729,57.872 119.729,57.595 C119.079,56.289 121.312,56.572 121.218,57.313" fill="#242323" id="path1059"/>
      <path d="M280.516,60.664 C280.702,61.688 279.307,61.314 278.842,61.597 C276.423,60.573 273.63,60.664 271.586,58.801 L271.956,57.777 C274.655,59.084 277.538,59.92 280.516,60.664" fill="#242323" id="path1061"/>
      <path d="M201.611,59.825 C201.146,60.943 200.405,62.244 200.961,63.641 C201.705,65.131 203.844,63.551 204.589,64.945 L204.774,66.993 C200.867,69.038 196.124,69.597 192.402,71.641 C192.213,70.527 191.472,69.412 190.354,69.038 C193.052,66.06 193.331,60.759 198.077,59.92 C199.287,59.92 200.496,58.619 201.611,59.825" fill="#FEFEFE" id="path1063"/>
      <path d="M81.859,59.825 C82.884,64.571 76.838,62.897 74.325,64.48 C70.882,65.131 68.464,67.458 64.741,66.34 C69.673,62.897 75.814,62.244 81.21,59.825 z" fill="#FEFEFE" id="path1065"/>
      <path d="M292.518,60.759 C292.704,61.129 292.332,61.968 291.683,61.968 C289.82,62.244 287.681,62.803 285.541,62.803 C285.168,62.527 285.353,62.154 285.353,61.78 L285.633,61.503 C288.051,61.503 290.564,60.759 292.518,60.759" fill="#242323" id="path1067"/>
      <path d="M275.119,64.016 C279.586,68.759 281.631,75.274 283.958,81.229 C281.724,81.505 282.004,78.158 280.795,76.668 C280.33,76.018 279.491,75.833 278.842,76.204 C276.237,76.763 273.91,79.181 271.306,78.528 C268.978,76.483 269.258,72.855 266.28,70.993 C260.23,74.249 254.274,78.716 249.347,83.369 C251.206,79.087 255.487,76.574 257.906,72.39 C263.303,68.574 266.095,61.597 273.071,61.968 z" fill="#AB533D" id="path1069"/>
      <path d="M302.567,63.177 C302.755,64.481 302.94,65.69 302.381,66.993 C301.546,67.55 300.801,68.664 299.592,68.199 C297.729,66.62 298.754,64.946 298.754,62.803 C299.497,61.129 302.102,61.503 302.567,63.177" fill="#242323" id="path1071"/>
      <path d="M307.127,65.97 C306.571,64.851 306.662,63.177 307.127,61.968 z" fill="#F1D291" id="path1073"/>
      <path d="M108.66,64.945 C109.96,67.269 112.473,69.503 115.171,69.971 C119.358,69.971 123.919,69.971 126.058,66.154 C126.243,64.945 126.988,63.641 126.708,62.432 C127.827,64.48 128.942,67.458 131.734,67.829 C133.503,67.643 134.992,66.993 136.292,65.78 C136.575,66.245 136.387,66.804 136.481,67.364 C132.2,67.829 128.103,68.852 124.196,70.341 C124.384,70.806 124.29,71.366 124.849,71.641 C131.175,69.782 137.41,68.387 144.296,69.038 C146.155,69.412 148.203,70.062 149.133,71.831 C147.459,78.345 139.923,77.881 134.897,79.924 C134.153,79.275 133.688,80.299 132.944,80.205 C128.477,80.389 124.29,81.693 120.662,79.087 C120.753,77.038 124.664,78.345 123.36,75.833 C121.497,75.643 119.823,76.668 118.988,78.251 C119.452,80.67 121.777,81.599 123.919,82.064 C126.708,82.438 129.501,82.064 132.385,81.693 L132.385,82.253 C126.988,87.74 121.033,93.322 114.151,96.953 C113.406,97.138 112.194,98.254 111.638,97.138 C110.149,96.488 108.101,97.048 106.427,96.674 C101.681,95.928 96.19,93.881 93.771,89.229 C92.097,84.856 96.284,81.04 99.077,78.345 C100.751,76.482 104.287,78.062 105.308,75.738 C102.984,74.62 101.027,75.643 98.793,76.017 C95.819,77.227 92.188,78.345 90.514,81.228 C91.723,82.529 92.562,79.924 93.866,80.016 L96.934,78.527 C94.33,81.228 91.632,84.948 92.097,88.764 C94.515,96.023 102.24,98.162 109.125,98.628 C103.819,100.86 98.793,100.766 92.932,101.696 C89.584,101.42 85.862,101.51 82.884,100.301 C78.232,99.186 73.674,96.299 70.602,92.581 C70.417,92.021 69.767,91.556 69.487,90.903 C72.371,90.438 75.348,89.508 77.862,87.74 C78.232,87.184 78.417,86.345 78.327,85.786 C77.117,85.042 76.652,86.996 75.439,87.275 C71.532,89.137 65.951,90.343 62.228,86.901 C58.6,83.833 56.643,79.369 58.041,74.529 C58.876,72.201 60.089,69.129 62.878,68.482 C69.952,66.34 75.908,72.201 80.465,77.038 C81.304,77.507 81.49,76.573 81.86,76.017 C81.769,74.155 82.049,72.389 82.139,70.527 C86.606,68.108 91.443,66.993 96.284,65.689 C99.912,65.04 103.449,62.897 107.265,62.338 z" fill="#F0BC87" id="path1075"/>
      <path d="M301.731,64.945 C301.826,65.78 301.826,66.711 300.896,66.993 C300.243,67.269 299.872,66.525 299.592,66.154 C299.498,65.131 299.498,64.106 300.243,63.267 C301.266,63.267 301.361,64.385 301.731,64.945" fill="#FEFEFE" id="path1077"/>
      <path d="M80.839,68.853 C78.976,69.318 77.117,69.877 75.348,70.342 L70.976,67.458 C73.86,66.435 77.582,64.757 81.304,64.481 z" fill="#A3BEAD" id="path1079"/>
      <path d="M190.727,72.016 L190.727,72.481 C189.889,72.481 189.05,71.367 188.211,70.807 C189.238,70.342 190.444,70.993 190.727,72.016" fill="#FEFEFE" id="path1081"/>
      <path d="M80.65,70.807 C80.279,72.202 80.744,73.32 80.374,74.53 L77.022,71.642 C78.326,71.642 79.255,70.712 80.65,70.807" fill="#A3BEAD" id="path1083"/>
      <path d="M189.515,74.155 C184.028,82.158 175.374,87.184 167.279,91.742 C166.255,89.879 163.743,90.438 162.068,89.602 C164.113,87.275 167.465,85.786 168.579,82.718 C174.07,78.345 180.306,75.273 186.166,71.641 z" fill="#85533D" id="path1085"/>
      <path d="M267.584,74.994 C268.14,76.856 269.258,78.436 270.282,80.016 C273.63,81.323 276.237,77.881 279.68,77.881 C281.91,79.275 280.33,85.137 284.703,82.718 C285.817,85.321 287.307,81.97 288.89,82.064 C290.099,81.414 291.683,79.925 293.171,80.764 C295.59,81.04 294.286,83.459 294.381,84.763 L294.191,92.766 C293.077,92.766 291.773,92.116 290.658,92.766 C289.355,93.416 288.98,95.74 287.307,94.81 C286.006,93.881 284.423,94.905 283.309,95.649 C281.819,97.048 281.539,99.093 280.795,100.86 C279.307,99.837 277.353,99.372 275.49,99.837 C274.843,100.302 274.004,100.302 273.256,100.49 C273.815,98.442 274.375,95.37 273.445,93.14 C271.212,92.581 267.863,93.416 265.07,93.604 C264.232,90.903 263.768,86.72 260.045,86.625 C257.626,85.786 255.578,87.461 253.345,87.09 C251.856,86.72 250.647,85.786 248.973,85.878 C254.369,80.39 259.395,75.643 266.28,73.04 z" fill="#EED17C" id="path1087"/>
      <path d="M72.276,74.903 C72.091,75.273 72.65,75.368 72.836,75.738 C71.626,76.391 70.976,75.643 69.578,75.833 C67.904,76.391 66.135,77.321 65.3,79.087 C65.206,80.389 65.765,81.228 66.974,81.693 C69.022,82.529 70.322,80.949 72.091,81.693 C72.276,83.273 70.322,82.717 69.487,83.273 C67.995,83.368 67.159,83.459 65.95,82.717 C64.556,81.505 63.626,79.924 64.276,78.251 C66.135,75.368 69.298,74.249 72.276,74.903" fill="#242323" id="path1089"/>
      <path d="M308.151,110.538 C307.037,106.816 304.893,102.444 306.941,98.442 C308.616,94.255 308.06,88.949 305.732,85.227 C305.453,81.879 306.102,78.901 307.777,76.392 C309.639,87.461 307.037,99.277 308.151,110.538" fill="#F1D291" id="path1091"/>
      <path d="M301.916,80.855 C301.637,82.253 301.266,83.834 299.777,84.392 C298.938,85.042 298.473,83.739 297.729,83.739 C296.894,81.694 297.729,79.646 298.938,78.063 C299.403,77.881 299.777,77.039 300.431,77.507 C301.451,78.437 301.73,79.646 301.916,80.855" fill="#242323" id="path1093"/>
      <path d="M300.707,80.764 C300.895,81.694 300.615,82.624 299.777,83.089 C299.032,83.183 298.567,82.718 298.567,82.065 C298.567,80.855 299.127,79.925 299.777,79.087 C300.431,79.181 300.615,80.111 300.707,80.764" fill="#FEFEFE" id="path1095"/>
      <path d="M166.626,83.738 C164.581,86.345 160.95,87.184 160.206,90.627 C161.789,92.207 164.302,91.368 165.881,92.766 C165.417,93.322 166.07,93.787 166.07,94.255 C165.511,99.372 161.23,102.444 157.043,104.674 C154.903,105.512 152.296,105.977 149.972,105.512 L149.692,105.886 C148.204,102.07 147.183,97.788 145.97,94.161 C147.924,90.627 151.831,88.114 154.994,85.878 C158.44,84.207 162.068,82.994 166.255,83.089 z" fill="#F0BC87" id="path1097"/>
      <path d="M240.413,88.579 C243.391,86.346 247.113,88.019 250.461,87.74 C254.184,90.718 260.14,85.137 262.743,90.627 C263.393,92.116 262.648,94.72 264.605,95.275 C267.115,94.999 269.817,94.534 272.235,94.44 C273.351,97.048 271.677,99.931 271.77,102.535 C274.189,101.979 277.817,100.207 280.33,102.35 C280.516,102.72 280.516,103.184 280.98,103.468 C282.563,102.909 282.099,100.955 282.654,99.651 C283.309,98.348 283.773,96.858 285.352,96.3 C286.656,95.649 287.865,97.229 288.98,96.488 C290.099,95.464 291.309,93.511 293.077,94.255 L294.191,94.44 C292.986,107.002 294.381,119.933 294.381,132.309 C292.612,131.285 290.379,131.1 289.169,129.146 C284.423,127.101 277.262,128.961 274.934,122.911 C271.121,121.052 266.465,121.145 262.373,119.748 C264.047,118.353 266.185,117.889 267.769,116.215 C267.954,114.072 265.07,113.796 263.861,112.024 C255.857,109.329 248.137,106.816 238.924,108.864 C232.409,106.722 225.898,102.35 217.988,104.674 L217.709,104.674 C216.685,99.372 216.87,93.881 216.87,88.579 C218.08,86.625 219.568,84.207 222.176,84.577 C226.922,88.765 232.133,83.738 237.25,84.392 C238.459,85.786 239.109,87.366 240.413,88.579" fill="#5BAF72" id="path1099"/>
      <path d="M301.266,94.999 C302.567,96.583 302.381,98.442 301.452,100.116 C300.801,100.581 300.431,101.605 299.592,101.511 C299.127,100.767 298.103,100.395 297.729,99.277 C297.543,97.603 297.173,95.37 298.753,94.161 C299.778,93.881 300.522,94.44 301.266,94.999" fill="#242323" id="path1101"/>
      <path d="M144.669,95.275 C146.529,99.931 146.902,105.233 149.507,109.515 C147.643,113.047 143.365,113.797 140.109,115.377 C130.896,118.819 121.033,122.725 110.52,121.051 L106.147,119.934 C105.777,120.399 105.402,121.051 105.777,121.612 C106.521,121.706 107.636,121.982 108.471,122.261 C105.122,126.913 100.842,130.821 95.725,133.613 C91.164,132.775 86.236,131.194 83.538,127.283 C84.562,118.539 82.139,110.258 83.723,102.349 C89.025,103.094 94.794,103.839 100.096,102.349 C106.333,103.468 112.193,103.468 118.335,101.979 C118.24,102.254 118.523,102.349 118.708,102.535 C119.637,102.814 119.637,101.884 120.383,101.697 C128.663,100.396 136.76,98.537 144.016,94.629 z" fill="#B06FA2" id="path1103"/>
      <path d="M301.08,97.139 C301.36,98.443 300.707,99.372 299.777,100.117 C299.218,100.023 298.753,99.278 298.567,98.628 C298.753,97.698 298.753,96.674 299.218,95.835 C300.057,95.835 300.895,96.3 301.08,97.139" fill="#FEFEFE" id="path1105"/>
      <path d="M118.055,100.49 C114.056,101.046 110.704,101.511 106.427,101.325 C109.96,100.022 113.127,99.372 116.381,97.323 C117.125,98.347 117.684,99.372 118.055,100.49" fill="#2E4D94" id="path1107"/>
      <path d="M237.25,110.354 C241.811,110.724 246.089,109.236 250.367,109.889 C255.764,111.377 261.719,111.842 266.095,115.935 C264.141,117.05 262.093,118.168 260.419,119.563 C261.443,123.376 266.65,121.329 269.258,122.635 C271.586,123.286 274.654,123.376 275.584,126.263 C279.307,130.821 286.936,127.567 290.379,132.31 L291.867,132.963 C283.864,132.963 275.863,132.589 268.049,132.499 C255.673,131.009 241.717,130.08 228.223,128.126 C224.874,127.284 221.058,127.472 218.174,125.613 C217.988,125.054 217.988,124.03 217.523,123.471 L217.8,106.352 C224.406,104.489 231.574,107.093 237.25,110.354" fill="#CDE6EB" id="path1109"/>
      <path d="M300.707,110.909 C301.36,112.397 301.825,115.096 300.431,116.399 C299.403,116.77 298.567,116.399 297.728,116.585 C296.799,115.19 296.24,113.513 296.708,111.748 C297.078,109.979 299.871,108.211 300.707,110.909" fill="#242323" id="path1111"/>
      <path d="M300.242,114.537 C299.962,115.376 299.032,115.097 298.382,115.376 C298.008,114.446 297.728,113.422 298.102,112.397 C298.567,112.024 298.288,111.095 299.032,111.188 C300.147,111.933 300.801,113.236 300.242,114.537" fill="#FEFEFE" id="path1113"/>
      <path d="M240.134,118.728 C240.693,119.843 238.739,122.17 241.157,122.447 C246.369,123.841 252.51,122.912 257.161,125.795 C257.906,125.705 259.115,125.795 259.395,126.819 L258.741,127.472 C252.601,123.841 245.066,125.24 239.11,122.726 C238.459,122.541 238.924,121.887 238.739,121.422 C239.204,120.957 239.389,120.308 239.295,119.563 C235.482,117.794 231.574,116.306 227.198,115.75 C227.013,115.376 226.828,114.632 227.387,114.352 C231.945,114.912 236.132,116.771 240.134,118.728" fill="#242323" id="path1115"/>
      <path d="M303.125,132.775 C303.594,131.845 303.964,130.636 305.082,130.171 C304.338,127.192 303.778,124.68 304.894,121.796 L308.151,116.586 C306.941,122.171 308.245,128.962 303.125,132.775" fill="#F1D291" id="path1117"/>
      <path d="M124.01,121.887 C123.919,125.054 124.94,128.126 124.848,131.474 C124.848,138.36 126.708,146.269 125.034,152.874 C123.919,153.154 123.73,154.36 123.36,155.293 C110.613,155.667 97.772,156.223 86.047,158.645 C84.652,156.037 84.561,152.595 84.187,149.432 C83.722,144.126 83.722,139.01 83.537,133.798 L83.537,129.986 C87.165,132.498 90.887,134.823 95.445,135.287 C101.121,131.569 106.238,128.591 110.148,122.635 C114.615,123.376 119.637,122.635 124.01,121.887" fill="#2E4D94" id="path1119"/>
      <path d="M138.249,132.963 C137.781,134.543 137.316,136.5 136.76,138.359 C136.201,141.432 136.386,143.941 137.316,146.545 C133.594,146.269 130.336,143.85 127.268,141.708 C126.152,135.476 126.897,129.891 125.684,123.285 C128.662,128.401 133.688,130.45 138.249,132.963" fill="#B06FA2" id="path1121"/>
      <path d="M300.707,126.448 C300.801,127.843 300.801,129.146 299.403,129.985 C297.543,128.866 296.894,126.542 297.264,124.4 C297.358,123.935 297.823,123.75 298.197,123.564 C299.403,124.124 300.707,125.053 300.707,126.448" fill="#242323" id="path1123"/>
      <path d="M161.229,129.614 C162.068,132.774 162.068,136.87 159.929,139.384 C157.042,139.474 154.158,140.407 151.181,139.848 C152.016,138.264 152.855,136.031 153.04,134.172 C152.949,133.053 153.505,131.38 152.855,130.261 C153.134,128.772 151.551,126.636 153.505,125.795 C154.994,125.612 156.392,124.589 157.881,125.424 C159.555,126.353 160.673,128.031 161.229,129.614" fill="#F0BC87" id="path1125"/>
      <path d="M299.777,126.448 C299.591,127.101 300.056,127.843 299.403,128.307 C298.381,127.657 298.567,126.448 298.567,125.424 C299.127,125.424 299.497,126.077 299.777,126.448" fill="#FEFEFE" id="path1127"/>
      <path d="M123.36,129.985 C123.919,131.1 123.919,132.309 123.36,133.518 C122.521,134.452 121.218,134.452 120.012,134.636 C119.264,133.613 118.708,131.938 119.173,130.45 C119.544,129.614 119.823,128.772 120.662,128.126 C122.151,127.471 122.801,129.237 123.36,129.985" fill="#242323" id="path1129"/>
      <path d="M122.336,131.009 C122.986,132.215 122.15,133.428 120.847,133.519 C120.197,132.868 119.823,131.939 120.012,130.821 L121.032,129.426 C121.686,129.796 122.056,130.356 122.336,131.009" fill="#FEFEFE" id="path1131"/>
      <path d="M151.551,131.659 L151.551,134.637 C149.877,134.452 147.923,134.822 146.993,136.311 C146.249,137.43 146.902,138.919 147.182,140.033 C151.365,143.196 157.507,140.963 162.438,140.683 C163.651,140.407 164.301,139.289 164.951,138.359 C166.16,136.031 161.603,135.287 163.368,132.963 L163.368,132.498 C172.49,132.498 180.49,135.752 188.026,140.033 C193.89,144.874 197.798,152.035 196.029,160.134 C194.075,170.832 182.164,172.971 173.42,174.369 C169.047,174.369 164.672,173.435 161.879,170.179 C159.46,164.782 162.532,157.431 155.832,154.084 C150.716,151.941 145.134,151.012 140.482,147.848 C139.178,147.104 139.552,145.52 138.434,144.874 C137.78,140.407 137.875,135.846 140.947,132.774 C144.015,131.473 148.017,130.544 151.551,131.659" fill="#EED17C" id="path1133"/>
      <path d="M150.995,136.5 C150.342,137.43 150.251,138.636 149.877,139.659 C149.227,139.475 148.482,139.01 148.203,138.359 C147.738,136.591 150.157,136.031 150.995,136.5" fill="#FEFEFE" id="path1135"/>
      <path d="M163.368,137.521 C163.742,138.265 162.812,138.636 162.438,139.01 C162.162,139.01 161.879,138.919 161.694,139.195 C162.253,138.636 162.438,136.217 163.368,137.521" fill="#FEFEFE" id="path1137"/>
      <path d="M124.569,141.149 C124.475,142.827 124.289,144.59 122.521,145.245 C120.382,146.175 120.661,143.662 120.196,142.732 C120.288,141.337 120.102,139.66 121.497,139.009 C122.986,138.455 124.195,139.848 124.569,141.149" fill="#242323" id="path1139"/>
      <path d="M186.722,143.011 C187.005,143.661 186.722,144.5 186.166,145.056 C186.816,146.175 188.77,146.64 188.679,148.034 C187.19,150.547 183.468,149.058 181.143,148.688 C178.166,148.034 174.629,148.314 172.581,145.709 C172.49,144.686 172.769,143.85 173.42,143.197 C172.49,142.638 171.371,141.988 171.651,140.684 C171.001,139.289 172.581,139.101 173.605,139.01 C177.98,139.384 182.723,140.684 186.722,143.011" fill="#D8372F" id="path1141"/>
      <path d="M123.545,141.897 C123.36,142.732 122.986,144.035 121.871,144.035 C121.497,143.103 121.127,141.897 121.497,140.873 C122.242,139.475 123.175,141.149 123.545,141.897" fill="#FEFEFE" id="path1143"/>
      <path d="M185.048,143.85 C185.422,144.315 184.304,144.78 184.304,145.339 C184.957,146.545 186.261,146.919 187.191,147.758 C185.887,148.688 183.839,147.943 182.35,147.758 C179.655,146.64 176.303,147.199 173.979,145.339 C173.605,144.5 174.444,144.126 175.003,143.85 C175.374,143.85 175.748,143.941 175.933,143.568 C176.768,141.523 173.885,141.988 173.14,141.149 C174.164,140.124 176.303,141.058 177.792,141.058 C180.214,141.988 182.815,142.362 185.048,143.85" fill="#D8372F" id="path1145"/>
      <path d="M271.397,143.011 C271.677,145.339 271.306,147.478 269.629,148.872 C263.768,149.988 257.626,148.314 252.136,147.57 C251.112,147.198 249.717,147.01 249.347,145.899 C249.347,144.409 248.602,142.826 249.347,141.523 C256.697,142.546 264.141,142.267 271.397,143.011" fill="#C86952" id="path1147"/>
      <path d="M258.186,150.082 C256.232,154.269 253.531,158.361 251.297,162.828 C245.531,171.573 239.295,180.324 233.437,188.881 C228.876,195.86 222.456,202.375 218.639,210.005 C214.176,216.516 209.521,223.125 205.243,229.637 C204.03,231.125 202.541,232.8 200.776,233.265 C199.287,233.358 198.263,231.964 197.424,230.94 C197.983,227.868 200.311,225.449 201.8,222.751 C209.335,212.515 217.245,201.815 224.221,191.117 C234.273,177.437 242.276,162.923 252.322,149.246 z" fill="#E99C44" id="path1149"/>
      <path d="M261.534,150.547 C265.811,159.015 271.026,166.735 275.49,175.019 C283.493,187.115 290.658,200.327 299.777,212.238 C304.243,218.288 306.941,225.173 310.943,231.499 C311.499,233.082 313.082,234.571 312.429,236.526 C311.314,237.92 309.455,238.479 307.592,238.85 C304.152,238.569 304.058,235.036 302.101,232.988 C294.846,222.566 290.284,211.12 284.517,200.142 C277.632,187.21 271.586,173.904 263.208,161.622 C261.813,158.271 259.954,155.293 259.024,151.756 C259.58,150.826 260.419,150.082 261.534,150.547" fill="#E99C44" id="path1151"/>
      <path d="M159.09,161.804 C159.37,166.271 159.09,171.95 163.927,174.369 C171.001,177.623 179.746,175.575 186.817,172.88 L191.378,170.367 C185.793,177.252 176.677,179.392 167.929,177.997 C163.651,177.064 159.276,173.81 157.413,169.619 C155.553,164.783 154.903,158.645 149.507,155.944 C146.623,154.36 142.527,154.269 141.132,150.547 C146.808,155.014 157.601,152.5 159.09,161.804" fill="#EAA04D" id="path1153"/>
      <path d="M181.979,154.454 C181.885,154.737 181.514,155.014 181.7,155.384 C183.653,156.502 186.352,157.155 186.352,159.574 C184.863,161.622 182.165,160.78 180.025,160.315 C177.98,160.409 175.838,159.015 174.444,157.432 C174.629,155.478 171.651,156.502 171.651,154.549 C171.742,153.339 172.49,152.406 173.14,151.386 C176.397,151.57 179.375,152.688 181.979,154.454" fill="#5BAF72" id="path1155"/>
      <path d="M180.026,154.919 C179.001,156.873 181.608,156.408 182.349,157.432 C183.469,157.897 184.492,157.991 185.142,159.109 C182.258,160.315 179.84,159.109 177.142,158.271 C175.004,157.62 176.119,154.269 173.326,154.549 L173.326,153.43 C175.374,152.874 178.072,153.619 180.026,154.919" fill="#5BAF72" id="path1157"/>
      <path d="M258.186,157.62 C257.812,161.248 255.858,164.317 254.649,167.665 C253.716,168.413 253.905,169.997 252.975,171.017 C248.973,184.882 245.719,198.652 240.973,212.332 C240.04,216.89 238.459,221.263 237.436,225.449 C236.786,227.127 236.412,228.986 235.947,230.755 C234.367,234.662 234.643,240.061 231.386,243.686 C229.247,243.686 227.573,242.013 226.178,240.338 C225.993,233.082 228.967,226.753 230.736,220.053 C234.457,208.795 238.554,197.723 242.832,186.745 C243.856,183.393 245.624,180.507 246.275,177.063 C247.949,174.274 248.414,171.017 249.808,168.134 L249.623,167.665 C252.601,162.923 255.302,158.644 257.721,153.713 C257.907,155.014 260.325,156.597 258.186,157.62" fill="#E99C44" id="path1159"/>
      <path d="M126.058,160.134 C127.173,169.997 128.012,181.345 127.917,191.768 C128.662,204.14 128.941,215.402 129.874,227.962 C129.78,231.125 131.825,236.148 129.406,239.499 L127.732,240.803 C127.827,230.29 126.988,218.753 126.243,208.142 C124.663,191.952 124.104,177.158 122.895,160.78 C122.615,160.599 122.43,160.134 122.056,160.316 L121.218,161.248 C121.777,165.156 121.406,168.413 122.242,172.041 C122.895,182.184 123.545,192.7 124.195,203.305 C125.778,213.727 125.219,224.705 126.523,234.104 C126.243,236.242 126.523,238.85 125.684,241.174 C118.708,242.481 110.893,241.268 103.819,242.852 C99.726,243.41 94.886,244.058 91.352,242.387 C91.352,239.129 92.187,236.431 92.376,233.265 C91.817,217.446 94.33,202.28 91.537,186.745 C89.954,183.673 86.697,181.44 85.208,178.183 C82.607,172.415 85.026,167.019 85.026,160.78 C91.258,158.921 97.772,158.456 104.287,157.806 C110.799,157.062 117.684,157.062 123.919,156.967 C124.384,156.967 124.195,156.223 124.754,156.408 z" fill="#E38141" id="path1161"/>
      <path d="M178.442,167.948 C178.442,168.972 178.63,169.528 177.792,169.997 C174.629,171.017 171.651,169.807 169.232,167.948 C169.138,167.295 168.673,166.086 169.138,165.156 C170.162,164.226 170.442,162.552 172.116,162.828 C175.839,162.552 175.839,166.27 178.442,167.948" fill="#B1A42F" id="path1163"/>
      <path d="M100.936,166.18 C101.681,167.11 100.936,168.32 100.936,169.155 L100.471,169.343 C99.727,167.575 98.793,164.971 99.912,162.923 C100.936,163.482 100.751,165.25 100.936,166.18" fill="#242323" id="path1165"/>
      <path d="M174.815,165.341 C174.069,166.83 179.186,168.784 175.654,169.154 C173.419,169.343 171.742,168.225 170.257,166.645 C170.257,165.995 170.257,165.341 170.906,165.156 C172.116,164.132 173.606,164.041 174.815,165.341" fill="#B1A42F" id="path1167"/>
      <path d="M314.012,211.493 C315.872,213.356 319.038,215.492 318.199,218.564 C317.361,219.588 316.061,220.053 314.662,220.053 C306.012,217.728 303.869,208.795 296.055,204.794 C288.334,193.347 281.539,181.254 274.469,169.619 C289.54,182.274 301.08,197.164 314.012,211.493" fill="#E99C44" id="path1169"/>
      <path d="M101.121,174.646 C101.215,176.043 101.586,178.372 101.4,180.042 C101.026,180.416 100.565,180.042 100.282,179.86 C100.282,177.907 99.541,175.764 100.282,173.81 C101.026,173.531 100.841,174.37 101.121,174.646" fill="#242323" id="path1171"/>
      <path d="M101.774,184.882 C101.774,186.745 102.515,188.881 101.774,190.464 C100.656,190.653 101.216,189.255 100.565,188.79 C100.936,187.486 99.632,184.508 101.774,184.882" fill="#242323" id="path1173"/>
      <path d="M102.239,194.466 C101.959,196.514 102.889,198.838 101.959,200.142 C100.565,198.653 101.026,195.954 100.935,193.906 C101.4,192.791 102.145,193.906 102.239,194.466" fill="#242323" id="path1175"/>
      <path d="M102.145,203.958 C101.959,206.003 102.424,207.121 101.774,208.701 L101.121,208.701 C101.026,206.653 100.471,204.888 101.31,203.119 C101.774,203.028 101.959,203.675 102.145,203.958" fill="#242323" id="path1177"/>
      <path d="M102.424,213.727 C102.145,215.307 102.983,217.729 101.959,219.03 L101.309,218.935 C101.4,217.264 100.935,215.028 101.586,213.357 C101.959,213.357 102.239,213.448 102.424,213.727" fill="#242323" id="path1179"/>
      <path d="M102.798,223.776 L102.61,229.263 C102.145,229.263 101.494,229.357 101.4,228.798 L101.4,223.216 C101.865,222.566 102.798,223.126 102.798,223.776" fill="#242323" id="path1181"/>
      <path d="M103.448,236.99 C102.983,237.36 102.983,237.636 102.424,237.455 C102.145,235.777 101.494,233.729 102.983,232.8 C103.819,233.918 103.263,235.592 103.448,236.99" fill="#242323" id="path1183"/>
      <path d="M148.483,246.85 C150.342,249.269 152.949,251.131 152.484,254.204 C151.365,256.622 148.204,257.178 145.969,257.457 C146.714,255.877 147.367,254.015 146.154,252.432 C143.272,248.339 138.434,247.503 134.432,245.365 C131.455,244.435 128.386,243.875 125.408,243.222 C128.85,243.687 130.525,238.102 134.247,240.154 C139.27,241.828 144.389,243.222 148.483,246.85" fill="#815939" id="path1185"/>
      <path d="M121.406,243.501 C122.15,244.151 123.36,244.34 124.384,244.711 C131.825,246.294 140.293,247.409 145.319,254.108 C145.319,256.807 142.621,258.67 140.667,260.064 C131.364,262.948 119.917,262.389 110.519,262.112 C108.754,261.924 108.195,260.624 106.797,259.6 C106.052,263.133 102.424,260.624 100.282,261.089 C98.423,260.715 96.283,260.624 95.074,259.23 C93.12,255.133 94.609,251.876 94.885,247.503 L95.445,245.176 C103.634,245.176 112.472,242.48 121.406,243.501" fill="#815939" id="path1187"/>
      <path d="M109.684,254.947 C115.171,257.831 122.151,256.342 128.572,256.713 C129.037,257.087 129.222,257.645 128.942,258.11 C120.662,257.74 107.636,260.899 104.099,250.201 C104.193,249.831 104.288,249.268 104.749,249.177 C106.147,251.225 107.266,253.455 109.684,254.947" fill="#FEFEFE" id="path1189"/>
      <path d="M150.342,252.714 C150.251,253.085 149.877,253.364 149.692,253.55 C149.321,253.644 149.042,253.55 148.853,253.274 C148.668,252.62 149.042,251.876 149.692,251.876 C150.066,251.967 150.901,252.155 150.342,252.714" fill="#FEFEFE" id="path1191"/>
      <path d="M132.294,257.74 C132.014,258.386 131.455,257.922 131.081,257.74 C131.081,257.457 130.711,256.713 131.455,256.432 C132.385,256.248 132.014,257.178 132.294,257.74" fill="#FEFEFE" id="path1193"/>
    </g>
  </g>
</svg>