<?xml version="1.0" encoding="UTF-8"?>
<!DOCTYPE svg PUBLIC "-//W3C//DTD SVG 1.1//EN" "http://www.w3.org/Graphics/SVG/1.1/DTD/svg11.dtd">
<svg version="1.1" xmlns="http://www.w3.org/2000/svg" xmlns:xlink="http://www.w3.org/1999/xlink" x="0" y="0" width="244" height="239" viewBox="0, 0, 244, 239">
  <g id="ãƒ_x00ac_ã_x201a__x00a4_ãƒ_x00a4_ãƒ_x00bc__x0020_1">
    <path d="M110.396,127.068 C110.396,130.884 107.3,133.98 103.484,133.98 C99.668,133.98 96.572,130.884 96.572,127.068 C96.572,123.252 99.668,120.156 103.484,120.156 C107.3,120.156 110.396,123.252 110.396,127.068 z" fill="#FCD2B5"/>
    <g>
      <path d="M75.404,155.507 C75.404,155.507 66.405,163.787 61.869,171.635 C56.253,181.354 54.741,191.362 54.309,196.186 C58.269,201.082 60.141,202.81 59.709,206.698 C59.637,207.562 59.133,208.714 57.765,209.29 C56.757,209.794 55.317,208.786 54.957,209.002 C56.181,211.522 54.453,212.889 53.877,213.321 C46.389,219.657 30.909,211.018 39.765,196.186 C44.877,183.01 47.757,170.195 52.149,162.275 C54.165,158.603 66.189,148.595 66.189,148.595 L75.332,155.579 z" fill="#FCD2B5"/>
      <path d="M75.404,155.507 C75.404,155.507 66.405,163.787 61.869,171.635 C56.253,181.354 54.741,191.362 54.309,196.186 C58.269,201.082 60.141,202.81 59.709,206.698 C59.637,207.562 59.133,208.714 57.765,209.29 C56.757,209.794 55.317,208.786 54.957,209.002 C56.181,211.522 54.453,212.889 53.877,213.321 C46.389,219.657 30.909,211.018 39.765,196.186 C44.877,183.01 47.757,170.195 52.149,162.275 C54.165,158.603 66.189,148.595 66.189,148.595 L75.332,155.579 z" fill-opacity="0" stroke="#373435" stroke-width="1.926" stroke-linejoin="round"/>
    </g>
    <g>
      <path d="M79.724,129.516 L91.748,125.628 L106.796,129.084 L102.404,115.62 L107.804,113.1 L151.508,116.124 L147.548,131.892 L135.524,132.972 L143.012,149.675 L130.34,196.186 C124.508,203.53 114.86,196.906 114.86,196.906 C113.492,195.754 108.092,193.666 105.356,181.066 C99.308,162.707 86.42,157.019 86.42,157.019 L75.26,168.035 L58.557,153.203 L79.724,129.516 z" fill="#F6A9C5"/>
      <path d="M79.724,129.516 L91.748,125.628 L106.796,129.084 L102.404,115.62 L107.804,113.1 L151.508,116.124 L147.548,131.892 L135.524,132.972 L143.012,149.675 L130.34,196.186 C124.508,203.53 114.86,196.906 114.86,196.906 C113.492,195.754 108.092,193.666 105.356,181.066 C99.308,162.707 86.42,157.019 86.42,157.019 L75.26,168.035 L58.557,153.203 L79.724,129.516 z" fill-opacity="0" stroke="#373435" stroke-width="1.926" stroke-linejoin="round"/>
    </g>
    <path d="M108.092,114.612 L147.332,117.348 C148.052,117.42 148.34,118.716 148.268,119.364 C148.196,120.084 147.836,119.94 147.116,119.868 L109.244,117.348 L114.428,134.7 C114.572,135.132 114.428,135.636 114.068,135.924 C113.852,136.14 113.492,136.284 113.132,136.284 C113.06,136.284 112.916,136.284 112.844,136.212 L89.228,130.668 C88.508,130.524 88.148,129.804 88.292,129.084 C88.436,128.364 89.156,128.004 89.876,128.148 L111.332,133.116 L106.148,115.476 L108.092,114.54 z" fill="#FFF472"/>
    <path d="M55.389,209.866 L53.733,206.914 C53.733,206.914 54.957,208.138 55.389,209.866 z" fill="#FFFFFF"/>
    <path d="M53.733,206.914 C53.733,206.914 54.957,208.138 55.389,209.866" fill-opacity="0" stroke="#373435" stroke-width="1.926" stroke-linecap="round" stroke-linejoin="round"/>
    <g>
      <path d="M116.012,178.186 C115.652,179.554 112.988,195.61 122.06,199.642 C122.06,199.642 126.452,201.442 130.484,196.258 L116.012,178.186 z" fill="#A57589"/>
      <path d="M116.012,178.186 C115.652,179.554 112.988,195.61 122.06,199.642 C122.06,199.642 126.452,201.442 130.484,196.258 L116.012,178.186 z" fill-opacity="0" stroke="#373435" stroke-width="1.926" stroke-linejoin="round"/>
    </g>
    <g>
      <g>
        <path d="M134.876,70.477 C152.948,70.477 167.636,55.79 167.636,37.718 C167.636,19.647 152.948,4.959 134.876,4.959 C116.804,4.959 102.116,19.647 102.116,37.718 C102.116,55.79 116.804,70.477 134.876,70.477 z" fill="#FFFFFF"/>
        <path d="M134.876,70.477 C152.948,70.477 167.636,55.79 167.636,37.718 C167.636,19.647 152.948,4.959 134.876,4.959 C116.804,4.959 102.116,19.647 102.116,37.718 C102.116,55.79 116.804,70.477 134.876,70.477 z" fill-opacity="0" stroke="#000000" stroke-width="1.926"/>
      </g>
      <path d="M127.1,29.15 L138.116,18.279 L150.644,27.278 L149.348,41.822 L133.076,42.974 z" fill="#000000"/>
      <path d="M128.036,69.469 L135.164,61.838 L126.956,51.758 L113.708,49.166 L110.756,59.102 C110.756,59.102 116.372,66.949 128.108,69.541 z" fill="#000000"/>
      <path d="M166.34,47.078 C163.1,59.822 152.3,65.077 152.3,65.077 L148.412,59.966 L154.964,49.094 L166.34,47.006 z" fill="#000000"/>
      <path d="M112.7,13.815 L115.292,26.126 L109.532,36.998 L101.9,36.998 C101.9,36.998 102.476,23.391 112.772,13.815 z" fill="#000000"/>
      <path d="M158.276,14.967 L158.852,24.902 L167.276,32.534 C167.276,32.534 165.188,20.799 158.276,14.967 z" fill="#000000"/>
      <path d="M144.452,6.543 L137.54,10.287 L121.628,7.695 C121.628,7.695 131.924,2.655 144.452,6.543 z" fill="#000000"/>
      <path d="M113.996,26.126 L128.396,29.294" fill-opacity="0" stroke="#000000" stroke-width="1.587"/>
      <path d="M136.964,8.991 L138.476,21.447" fill-opacity="0" stroke="#000000" stroke-width="1.587"/>
      <path d="M148.412,28.214 L161.084,23.895" fill-opacity="0" stroke="#000000" stroke-width="1.587"/>
      <path d="M108.956,34.91 L114.572,51.182" fill-opacity="0" stroke="#000000" stroke-width="1.587"/>
      <path d="M126.164,53.63 L134.156,40.886" fill-opacity="0" stroke="#000000" stroke-width="1.587"/>
      <path d="M131.924,62.054 L150.788,60.182" fill-opacity="0" stroke="#000000" stroke-width="1.587"/>
      <path d="M155.828,50.822 L147.62,40.382" fill-opacity="0" stroke="#000000" stroke-width="1.587"/>
    </g>
    <g>
      <path d="M154.892,129.012 C164.324,127.572 172.676,129.444 176.636,130.596 C179.3,135.204 180.092,137.292 183.26,138.155 C183.98,138.371 185.06,138.371 185.924,137.435 C186.644,136.788 186.284,135.348 186.572,135.132 C188.156,136.86 189.812,135.924 190.315,135.636 C197.587,131.676 195.571,116.772 181.172,119.148 C168.716,117.492 158.204,117.42 150.5,118.428 L154.964,129.012 z" fill="#FCD2B5"/>
      <path d="M154.892,129.012 C164.324,127.572 172.676,129.444 176.636,130.596 C179.3,135.204 180.092,137.292 183.26,138.155 C183.98,138.371 185.06,138.371 185.924,137.435 C186.644,136.788 186.284,135.348 186.572,135.132 C188.156,136.86 189.812,135.924 190.315,135.636 C197.587,131.676 195.571,116.772 181.172,119.148 C168.716,117.492 158.204,117.42 150.5,118.428 L154.964,129.012 z" fill-opacity="0" stroke="#373435" stroke-width="1.926" stroke-linejoin="round"/>
    </g>
    <path d="M63.813,156.299 L61.869,154.643 C67.701,147.803 83.324,129.444 83.468,129.228 L85.412,130.884 C85.268,131.1 69.573,149.387 63.813,156.227 z" fill="#FFF472"/>
    <g>
      <path d="M178.436,195.538 C175.916,194.458 174.116,185.746 178.148,176.53 C182.18,167.315 188.947,159.971 191.395,161.123 C193.915,162.203 191.251,171.347 187.22,180.562 C183.188,189.778 180.956,196.69 178.436,195.538 z" fill="#A7A7A7"/>
      <path d="M178.436,195.538 C175.916,194.458 174.116,185.746 178.148,176.53 C182.18,167.315 188.947,159.971 191.395,161.123 C193.915,162.203 191.251,171.347 187.22,180.562 C183.188,189.778 180.956,196.69 178.436,195.538 z" fill-opacity="0" stroke="#373435" stroke-width="1.926" stroke-linejoin="round"/>
    </g>
    <g>
      <path d="M196.075,187.834 C196.075,187.834 195.211,182.866 191.539,181.57 C187.796,180.346 173.036,182.362 173.036,182.362 L174.548,169.187 L186.716,161.843 C186.716,161.843 212.851,163.931 214.723,177.106 L196.075,187.834 z" fill="#FCD2B5"/>
      <path d="M196.075,187.834 C196.075,187.834 195.211,182.866 191.539,181.57 C187.796,180.346 173.036,182.362 173.036,182.362 L174.548,169.187 L186.716,161.843 C186.716,161.843 212.851,163.931 214.723,177.106 L196.075,187.834 z" fill-opacity="0" stroke="#373435" stroke-width="2.03" stroke-linejoin="round"/>
    </g>
    <g>
      <path d="M173.252,143.915 C171.668,147.443 163.172,147.011 154.1,143.051 C145.1,139.091 139.052,132.972 140.564,129.516 C142.076,125.988 150.644,126.42 159.716,130.38 C168.716,134.34 174.764,140.459 173.252,143.915 z" fill="#A7A7A7"/>
      <path d="M173.252,143.915 C171.668,147.443 163.172,147.011 154.1,143.051 C145.1,139.091 139.052,132.972 140.564,129.516 C142.076,125.988 150.644,126.42 159.716,130.38 C168.716,134.34 174.764,140.459 173.252,143.915 z" fill-opacity="0" stroke="#373435" stroke-width="1.926" stroke-linejoin="round"/>
    </g>
    <g>
      <path d="M166.916,116.052 C166.484,123.9 162.38,160.115 162.38,160.115 L138.908,147.515 C138.908,147.515 148.196,115.116 150.644,107.556 L166.916,116.052 z" fill="#FCD2B5"/>
      <path d="M166.916,116.052 C166.484,123.9 162.38,160.115 162.38,160.115 L138.908,147.515 C138.908,147.515 148.196,115.116 150.644,107.556 L166.916,116.052 z" fill-opacity="0" stroke="#373435" stroke-width="1.926" stroke-linejoin="round"/>
    </g>
    <g>
      <path d="M140.708,129.444 C140.492,130.092 141.068,131.244 141.86,132.252 C146.324,138.011 159.932,148.163 172.892,144.275 L167.276,159.035 L191.035,160.907 C191.035,160.907 183.404,164.075 179.156,176.602 C177.284,182.074 176.564,188.77 177.932,195.538 C177.932,195.538 162.308,195.394 156.62,194.458 C147.62,202.162 128.684,202.954 118.604,189.706 C118.604,189.706 110.108,178.33 123.356,161.627 L129.548,153.851 L140.78,129.444 z" fill="#FFFFFF"/>
      <path d="M140.708,129.444 C140.492,130.092 141.068,131.244 141.86,132.252 C146.324,138.011 159.932,148.163 172.892,144.275 L167.276,159.035 L191.035,160.907 C191.035,160.907 183.404,164.075 179.156,176.602 C177.284,182.074 176.564,188.77 177.932,195.538 C177.932,195.538 162.308,195.394 156.62,194.458 C147.62,202.162 128.684,202.954 118.604,189.706 C118.604,189.706 110.108,178.33 123.356,161.627 L129.548,153.851 L140.78,129.444 z" fill-opacity="0" stroke="#373435" stroke-width="1.926" stroke-linejoin="round"/>
    </g>
    <path d="M125.66,128.22 C125.66,128.22 136.748,131.028 137.036,137.076" fill-opacity="0" stroke="#373435" stroke-width="1.926" stroke-linecap="round" stroke-linejoin="round"/>
    <g>
      <path d="M167.996,157.091 L161.948,174.371 z" fill="#FFFFFF"/>
      <path d="M167.996,157.091 L161.948,174.371 z" fill-opacity="0" stroke="#373435" stroke-width="1.926" stroke-linejoin="round"/>
    </g>
    <g>
      <path d="M130.988,150.683 L124.724,165.299 z" fill="#FFFFFF"/>
      <path d="M130.988,150.683 L124.724,165.299 z" fill-opacity="0" stroke="#373435" stroke-width="1.926" stroke-linejoin="round"/>
    </g>
    <g>
      <path d="M150.572,107.556 C150.572,107.556 154.46,117.276 166.844,116.052 L175.772,78.613 C175.772,78.613 165.044,74.509 161.804,69.037 C161.804,69.037 152.66,99.133 150.5,107.556 z" fill="#F6A9C5"/>
      <path d="M150.572,107.556 C150.572,107.556 154.46,117.276 166.844,116.052 L175.772,78.613 C175.772,78.613 165.044,74.509 161.804,69.037 C161.804,69.037 152.66,99.133 150.5,107.556 z" fill-opacity="0" stroke="#373435" stroke-width="1.926" stroke-linejoin="round"/>
    </g>
    <g>
      <path d="M213.787,174.514 C199.459,169.547 194.779,184.162 194.779,184.162 C194.779,184.162 195.283,184.954 195.139,190.714 C194.995,196.474 193.699,213.753 193.699,213.753 L210.115,212.745 C210.115,212.745 218.323,176.674 213.787,174.514 z" fill="#F6A9C5"/>
      <path d="M213.787,174.514 C199.459,169.547 194.779,184.162 194.779,184.162 C194.779,184.162 195.283,184.954 195.139,190.714 C194.995,196.474 193.699,213.753 193.699,213.753 L210.115,212.745 C210.115,212.745 218.323,176.674 213.787,174.514 z" fill-opacity="0" stroke="#373435" stroke-width="2.03" stroke-linejoin="round"/>
    </g>
    <path d="M84.332,159.251 L90.308,153.203" fill-opacity="0" stroke="#373435" stroke-width="1.926" stroke-linecap="round" stroke-linejoin="round"/>
    <g>
      <g>
        <path d="M184.124,67.165 C182.252,59.894 173.612,39.23 173.612,39.23 C173.612,39.23 170.732,31.886 161.876,33.398 C161.876,33.398 161.084,33.254 159.428,34.334 C157.7,35.198 154.748,37.934 156.116,45.638 C158.276,58.022 162.092,68.749 162.092,68.749 C164.18,77.965 175.844,80.053 175.844,80.053 L179.876,76.957 C179.948,76.957 181.676,75.445 181.748,75.445 C181.748,75.445 185.636,72.853 184.196,67.093 z" fill="#606062"/>
        <path d="M184.124,67.165 C182.252,59.894 173.612,39.23 173.612,39.23 C173.612,39.23 170.732,31.886 161.876,33.398 C161.876,33.398 161.084,33.254 159.428,34.334 C157.7,35.198 154.748,37.934 156.116,45.638 C158.276,58.022 162.092,68.749 162.092,68.749 C164.18,77.965 175.844,80.053 175.844,80.053 L179.876,76.957 C179.948,76.957 181.676,75.445 181.748,75.445 C181.748,75.445 185.636,72.853 184.196,67.093 z" fill-opacity="0" stroke="#373435" stroke-width="1.587" stroke-linejoin="round"/>
      </g>
      <path d="M159.86,35.918 L177.212,71.557 C168.788,70.333 164.612,56.438 162.668,51.758 C160.724,47.15 159.356,39.446 159.356,39.446 C159.356,39.446 158.996,36.926 159.86,35.846 z" fill="#606062"/>
      <path d="M177.212,71.557 C168.788,70.333 164.612,56.438 162.668,51.758 C160.724,47.15 159.356,39.446 159.356,39.446 C159.356,39.446 158.996,36.926 159.86,35.846" fill-opacity="0" stroke="#373435" stroke-width="1.587" stroke-linecap="round" stroke-linejoin="round"/>
      <g>
        <path d="M165.332,39.23 C165.26,40.022 164.612,40.598 163.82,40.598 C163.028,40.526 162.452,39.878 162.452,39.086 C162.524,38.294 163.172,37.718 163.964,37.718 C164.756,37.79 165.332,38.438 165.332,39.23 z" fill="#4C4C4D"/>
        <path d="M170.372,38.294 C170.3,39.086 169.652,39.662 168.86,39.662 C168.068,39.59 167.492,38.942 167.492,38.15 C167.564,37.358 168.212,36.782 169.004,36.782 C169.796,36.854 170.372,37.502 170.372,38.294 z" fill="#4C4C4D"/>
        <path d="M173.54,44.126 C173.468,44.918 172.82,45.494 172.028,45.494 C171.236,45.422 170.66,44.774 170.66,43.982 C170.732,43.19 171.38,42.614 172.172,42.614 C172.964,42.686 173.54,43.334 173.54,44.126 z" fill="#4C4C4D"/>
        <path d="M165.98,45.206 C165.908,45.998 165.26,46.574 164.468,46.574 C163.676,46.502 163.1,45.854 163.1,45.062 C163.172,44.27 163.82,43.694 164.612,43.694 C165.404,43.766 165.98,44.414 165.98,45.206 z" fill="#4C4C4D"/>
        <path d="M168.644,52.19 C168.572,52.982 167.924,53.558 167.132,53.558 C166.34,53.486 165.764,52.838 165.764,52.046 C165.836,51.254 166.484,50.678 167.276,50.678 C168.068,50.75 168.644,51.398 168.644,52.19 z" fill="#4C4C4D"/>
        <path d="M176.78,67.597 C176.708,68.389 176.06,68.965 175.268,68.965 C174.476,68.893 173.9,68.245 173.9,67.453 C173.972,66.661 174.62,66.085 175.412,66.085 C176.204,66.157 176.78,66.805 176.78,67.597 z" fill="#4C4C4D"/>
        <path d="M173.756,63.493 C173.684,64.285 173.036,64.861 172.244,64.861 C171.452,64.789 170.876,64.141 170.876,63.349 C170.948,62.557 171.596,61.982 172.388,61.982 C173.18,62.054 173.756,62.701 173.756,63.493 z" fill="#4C4C4D"/>
        <path d="M180.092,62.197 C180.02,62.989 179.372,63.565 178.58,63.565 C177.788,63.493 177.212,62.845 177.212,62.053 C177.284,61.262 177.932,60.686 178.724,60.686 C179.516,60.758 180.092,61.406 180.092,62.197 z" fill="#4C4C4D"/>
        <path d="M181.676,66.229 C181.604,67.021 180.956,67.597 180.164,67.597 C179.372,67.525 178.796,66.877 178.796,66.085 C178.868,65.293 179.516,64.717 180.308,64.717 C181.1,64.789 181.676,65.437 181.676,66.229 z" fill="#4C4C4D"/>
        <path d="M180.452,61.91 C180.38,62.701 179.732,63.277 178.94,63.277 C178.148,63.205 177.572,62.557 177.572,61.766 C177.644,60.974 178.292,60.398 179.084,60.398 C179.876,60.47 180.452,61.118 180.452,61.91 z" fill="#373435"/>
        <path d="M182.036,65.941 C181.964,66.733 181.316,67.309 180.524,67.309 C179.732,67.237 179.156,66.589 179.156,65.797 C179.228,65.005 179.876,64.429 180.668,64.429 C181.46,64.501 182.036,65.149 182.036,65.941 z" fill="#373435"/>
        <path d="M176.276,51.182 C176.204,51.974 175.556,52.55 174.764,52.55 C173.972,52.478 173.396,51.83 173.396,51.038 C173.468,50.246 174.116,49.67 174.908,49.67 C175.7,49.742 176.276,50.39 176.276,51.182 z" fill="#4C4C4D"/>
        <path d="M165.764,38.942 C165.692,39.734 165.044,40.31 164.252,40.31 C163.46,40.238 162.884,39.59 162.884,38.798 C162.956,38.006 163.604,37.43 164.396,37.43 C165.188,37.502 165.764,38.15 165.764,38.942 z" fill="#373435"/>
        <path d="M170.804,38.006 C170.732,38.798 170.084,39.374 169.292,39.374 C168.5,39.302 167.924,38.654 167.924,37.862 C167.996,37.07 168.644,36.494 169.436,36.494 C170.228,36.566 170.804,37.214 170.804,38.006 z" fill="#373435"/>
        <path d="M173.972,43.838 C173.9,44.63 173.252,45.206 172.46,45.206 C171.668,45.134 171.092,44.486 171.092,43.694 C171.164,42.902 171.812,42.326 172.604,42.326 C173.396,42.398 173.972,43.046 173.972,43.838 z" fill="#373435"/>
        <path d="M166.484,44.918 C166.412,45.71 165.764,46.286 164.972,46.286 C164.18,46.214 163.604,45.566 163.604,44.774 C163.676,43.982 164.324,43.406 165.116,43.406 C165.908,43.478 166.484,44.126 166.484,44.918 z" fill="#373435"/>
        <path d="M169.076,51.902 C169.004,52.694 168.356,53.27 167.564,53.27 C166.772,53.198 166.196,52.55 166.196,51.758 C166.268,50.966 166.916,50.39 167.708,50.39 C168.5,50.462 169.076,51.11 169.076,51.902 z" fill="#373435"/>
        <path d="M177.212,67.309 C177.14,68.101 176.492,68.677 175.7,68.677 C174.908,68.605 174.332,67.957 174.332,67.165 C174.404,66.373 175.052,65.797 175.844,65.797 C176.636,65.869 177.212,66.517 177.212,67.309 z" fill="#373435"/>
        <path d="M174.188,63.205 C174.116,63.997 173.468,64.573 172.676,64.573 C171.884,64.501 171.308,63.853 171.308,63.061 C171.38,62.269 172.028,61.694 172.82,61.694 C173.612,61.766 174.188,62.413 174.188,63.205 z" fill="#373435"/>
        <path d="M176.708,50.894 C176.636,51.686 175.988,52.262 175.196,52.262 C174.404,52.19 173.828,51.542 173.828,50.75 C173.9,49.958 174.548,49.382 175.34,49.382 C176.132,49.454 176.708,50.102 176.708,50.894 z" fill="#373435"/>
      </g>
    </g>
    <g>
      <g>
        <path d="M238.987,226.641 C240.355,221.889 234.091,218.145 232.435,217.641 C230.347,216.921 209.683,212.025 209.683,212.025 C209.683,212.025 203.923,210.082 198.595,211.234 C195.355,211.954 192.547,212.961 192.043,214.977 C190.243,221.745 193.915,227.937 194.851,229.377 C198.163,235.065 209.467,232.977 211.699,232.545 C214.507,231.969 217.027,236.649 230.275,232.617 C233.587,231.609 235.747,230.601 237.115,229.593 L237.187,229.593 C237.259,229.521 237.331,229.449 237.403,229.377 C238.627,228.369 239.059,227.433 239.059,226.569 z" fill="#606062"/>
        <path d="M238.987,226.641 C240.355,221.889 234.091,218.145 232.435,217.641 C230.347,216.921 209.683,212.025 209.683,212.025 C209.683,212.025 203.923,210.082 198.595,211.234 C195.355,211.954 192.547,212.961 192.043,214.977 C190.243,221.745 193.915,227.937 194.851,229.377 C198.163,235.065 209.467,232.977 211.699,232.545 C214.507,231.969 217.027,236.649 230.275,232.617 C233.587,231.609 235.747,230.601 237.115,229.593 L237.187,229.593 C237.259,229.521 237.331,229.449 237.403,229.377 C238.627,228.369 239.059,227.433 239.059,226.569 z" fill-opacity="0" stroke="#373435" stroke-width="1.624" stroke-linejoin="round"/>
      </g>
      <path d="M194.275,225.993 C194.275,225.993 196.723,219.369 211.195,220.377 C220.627,221.025 234.235,224.409 236.467,226.065" fill-opacity="0" stroke="#373435" stroke-width="1.624" stroke-linecap="round" stroke-linejoin="round"/>
      <g>
        <path d="M229.987,228.441 C229.267,228.081 228.979,227.289 229.267,226.713 C229.555,226.137 230.419,225.921 231.139,226.353 C231.859,226.713 232.147,227.505 231.859,228.081 C231.571,228.657 230.707,228.873 229.987,228.441 z" fill="#4C4C4D"/>
        <path d="M229.051,232.761 C228.331,232.401 228.043,231.609 228.331,231.033 C228.619,230.457 229.483,230.241 230.203,230.673 C230.923,231.033 231.211,231.825 230.923,232.401 C230.635,232.977 229.771,233.193 229.051,232.761 z" fill="#4C4C4D"/>
        <path d="M222.571,232.689 C221.851,232.329 221.563,231.537 221.851,230.961 C222.139,230.385 223.003,230.169 223.723,230.601 C224.443,230.961 224.731,231.753 224.443,232.329 C224.155,232.905 223.291,233.121 222.571,232.689 z" fill="#4C4C4D"/>
        <path d="M224.227,226.353 C223.507,225.993 223.219,225.201 223.507,224.625 C223.795,224.049 224.659,223.833 225.379,224.265 C226.099,224.625 226.387,225.417 226.099,225.993 C225.811,226.569 224.947,226.785 224.227,226.353 z" fill="#4C4C4D"/>
        <path d="M216.883,225.273 C216.163,224.913 215.875,224.121 216.163,223.545 C216.451,222.969 217.315,222.753 218.035,223.185 C218.755,223.545 219.043,224.337 218.755,224.913 C218.467,225.489 217.603,225.705 216.883,225.273 z" fill="#4C4C4D"/>
        <path d="M199.603,225.921 C198.883,225.561 198.595,224.769 198.883,224.193 C199.171,223.617 200.035,223.401 200.755,223.833 C201.475,224.193 201.763,224.985 201.475,225.561 C201.187,226.137 200.323,226.353 199.603,225.921 z" fill="#4C4C4D"/>
        <path d="M204.427,225.345 C203.707,224.985 203.419,224.193 203.707,223.617 C203.995,223.041 204.859,222.825 205.579,223.257 C206.299,223.617 206.587,224.409 206.299,224.985 C206.011,225.561 205.147,225.777 204.427,225.345 z" fill="#4C4C4D"/>
        <path d="M203.419,230.889 C202.699,230.529 202.411,229.737 202.699,229.161 C202.987,228.585 203.851,228.369 204.571,228.801 C205.291,229.161 205.579,229.953 205.291,230.529 C205.003,231.105 204.139,231.321 203.419,230.889 z" fill="#4C4C4D"/>
        <path d="M199.099,230.385 C198.379,230.025 198.091,229.233 198.379,228.657 C198.667,228.081 199.531,227.865 200.251,228.297 C200.971,228.657 201.259,229.449 200.971,230.025 C200.683,230.601 199.819,230.817 199.099,230.385 z" fill="#4C4C4D"/>
        <path d="M203.491,231.321 C202.771,230.961 202.483,230.169 202.771,229.593 C203.059,229.017 203.923,228.801 204.643,229.233 C205.363,229.593 205.651,230.385 205.363,230.961 C205.075,231.537 204.211,231.753 203.491,231.321 z" fill="#373435"/>
        <path d="M199.171,230.745 C198.451,230.385 198.163,229.593 198.451,229.017 C198.739,228.441 199.603,228.225 200.323,228.657 C201.043,229.017 201.331,229.809 201.043,230.385 C200.755,230.961 199.891,231.177 199.171,230.745 z" fill="#373435"/>
        <path d="M215.011,231.753 C214.291,231.393 214.003,230.601 214.291,230.025 C214.579,229.449 215.443,229.233 216.163,229.665 C216.883,230.025 217.171,230.817 216.883,231.393 C216.595,231.969 215.731,232.185 215.011,231.753 z" fill="#4C4C4D"/>
        <path d="M230.131,228.945 C229.411,228.585 229.123,227.793 229.411,227.217 C229.699,226.641 230.563,226.425 231.283,226.857 C232.003,227.217 232.291,228.009 232.003,228.585 C231.715,229.161 230.851,229.377 230.131,228.945 z" fill="#373435"/>
        <path d="M229.123,233.265 C228.403,232.905 228.115,232.113 228.403,231.537 C228.691,230.961 229.555,230.745 230.275,231.177 C230.995,231.537 231.283,232.329 230.995,232.905 C230.707,233.481 229.843,233.697 229.123,233.265 z" fill="#373435"/>
        <path d="M222.643,233.193 C221.923,232.833 221.635,232.041 221.923,231.465 C222.211,230.889 223.075,230.673 223.795,231.105 C224.515,231.465 224.803,232.257 224.515,232.833 C224.227,233.409 223.363,233.625 222.643,233.193 z" fill="#373435"/>
        <path d="M224.299,226.785 C223.579,226.425 223.291,225.633 223.579,225.057 C223.867,224.481 224.731,224.265 225.451,224.697 C226.171,225.057 226.459,225.849 226.171,226.425 C225.883,227.001 225.019,227.217 224.299,226.785 z" fill="#373435"/>
        <path d="M216.955,225.777 C216.235,225.417 215.947,224.625 216.235,224.049 C216.523,223.473 217.387,223.257 218.107,223.689 C218.827,224.049 219.115,224.841 218.827,225.417 C218.539,225.993 217.675,226.209 216.955,225.777 z" fill="#373435"/>
        <path d="M199.675,226.425 C198.955,226.065 198.667,225.273 198.955,224.697 C199.243,224.121 200.107,223.905 200.827,224.337 C201.547,224.697 201.835,225.489 201.547,226.065 C201.259,226.641 200.395,226.857 199.675,226.425 z" fill="#373435"/>
        <path d="M204.499,225.849 C203.779,225.489 203.491,224.697 203.779,224.121 C204.067,223.545 204.931,223.329 205.651,223.761 C206.371,224.121 206.659,224.913 206.371,225.489 C206.083,226.065 205.219,226.281 204.499,225.849 z" fill="#373435"/>
        <path d="M215.155,232.185 C214.435,231.825 214.147,231.033 214.435,230.457 C214.723,229.881 215.587,229.665 216.307,230.097 C217.027,230.457 217.315,231.249 217.027,231.825 C216.739,232.401 215.875,232.617 215.155,232.185 z" fill="#373435"/>
      </g>
    </g>
    <g>
      <g>
        <path d="M47.901,128.364 L42.933,123.324 C42.933,123.324 25.797,132.612 15.573,114.036 C15.573,114.036 14.493,122.892 17.517,124.98 C13.989,124.26 9.957,123.972 4.341,117.564 C4.053,121.164 5.637,137.219 18.957,139.019 C18.957,139.019 13.053,143.915 5.421,140.675 C5.421,140.675 18.381,151.187 35.445,145.355 C41.277,143.339 46.101,138.299 47.901,128.364 z" fill="#7A6346"/>
        <path d="M42.933,123.396 C42.933,123.396 25.797,132.684 15.573,114.108 C15.573,114.108 14.493,122.964 17.517,125.052 C13.989,124.332 9.957,124.044 4.341,117.636 C4.053,121.236 5.637,137.291 18.957,139.091 C18.957,139.091 13.053,143.987 5.421,140.747 C5.421,140.747 18.381,151.259 35.445,145.427 C41.277,143.411 46.101,138.371 47.901,128.436" fill-opacity="0" stroke="#373435" stroke-width="1.926" stroke-linecap="round" stroke-linejoin="round"/>
        <g>
          <path d="M97.364,80.845 C97.364,80.845 92.828,65.581 73.604,62.773 C58.125,60.47 48.765,66.949 48.765,66.949 C37.821,73.285 34.077,83.509 34.077,83.509 C21.621,113.316 53.877,132.108 53.877,132.108 C53.877,132.108 62.877,135.492 71.589,134.052 L97.364,80.845 z" fill="#7A6346"/>
          <path d="M97.364,80.845 C97.364,80.845 92.828,65.581 73.604,62.773 C58.125,60.47 48.765,66.949 48.765,66.949 C37.821,73.285 34.077,83.509 34.077,83.509 C21.621,113.316 53.877,132.108 53.877,132.108 C53.877,132.108 62.877,135.492 71.589,134.052 L97.364,80.845 z" fill-opacity="0" stroke="#373435" stroke-width="1.926"/>
        </g>
        <path d="M100.964,85.381 L91.028,76.165 C91.028,76.165 92.972,69.829 97.292,70.333 C101.612,70.837 105.14,77.677 100.964,85.381 z" fill="#F4CFB5"/>
        <path d="M91.028,76.165 C91.028,76.165 92.972,69.829 97.292,70.333 C101.612,70.837 105.14,77.677 100.964,85.381" fill-opacity="0" stroke="#373435" stroke-width="1.926" stroke-linecap="round" stroke-linejoin="round"/>
        <g>
          <path d="M57.549,121.164 C53.013,121.38 46.749,123.468 48.405,128.796 C51.285,138.299 62.661,130.812 62.661,130.812 C70.077,135.276 87.788,137.435 100.532,127.788 C117.092,115.332 114.5,97.621 108.02,87.181 C100.892,75.661 86.852,70.693 86.852,70.693 C79.58,67.669 73.532,71.125 73.532,71.125 C73.532,71.125 71.012,98.845 55.533,115.62 L57.549,121.236 z" fill="#FCD2B5"/>
          <path d="M57.549,121.164 C53.013,121.38 46.749,123.468 48.405,128.796 C51.285,138.299 62.661,130.812 62.661,130.812 C70.077,135.276 87.788,137.435 100.532,127.788 C117.092,115.332 114.5,97.621 108.02,87.181 C100.892,75.661 86.852,70.693 86.852,70.693 C79.58,67.669 73.532,71.125 73.532,71.125 C73.532,71.125 71.012,98.845 55.533,115.62 L57.549,121.236 z" fill-opacity="0" stroke="#373435" stroke-width="1.926" stroke-linejoin="round"/>
        </g>
        <path d="M90.596,94.525 C91.316,95.317 93.98,93.949 96.5,91.501 C99.092,89.053 100.532,86.533 99.812,85.741 C99.092,84.949 96.428,86.317 93.908,88.765 C91.388,91.213 89.876,93.733 90.596,94.525 z" fill="#F8B7B3" fill-opacity="0.702"/>
        <path d="M93.116,89.197 L89.012,85.381 C89.012,85.381 90.74,86.821 93.116,89.197 z" fill="#FEFEFE"/>
        <path d="M88.94,85.453 C88.94,85.453 90.668,86.893 93.044,89.269" fill-opacity="0" stroke="#373435" stroke-width="2.567" stroke-linecap="round" stroke-linejoin="round"/>
        <path d="M69.213,115.908 C69.861,116.7 72.596,115.476 75.26,113.172 C77.924,110.868 79.508,108.348 78.86,107.556 C78.212,106.764 75.476,107.988 72.812,110.292 C70.149,112.596 68.565,115.116 69.213,115.908 z" fill="#F8B7B3" fill-opacity="0.702"/>
        <path d="M74.468,109.14 L70.868,105.324 C70.868,105.324 72.092,106.764 74.468,109.14 z" fill="#FEFEFE"/>
        <path d="M70.868,105.324 C70.868,105.324 72.092,106.764 74.468,109.14" fill-opacity="0" stroke="#373435" stroke-width="2.567" stroke-linecap="round" stroke-linejoin="round"/>
        <path d="M83.684,99.133 C85.196,102.156 88.796,95.965 90.236,98.845 C91.172,100.716 87.572,103.668 86.348,104.748" fill-opacity="0" stroke="#373435" stroke-width="1.926" stroke-linecap="round" stroke-linejoin="round"/>
        <path d="M43.869,125.124 C43.869,125.124 21.909,144.491 4.989,119.652" fill-opacity="0" stroke="#373435" stroke-width="1.926" stroke-linecap="round" stroke-linejoin="round"/>
        <path d="M45.669,125.772 C45.669,125.772 37.965,140.243 18.957,139.091" fill-opacity="0" stroke="#373435" stroke-width="1.926" stroke-linecap="round" stroke-linejoin="round"/>
      </g>
      <path d="M90.956,118.86 C90.956,118.86 91.316,109.716 97.94,107.052" fill-opacity="0" stroke="#373435" stroke-width="1.926" stroke-linecap="round" stroke-linejoin="round"/>
      <path d="M71.444,70.189 C71.444,70.189 58.845,64.645 40.989,72.997" fill-opacity="0" stroke="#373435" stroke-width="1.926" stroke-linecap="round" stroke-linejoin="round"/>
      <path d="M66.117,69.253 C66.117,69.253 65.253,94.093 40.773,120.588" fill-opacity="0" stroke="#373435" stroke-width="1.926" stroke-linecap="round" stroke-linejoin="round"/>
      <path d="M57.549,69.469 C57.549,69.469 50.133,96.757 35.229,110.58" fill-opacity="0" stroke="#373435" stroke-width="1.926" stroke-linecap="round" stroke-linejoin="round"/>
      <path d="M50.709,69.613 C50.709,69.613 33.357,89.557 31.629,99.277" fill-opacity="0" stroke="#373435" stroke-width="1.926" stroke-linecap="round" stroke-linejoin="round"/>
      <path d="M64.173,68.101 C64.173,68.101 66.045,63.925 73.676,62.773" fill-opacity="0" stroke="#373435" stroke-width="1.926" stroke-linecap="round" stroke-linejoin="round"/>
      <path d="M55.965,67.957 C55.965,67.957 55.605,65.365 60.429,63.133" fill-opacity="0" stroke="#373435" stroke-width="1.926" stroke-linecap="round" stroke-linejoin="round"/>
    </g>
    <path d="M105.644,182.146 L102.404,166.091 C102.404,166.091 104.78,171.851 105.644,182.146 z" fill="#F6A9C5"/>
    <path d="M102.476,166.163 C102.476,166.163 104.852,171.923 105.716,182.218" fill-opacity="0" stroke="#373435" stroke-width="1.926" stroke-linecap="round" stroke-linejoin="round"/>
  </g>
</svg>