<?xml version="1.0" encoding="UTF-8"?>
<!DOCTYPE svg PUBLIC "-//W3C//DTD SVG 1.1//EN" "http://www.w3.org/Graphics/SVG/1.1/DTD/svg11.dtd">
<svg version="1.1" xmlns="http://www.w3.org/2000/svg" xmlns:xlink="http://www.w3.org/1999/xlink" x="0" y="0" width="113.396" height="263.469" viewBox="0, 0, 113.396, 263.469">
  <defs>
    <linearGradient id="Gradient_1" gradientUnits="userSpaceOnUse" x1="51.388" y1="129.644" x2="125.418" y2="129.644" gradientTransform="matrix(1, 0, 0, 1, -12.538, -7.942)">
      <stop offset="0" stop-color="#898A89"/>
      <stop offset="0.505" stop-color="#F2F2F1"/>
      <stop offset="0.766" stop-color="#767776"/>
      <stop offset="0.853" stop-color="#E4E4E3"/>
      <stop offset="1" stop-color="#636463"/>
    </linearGradient>
    <clipPath id="Clip_1">
      <path d="M56.227,101.74 C56.15,101.323 56.104,101.071 56.104,101.071 C55.953,100.02 52.649,89.057 50.696,83.8 C50.995,81.697 49.944,76.289 49.795,75.689 C49.645,75.088 42.735,75.689 41.834,76.59 C41.834,77.04 44.837,84.4 45.589,85.451 C45.589,85.451 45.738,98.969 45.889,101.521 C45.89,101.543 45.897,101.573 45.899,101.595 C49.795,106.837 52.266,110.416 53.249,112.185 C53.953,110.331 55.092,106.241 56.227,101.74 z"/>
    </clipPath>
  </defs>
  <g id="Layer_1">
    <path d="M25.055,219.653 C25.055,219.653 23.291,243.388 23.483,245.508 L28.189,248.313 C28.189,248.313 39.087,248.071 40.264,246.404 C41.44,244.736 43.335,219.258 43.335,219.258 L25.055,219.653" fill="#1A1919" id="path849"/>
    <path d="M25.055,219.653 C25.055,219.653 23.291,243.388 23.483,245.508 L28.189,248.313 C28.189,248.313 39.087,248.071 40.264,246.404 C41.44,244.736 43.335,219.258 43.335,219.258 z" fill-opacity="0" stroke="#1A1919" stroke-width="1.05" stroke-linecap="round" stroke-linejoin="round" id="path851"/>
    <path d="M73.765,219.528 C74.295,221.947 74.986,245.409 74.986,245.409 L73.423,247.982 C73.423,247.982 63.3,248.735 58.983,247.302 C58.206,246.307 55.77,222.973 55.693,221.927 C55.615,220.879 73.765,219.528 73.765,219.528" fill="#1A1919" id="path853"/>
    <path d="M73.765,219.528 C74.295,221.947 74.986,245.409 74.986,245.409 L73.423,247.982 C73.423,247.982 63.3,248.735 58.983,247.302 C58.206,246.307 55.77,222.973 55.693,221.927 C55.615,220.879 73.765,219.528 73.765,219.528 z" fill-opacity="0" stroke="#1A1919" stroke-width="1.05" stroke-linecap="round" stroke-linejoin="round" id="path855"/>
    <path d="M24.852,143.813 C23.802,146.264 18.902,213.113 19.252,220.464 C25.552,223.264 56.352,229.563 75.252,222.563 C75.602,218.363 73.852,151.514 71.402,144.164 L61.952,135.764 C61.952,135.764 30.802,135.414 29.402,135.764 C28.002,136.113 24.852,143.813 24.852,143.813" fill="#FFFFFE" id="path857"/>
    <path d="M24.852,143.813 C23.802,146.264 18.902,213.113 19.252,220.464 C25.552,223.264 56.352,229.563 75.252,222.563 C75.602,218.363 73.852,151.514 71.402,144.164 L61.952,135.764 C61.952,135.764 30.802,135.414 29.402,135.764 C28.002,136.113 24.852,143.813 24.852,143.813 z M68.569,75.539 L70.936,77.43 C72.102,76.498 72.336,77.664 74.436,80.464 C76.536,83.264 86.568,107.998 87.502,110.098 C88.902,109.864 90.536,111.03 90.77,111.73 C91.002,112.43 92.402,113.598 92.402,113.598 L76.302,117.33 L71.402,116.397 C71.402,116.397 67.67,79.063 67.67,78.364 C67.67,77.664 68.569,75.539 68.569,75.539 z" fill-opacity="0" stroke="#1A1919" stroke-width="1.05" stroke-linecap="round" stroke-linejoin="round" id="path859"/>
    <path d="M18.436,133.196 C16.569,132.964 1.869,129.931 0.702,128.063 C-0.232,123.631 3.036,110.563 3.269,109.63 C8.169,90.264 12.602,82.098 13.536,83.03 C13.536,83.03 16.336,80.93 17.036,80.697 C17.969,81.164 20.535,85.131 23.802,88.397 C27.069,91.664 26.369,101.93 26.369,102.63 C26.369,103.33 24.502,110.33 22.636,111.964 L19.456,111.435 C19.136,112.897 17.269,117.797 16.569,119.197 L20.069,120.596 L22.402,121.063 C22.169,121.764 18.669,128.53 18.436,133.196" fill="#FFFFFE" id="path861"/>
    <path d="M18.436,133.196 C16.569,132.964 1.869,129.931 0.702,128.063 C-0.232,123.631 3.036,110.563 3.269,109.63 C8.169,90.264 12.602,82.098 13.536,83.03 C13.536,83.03 16.336,80.93 17.036,80.697 C17.969,81.164 20.535,85.131 23.802,88.397 C27.069,91.664 26.369,101.93 26.369,102.63 C26.369,103.33 24.502,110.33 22.636,111.964 L19.456,111.435 C19.136,112.897 17.269,117.797 16.569,119.197 L20.069,120.596 L22.402,121.063 C22.169,121.764 18.669,128.53 18.436,133.196 z" fill-opacity="0" stroke="#1A1919" stroke-width="1.05" stroke-linecap="round" stroke-linejoin="round" id="path863"/>
    <path d="M28.017,70.132 C27.566,70.581 16.001,80.345 15.701,80.945 C16.151,80.945 17.203,81.095 18.254,83.048 C19.305,85 23.511,94.163 21.559,111.134 C20.958,112.035 19.756,112.035 19.456,111.435 C19.305,111.735 23.661,119.846 24.712,122.849 C25.764,125.853 21.73,144.101 22.46,145.228 C24.112,147.781 43.636,153.488 48.593,153.338 C50.094,151.535 52.348,142.375 53.7,138.02 C54.601,141.773 56.553,152.286 57.755,153.037 C58.956,153.789 59.858,153.187 59.858,153.187 C59.858,153.187 72.023,149.282 73.674,147.631 C73.525,146.879 71.434,135.619 71.423,135.315 C71.423,134.264 74.125,105.427 74.125,101.822 C73.975,99.719 70.972,80.945 68.569,75.539 C68.118,74.937 58.806,68.93 57.905,68.479 C57.004,68.029 29.218,69.231 28.017,70.132" fill="#1A1919" id="path865"/>
    <path d="M28.017,70.132 C27.566,70.581 16.001,80.345 15.701,80.945 C16.151,80.945 17.203,81.095 18.254,83.048 C19.305,85 23.511,94.163 21.559,111.134 C20.958,112.035 19.756,112.035 19.456,111.435 C19.305,111.735 23.661,119.846 24.712,122.849 C25.764,125.853 21.73,144.101 22.46,145.228 C24.112,147.781 43.636,153.488 48.593,153.338 C50.094,151.535 52.348,142.375 53.7,138.02 C54.601,141.773 56.553,152.286 57.755,153.037 C58.956,153.789 59.858,153.187 59.858,153.187 C59.858,153.187 72.023,149.282 73.674,147.631 C73.525,146.879 71.434,135.619 71.423,135.315 C71.423,134.264 74.125,105.427 74.125,101.822 C73.975,99.719 70.972,80.945 68.569,75.539 C68.118,74.937 58.806,68.93 57.905,68.479 C57.004,68.029 29.218,69.231 28.017,70.132 z" fill-opacity="0" stroke="#1A1919" stroke-width="1.05" stroke-linecap="round" stroke-linejoin="round" id="path867"/>
    <path d="M30.27,67.879 L28.016,70.882 C28.467,72.234 31.746,83.151 38.53,91.91 C46.791,102.574 51.747,109.482 53.249,112.185 C54.9,107.829 58.955,91.158 59.707,85.752 C60.459,80.345 58.355,70.732 57.905,68.479 C57.905,68.479 54.45,64.124 53.849,63.974 C53.249,63.824 30.27,67.879 30.27,67.879" fill="#FFFFFE" id="path869"/>
    <path d="M30.27,67.879 L28.016,70.882 C28.467,72.234 31.746,83.151 38.53,91.91 C46.791,102.574 51.747,109.482 53.249,112.185 C54.9,107.829 58.955,91.158 59.707,85.752 C60.459,80.345 58.355,70.732 57.905,68.479 C57.905,68.479 54.45,64.124 53.849,63.974 C53.249,63.824 30.27,67.879 30.27,67.879 z" fill-opacity="0" stroke="#1A1919" stroke-width="1.05" stroke-linecap="round" stroke-linejoin="round" id="path871"/>
    <path d="M31.321,69.381 C32.372,70.732 36.878,75.389 41.083,76.739 C42.735,76.739 48.743,75.838 49.795,75.238 C50.996,73.587 53.7,68.629 54.45,63.974 L31.321,69.381" fill="#F4BB9D" id="path873"/>
    <path d="M31.321,69.381 C32.372,70.732 36.878,75.389 41.083,76.739 C42.735,76.739 48.743,75.838 49.795,75.238 C50.996,73.587 53.7,68.629 54.45,63.974 z" fill-opacity="0" stroke="#1A1919" stroke-width="1.05" stroke-linecap="round" stroke-linejoin="round" id="path875"/>
    <path d="M56.9,11.391 C60.205,12.051 63.509,13.539 65.491,16.181 C67.473,18.824 69.291,30.885 67.309,38.98 C65.326,47.077 24.188,55.667 24.188,55.667 L9.485,48.068 C9.485,48.068 6.511,46.415 5.52,43.771 C4.528,41.128 1.72,35.347 3.868,30.224 C6.015,25.103 7.502,23.781 11.302,17.834 C15.102,11.887 24.519,3.459 33.606,1.313 C41.175,-0.477 52.44,-0.009 56.9,11.391" fill="#2D2118" id="path877"/>
    <path d="M56.9,11.391 C60.205,12.051 63.509,13.539 65.491,16.181 C67.473,18.824 69.291,30.885 67.309,38.98 C65.326,47.077 24.188,55.667 24.188,55.667 L9.485,48.068 C9.485,48.068 6.511,46.415 5.52,43.771 C4.528,41.128 1.72,35.347 3.868,30.224 C6.015,25.103 7.502,23.781 11.302,17.834 C15.102,11.887 24.519,3.459 33.606,1.313 C41.175,-0.477 52.44,-0.009 56.9,11.391 z" fill-opacity="0" stroke="#1A1919" stroke-width="1.05" stroke-linecap="round" stroke-linejoin="round" id="path879"/>
    <path d="M13.644,45.403 C12.487,45.074 8.357,42.925 7.696,45.403 C7.036,47.881 7.366,51.185 10.67,54.49 C13.975,57.793 17.444,59.775 19.592,57.958 L13.644,45.403" fill="#F4BB9D" id="path881"/>
    <path d="M13.644,45.403 C12.487,45.074 8.357,42.925 7.696,45.403 C7.036,47.881 7.366,51.185 10.67,54.49 C13.975,57.793 17.444,59.775 19.592,57.958 z" fill-opacity="0" stroke="#1A1919" stroke-width="1.05" stroke-linecap="round" stroke-linejoin="round" id="path883"/>
    <path d="M49.062,70.859 C42.785,73.502 39.685,73.659 38.796,73.659 C36.462,73.659 31.65,71.383 30.162,70.393 C24.786,66.807 16.423,58.642 14.441,53.85 C12.459,49.058 13.12,41.954 13.12,40.468 C13.45,39.476 15.764,35.843 15.764,35.843 C15.764,36.668 15.764,38.155 16.093,38.815 C16.919,38.484 24.685,27.415 27.988,23.947 C27.657,24.608 28.318,28.076 28.98,30.555 C29.971,29.398 35.258,24.443 38.398,21.303 C37.736,22.79 36.25,24.608 36.25,25.103 C38.562,24.772 39.883,23.452 44.18,21.799 C48.475,20.146 52.936,18.989 55.579,17.338 C57.561,20.808 60.866,31.216 60.866,40.137 C61.197,40.137 61.525,39.806 61.525,39.806 C62.022,38.649 65.161,34.52 68.135,36.172 C72.141,38.398 68.96,47.408 66.483,51.206 C64.004,55.005 62.682,54.016 61.197,53.188 C60.938,54.665 58.395,61.759 54.429,66.193 C54.316,66.837 52.329,68.759 52.329,68.759" fill="#F4BB9D" id="path885"/>
    <path d="M49.062,70.859 C42.785,73.502 39.685,73.659 38.796,73.659 C36.462,73.659 31.65,71.383 30.162,70.393 C24.786,66.807 16.423,58.642 14.441,53.85 C12.459,49.058 13.12,41.954 13.12,40.468 C13.45,39.476 15.764,35.843 15.764,35.843 C15.764,36.668 15.764,38.155 16.093,38.815 C16.919,38.484 24.685,27.415 27.988,23.947 C27.657,24.608 28.318,28.076 28.98,30.555 C29.971,29.398 35.258,24.443 38.398,21.303 C37.736,22.79 36.25,24.608 36.25,25.103 C38.562,24.772 39.883,23.452 44.18,21.799 C48.475,20.146 52.936,18.989 55.579,17.338 C57.561,20.808 60.866,31.216 60.866,40.137 C61.197,40.137 61.525,39.806 61.525,39.806 C62.022,38.649 65.161,34.52 68.135,36.172 C72.141,38.398 68.96,47.408 66.483,51.206 C64.004,55.005 62.682,54.016 61.197,53.188 C60.938,54.665 58.395,61.759 54.429,66.193 C54.316,66.837 52.329,68.759 52.329,68.759 M51.118,54.181 C49.797,55.501 43.684,58.145 40.379,58.642 C37.588,59.059 32.779,59.137 31.127,58.311 M32.779,41.789 C33.109,43.111 33.771,46.415 33.274,48.233 C32.284,49.224 30.797,50.875 31.789,52.362 C32.779,53.85 35.258,54.181 35.258,54.181 M22.701,24.278 C21.381,26.259 17.085,33.199 16.258,35.843 M10.339,51.02 C9.678,49.698 10.339,46.89 12.652,48.046 M14.441,26.92 C12.954,30.389 11.797,35.843 12.789,41.128 M48.971,13.704 C46.162,15.19 42.527,17.503 38.398,21.303 M43.518,28.737 C45.336,26.755 48.31,24.772 49.466,27.25 M22.537,33.033 L20.884,32.537 M63.344,46.25 C64.335,45.095 65.161,44.433 64.5,44.102 C63.839,43.771 62.848,45.424 63.344,43.441 C63.839,41.459 64.335,39.144 66.317,39.806 M41.834,76.89 C41.834,76.89 36.127,81.396 34.625,84.851 M49.795,75.689 C51.146,75.539 57.454,78.393 59.707,81.697 M14.469,83.73 C16.102,84.897 21.002,96.797 19.602,110.098" fill-opacity="0" stroke="#1A1919" stroke-width="1.05" stroke-linecap="round" stroke-linejoin="round" id="path887"/>
    <path d="M40.777,125.089 C40.05,126.904 48.827,131.389 48.827,131.389 C53.377,132.438 68.779,133.693 79.802,132.789 C92.577,131.739 101.677,128.938 104.477,127.714 C109.552,123.864 111.302,122.289 111.302,122.289 L105.177,119.839 C105.177,119.839 41.127,124.214 40.777,125.089" fill="#9E9F9E" id="path889"/>
    <path d="M40.777,125.089 C40.05,126.904 48.827,131.389 48.827,131.389 C53.377,132.438 68.779,133.693 79.802,132.789 C92.577,131.739 101.677,128.938 104.477,127.714 C109.552,123.864 111.302,122.289 111.302,122.289 L105.177,119.839 C105.177,119.839 41.127,124.214 40.777,125.089 z" fill-opacity="0" stroke="#1A1919" stroke-width="1.05" stroke-linecap="round" stroke-linejoin="round" id="path891"/>
    <path d="M112.877,119.489 C113.14,123.782 96.358,128.126 77.352,129.289 C58.348,130.449 39.116,128.277 38.854,123.984 C38.591,119.691 53.784,115.27 72.788,114.109 C91.794,112.948 112.614,115.196 112.877,119.489 z" fill="url(#Gradient_1)" id="path893"/>
    <path d="M112.877,119.489 C113.14,123.782 96.358,128.126 77.352,129.289 C58.348,130.449 39.116,128.277 38.854,123.984 C38.591,119.691 53.784,115.27 72.788,114.109 C91.794,112.948 112.614,115.196 112.877,119.489 z" fill-opacity="0" stroke="#1A1919" stroke-width="1.033" stroke-linecap="round" stroke-linejoin="round" id="path895"/>
    <path d="M46.027,127.364 C44.102,125.438 49.002,122.289 58.802,120.188 C68.602,118.089 100.102,116.864 105.877,121.239" fill-opacity="0" stroke="#1A1919" stroke-width="1.05" stroke-linecap="round" stroke-linejoin="round" id="path897"/>
    <path d="M68.602,117.389 C67.202,116.864 63.475,116.08 62.127,109.514 C61.125,104.635 62.477,90.614 62.827,88.864 C65.277,87.639 70.877,86.938 73.152,88.339 C74.377,90.438 79.277,105.664 76.127,113.539 C74.67,116.594 71.927,117.214 71.927,117.214 L72.452,123.164 C74.202,122.639 77.002,123.688 77.177,125.264 C77.352,126.839 72.802,126.664 70.702,126.664 C68.602,126.664 63.877,126.664 63.877,125.264 C63.877,123.864 66.677,123.339 68.952,123.339 L68.777,117.389" fill="#FFFFFE" id="path899"/>
    <path d="M68.602,117.389 C67.202,116.864 63.475,116.08 62.127,109.514 C61.125,104.635 62.477,90.614 62.827,88.864 C65.277,87.639 70.877,86.938 73.152,88.339 C74.377,90.438 79.277,105.664 76.127,113.539 C74.67,116.594 71.927,117.214 71.927,117.214 L72.452,123.164 C74.202,122.639 77.002,123.688 77.177,125.264 C77.352,126.839 72.802,126.664 70.702,126.664 C68.602,126.664 63.877,126.664 63.877,125.264 C63.877,123.864 66.677,123.339 68.952,123.339 L68.777,117.389 M63.352,88.864 C62.302,90.614 71.577,91.664 73.152,88.339" fill-opacity="0" stroke="#1A1919" stroke-width="1.05" stroke-linecap="round" stroke-linejoin="round" id="path901"/>
    <path d="M85.402,117.039 C83.827,116.864 80.152,115.989 78.927,110.389 C77.32,103.045 79.452,89.739 79.977,88.164 C80.852,86.589 86.802,85.364 89.777,87.989 C91.177,92.364 93.977,104.438 93.102,110.914 C92.584,114.745 90.827,115.639 89.077,116.864 L89.252,122.289 C90.652,122.114 93.627,123.164 93.102,124.039 C92.577,124.914 89.252,125.789 87.502,125.789 C85.752,125.789 81.202,125.438 81.202,124.214 C81.202,122.989 85.052,122.989 85.577,122.639 C86.319,122.144 85.402,117.039 85.402,117.039" fill="#FFFFFE" id="path903"/>
    <path d="M85.402,117.039 C83.827,116.864 80.152,115.989 78.927,110.389 C77.32,103.045 79.452,89.739 79.977,88.164 C80.852,86.589 86.802,85.364 89.777,87.989 C91.177,92.364 93.977,104.438 93.102,110.914 C92.584,114.745 90.827,115.639 89.077,116.864 L89.252,122.289 C90.652,122.114 93.627,123.164 93.102,124.039 C92.577,124.914 89.252,125.789 87.502,125.789 C85.752,125.789 81.202,125.438 81.202,124.214 C81.202,122.989 85.052,122.989 85.577,122.639 C86.319,122.144 85.402,117.039 85.402,117.039 z M79.977,88.164 C81.027,89.739 84.877,91.664 89.777,87.989" fill-opacity="0" stroke="#1A1919" stroke-width="1.05" stroke-linecap="round" stroke-linejoin="round" id="path905"/>
    <path d="M31.152,122.989 L33.077,123.164 C33.952,122.639 38.502,120.188 39.552,120.188 C40.602,120.188 42.002,120.014 42.527,120.364 C43.052,120.714 44.802,121.414 45.852,121.589 C46.902,121.414 49.177,122.114 49.177,122.114 C49.177,122.813 49.527,123.864 46.902,124.214 C44.277,124.563 44.102,123.864 44.102,123.864 L41.302,124.739 C42.177,125.789 46.202,127.714 47.602,128.764 C49.002,129.813 53.552,131.739 55.302,132.438 C56.177,132.613 57.052,133.139 57.052,133.139 C57.227,133.839 56.177,134.363 55.302,134.714 C55.302,134.714 56.702,134.714 56.002,135.238 C55.302,135.764 54.077,136.113 53.202,135.938 C52.327,135.764 50.752,136.113 50.752,136.113 C50.577,136.639 50.577,136.988 50.052,136.988 C49.527,136.988 49.002,137.339 49.002,137.339 C47.602,138.039 43.927,136.113 43.927,136.113 C43.927,136.113 36.227,135.414 32.902,132.613 C32.902,132.613 29.052,132.438 28.177,132.438 C27.302,132.438 30.627,123.864 31.152,122.989" fill="#F4BB9D" id="path907"/>
    <path d="M31.152,122.989 L33.077,123.164 C33.952,122.639 38.502,120.188 39.552,120.188 C40.602,120.188 42.002,120.014 42.527,120.364 C43.052,120.714 44.802,121.414 45.852,121.589 C46.902,121.414 49.177,122.114 49.177,122.114 C49.177,122.813 49.527,123.864 46.902,124.214 C44.277,124.563 44.102,123.864 44.102,123.864 L41.302,124.739 C42.177,125.789 46.202,127.714 47.602,128.764 C49.002,129.813 53.552,131.739 55.302,132.438 C56.177,132.613 57.052,133.139 57.052,133.139 C57.227,133.839 56.177,134.363 55.302,134.714 C55.302,134.714 56.702,134.714 56.002,135.238 C55.302,135.764 54.077,136.113 53.202,135.938 C52.327,135.764 50.752,136.113 50.752,136.113 C50.577,136.639 50.577,136.988 50.052,136.988 C49.527,136.988 49.002,137.339 49.002,137.339 C47.602,138.039 43.927,136.113 43.927,136.113 C43.927,136.113 36.227,135.414 32.902,132.613 C32.902,132.613 29.052,132.438 28.177,132.438 C27.302,132.438 30.627,123.864 31.152,122.989 z M44.452,131.739 C45.677,132.438 49.551,133.598 50.752,133.839 C51.627,134.014 54.777,134.539 55.827,134.363 M45.152,133.839 C45.852,134.188 49.177,135.938 50.752,136.113 M44.277,135.238 C44.802,135.764 45.852,136.988 46.902,137.164" fill-opacity="0" stroke="#1A1919" stroke-width="1.05" stroke-linecap="round" stroke-linejoin="round" id="path909"/>
    <path d="M18.027,119.839 C19.077,120.014 25.377,121.589 28.352,122.114 L31.677,122.813 C31.677,122.813 28.002,128.589 29.577,134.188 C28.002,134.539 23.452,133.839 23.452,133.839 C21.352,133.839 14.527,132.964 10.852,131.914" fill="#FFFFFE" id="path911"/>
    <path d="M18.027,119.839 C19.077,120.014 25.377,121.589 28.352,122.114 L31.677,122.813 C31.677,122.813 28.002,128.589 29.577,134.188 C28.002,134.539 23.452,133.839 23.452,133.839 C21.352,133.839 14.527,132.964 10.852,131.914 M25.202,121.239 C24.327,122.464 21.352,128.414 22.402,133.839 M32.202,158.514 C34.302,159.563 48.652,162.714 60.552,160.964 M32.902,164.464 C37.802,164.813 59.502,164.464 68.602,161.313" fill-opacity="0" stroke="#1A1919" stroke-width="1.05" stroke-linecap="round" stroke-linejoin="round" id="path913"/>
    <path d="M24.736,246.131 C24.736,246.131 21.468,250.331 20.768,251.031 C19.602,251.264 14.702,252.896 14.702,254.296 C14.702,255.696 15.402,256.863 15.402,256.863 L15.636,258.964 C17.268,260.131 20.536,261.063 24.036,260.363 C27.536,259.664 31.035,258.264 33.368,256.631 L34.768,254.296 L35.002,255.932 C37.102,255.696 39.668,254.296 39.668,254.296 L39.668,252.664 C40.602,251.731 40.368,248.696 39.668,246.363 L24.736,246.131" fill="#1A1919" id="path915"/>
    <path d="M24.736,246.131 C24.736,246.131 21.468,250.331 20.768,251.031 C19.602,251.264 14.702,252.896 14.702,254.296 C14.702,255.696 15.402,256.863 15.402,256.863 L15.636,258.964 C17.268,260.131 20.536,261.063 24.036,260.363 C27.536,259.664 31.035,258.264 33.368,256.631 L34.768,254.296 L35.002,255.932 C37.102,255.696 39.668,254.296 39.668,254.296 L39.668,252.664 C40.602,251.731 40.368,248.696 39.668,246.363 z M15.402,256.863 C16.568,256.863 15.869,257.331 19.136,257.563 C22.402,257.796 27.302,258.496 32.202,255.464 C32.436,254.764 34.536,253.363 34.536,253.363 L40.136,252.432" fill-opacity="0" stroke="#1A1919" stroke-width="1.05" stroke-linecap="round" stroke-linejoin="round" id="path917"/>
    <path d="M60.202,244.964 C59.502,245.664 57.869,249.396 59.036,252.196 L59.27,255.231 C60.436,255.464 66.502,257.096 66.502,257.096 L66.97,254.996 L68.369,258.264 C69.536,259.664 75.834,263.164 79.102,262.932 C82.369,262.696 83.302,262.229 83.77,261.296 L84.002,259.896 C84.702,258.729 84.002,256.164 84.002,256.164 C82.369,254.996 77.234,253.596 75.602,250.796 C73.97,247.996 72.569,245.432 72.569,245.432 L60.202,244.964" fill="#1A1919" id="path919"/>
    <path d="M60.202,244.964 C59.502,245.664 57.869,249.396 59.036,252.196 L59.27,255.231 C60.436,255.464 66.502,257.096 66.502,257.096 L66.97,254.996 L68.369,258.264 C69.536,259.664 75.834,263.164 79.102,262.932 C82.369,262.696 83.302,262.229 83.77,261.296 L84.002,259.896 C84.702,258.729 84.002,256.164 84.002,256.164 C82.369,254.996 77.234,253.596 75.602,250.796 C73.97,247.996 72.569,245.432 72.569,245.432 z M59.036,252.196 C59.97,252.432 63.468,254.531 66.502,254.764 M67.67,254.996 C68.369,256.396 71.635,258.731 74.902,259.432 C78.17,260.131 80.97,260.598 82.136,260.131 C83.302,259.664 84.002,259.896 84.002,259.896" fill-opacity="0" stroke="#1A1919" stroke-width="1.05" stroke-linecap="round" stroke-linejoin="round" id="path921"/>
    <path d="M27.191,51.246 C27.191,52.885 25.343,54.212 23.065,54.212 C20.785,54.212 18.938,52.885 18.938,51.246 C18.938,49.607 20.785,48.28 23.065,48.28 C25.343,48.28 27.191,49.607 27.191,51.246" fill="#EB9174" id="path923"/>
    <path d="M57.276,46.418 C57.276,48.057 55.429,49.385 53.149,49.385 C50.87,49.385 49.022,48.057 49.022,46.418 C49.022,44.781 50.87,43.453 53.149,43.453 C55.429,43.453 57.276,44.781 57.276,46.418" fill="#EB9174" id="path925"/>
    <path d="M56.227,101.74 C56.15,101.323 56.104,101.071 56.104,101.071 C55.953,100.02 52.649,89.057 50.696,83.8 C50.995,81.697 49.944,76.289 49.795,75.689 C49.645,75.088 42.735,75.689 41.834,76.59 C41.834,77.04 44.837,84.4 45.589,85.451 C45.589,85.451 45.738,98.969 45.889,101.521 C45.89,101.543 45.897,101.573 45.899,101.595 C49.795,106.837 52.266,110.416 53.249,112.185 C53.953,110.331 55.092,106.241 56.227,101.74" fill="#8A8B8A" id="path927"/>
    <path d="M47.252,85.014 L50.696,83.8" fill-opacity="0" stroke="#1A1919" stroke-width="1.05" stroke-linecap="round" stroke-linejoin="round" id="path929"/>
    <g clip-path="url(#Clip_1)" id="g945">
      <path d="M47.252,74.864 C47.252,74.864 43.402,78.714 42.702,80.464" fill-opacity="0" stroke="#1A1919" stroke-width="1.05" stroke-linecap="round" stroke-linejoin="round" id="path931"/>
      <path d="M51.102,74.864 C51.102,74.864 45.152,80.813 44.102,83.614" fill-opacity="0" stroke="#1A1919" stroke-width="2.1" stroke-linecap="round" stroke-linejoin="round" id="path933"/>
      <path d="M51.802,79.764 C51.802,79.764 46.376,83.789 45.589,85.451" fill-opacity="0" stroke="#1A1919" stroke-width="1.4" stroke-linecap="round" stroke-linejoin="round" id="path935"/>
      <path d="M52.852,83.614 C52.152,84.664 47.952,89.914 45.152,97.614" fill-opacity="0" stroke="#1A1919" stroke-width="2.1" stroke-linecap="round" stroke-linejoin="round" id="path937"/>
      <path d="M54.252,86.063 C52.152,89.563 46.902,96.563 45.152,102.164" fill-opacity="0" stroke="#1A1919" stroke-width="1.4" stroke-linecap="round" stroke-linejoin="round" id="path939"/>
      <path d="M56.002,88.864 C54.602,90.614 49.702,97.614 46.902,106.014" fill-opacity="0" stroke="#1A1919" stroke-width="2.1" stroke-linecap="round" stroke-linejoin="round" id="path941"/>
      <path d="M55.652,96.563 C55.652,96.563 53.202,103.563 51.802,109.164" fill-opacity="0" stroke="#1A1919" stroke-width="1.4" stroke-linecap="round" stroke-linejoin="round" id="path943"/>
    </g>
    <path d="M56.227,101.74 C56.15,101.323 56.104,101.071 56.104,101.071 C55.953,100.02 52.649,89.057 50.696,83.8 C50.995,81.697 49.944,76.289 49.795,75.689 C49.645,75.088 42.735,75.689 41.834,76.59 C41.834,77.04 44.837,84.4 45.589,85.451 C45.589,85.451 45.738,98.969 45.889,101.521 C45.89,101.543 45.897,101.573 45.899,101.595 C49.795,106.837 52.266,110.416 53.249,112.185 C53.953,110.331 55.092,106.241 56.227,101.74 z" fill-opacity="0" stroke="#1A1919" stroke-width="1.05" stroke-linecap="round" stroke-linejoin="round" id="path947"/>
    <path d="M27.772,44.09 C27.772,45.608 26.541,46.839 25.022,46.839 C23.504,46.839 22.273,45.608 22.273,44.09 C22.273,42.571 23.504,41.34 25.022,41.34 C26.541,41.34 27.772,42.571 27.772,44.09" fill="#1A1919" id="path949"/>
    <path d="M51.46,40.494 C51.46,42.013 50.229,43.243 48.71,43.243 C47.192,43.243 45.96,42.013 45.96,40.494 C45.96,38.975 47.192,37.745 48.71,37.745 C50.229,37.745 51.46,38.975 51.46,40.494" fill="#1A1919" id="path951"/>
    <path d="M64.623,92.845 C64.623,92.845 68.733,92.845 69.647,92.388 C70.56,91.932 67.363,96.271 67.134,98.326 C66.906,100.381 65.764,106.774 66.906,110.428 C68.048,114.083 66.221,112.711 65.764,112.026 C65.307,111.342 63.938,102.208 64.167,100.152 C64.394,98.098 64.623,92.845 64.623,92.845" fill="#B1D4E6" id="path953"/>
    <path d="M74.442,124.587 C74.442,124.587 74.898,125.957 71.701,125.729 C68.505,125.5 68.733,124.815 69.418,124.815 C70.104,124.815 71.701,124.587 71.701,124.587 L74.442,124.587" fill="#B1D4E6" id="path955"/>
    <path d="M81.292,91.247 C82.662,91.932 87.915,92.16 87.915,92.16 C87.915,92.16 84.719,95.814 84.032,97.413 C83.349,99.011 83.119,103.349 84.032,113.396 C84.125,114.414 82.891,114.767 82.205,112.94 C81.521,111.113 80.836,105.86 80.607,103.806 C80.379,101.751 80.836,95.358 81.292,91.247" fill="#B1D4E6" id="path957"/>
    <path d="M87.002,123.216 C87.002,123.216 86.545,124.13 87.915,124.13 C89.285,124.13 87.915,125.043 86.545,124.815 C85.175,124.587 83.349,124.585 84.262,123.9 C85.175,123.216 87.002,123.216 87.002,123.216" fill="#B1D4E6" id="path959"/>
    <path d="M92.402,113.598 C94.212,111.808 97.362,110.058 98.762,111.108 C100.162,112.158 100.862,115.658 101.563,117.058 C102.262,118.458 101.912,119.858 99.813,119.158 C97.712,118.458 97.362,114.958 97.362,114.958" fill="#F4BB9D" id="path961"/>
    <path d="M92.402,113.598 C94.212,111.808 97.362,110.058 98.762,111.108 C100.162,112.158 100.862,115.658 101.563,117.058 C102.262,118.458 101.912,119.858 99.813,119.158 C97.712,118.458 97.362,114.958 97.362,114.958" fill-opacity="0" stroke="#1A1919" stroke-width="1.05" stroke-linecap="round" stroke-linejoin="round" id="path963"/>
  </g>
</svg>