<?xml version="1.0" encoding="UTF-8"?>
<!DOCTYPE svg PUBLIC "-//W3C//DTD SVG 1.1//EN" "http://www.w3.org/Graphics/SVG/1.1/DTD/svg11.dtd">
<svg version="1.1" xmlns="http://www.w3.org/2000/svg" xmlns:xlink="http://www.w3.org/1999/xlink" x="0" y="0" width="368" height="251" viewBox="0, 0, 368, 251">
  <defs>
    <radialGradient id="Gradient_1" gradientUnits="userSpaceOnUse" cx="106.819" cy="56.824" r="4.426">
      <stop offset="0" stop-color="#87521C"/>
      <stop offset="0" stop-color="#352109"/>
      <stop offset="0.006" stop-color="#86511C"/>
      <stop offset="0.624" stop-color="#82601B"/>
      <stop offset="1" stop-color="#82601A"/>
    </radialGradient>
    <clipPath id="Clip_1">
      <path d="M111.407,57.75 C111.032,60.214 108.67,61.798 106.142,61.287 C103.606,60.777 101.856,58.365 102.231,55.899 C102.603,53.436 104.963,51.853 107.495,52.361 C110.028,52.872 111.778,55.284 111.407,57.75 z"/>
    </clipPath>
    <linearGradient id="Gradient_2" gradientUnits="userSpaceOnUse" x1="127.822" y1="41.898" x2="145.321" y2="39.798">
      <stop offset="0" stop-color="#BFBEAE"/>
      <stop offset="1" stop-color="#E2E1CC"/>
    </linearGradient>
    <clipPath id="Clip_2">
      <path d="M128.079,65.669 C130.86,65.262 133.997,61.359 135.912,59.471 C138.752,56.67 141.474,54.358 144.854,52.136 C146.441,51.092 156.199,44.107 158.714,47.902 C160.507,50.609 156.695,51.263 155.638,52.661 C152.805,56.406 152.617,60.495 151.422,64.876 C150.532,68.142 148.673,71.229 148.032,74.545 C147.229,78.7 149.164,83.107 145.612,86.581 C139.76,92.303 131.556,89.196 132.278,81.419 z"/>
    </clipPath>
  </defs>
  <g id="Layer_1">
    <path d="M98.892,228.219 C99.39,227.407 99.949,226.623 100.52,225.865 C103.043,222.521 102.668,219.076 104.872,215.693 C106.815,212.711 113.783,211.156 111.644,206.617 C107.733,206.609 101.627,209.056 98.224,205.984 C95.904,203.89 97.217,200.933 93.128,202.403 C88.746,203.978 88.047,211.291 85.528,214.744 C81.805,219.849 78.152,220.712 72.331,217.535 C69.946,216.235 68.086,214.925 65.427,213.931 C61.121,212.324 50.428,208.177 52.121,201.634 C52.739,199.247 55.755,199.931 56.564,198.455 C58.251,195.377 55.504,192.808 52.56,194.406 C51.059,195.22 50.008,199.345 48.994,200.789 C47.812,202.47 46.266,202.561 45.814,205.267 C45.117,209.439 47.792,214.207 49.976,217.568 C53.68,223.267 59.472,226.896 65.209,230.168 C71.407,233.701 76.679,238.547 82.956,241.812 C86.476,243.643 93.277,246.955 96.843,243.615 C99.579,241.05 97.844,238.51 97.207,235.757 C96.572,233.009 97.491,230.504 98.892,228.219" fill="#792154"/>
    <path d="M111.644,206.617 C108.281,206.611 103.298,208.41 99.803,206.963 C97.983,208.365 96.112,209.707 94.331,211.089 C90.951,213.713 90.359,214.551 89.144,218.804 C88.569,220.82 87.036,222.373 85.664,223.88 C82.256,227.629 79.584,228.666 75.063,225.755 C72.631,224.187 70.857,223.469 68.177,222.547 C66.697,222.036 65.641,221.066 64.195,220.419 C62.335,219.584 60.732,219.972 58.774,219.699 C55.517,219.244 50.994,216.591 48.152,214.529 C48.745,215.619 49.378,216.646 49.976,217.568 C53.68,223.267 59.472,226.896 65.209,230.168 C71.407,233.701 76.679,238.547 82.956,241.812 C86.476,243.643 93.277,246.955 96.843,243.615 C99.579,241.05 97.844,238.51 97.207,235.757 C96.572,233.009 97.491,230.504 98.892,228.219 C99.39,227.407 99.949,226.623 100.52,225.865 C103.043,222.521 102.668,219.076 104.872,215.693 C106.815,212.711 113.783,211.156 111.644,206.617" fill="#551943"/>
    <path d="M98.892,228.219 C99.39,227.407 99.949,226.623 100.52,225.865 C103.043,222.521 102.668,219.076 104.872,215.693 C106.815,212.711 113.783,211.156 111.644,206.617 C107.733,206.609 101.627,209.056 98.224,205.984 C95.904,203.89 97.217,200.933 93.128,202.403 C88.746,203.978 88.047,211.291 85.528,214.744 C81.805,219.849 78.152,220.712 72.331,217.535 C69.946,216.235 68.086,214.925 65.427,213.931 C61.121,212.324 50.428,208.177 52.121,201.634 C52.739,199.247 55.755,199.931 56.564,198.455 C58.251,195.377 55.504,192.808 52.56,194.406 C51.059,195.22 50.008,199.345 48.994,200.789 C47.812,202.47 46.266,202.561 45.814,205.267 C45.117,209.439 47.792,214.207 49.976,217.568 C53.68,223.267 59.472,226.896 65.209,230.168 C71.407,233.701 76.679,238.547 82.956,241.812 C86.476,243.643 93.277,246.955 96.843,243.615 C99.579,241.05 97.844,238.51 97.207,235.757 C96.572,233.009 97.491,230.504 98.892,228.219 z" fill-opacity="0" stroke="#1A1919" stroke-width="1.5" stroke-linecap="round" stroke-linejoin="round"/>
    <path d="M121.092,111.464 C118.479,112.046 111.846,114.985 111.732,110.032 C111.683,107.914 112.384,105.09 113.383,103.24 C115.209,99.86 119.065,97.741 122.619,96.428 C125.162,95.488 134.586,92.327 136.63,95.511 C137.418,96.738 136.341,99.98 135.925,101.175 C134.73,104.614 132.599,107.125 129.472,108.999 C126.771,110.618 124.084,110.799 121.092,111.464" fill="#2E0F39"/>
    <path d="M121.092,111.464 C118.479,112.046 111.846,114.985 111.732,110.032 C111.683,107.914 112.384,105.09 113.383,103.24 C115.209,99.86 119.065,97.741 122.619,96.428 C125.162,95.488 134.586,92.327 136.63,95.511 C137.418,96.738 136.341,99.98 135.925,101.175 C134.73,104.614 132.599,107.125 129.472,108.999 C126.771,110.618 124.084,110.799 121.092,111.464 z" fill-opacity="0" stroke="#1A1919" stroke-width="1.5" stroke-linecap="round" stroke-linejoin="round"/>
    <g>
      <path d="M110.092,233.469 C110.59,232.657 111.148,231.873 111.72,231.115 C114.243,227.771 113.868,224.326 116.072,220.943 C118.015,217.961 124.983,216.406 122.844,211.867 C118.934,211.859 112.827,214.306 109.423,211.234 C107.104,209.14 108.417,206.183 104.328,207.653 C99.946,209.228 99.247,216.541 96.728,219.994 C93.005,225.099 89.352,225.962 83.531,222.785 C81.146,221.485 79.286,220.175 76.627,219.181 C72.321,217.574 61.628,213.427 63.321,206.884 C63.939,204.497 66.955,205.181 67.764,203.705 C69.451,200.627 66.704,198.058 63.76,199.656 C62.259,200.47 61.208,204.595 60.194,206.039 C59.012,207.72 57.466,207.811 57.014,210.517 C56.317,214.689 58.993,219.457 61.176,222.818 C64.88,228.517 70.672,232.146 76.409,235.418 C82.607,238.951 87.879,243.797 94.155,247.062 C97.676,248.893 104.477,252.205 108.043,248.865 C110.779,246.3 109.044,243.76 108.408,241.007 C107.772,238.259 108.691,235.754 110.092,233.469" fill="#792154"/>
      <path d="M122.844,211.867 C119.481,211.861 114.498,213.66 111.003,212.213 C109.183,213.615 107.312,214.957 105.53,216.339 C102.151,218.963 101.559,219.801 100.345,224.054 C99.769,226.07 98.236,227.623 96.864,229.13 C93.456,232.879 90.784,233.916 86.263,231.005 C83.831,229.437 82.057,228.719 79.376,227.797 C77.896,227.286 76.84,226.316 75.396,225.669 C73.535,224.834 71.932,225.222 69.974,224.949 C66.717,224.494 62.194,221.841 59.352,219.779 C59.945,220.869 60.578,221.896 61.176,222.818 C64.88,228.517 70.672,232.146 76.409,235.418 C82.607,238.951 87.879,243.797 94.155,247.062 C97.676,248.893 104.477,252.205 108.043,248.865 C110.779,246.3 109.044,243.76 108.408,241.007 C107.772,238.259 108.691,235.754 110.092,233.469 C110.59,232.657 111.148,231.873 111.72,231.115 C114.243,227.771 113.868,224.326 116.072,220.943 C118.015,217.961 124.983,216.406 122.844,211.867" fill="#551943"/>
      <path d="M110.092,233.469 C110.59,232.657 111.148,231.873 111.72,231.115 C114.243,227.771 113.868,224.326 116.072,220.943 C118.015,217.961 124.983,216.406 122.844,211.867 C118.934,211.859 112.827,214.306 109.423,211.234 C107.104,209.14 108.417,206.183 104.328,207.653 C99.946,209.228 99.247,216.541 96.728,219.994 C93.005,225.099 89.352,225.962 83.531,222.785 C81.146,221.485 79.286,220.175 76.627,219.181 C72.321,217.574 61.628,213.427 63.321,206.884 C63.939,204.497 66.955,205.181 67.764,203.705 C69.451,200.627 66.704,198.058 63.76,199.656 C62.259,200.47 61.208,204.595 60.194,206.039 C59.012,207.72 57.466,207.811 57.014,210.517 C56.317,214.689 58.993,219.457 61.176,222.818 C64.88,228.517 70.672,232.146 76.409,235.418 C82.607,238.951 87.879,243.797 94.155,247.062 C97.676,248.893 104.477,252.205 108.043,248.865 C110.779,246.3 109.044,243.76 108.408,241.007 C107.772,238.259 108.691,235.754 110.092,233.469 z" fill-opacity="0" stroke="#1A1919" stroke-width="1.5" stroke-linecap="round" stroke-linejoin="round"/>
    </g>
    <path d="M63.817,147.929 C62.563,148.058 61.432,148.989 60.229,149.367 C58.714,149.842 57.755,150.686 56.146,150.855 C54.474,151.032 52.771,151.103 51.18,151.702 C49.073,152.496 47.371,154.15 46.102,155.97 C44.697,157.986 43.021,161.42 44.279,163.851 C45.04,165.321 47.19,166.062 48.624,166.677 C51.325,167.835 54.317,167.968 57.057,166.716 C60.857,164.978 62.231,160.336 66.248,158.718 C66.248,158.718 70.241,156.443 71.554,156.268 L63.817,147.929" fill="#E2E0CB"/>
    <path d="M63.817,147.929 C62.563,148.058 61.432,148.989 60.229,149.367 C58.714,149.842 57.755,150.686 56.146,150.855 C54.474,151.032 52.771,151.103 51.18,151.702 C49.073,152.496 47.371,154.15 46.102,155.97 C44.697,157.986 43.021,161.42 44.279,163.851 C45.04,165.321 47.19,166.062 48.624,166.677 C51.325,167.835 54.317,167.968 57.057,166.716 C60.857,164.978 62.231,160.336 66.248,158.718 C66.248,158.718 70.241,156.443 71.554,156.268 L63.817,147.929 z" fill-opacity="0" stroke="#1A1919" stroke-width="1.5" stroke-linecap="round" stroke-linejoin="round"/>
    <path d="M90.545,168.619 C69.504,163.944 60.143,145.205 60.137,145.193 C60.669,146.257 77.691,138.331 78.716,137.81 C89.674,132.248 100.259,125.209 107.195,115.067 C111.214,109.192 125.684,93.406 133.687,101.898 C133.687,101.898 144.925,113.822 124.012,131.549 C124.012,131.549 92.127,160.515 90.545,168.619" fill="#691B49"/>
    <path d="M90.545,168.619 C69.504,163.944 60.143,145.205 60.137,145.193 C60.669,146.257 77.691,138.331 78.716,137.81 C89.674,132.248 100.259,125.209 107.195,115.067 C111.214,109.192 125.684,93.406 133.687,101.898 C133.687,101.898 144.925,113.822 124.012,131.549 C124.012,131.549 92.127,160.515 90.545,168.619 z" fill-opacity="0" stroke="#1A1919" stroke-width="1.5" stroke-linecap="round" stroke-linejoin="round"/>
    <path d="M8.211,154.255 C4.368,153.884 0.915,156.353 0.498,159.767 C0.082,163.181 2.859,166.249 6.703,166.619 L232.182,188.323 C236.026,188.693 239.481,186.224 239.897,182.811 C240.313,179.396 237.536,176.33 233.692,175.959 L8.211,154.255" fill="#74492A"/>
    <path d="M8.211,154.255 C4.368,153.884 0.915,156.353 0.498,159.767 C0.082,163.181 2.859,166.249 6.703,166.619 L232.182,188.323 C236.026,188.693 239.481,186.224 239.897,182.811 C240.313,179.396 237.536,176.33 233.692,175.959 L8.211,154.255 z" fill-opacity="0" stroke="#1A1919" stroke-width="1"/>
    <path d="M8.1,159.977 C6.562,159.83 5.181,160.816 5.014,162.183 C4.848,163.548 5.959,164.775 7.496,164.923 L205.139,183.947 C206.676,184.095 208.059,183.109 208.225,181.742 C208.391,180.377 207.28,179.15 205.743,179.002 L8.1,159.977" fill="#A66843"/>
    <path d="M362.334,210.638 C356.536,213.33 344.645,211.291 338.569,209.564 C346.813,212.966 355.6,215.464 363.782,218.255 C351.479,221.091 340.881,217.882 328.946,215.708 C335.422,219.297 340.836,224.566 347.934,227.259 C341.262,225.985 335.239,223.228 329.331,220.418 C334.077,222.849 339.543,227.153 343.485,230.463 C336.93,230.55 329.813,226.769 323.913,224.568 C319.76,223.021 314.12,219.132 309.594,218.964 C314.672,223.763 322.713,227.714 329.122,231.215 C316.096,226.586 303.627,222.888 291.663,216.357 C291.663,216.357 293.711,221.259 301.909,224.491 C286.194,221.613 271.549,216.415 257.032,210.51 C251.725,208.351 246.178,206.359 241.442,203.275 C237.327,200.597 235.18,196.697 231.5,193.807 C224.088,187.983 208.688,194.535 199.62,194.619 C201.266,193.273 203.086,191.745 205.014,190.975 C201.713,191.462 197.928,190.609 194.483,190.353 C199.022,189.222 202.68,187.342 206.735,185.397 C204.262,185.737 200.911,185.552 198.18,186.058 C199.764,184.49 202.194,183.152 204.186,181.795 C201.536,181.213 198.448,181.103 195.616,181.298 C199.002,179.357 202.866,177.144 206.057,175.281 C204.098,174.589 201.954,174.279 199.868,174.101 C201.217,173.949 202.561,173.188 203.782,172.839 C202.333,172.35 200.733,171.928 199.163,171.623 C202,170.646 205.563,169.189 208.622,169.503 C206.999,167.769 204.167,166.177 201.926,164.827 C203.399,165.197 205.151,165.559 206.766,165.578 C205.893,164.239 204.719,162.851 203.651,161.562 C206.297,162.037 208.588,163.511 211.188,163.951 C210.219,160.744 208.227,157.802 207.184,154.523 C207.184,154.523 220.528,168.437 231.022,170.906 C231.022,170.906 235.95,172.84 239.317,170.246 C239.317,170.246 250.106,158.566 271.577,160.632 C280.043,161.448 288.192,161.441 296.61,160.343 C303.426,159.454 310.042,157.591 316.479,155.366 C320.977,153.811 326.911,149.826 331.579,149.702 C325.592,152.091 319.456,155.39 314.61,159.21 C328.014,156.233 340.53,157.095 353.528,162.297 C347.1,161.553 340,160.177 333.637,161.644 C342.77,159.922 354.78,166.928 362.42,170.666 C358.149,170.15 353.891,170.283 349.635,169.89 C356.565,172.093 360.911,176.435 366.778,179.841 C358.129,178.591 350.381,183.047 341.875,182.822 C348.065,183.037 355.483,186.65 361.657,188.078 C355.297,187.803 346.137,190.636 340.545,193.166 C347.135,193.975 354.276,196.494 360.37,198.837 C360.37,198.837 337.524,198.255 333.528,199.277 C333.528,199.277 357.057,202.636 362.67,205.677 C362.67,205.677 350.03,205.4 342.536,206.242 C342.536,206.242 353.44,210.709 362.334,210.638" fill="#C58F4B"/>
    <path d="M341.116,214.572 C338.815,213.818 336.641,212.359 334.116,212.359 C334.116,212.399 334.116,212.744 334.12,212.888 C334.125,212.892 334.129,212.894 334.133,212.898 C334.127,212.988 334.124,212.962 334.12,212.888 C329.78,209.63 325.293,212.03 319.999,211.539 C312.077,210.802 305.165,207.558 297.643,205.622 C299.463,208.29 302.6,210.205 305.448,211.942 C294.083,208.045 282.965,204.383 271.926,199.707 C275.249,202 278.956,205.509 282.874,206.757 C273.145,204.803 261.678,201.574 253.301,196.418 C251.196,195.122 249.651,193.115 247.502,191.855 C244.75,190.242 241.643,189.105 238.836,187.513 C234.321,184.957 229.879,185.832 224.627,184.955 C221.747,184.474 219.258,184.102 216.37,184.091 C212.815,184.078 209.805,182.961 206.418,182.547 C205.2,182.396 204.038,182.436 202.926,182.623 C201.239,183.707 199.442,184.808 198.18,186.058 C200.911,185.552 204.262,185.737 206.735,185.397 C202.68,187.342 199.022,189.222 194.483,190.353 C197.928,190.609 201.713,191.462 205.014,190.975 C203.086,191.745 201.266,193.273 199.62,194.619 C208.688,194.535 224.088,187.983 231.5,193.807 C235.18,196.697 237.327,200.597 241.442,203.275 C246.178,206.359 251.725,208.351 257.032,210.51 C271.549,216.415 286.194,221.613 301.909,224.491 C293.711,221.259 291.663,216.357 291.663,216.357 C303.627,222.888 316.096,226.586 329.122,231.215 C322.713,227.714 314.672,223.763 309.594,218.964 C314.12,219.132 319.76,223.021 323.913,224.568 C329.813,226.769 336.93,230.55 343.485,230.463 C339.543,227.153 334.077,222.849 329.331,220.418 C335.239,223.228 341.262,225.985 347.934,227.259 C340.836,224.566 335.422,219.297 328.946,215.708 C340.881,217.882 351.479,221.091 363.782,218.255 C362.102,217.682 360.393,217.123 358.672,216.564 C356.413,216.634 354.159,216.672 351.918,216.547 C348.29,216.347 344.532,215.691 341.116,214.572" fill="#9F743B"/>
    <path d="M362.334,210.638 C356.536,213.33 344.645,211.291 338.569,209.564 C346.813,212.966 355.6,215.464 363.782,218.255 C351.479,221.091 340.881,217.882 328.946,215.708 C335.422,219.297 340.836,224.566 347.934,227.259 C341.262,225.985 335.239,223.228 329.331,220.418 C334.077,222.849 339.543,227.153 343.485,230.463 C336.93,230.55 329.813,226.769 323.913,224.568 C319.76,223.021 314.12,219.132 309.594,218.964 C314.672,223.763 322.713,227.714 329.122,231.215 C316.096,226.586 303.627,222.888 291.663,216.357 C291.663,216.357 293.711,221.259 301.909,224.491 C286.194,221.613 271.549,216.415 257.032,210.51 C251.725,208.351 246.178,206.359 241.442,203.275 C237.327,200.597 235.18,196.697 231.5,193.807 C224.088,187.983 208.688,194.535 199.62,194.619 C201.266,193.273 203.086,191.745 205.014,190.975 C201.713,191.462 197.928,190.609 194.483,190.353 C199.022,189.222 202.68,187.342 206.735,185.397 C204.262,185.737 200.911,185.552 198.18,186.058 C199.764,184.49 202.194,183.152 204.186,181.795 C201.536,181.213 198.448,181.103 195.616,181.298 C199.002,179.357 202.866,177.144 206.057,175.281 C204.098,174.589 201.954,174.279 199.868,174.101 C201.217,173.949 202.561,173.188 203.782,172.839 C202.333,172.35 200.733,171.928 199.163,171.623 C202,170.646 205.563,169.189 208.622,169.503 C206.999,167.769 204.167,166.177 201.926,164.827 C203.399,165.197 205.151,165.559 206.766,165.578 C205.893,164.239 204.719,162.851 203.651,161.562 C206.297,162.037 208.588,163.511 211.188,163.951 C210.219,160.744 208.227,157.802 207.184,154.523 C207.184,154.523 220.528,168.437 231.022,170.906 C231.022,170.906 235.95,172.84 239.317,170.246 C239.317,170.246 250.106,158.566 271.577,160.632 C280.043,161.448 288.192,161.441 296.61,160.343 C303.426,159.454 310.042,157.591 316.479,155.366 C320.977,153.811 326.911,149.826 331.579,149.702 C325.592,152.091 319.456,155.39 314.61,159.21 C328.014,156.233 340.53,157.095 353.528,162.297 C347.1,161.553 340,160.177 333.637,161.644 C342.77,159.922 354.78,166.928 362.42,170.666 C358.149,170.15 353.891,170.283 349.635,169.89 C356.565,172.093 360.911,176.435 366.778,179.841 C358.129,178.591 350.381,183.047 341.875,182.822 C348.065,183.037 355.483,186.65 361.657,188.078 C355.297,187.803 346.137,190.636 340.545,193.166 C347.135,193.975 354.276,196.494 360.37,198.837 C360.37,198.837 337.524,198.255 333.528,199.277 C333.528,199.277 357.057,202.636 362.67,205.677 C362.67,205.677 350.03,205.4 342.536,206.242 C342.536,206.242 353.44,210.709 362.334,210.638 z" fill-opacity="0" stroke="#1A1919" stroke-width="1" stroke-linecap="round" stroke-linejoin="round"/>
    <path d="M230.034,168.373 C229.629,168.873 220.163,180.75 224.295,191.759 C224.602,192.574 225.592,193.013 226.51,192.742 C227.426,192.47 227.922,191.59 227.616,190.775 C224.055,181.285 232.788,170.297 232.875,170.186 C233.438,169.489 233.258,168.518 232.475,168.017 C231.69,167.517 230.598,167.676 230.034,168.373" fill="#CEB45C"/>
    <path d="M230.034,168.373 C229.629,168.873 220.163,180.75 224.295,191.759 C224.602,192.574 225.592,193.013 226.51,192.742 C227.426,192.47 227.922,191.59 227.616,190.775 C224.055,181.285 232.788,170.297 232.875,170.186 C233.438,169.489 233.258,168.518 232.475,168.017 C231.69,167.517 230.598,167.676 230.034,168.373 z" fill-opacity="0" stroke="#1A1919" stroke-width="1"/>
    <path d="M236.428,169.822 C236.024,170.322 226.559,182.199 230.69,193.209 C230.997,194.023 231.987,194.463 232.905,194.192 C233.823,193.92 234.317,193.04 234.012,192.225 C230.45,182.735 239.182,171.746 239.272,171.636 C239.834,170.939 239.655,169.968 238.87,169.467 C238.086,168.966 236.993,169.127 236.428,169.822" fill="#CEB45C"/>
    <path d="M236.428,169.822 C236.024,170.322 226.559,182.199 230.69,193.209 C230.997,194.023 231.987,194.463 232.905,194.192 C233.823,193.92 234.317,193.04 234.012,192.225 C230.45,182.735 239.182,171.746 239.272,171.636 C239.834,170.939 239.655,169.968 238.87,169.467 C238.086,168.966 236.993,169.127 236.428,169.822 z" fill-opacity="0" stroke="#1A1919" stroke-width="1"/>
    <path d="M233.231,169.097 C232.827,169.597 223.362,181.474 227.493,192.484 C227.799,193.298 228.79,193.738 229.708,193.467 C230.624,193.195 231.12,192.316 230.813,191.501 C227.252,182.01 235.985,171.021 236.073,170.912 C236.637,170.214 236.458,169.243 235.672,168.743 C234.887,168.242 233.795,168.401 233.231,169.097" fill="#CEB45C"/>
    <path d="M233.231,169.097 C232.827,169.597 223.362,181.474 227.493,192.484 C227.799,193.298 228.79,193.738 229.708,193.467 C230.624,193.195 231.12,192.316 230.813,191.501 C227.252,182.01 235.985,171.021 236.073,170.912 C236.637,170.214 236.458,169.243 235.672,168.743 C234.887,168.242 233.795,168.401 233.231,169.097 z" fill-opacity="0" stroke="#1A1919" stroke-width="1"/>
    <path d="M145.579,111.518 C145.579,111.518 168.504,124.818 182.504,126.568 C182.504,126.568 168.333,120.465 166.318,115.38 C166.318,115.38 178.304,123.068 196.504,121.493 C196.504,121.493 178.792,115.992 172.51,108.505 C187.192,114.768 198.079,111.868 198.079,111.868 C189.329,111.868 170.616,97.031 170.616,97.031 C183.229,104.768 197.729,99.444 197.729,99.444 C183.028,100.319 162.405,85.862 162.405,85.862 C159.124,82.722 156.537,78.864 154.805,74.669 C153.681,71.946 152.759,66.274 149.545,65.085 C149.525,65.077 115.479,52.485 115.479,52.485 C110.559,62.556 114.112,75.251 117.322,85.453 C117.322,85.453 123.062,105.218 145.579,111.518" fill="#F0A558"/>
    <path d="M145.579,111.518 C145.579,111.518 168.504,124.818 182.504,126.568 C182.504,126.568 168.333,120.465 166.318,115.38 C166.318,115.38 178.304,123.068 196.504,121.493 C196.504,121.493 178.792,115.992 172.51,108.505 C187.192,114.768 198.079,111.868 198.079,111.868 C189.329,111.868 170.616,97.031 170.616,97.031 C183.229,104.768 197.729,99.444 197.729,99.444 C183.028,100.319 162.405,85.862 162.405,85.862 C159.124,82.722 156.537,78.864 154.805,74.669 C153.681,71.946 152.759,66.274 149.545,65.085 C149.525,65.077 115.479,52.485 115.479,52.485 C110.559,62.556 114.112,75.251 117.322,85.453 C117.322,85.453 123.062,105.218 145.579,111.518 z" fill-opacity="0" stroke="#1A1919" stroke-width="1.5" stroke-linecap="round" stroke-linejoin="round"/>
    <path d="M115.976,112.697 C117.24,107.35 108.616,102.826 111.308,97.676 C113.706,93.089 122.435,92.529 125.78,88.357 C127.765,85.882 129.904,82.405 133.234,81.912 C135.779,86.249 131.973,92.345 132.596,97.297 C132.863,99.424 133.587,102.13 135.068,103.745 C135.737,104.474 138.524,105.118 138.834,105.791 C140.573,109.565 136.731,110.47 133.29,112.113 C129.302,114.017 125.553,117.96 121.943,119.614 C121.008,120.043 114.767,121.318 113.614,120.65 C109.36,118.187 115.363,115.286 115.976,112.697" fill="#E2E0CB"/>
    <path d="M115.976,112.697 C117.24,107.35 108.616,102.826 111.308,97.676 C113.706,93.089 122.435,92.529 125.78,88.357 C127.765,85.882 129.904,82.405 133.234,81.912 C135.779,86.249 131.973,92.345 132.596,97.297 C132.863,99.424 133.587,102.13 135.068,103.745 C135.737,104.474 138.524,105.118 138.834,105.791 C140.573,109.565 136.731,110.47 133.29,112.113 C129.302,114.017 125.553,117.96 121.943,119.614 C121.008,120.043 114.767,121.318 113.614,120.65 C109.36,118.187 115.363,115.286 115.976,112.697 z" fill-opacity="0" stroke="#1A1919" stroke-width="1.5" stroke-linecap="round" stroke-linejoin="round"/>
    <g>
      <path d="M162.146,68.352 C155.682,66.005 151.205,60.691 149.717,54.223 C149.183,51.902 148.781,49.657 148.556,47.278 C148.48,46.489 147.632,43.448 147.89,42.88 C148.425,41.702 150.499,42.316 151.37,40.845 C153,38.093 151.025,34.336 149.148,32.455 C151.215,32.394 153.85,32.643 155.112,30.748 C156.759,28.276 154.415,26.311 152.814,24.661 C158.545,25.255 163.858,27.622 169.804,26.71 C174.798,25.943 180.747,25.501 185.233,23.1 C187.92,21.662 192.372,19.655 194.364,17.307 C196.331,14.988 198.885,11.062 194.651,10.634 C190.811,10.246 186.405,11.337 182.438,11.138 C173.521,10.692 165.593,9.846 157.495,6.051 C145.426,0.396 132.036,0.82 119.453,4.263 C102.438,8.918 86.944,19.01 76.278,33.118 L162.145,68.819" fill="#792154"/>
      <path d="M162.146,68.352 C155.682,66.005 151.205,60.691 149.717,54.223 C149.183,51.902 148.781,49.657 148.556,47.278 C148.48,46.489 147.632,43.448 147.89,42.88 C148.425,41.702 150.499,42.316 151.37,40.845 C153,38.093 151.025,34.336 149.148,32.455 C151.215,32.394 153.85,32.643 155.112,30.748 C156.759,28.276 154.415,26.311 152.814,24.661 C158.545,25.255 163.858,27.622 169.804,26.71 C174.798,25.943 180.747,25.501 185.233,23.1 C187.92,21.662 192.372,19.655 194.364,17.307 C196.331,14.988 198.885,11.062 194.651,10.634 C190.811,10.246 186.405,11.337 182.438,11.138 C173.521,10.692 165.593,9.846 157.495,6.051 C145.426,0.396 132.036,0.82 119.453,4.263 C102.438,8.918 86.944,19.01 76.278,33.118 L162.145,68.819" fill-opacity="0" stroke="#1A1919" stroke-width="1.5" stroke-linecap="round" stroke-linejoin="round"/>
    </g>
    <path d="M96.765,30.501 C95.49,30.358 85.827,30.16 85.647,29.12 C84.521,22.607 95.294,23.502 99.104,24.688 C100.273,25.052 97.754,21.743 97.862,22.095 C97.058,19.454 99.267,20.476 100.773,19.583 C102.63,18.482 101.125,19.005 102.164,17.428 C102.781,16.49 104.285,16.187 104.983,15.617 C105.105,15.518 105.182,14.526 105.47,14.218 C106.078,13.569 107.807,13.146 108.66,12.813 C111.743,11.607 114.275,11.168 117.59,11.652 C122.017,12.297 120.55,10.961 123.617,8.84 C125.903,7.26 131.508,6.407 134.373,6.32 C135.933,6.273 141.044,6.863 142.116,8.095 C143.685,9.898 140.932,10.966 139.091,11.664 C136.362,12.697 133.426,12.621 132.041,15.386 C131.344,16.776 132.349,17.389 130.445,18.447 C129.518,18.962 128.001,18.471 127.198,19.102 C125.536,20.407 126.511,23.33 125.056,24.69 C123.768,25.894 121.929,25.316 121.358,27.739 C120.846,29.911 122.039,31.926 122.996,33.643 C124.127,35.673 125.608,36.648 122.881,37.551 C117.986,39.174 111.721,35.301 107.379,33.539 C104.006,32.17 100.394,30.907 96.765,30.501" fill="#972E59"/>
    <path d="M195.25,10.73 C194.192,13.727 190.254,15.55 187.491,16.41 C183.125,17.768 178.609,19.12 174.004,19.475 C169.679,19.808 165.277,18.817 161.023,19.157 C158.835,19.332 156.632,20.007 154.435,20.256 C152.149,20.515 148.879,20.621 147.197,22.409 C145.688,24.013 146.973,26.614 145.712,28.239 C144.672,29.581 142.325,29.225 141.305,30.535 C139.047,33.438 143.799,37.076 139.465,40.071 C136.463,42.146 136.046,41.435 136.193,45.298 C136.364,49.796 133.987,52.116 133.002,56.167 C132.962,56.334 132.941,56.498 132.91,56.664 L162.145,68.819 L162.146,68.352 C155.682,66.005 151.205,60.691 149.717,54.223 C149.183,51.902 148.781,49.657 148.556,47.278 C148.48,46.489 147.632,43.448 147.89,42.88 C148.425,41.702 150.499,42.316 151.37,40.845 C153,38.093 151.025,34.336 149.148,32.455 C151.215,32.394 153.85,32.643 155.112,30.748 C156.759,28.276 154.415,26.311 152.814,24.661 C158.545,25.255 163.858,27.622 169.804,26.71 C174.798,25.943 180.747,25.501 185.233,23.1 C187.92,21.662 192.372,19.655 194.364,17.307 C196.229,15.108 198.618,11.466 195.25,10.73" fill="#520F3C"/>
    <path d="M162.146,68.352 C155.682,66.005 151.205,60.691 149.717,54.223 C149.183,51.902 148.781,49.657 148.556,47.278 C148.48,46.489 147.632,43.448 147.89,42.88 C148.425,41.702 150.499,42.316 151.37,40.845 C153,38.093 151.025,34.336 149.148,32.455 C151.215,32.394 153.85,32.643 155.112,30.748 C156.759,28.276 154.415,26.311 152.814,24.661 C158.545,25.255 163.858,27.622 169.804,26.71 C174.798,25.943 180.747,25.501 185.233,23.1 C187.92,21.662 192.372,19.655 194.364,17.307 C196.331,14.988 198.885,11.062 194.651,10.634 C190.811,10.246 186.405,11.337 182.438,11.138 C173.521,10.692 165.593,9.846 157.495,6.051 C145.426,0.396 132.036,0.82 119.453,4.263 C102.438,8.918 86.944,19.01 76.278,33.118 L162.145,68.819" fill-opacity="0" stroke="#1A1919" stroke-width="1.5" stroke-linecap="round" stroke-linejoin="round"/>
    <path d="M179.961,84.923 C176.271,95.099 141.338,91.772 101.933,77.491 C62.528,63.209 33.573,43.382 37.262,33.205 C40.95,23.028 75.884,26.355 115.29,40.636 C154.695,54.918 183.649,74.745 179.961,84.923" fill="#792154"/>
    <path d="M179.961,84.923 C176.271,95.099 141.338,91.772 101.933,77.491 C62.528,63.209 33.573,43.382 37.262,33.205 C40.95,23.028 75.884,26.355 115.29,40.636 C154.695,54.918 183.649,74.745 179.961,84.923 z" fill-opacity="0" stroke="#1A1919" stroke-width="1.5" stroke-linecap="round" stroke-linejoin="round"/>
    <path d="M136.012,68.819 C136.957,80.352 131.092,92.577 120.705,97.776 C115.392,100.435 109.769,101.481 104.617,104.287 C100.194,106.695 95.539,110.021 90.758,111.646 C86.665,113.038 77.046,112.975 80.349,106.275 C81.776,103.38 84.079,101.761 82.213,98.259 C80.79,95.59 77.745,94.245 75.788,92.061 C75.788,92.061 72.954,88.944 72.604,84.044 C72.604,84.044 71.729,72.319 70.153,66.893 C70.153,66.893 65.429,54.294 69.979,48.518 C69.979,48.518 100.079,39.593 135.429,64.268 L136.012,68.819" fill="#E2E0CB"/>
    <path d="M115.208,57.406 C114.379,62.922 104.1,60.927 100.431,61.932 C97.571,62.715 90.666,66.206 93.083,60.025 C94.785,55.669 99.084,51.463 103.846,50.728 C107.93,50.097 116.128,51.278 115.208,57.406" fill="#FFFFFE"/>
    <path d="M115.208,57.406 C114.379,62.922 104.1,60.927 100.431,61.932 C97.571,62.715 90.666,66.206 93.083,60.025 C94.785,55.669 99.084,51.463 103.846,50.728 C107.93,50.097 116.128,51.278 115.208,57.406 z" fill-opacity="0" stroke="#1A1919" stroke-width="1"/>
    <g clip-path="url(#Clip_1)">
      <path d="M111.407,57.75 C111.032,60.214 108.67,61.798 106.142,61.287 C103.606,60.777 101.856,58.365 102.231,55.899 C102.603,53.436 104.963,51.853 107.495,52.361 C110.028,52.872 111.778,55.284 111.407,57.75" fill="#352109"/>
      <path d="M111.407,57.75 C111.032,60.214 108.67,61.798 106.142,61.287 C103.606,60.777 101.856,58.365 102.231,55.899 C102.603,53.436 104.963,51.853 107.495,52.361 C110.028,52.872 111.778,55.284 111.407,57.75 z" fill="url(#Gradient_1)"/>
    </g>
    <path d="M111.407,57.75 C111.032,60.214 108.67,61.798 106.142,61.287 C103.606,60.777 101.856,58.365 102.231,55.899 C102.603,53.436 104.963,51.853 107.495,52.361 C110.028,52.872 111.778,55.284 111.407,57.75 z" fill-opacity="0" stroke="#1A1919" stroke-width="0.204"/>
    <path d="M108.786,56.832 C108.949,58.006 108.114,59.035 106.926,59.128 C105.739,59.218 104.642,58.341 104.48,57.168 C104.317,55.991 105.149,54.966 106.337,54.871 C107.524,54.78 108.62,55.656 108.786,56.832" fill="#1A1919"/>
    <path d="M111.377,58.218 C111.513,59.184 110.827,60.028 109.852,60.104 C108.877,60.18 107.979,59.458 107.842,58.495 C107.71,57.529 108.391,56.684 109.371,56.609 C110.346,56.533 111.245,57.254 111.377,58.218" fill="#FFFFFE"/>
    <path d="M91.682,59.814 C91.682,59.814 97.99,45.63 112.358,50.355" fill-opacity="0" stroke="#1A1919" stroke-width="1"/>
    <path d="M133.679,94.085 C135.077,100.248 121.283,110.634 115.108,109.027 C111.207,108.013 109.966,105.801 111.987,102.677 C111.987,102.677 101.653,115.493 103.929,148.044 C103.929,148.044 106.145,196.285 77.679,209.586 C77.679,209.586 114.778,217.169 134.612,209.119 C142.66,206.199 150.531,202.615 158.13,198.684 C167.295,193.943 176.818,188.494 183.87,180.82 C185.713,178.813 191.038,172.714 188.875,170.47 C187.942,169.502 185.042,168.947 183.768,168.127 C182.287,167.172 180.934,166.031 179.646,164.834 C177.063,162.431 174.809,159.702 172.406,157.125 C168.009,152.408 163.352,147.773 159.076,143.027 C155.227,138.754 153.583,131.277 152.578,125.818 C148.845,105.518 145.345,96.186 133.679,94.085" fill="#792154"/>
    <path d="M80.711,154.518 C80.468,156.456 76.97,159.001 75.077,158.907 C73.666,158.838 72.57,157.886 71.481,157.095 C70.349,156.275 68.643,156.013 67.261,155.966 C64.886,155.884 61.484,156.754 60.528,159.185 C60.528,159.185 63.863,159.515 64.612,160.119 C65.802,161.078 64.866,163.573 64.478,164.752 C63.918,166.459 63.049,168.121 61.773,169.404 C61.009,170.172 60.166,171.056 59.212,171.57 C58.525,171.939 58.026,171.916 57.706,172.648 C56.747,174.841 61.781,175.4 62.956,175.55 C66.469,176.004 70.058,176.533 73.298,174.668 C76.353,172.908 93.079,161.404 90.512,158.952 L80.711,154.518" fill="#E2E0CB"/>
    <path d="M80.711,154.518 C80.468,156.456 76.97,159.001 75.077,158.907 C73.666,158.838 72.57,157.886 71.481,157.095 C70.349,156.275 68.643,156.013 67.261,155.966 C64.886,155.884 61.484,156.754 60.528,159.185 C60.528,159.185 63.863,159.515 64.612,160.119 C65.802,161.078 64.866,163.573 64.478,164.752 C63.918,166.459 63.049,168.121 61.773,169.404 C61.009,170.172 60.166,171.056 59.212,171.57 C58.525,171.939 58.026,171.916 57.706,172.648 C56.747,174.841 61.781,175.4 62.956,175.55 C66.469,176.004 70.058,176.533 73.298,174.668 C76.353,172.908 93.079,161.404 90.512,158.952 L80.711,154.518 z" fill-opacity="0" stroke="#1A1919" stroke-width="1.5" stroke-linecap="round" stroke-linejoin="round"/>
    <path d="M35.984,167.364 C36.232,168.705 35.73,170.482 34.266,170.951 C33.137,171.312 30.989,170.59 30.762,169.308 C30.602,168.402 31.297,167.417 31.892,166.816 C33.242,165.455 35.541,164.966 35.984,167.364" fill="#E2E0CB"/>
    <path d="M35.984,167.364 C36.232,168.705 35.73,170.482 34.266,170.951 C33.137,171.312 30.989,170.59 30.762,169.308 C30.602,168.402 31.297,167.417 31.892,166.816 C33.242,165.455 35.541,164.966 35.984,167.364 z" fill-opacity="0" stroke="#1A1919" stroke-width="1.5" stroke-linecap="round" stroke-linejoin="round"/>
    <path d="M38.475,165.23 C42.746,161.614 43.166,167.636 41.607,170.521 C40.586,172.411 37.995,173.276 36.456,171.117 C35.099,169.211 37.111,166.385 38.475,165.23" fill="#E2E0CB"/>
    <path d="M38.475,165.23 C42.746,161.614 43.166,167.636 41.607,170.521 C40.586,172.411 37.995,173.276 36.456,171.117 C35.099,169.211 37.111,166.385 38.475,165.23 z" fill-opacity="0" stroke="#1A1919" stroke-width="1.5" stroke-linecap="round" stroke-linejoin="round"/>
    <path d="M45.751,165.498 C48.502,165.703 47.403,169.865 46.565,171.291 C45.118,173.75 41.216,174.106 41.557,170.4 C41.657,169.304 44.607,165.412 45.751,165.498" fill="#E2E0CB"/>
    <path d="M45.751,165.498 C48.502,165.703 47.403,169.865 46.565,171.291 C45.118,173.75 41.216,174.106 41.557,170.4 C41.657,169.304 44.607,165.412 45.751,165.498 z" fill-opacity="0" stroke="#1A1919" stroke-width="1.5" stroke-linecap="round" stroke-linejoin="round"/>
    <path d="M48.387,168.688 C50.886,167.34 51.809,172.723 49.534,173.435 C46.552,174.369 46.213,169.866 48.387,168.688" fill="#E2E0CB"/>
    <path d="M48.387,168.688 C50.886,167.34 51.809,172.723 49.534,173.435 C46.552,174.369 46.213,169.866 48.387,168.688 z" fill-opacity="0" stroke="#1A1919" stroke-width="1.5" stroke-linecap="round" stroke-linejoin="round"/>
    <path d="M55.128,150.902 C51.595,151.056 47.591,152.257 45.03,154.787 C42.986,156.804 42.27,159.687 39.651,160.961 C38.398,161.57 36.656,162.003 35.935,163.412 C35.189,164.869 36.199,166.089 37.662,166.422 C41.048,167.189 43.385,164.645 45.994,163.177 C47.379,162.399 49.135,162.033 50.641,161.541 C51.992,161.099 53.312,160.824 54.587,160.121 C55.859,159.418 56.59,158.203 57.728,157.435" fill="#E2E0CB"/>
    <path d="M55.128,150.902 C51.595,151.056 47.591,152.257 45.03,154.787 C42.986,156.804 42.27,159.687 39.651,160.961 C38.398,161.57 36.656,162.003 35.935,163.412 C35.189,164.869 36.199,166.089 37.662,166.422 C41.048,167.189 43.385,164.645 45.994,163.177 C47.379,162.399 49.135,162.033 50.641,161.541 C51.992,161.099 53.312,160.824 54.587,160.121 C55.859,159.418 56.59,158.203 57.728,157.435" fill-opacity="0" stroke="#1A1919" stroke-width="1.5" stroke-linecap="round" stroke-linejoin="round"/>
    <path d="M35.494,166.189 C35.379,167.025 34.89,167.882 34.1,168.216 C33.43,168.5 32.461,168.441 32.163,167.657 C31.924,167.029 32.234,166.22 32.475,165.644 C32.802,164.855 33.256,164.111 33.76,163.423 C33.865,163.281 34.999,162.164 34.987,162.093 C35.215,163.443 35.688,164.777 35.494,166.189" fill="#98639B"/>
    <path d="M35.494,166.189 C35.379,167.025 34.89,167.882 34.1,168.216 C33.43,168.5 32.461,168.441 32.163,167.657 C31.924,167.029 32.234,166.22 32.475,165.644 C32.802,164.855 33.256,164.111 33.76,163.423 C33.865,163.281 34.999,162.164 34.987,162.093 C35.215,163.443 35.688,164.777 35.494,166.189 z" fill-opacity="0" stroke="#1A1919" stroke-width="1" stroke-linecap="round" stroke-linejoin="round"/>
    <path d="M47.336,167.181 C47.221,168.015 46.731,168.874 45.941,169.209 C45.271,169.492 44.303,169.433 44.004,168.648 C43.766,168.021 44.076,167.213 44.316,166.634 C44.644,165.847 45.098,165.103 45.602,164.416 C45.706,164.273 46.84,163.156 46.829,163.086 C47.057,164.434 47.53,165.769 47.336,167.181" fill="#98639B"/>
    <path d="M47.336,167.181 C47.221,168.015 46.731,168.874 45.941,169.209 C45.271,169.492 44.303,169.433 44.004,168.648 C43.766,168.021 44.076,167.213 44.316,166.634 C44.644,165.847 45.098,165.103 45.602,164.416 C45.706,164.273 46.84,163.156 46.829,163.086 C47.057,164.434 47.53,165.769 47.336,167.181 z" fill-opacity="0" stroke="#1A1919" stroke-width="1" stroke-linecap="round" stroke-linejoin="round"/>
    <path d="M50.878,168.901 C50.781,169.611 50.365,170.339 49.693,170.625 C49.124,170.865 48.301,170.816 48.047,170.148 C47.844,169.615 48.108,168.928 48.312,168.437 C48.59,167.767 48.977,167.134 49.405,166.55 C49.494,166.429 50.458,165.48 50.448,165.42 C50.641,166.566 51.044,167.701 50.878,168.901" fill="#98639B"/>
    <path d="M50.878,168.901 C50.781,169.611 50.365,170.339 49.693,170.625 C49.124,170.865 48.301,170.816 48.047,170.148 C47.844,169.615 48.108,168.928 48.312,168.437 C48.59,167.767 48.977,167.134 49.405,166.55 C49.494,166.429 50.458,165.48 50.448,165.42 C50.641,166.566 51.044,167.701 50.878,168.901 z" fill-opacity="0" stroke="#1A1919" stroke-width="1" stroke-linecap="round" stroke-linejoin="round"/>
    <path d="M41.044,163.502 C41.356,162.366 39.999,161.795 39.123,161.899 C38.086,162.024 37.102,162.629 36.253,163.202 C35.24,163.884 33.306,164.498 32.94,165.831 C33.94,165.909 34.668,165.312 35.604,165.121 C36.922,164.853 40.537,165.34 41.044,163.502" fill="#98639B"/>
    <path d="M41.044,163.502 C41.356,162.366 39.999,161.795 39.123,161.899 C38.086,162.024 37.102,162.629 36.253,163.202 C35.24,163.884 33.306,164.498 32.94,165.831 C33.94,165.909 34.668,165.312 35.604,165.121 C36.922,164.853 40.537,165.34 41.044,163.502 z" fill-opacity="0" stroke="#1A1919" stroke-width="1" stroke-linecap="round" stroke-linejoin="round"/>
    <path d="M136.012,68.819 L135.429,64.268 C130.642,60.927 125.954,58.207 121.421,55.992 C121.519,58.02 120.96,59.799 120.408,61.707 C119.82,63.739 119.796,64.735 120.587,66.562 C122.545,71.082 122.232,75.377 119.465,79.501 C118.255,81.305 116.477,82.415 115.347,84.222 C114.508,85.563 113.9,87.569 113.198,89.157 C111.862,92.181 110.298,95.07 107.429,96.911 C104.546,98.758 101.112,99.886 97.978,101.237 C94.86,102.581 92.582,102.88 89.411,101.543 C87.346,100.672 85.131,100.621 82.907,100.663 C82.936,102.688 81.405,104.133 80.349,106.275 C77.046,112.975 86.665,113.038 90.758,111.646 C95.539,110.021 100.194,106.695 104.617,104.287 C109.769,101.481 115.392,100.435 120.705,97.776 C131.092,92.577 136.957,80.352 136.012,68.819" fill="#BEBEAD"/>
    <path d="M136.012,68.819 C136.957,80.352 131.092,92.577 120.705,97.776 C115.392,100.435 109.769,101.481 104.617,104.287 C100.194,106.695 95.539,110.021 90.758,111.646 C86.665,113.038 77.046,112.975 80.349,106.275 C81.776,103.38 84.079,101.761 82.213,98.259 C80.79,95.59 77.745,94.245 75.788,92.061 C75.788,92.061 72.954,88.944 72.604,84.044 C72.604,84.044 71.729,72.319 70.153,66.893 C70.153,66.893 65.429,54.294 69.979,48.518 C69.979,48.518 100.079,39.593 135.429,64.268 L136.012,68.819 z" fill-opacity="0" stroke="#1A1919" stroke-width="1.5" stroke-linecap="round" stroke-linejoin="round"/>
    <path d="M82.867,57.251 C78.75,56.405 76.382,61.124 73.021,62.742 C68.078,65.121 63.195,66.934 58.343,69.669 C54.962,71.574 35.876,85.049 48.018,88.585 C51.213,89.516 53.469,87.108 56.273,86.096 C59.511,84.928 62.562,85.133 66.065,85.133 C70.17,85.133 89.106,87.95 88.443,80.843" fill="#E2E0CB"/>
    <g clip-path="url(#Clip_2)">
      <path d="M128.079,65.669 C130.86,65.262 133.997,61.359 135.912,59.471 C138.752,56.67 141.474,54.358 144.854,52.136 C146.441,51.092 156.199,44.107 158.714,47.902 C160.507,50.609 156.695,51.263 155.638,52.661 C152.805,56.406 152.617,60.495 151.422,64.876 C150.532,68.142 148.673,71.229 148.032,74.545 C147.229,78.7 149.164,83.107 145.612,86.581 C139.76,92.303 131.556,89.196 132.278,81.419" fill="#BFBEAE"/>
      <path d="M128.079,65.669 C130.86,65.262 133.997,61.359 135.912,59.471 C138.752,56.67 141.474,54.358 144.854,52.136 C146.441,51.092 156.199,44.107 158.714,47.902 C160.507,50.609 156.695,51.263 155.638,52.661 C152.805,56.406 152.617,60.495 151.422,64.876 C150.532,68.142 148.673,71.229 148.032,74.545 C147.229,78.7 149.164,83.107 145.612,86.581 C139.76,92.303 131.556,89.196 132.278,81.419 z" fill="url(#Gradient_2)"/>
    </g>
    <path d="M128.079,65.669 C130.86,65.262 133.997,61.359 135.912,59.471 C138.752,56.67 141.474,54.358 144.854,52.136 C146.441,51.092 156.199,44.107 158.714,47.902 C160.507,50.609 156.695,51.263 155.638,52.661 C152.805,56.406 152.617,60.495 151.422,64.876 C150.532,68.142 148.673,71.229 148.032,74.545 C147.229,78.7 149.164,83.107 145.612,86.581 C139.76,92.303 131.556,89.196 132.278,81.419" fill-opacity="0" stroke="#1A1919" stroke-width="1.5" stroke-linecap="round" stroke-linejoin="round"/>
    <path d="M140.781,79.403 C139.729,80.778 138.048,82.311 136.162,81.922 C135.367,81.758 134.167,81.126 133.94,80.265 C133.716,79.412 134.521,78.782 134.664,77.987 C134.838,77.016 134.434,75.883 135.129,75.051 C135.555,74.541 136.262,74.463 136.783,74.115 C137.887,73.378 137.638,71.881 137.07,70.858 C136.679,70.153 136.148,69.79 135.415,69.53 C135.062,69.405 134.793,69.399 134.508,69.115 C133.652,68.265 134.413,67.105 134.856,66.267 C136.116,63.884 140.087,61.216 142.709,60.727 C148.867,59.579 144.889,64.355 143.56,67.138 C141.621,71.196 143.592,75.732 140.781,79.403" fill="#BEBEAD"/>
    <path d="M140.781,79.403 C139.729,80.778 138.048,82.311 136.162,81.922 C135.367,81.758 134.167,81.126 133.94,80.265 C133.716,79.412 134.521,78.782 134.664,77.987 C134.838,77.016 134.434,75.883 135.129,75.051 C135.555,74.541 136.262,74.463 136.783,74.115 C137.887,73.378 137.638,71.881 137.07,70.858 C136.679,70.153 136.148,69.79 135.415,69.53 C135.062,69.405 134.793,69.399 134.508,69.115 C133.652,68.265 134.413,67.105 134.856,66.267 C136.116,63.884 140.087,61.216 142.709,60.727 C148.867,59.579 144.889,64.355 143.56,67.138 C141.621,71.196 143.592,75.732 140.781,79.403 z" fill-opacity="0" stroke="#1A1919" stroke-width="1" stroke-linecap="round" stroke-linejoin="round"/>
    <path d="M124.145,70.017 C120.1,70.997 115.554,69.169 111.417,69.114 C108.765,69.078 104.16,68.541 106.359,64.823 C108.259,61.611 115.43,61.959 118.495,62.549 C120.422,62.92 125.083,63.943 126.236,65.751 C127.596,67.882 126.192,69.521 124.145,70.017" fill="#F1CEBD"/>
    <path d="M93.603,47.993 C81.878,41.868 70.153,48.343 70.153,48.343 C64.524,47.897 61.705,54.698 60.021,59.006 C61.233,58.159 61.861,56.667 63.044,55.716 C64.448,54.587 66.566,53.569 68.379,53.384 C64.752,54.986 65.098,60.805 66.167,63.932 C67.067,63.396 67.503,61.291 68.195,60.29 C69.629,58.215 71.46,56.168 73.33,54.474 C76.13,51.936 78.852,50.914 82.181,49.408 C79.694,51.358 78.063,53.47 77.539,56.675 C77.539,56.675 83.045,49.452 93.603,47.993" fill="#F0A558"/>
    <path d="M93.603,47.993 C81.878,41.868 70.153,48.343 70.153,48.343 C64.524,47.897 61.705,54.698 60.021,59.006 C61.233,58.159 61.861,56.667 63.044,55.716 C64.448,54.587 66.566,53.569 68.379,53.384 C64.752,54.986 65.098,60.805 66.167,63.932 C67.067,63.396 67.503,61.291 68.195,60.29 C69.629,58.215 71.46,56.168 73.33,54.474 C76.13,51.936 78.852,50.914 82.181,49.408 C79.694,51.358 78.063,53.47 77.539,56.675 C77.539,56.675 83.045,49.452 93.603,47.993 z" fill-opacity="0" stroke="#1A1919" stroke-width="1.5" stroke-linecap="round" stroke-linejoin="round"/>
    <path d="M67.909,82.539 C65.784,82.382 63.829,81.58 61.695,81.427 C59.111,81.242 57.418,81.955 55.07,82.493 C52.769,83.022 50.005,82.973 48.243,81.197 C47.517,80.466 47.177,79.654 47.093,78.813 C43.604,82.771 42.095,86.86 48.018,88.585 C51.213,89.516 53.469,87.108 56.273,86.096 C59.511,84.928 62.562,85.133 66.065,85.133 C70.121,85.133 88.639,87.876 88.445,81.09 C83.097,83.381 73.212,82.933 67.909,82.539" fill="#BEBEAD"/>
    <path d="M81.445,58.026 C77.329,57.179 74.961,61.899 71.6,63.516 C66.657,65.896 61.774,67.709 56.922,70.443 C53.54,72.348 34.454,85.823 46.596,89.36 C49.792,90.291 52.048,87.882 54.852,86.871 C58.089,85.703 61.141,85.907 64.644,85.907 C68.749,85.907 87.685,88.725 87.021,81.618 M78.392,88.876 C77.818,91.954 84.8,90.966 86.406,90.966 C90.059,90.966 93.494,91.1 96.978,89.783 C99.309,88.903 104.213,87.184 103.853,83.936" fill-opacity="0" stroke="#1A1919" stroke-width="1.5" stroke-linecap="round" stroke-linejoin="round"/>
    <path d="M188.875,170.47 C187.942,169.502 185.042,168.947 183.768,168.127 C182.287,167.172 180.934,166.031 179.646,164.834 C177.063,162.431 174.809,159.702 172.406,157.125 C168.009,152.408 163.352,147.773 159.076,143.027 C155.227,138.754 153.583,131.277 152.578,125.818 C148.845,105.518 145.345,96.186 133.679,94.085 C134.663,98.426 128.11,104.858 121.991,107.722 C124.765,118.538 125.368,129.913 122.251,140.761 C121.254,144.233 119.934,147.672 119.2,151.205 C118.425,154.939 119.15,159.06 118.055,162.709 C117.095,165.913 114.472,169.56 112.457,172.201 C108.466,177.429 108.831,183.898 106.132,189.781 C102.687,197.287 97.056,203.158 89.311,206.119 C86.471,207.205 83.498,207.51 80.54,208.066 C79.622,208.611 78.671,209.122 77.679,209.586 C77.679,209.586 114.778,217.169 134.612,209.119 C142.66,206.199 150.531,202.615 158.13,198.684 C167.295,193.943 176.818,188.494 183.87,180.82 C185.713,178.813 191.038,172.714 188.875,170.47" fill="#621944"/>
    <path d="M133.679,94.085 C135.077,100.248 121.283,110.634 115.108,109.027 C111.207,108.013 109.966,105.801 111.987,102.677 C111.987,102.677 101.653,115.493 103.929,148.044 C103.929,148.044 106.145,196.285 77.679,209.586 C77.679,209.586 114.778,217.169 134.612,209.119 C142.66,206.199 150.531,202.615 158.13,198.684 C167.295,193.943 176.818,188.494 183.87,180.82 C185.713,178.813 191.038,172.714 188.875,170.47 C187.942,169.502 185.042,168.947 183.768,168.127 C182.287,167.172 180.934,166.031 179.646,164.834 C177.063,162.431 174.809,159.702 172.406,157.125 C168.009,152.408 163.352,147.773 159.076,143.027 C155.227,138.754 153.583,131.277 152.578,125.818 C148.845,105.518 145.345,96.186 133.679,94.085 z" fill-opacity="0" stroke="#1A1919" stroke-width="1.5" stroke-linecap="round" stroke-linejoin="round"/>
    <path d="M70.462,150.267 C70.994,151.333 88.017,143.406 89.041,142.885 C99.999,137.324 110.584,130.284 117.52,120.143 C121.54,114.267 136.009,98.481 144.012,106.972 C144.012,106.972 155.25,118.897 134.337,136.625 C134.337,136.625 102.451,165.59 100.871,173.695 C100.871,173.695 77.946,165.15 70.462,150.267" fill="#792154"/>
    <path d="M144.012,106.972 C142.771,105.655 141.373,104.924 139.883,104.648 C140.313,108.51 138.288,113.081 136.297,115.966 C133.727,119.692 130.802,121.76 127.531,124.704 C124.712,127.242 122.199,130.332 119.456,132.988 C111.81,140.391 101.42,143.964 93.312,150.726 C88.977,154.342 84.479,159.365 78.767,160.553 C88.326,169.013 100.871,173.695 100.871,173.695 C102.451,165.59 134.337,136.625 134.337,136.625 C155.25,118.897 144.012,106.972 144.012,106.972" fill="#621944"/>
    <path d="M70.462,150.267 C70.994,151.333 88.017,143.406 89.041,142.885 C99.999,137.324 110.584,130.284 117.52,120.143 C121.54,114.267 136.009,98.481 144.012,106.972 C144.012,106.972 155.25,118.897 134.337,136.625 C134.337,136.625 102.451,165.59 100.871,173.695 C100.871,173.695 77.946,165.15 70.462,150.267 z" fill-opacity="0" stroke="#1A1919" stroke-width="1.5" stroke-linecap="round" stroke-linejoin="round"/>
  </g>
</svg>