<?xml version="1.0" encoding="UTF-8" standalone="no"?>
<svg id="svg2" xmlns:rdf="http://www.w3.org/1999/02/22-rdf-syntax-ns#" xmlns="http://www.w3.org/2000/svg" height="2747pt" width="2711pt" version="1.1" xmlns:cc="http://creativecommons.org/ns#" xmlns:dc="http://purl.org/dc/elements/1.1/" viewBox="0 0 2711 2747">
<g id="g4214" transform="translate(-4e3)">
<path id="rect4211" d="m5771.1 14.459c-32.9 5.08-60.19 28.47-83.39 51.27-47.24 48.83-82.07 110.07-104.95 173.15-109.81-48.67-238.18-35.74-348.42 5.5203 31.62-4.28 73.811-7.09 103.71 1.4-133.28 38.2-225.62 159.43-269.15 286.13 29.71-28.48 62.261-55.649 100.97-71.039 17.91-6.85 37.55-13.611 56.91-9.5812 1.5896 3.7-3.78 3.9803-5.7704 5.7703-65.21 33.11-118.29 89.081-148.08 155.86-61.24 136.44-45.6 293.13-28.21 435.79 14.49-44.55 41.999-83.729 67.23-122.76 17.51-23.7 34.69-48.81 59.12-65.93 4.4104-2.79 15.599-7.021 17.91-0.26096-51.05 73.09-96.79 151.01-125.39 235.82-20.41 60.97-31.56 126.3-22.7 190.51 5.72 55.83 29.81 107.86 58.9 154.82-64.42-4.93-131.28-20.809-194.23 1.6406-97.68 32.38-168.71 116.53-210.24 207.87-155.05 9.09-317.77-15.2-454.03-93.75-62.85-37.22-120.51-90.49-145.06-160.97-26.73-75.99-7.8296-160.69 30.98-229.05 48.51 31.74 115.29 39.24 166.69 10.25 2.48-2.55 13.75-7.3109 7.6704-9.6109-16.85-4.97-34.88-6.93-50.97-14.1-2.52-5.62 8.7096-3.8597 11.93-5.6797 47.33-6.77 78.539-46.819 116.83-71.159 42.95-20.8 92.14-25.9 138.69-29.02-48.62-33.76-103.16-67.44-164.87-63.3 7.42-11.37 27.77-16.589 37.52-26.809-10.79-5.33-23.23-6.0113-35.04-6.8813-43.99-2.43-90.979 2.541-128.79 26.461-1.4696-8.27 5.0496-17.91 5.5296-27.1-42.11 11.29-76.12 41.26-105.65 72.05-20.59 23.03-42.751 48.869-43.661 81.439-55.29 84.11-87.829 193.25-60.29 293.96 17.14 64.02 56.39 120.69 105.9 164.11 55.08 49.29 121.68 83.95 190.73 109.27 110.01 39.42 227.85 55.641 344.33 52.591-18.81 58.5-36.05 118.47-52.63 178.02-10.79 36.64-22.04 75.931-51.88 102.11-52.22 54.54-131.22 80.63-170.32 147.67-53.181 117.25-96.681 239.06-130.89 363.14-6.36 26.88-13.558 53.94-13.969 81.73 2.2104 34.36 20.009 71.651 54.26 83.841 15.56 7.34 33.41 2.0103 46.39-7.9797 17.65-36.77 29.069-77 28.769-118.03 0.3-4.21 4.1712 0.42 1.54 2.65 0.2312 35.82-3.0096 71.589-7.1696 107.17 15.17 7.97 32.65 17.82 50.33 12.92 11.88-5.69 20.26-16.47 31.75-22.8-5.06-33.49-18.77-65.25-36.779-93.77-1.1504-1.3-3.1712-6.2988 0.032-4.0188 22.67 33.18 41.85 68.699 58.9 105.07 16.61 8.99 39.041 1.56 46.79-15.95 17.03-25.8 6.1992-58.539-9.9496-81.859-34.251-40.34-39.39-96.25-41.07-147.03 1.78-54.08 7.8-114.48 46.47-155.93 78.369 2.93 158.16-8.4206 231.35-37.391 42.37-17.09 80.5-42.72 118.92-67.05 38.94-35.34 74.87-74.701 102.18-119.84 34.16-55.54 51.4-123.33 37.37-187.98-10.84-48.63-31.74-95.139-59.93-136.16-0.9304-2.6 2.3592-1.4609 3.0792-0.07 25.42 30.78 46.92 65.049 61.96 102.11 22.71 54.82 24.95 118.25 3.14 173.72-22.02 58.51-64.26 106.64-110.22 147.83-10.42 21.73-23.919 41.941-40.159 59.781-25.52 30.77-10.69 76.099 8.2 106.72 32.63 44.66 80.038 79.701 100.07 132.91 13.77 31.36 6.04 66.759 17.25 98.759 12.82 51.29 73.261 84.09 122.76 63.87 9.9104-25.22 11.37-54.15 14.33-79.55 1.8512 22.85-1.8992 48.061-2.6296 71.841 18.79 2.51 48.219 13.25 58.39-9.3204 2.82-0.76 4.9104 2.2504 7.6104 2.7204-6.3696-21.5-17.68-40.951-28.69-60.311-1.2-1.17 3.5904-3.1303 2.6504 0.2297 12.59 20.04 25.181 40.081 36.261 61.041 21.43-5.07 28.59-30.94 25.209-50.33-3.4-27.48-8.8496-58.881-32.73-76.341-27.19-22.81-62.301-32.65-90.97-53.02-26.731-27.43-45.021-61.629-64.921-94.059-2.42-3.76-6.3296-10.37-0.7592-13.13 47.56-42.16 91.6-88.91 130.65-138.88-49.63-30.74-97.71-64.02-147.49-94.47-3.0096-1.08-2.5096-5.3596 0.7904-2.8296 49.83 31.46 102.86 57.619 156.87 81.109 24.38 2.34 48.479 10.16 72.99 12.88 0.01-8.29-6.1896-17.069-0.5096-24.889 4.06-1.15 1.9 3.0793 2.0704 5.4593-4.36 13.22 10.538 20.55 20.769 23.35 81.99 12.49 165.71 19.82 248.12 18.48-2.0096-15.51 7.7208-9.9594 4.0408 0.9906 18.47 0.4 36.899-1.7209 55.359-1.0609 0.048 1.43 0.1408 4.28 0.1904 5.7 41.18-5.38 82.221-14.139 120.52-30.539 2.12-0.84 7.4696-3.0509 6.3592 1.1891-41.31 20.94-84.62 37.71-128.22 53.2-8.6304 133.91-29.55 267.58-32.58 402.11-1.26 27.65-1.6392 55.6 3.0408 83.02 4.58 12.82 18.989 17.42 30.118 22.93 36.71 12.97 78.542 26.189 116.53 10.909 13.8-26.24 20.52-56.229 23.13-85.759 2.84-0.43 1.96 2.6404 1.3504 4.3204-1.76 26.02-5.0808 51.949-10.011 77.569 14.53 4.68 30.46 9.8303 45.65 4.9703 8.7-2.68 13.64-13.509 23.49-12.959-3.0304-23.32-14.39-44.19-23.759-65.35-1.86-1.72 3.0192-4.41 2.4792-0.6 12.24 22.91 23.33 46.43 34.2 70 15.32 4.62 30.96-5.7906 40.48-17.241 23.89-32.26 26.14-82.17-1.4504-112.93-28.73-30.8-67.51-49.069-104.3-68.159 0.6688-13.71 4.4296-27.031 7.2296-40.411 26-111.67 55.02-222.62 83.19-333.74 24.4-7.14 49.199-13.291 73.089-22.191 6.54-2.17 1.3512 7.4194 2.1112 10.259 10.3-2.99 18.66-12.699 29.77-13.169 74.82 57.94 152.55 113.1 227.66 169.95-24.35 38.92-54.099 77.16-67.459 122.28-5.6704 20.14 8.6992 38.109 18.43 54.459 18.26 25.19 38.63 52.541 69.879 61.791 13.17-14.76 23.761-33.48 32.791-49.55-2.86 16.82-16.83 34.259-25.07 50.789 12.57 18.54 30.01 41.571 56.479 35.791 3.6816-21.85 0.6512-44.941 1.6912-66.091 5.36 25.67 4.1888 53.231 5.8392 79.361 10.65 11.71 28.72 13.53 42.74 7.1704 28.85-13.15 49.09-42.921 51.58-74.431-1.04-44.16-23.181-84.099-39.69-123.64 17.55 1.34 29.631-15.61 39.381-27.63 20.18-28.86 39.69-62.471 38.15-98.781-16.22-24.22-36.622-45.74-61.731-60.8-51.43-48.32-112.1-89.69-148.09-151.93-18.04-31.57-27.601-67.7-28.861-103.97-1.34-4.99 2.8912-8.3894 5.0112-12.209 53.95-79.89 86.6-171.83 111.23-264.33 31.52 57.3 10.199 127.87 22.759 189.32 3.7104 12.86 16.79 0.2393 21.75-5.0907 43.02-47.52 74.23-104.23 104.85-160.15 30.63-60.94 59.821-123.76 72.821-191.18 3.38-19.72 5.14-40.3 0.032-59.83-3.8304-2.9-7.3-7.13-6.2296-12.35 9.5696-1.92 4.5096 13.27 13.7 13.75 13.44 21.25 24.68 46.36 37.84 66.7 46.64-45.48 73.64-108.61 87.18-171.73 22.85-101.05 8.98-205.56 23.45-307.51 1.02-2.9-0.3304-9.7403 4.3096-8.3203 8.9 47.43 20.41 95.111 24.89 142.89 32.26-77.32 45.541-162.99 36.491-246.36 2.1896-68.59-36.321-129.48-74.721-183.13-50.95-67.28-111.24-128.03-180.44-176.56-19.83-11.92-40.25-27.57-64.58-26.05-1.3-2.54-0.3392-4.9303 2.2904-5.9703 23.58-1.27 46.419 5.8997 69.11 11.18 49.52 14.32 99.539 29.58 144.31 55.7-31.28-51.94-76.619-93.7-123.14-131.85-69-54.14-147.16-100.25-233.86-118.31-1.54-5.87 7.4104-1.2106 10.31-2.2406 59.71 5.76 118.4 18.941 177.34 29.561-26.89-39.5-68.629-67.91-110.74-90.07-88.77-44.36-189.5-62.711-287.11-67.861-2.82-6.41-0.72-14.37 5.4-17.88 19.4-11.9 43.05-13.16 65.11-15.82 46.11-3.47 92.73-3.22 138.54 3.7-86.57-69.16-190.21-130.91-304.98-128.14-82.3 0.69-162.02 27.27-235.52 62.68-2.9696 1.55-4.3592-1.49-2.8296-3.85 18.73-39.08 45.53-75.821 82.489-99.341z" fill="#ff8b00"/>
<path id="path6" d="m6120.2 264.38c-3.7242-0.0399-7.439 0.18749-11.091 0.68125-32.12 3-61.889 17.211-88.819 34.231-38.45 25.6-76.961 59.49-89.511 105.58 21.49 6.5 42.691 13.999 63.241 23.089-2.11-7.99-6.8903-17.559-1.1203-25.119 22.95-35.34 59.74-60.131 98.48-75.441 11.23-3.57 24.471-9.8297 36.041-3.9797 5.85 6.56 7.18 15.67 8.1 24.1 3.05 40.29-4.4603 81.74-23.37 117.57-3.99 12.24-19.021 10.119-28.391 15.239 18.39 14.72 36.621 29.72 52.991 46.72 34.8-35.78 49.361-86.2 55.841-134.47 2.94-34.97 1.9388-74.02-19.531-103.62-12.352-16.327-32.749-24.366-52.859-24.581zm-811.11 300.78c-6.1864-0.0692-12.361 0.0906-18.481 0.43749-41.72 2.22-84.929 10.829-119.59 35.419-18.63 13.37-33.06 35.701-30.42 59.411 3.67 38.54 30.31 70.02 57.83 95.15 37.58 32.95 84.061 61.16 135.54 61.52 2.12-19.52 4.5691-39.041 9.0391-58.181-20.67 9.79-45.29 4.8412-64.25-6.6688-39.89-24.2-72.929-60.76-91.659-103.55-10.9-23.54 16.77-35.54 33.78-42.8 40.93-15.73 92.17-22.71 130.77 2.45 17.62 9.81 18.41 31.229 26.25 47.689 6.2-11.8 11.581-24.069 18.991-35.209-6.13-11.96-8.5112-25.45-9.9312-38.6-24.009-12.179-51.061-16.767-77.869-17.067z" fill="#fbc03c"/>
<path id="path8" d="m6117.3 321.03c-8.782-0.1501-17.892 3.8059-25.964 6.3719-38.74 15.31-75.53 40.101-98.48 75.441-5.77 7.56-0.9897 17.129 1.1203 25.119 31.91 13.66 62.009 31.52 89.739 52.37 9.37-5.12 24.401-2.9991 28.391-15.239 18.91-35.83 26.42-77.28 23.37-117.57-0.92-8.43-2.25-17.54-8.1-24.1-3.2541-1.6453-6.6401-2.3334-10.076-2.3922zm-825.9 270.71c-24.123-0.0893-48.776 5.7981-70.52 14.155-17.01 7.26-44.68 19.26-33.78 42.8 18.73 42.79 51.769 79.35 91.659 103.55 18.96 11.51 43.58 16.459 64.25 6.6688 6.23-35.77 18.381-70.62 34.891-102.88-7.84-16.46-8.63-37.879-26.25-47.689-18.094-11.794-38.965-16.526-60.25-16.605z" fill="#e6b034"/>
<path id="path10" d="m5809.1 387.18c-4.3774 0.018-8.7259 0.12157-13.036 0.31406 19.14 12.68 27.319 38.419 19.359 59.959-11.54 31.16-35.949 56.54-61.509 76.32-4.65-26.89-7.1606-57.751-18.691-84.041-3.9-8.07-8.6188-19.309-18.969-19.889 6.44 32.91-4.6606 66.739-24.241 93.209-20.36 27.52-41.599 55.19-67.009 78.05 4.33-44.02-6.5612-88.221-12.081-131.89-25.8 63.84-67.359 126.58-126.99 164.73 10-32.93 12.93-70.33 1.8797-103.1-39.86 25.79-67.12 67.91-80.88 113.03-4.12-3.7-6.5397-8.86-10.08-13.05-7.41 11.14-12.791 23.409-18.991 35.209-16.51 32.26-28.661 67.11-34.891 102.88-4.47 19.14-6.9191 38.661-9.0391 58.181-2.6 39.65-1.21 79.599 5.25 118.84 45.95-29.69 96.19-53.61 149.63-66.25-52.42 30.33-103.51 68.301-136.63 120.49 3.47 15.73 10.569 30.39 15.709 45.62 8.93 5.41 11.351 24.439 19.991 32.069 35.85-35.43 78.91-67.029 127.15-82.169 53.47-34.91 116.01-56.69 179.96-59.7 2.89 1.07 10.56-2.21 10.17 3.25 2.69-19.79 18.93-34.01 34.67-44.37 36.2-22.33 76.99-36.881 118.52-45.491 21.4-3.53 47.73-4.729 64.5 11.611 55.14-46.53 126.04-73.63 197.75-79.07 42.13-17.17 88.909-22.281 134.19-20.891-1.13-17.77-7.7091-34.64-10.889-52.05-6.01-19.23-13.891-39.03-24.191-55.9-53.53-10.37-108.56-2.4197-161.09 8.4203 42.7-24.29 90.271-38.849 137.51-50.309-16.93-26.8-37.09-51.641-59.42-74.141-16.37-17-34.601-32-52.991-46.72-27.73-20.85-57.829-38.71-89.739-52.37-20.55-9.09-41.751-16.589-63.241-23.089-4.75 0.76 2.2306 9.6097-1.2594 11.93-9.13-6.27-17.161-14.49-27.411-18.95-30.266-6.755-62.331-10.8-92.974-10.673zm63.016 118.03c44.36-0.37932 87.479 28.563 105.99 68.661-35.27-24.93-84.721-34.03-123.28-11.02-19.18-13.6-19.039-55.97 10.741-57.37 2.1849-0.16266 4.3699-0.25166 6.5516-0.27031zm71.497 108.71c25.642 0.26155 50.09 11.006 75.281 15.25-25.26 1.37-54.24 0.42-79.95 8.8-37.6 10.07-67.48 38.399-87.17 70.859 12.8-39.41 34.38-88.6 80.77-94.33 3.7175-0.44 7.4056-0.61705 11.069-0.57969zm-418.56 10.883c20.454-0.0487 32.662 25.188 29.786 43.856-44.98 3.77-79.931 40.701-93.911 81.441-9.08-47.25 12.91-104.96 58.75-124.72 1.8476-0.38672 3.6416-0.57243 5.375-0.57656zm35.527 129.26c32.032 0.45063 61.83 18.371 87.169 36.061-23.09-8.87-47.719-14.931-72.689-13.141-40.96 1.8-75.901 26.03-107.96 49.15 24.17-27.07 43.94-65.91 83.47-71.63 3.359-0.34687 6.6972-0.48724 10.011-0.44062zm653.45 283.57c-58.26 39.14-127.78 60.601-197.59 64.911-44.55 2.87-87.951-10.711-128.16-28.291-22.18 44.12-52.519 85.441-94.369 112.69-62.15 40.26-135.67 65.649-210.27 64.089 58.3 32.17 125.8 47.11 192.16 50.13 180.67 8.94 363.19-98.65 438.23-263.53zm-321.63 62.52c40.75 15.03 86.361 19.25 128.69 7.0203-10.36 26-12.451 56.939-31.311 78.639-34.09 28.41-79.949 40.171-123.67 40.191-29.19 0.92-47.56-24.88-70.2-39 40.75-17.39 74.759-48.34 96.489-86.85zm-1809.3 3.0594c-55.29 84.11-87.829 193.25-60.289 293.96 17.14 64.02 56.39 120.69 105.9 164.11 55.08 49.29 121.68 83.95 190.73 109.27 110.01 39.42 227.85 55.641 344.33 52.591-18.81 58.5-36.05 118.47-52.63 178.02-10.79 36.64-22.04 75.931-51.88 102.11-52.22 54.54-131.22 80.63-170.32 147.67-53.18 117.25-96.681 239.06-130.89 363.14-6.36 26.88-13.559 53.94-13.969 81.73 2.21 34.36 20.009 71.651 54.259 83.841 15.56 7.34 33.411 2.0103 46.391-7.9797 17.65-36.77 29.069-77 28.769-118.03 0.3-4.21 4.1706 0.42 1.5406 2.65 0.23 35.82-3.0103 71.589-7.1703 107.17 15.17 7.97 32.65 17.82 50.33 12.92 11.88-5.69 20.26-16.47 31.75-22.8-5.06-33.49-18.77-65.25-36.78-93.77-1.15-1.3-3.1703-6.2988 0.03-4.0188 22.67 33.18 41.85 68.699 58.9 105.07 16.61 8.99 39.041 1.56 46.791-15.95 17.03-25.8 6.2-58.539-9.95-81.859-34.25-40.34-39.39-96.25-41.07-147.03 1.78-54.08 7.8003-114.48 46.47-155.93 78.37 2.93 158.16-8.4206 231.35-37.391 42.37-17.09 80.5-42.72 118.92-67.05 38.94-35.34 74.87-74.701 102.18-119.84 34.16-55.54 51.4-123.33 37.37-187.98-10.84-48.63-31.74-95.139-59.93-136.16-0.93-2.6 2.3597-1.4603 3.0797-0.07 25.42 30.78 46.919 65.049 61.959 102.11 22.71 54.82 24.951 118.25 3.1406 173.72-22.02 58.51-64.26 106.64-110.22 147.83-10.42 21.73-23.919 41.941-40.159 59.781-25.52 30.77-10.69 76.099 8.2 106.72 32.63 44.66 80.039 79.701 100.07 132.91 13.77 31.36 6.04 66.759 17.25 98.759 12.82 51.29 73.261 84.09 122.76 63.87 9.91-25.22 11.37-54.15 14.33-79.55 1.85 22.85-1.8997 48.061-2.6297 71.841 18.79 2.51 48.219 13.25 58.389-9.3203 2.82-0.76 4.9109 2.2503 7.6109 2.7203-6.37-21.5-17.681-40.951-28.691-60.311-1.2-1.17 3.59-3.1303 2.65 0.2297 12.59 20.04 25.181 40.081 36.261 61.041 21.43-5.07 28.589-30.94 25.209-50.33-3.4-27.48-8.8497-58.881-32.73-76.341-27.19-22.81-62.3-32.65-90.97-53.02-26.73-27.43-45.02-61.629-64.92-94.059-2.42-3.76-6.3294-10.37-0.7594-13.13 47.56-42.16 91.6-88.91 130.65-138.88-49.63-30.74-97.711-64.02-147.49-94.47-3.01-1.08-2.5094-5.3597 0.7906-2.8297 49.83 31.46 102.86 57.619 156.87 81.109 24.38 2.34 48.479 10.16 72.989 12.88 0.01-8.29-6.1894-17.069-0.5094-24.889 4.06-1.15 1.9003 3.0794 2.0703 5.4594-4.36 13.22 10.539 20.55 20.769 23.35 81.99 12.49 165.71 19.82 248.12 18.48-2.01-15.51 7.7206-9.9594 4.0406 0.9906 18.47 0.4 36.899-1.7209 55.359-1.0609 0.05 1.43 0.1406 4.28 0.1906 5.7 41.18-5.38 82.22-14.139 120.52-30.539 2.12-0.84 7.4694-3.0509 6.3594 1.1891-41.31 20.94-84.62 37.71-128.22 53.2-8.63 133.91-29.55 267.58-32.58 402.11-1.26 27.65-1.6394 55.6 3.0406 83.02 4.58 12.82 18.989 17.42 30.119 22.93 36.71 12.97 78.541 26.189 116.53 10.909 13.8-26.24 20.52-56.229 23.13-85.759 2.84-0.43 1.96 2.6403 1.35 4.3203-1.76 26.02-5.0809 51.949-10.011 77.569 14.53 4.68 30.46 9.8303 45.65 4.9703 8.7-2.68 13.641-13.509 23.491-12.959-3.03-23.32-14.389-44.19-23.759-65.35-1.86-1.72 3.0197-4.41 2.4797-0.6 12.24 22.91 23.33 46.43 34.2 70 15.32 4.62 30.96-5.7906 40.48-17.241 23.89-32.26 26.14-82.17-1.45-112.93-28.73-30.8-67.51-49.069-104.3-68.159 0.67-13.71 4.4297-27.031 7.2297-40.411 26-111.67 55.021-222.62 83.191-333.74 24.4-7.14 49.199-13.291 73.089-22.191 6.54-2.17 1.3509 7.4194 2.1109 10.259 10.3-2.99 18.66-12.699 29.77-13.169 74.82 57.94 152.55 113.1 227.66 169.95-24.35 38.92-54.099 77.16-67.459 122.28-5.67 20.14 8.6997 38.109 18.43 54.459 18.26 25.19 38.63 52.541 69.88 61.791 13.17-14.76 23.761-33.48 32.791-49.55-2.86 16.82-16.83 34.259-25.07 50.789 12.57 18.54 30.01 41.571 56.48 35.791 3.68-21.85 0.6506-44.941 1.6906-66.091 5.36 25.67 4.1891 53.231 5.8391 79.361 10.65 11.71 28.721 13.53 42.741 7.1703 28.85-13.15 49.09-42.921 51.58-74.431-1.04-44.16-23.181-84.099-39.691-123.64 17.55 1.34 29.631-15.61 39.381-27.63 20.18-28.86 39.69-62.471 38.15-98.781-16.22-24.22-36.621-45.74-61.731-60.8-51.43-48.32-112.1-89.69-148.09-151.93-18.04-31.57-27.601-67.7-28.861-103.97-1.34-4.99 2.8909-8.3894 5.0109-12.209 53.95-79.89 86.6-171.83 111.23-264.33-2.73-7.86-4.6597 2.1994-7.0797 5.6594-40.36 70.41-56.21 152.45-102 219.99-15.68 21-32.93 42.609-53.55 58.239-1.72-12.12-5.1597-26.519-10.88-38.659-11.55 42.1-33.241 80.59-48.611 121.32 0.04 3.72-4.3591 10.33-3.4891 1.0203-9.08-87.76-50.49-179.88-130.35-224.48-39.26-24.42-79.411-48.689-123.34-63.719-6.64-1.26-17.03-6.3109-21.93-0.1109 34.56 31.56 67.409 68.991 81.709 114.24-73.57-3.41-146.14-24.94-209.65-62.2-61.07-34.55-113.53-81.59-169.23-123.75-9.34-8.56-21.969-11.52-33.709-15.23 14.17 18.46 29.639 36.599 47.469 51.709-8.1 1.06-16.14-4.4803-23.6-7.6703-51.97-27.37-99.309-62.92-143.07-101.93-41.28-38.47-81.93-81.8-99.15-136.82-0.66-4.06-6.9512-4.4203-7.7812-0.1703-7.44 15.93-6.9891 34.231-12.039 50.941-0.65 2.83-1.85 9.8003-6.45 7.7703-27.06-25.57-53.151-52.611-73.761-83.791-64.42-4.93-131.28-20.809-194.23 1.6406-97.68 32.38-168.71 116.53-210.24 207.87-155.05 9.09-317.77-15.2-454.03-93.75-62.85-37.22-120.51-90.49-145.06-160.97-26.73-75.99-7.8303-160.69 30.98-229.05-21.4-14.97-44.3-35.001-44.12-63.461z" fill="#fbc959"/>
<path id="path18" d="m6196.2 601.19c-47.24 11.46-94.811 26.019-137.51 50.309 52.53-10.84 107.56-18.79 161.09-8.4203-6.09-14.49-15.41-28.779-23.58-41.889zm47.77 97.789c3.18 17.41 9.7591 34.28 10.889 52.05-45.28-1.39-92.059 3.7206-134.19 20.891 51.17-3.83 106.47 4.2294 148.29 36.059-3.14-37.17-11.549-74.36-24.989-109zm-755.2 170.7c-53.44 12.64-103.68 36.56-149.63 66.25 3.59 18.23 7.41 36.491 13 54.241 33.12-52.19 84.21-90.161 136.63-120.49zm26.22 116.01c-48.24 15.14-91.3 46.739-127.15 82.169-8.64-7.63-11.061-26.659-19.991-32.069 14.07 32.3 30.23 64.01 51.22 92.33 3.24-60.71 48.34-109.4 95.92-142.43zm728.88 29.369c-10.05 7.43-19.681 15.38-29.891 22.57-75.04 164.88-257.56 272.47-438.23 263.53-66.36-3.02-133.86-17.96-192.16-50.13-13.59 0.24-27.091-1.14-40.491-3.15 22.01 16.42 48.96 29.661 74.92 41.011 135.06 59.13 297.6 47.819 423.85-27.941 93.17-54.9 167.06-143.46 202-245.89z" fill="#eabc57"/>
<path id="path20" d="m5943.6 613.92c-3.6631-0.0374-7.3512 0.13969-11.069 0.57969-46.39 5.73-67.97 54.92-80.77 94.33 19.69-32.46 49.57-60.789 87.17-70.859 25.71-8.38 54.69-7.43 79.95-8.8-25.191-4.2438-49.639-14.988-75.281-15.25zm-383 140.14c-3.3138-0.0466-6.652 0.0937-10.011 0.44062-39.53 5.72-59.3 44.56-83.47 71.63 32.06-23.12 67.001-47.35 107.96-49.15 24.97-1.79 49.599 4.2706 72.689 13.141-25.339-17.69-55.136-35.61-87.169-36.061z" fill="#343333"/>
<path id="path28" d="m6144.9 771.04c-8.1299-0.0274-16.225 0.28125-24.22 0.87969-71.71 5.44-142.61 32.54-197.75 79.07 14.98 18.21 11.129 43.91 5.1594 65.05-11.4 34.99-29.37 68.479-55.17 94.959 14.47 24.06 39.221 40.06 64.841 50.27 69.79 26.11 148.4 15.499 216.41-11.141 62.99-25.95 123.66-69.589 150.88-134.06 5.03-10.55 4.6212-22.56 5.0312-33.95-2.69-29.04-18.481-56.021-41.111-74.141-35.286-26.857-80.168-36.791-124.07-36.939zm-443.52 154.93c-2.23 0.004-4.8706 0.55688-6.3156 0.0219-63.95 3.01-126.49 24.79-179.96 59.7-47.58 33.03-92.68 81.72-95.92 142.43 0.86 20.07 4.4194 41.06 15.759 58.03 22.57 34.03 64.681 45.13 102.84 50.08 90.2 9.64 183.6-20.56 253.15-78.33 39.35-33.91 75.41-83.19 67.95-137.95-43.83 1.71-86.739-17.22-122.81-40.98-15.65-11.87-32.221-28.41-30.841-49.73 0.195-2.73-1.6247-3.2757-3.8547-3.2719z" fill="#f5d284"/>
<path id="path30" d="m5858.4 839.38c21.4-3.53 47.73-4.73 64.5 11.61 14.98 18.21 11.13 43.91 5.16 65.05-11.4 34.99-29.37 68.48-55.17 94.96-4.05 3.87-8.49 7.54-14.03 8.95-43.83 1.71-86.74-17.22-122.81-40.98-15.65-11.87-32.22-28.41-30.84-49.73 2.69-19.79 18.93-34.01 34.67-44.37 36.2-22.33 76.99-36.88 118.52-45.49z" fill="#ffa300"/>
<path id="path34" d="m6310 882.12c6.14 51.42-29.97 98.73-66.09 132.94-10.05 7.43-19.68 15.38-29.89 22.57-58.26 39.14-127.78 60.6-197.59 64.91-44.55 2.87-87.95-10.71-128.16-28.29-22.18 44.12-52.52 85.44-94.37 112.69-62.15 40.26-135.67 65.65-210.27 64.09-13.59 0.24-27.09-1.14-40.49-3.15-41.12-7.24-86.22-23.79-108.27-61.73 22.57 34.03 64.68 45.13 102.84 50.08 90.2 9.64 183.6-20.56 253.15-78.33 39.35-33.91 75.41-83.19 67.95-137.95 5.54-1.41 9.98-5.08 14.03-8.95 14.47 24.06 39.22 40.06 64.84 50.27 69.79 26.11 148.4 15.5 216.41-11.14 62.99-25.95 123.66-69.59 150.88-134.06 5.03-10.55 4.62-22.56 5.03-33.95z" fill="#e3c380"/>
</g>
</svg>
