<?xml version="1.0"?>
<svg xmlns:rdf="http://www.w3.org/1999/02/22-rdf-syntax-ns#" xmlns="http://www.w3.org/2000/svg" xmlns:cc="http://creativecommons.org/ns#" xmlns:xlink="http://www.w3.org/1999/xlink" xmlns:dc="http://purl.org/dc/elements/1.1/" id="svg2" viewBox="0 0 737.41 954.65" version="1.1">
  <defs id="defs4">
    <linearGradient id="linearGradient3008" y2="1057.7" gradientUnits="userSpaceOnUse" y1="910.94" x2="389.92" x1="389.92">
      <stop id="stop2904" stop-color="#afe" offset="0"/>
      <stop id="stop2906" stop-color="#afe" stop-opacity="0" offset="1"/>
    </linearGradient>
    <linearGradient id="linearGradient3010" x1="313.3" gradientUnits="userSpaceOnUse" y1="440.21" gradientTransform="matrix(.73727 .18927 -.18927 .73727 55.587 162.83)" x2="313.3" y2="507.49">
      <stop id="stop2858" stop-color="#782121" offset="0"/>
      <stop id="stop2860" stop-color="#ff2a2a" offset="1"/>
    </linearGradient>
    <linearGradient id="linearGradient3012" x1="153.54" gradientUnits="userSpaceOnUse" x2="178.8" y1="917" y2="944.78">
      <stop id="stop2914" stop-color="#5fd3bc" offset="0"/>
      <stop id="stop2916" stop-color="#5fd3bc" stop-opacity="0" offset="1"/>
    </linearGradient>
  </defs>
  <g id="layer1" transform="translate(-6.0609 -101.75)">
    <g id="g2979">
      <g id="g2948">
        <path id="path2892" fill="url(#linearGradient3008)" d="m6.0609 910.94c28.284-8.08 90.914-28.28 151.52-26.26 60.609 2.0203 90.914 30.305 121.22 26.264 30.305-4.0406 30.305-22.223 52.528-24.244 22.223-2.0203 50.508 20.203 76.772 20.203s30.305-24.244 90.914-24.244 58.589 32.325 101.02 42.426c42.426 10.102 28.284-30.305 80.812-36.365 52.528-6.0609 60.609 14.142 60.609 14.142l2.0203 153.54h-737.41l3e-7 -145.46z"/>
        <path id="path2879" d="m482.86 673.79c18.571 11.429 40 37.143 48.571 58.571 8.5714 21.429 20 32.857 20 32.857s-34.286 45.714-41.429 70c-7.1429 24.286-8.5714 70.286-8.5714 70.286l15.714-1.4286s-2.8572-61.714 14.286-81.714 47.143-47.143 47.143-47.143-14.286-37.143-14.286-54.286 17.143-50 17.143-50-24.286-67.143-98.571 2.8571z" fill="#a05a2c"/>
        <path id="path2868" fill="#d38d5f" d="m330 336.66-34.281 21.406s-15.063 233.44 12.844 317.16c3.5437 10.631 7.7427 19.241 12.531 26.156 5.4531 19.265 14.625 55.742 14.625 83.844 0 40-1.4375 127.16-1.4375 127.16h12.875s1.1033-143.37 6.375-188.22c5.1084 1.1904 10.466 1.7068 16.062 1.6875 4.5362 19.067 8.9688 42.668 8.9688 62.219 0 40-1.4062 127.16-1.4062 127.16h12.844s1.2273-154.47 7.0312-192.88c49.198-10.881 109.58-42.916 165.38-32.031 21.07 40.221 30.065 56.841 43.312 74.906 15.714 21.429-37.143 51.424-40 84.281-2.8572 32.857-4.2812 60.71-4.2812 60.71l14.281 1.4375s-5.7232-50.719 18.562-82.147c24.286-31.429 48.562-51.438 48.562-51.438s-25.692-74.272-21.406-92.844c1.4125-6.1209 4.0451-14.412 6.9688-22.781 15.77-25.32 22.26-61.71 1.59-95.81-1.1832-1.9526-2.5049-3.757-3.9375-5.4375 7.8063-3.4551 16.519-7.7316 22.5-11.719 12.857-8.5714 17.156-20 17.156-20s-31.446 7.1473-12.875-4.2812c18.571-11.429 27.156-30 27.156-30s-20.004 1.442-35.719 7.1562c-15.714 5.7143-22.844 20-22.844 20l7.125-21.438s-18.567 7.1473-24.281 25.719c-2.0249 6.5809-2.0586 13.676-1.2812 20.125-68.64-21.47-218.19 49.59-248.72 22.72-35.71-31.43-24.28-232.84-24.28-232.84z"/>
        <path id="path2846" fill="url(#linearGradient3010)" d="m196.73 528.34s-15.106 0.0912-19.624 36.242c-4.5174 36.151 24.186 38.756 32.861 23.519 8.6747-15.238 3.9438-33.917 15.004-42.985 11.06-9.0683-29.348-18.648-28.241-16.776z"/>
        <path id="path2866" stroke="#782121" stroke-width=".76118px" fill="none" d="m198.99 547.77c-9.7866 7.0681-9.7866 11.961-9.7866 25.554 0 13.592 3.8059 18.486 3.8059 18.486"/>
        <path id="path2828" stroke="#a05a2c" stroke-width=".76118px" fill="#d38d5f" d="m250.34 279.51c-21.395 0.0738-41.424 8.0483-52.973 26.285-10.709 16.909-14.191 30.681-14.153 42.412-3.8604 9.4727-12.118 26.88-25.809 42.15-19.992 22.298-53.823 42.3-56.898 69.981-3.0756 27.681 2.3073 44.6 2.3073 44.6s37.654-42.296 63.796-82.279c12.725-19.462 17.996-39.458 19.862-54.781 7.4544 23.738 22.688 38.928-9.8478 61.703-53.824 37.676-24.737 138.89 52.284 125.33 96.114-16.916 39.519-103.74 79.972-144.55 23.516-23.725 22.112-45.486 19.912-64.954 9.2237 14.508 18.091 35.897 22.381 68.023 4.6084 34.509 43.007 89.153 43.007 89.153s2.3073-17.258 2.3073-60.395c0-37.681-57.326-98.708-70.074-113.74-11.974-45.322-36.82-44.891-76.072-48.937z"/>
        <path id="path2830" d="m172 541.07s11.413-7.2447-8.458-37.677c-16.456-25.203 88.187-23.34 68.433 4.6135-16.314 23.085-16.621 32.31 2.3067 45.366 4.0528 2.7954-19.223 5.3824-34.601 1.5378-17.462-4.3656-27.681-13.84-27.681-13.84z" fill="#502d16"/>
        <path id="path2832" transform="matrix(.76118 0 0 .76118 -30.991 212.14)" fill="#501616" d="m316.87 216.66c2.6461-6.6986 7.4187-7.6956 10.66-2.227 3.2412 5.4686 3.7237 15.332 1.0776 22.031-2.6461 6.6986-7.4187 7.6956-10.66 2.227-2.5156-4.2444-3.4426-11.33-2.3045-17.616"/>
        <path id="path2834" d="m316.87 216.66c2.6461-6.6986 7.4187-7.6956 10.66-2.227 3.2412 5.4686 3.7237 15.332 1.0776 22.031-2.6461 6.6986-7.4187 7.6956-10.66 2.227-2.5156-4.2444-3.4426-11.33-2.3045-17.616" fill="#501616" transform="matrix(.76118 0 0 .76118 3.61 212.91)"/>
        <path id="path2842" d="m301.95 308.31s-5.3824 9.2269-0.76891 16.147c4.6134 6.9202 17.685-0.76891 17.685-0.76891s29.987-37.676 39.214-43.059c9.2269-5.3824 22.298-11.534 35.37-0.76891 13.071 10.765 39.983-12.303 39.983-12.303l-8.458-9.2269s3.0756 16.147-17.685 9.9958c-20.761-6.1513-18.454-26.143 13.84-36.139 32.294-9.9958 26.912 6.1513 51.517 4.6134 24.605-1.5378 29.219-21.529 29.219-21.529l-9.9958-4.6134s4.6134 12.303-10.765 12.303-33.063-10.765-49.21-9.9958c-16.147 0.7689-39.214 3.8445-52.286 17.685-13.071 13.84-26.912-22.298 3.8445-42.29s16.916-61.513 16.916-61.513l-17.685 1.5378s17.685 14.609 3.0756 35.37-30.756-11.534-30.756-11.534l-9.9958 9.9958s29.219 8.458 16.147 27.681c-13.071 19.223-9.2269 36.139-8.458 53.824s-49.21 64.588-50.748 64.588z" fill="#782121"/>
        <path id="path2844" d="m192.32 322.26-46.134-50.748s-12.303-6.9202-31.525-3.8445c-19.223 3.0756-39.983-14.609-39.983-14.609s-1.5378-4.6134 4.6134-8.458c6.1513-3.8445 6.1513-3.0756 6.1513-3.0756s1.5378 9.9958 18.454 13.071c16.916 3.0756 19.223-3.8445 19.223-3.8445s-6.9202-16.916-23.836-28.45-20.761-33.832-20.761-49.21 9.2269-32.294 9.2269-32.294 3.0756-6.1513 9.2269-0.76891 4.6135 6.1513 4.6135 6.1513-9.2269 3.8445-9.2269 23.836 4.6134 35.37 10.765 40.752c6.1513 5.3824 22.298 8.458 22.298 8.458s-3.8446-39.214 3.8445-55.361 9.2269-32.294 3.0756-39.983c-6.1513-7.6891-19.992-9.2269-19.992-9.2269s-2.3067-0.7689 0.76891-8.458 7.6891-3.0756 7.6891-3.0756 8.458 0.76892 16.916 9.2269 13.071 19.992 11.534 32.294c-1.5378 12.303-7.6891 25.374-7.6891 39.983s23.067 1.5378 39.214-19.223 9.9958-35.37 9.9958-35.37 9.9958-7.6891 14.609 0.76892c4.6134 8.458-3.0756 39.214-20.761 54.592s-28.45 13.84-39.214 23.836c-10.765 9.9958-5.3824 32.294 2.3067 43.059s26.143 22.298 26.143 22.298 1.5378-33.832 6.9202-43.059c5.3824-9.2269 13.071-12.303 13.071-12.303s14.609 0.76891 13.84 6.9202c-0.76891 6.1513-0.76891 6.9202-0.76891 6.9202s-9.2269-2.3067-13.84 13.071c-4.6134 15.378-6.1513 26.912-6.1513 26.912l0.7689 11.534 21.529 24.605s3.8446 17.685-16.916 13.071z" fill="#782121"/>
        <path id="path2884" d="m377.14 908.79h14.286s2.8571 19.286-1.4286 25c-4.2857 5.7143-6.4286-11.429-6.4286-11.429s2.1429 13.571-5 12.143c-7.1429-1.4286-0.71429-23.571-1.4286-25.714z" fill="#28170b"/>
        <path id="path2886" d="m334.29 908.79h14.286s2.8571 19.286-1.4286 25c-4.2857 5.7143-6.4286-11.429-6.4286-11.429s2.1429 13.571-5 12.143c-7.1429-1.4286-0.71429-23.571-1.4286-25.714z" fill="#28170b"/>
        <path id="path2888" d="m561.43 909.08h14.286s2.8571 19.286-1.4286 25c-4.2857 5.7143-6.4286-11.429-6.4286-11.429s2.1429 13.571-5 12.143c-7.1429-1.4286-0.71429-23.571-1.4286-25.714z" fill="#28170b"/>
        <path id="path2890" d="m502.86 903.36h14.286s2.8571 19.286-1.4286 25c-4.2857 5.7143-6.4286-11.429-6.4286-11.429s2.1429 13.571-5 12.143c-7.1429-1.4286-0.71429-23.571-1.4286-25.714z" fill="#28170b"/>
        <path id="path2910" fill="url(#linearGradient3012)" d="m158.1 922.94c7.0562-6.9146 19.783-7.9439 28.427-2.2989 8.6433 5.645 9.9298 15.827 2.8736 22.741-7.0562 6.9146-19.783 7.9439-28.427 2.2989-6.7083-4.3813-9.1802-11.696-6.1453-18.184"/>
        <path id="path2920" d="m158.1 922.94c7.0562-6.9146 19.783-7.9439 28.427-2.2989 8.6433 5.645 9.9298 15.827 2.8736 22.741-7.0562 6.9146-19.783 7.9439-28.427 2.2989-6.7083-4.3813-9.1802-11.696-6.1453-18.184" fill="url(#linearGradient3012)" transform="matrix(1.425 0 0 1.425 11.519 -337.18)"/>
        <path id="path2924" transform="matrix(1.425 0 0 1.425 -187.48 -369.51)" fill="url(#linearGradient3012)" d="m158.1 922.94c7.0562-6.9146 19.783-7.9439 28.427-2.2989 8.6433 5.645 9.9298 15.827 2.8736 22.741-7.0562 6.9146-19.783 7.9439-28.427 2.2989-6.7083-4.3813-9.1802-11.696-6.1453-18.184"/>
        <path id="path2928" d="m158.1 922.94c7.0562-6.9146 19.783-7.9439 28.427-2.2989 8.6433 5.645 9.9298 15.827 2.8736 22.741-7.0562 6.9146-19.783 7.9439-28.427 2.2989-6.7083-4.3813-9.1802-11.696-6.1453-18.184" fill="url(#linearGradient3012)" transform="matrix(.65626 0 0 .65626 326.53 318.24)"/>
        <path id="path2932" transform="translate(114.15 -1.0102)" fill="url(#linearGradient3012)" d="m158.1 922.94c7.0562-6.9146 19.783-7.9439 28.427-2.2989 8.6433 5.645 9.9298 15.827 2.8736 22.741-7.0562 6.9146-19.783 7.9439-28.427 2.2989-6.7083-4.3813-9.1802-11.696-6.1453-18.184"/>
        <path id="path2936" transform="matrix(.65626 0 0 .65626 416.43 370.77)" fill="url(#linearGradient3012)" d="m158.1 922.94c7.0562-6.9146 19.783-7.9439 28.427-2.2989 8.6433 5.645 9.9298 15.827 2.8736 22.741-7.0562 6.9146-19.783 7.9439-28.427 2.2989-6.7083-4.3813-9.1802-11.696-6.1453-18.184"/>
        <path id="path2940" d="m158.1 922.94c7.0562-6.9146 19.783-7.9439 28.427-2.2989 8.6433 5.645 9.9298 15.827 2.8736 22.741-7.0562 6.9146-19.783 7.9439-28.427 2.2989-6.7083-4.3813-9.1802-11.696-6.1453-18.184" fill="url(#linearGradient3012)" transform="matrix(.65626 0 0 .65626 513.41 344.5)"/>
        <path id="path2944" transform="matrix(.65626 0 0 .65626 601.29 318.24)" fill="url(#linearGradient3012)" d="m158.1 922.94c7.0562-6.9146 19.783-7.9439 28.427-2.2989 8.6433 5.645 9.9298 15.827 2.8736 22.741-7.0562 6.9146-19.783 7.9439-28.427 2.2989-6.7083-4.3813-9.1802-11.696-6.1453-18.184"/>
      </g>
      <path id="path2973" d="m207.08 296.77s15.152 18.183 43.437 21.213c28.284 3.0305 61.619-22.223 61.619-22.223s6.0609-20.203-1.0102-28.284c-7.0711-8.0812-14.142 21.213-56.569 21.213-42.426 0-34.345-25.254-44.447-23.234-10.102 2.0203-10.102 17.173-3.0305 31.315z" fill="#faa"/>
      <path id="path2975" d="m210.11 269.49c3.0305-4.0406 14.142-20.203 15.152-39.396 1.0102-19.193-1.082-40.11 0.93836-56.273 2.0203-16.162 5.1226-33.631 29.366-45.753 24.244-12.122 41.416-9.0914 59.599-4.0406s27.274 32.325 27.274 52.528 13.132 38.386 5.0508 49.497c-8.0812 11.112-15.152-50.508-34.345-58.589-19.193-8.0812-29.294 19.193-29.294 44.447s23.234 56.569 23.234 56.569-6.0609 18.183-37.376 26.264c-31.315 8.0812-48.487-5.0508-59.599-25.254z" fill="#ff2a2a"/>
      <path id="path2977" d="m333.18 214.19c5.9978-7.3468 16.816-8.4404 24.163-2.4426 7.3468 5.9978 8.4404 16.816 2.4426 24.163-5.9978 7.3468-16.816 8.4404-24.163 2.4426-5.7021-4.6551-7.8032-12.427-5.2235-19.321" fill="#fc0"/>
    </g>
  </g>
  <metadata>
    <rdf:RDF>
      <cc:Work>
        <dc:format>image/svg+xml</dc:format>
        <dc:type rdf:resource="http://purl.org/dc/dcmitype/StillImage"/>
        <cc:license rdf:resource="http://creativecommons.org/licenses/publicdomain/"/>
        <dc:publisher>
          <cc:Agent rdf:about="http://openclipart.org/">
            <dc:title>Openclipart</dc:title>
          </cc:Agent>
        </dc:publisher>
      </cc:Work>
      <cc:License rdf:about="http://creativecommons.org/licenses/publicdomain/">
        <cc:permits rdf:resource="http://creativecommons.org/ns#Reproduction"/>
        <cc:permits rdf:resource="http://creativecommons.org/ns#Distribution"/>
        <cc:permits rdf:resource="http://creativecommons.org/ns#DerivativeWorks"/>
      </cc:License>
    </rdf:RDF>
  </metadata>
</svg>
