<?xml version="1.0" encoding="UTF-8"?>
<!DOCTYPE svg PUBLIC "-//W3C//DTD SVG 1.1//EN" "http://www.w3.org/Graphics/SVG/1.1/DTD/svg11.dtd">
<svg version="1.1" xmlns="http://www.w3.org/2000/svg" xmlns:xlink="http://www.w3.org/1999/xlink" x="0" y="0" width="593" height="1023" viewBox="0, 0, 593, 1023">
  <g id="Layer_1">
    <g>
      <path d="M369.347,62.298 C354.308,50.391 343.416,8.129 365.927,3.302 C389.865,-1.827 400.126,40.069 388.156,61.444" fill="#88736C"/>
      <path d="M369.347,62.298 C354.308,50.391 343.416,8.129 365.927,3.302 C389.865,-1.827 400.126,40.069 388.156,61.444" fill-opacity="0" stroke="#1A1919" stroke-width="5.669" stroke-linecap="round" stroke-linejoin="round"/>
    </g>
    <path d="M172.697,246.978 C205.902,205.187 233.644,141.738 262.184,103.34 C289.275,66.89 313.051,54.184 346.544,47.487 C362.007,44.396 378.945,43.553 400.699,49.596 C432.501,58.431 440.658,67.273 444.585,80.537 C447.912,91.752 450.699,104.69 463.966,128.42 C487.335,131.838 537.974,126.164 539.265,149.036 C540.882,177.607 527.853,228.911 504.621,226.464 C496.472,255.809 434.931,252.554 415.371,226.471 C424.064,273.197 426.138,302.472 468.527,341.598 C488.302,359.854 488.193,434.853 464.277,431.875 C453.673,465.14 483.373,566.677 496.064,596.927 C508.759,627.175 537.632,673.546 547.418,693.107 C564.205,726.673 575.777,763.603 565.998,802.732 C553.119,854.22 508.292,905.441 459.386,952.718 C513.181,939.267 532.744,953.939 535.189,966.166 C540.126,990.853 532.744,1017.53 500.955,1017.53 C476.38,1017.53 430.041,1017.52 390.916,1017.52 C366.341,1017.52 359.943,994.691 366.464,973.5 C371.9,955.834 377.06,938.455 379.503,916.447 C381.56,897.937 368.451,875.613 357.904,859.796 C344.865,840.236 314.295,831.675 297.997,831.675 C277.023,831.675 253.978,844.714 240.938,862.648 C227.681,880.884 214.41,903.244 219.747,924.597 C224.637,944.158 237.641,969.193 239.311,980.025 C240.893,990.3 240.938,1015.89 214.856,1017.52 C185.465,1019.35 117.044,1022.41 95.036,1017.53 C66.293,1011.13 58.744,986.759 71.397,963.718 C82.809,942.937 114.598,947.828 140.272,952.718 C123.155,938.048 80.563,878.367 73.025,864.279 C35.531,794.181 46.127,731.417 63.244,689.845 C78.056,653.88 99.199,611.355 102.37,585.929 C105.647,559.667 108.839,528.358 107.26,489.334 C105.067,434.898 55.788,455.795 70.582,403.75 C86.627,347.3 87.196,345.588 121.397,313.669 C130.801,304.891 165.328,256.248 172.697,246.978" fill="#96827C"/>
    <g>
      <path d="M299.583,251.801 C300.578,255.117 301.52,258.439 302.342,261.708 C304.037,258.639 318.712,221.912 320.634,223.729 C323.947,226.858 324.603,231.896 327.451,235.088 C326.984,234.568 337.328,215.748 339.398,215.285 C346.574,213.685 361.025,234.237 365.968,237.697 C370.289,232.546 370.792,224.875 373.834,218.853 C380.123,223.223 385.439,229.199 390.677,235.204 C401.16,247.217 404.13,236.635 408.867,224.84 C418.312,228.254 420.886,246.067 422.652,254.305 C425.64,268.258 427.302,281.125 433.3,294.456 C437.248,303.225 445.539,310.783 448.775,319.523 C440.464,319.098 429.007,307.204 422.187,302.384 C414.787,297.156 412.546,291.728 408.011,300.7 C405.386,305.889 407.404,312.801 404.443,317.639 C396.466,313.089 392.751,300.324 385.828,294.052 C381.498,303.963 377.898,311.261 375.724,322.082 C362.962,321.79 361.058,306.747 351.003,300.236 C349.523,299.276 344.527,332.932 344.421,334.721 C339.671,333.395 334.556,329.563 330.939,326.297 C326.716,322.486 322.73,312.65 317.857,310.252 C305.904,304.371 312.632,332.52 302.719,332.527 C292.39,332.531 293.409,311.071 285.014,309.57 C281.758,309.011 274.428,319.354 271.31,321.246 C267.018,315.958 266.114,309.043 266.603,301.874 C258.439,301.453 254.927,313.328 248.768,317.508 C246.44,312.773 247.917,307.099 246.001,301.843 C239.747,303.562 235.954,311.655 229.298,312.949 C229.031,307.809 229.207,302.455 228.958,297.318 C213.636,299.129 200.681,306.255 184.485,306.258 C207.305,306.255 218.08,280.324 237.106,267.498 C242.626,285.857 257.188,270.846 261.044,264.078 C268.245,251.453 269.06,267.611 277.758,272.484 C273.792,270.262 293.381,242.2 295.79,239.634 C297.044,243.592 298.352,247.688 299.583,251.801" fill="#88736C"/>
      <path d="M191.154,382.646 C187.582,387.297 192.127,403.265 194.655,407.702 C198.389,396.269 203.895,383.753 213.439,375.365 C212.807,381.82 214.062,388.605 218.864,392.152 C226.236,380.916 228.461,369.026 239.427,360.533 C242.412,370.06 239.954,383.303 245.941,390.475 C247.305,379.394 256.678,364.67 266.772,360.012 C268.114,359.394 272.196,374.63 272.428,375.998 C279.874,370.257 280.556,360.726 288.649,355.762 C292.92,365.982 293.047,380.146 302.655,387.364 C310.836,381.739 311.982,370.345 319.794,365.145 C322.488,372.384 323.775,381.275 326.935,388.738 C336.168,381.51 340.529,367.061 350.156,359.847 C348.056,361.418 361.595,390.654 363.181,393.85 C369.761,387.178 373.003,377.32 376.523,368.485 C377.472,369.849 397.199,413.408 400.171,409.639 C404.587,404.045 407.148,395.643 410.771,389.132 C421.708,400.347 428.414,412.248 437.748,424.816 C452.425,444.584 475.107,469.675 476.623,494.875 C477.812,514.654 478.423,530.958 483.349,551.357 C489.414,576.486 495.603,604.169 512.986,633.439 C528.412,659.419 554.259,691.673 558.392,722.964 C556.294,719.699 533.843,700.974 533.703,702.044 C533.347,704.771 530.767,706.945 530.082,708.783 C525.789,704.945 522.695,698.121 517.714,696.289 C517.039,709.99 521.324,734.705 509.849,743.894 C506.33,739.372 503.697,731.365 497.224,731.652 C494.88,739.084 494.162,746.734 492.271,754.128 C485.511,751.456 488.06,739.175 480.56,734.619 C464.558,724.902 470.449,758.593 469.939,766.587 C470.115,763.855 438.183,744.181 446.093,773.031 C449.789,786.507 465.078,797.679 464.81,812.476 C461.47,806.943 456.334,802.728 449.943,802.992 C453.244,802.857 458.212,850.712 457.585,856.962 C453.982,853.542 450.021,849.894 445.662,847.376 C453.458,851.898 440.103,897.119 441.513,906.902 C445.382,903.75 450.822,900.621 455.841,898.75 C460.275,939.117 479.007,892.794 491.923,891.638 C493.849,895.874 493.66,899.851 493.783,904.585 C503.728,904.564 529.652,880.265 532.855,871.384 C527.806,885.376 516.712,898.103 508.425,908.179 C495.621,923.757 476.978,939.65 460.511,951.527 C438.25,967.509 391.316,963.919 386.707,1000.81 C396.132,996.351 404.486,989.32 414.935,989.794 C417.679,1010 434.654,988.849 442.437,984.263 C428.937,992.216 463.341,990.085 459.017,989.73 C467.373,990.416 474.82,993.05 484.14,991.65 C491.603,990.533 486.568,983.498 498.15,987.97 C515.755,994.775 519.187,985.107 533.271,976.783 C533.214,984.619 532.339,997.433 528.113,1004.24 C520.779,1016.04 512.31,1018.44 499.492,1020.33 C470.496,1024.59 440.021,1011.92 410.765,1013.29 C396.146,1013.96 382.056,1023.21 371.519,1012.58 C363.089,1004.08 367.277,981.578 370.384,971.812 C380.101,941.3 389.298,908.066 370.486,878.539 C352.339,850.058 330.584,830.66 294.105,832.937 C261.038,835.005 228.44,868.628 220.006,901.337 C216.118,916.423 219.272,927.22 223.308,942.523 C226.345,954.05 238.847,970.912 239.385,987.408 C239.708,997.306 235.532,1007.8 222.959,1014.89 C202.404,1026.5 167.641,1018.74 146.678,1018.95 C129.5,1019.13 96.854,1026.32 79.785,1011.92 C72.972,1006.18 62.977,994.001 66.106,981.138 C76.063,990.568 81.557,994.488 92.962,983.771 C88.265,988.181 99.909,991.837 102.81,991.96 C110.161,992.265 114.977,984.714 121.938,984.279 C132.773,983.593 124.389,994.796 135.709,995.978 C143.844,996.822 142.951,986.599 152.489,991.626 C157.172,994.093 155.463,999.925 161.89,1001.85 C168.358,1003.77 175.017,999.275 181.37,999.169 C189.143,999.044 195.587,1002.54 203.177,1002.5 C221.35,971.945 149.553,955.773 135.646,949.22 C119.685,932.121 112.815,920.74 93.697,891.451 C101.326,897.07 106.93,905.478 114.64,911.23 C114.668,908.14 115.694,903.771 115.297,900.349 C122.381,903.173 129.518,914.31 136.616,914.847 C136.873,914.865 137.723,900.591 140.075,899.144 C144.906,896.177 153.927,904.15 160.466,903.363 C154.184,904.122 147.82,855.761 148.415,849.419 C147.173,852.044 144.864,854.699 143.626,857.273 C134.602,848.962 141.798,827.316 145.127,816.628 C141.665,818.29 135.818,818.712 131.824,820.939 C132.59,800.98 145.257,785.353 146.793,765.374 C144.038,767.076 140.128,766.9 137.126,770.064 C137.797,763.603 139.27,756.972 138.244,749.982 C125.159,748.984 122.634,760.248 113.191,766.64 C112.094,750.777 120.795,739.535 120.24,725.384 C114.963,730.24 111.855,739.365 105.035,742.537 C104.304,730.341 105.218,717.796 104.726,705.544 C89.299,710.72 84.071,729.958 71.974,739.365 C71.425,728.095 72.726,716.775 71.932,705.622 C65.533,712.031 48.925,723.912 49.973,734.208 C47.769,712.574 61.293,685.892 70.546,667.122 C84.345,639.138 103.727,602.658 103.727,562.757 C115.874,533.912 124.055,525.134 127.451,494.13 C129.571,474.805 124.547,474.393 129.947,455.599 C135.445,436.467 155.59,413.742 162.856,397.928 C164.565,404.457 165.353,411.027 166.158,417.841 C176.03,409.294 182.632,393.745 191.154,382.646" fill="#88736C"/>
    </g>
    <path d="M405.826,210.5 C399.332,200.111 388.156,184.28 397.275,164.329 C404.253,149.064 421.132,141.123 435.466,137.54 C449.148,134.119 460.832,131.553 471.089,129.844 C477.603,128.758 494.777,127.637 510.421,129.844 C523.996,131.76 538.755,140.033 539.265,149.036 C540.882,177.607 527.853,228.911 504.621,226.464 C496.669,255.099 448.55,252.606 430.748,239.813 C424.064,235.007 412.23,220.748 405.826,210.5" fill="#E2CFA7"/>
    <path d="M177.826,238.428 C200.02,206.369 231.475,140.029 262.184,103.34 C292.696,66.89 313.051,54.184 346.544,47.487 C362.007,44.396 378.945,43.553 400.699,49.596 C422.707,55.71 432.619,61.187 437.941,68.376 C446.806,80.358 454.847,110.178 463.966,129.56 C487.335,126.424 500.291,128.118 516.976,130.699 C529.878,132.692 538.703,139.066 539.265,149.036 C540.882,177.607 527.853,228.911 504.621,226.464 C496.472,255.809 434.931,252.554 415.371,226.471 C426.375,270.48 420.439,293.352 462.828,332.478 C482.603,350.734 488.193,434.853 464.277,431.875 C467.384,468.139 483.373,566.677 496.064,596.927 C508.759,627.175 536.666,674.06 547.418,693.107 C574.546,741.169 572.699,773.953 562.576,812.99 C550.605,859.158 507.855,913.88 459.386,952.718 C513.181,939.267 531.326,954.884 535.189,966.166 C541.486,984.56 533.376,1018.76 501.584,1018.76 C477.013,1018.76 430.041,1017.52 390.916,1017.52 C366.341,1017.52 359.943,994.691 366.464,973.5 C371.9,955.834 377.082,945.753 381.884,924.14 C386.447,903.615 368.451,875.613 357.904,859.796 C344.865,840.236 314.295,831.675 297.997,831.675 C277.023,831.675 253.978,844.714 240.938,862.648 C227.681,880.884 214.41,903.244 219.747,924.597 C224.637,944.158 237.641,969.193 239.311,980.025 C240.893,990.3 240.938,1015.89 214.856,1017.52 C185.465,1019.35 117.044,1022.41 95.036,1017.53 C66.293,1011.13 58.744,986.759 71.397,963.718 C82.809,942.937 114.598,947.828 140.272,952.718 C123.155,938.048 80.563,878.367 73.025,864.279 C35.531,794.181 46.127,731.417 63.244,689.845 C78.056,653.88 99.199,611.355 102.37,585.929 C105.647,559.667 108.839,528.358 107.26,489.334 C105.067,434.898 41.564,485.619 45.586,431.657 C50.349,367.726 68.602,358.722 113.986,319.937 C145.334,293.148 162.435,260.657 177.826,238.428 z" fill-opacity="0" stroke="#1A1919" stroke-width="5.669" stroke-linecap="round" stroke-linejoin="round"/>
    <path d="M332.23,70.785 C304.322,65.202 299.604,16.943 329.16,10.144 C358.826,3.324 366.003,45.181 359.085,67.427" fill="#96827C"/>
    <path d="M332.23,70.785 C304.322,65.202 299.604,16.943 329.16,10.144 C358.826,3.324 366.003,45.181 359.085,67.427" fill-opacity="0" stroke="#1A1919" stroke-width="5.669" stroke-linecap="round" stroke-linejoin="round"/>
    <path d="M512.542,139.85 C513.291,132.484 520.835,127.049 531.796,126.139 C544.24,125.102 549.593,138.612 547.755,147.799 C545.476,159.196 538.066,166.038 527.234,162.621 C519.197,160.082 511.277,152.358 512.542,139.85" fill="#96827C"/>
    <path d="M512.542,139.85 C513.291,132.484 520.835,127.049 531.796,126.139 C544.24,125.102 549.593,138.612 547.755,147.799 C545.476,159.196 538.066,166.038 527.234,162.621 C519.197,160.082 511.277,152.358 512.542,139.85 z M504.621,226.464 C492.205,227.445 462.585,222.252 446.296,211.069 C434.298,202.832 431.46,190.805 438.193,178.381" fill-opacity="0" stroke="#1A1919" stroke-width="5.669" stroke-linecap="round" stroke-linejoin="round"/>
    <path d="M418.935,100.773 C428.009,99.36 428.716,122.848 418.935,119.582 C411.578,117.132 412.656,101.751 418.935,100.773" fill="#1A1919"/>
    <g>
      <path d="M117.044,949.052 C133.75,949.867 179.805,964.54 187.958,975.947 M408.033,973.503 C423.927,963.718 443.492,956.384 463.052,951.496 M85.484,975.439 C78.646,990.261 80.763,1001.28 90.958,1015.89 M108.892,978.392 C104.001,991.435 105.629,1006.11 112.151,1017.52 M131.715,983.279 C128.456,996.322 130.084,1006.11 134.974,1017.52 M515.267,976.58 C517.548,993.679 516.406,1008.51 505.005,1016.49 M489.275,978.392 C494.166,991.435 492.148,1005.07 485.626,1016.49 M466.453,983.279 C469.714,996.322 466.72,1004.89 461.834,1016.3" fill-opacity="0" stroke="#1A1919" stroke-width="5.669" stroke-linecap="round" stroke-linejoin="round"/>
      <path d="M140.17,470.178 C126.153,457.001 122.663,439.729 145.668,416.037 C143.461,416.519 141.647,417.317 139.411,417.753 C138.219,402.924 150.358,393.456 150.105,379.552 C129.799,375.914 146.424,337.674 124.867,329.975 C106.898,323.559 83.793,340.543 71.334,351.143 C41.008,376.951 12.272,420.154 5.05,459.867 C-2.28,500.205 8.214,534.882 41.732,548.29 C82.489,564.593 97.462,564.126 139.544,566.224 C172.148,567.853 175.53,570.419 195.788,590.675 C220.242,615.13 248.62,598.792 258.141,591.9 C281.78,574.785 280.148,545.441 260.591,528.323 C242.352,512.369 212.866,505.577 188.447,496.127 C171.249,489.461 151.976,481.277 140.17,470.178" fill="#96827C"/>
    </g>
    <path d="M113.975,541.837 C110.628,535.544 108.969,528.361 104.3,521.734 C101.871,527.283 100.268,534.246 97.332,539.273 C86.926,536.183 77.177,510.843 73.514,501.865 C65.551,507.601 72.114,522.255 67.98,529.898 C53.643,522.874 47.312,502.96 46.155,488.944 C40.143,493.799 30.113,504.902 24.78,510.32 C17.007,499.558 8.534,500.916 2.174,477.248 C1.696,509.464 11.871,533.033 39.525,546 C71.313,560.898 114.569,564.972 139.559,566.224 C152.461,566.871 165.943,567.234 177.246,574.177 C179.763,575.72 202.415,596.097 202.513,595.503 C204.51,583.3 197.978,570.158 187.178,564.013 C182.934,561.601 177.313,561.861 173.358,559.148 C168.074,555.515 166.956,549.205 164.098,543.882 C161.247,546.681 161.169,550.576 160.79,554.478 C154.201,550.777 147.353,550.611 141.724,544.79 C140.026,543.033 129.873,528.976 131.487,526.758 C126.294,533.91 124.881,544.775 125.802,553.369 C120.722,551.388 116.608,546.787 113.975,541.837" fill="#88736C"/>
    <g>
      <path d="M222.285,575.298 C229.126,578.716 238.495,588.876 241.026,596.792 M238.246,560.476 C249.464,565.644 256.485,577.576 260.591,588.232 M255.346,545.658 C263.326,550.218 272.238,564.035 273.584,571.878" fill-opacity="0" stroke="#1A1919" stroke-width="5.669" stroke-linecap="round" stroke-linejoin="round"/>
      <path d="M442.876,311.957 C473.656,342.74 496.037,353.041 517.548,370.099 C550.605,396.318 562.302,407.529 579.107,433.939 C595.064,459.02 590.208,483.738 579.205,504.522 C569.962,521.98 554.027,534.257 511.962,548.537 C501.46,552.105 447.158,563.212 430.041,568.105 C418.119,571.509 402.64,589.458 392.138,596.224 C379.271,604.513 364.017,604.781 346.904,593.777 C326.642,580.755 321.226,554.652 329.783,537.537 C340.857,515.392 381.023,503.166 412.923,494.742 C422.455,492.228 454.966,471.201 458.265,461.301 C460.546,454.459 457.125,445.34 441.164,429.379" fill="#96827C"/>
      <path d="M355.46,536.314 C340.791,539.98 331.457,553.537 327.339,560.765 M364.017,554.652 C354.845,554.81 343.234,566.878 337.119,581.548 M378.689,572.992 C368.908,577.886 358.501,587.916 357.904,597.447 M112.65,321.695 C67.53,352.144 13.544,413.176 5.054,459.863 C-2.28,500.205 8.211,534.882 41.732,548.29 C82.489,564.593 97.462,564.126 139.544,566.224 C172.148,567.853 175.53,570.419 195.788,590.675 C220.242,615.13 248.62,598.792 258.141,591.9 C281.78,574.785 280.148,545.441 260.591,528.323 C242.352,512.369 212.866,505.577 188.45,496.127 C181.036,493.254 152.355,479.793 139.544,470.86 C123.914,459.958 128.059,451.475 141.991,434.182" fill-opacity="0" stroke="#1A1919" stroke-width="5.669" stroke-linecap="round" stroke-linejoin="round"/>
      <path d="M517.548,370.099 C550.605,396.318 562.302,407.529 579.107,433.939 C595.064,459.02 590.208,483.738 579.205,504.522 C569.962,521.98 554.027,534.257 511.962,548.537 C501.46,552.105 447.158,563.212 430.041,568.105 C418.119,571.509 402.64,589.458 392.138,596.224 C379.271,604.513 364.017,604.781 346.904,593.777 C326.642,580.755 321.226,554.652 329.783,537.537 C340.857,515.392 381.023,503.166 412.949,494.734 C426.906,491.022 456.574,473.479 459.357,458.109 C462.958,438.256 434.035,414.36 433.693,392.901 C433.406,374.834 444.802,358.978 461.509,352.032 C483.214,343.007 499.851,356.068 517.548,370.099" fill="#96827C"/>
      <path d="M544.222,536.289 C515.488,555.005 472.355,554.865 440.531,567.792 C434.949,570.06 428.541,570.703 423.14,573.162 C417.419,575.765 412.933,582.304 405.998,581.964 C405.656,578.494 409.236,562.203 411.507,559.822 C414.607,556.57 420.812,555.031 424.244,552.017 C428.103,548.636 429.332,543.033 434.939,540.626 C433.925,541.06 438.724,547.925 440.001,548.466 C451.74,553.439 457.523,527.394 463.996,522.722 C467.455,526.143 468.48,536.289 474.226,536.591 C481.591,536.978 493.435,514.767 497.552,509.556 C501.386,511.553 505.025,524.427 512.13,521.432 C517.095,519.34 525.638,490.709 532.652,491.507 C539.666,492.309 535.07,498.763 539.425,505.302 C541.148,507.882 555.386,483.225 555.736,476.974 C566.007,481.639 565.089,486.838 568.56,489.799 C575.402,482.957 585.003,447.857 581.384,442.773 C593.992,460.503 588.019,477.188 583.097,492.365 C578.351,506.99 562.769,521.408 550.902,531.353 C548.775,533.132 546.544,534.773 544.222,536.289" fill="#88736C"/>
      <path d="M442.876,311.957 C473.656,342.74 496.037,353.041 517.548,370.099 C550.605,396.318 562.302,407.529 579.107,433.939 C595.064,459.02 590.208,483.738 579.205,504.522 C569.962,521.98 554.027,534.257 511.962,548.537 C501.46,552.105 447.158,563.212 430.041,568.105 C418.119,571.509 402.64,589.458 392.138,596.224 C379.271,604.513 364.017,604.781 346.904,593.777 C326.642,580.755 321.226,554.652 329.783,537.537 C340.857,515.392 381.023,503.166 412.923,494.742 C422.455,492.228 454.966,471.201 458.265,461.301 C460.546,454.459 457.125,445.34 441.164,429.379 M351.105,539.958 C336.433,543.63 330.584,553.638 327.168,562.757 M357.947,555.919 C351.105,560.476 338.564,569.595 337.119,581.548 M375.046,573.021 C365.265,577.908 358.501,587.916 357.904,597.447" fill-opacity="0" stroke="#1A1919" stroke-width="5.669" stroke-linecap="round" stroke-linejoin="round"/>
    </g>
    <path d="M326.601,23.76 C340.505,17.502 355.57,45.251 347.47,55.717 C340.154,65.167 324.203,50.999 322.132,42.793 C320.705,37.14 320.251,26.618 326.601,23.76" fill="#7D6A67"/>
    <path d="M323.177,28.098 C332.582,19.548 340.347,22.881 344.552,27.244 C351.558,34.517 350.964,50.542 348.826,58.023 M395.851,87.094 C397.56,69.994 414.281,60.505 423.21,74.269" fill-opacity="0" stroke="#1A1919" stroke-width="5.669" stroke-linecap="round" stroke-linejoin="round"/>
  </g>
</svg>