<?xml version="1.0" encoding="UTF-8" standalone="no"?>
<!-- Created with Inkscape (http://www.inkscape.org/) -->

<svg
   xmlns:dc="http://purl.org/dc/elements/1.1/"
   xmlns:cc="http://creativecommons.org/ns#"
   xmlns:rdf="http://www.w3.org/1999/02/22-rdf-syntax-ns#"
   xmlns:svg="http://www.w3.org/2000/svg"
   xmlns="http://www.w3.org/2000/svg"
   xmlns:xlink="http://www.w3.org/1999/xlink"
   xmlns:sodipodi="http://sodipodi.sourceforge.net/DTD/sodipodi-0.dtd"
   xmlns:inkscape="http://www.inkscape.org/namespaces/inkscape"
   width="31.070475mm"
   height="31.725567mm"
   viewBox="0 0 110.09223 112.41343"
   id="svg2"
   version="1.1"
   inkscape:version="0.91 r13725"
   sodipodi:docname="Fliege.svg">
  <title
     id="title4147">fly - coloured</title>
  <defs
     id="defs4">
    <linearGradient
       inkscape:collect="always"
       id="linearGradient6778">
      <stop
         style="stop-color:#cccccc;stop-opacity:1"
         offset="0"
         id="stop6780" />
      <stop
         id="stop6786"
         offset="0.22728409"
         style="stop-color:#000500;stop-opacity:1;" />
      <stop
         style="stop-color:#000500;stop-opacity:1;"
         offset="0.57647485"
         id="stop6788" />
      <stop
         style="stop-color:#333333;stop-opacity:1"
         offset="1"
         id="stop6782" />
    </linearGradient>
    <linearGradient
       id="linearGradient6768"
       inkscape:collect="always">
      <stop
         id="stop6770"
         offset="0"
         style="stop-color:#003207;stop-opacity:1" />
      <stop
         style="stop-color:#003c06;stop-opacity:1;"
         offset="0.16874121"
         id="stop6772" />
      <stop
         id="stop6774"
         offset="0.20275193"
         style="stop-color:#003705;stop-opacity:1;" />
      <stop
         id="stop6776"
         offset="1"
         style="stop-color:#000500;stop-opacity:1" />
    </linearGradient>
    <linearGradient
       inkscape:collect="always"
       id="linearGradient6732">
      <stop
         style="stop-color:#004909;stop-opacity:1;"
         offset="0"
         id="stop6734" />
      <stop
         id="stop6740"
         offset="0.16874121"
         style="stop-color:#003c06;stop-opacity:1;" />
      <stop
         style="stop-color:#003705;stop-opacity:1;"
         offset="0.20275193"
         id="stop6742" />
      <stop
         style="stop-color:#001b00;stop-opacity:1"
         offset="1"
         id="stop6736" />
    </linearGradient>
    <pattern
       inkscape:collect="always"
       xlink:href="#Polkadots-large"
       id="pattern6426"
       patternTransform="matrix(1.0601499,0,0,1.1359114,151.0178,223.11744)" />
    <pattern
       inkscape:collect="always"
       xlink:href="#Polkadots-large"
       id="pattern6334"
       patternTransform="matrix(1.1785714,0,0,1.3571428,89.892863,231.25001)" />
    <pattern
       inkscape:collect="always"
       xlink:href="#Polkadots-large"
       id="pattern6242"
       patternTransform="matrix(0.96727487,0,0,1.0948129,104.72897,215.14509)" />
    <pattern
       inkscape:collect="always"
       xlink:href="#Polkadots-large"
       id="pattern6150"
       patternTransform="matrix(0.9338809,0,0,1.603107,177.7386,198.12363)" />
    <pattern
       inkscape:collect="always"
       xlink:href="#Polkadots-large"
       id="pattern6058"
       patternTransform="matrix(1.0096423,0,0,1.464211,157.44792,193.05725)" />
    <pattern
       inkscape:collect="always"
       xlink:href="#Polkadots-large"
       id="pattern5966"
       patternTransform="matrix(1.06015,0,0,1.1106576,145.47418,185.84237)" />
    <pattern
       inkscape:stockid="Polka dots, large"
       id="Polkadots-large"
       patternTransform="translate(0,0) scale(10,10)"
       height="10"
       width="10"
       patternUnits="userSpaceOnUse"
       inkscape:collect="always">
      <circle
         id="circle5656"
         r="0.45"
         cy="0.810"
         cx="2.567"
         style="fill:black;stroke:none" />
      <circle
         id="circle5658"
         r="0.45"
         cy="2.33"
         cx="3.048"
         style="fill:black;stroke:none" />
      <circle
         id="circle5660"
         r="0.45"
         cy="2.415"
         cx="4.418"
         style="fill:black;stroke:none" />
      <circle
         id="circle5662"
         r="0.45"
         cy="3.029"
         cx="1.844"
         style="fill:black;stroke:none" />
      <circle
         id="circle5664"
         r="0.45"
         cy="1.363"
         cx="6.08"
         style="fill:black;stroke:none" />
      <circle
         id="circle5666"
         r="0.45"
         cy="4.413"
         cx="5.819"
         style="fill:black;stroke:none" />
      <circle
         id="circle5668"
         r="0.45"
         cy="4.048"
         cx="4.305"
         style="fill:black;stroke:none" />
      <circle
         id="circle5670"
         r="0.45"
         cy="3.045"
         cx="5.541"
         style="fill:black;stroke:none" />
      <circle
         id="circle5672"
         r="0.45"
         cy="5.527"
         cx="4.785"
         style="fill:black;stroke:none" />
      <circle
         id="circle5674"
         r="0.45"
         cy="5.184"
         cx="2.667"
         style="fill:black;stroke:none" />
      <circle
         id="circle5676"
         r="0.45"
         cy="1.448"
         cx="7.965"
         style="fill:black;stroke:none" />
      <circle
         id="circle5678"
         r="0.45"
         cy="5.049"
         cx="7.047"
         style="fill:black;stroke:none" />
      <circle
         id="circle5680"
         r="0.45"
         cy="0.895"
         cx="4.340"
         style="fill:black;stroke:none" />
      <circle
         id="circle5682"
         r="0.45"
         cy="0.340"
         cx="7.125"
         style="fill:black;stroke:none" />
      <circle
         id="circle5684"
         r="0.45"
         cy="1.049"
         cx="9.553"
         style="fill:black;stroke:none" />
      <circle
         id="circle5686"
         r="0.45"
         cy="2.689"
         cx="7.006"
         style="fill:black;stroke:none" />
      <circle
         id="circle5688"
         r="0.45"
         cy="2.689"
         cx="8.909"
         style="fill:black;stroke:none" />
      <circle
         id="circle5690"
         r="0.45"
         cy="4.407"
         cx="9.315"
         style="fill:black;stroke:none" />
      <circle
         id="circle5692"
         r="0.45"
         cy="3.870"
         cx="7.820"
         style="fill:black;stroke:none" />
      <circle
         id="circle5694"
         r="0.45"
         cy="5.948"
         cx="8.270"
         style="fill:black;stroke:none" />
      <circle
         id="circle5696"
         r="0.45"
         cy="7.428"
         cx="7.973"
         style="fill:black;stroke:none" />
      <circle
         id="circle5698"
         r="0.45"
         cy="8.072"
         cx="9.342"
         style="fill:black;stroke:none" />
      <circle
         id="circle5700"
         r="0.45"
         cy="9.315"
         cx="8.206"
         style="fill:black;stroke:none" />
      <circle
         id="circle5702"
         r="0.45"
         cy="9.475"
         cx="9.682"
         style="fill:black;stroke:none" />
      <circle
         id="circle5704"
         r="0.45"
         cy="6.186"
         cx="9.688"
         style="fill:black;stroke:none" />
      <circle
         id="circle5706"
         r="0.45"
         cy="6.296"
         cx="3.379"
         style="fill:black;stroke:none" />
      <circle
         id="circle5708"
         r="0.45"
         cy="8.204"
         cx="2.871"
         style="fill:black;stroke:none" />
      <circle
         id="circle5710"
         r="0.45"
         cy="8.719"
         cx="4.59"
         style="fill:black;stroke:none" />
      <circle
         id="circle5712"
         r="0.45"
         cy="9.671"
         cx="3.181"
         style="fill:black;stroke:none" />
      <circle
         id="circle5714"
         r="0.45"
         cy="7.315"
         cx="5.734"
         style="fill:black;stroke:none" />
      <circle
         id="circle5716"
         r="0.45"
         cy="6.513"
         cx="6.707"
         style="fill:black;stroke:none" />
      <circle
         id="circle5718"
         r="0.45"
         cy="9.670"
         cx="5.730"
         style="fill:black;stroke:none" />
      <circle
         id="circle5720"
         r="0.45"
         cy="8.373"
         cx="6.535"
         style="fill:black;stroke:none" />
      <circle
         id="circle5722"
         r="0.45"
         cy="7.154"
         cx="4.37"
         style="fill:black;stroke:none" />
      <circle
         id="circle5724"
         r="0.45"
         cy="7.25"
         cx="0.622"
         style="fill:black;stroke:none" />
      <circle
         id="circle5726"
         r="0.45"
         cy="5.679"
         cx="0.831"
         style="fill:black;stroke:none" />
      <circle
         id="circle5728"
         r="0.45"
         cy="8.519"
         cx="1.257"
         style="fill:black;stroke:none" />
      <circle
         id="circle5730"
         r="0.45"
         cy="6.877"
         cx="1.989"
         style="fill:black;stroke:none" />
      <circle
         id="circle5732"
         r="0.45"
         cy="3.181"
         cx="0.374"
         style="fill:black;stroke:none" />
      <circle
         id="circle5734"
         r="0.45"
         cy="1.664"
         cx="1.166"
         style="fill:black;stroke:none" />
      <circle
         id="circle5736"
         r="0.45"
         cy="0.093"
         cx="1.151"
         style="fill:black;stroke:none" />
      <circle
         id="circle5738"
         r="0.45"
         cy="10.093"
         cx="1.151"
         style="fill:black;stroke:none" />
      <circle
         id="circle5740"
         r="0.45"
         cy="4.451"
         cx="1.302"
         style="fill:black;stroke:none" />
      <circle
         id="circle5742"
         r="0.45"
         cy="3.763"
         cx="3.047"
         style="fill:black;stroke:none" />
    </pattern>
    <radialGradient
       inkscape:collect="always"
       xlink:href="#linearGradient6732"
       id="radialGradient6738"
       cx="101.69125"
       cy="165.84973"
       fx="101.69125"
       fy="165.84973"
       r="22.051862"
       gradientTransform="matrix(1,0,0,0.89114326,0,19.214324)"
       gradientUnits="userSpaceOnUse" />
    <radialGradient
       inkscape:collect="always"
       xlink:href="#linearGradient6732"
       id="radialGradient6750"
       cx="128.77687"
       cy="181.07971"
       fx="128.77687"
       fy="181.07971"
       r="16.924408"
       gradientTransform="matrix(1,0,0,0.81038384,0,34.803606)"
       gradientUnits="userSpaceOnUse" />
    <radialGradient
       inkscape:collect="always"
       xlink:href="#linearGradient6768"
       id="radialGradient6766"
       cx="148.9501"
       cy="194.91821"
       fx="148.9501"
       fy="194.91821"
       r="14.694911"
       gradientTransform="matrix(1,0,0,0.8888789,0,21.659526)"
       gradientUnits="userSpaceOnUse" />
    <radialGradient
       inkscape:collect="always"
       xlink:href="#linearGradient6778"
       id="radialGradient6784"
       cx="140.79796"
       cy="198.18857"
       fx="140.79796"
       fy="198.18857"
       r="6.8343361"
       gradientTransform="matrix(1.362123,-0.01293298,0.00878642,0.92540021,-52.652108,16.588836)"
       gradientUnits="userSpaceOnUse" />
    <radialGradient
       inkscape:collect="always"
       xlink:href="#linearGradient6778"
       id="radialGradient6796"
       cx="149.99283"
       cy="185.53835"
       fx="149.99283"
       fy="185.53835"
       r="4.2612915"
       gradientTransform="matrix(1.0688377,1.3665411,-0.62170838,0.48626814,105.7625,-109.72209)"
       gradientUnits="userSpaceOnUse" />
    <radialGradient
       inkscape:collect="always"
       xlink:href="#linearGradient6768"
       id="radialGradient6812"
       cx="95.521187"
       cy="195.93494"
       fx="95.521187"
       fy="195.93494"
       r="5.8676443"
       gradientTransform="matrix(1,0,0,1.1481354,0,-28.406189)"
       gradientUnits="userSpaceOnUse" />
    <radialGradient
       inkscape:collect="always"
       xlink:href="#linearGradient6768"
       id="radialGradient6820"
       cx="112.00894"
       cy="207.61476"
       fx="112.00894"
       fy="207.61476"
       r="11.012778"
       gradientTransform="matrix(1,0,0,1.4829122,0,-100.25969)"
       gradientUnits="userSpaceOnUse" />
    <radialGradient
       inkscape:collect="always"
       xlink:href="#linearGradient6732"
       id="radialGradient6828"
       cx="132.76997"
       cy="213.08076"
       fx="132.76997"
       fy="213.08076"
       r="4.8352776"
       gradientTransform="matrix(1,0,0,4.1617033,0,-673.69816)"
       gradientUnits="userSpaceOnUse" />
  </defs>
  <sodipodi:namedview
     id="base"
     pagecolor="#ffffff"
     bordercolor="#666666"
     borderopacity="1.0"
     inkscape:pageopacity="0.0"
     inkscape:pageshadow="2"
     inkscape:zoom="4"
     inkscape:cx="94.414163"
     inkscape:cy="50.823444"
     inkscape:document-units="mm"
     inkscape:current-layer="layer1"
     showgrid="false"
     inkscape:window-width="1935"
     inkscape:window-height="1011"
     inkscape:window-x="102"
     inkscape:window-y="241"
     inkscape:window-maximized="0"
     inkscape:snap-global="false"
     fit-margin-top="1"
     fit-margin-bottom="1"
     fit-margin-right="1"
     fit-margin-left="1" />
  <metadata
     id="metadata7">
    <rdf:RDF>
      <cc:Work
         rdf:about="">
        <dc:format>image/svg+xml</dc:format>
        <dc:type
           rdf:resource="http://purl.org/dc/dcmitype/StillImage" />
        <dc:title>fly - coloured</dc:title>
        <dc:date>2015-02-11</dc:date>
        <dc:creator>
          <cc:Agent>
            <dc:title>Frank Tremmel</dc:title>
          </cc:Agent>
        </dc:creator>
        <dc:subject>
          <rdf:Bag>
            <rdf:li>fly</rdf:li>
            <rdf:li>insect</rdf:li>
            <rdf:li>animal</rdf:li>
            <rdf:li>fliege</rdf:li>
            <rdf:li>insekt</rdf:li>
            <rdf:li>tier</rdf:li>
            <rdf:li>line art</rdf:li>
            <rdf:li>outline</rdf:li>
            <rdf:li></rdf:li>
          </rdf:Bag>
        </dc:subject>
        <dc:description>coloured line art fly</dc:description>
        <cc:license
           rdf:resource="http://creativecommons.org/publicdomain/zero/1.0/" />
      </cc:Work>
      <cc:License
         rdf:about="http://creativecommons.org/publicdomain/zero/1.0/">
        <cc:permits
           rdf:resource="http://creativecommons.org/ns#Reproduction" />
        <cc:permits
           rdf:resource="http://creativecommons.org/ns#Distribution" />
        <cc:permits
           rdf:resource="http://creativecommons.org/ns#DerivativeWorks" />
      </cc:License>
    </rdf:RDF>
  </metadata>
  <g
     inkscape:label="Ebene 1"
     inkscape:groupmode="layer"
     id="layer1"
     transform="translate(-57.662312,-124.33364)">
    <path
       style="fill:url(#radialGradient6820);fill-rule:evenodd;stroke:#000000;stroke-width:1.16929138;stroke-linecap:butt;stroke-linejoin:miter;stroke-miterlimit:4;stroke-dasharray:none;stroke-opacity:1;fill-opacity:1.0"
       d="m 115.69897,191.87879 -6.42857,3.48215 c -3.25967,0.85306 -2.05364,3.08952 -1.60714,4.37499 0,0 2.74075,5.00258 3.12499,6.78572 0.33132,1.53752 -4.64285,10.44643 -4.64285,10.44643 -1.30952,0.14881 -6.315483,-1.12409 -3.92857,0.44642 l 2.58928,1.51786 -0.17857,3.03572 c 0.0502,3.71651 1.50669,-1.00446 2.41071,-2.41072 l 5.98215,-11.33929 c 3.02733,-1.44087 1.11644,-3.74177 0.0893,-4.73214 l -1.875,-3.21428 c -1.36237,-2.06289 0.36276,-2.57964 1.78571,-2.32143 2.69932,-0.59524 3.22003,-1.0119 4.01787,-1.78572 1.77997,-0.75866 4.20303,-1.96346 5.08928,-3.83928 z"
       id="path4180"
       inkscape:connector-curvature="0"
       sodipodi:nodetypes="cccscccccccccccc" />
    <path
       style="fill:url(#pattern6334);fill-opacity:1;fill-rule:evenodd;stroke:none;stroke-width:0.35433072;stroke-linecap:butt;stroke-linejoin:miter;stroke-miterlimit:4;stroke-dasharray:none;stroke-opacity:1"
       d="m 115.91911,191.91493 -6.42857,3.48215 c -3.25967,0.85306 -2.05364,3.08952 -1.60714,4.37499 0,0 2.74075,5.00258 3.12499,6.78572 0.33132,1.53752 -4.64285,10.44643 -4.64285,10.44643 -1.30952,0.14881 -6.31548,-1.12409 -3.92857,0.44642 l 2.58928,1.51786 -0.17857,3.03572 c 0.0502,3.71651 1.50669,-1.00446 2.41071,-2.41072 l 5.98215,-11.33929 c 3.02733,-1.44087 1.11644,-3.74177 0.0893,-4.73214 l -1.875,-3.21428 c -1.36237,-2.06289 0.36276,-2.57964 1.78571,-2.32143 2.69932,-0.59524 3.22003,-1.0119 4.01787,-1.78572 1.77997,-0.75866 4.20303,-1.96346 5.08928,-3.83928 z"
       id="path4180-4"
       inkscape:connector-curvature="0"
       sodipodi:nodetypes="cccscccccccccccc" />
    <path
       style="fill:url(#radialGradient6738);fill-opacity:1;fill-rule:evenodd;stroke:#ff0000;stroke-width:0.35433072;stroke-linecap:butt;stroke-linejoin:miter;stroke-miterlimit:4;stroke-dasharray:none;stroke-opacity:1"
       d="m 88.343104,164.39452 c 1.68625,-1.69936 3.09154,-3.5111 7.07106,-4.29315 7.870236,-5.12837 17.714076,-3.19231 22.223366,1.26269 3.4957,3.45361 7.6317,7.54752 10.22779,10.10153 l 3.91525,24.48877 c -1.72688,-0.23124 -4.33332,0.80606 -6.08467,-2.69304 -19.26607,-3.59609 -40.275606,-21.93704 -37.352796,-28.8668 z"
       id="path4168"
       inkscape:connector-curvature="0"
       sodipodi:nodetypes="ccscccc" />
    <path
       style="fill:url(#pattern5966);fill-opacity:1;fill-rule:evenodd;stroke:#ff0000;stroke-width:0.35433072;stroke-linecap:butt;stroke-linejoin:miter;stroke-miterlimit:4;stroke-dasharray:none;stroke-opacity:1"
       d="m 88.431491,164.48291 c 1.68625,-1.69936 3.09154,-3.5111 7.07106,-4.29315 7.870239,-5.12837 17.714079,-3.19231 22.223369,1.26269 3.4957,3.45361 7.6317,7.54752 10.22779,10.10153 l 3.91525,24.48877 c -1.72688,-0.23124 -4.33332,0.80606 -6.08467,-2.69304 -19.26607,-3.59609 -40.275609,-21.93704 -37.352799,-28.8668 z"
       id="path4168-8"
       inkscape:connector-curvature="0"
       sodipodi:nodetypes="ccscccc" />
    <path
       style="color:#000000;font-style:normal;font-variant:normal;font-weight:normal;font-stretch:normal;font-size:medium;line-height:normal;font-family:sans-serif;text-indent:0;text-align:start;text-decoration:none;text-decoration-line:none;text-decoration-style:solid;text-decoration-color:#000000;letter-spacing:normal;word-spacing:normal;text-transform:none;direction:ltr;block-progression:tb;writing-mode:lr-tb;baseline-shift:baseline;text-anchor:start;white-space:normal;clip-rule:nonzero;display:inline;overflow:visible;visibility:visible;opacity:1;isolation:auto;mix-blend-mode:normal;color-interpolation:sRGB;color-interpolation-filters:linearRGB;solid-color:#000000;solid-opacity:1;fill:#000000;fill-opacity:1;fill-rule:evenodd;stroke:none;stroke-width:1.77165353;stroke-linecap:butt;stroke-linejoin:miter;stroke-miterlimit:4;stroke-dasharray:none;stroke-dashoffset:0;stroke-opacity:1;color-rendering:auto;image-rendering:auto;shape-rendering:auto;text-rendering:auto;enable-background:accumulate"
       d="m 107.04445,156.02599 c -0.56349,-0.0139 -1.12558,-0.006 -1.68555,0.0254 -3.38668,0.19182 -7.725138,1.02445 -9.820308,3.86914 -3.39695,-0.47215 -5.4219,1.6445 -7.29102,4.00781 -1.18409,3.31364 0.95024,6.57967 2.76563,9.20703 5.48381,7.21212 13.021768,12.65958 21.037098,16.75195 4.13904,2.04945 9.3983,4.42927 13.93946,4.05078 0.2931,2.95802 2.82333,3.25209 5.04687,2.84961 0.65134,-0.59732 2.84747,0.76934 2.43164,-0.52343 l -4.18164,-25.60352 c -3.75193,-3.60981 -7.40796,-7.32407 -11.22461,-10.86328 -3.10442,-2.46177 -7.07316,-3.67398 -11.01757,-3.77149 z m -0.79102,1.81641 c 0.72512,-0.009 1.45094,0.0237 2.17187,0.0977 3.94795,0.36114 7.79894,2.06773 10.45508,5.05078 l 7.72461,7.52929 c -0.91555,0.38343 -1.72509,1.00333 -2.33398,1.81055 -1.43553,1.00029 -1.30121,2.99052 -1.93164,4.44336 -1.20869,1.72979 -3.10444,2.85497 -5.01172,3.67969 -0.47466,0.34988 0.0117,1.15635 0.54297,0.90039 2.03913,-0.84986 4.01335,-2.10847 5.31445,-3.91992 0.56512,-1.10181 0.92182,-3.47478 1.33789,-3.95508 0.88942,-0.81978 1.75513,-1.77514 2.91211,-2.15039 l 0.19727,0.19336 3.83398,23.47461 c -1.88333,0.23311 -3.67914,-0.0575 -4.43945,-2.23633 -2.19036,-0.12789 -4.84452,-0.46366 -6.64258,-1.35156 -9.64789,-3.25935 -18.51089,-8.93146 -25.494138,-16.34571 -2.29928,-2.6558 -4.85351,-5.57732 -5.1875,-9.22461 0.21964,-1.87798 2.00882,-3.1271 3.72461,-3.99023 -0.13332,0.14935 -0.27178,0.30567 -0.40625,0.44336 -0.95707,1.19414 -1.72812,2.72339 -1.60351,4.2832 0.18855,0.52616 1.05311,0.35099 1.02148,-0.20703 0.0654,-2.27725 1.77098,-4.00746 3.41016,-5.3789 1.38985,-0.51193 2.60525,-1.42623 4.02734,-1.93555 2.030268,-0.78543 4.201588,-1.18492 6.376948,-1.21094 z m 1.2832,3.92773 c -2.83662,0.0752 -5.04304,2.3068 -6.15625,4.75977 -0.4428,0.99054 -0.9487,1.99607 -1.17187,3.05664 0.0291,0.56557 0.92231,0.63772 1.04101,0.084 0.91799,-2.57761 2.11913,-5.55854 4.89453,-6.56836 0.5647,-0.39713 1.74095,0.10121 1.95118,-0.74024 0.0449,-0.31799 -0.2384,-0.6173 -0.5586,-0.5918 z m 5.58985,7.22461 c -0.91813,0.31986 -1.53439,1.27794 -2.06836,2.05274 -0.56231,1.04956 -0.94462,2.3277 -0.77149,3.50976 0.21534,0.43934 0.9507,0.25662 0.93555,-0.23242 -0.0663,-1.78489 0.81483,-3.49021 2.2793,-4.49804 0.29133,-0.30242 0.0447,-0.84901 -0.375,-0.83204 z m 1.87695,1.73438 c -0.77191,0.18366 -0.8916,1.24886 -1.17578,1.86523 -0.76861,2.87132 1.10262,5.46855 1.9043,8.09961 0.31964,0.49012 1.14716,0.0616 0.93164,-0.48242 -0.61904,-2.41994 -2.46989,-4.71846 -1.82813,-7.32617 -0.008,-0.6994 1.09274,-1.33517 0.55469,-2.00781 -0.10188,-0.0991 -0.24465,-0.15367 -0.38672,-0.14844 z"
       id="path4168-9"
       inkscape:connector-curvature="0" />
    <path
       style="fill:url(#radialGradient6828);fill-rule:evenodd;stroke:#000000;stroke-width:1.0629921;stroke-linecap:butt;stroke-linejoin:miter;stroke-miterlimit:4;stroke-dasharray:none;stroke-opacity:1;fill-opacity:1.0"
       d="m 128.92857,195.21935 c 0,0 1.00823,1.53842 1.25001,2.41071 0.25488,0.91957 0.17857,2.85714 0.17857,2.85714 0,0 1.90137,6.02306 2.49999,9.01786 0.36469,1.82444 1.16072,5.17857 1.16072,5.17857 -1.43535,1.34977 -0.74229,1.26656 0.17857,2.85714 -0.30961,3.37509 -0.25242,6.38338 -0.0893,9.28572 -1.92871,0.71429 -2.59433,2.32143 -1.78572,2.14286 l 2.85714,-0.35715 c 0,0 0.26787,2.05357 0.17857,3.66072 0.45213,1.6242 2.10516,-1.98809 1.60714,-3.48214 0.19303,-3.43028 -0.41238,-7.25977 -1.16071,-11.16072 1.6639,-1.47564 0.39463,-2.36464 -0.17857,-3.39286 l 0.26786,-3.66071 c -0.38965,-4.54396 -1.40148,-6.91032 -2.23215,-9.91072 l -0.0893,-4.91071 c -1.26793,-2.2296 -2.66734,-3.49495 -4.64284,-0.53571 z"
       id="path4178"
       inkscape:connector-curvature="0"
       sodipodi:nodetypes="cscsccccccccccccc" />
    <path
       style="fill:url(#pattern6426);fill-opacity:1;fill-rule:evenodd;stroke:none;stroke-width:0.35433072;stroke-linecap:butt;stroke-linejoin:miter;stroke-miterlimit:4;stroke-dasharray:none;stroke-opacity:1"
       d="m 128.86117,195.26663 c 0,0 1.00823,1.53842 1.25001,2.41071 0.25488,0.91957 0.17857,2.85714 0.17857,2.85714 0,0 1.90137,6.02306 2.49999,9.01786 0.36469,1.82444 1.16072,5.17857 1.16072,5.17857 -1.43535,1.34977 -0.74229,1.26656 0.17857,2.85714 -0.30961,3.37509 -0.25242,6.38338 -0.0893,9.28572 -1.92871,0.71429 -2.59433,2.32143 -1.78572,2.14286 l 2.85714,-0.35715 c 0,0 0.26787,2.05357 0.17857,3.66072 0.45213,1.6242 2.10516,-1.98809 1.60714,-3.48214 0.19303,-3.43028 -0.41238,-7.25977 -1.16071,-11.16072 1.6639,-1.47564 0.39463,-2.36464 -0.17857,-3.39286 l 0.26786,-3.66071 c -0.38965,-4.54396 -1.40148,-6.91032 -2.23215,-9.91072 l -0.0893,-4.91071 c -1.26793,-2.2296 -2.66734,-3.49495 -4.64284,-0.53571 z"
       id="path4178-4"
       inkscape:connector-curvature="0"
       sodipodi:nodetypes="cscsccccccccccccc" />
    <path
       style="fill:url(#radialGradient6812);fill-opacity:1;fill-rule:evenodd;stroke:#000000;stroke-width:1.0629921;stroke-linecap:butt;stroke-linejoin:round;stroke-miterlimit:4;stroke-dasharray:none;stroke-opacity:1"
       d="m 96.077771,190.52687 c 0.46567,1.20055 0.53294,2.5007 1.875,3.48215 0.37172,1.52964 -1.20898,2.4926 -1.96428,3.57143 -1.93453,1.26014 -3.86905,1.61901 -5.80357,1.69642 l 2.41071,1.51786 0.71429,1.96429 c 1.50754,-0.33418 3.07706,-1.16415 4.82142,-3.39286 -0.20099,-1.21657 0.62222,-1.92103 1.33929,-2.67857 1.876009,0.44032 1.443649,-0.89314 0.982139,-1.51786 -1.045679,-1.44563 -0.816959,-3.14613 -0.714279,-4.82143 -0.420964,-2.7513 9.733089,1.27055 12.961789,-2.16507 l 0.41065,-1.98829 -8.16303,0.30981 c -3.92333,0.5826 -9.498522,0.67148 -8.870129,4.02212 z"
       id="path4182"
       inkscape:connector-curvature="0"
       sodipodi:nodetypes="cccccccccccccc" />
    <path
       style="fill:url(#pattern6242);fill-opacity:1;fill-rule:evenodd;stroke:none;stroke-width:0.35433072;stroke-linecap:butt;stroke-linejoin:round;stroke-miterlimit:4;stroke-dasharray:none;stroke-opacity:1"
       d="m 95.672858,190.85383 c 0.46567,1.20055 0.53294,2.5007 1.875,3.48215 0.37172,1.52964 -1.20898,2.4926 -1.96428,3.57143 -1.93453,1.26014 -3.86905,1.61901 -5.80357,1.69642 l 2.41071,1.51786 0.71429,1.96429 c 1.50754,-0.33418 3.07706,-1.16415 4.82142,-3.39286 -0.20099,-1.21657 0.62222,-1.92103 1.33929,-2.67857 1.876012,0.44032 1.443652,-0.89314 0.982142,-1.51786 -1.045682,-1.44563 -0.816962,-3.14613 -0.714282,-4.82143 z"
       id="path4182-5"
       inkscape:connector-curvature="0"
       sodipodi:nodetypes="ccccccccccc" />
    <path
       style="fill:#c3e8ff;fill-opacity:0.60368663;fill-rule:evenodd;stroke:#ff00ff;stroke-width:0.35433072;stroke-linecap:butt;stroke-linejoin:miter;stroke-miterlimit:4;stroke-dasharray:none;stroke-opacity:1"
       d="m 118.74093,185.06279 c -1.7736,0.0207 -2.26867,-0.91755 -2.14286,-2.32143 0.0942,-1.87988 -1.61711,-1.95432 -2.85714,-2.5 -0.39533,-1.78572 -2.46315,-3.28108 -3.21429,-5.35715 -0.25008,-0.6912 -1.91358,-1.63704 -3.03571,-2.85714 -1.7251,-1.87571 -3.44849,-3.1194 -5.53572,-3.21428 0,0 -2.618028,-0.14881 -3.928558,-0.17858 -2.91592,-0.0662 -5.89155,-0.5798 -8.75,0 -1.64689,0.33405 -4.10715,2.14286 -4.10715,2.14286 0,0 -4.49249,-0.88786 -6.42857,-0.53571 -2.43787,0.44378 -5.89286,3.57142 -5.89286,3.57142 l -6.07142,1.25001 c -6.5719,3.13177 -5.50486,6.80917 1.25,10.89285 5.66862,1.65281 11.84089,3.22735 18.03571,3.92857 5.32397,0.60265 10.71429,0.0616 16.071428,1.07143 5.27612,0.99456 6.97274,1.75691 10.53571,2.14286 3.90617,0.42312 11.78571,0.17857 11.78571,0.17857 1.55214,-0.15722 2.19535,-0.61742 2.32143,-1.25 -6.34389,-2.32143 -6.0201,-4.64285 -8.03571,-6.96428 z"
       id="path4172-0"
       inkscape:connector-curvature="0"
       sodipodi:nodetypes="cccssssscscccsssccc" />
    <path
       style="color:#000000;font-style:normal;font-variant:normal;font-weight:normal;font-stretch:normal;font-size:medium;line-height:normal;font-family:sans-serif;text-indent:0;text-align:start;text-decoration:none;text-decoration-line:none;text-decoration-style:solid;text-decoration-color:#000000;letter-spacing:normal;word-spacing:normal;text-transform:none;direction:ltr;block-progression:tb;writing-mode:lr-tb;baseline-shift:baseline;text-anchor:start;white-space:normal;clip-rule:nonzero;display:inline;overflow:visible;visibility:visible;opacity:1;isolation:auto;mix-blend-mode:normal;color-interpolation:sRGB;color-interpolation-filters:linearRGB;solid-color:#000000;solid-opacity:1;fill:#000000;fill-opacity:1;fill-rule:evenodd;stroke:none;stroke-width:1.77165353;stroke-linecap:butt;stroke-linejoin:miter;stroke-miterlimit:4;stroke-dasharray:none;stroke-dashoffset:0;stroke-opacity:1;color-rendering:auto;image-rendering:auto;shape-rendering:auto;text-rendering:auto;enable-background:accumulate"
       d="m 92.771484,167.42578 c -2.661213,-0.069 -5.658367,0.41558 -7.546875,2.6875 -2.740058,-0.50479 -5.012067,-1.60092 -7.548828,-0.43359 -1.989525,0.71117 -4.302597,2.16262 -5.398437,3.91992 -1.961362,-0.71043 -4.015217,0.14006 -5.980469,0.80469 -2.401282,1.11617 -5.245942,3.31096 -4.457031,6.30859 0.917966,2.88721 3.697161,4.61467 6.158203,6.08008 8.533801,2.51823 17.330702,4.5018 26.28125,4.35351 5.366149,-0.11008 10.586003,1.18366 15.767583,2.4004 4.94697,0.92103 10.02406,0.70558 15.02734,0.5625 1.35808,0.39992 4.12473,-2.29874 2.26562,-2.91211 -2.78857,-0.89296 -5.42768,-2.58256 -6.68554,-5.32813 -0.26051,-2.14787 -3.14077,-1.14112 -2.95313,-3.0957 0.11503,-3.01444 -3.72621,-2.68046 -4.30664,-5.38086 -1.48173,-1.85398 -2.25174,-4.15505 -4.42187,-5.38477 -1.97261,-2.1899 -4.50929,-4.3453 -7.65821,-4.14062 -2.477077,-0.11846 -4.954038,-0.20006 -7.427731,-0.38086 -0.362232,-0.0288 -0.735061,-0.0507 -1.115235,-0.0606 z m -0.666015,1.8086 c 0.567983,-0.0116 1.138899,0.006 1.705078,0.0371 3.186044,0.35143 6.451623,0.0484 9.599613,0.65235 2.48954,0.87094 3.88536,3.28722 5.97851,4.75195 0.8925,1.5742 2.62968,2.77467 3.72266,4.29102 -0.85587,-0.22642 -1.81708,-0.37546 -2.30664,-0.625 -0.45081,-0.0875 -0.90546,-0.14484 -1.36133,-0.19727 -1.90319,-1.6256 -3.12028,-4.19531 -4.3275,-6.35732 -0.30715,1.4929 1.11858,3.33424 1.59508,4.73765 0.53286,0.46665 1.23164,2.09099 1.89453,2.44584 -0.026,0.78014 -0.0961,1.60023 -0.35156,2.3125 -1.10382,-0.69772 -2.75266,-1.84922 -3.2793,-3.16406 -0.62246,-0.80775 -1.82107,-2.71481 -2.21011,-3.65663 -0.0143,2.30445 2.11608,4.37414 2.67349,5.41761 0.58948,0.80776 1.59806,1.4663 2.38818,2.21558 -0.16571,0.20556 -0.36606,0.38051 -0.61133,0.50977 -0.0325,-0.0446 -0.0791,-0.0851 -0.10742,-0.13086 -4.77374,-3.64078 -8.218333,-7.11655 -12.552931,-11.25152 -0.281247,-0.26137 -0.879334,-0.77431 -1.289597,-0.77929 0.216268,0.97228 1.026509,0.99702 1.578125,1.96182 3.71531,3.65828 7.157353,7.35108 11.274173,10.55922 -1.23089,0.37632 -2.91534,-0.71384 -3.97071,-0.64843 -4.076078,-1.54275 -8.08747,-3.28652 -11.496089,-6.02735 -1.696971,-1.43288 -3.031662,-3.21649 -4.507813,-4.86328 0.404977,-0.15162 0.789126,-0.41192 1.138672,-0.84766 1.442854,-1.00965 3.12027,-1.30903 4.824219,-1.34374 z m -12.00586,1.77929 c 0.380424,-0.0164 0.757166,0.006 1.128907,0.0723 1.234513,-0.0616 2.540825,0.45741 3.740234,0.5 0.131156,0.70478 1.4938,1.46451 1.828125,2.20898 3.147037,4.17209 7.875577,6.66414 12.621094,8.58985 0.803321,0.32159 1.610011,0.64125 2.417971,0.95703 0.19632,0.12206 0.44718,0.21128 0.73047,0.28125 2.7155,1.04892 5.4584,2.03769 8.24414,2.83007 2.15224,-0.15373 3.78448,-0.63281 5.15698,1.33082 0.91023,0.50172 3.02962,1.5393 3.64507,1.1352 -2.17709,-0.7339 -3.56543,-2.6503 -5.16143,-3.63398 -1.37647,0.19918 -2.72668,0.14964 -4.04687,-0.0957 -0.5661,-0.62033 -1.6201,-1.18376 -2.44141,-1.83203 1.17353,-0.88127 1.72102,-2.73901 1.57868,-4.31976 1.44355,-0.17269 3.32586,1.3684 4.5639,1.45648 1.1093,0.72352 2.9303,0.95527 2.27148,2.82617 0.30347,2.47553 3.54327,2.50627 4.01563,5.08985 0.87773,2.01126 5.23973,3.0789 5.95898,3.95117 -0.96973,0.0469 -2.02576,0.0778 -3.09375,0.10351 -0.85466,-0.42834 -2.37466,-0.59938 -2.92383,-1.07031 -2.75766,-0.98722 -5.61881,-1.70705 -8.53125,-2.04101 -1.56216,-0.26362 -3.75332,-0.86324 -4.91211,-2.36524 -2.89645,0.57806 -5.87971,-0.22481 -8.621089,-1.17187 -8.122901,-0.58435 -16.334571,-0.32866 -24.371093,-1.82422 -1.387485,-0.47429 -3.671053,-0.71231 -5.060547,-1.88672 -1.45496,-0.98237 -3.218018,-1.1569 -4.923829,-1.15039 -0.586747,-1.16627 -0.58944,-2.42362 0.757813,-3.41211 1.383046,-1.33112 3.189808,-1.877 5.03125,-2.14649 1.08544,-0.29065 1.678704,-0.26603 2.539063,-0.55468 0.228483,1.04735 2.519357,1.68055 3.234374,2.5625 2.461958,0.74332 4.431843,1.75815 6.480469,3.34179 4.107446,2.02593 8.740044,2.54096 12.990235,4.17969 2.133928,-1.52057 3.606323,0.73174 5.974614,1.125 1.4988,0.21276 3.39093,0.67576 5.12172,-0.0209 -1.38237,-0.31605 -4.26103,-0.50731 -5.81738,-0.93681 -1.623487,-0.69862 -2.05564,-1.06493 -3.380517,-1.78848 -1.570437,1.46752 -3.373209,-0.26417 -5.083984,-0.6249 -4.026846,-1.25078 -8.582135,-1.78173 -11.802735,-4.73242 1.04997,-0.28017 1.004267,-1.84315 2.398101,-1.71885 1.147704,-0.5852 3.669726,-0.96855 3.663616,-1.81055 -2.055471,0.59517 -6.142552,1.17175 -6.794139,3.04893 -1.526858,-0.7435 -3.667711,-0.68336 -4.84375,-2.27735 -0.378726,-0.31297 -0.773926,-0.6078 -1.18164,-0.88281 1.847126,-1.47628 4.425414,-3.18651 6.898437,-3.29297 z m -14.552734,11.0625 c 0.33909,0.002 0.666009,0.0285 0.916016,0.14649 2.064044,0.63977 3.670457,2.24535 5.957031,2.45703 5.49468,1.41927 11.234785,1.47888 16.875,1.77148 3.053834,0.17839 6.156791,0.11218 9.175781,0.53321 2.575647,0.88269 5.340267,1.53031 8.070317,1.08398 2.89354,2.8408 7.24723,2.21666 10.81054,3.48633 0.93314,0.21795 1.88831,0.56766 2.82813,0.93359 -3.11185,-0.009 -6.29439,-0.13918 -8.99414,-0.5332 -5.39781,-1.15122 -10.77895,-2.66715 -16.351566,-2.58008 -6.657979,0.0922 -13.285451,-0.82654 -19.724609,-2.48828 -2.821944,-0.90784 -6.042507,-1.04663 -8.382813,-3.03125 -0.678431,-0.41532 -1.432461,-1.05153 -2.042968,-1.77735 0.273114,0.007 0.568245,-0.004 0.863281,-0.002 z m 41.896765,1.59263 c 0.23315,0.21163 1.60099,1.32991 1.84962,1.57319 -0.49081,0.0455 -1.27387,-0.16059 -2.18528,-0.69093 -0.146,-0.0543 -0.83076,-0.39824 -0.97712,-0.45229 0.19911,-0.0397 1.13011,-0.35746 1.31278,-0.42997 z"
       id="path4172"
       inkscape:connector-curvature="0"
       sodipodi:nodetypes="cccccccccccccccccsccccccccccccccccccccccccccccccccccccccccccccccccccccccccccccccccccccccsccccccccccccscccccccc" />
    <path
       style="fill:url(#radialGradient6750);fill-opacity:1;fill-rule:evenodd;stroke:#00ff00;stroke-width:0.35433072;stroke-linecap:butt;stroke-linejoin:miter;stroke-miterlimit:4;stroke-dasharray:none;stroke-opacity:1"
       d="m 117.67667,170.10178 c -5.93169,0.69789 -4.95081,2.5871 -4.64286,4.28571 0.55525,3.06267 1.25226,5.88909 3.21429,6.60715 0.53268,2.15151 0.73143,1.32893 3.74999,6.24999 l 2.32143,2.5 c 1.78572,0.95704 3.92857,2.62438 5.71429,1.42858 2.93766,3.72188 5.39316,6.72923 7.85714,5.71428 l 10.35714,-14.28571 c -1.06365,-2.40943 -2.31027,-4.70908 -5.71428,-5.71429 -5.32869,-5.41161 -9.12812,-6.13416 -13.58041,-5.69262 -3.60751,-1.85787 -6.51606,-0.9289 -9.27673,-1.09309 z"
       id="path4170"
       inkscape:connector-curvature="0"
       sodipodi:nodetypes="csccccccccc" />
    <path
       style="fill:url(#pattern6058);fill-opacity:1;fill-rule:evenodd;stroke:#00ff00;stroke-width:0.35433072;stroke-linecap:butt;stroke-linejoin:miter;stroke-miterlimit:4;stroke-dasharray:none;stroke-opacity:1"
       d="m 117.9636,169.80787 c -5.93169,0.69789 -4.95081,2.5871 -4.64286,4.28571 0.55525,3.06267 1.25226,5.88909 3.21429,6.60715 0.53268,2.15151 0.73143,1.32893 3.74999,6.24999 l 2.32143,2.5 c 1.78572,0.95704 3.92857,2.62438 5.71429,1.42858 2.93766,3.72188 5.39316,6.72923 7.85714,5.71428 l 10.35714,-14.28571 c -1.06365,-2.40943 -3.33856,-4.60095 -5.84055,-4.70414 -5.32869,-5.41161 -9.00185,-7.14431 -13.45414,-6.70277 -3.60751,-1.85787 -6.51606,-0.9289 -9.27673,-1.09309 z"
       id="path4170-0"
       inkscape:connector-curvature="0"
       sodipodi:nodetypes="csccccccccc" />
    <path
       style="color:#000000;font-style:normal;font-variant:normal;font-weight:normal;font-stretch:normal;font-size:medium;line-height:normal;font-family:sans-serif;text-indent:0;text-align:start;text-decoration:none;text-decoration-line:none;text-decoration-style:solid;text-decoration-color:#000000;letter-spacing:normal;word-spacing:normal;text-transform:none;direction:ltr;block-progression:tb;writing-mode:lr-tb;baseline-shift:baseline;text-anchor:start;white-space:normal;clip-rule:nonzero;display:inline;overflow:visible;visibility:visible;opacity:1;isolation:auto;mix-blend-mode:normal;color-interpolation:sRGB;color-interpolation-filters:linearRGB;solid-color:#000000;solid-opacity:1;fill:#000000;fill-opacity:1;fill-rule:evenodd;stroke:none;stroke-width:1.77165353;stroke-linecap:butt;stroke-linejoin:miter;stroke-miterlimit:4;stroke-dasharray:none;stroke-dashoffset:0;stroke-opacity:1;color-rendering:auto;image-rendering:auto;shape-rendering:auto;text-rendering:auto;enable-background:accumulate"
       d="m 121.72715,169.25136 c -1.40389,0.1291 -2.80733,0.30876 -4.21484,0.31836 -1.90671,0.2956 -4.41584,0.5715 -5.2461,2.61328 -0.4267,1.65395 0.35174,3.31992 0.58985,4.95117 0.42548,1.80891 1.2439,3.92737 3.39257,4.31055 0.16386,2.41329 1.69831,3.9102 2.68946,5.73046 0.77353,1.38497 2.03378,2.39781 3.05468,3.59375 1.73813,0.94606 3.78131,1.60032 5.875,0.96094 l 0.0332,0.13867 c 0.0297,-0.007 0.0551,-0.0227 0.084,-0.0312 0.5014,1.48439 1.46395,2.73572 2.37696,3.55469 1.47767,1.67021 3.70643,3.59087 6.08984,2.62695 0.61288,-0.3483 0.88709,-1.12798 1.36133,-1.65234 l 9.67383,-13.34375 c -1.08303,-2.77367 -2.97687,-6.00952 -6.33145,-6.12822 -1.01335,-1.58551 -2.5566,-3.02923 -4.30723,-4.02803 -3.05647,-1.99559 -6.63655,-3.02792 -10.27929,-2.08398 -1.23316,-1.37965 -3.21631,-1.63814 -4.8418,-1.53125 z m 1.2207,1.72851 c 0.771,0.0142 1.5275,0.12833 2.24414,0.37696 -1.41497,1.21072 -2.35381,3.20101 -3.45703,4.99023 -0.67043,1.08732 -1.3907,2.10122 -2.24219,2.83984 -0.78796,0.68353 -1.68332,1.12341 -2.80664,1.22852 -0.72973,-0.47419 -1.3861,-1.16904 -1.61328,-2.07422 -0.59504,-1.74736 -0.99095,-3.58657 -1.17383,-5.41602 0.65396,-1.40742 3.01296,-1.37481 4.01172,-1.6289 1.06142,0.10818 2.65095,-0.18321 3.91797,-0.27539 0.37413,-0.0327 0.7482,-0.0479 1.11914,-0.041 z m 4.63281,0.67578 c 3.40976,-0.0522 6.80368,1.34842 9.48438,3.46289 0.73132,0.46805 1.35879,1.09355 1.99023,1.69922 -1.59938,0.38599 -2.94969,1.25458 -4.07812,2.37305 -1.3863,1.37407 -2.46552,3.11298 -3.37305,4.82812 -0.90752,1.71515 -1.64464,3.41297 -2.31054,4.69336 -0.33296,0.6402 -0.64979,1.17495 -0.93946,1.54297 -0.12989,0.16504 -0.24954,0.27903 -0.35937,0.3711 -0.88623,0.53114 -1.99791,0.46666 -2.89649,-0.15625 -1.0172,-0.55836 -2.11183,-1.03456 -2.8164,-1.99414 -0.90996,-0.915 -1.73636,-1.89136 -2.35547,-3.03125 -0.77786,-1.40807 -2.09987,-2.5508 -2.55274,-4.10938 1.08283,-0.21693 2.00163,-0.72307 2.77344,-1.39258 0.98074,-0.85074 1.74615,-1.94906 2.4375,-3.07031 1.29607,-2.10198 2.38459,-4.24156 3.75781,-5.12109 0.41205,-0.0503 0.82542,-0.0894 1.23828,-0.0957 z m 12.49415,6.05469 c 0.14347,0.11391 0.28116,0.23888 0.43164,0.33984 2.31064,0.55184 3.96796,2.46842 4.82226,4.60157 0.10876,0.55129 -0.6263,1.01934 -0.875,1.53515 l -8.84375,12.19727 c -1.84732,0.43154 -3.16025,-1.45101 -4.31054,-2.58789 -0.77837,-0.88344 -1.51219,-1.805 -2.24219,-2.72852 0.0441,-0.0517 0.0899,-0.0998 0.13281,-0.15429 0.36325,-0.46151 0.69965,-1.04329 1.04688,-1.71094 0.69444,-1.3353 1.42366,-3.01875 2.30664,-4.6875 0.88297,-1.66875 1.91921,-3.31707 3.18164,-4.56836 1.21399,-1.2033 2.61994,-2.0336 4.34961,-2.23633 z"
       id="path4170-7"
       inkscape:connector-curvature="0"
       sodipodi:nodetypes="cccccccccccccccccccccscccccccccccsssccccccsscccccccccccssc" />
    <path
       style="fill:url(#radialGradient6766);fill-rule:evenodd;stroke:#ff0000;stroke-width:0.35433071;stroke-linecap:butt;stroke-linejoin:bevel;stroke-miterlimit:4;stroke-dasharray:none;stroke-opacity:1;fill-opacity:1.0"
       d="m 147.13879,182.1508 c -4.62562,0.82315 -3.3123,2.63163 -3.61475,3.8871 -1.89488,0.7506 -3.83173,2.50453 -4.30738,5.62051 -4.77522,2.27845 -4.4097,3.32133 -4.7258,5.58803 -0.37127,2.66227 0.97072,5.81493 4.90623,6.84884 1.68471,0.4426 4.27313,0.7011 5.99932,-0.46174 1.96429,0.49549 2.66588,1.64193 4.63017,-0.15691 0.94735,-0.10627 1.4009,-0.40595 2.09055,-1.21751 0.71623,0.92602 1.42338,1.41747 2.5275,2.57371 0.71222,0.74584 4.99018,3.55095 6.02077,2.85313 0.63656,-0.43102 1.48933,-1.78598 0.59795,-2.61199 1.30116,-0.34973 1.89672,-1.10794 2.21308,-2.08659 -0.99806,-1.67686 -3.68901,-0.68458 -4.72824,-0.62155 -1.52611,0.0926 -4.82141,-1.71248 -4.85439,-2.86112 1.0244,-1.52365 0.29841,-2.085 -0.98663,-2.61543 0.11531,-0.65476 0.0466,-1.37267 0,-2.02743 2.23706,-1.25 1.27817,-2.07249 1.77488,-3.81313 0.17945,-2.12985 -0.42944,-3.81034 -0.97546,-5.00444 -1.61685,-3.53594 -3.56626,-4.35608 -6.56783,-3.89348 z"
       id="path4176-6"
       inkscape:connector-curvature="0"
       sodipodi:nodetypes="cccsscccssccsccccscc" />
    <path
       style="fill:url(#pattern6150);fill-opacity:1;fill-rule:evenodd;stroke:#ff0000;stroke-width:0.35433072;stroke-linecap:butt;stroke-linejoin:bevel;stroke-miterlimit:4;stroke-dasharray:none;stroke-opacity:1"
       d="m 147.13879,182.1508 c -4.62562,0.82315 -3.3123,2.63163 -3.61475,3.8871 -1.89488,0.7506 -3.83173,2.50453 -4.30738,5.62051 -4.77522,2.27845 -4.4097,3.32133 -4.7258,5.58803 -0.37127,2.66227 0.97072,5.81493 4.90623,6.84884 1.68471,0.4426 4.27313,0.7011 5.99932,-0.46174 1.96429,0.49549 2.66588,1.64193 4.63017,-0.15691 0.94735,-0.10627 1.4009,-0.40595 2.09055,-1.21751 0.71623,0.92602 1.42338,1.41747 2.5275,2.57371 0.71222,0.74584 4.99018,3.55095 6.02077,2.85313 0.63656,-0.43102 1.48933,-1.78598 0.59795,-2.61199 1.30116,-0.34973 1.89672,-1.10794 2.21308,-2.08659 -0.99806,-1.67686 -3.68901,-0.68458 -4.72824,-0.62155 -1.52611,0.0926 -4.82141,-1.71248 -4.85439,-2.86112 1.0244,-1.52365 0.29841,-2.085 -0.98663,-2.61543 0.11531,-0.65476 0.0466,-1.37267 0,-2.02743 2.23706,-1.25 1.27817,-2.07249 1.77488,-3.81313 0.17945,-2.12985 -0.42944,-3.81034 -0.97546,-5.00444 -1.61685,-3.53594 -3.56626,-4.35608 -6.56783,-3.89348 z"
       id="path4176-6-9"
       inkscape:connector-curvature="0"
       sodipodi:nodetypes="cccsscccssccsccccscc" />
    <path
       style="color:#000000;font-style:normal;font-variant:normal;font-weight:normal;font-stretch:normal;font-size:medium;line-height:normal;font-family:sans-serif;text-indent:0;text-align:start;text-decoration:none;text-decoration-line:none;text-decoration-style:solid;text-decoration-color:#000000;letter-spacing:normal;word-spacing:normal;text-transform:none;direction:ltr;block-progression:tb;writing-mode:lr-tb;baseline-shift:baseline;text-anchor:start;white-space:normal;clip-rule:nonzero;display:inline;overflow:visible;visibility:visible;opacity:1;isolation:auto;mix-blend-mode:normal;color-interpolation:sRGB;color-interpolation-filters:linearRGB;solid-color:#000000;solid-opacity:1;fill:#000000;fill-opacity:1;fill-rule:evenodd;stroke:none;stroke-width:1.77165353;stroke-linecap:butt;stroke-linejoin:bevel;stroke-miterlimit:4;stroke-dasharray:none;stroke-dashoffset:0;stroke-opacity:1;color-rendering:auto;image-rendering:auto;shape-rendering:auto;text-rendering:auto;enable-background:accumulate"
       d="m 149.12417,180.96491 c -2.24898,-0.62846 -3.50515,-0.14128 -3.68115,-0.0501 -1.57466,0.30881 -2.60235,2.72982 -2.62628,4.55212 -1.38184,0.75691 -1.91483,0.45527 -2.89278,1.7624 -1.01499,1.20549 -1.11258,2.04768 -0.95371,3.79804 -1.76231,0.24751 -4.61455,1.68014 -5.18417,3.70504 -0.59776,2.34131 -0.68739,5.02813 0.82077,7.06551 1.92742,2.75535 5.64315,3.67756 8.82879,3.18553 1.37336,-0.6397 2.55807,-0.56266 3.93076,0.0793 1.45404,0.31959 2.46954,-0.97851 3.74522,-1.3219 1.23605,-1.15012 2.01561,1.23975 3.0841,1.82446 1.72826,1.26214 3.59087,2.54482 5.73581,2.9229 1.56673,0.0723 2.43724,-1.86141 1.81573,-3.15987 1.02119,-0.49588 2.31341,-1.29243 2.3608,-2.53926 -0.056,-1.22507 -1.52046,-1.83198 -2.59529,-1.87524 -1.4244,-0.17817 -2.85124,0.72423 -4.22151,0.0662 -0.87173,-0.45113 -3.13827,-1.04216 -2.31854,-2.28679 0.80576,-1.60774 -1.55591,-2.13007 -1.35704,-3.39266 0.92449,-1.01194 1.90396,-2.36556 1.67527,-3.98261 0.48346,-2.80869 -0.58995,-5.68972 -2.17884,-7.97934 -1.20684,-1.22188 -2.57575,-2.22884 -3.98794,-2.37374 z m -0.20898,1.7539 c 2.28437,0.1856 3.59184,1.79381 4.31108,3.69533 0.47808,1.06914 1.0902,3.46753 0.93604,4.04593 -0.12134,1.30891 0.14651,2.73108 -1.16732,3.36875 -0.56963,0.73696 -0.4855,1.94043 -0.4964,2.76461 0.06,0.96668 1.63942,1.30168 1.05724,2.22211 -0.73416,0.98857 0.19999,1.65784 1.04157,2.22861 1.59665,1.16205 3.17879,2.40118 5.19205,1.80806 0.83804,-0.32515 4.09163,-0.22751 2.30289,0.80515 -0.94447,0.23948 -1.64615,1.43862 -1.72943,2.3615 0.0391,0.67179 -0.0282,1.92333 -1.25951,1.24766 -2.07881,-0.82289 -3.82726,-2.37424 -5.34038,-4.01721 -0.66857,-0.51339 -1.16903,-1.38404 -2.14453,-1.14445 -0.92097,-0.0949 -1.15383,0.46341 -2.17561,0.40417 -0.99949,1.21615 -2.39488,0.71258 -3.61427,0.15244 -1.04644,-0.37649 -1.90577,0.65847 -2.95903,0.62277 -2.685,0.2515 -5.92811,-0.51041 -7.23501,-3.10794 -0.8041,-1.63131 -0.50542,-3.55767 -0.0269,-5.23076 0.84556,-1.45333 3.3027,-2.46398 4.6004,-3.34884 0.40795,-0.82235 -0.18831,-1.44097 0.43097,-2.2859 0.63918,-1.26799 1.82271,-2.16733 3.08215,-2.73641 1.04639,-0.69558 0.0771,-2.17119 0.95113,-2.94041 1.23493,-0.75416 2.81375,-0.99295 4.24287,-0.91517 z"
       id="path4176"
       inkscape:connector-curvature="0"
       sodipodi:nodetypes="ccccccccccccccccccccccccccccccccccccccccccccc" />
    <path
       style="fill:#bde8ff;fill-opacity:0.57603687;fill-rule:evenodd;stroke:#ff00ff;stroke-width:0.35433072;stroke-linecap:butt;stroke-linejoin:miter;stroke-miterlimit:4;stroke-dasharray:none;stroke-opacity:1"
       d="m 115.20024,171.02927 c -3.4296,-1.63507 -7.35986,-5.27277 -11.25,-8.75 -1.71305,-3.18336 -4.81476,-5.44096 -3.92858,-10.35715 -2.495571,-4.22619 -3.628257,-8.45238 -2.321425,-12.67857 0.01574,-3.30606 -1.929253,-5.77182 1.071428,-10.35714 7.587257,0.22577 11.346137,2.84749 13.392857,6.42857 2.55952,0.0595 6.78571,4.7619 7.49999,8.92857 2.37159,2.26815 4.86863,4.45266 4.46429,8.57143 2.14286,1.69804 4.28571,2.47205 6.42857,9.64286 1.20611,0.63912 2.50052,1.18995 2.32143,3.21428 2.81792,2.6876 1.75181,3.64895 0.35714,4.46429 l 1.42857,1.60714 -1.25,1.07143 c -3.1358,-1.25132 -5.28744,-1.0264 -7.5,-0.89286 -3.26808,-2.72438 -6.9792,-1.90449 -10.71427,-0.89285 z"
       id="path4174"
       inkscape:connector-curvature="0"
       sodipodi:nodetypes="ccccccccccccccc" />
    <path
       style="color:#000000;font-style:normal;font-variant:normal;font-weight:normal;font-stretch:normal;font-size:medium;line-height:normal;font-family:sans-serif;text-indent:0;text-align:start;text-decoration:none;text-decoration-line:none;text-decoration-style:solid;text-decoration-color:#000000;letter-spacing:normal;word-spacing:normal;text-transform:none;direction:ltr;block-progression:tb;writing-mode:lr-tb;baseline-shift:baseline;text-anchor:start;white-space:normal;clip-rule:nonzero;display:inline;overflow:visible;visibility:visible;opacity:1;isolation:auto;mix-blend-mode:normal;color-interpolation:sRGB;color-interpolation-filters:linearRGB;solid-color:#000000;solid-opacity:1;fill:#000000;fill-opacity:1;fill-rule:evenodd;stroke:none;stroke-width:1.77165353;stroke-linecap:butt;stroke-linejoin:miter;stroke-miterlimit:4;stroke-dasharray:none;stroke-dashoffset:0;stroke-opacity:1;color-rendering:auto;image-rendering:auto;shape-rendering:auto;text-rendering:auto;enable-background:accumulate"
       d="m 98.02539,127.62695 c -1.85758,2.48467 -2.77616,5.45782 -2.00781,8.47461 0.23342,0.69687 0.63833,1.74393 1.04492,2.38867 -0.66663,1.26954 -1.15757,2.93369 -1.0332,4.46094 0.10277,3.14449 1.28367,6.33149 3.24804,8.66797 -1.52236,3.03683 0.48264,6.38932 2.39844,8.81641 0.79669,1.30007 1.5799,2.56845 2.86328,3.45117 3.21738,2.83381 6.39088,5.85723 10.29883,7.72266 3.19968,-0.90245 7.08794,-1.88109 9.95508,0.4121 1.63659,1.13899 4.08374,-0.29001 5.96484,0.60743 1.06556,-0.068 2.28981,1.43574 3.10157,0.37304 l 2.59264,0.6543 c 0.13402,-1.36542 -0.38033,-4.58742 -1.67635,-4.5798 0.76664,-1.37845 -1.25598,-3.25252 -1.47684,-5.17606 -0.43153,-1.41218 -1.98424,-2.37216 -2.83985,-2.53125 -0.0502,-0.97232 -0.22684,-1.48593 -0.24609,-2.16797 -0.92209,-2.98024 -4.77376,-7.6447 -5.74219,-6.96679 1.00854,-2.68945 -3.15394,-8.95279 -4.8457,-8.9375 0.80954,-0.44974 -0.46718,-4.27672 -2.62305,-5.9961 -0.98327,-1.73561 -4.01134,-3.59773 -4.95898,-3.28906 -0.61012,-0.63135 -0.5656,-0.98022 -0.78711,-1.28711 -2.50482,-2.79665 -8.19791,-5.04304 -13.23047,-5.09766 z m 2.12695,1.56446 c 1.46408,0.0324 3.38548,1.02566 4.62891,1.25 2.5197,0.9919 4.9216,2.59098 6.33789,4.95312 0.087,0.11551 0.1929,0.20996 0.31055,0.29102 0.11768,0.77751 1.39838,1.79664 1.55078,2.64843 2.64005,4.79705 4.28375,10.10328 6.82422,14.94141 -1.41502,-1.76561 -2.78842,-3.56681 -4.13281,-5.38281 -1.7652,-3.02031 -3.12313,-6.20564 -5.11128,-9.10583 -1.20999,-1.85392 -2.46035,-4.26541 -3.7252,-5.75292 -0.34917,0.30679 0.76091,1.60234 0.97036,2.45838 2.22297,3.78022 4.10765,6.10424 5.78208,10.18262 1.2661,3.01675 3.39994,5.46339 5.27349,8.09275 1.17707,1.63167 2.73644,2.91871 4.23828,4.21484 0.68954,0.84531 0.45882,1.76507 -0.22852,2.2207 -0.36297,-0.69165 -0.85095,-1.34803 -1.24023,-1.91406 -2.76518,-4.00033 -5.8697,-7.77648 -9.40039,-11.125 -3.22804,-3.2799 -6.67996,-6.64115 -11.05664,-8.28515 -0.013,-0.70757 -1.35583,-1.40727 -0.98011,-2.30347 0.58508,-1.59817 0.40481,-3.63455 0.38065,-5.3313 -1.07779,-1.6e-4 0.02,2.68445 -0.57701,3.69221 -0.69072,1.3537 -0.76381,2.4478 -0.0618,3.71599 -0.55004,-0.0461 -1.10035,-0.0926 -1.65039,-0.13867 -0.1392,-2.66006 -1.20255,-5.3847 -0.0293,-7.96875 0.30451,-1.04666 1.01804,-1.37297 1.89647,-1.35351 z m 12.86914,7.08203 c 0.50459,0.1646 0.98455,0.38877 1.29688,0.86914 2.1283,1.84092 3.76332,4.38302 4.24609,7.17969 0.048,0.044 0.0982,0.0942 0.14649,0.13867 -0.10204,0.19844 -0.0607,0.47787 0.14453,0.84961 0.50917,1.52511 0.65112,3.20919 1.62109,4.53711 2.33318,4.02696 5.01895,7.97101 6.16797,12.5332 0.0301,0.14657 0.0444,0.30159 0.0625,0.45508 -0.51594,-0.54954 -1.05412,-1.07346 -1.74805,-1.42383 -2.06015,-0.48925 0.38588,-1.8205 -0.67773,-3.24023 -0.34523,-0.82485 -0.93446,-1.37488 -1.57031,-1.89063 -0.76765,-0.85428 -1.44661,-1.59181 -1.64121,-2.38867 -3.09409,-5.71168 -4.66099,-12.06509 -8.04825,-17.61914 z m -14.53125,3.32422 c 1.27206,0.0932 2.57575,0.10712 3.67969,0.85156 0.95468,0.47539 1.84656,1.03786 2.71094,1.63672 -1.23564,1.00707 -1.96475,2.75733 -1.42324,4.41723 0.26818,1.52229 0.64561,2.84326 0.65566,4.33277 -1.01344,-0.0794 -2.03226,-0.11018 -3.03125,-0.125 -0.25622,-0.0148 -0.51291,-0.0338 -0.76758,-0.0586 -0.52277,-1.22531 -1.61413,-2.36039 -1.77734,-3.7207 -0.84817,-2.33596 -0.99365,-4.9037 -0.41992,-7.3125 0.10969,0.006 0.22903,0.002 0.37304,-0.0215 z m 7.27539,3.11132 c 3.17375,2.39413 5.85352,5.45052 8.69922,8.20899 2.79647,3.25155 5.63165,6.55993 7.71485,10.31836 0.12787,0.34221 0.0883,0.65028 0.0469,0.9375 -3.68934,-3.33019 -7.37757,-6.67069 -11.5957,-9.32227 -1.64036,-1.15925 -3.53016,-1.67106 -5.47656,-1.91211 0.0503,-0.47388 -0.0216,-1.06957 -0.084,-1.46289 -0.26689,-1.66473 -1.34909,-3.26955 -1.09433,-4.97819 0.21549,-0.73339 1.46309,-1.24898 1.78964,-1.78939 z M 120,145.69531 c 1.7282,1.73286 3.25941,3.76744 2.99805,6.33008 -0.01,0.035 -0.0124,0.0659 -0.0195,0.0996 -0.20098,-0.34394 -0.65724,-0.62891 -0.85411,-0.97203 -0.73526,-1.34577 -1.79671,-2.59513 -2.0511,-4.14679 -0.11909,-0.42623 0.0459,-0.88448 -0.0733,-1.31087 z m -19.40625,6.03907 c 0.56556,0.17067 1.51818,0.009 2.11914,0.10937 2.91573,-0.0536 5.86701,0.66763 8.21289,2.45898 5.66227,3.78033 10.40554,8.71966 15.60742,13.07032 0.99895,0.48079 1.04279,1.8679 1.41602,2.76757 0.0977,0.23549 -0.13142,0.79032 -0.29487,0.51807 -1.84641,-3.07536 -4.33463,-5.19409 -7.31175,-7.19722 -0.1541,-0.10482 -0.70415,-1.23097 -1.18157,-1.75704 -0.29344,-0.32334 -2.29565,-2.28558 -2.74108,-2.00288 0.26161,0.14895 2.24832,1.82683 1.99967,2.22518 0.11501,0.52564 -0.29805,0.61543 -0.66991,0.54977 -0.92628,-0.16356 -1.96345,-0.26226 -3.00359,-0.36908 -1.95899,0.0853 -3.59812,0.65774 -5.66015,-0.0879 -0.93617,-0.30579 -1.79186,-0.80032 -2.67188,-1.23242 -1.17951,0.0947 1.81418,1.59579 2.77539,2.35742 1.70695,0.53277 3.49208,0.26218 5.21289,0.0312 1.6698,0.16044 3.78175,0.21347 4.97071,0.90234 2.71763,1.91201 5.27422,4.08375 7.54297,6.51368 -1.19596,-0.10016 -2.34443,-0.35064 -3.38282,-1.19922 -1.08343,-0.42479 -1.96147,-0.62173 -3.0929,-0.60492 -0.0746,0.001 -1.2654,-0.73361 -1.69724,-1.04411 -0.74434,-0.48807 -1.97979,-1.1326 -2.56792,-0.70453 0.34941,0.40579 1.12282,0.43271 1.80698,0.90674 0.39395,0.18357 1.07815,0.99334 1.00338,0.99994 -0.58852,0.0513 -0.86435,0.0739 -1.44799,0.18727 -0.0784,0.0152 -2.74596,-1.8441 -3.11432,-2.18524 -1.43981,-0.87686 -2.90184,-1.44072 -2.95751,-1.13374 0.32379,0.75341 3.63876,2.42229 3.02528,2.10497 -0.47959,-0.31732 1.58565,1.10673 1.97687,1.52662 -0.5126,0.1196 -0.88565,0.14019 -1.38385,0.27486 -4.03624,-2.15632 -7.32209,-5.41848 -10.74609,-8.39843 -1.57097,-2.76039 -4.30423,-5.32421 -3.83203,-8.79102 0.0793,-0.27511 0.10034,-0.53877 0.0879,-0.79687 z m 23.35642,1.42492 c 0.57557,0.37544 1.17674,1.17401 1.51467,1.67078 2.24963,2.04384 3.20652,5.05503 4.07227,7.87695 1.39764,0.46497 2.45839,1.57831 2.23242,3.03516 1.07099,0.83418 2.95808,3.20505 0.92505,3.86836 -0.10156,0.23296 -0.71962,-0.10033 -0.57021,-0.45195 -0.55612,-1.72285 -1.31726,-2.70342 -3.05633,-3.40938 -0.42101,-0.267 -0.83134,-1.30982 -1.17746,-1.65961 0.006,-0.002 0.01,-0.002 0.0156,-0.004 -0.34984,-3.81016 -2.40438,-7.15084 -4.30332,-10.42156 -0.31015,-0.67935 -0.18431,-0.83552 0.34731,-0.50475 z m -18.94184,4.08347 c 0.01,0.68982 2.4436,0.62389 3.43334,1.10235 2.27658,0.5614 6.26213,2.32286 8.36184,3.3585 -0.0726,-0.75008 -3.38615,-2.1952 -4.2957,-2.81885 -2.17664,-0.88957 -5.37288,-1.87827 -7.49948,-1.642 z m 18.32565,4.29434 c 1.03015,0.66121 2.11289,1.3219 2.80079,2.07812 0.9719,1.52781 2.04149,2.73196 3.41964,3.78851 1.03849,1.22393 0.72157,0.68857 1.35984,2.12969 -0.46544,-0.10636 -0.34002,0.71111 -0.63523,0.63537 -0.59704,-0.13284 -0.81158,0.1509 -1.40939,0.11693 0.5117,-0.98082 -0.78584,-2.8293 -1.56494,-3.64706 -1.42193,-1.19083 -2.80919,-2.42547 -4.19141,-3.66992 0.24968,-0.46857 0.29234,-0.95016 0.2207,-1.43164 z"
       id="path4174-0"
       inkscape:connector-curvature="0"
       sodipodi:nodetypes="ccccccccccccccccccccccsccccccccccccccccccccccscccccccccccccccccccccccccccccccccccccccccccccssscccccccccccccccccccccccccccccccccccccccccccccccccccc" />
    <path
       style="fill:#000000;fill-opacity:1;fill-rule:evenodd;stroke:#000000;stroke-width:0.99999994px;stroke-linecap:butt;stroke-linejoin:miter;stroke-opacity:1"
       d="m 140.64092,192.5332 c 3.7099,-1.1533 5.7742,2.19077 8.06986,5.61386 0.99885,1.18035 1.04558,2.3607 -0.83195,3.54105 -1.26393,0.86975 -3.8205,1.47765 -6.82194,1.03641 -1.33679,-0.19653 -5.13897,-0.22619 -5.07487,-5.61387 0.0373,-3.1299 2.67407,-3.96043 4.6589,-4.57745 z"
       id="path4397"
       inkscape:connector-curvature="0"
       sodipodi:nodetypes="sccsss" />
    <path
       style="fill:#ffffff;fill-opacity:1;fill-rule:evenodd;stroke:#85ff00;stroke-width:0.29055119;stroke-linecap:butt;stroke-linejoin:miter;stroke-miterlimit:4;stroke-dasharray:none;stroke-opacity:1"
       d="m 147.63655,183.22548 c -1.48748,1.06148 0.50106,2.77083 1.69642,4.73215 1.10242,1.80883 1.27655,1.27547 3.57144,5.89285 3.04221,0.3934 1.25688,-7.79073 0.62499,-8.48214 -1.91258,-2.09273 -3.91016,-3.55773 -5.89285,-2.14286 z"
       id="path4399-6"
       inkscape:connector-curvature="0"
       sodipodi:nodetypes="sscss" />
    <path
       style="fill:url(#radialGradient6796);fill-opacity:1;fill-rule:evenodd;stroke:#000000;stroke-width:1px;stroke-linecap:butt;stroke-linejoin:miter;stroke-opacity:1"
       d="m 147.41072,183.16577 c -1.48748,1.06148 0.50106,2.77083 1.69642,4.73215 1.10242,1.80883 1.27655,1.27547 3.57144,5.89285 3.04221,0.3934 1.25688,-7.79073 0.62499,-8.48214 -1.91258,-2.09273 -3.91016,-3.55773 -5.89285,-2.14286 z"
       id="path4399"
       inkscape:connector-curvature="0"
       sodipodi:nodetypes="sscss" />
    <path
       style="color:#000000;display:inline;overflow:visible;visibility:visible;opacity:1;fill:url(#radialGradient6784);fill-opacity:1;fill-rule:evenodd;stroke:#000000;stroke-width:1.06299222;stroke-linecap:round;stroke-linejoin:round;stroke-miterlimit:4;stroke-dasharray:none;stroke-dashoffset:0;stroke-opacity:1;marker:none;enable-background:accumulate"
       d="m 147.70657,197.99485 a 6.3028483,5.7932843 0 0 1 -6.30285,5.79331 6.3028483,5.7932843 0 0 1 -6.30283,-5.79331 6.3028483,5.7932843 0 0 1 6.30283,-5.79326 6.3028483,5.7932843 0 0 1 6.30285,5.79326 z"
       id="path4401"
       inkscape:connector-curvature="0" />
  </g>
</svg>
