<?xml version="1.0" encoding="UTF-8"?>
<!DOCTYPE svg PUBLIC "-//W3C//DTD SVG 1.1//EN" "http://www.w3.org/Graphics/SVG/1.1/DTD/svg11.dtd">
<svg version="1.1" id="svg3021" xmlns:dc="http://purl.org/dc/elements/1.1/" xmlns:cc="http://creativecommons.org/ns#" xmlns:rdf="http://www.w3.org/1999/02/22-rdf-syntax-ns#" xmlns="http://www.w3.org/2000/svg" xmlns:xlink="http://www.w3.org/1999/xlink" x="0px" y="0px" viewBox="-190.4934 -260.077 1160.5548 1549.0845" enable-background="new -190.4934 -260.077 1160.5548 1549.0845" xml:space="preserve">
<g id="layer1" transform="translate(27.918 -24.133)">
	<g id="g3845">
		<path id="path3839" stroke="#000000" stroke-width="3.0318" stroke-linecap="round" d="M520.5038,287.8109    c0,150.9926-122.401,273.3936-273.3935,273.3936S-26.2832,438.8035-26.2832,287.8109S96.1178,14.4174,247.1103,14.4174    S520.5038,136.8184,520.5038,287.8109z"/>
		<path id="path3029" fill="#1A1A1A" stroke="#000000" stroke-width="2.6695" stroke-linecap="round" d="M924.9828,750.6367    c0,298.2686-241.7999,540.0685-540.0685,540.0685s-540.0685-241.7999-540.0685-540.0685S86.6458,210.5683,384.9144,210.5683    S924.9828,452.3681,924.9828,750.6367z"/>
		<path id="path3799" fill="#D40000" stroke="#000000" stroke-width="3.0318" stroke-linecap="round" d="M473.0726,1283.5541    c-294.2817,48.6604-572.313-150.4834-620.9734-444.7652C-196.5718,544.5071,2.5371,266.491,296.8189,217.8154    c294.2818-48.6604,572.2979,150.4379,620.9734,444.7197c43.1426,260.8712-108.9174,514.6027-359.2987,599.493L238.0777,233.5656    L473.0726,1283.5541z"/>
		<path id="path3825" stroke="#000000" stroke-width="3.0318" stroke-linecap="round" d="M230.6195,579.4708    c0,69.3358-56.2066,125.5424-125.5423,125.5424S-20.4651,648.8066-20.4651,579.4708s56.2066-125.5423,125.5423-125.5423    S230.6195,510.135,230.6195,579.4708z"/>
		<path id="path3827" stroke="#000000" stroke-width="3.0318" stroke-linecap="round" d="M288.9514,1003.0215    c0,69.3358-56.2066,125.5423-125.5423,125.5423s-125.5423-56.2065-125.5423-125.5423S94.0733,877.4792,163.409,877.4792    S288.9514,933.6858,288.9514,1003.0215z"/>
		<path id="path3829" stroke="#000000" stroke-width="3.0318" stroke-linecap="round" d="M659.2404,480.5589    c0,69.3358-56.2065,125.5424-125.5423,125.5424s-125.5424-56.2066-125.5424-125.5424s56.2066-125.5424,125.5424-125.5424    S659.2404,411.2231,659.2404,480.5589z"/>
		<path id="path3831" stroke="#000000" stroke-width="3.0318" stroke-linecap="round" d="M824.0945,893.9677    c0,69.3358-56.2066,125.5424-125.5424,125.5424s-125.5423-56.2065-125.5423-125.5424s56.2065-125.5423,125.5423-125.5423    S824.0945,824.6319,824.0945,893.9677z"/>
		<path id="path3841" fill="none" stroke="#000000" stroke-width="12.1272" d="M-109.2302,58.276    c0.3447,0.2828-0.6054,0.8414-0.7229,0.8809c-2.7407,0.9217-4.3215-2.9678-4.295-4.9987    c0.1048-8.0017,9.9122-11.0683,16.4111-9.766c16.4672,3.2998,21.6728,23.2024,17.1888,37.3397    c-9.0793,28.6263-44.1961,36.6909-69.6496,26.5874C-195.232,90.4832-206.9166,34.269-188.3165-6.6224    C-158.3865-72.42-74.5284-88.531-13.6696-58.1706c52.72,26.3024,85.7742,81.2689,90.6827,139.2248"/>
		<path id="path3843" fill="none" stroke="#000000" stroke-width="12.1272" d="M405.2394-99.5512    c-0.0573,0.4421,1.0175,0.1981,1.1301,0.1464c2.628-1.2063,1.1146-5.1226-0.2961-6.5838    c-5.5584-5.7569-14.8035-1.2715-18.6453,4.1297c-9.7345,13.6857,0.1093,31.7498,13.0613,38.9757    c26.2261,14.6318,57.3314-3.5529,68.9504-28.3513c20.5116-43.7777-9.4904-92.7311-51.0548-109.7744    c-66.8812-27.4234-139.0039,18.2937-162.5347,82.1048C235.4678-63.625,249.0488-0.9396,285.1801,44.6401"/>
	</g>
</g>
</svg>