<?xml version="1.0" encoding="UTF-8" standalone="no"?>
<!-- Created with Inkscape (http://www.inkscape.org/) -->

<svg
   xmlns:dc="http://purl.org/dc/elements/1.1/"
   xmlns:cc="http://creativecommons.org/ns#"
   xmlns:rdf="http://www.w3.org/1999/02/22-rdf-syntax-ns#"
   xmlns:svg="http://www.w3.org/2000/svg"
   xmlns="http://www.w3.org/2000/svg"
   xmlns:xlink="http://www.w3.org/1999/xlink"
   xmlns:sodipodi="http://sodipodi.sourceforge.net/DTD/sodipodi-0.dtd"
   xmlns:inkscape="http://www.inkscape.org/namespaces/inkscape"
   width="34.273788mm"
   height="34.94331mm"
   viewBox="0 0 121.44255 123.81487"
   id="svg2"
   version="1.1"
   inkscape:version="0.91 r13725"
   sodipodi:docname="Maus-coloured.svg">
  <title
     id="title4136">mouse - coloured</title>
  <defs
     id="defs4">
    <linearGradient
       inkscape:collect="always"
       id="linearGradient6414">
      <stop
         style="stop-color:#cfcfcf;stop-opacity:1"
         offset="0"
         id="stop6416" />
      <stop
         id="stop6422"
         offset="0.4387258"
         style="stop-color:#1e1e1e;stop-opacity:1" />
      <stop
         style="stop-color:#000000;stop-opacity:1"
         offset="1"
         id="stop6418" />
    </linearGradient>
    <linearGradient
       inkscape:collect="always"
       id="linearGradient6402">
      <stop
         style="stop-color:#9e6f64;stop-opacity:1"
         offset="0"
         id="stop6404" />
      <stop
         id="stop6410"
         offset="0.31135753"
         style="stop-color:#b6897f;stop-opacity:1" />
      <stop
         style="stop-color:#e8bab0;stop-opacity:1"
         offset="1"
         id="stop6406" />
    </linearGradient>
    <linearGradient
       inkscape:collect="always"
       id="linearGradient6292">
      <stop
         style="stop-color:#edd7d3;stop-opacity:1"
         offset="0"
         id="stop6294" />
      <stop
         id="stop6302"
         offset="0.29890308"
         style="stop-color:#e8d5d1;stop-opacity:1" />
      <stop
         id="stop6300"
         offset="0.62359995"
         style="stop-color:#f1d3cd;stop-opacity:1" />
      <stop
         style="stop-color:#dfafa4;stop-opacity:1"
         offset="1"
         id="stop6296" />
    </linearGradient>
    <linearGradient
       inkscape:collect="always"
       id="linearGradient6268">
      <stop
         style="stop-color:#938583;stop-opacity:1"
         offset="0"
         id="stop6270" />
      <stop
         id="stop6276"
         offset="0.20947847"
         style="stop-color:#9d9795;stop-opacity:1" />
      <stop
         style="stop-color:#a49e9b;stop-opacity:1"
         offset="0.5409885"
         id="stop6278" />
      <stop
         style="stop-color:#635955;stop-opacity:1"
         offset="1"
         id="stop6272" />
    </linearGradient>
    <pattern
       inkscape:collect="always"
       xlink:href="#Polkadots-large"
       id="pattern6094"
       patternTransform="matrix(1.1258109,0,0,0.8783236,-24.227878,947.38779)" />
    <pattern
       inkscape:collect="always"
       xlink:href="#Polkadots-large"
       id="pattern5799"
       patternTransform="matrix(1.3154561,0,0,0.99510812,-8.8915383,937.00971)" />
    <pattern
       inkscape:collect="always"
       xlink:href="#Polkadots-large"
       id="pattern5692"
       patternTransform="matrix(1.8679203,0,0,1.6297699,-10.784292,922.42276)" />
    <pattern
       inkscape:stockid="Polka dots, large"
       id="Polkadots-large"
       patternTransform="translate(0,0) scale(10,10)"
       height="10"
       width="10"
       patternUnits="userSpaceOnUse"
       inkscape:collect="always">
      <circle
         id="circle5382"
         r="0.45"
         cy="0.810"
         cx="2.567"
         style="fill:black;stroke:none" />
      <circle
         id="circle5384"
         r="0.45"
         cy="2.33"
         cx="3.048"
         style="fill:black;stroke:none" />
      <circle
         id="circle5386"
         r="0.45"
         cy="2.415"
         cx="4.418"
         style="fill:black;stroke:none" />
      <circle
         id="circle5388"
         r="0.45"
         cy="3.029"
         cx="1.844"
         style="fill:black;stroke:none" />
      <circle
         id="circle5390"
         r="0.45"
         cy="1.363"
         cx="6.08"
         style="fill:black;stroke:none" />
      <circle
         id="circle5392"
         r="0.45"
         cy="4.413"
         cx="5.819"
         style="fill:black;stroke:none" />
      <circle
         id="circle5394"
         r="0.45"
         cy="4.048"
         cx="4.305"
         style="fill:black;stroke:none" />
      <circle
         id="circle5396"
         r="0.45"
         cy="3.045"
         cx="5.541"
         style="fill:black;stroke:none" />
      <circle
         id="circle5398"
         r="0.45"
         cy="5.527"
         cx="4.785"
         style="fill:black;stroke:none" />
      <circle
         id="circle5400"
         r="0.45"
         cy="5.184"
         cx="2.667"
         style="fill:black;stroke:none" />
      <circle
         id="circle5402"
         r="0.45"
         cy="1.448"
         cx="7.965"
         style="fill:black;stroke:none" />
      <circle
         id="circle5404"
         r="0.45"
         cy="5.049"
         cx="7.047"
         style="fill:black;stroke:none" />
      <circle
         id="circle5406"
         r="0.45"
         cy="0.895"
         cx="4.340"
         style="fill:black;stroke:none" />
      <circle
         id="circle5408"
         r="0.45"
         cy="0.340"
         cx="7.125"
         style="fill:black;stroke:none" />
      <circle
         id="circle5410"
         r="0.45"
         cy="1.049"
         cx="9.553"
         style="fill:black;stroke:none" />
      <circle
         id="circle5412"
         r="0.45"
         cy="2.689"
         cx="7.006"
         style="fill:black;stroke:none" />
      <circle
         id="circle5414"
         r="0.45"
         cy="2.689"
         cx="8.909"
         style="fill:black;stroke:none" />
      <circle
         id="circle5416"
         r="0.45"
         cy="4.407"
         cx="9.315"
         style="fill:black;stroke:none" />
      <circle
         id="circle5418"
         r="0.45"
         cy="3.870"
         cx="7.820"
         style="fill:black;stroke:none" />
      <circle
         id="circle5420"
         r="0.45"
         cy="5.948"
         cx="8.270"
         style="fill:black;stroke:none" />
      <circle
         id="circle5422"
         r="0.45"
         cy="7.428"
         cx="7.973"
         style="fill:black;stroke:none" />
      <circle
         id="circle5424"
         r="0.45"
         cy="8.072"
         cx="9.342"
         style="fill:black;stroke:none" />
      <circle
         id="circle5426"
         r="0.45"
         cy="9.315"
         cx="8.206"
         style="fill:black;stroke:none" />
      <circle
         id="circle5428"
         r="0.45"
         cy="9.475"
         cx="9.682"
         style="fill:black;stroke:none" />
      <circle
         id="circle5430"
         r="0.45"
         cy="6.186"
         cx="9.688"
         style="fill:black;stroke:none" />
      <circle
         id="circle5432"
         r="0.45"
         cy="6.296"
         cx="3.379"
         style="fill:black;stroke:none" />
      <circle
         id="circle5434"
         r="0.45"
         cy="8.204"
         cx="2.871"
         style="fill:black;stroke:none" />
      <circle
         id="circle5436"
         r="0.45"
         cy="8.719"
         cx="4.59"
         style="fill:black;stroke:none" />
      <circle
         id="circle5438"
         r="0.45"
         cy="9.671"
         cx="3.181"
         style="fill:black;stroke:none" />
      <circle
         id="circle5440"
         r="0.45"
         cy="7.315"
         cx="5.734"
         style="fill:black;stroke:none" />
      <circle
         id="circle5442"
         r="0.45"
         cy="6.513"
         cx="6.707"
         style="fill:black;stroke:none" />
      <circle
         id="circle5444"
         r="0.45"
         cy="9.670"
         cx="5.730"
         style="fill:black;stroke:none" />
      <circle
         id="circle5446"
         r="0.45"
         cy="8.373"
         cx="6.535"
         style="fill:black;stroke:none" />
      <circle
         id="circle5448"
         r="0.45"
         cy="7.154"
         cx="4.37"
         style="fill:black;stroke:none" />
      <circle
         id="circle5450"
         r="0.45"
         cy="7.25"
         cx="0.622"
         style="fill:black;stroke:none" />
      <circle
         id="circle5452"
         r="0.45"
         cy="5.679"
         cx="0.831"
         style="fill:black;stroke:none" />
      <circle
         id="circle5454"
         r="0.45"
         cy="8.519"
         cx="1.257"
         style="fill:black;stroke:none" />
      <circle
         id="circle5456"
         r="0.45"
         cy="6.877"
         cx="1.989"
         style="fill:black;stroke:none" />
      <circle
         id="circle5458"
         r="0.45"
         cy="3.181"
         cx="0.374"
         style="fill:black;stroke:none" />
      <circle
         id="circle5460"
         r="0.45"
         cy="1.664"
         cx="1.166"
         style="fill:black;stroke:none" />
      <circle
         id="circle5462"
         r="0.45"
         cy="0.093"
         cx="1.151"
         style="fill:black;stroke:none" />
      <circle
         id="circle5464"
         r="0.45"
         cy="10.093"
         cx="1.151"
         style="fill:black;stroke:none" />
      <circle
         id="circle5466"
         r="0.45"
         cy="4.451"
         cx="1.302"
         style="fill:black;stroke:none" />
      <circle
         id="circle5468"
         r="0.45"
         cy="3.763"
         cx="3.047"
         style="fill:black;stroke:none" />
    </pattern>
    <radialGradient
       inkscape:collect="always"
       xlink:href="#linearGradient6268"
       id="radialGradient6274"
       cx="56.929199"
       cy="998.00385"
       fx="56.929199"
       fy="998.00385"
       r="46.254577"
       gradientTransform="matrix(1.2517578,1.4677761,-0.57996106,0.49460594,565.41021,426.43366)"
       gradientUnits="userSpaceOnUse" />
    <radialGradient
       inkscape:collect="always"
       xlink:href="#linearGradient6292"
       id="radialGradient6286"
       cx="53.395554"
       cy="1003.0815"
       fx="53.395554"
       fy="1003.0815"
       r="53.259206"
       gradientTransform="matrix(-0.07745159,0.56328328,-1.0066987,-0.13844276,1068.3313,1111.8723)"
       gradientUnits="userSpaceOnUse" />
    <radialGradient
       inkscape:collect="always"
       xlink:href="#linearGradient6402"
       id="radialGradient6408"
       cx="88.435875"
       cy="1025.2306"
       fx="88.435875"
       fy="1025.2306"
       r="8.6427515"
       gradientTransform="matrix(0.49161537,0.50133029,-1.220983,1.1973224,1294.5166,-249.11269)"
       gradientUnits="userSpaceOnUse" />
    <radialGradient
       inkscape:collect="always"
       xlink:href="#linearGradient6414"
       id="radialGradient6420"
       cx="70.031227"
       cy="1059.7847"
       fx="70.031227"
       fy="1059.7847"
       r="4.5327678"
       gradientTransform="matrix(1.2603061,-0.48363471,0.34442946,0.89755042,-384.62562,114.93916)"
       gradientUnits="userSpaceOnUse" />
    <radialGradient
       inkscape:collect="always"
       xlink:href="#linearGradient6414"
       id="radialGradient6438"
       gradientUnits="userSpaceOnUse"
       gradientTransform="matrix(1.8309656,-0.72365809,0.51161396,1.2944615,-554.59199,-252.52018)"
       cx="32.531639"
       cy="1036.1639"
       fx="32.531639"
       fy="1036.1639"
       r="2.0728018" />
  </defs>
  <sodipodi:namedview
     id="base"
     pagecolor="#ffffff"
     bordercolor="#666666"
     borderopacity="1.0"
     inkscape:pageopacity="0.0"
     inkscape:pageshadow="2"
     inkscape:zoom="5.6568542"
     inkscape:cx="54.845434"
     inkscape:cy="42.336709"
     inkscape:document-units="mm"
     inkscape:current-layer="layer1"
     showgrid="false"
     inkscape:window-width="2560"
     inkscape:window-height="1420"
     inkscape:window-x="-2"
     inkscape:window-y="-3"
     inkscape:window-maximized="1"
     inkscape:snap-global="false"
     showguides="false"
     fit-margin-top="2"
     fit-margin-right="2"
     fit-margin-bottom="2"
     fit-margin-left="2" />
  <metadata
     id="metadata7">
    <rdf:RDF>
      <cc:Work
         rdf:about="">
        <dc:format>image/svg+xml</dc:format>
        <dc:type
           rdf:resource="http://purl.org/dc/dcmitype/StillImage" />
        <dc:title>mouse - coloured</dc:title>
        <cc:license
           rdf:resource="http://creativecommons.org/publicdomain/zero/1.0/" />
        <dc:date>2015-03-23</dc:date>
        <dc:creator>
          <cc:Agent>
            <dc:title>Frank Tremmel</dc:title>
          </cc:Agent>
        </dc:creator>
        <dc:subject>
          <rdf:Bag>
            <rdf:li>mouse</rdf:li>
            <rdf:li>animal</rdf:li>
            <rdf:li>maus</rdf:li>
            <rdf:li>tier</rdf:li>
            <rdf:li>line art</rdf:li>
            <rdf:li>outline</rdf:li>
          </rdf:Bag>
        </dc:subject>
        <dc:description>coloured line art mouse</dc:description>
      </cc:Work>
      <cc:License
         rdf:about="http://creativecommons.org/publicdomain/zero/1.0/">
        <cc:permits
           rdf:resource="http://creativecommons.org/ns#Reproduction" />
        <cc:permits
           rdf:resource="http://creativecommons.org/ns#Distribution" />
        <cc:permits
           rdf:resource="http://creativecommons.org/ns#DerivativeWorks" />
      </cc:License>
    </rdf:RDF>
  </metadata>
  <g
     inkscape:label="Ebene 1"
     inkscape:groupmode="layer"
     id="layer1"
     transform="translate(-0.2698779,-935.01485)"
     style="display:inline">
    <path
       style="fill:url(#radialGradient6286);fill-opacity:1;fill-rule:evenodd;stroke:#00ff0a;stroke-width:0.36903122;stroke-linecap:butt;stroke-linejoin:miter;stroke-miterlimit:4;stroke-dasharray:none;stroke-opacity:1"
       d="m 98.763512,1039.8387 c -0.01761,0.5712 -0.146404,1.0411 0.241542,1.9821 0.805139,0.7762 1.610276,0.7821 2.415416,0.5873 -0.15139,1.1859 -0.50199,2.6443 0.16103,2.7163 0.54596,0.603 1.05201,1.297 2.01284,0.9544 0.48309,-0.1905 0.96617,0.187 1.44924,-0.881 l -0.88564,-2.6429 0.56359,-0.8075 c 1.66092,0.2539 1.72092,0.9942 2.17388,1.6151 0.57412,0.9894 1.14862,1.9775 1.93233,2.2023 0.94126,0.4949 1.57975,0.1614 2.09335,-0.5138 l 0.24155,-2.2758 1.7713,0.8075 c 0.93059,0.3043 1.12477,-0.5667 1.20771,-1.615 -0.13764,-0.7586 -1.0076,-1.3704 -1.7713,-2.129 0.31982,-1.3692 0.0932,-2.0724 -0.64412,-2.8632 -1.0122,-0.396 -1.09825,-1.3024 -4.02568,-1.1745 -1.58171,0.6303 -1.55775,-0.4475 -1.98101,-1.079 1.2953,0.4442 1.48014,-0.1908 1.86006,-0.648 0.21045,-3.1642 -0.52422,-5.2513 -1.13863,-7.4752 l -0.22774,-4.1529 c -0.4968,-1.5464 -1.15713,-2.9809 -2.505,-3.9452 -0.36439,-1.9935 0.41137,-2.9473 -1.13863,-6.0216 -1.96267,-3.6001 -4.468147,-3.7354 -6.831827,-4.7758 0.04407,-1.486 1.171223,-2.5921 -1.366365,-4.9834 -0.279127,-3.16056 -0.974381,-6.13124 -2.960456,-8.51348 -2.027908,-4.13291 -4.63064,-6.03828 -7.515007,-6.85225 -0.700818,-1.28683 -5.160953,-3.29129 -8.425916,-5.11767 l -7.05955,0.13422 c -2.525416,-0.89048 -4.688066,-1.94634 -8.425915,-2.28407 l -9.79228,1.86879 c -2.483391,0.0515 -4.626999,1.03233 -6.684611,2.24847 l -2.716734,2.18079 c -2.842958,-2.86622 -9.808958,-7.17048 -14.409345,-11.88364 -2.772779,-2.59738 -5.724194,-4.92328 -7.890353,-8.44251 -1.03632,-3.14515 -2.156229,-4.77388 -2.979012,-6.1667 -0.885652,-0.76163 -1.771303,-1.67621 -2.656955,-3.59724 -1.137735,-4.70122 -1.19458,-8.17353 -1.288221,-12.11315 -0.783381,-1.60784 -1.263049,-1.16379 -1.8518184,-1.17462 -0.8453503,1.30922 -1.4875116,2.68019 -1.6907899,4.18455 -0.073998,2.93391 -0.031264,5.60174 0.3220561,7.56154 0.6824811,2.22333 1.6260518,4.08956 2.7374692,5.72623 2.119811,2.34906 1.646531,3.68482 2.415414,5.50597 2.242827,3.74708 4.242458,5.49843 6.280077,7.56155 l 4.186718,6.82742 c 4.213557,3.86303 8.427114,7.4246 12.465728,9.49851 l -1.269636,0.80388 -8.881372,9.34401 -8.184375,3.6412 c -1.36357,-0.1689 -2.699763,3.1195 -2.355509,5.2592 -0.511455,2.6103 -0.799173,5.3281 -2.483172,6.9852 -2.370556,1.8423 -4.0435354,3.9572 -4.9113422,6.3869 -0.052912,2.4681 0.5568901,1.9148 0.8856513,2.6429 0.5615593,0.5231 1.2405549,0.4374 2.0128459,0 l 1.28822,-1.9822 c 0.805643,2.8382 1.134831,2.8072 2.334901,3.744 l 1.69079,-0.5138 c 0.863781,-0.7147 0.667392,-1.6711 0.724624,-2.5695 0.09538,1.3814 0.995261,2.029 1.932332,2.6428 0.7783,0.5241 1.5566,0.3788 2.334901,-0.073 1.261152,-0.1329 0.109244,-2.6284 0.04401,-4.1883 4.978638,4.4096 8.435824,3.8362 9.92385,3.9797 4.44612,2.299 7.497597,2.2666 10.703189,2.4917 l 4.554549,3.53 0.455456,2.6994 c -2.211694,1.5919 -2.947528,3.4774 -3.174372,5.4364 l 1.741308,2.2841 c -0.504748,1.1161 -2.049232,1.7149 -0.388756,3.9076 1.284683,4.6496 6.4445,4.3739 9.872795,4.0921 3.041284,0.9358 5.959433,0.4683 8.573129,-3.4692 1.939926,0.2689 3.78431,1.496 5.920914,-0.2077 2.213689,0.6711 4.410365,1.4671 6.831823,0.6231 3.163168,-0.8997 5.160251,-2.255 6.831825,-3.7376 2.429092,0.3685 4.858184,0.1 7.287277,-1.8689 2.384395,0.072 4.840596,0.3619 6.604098,-1.4535 0.226129,-0.462 0.466638,-0.9058 0.755316,-1.4112 z"
       id="path4195"
       inkscape:connector-curvature="0"
       sodipodi:nodetypes="ccccccccccccccccccccccccccccccccccccccccccccccccccccccccccccccccccccccccccccc" />
    <path
       style="display:inline;fill:url(#radialGradient6274);fill-opacity:1;fill-rule:evenodd;stroke:#0040ff;stroke-width:0.61505204;stroke-linecap:butt;stroke-linejoin:miter;stroke-miterlimit:4;stroke-dasharray:none;stroke-opacity:1"
       d="m 16.260898,1009.9874 c -1.383362,-1.7949 0.206598,-6.5275 1.835633,-6.3257 l 8.184375,-3.6412 8.88137,-9.34397 8.345401,-6.47258 c 2.057611,-1.21613 4.201219,-2.19701 6.68461,-2.24845 l 9.792279,-1.86881 c 3.737848,0.33775 5.900498,1.39362 8.425914,2.2841 l 7.059553,-0.20765 c 3.26496,1.82638 7.72509,3.90426 8.42591,5.19109 2.88437,0.81397 5.4871,2.71933 7.51501,6.85221 1.98607,2.38224 2.68133,5.35301 2.96045,8.51346 2.53759,2.3913 1.41046,3.4974 1.36637,4.9834 2.36368,1.0404 4.869147,1.1757 6.831817,4.7759 1.55,3.0743 0.77424,4.0282 1.13863,6.0216 1.34787,0.9643 2.0082,2.3989 2.505,3.9452 l 0.22774,4.1529 c 0.61441,2.224 1.34908,4.311 1.13863,7.4752 -0.49083,0.5906 -0.65605,1.4782 -3.41591,0 -3.21072,0.906 -5.335897,3.1732 -6.831817,6.2292 -1.7635,1.8154 -4.2197,1.5252 -6.6041,1.4535 -2.42909,1.9691 -4.85818,2.2374 -7.28727,1.8689 -1.67158,1.4826 -3.66866,2.838 -6.83183,3.7375 -2.42145,0.8441 -4.61813,0.048 -6.831819,-0.623 -2.136604,1.7037 -3.980988,0.4766 -5.920913,0.2077 -2.613695,3.9375 -5.531844,4.405 -8.573129,3.4692 -3.428292,0.2818 -8.58811,0.5575 -9.872793,-4.0921 -1.660474,-2.1927 -0.115992,-2.7915 0.388755,-3.9075 l -1.741306,-2.2841 c 0.226843,-1.959 0.962676,-3.8445 3.174371,-5.4364 l -0.455456,-2.6994 -4.554547,-3.53 c -3.205593,-0.2251 -6.257071,-0.1928 -10.70319,-2.4916 -1.720346,-0.1661 -6.072729,0.6262 -12.297281,-6.437 -0.851693,-2.2727 -1.590188,-4.6229 -1.594092,-7.4753 z"
       id="path4172-2"
       inkscape:connector-curvature="0"
       sodipodi:nodetypes="cccccccccccccccccccccccccccccccccccc" />
    <path
       style="opacity:0.21600001;fill:url(#pattern5692);fill-opacity:1;fill-rule:evenodd;stroke:#0040ff;stroke-width:0.61505204;stroke-linecap:butt;stroke-linejoin:miter;stroke-miterlimit:4;stroke-dasharray:none;stroke-opacity:1"
       d="m 16.614445,1010.1641 c -1.383362,-1.7949 0.206598,-6.5275 1.835634,-6.3257 l 8.184375,-3.6412 8.881371,-9.34396 8.345402,-6.4725 c 2.057612,-1.2162 4.20122,-2.197 6.684611,-2.2485 l 9.79228,-1.8688 c 3.737849,0.33775 5.900499,1.3936 8.425915,2.2841 l 7.05955,-0.2076 c 3.264963,1.8263 7.725098,3.9042 8.425916,5.191 2.884367,0.814 5.487096,2.7194 7.515006,6.8523 1.986075,2.3822 2.681329,5.353 2.960456,8.51336 2.537587,2.3913 1.410455,3.4974 1.366365,4.9834 2.36368,1.0404 4.869154,1.1757 6.831824,4.7759 1.55,3.0743 0.77424,4.0282 1.13863,6.0216 1.34787,0.9643 2.0082,2.3989 2.505,3.9452 l 0.22774,4.1529 c 0.61441,2.224 1.34908,4.311 1.13863,7.4752 -0.49083,0.5906 -0.65605,1.4782 -3.41591,0 -3.21072,0.906 -5.335896,3.1732 -6.831822,6.2292 -1.7635,1.8154 -4.219701,1.5252 -6.604095,1.4535 -2.429092,1.9691 -4.858184,2.2374 -7.287277,1.8689 -1.671575,1.4826 -3.668659,2.838 -6.831824,3.7375 -2.421459,0.8441 -4.618135,0.048 -6.831824,-0.623 -2.136605,1.7037 -3.980989,0.4766 -5.920914,0.2077 -2.613695,3.9375 -5.531845,4.405 -8.57313,3.4692 -3.428293,0.2818 -8.588111,0.5575 -9.872794,-4.0921 -1.660475,-2.1927 -0.115992,-2.7915 0.388755,-3.9075 l -1.741306,-2.2841 c 0.226843,-1.959 0.962676,-3.8445 3.174371,-5.4364 l -0.455456,-2.6994 -4.554548,-3.53 c -3.205593,-0.2251 -6.257071,-0.1928 -10.703191,-2.4916 -1.720346,-0.1661 -6.07273,0.6262 -12.297282,-6.437 -0.851693,-2.2727 -1.590188,-4.6229 -1.594092,-7.4753 z"
       id="path4172"
       inkscape:connector-curvature="0"
       sodipodi:nodetypes="cccccccccccccccccccccccccccccccccccc" />
    <path
       style="fill:#b99a8f;fill-opacity:1;fill-rule:evenodd;stroke:none;stroke-width:0.35433072;stroke-linecap:butt;stroke-linejoin:miter;stroke-miterlimit:4;stroke-dasharray:none;stroke-opacity:1"
       d="m 53.192695,1009.0052 c -0.166693,-0.3593 -1.260285,0.549 -2.254388,1.3214 -1.544486,1.793 -0.754109,2.5217 -0.724625,3.5973 1.28742,2.0896 2.414977,3.9593 4.750316,6.2401 1.124378,-0.9058 2.152088,-1.6173 1.368735,-2.7162 -1.812418,-1.8233 -1.959062,-3.3428 -2.817984,-4.9922 z"
       id="path4203"
       inkscape:connector-curvature="0"
       sodipodi:nodetypes="ccccccc" />
    <path
       style="fill:#cca093;fill-opacity:1;fill-rule:evenodd;stroke:none;stroke-width:0.35433072;stroke-linecap:butt;stroke-linejoin:miter;stroke-miterlimit:4;stroke-dasharray:none;stroke-opacity:1"
       d="m 53.273209,1008.7116 c 0.435832,-0.7225 -0.287266,-3.5583 -0.885653,-6.1668 0.420098,-1.3149 1.062626,-1.6158 1.690789,-1.9821 1.875121,0.1876 2.815938,1.4399 3.864664,2.5694 l 2.254388,4.5516 c 0.993004,0.5857 1.986007,0.4121 2.979012,2.4228 l 0.402568,5.7996 c -1.783124,0.6456 -4.445023,2.1956 -7.246244,1.5417 -1.994419,-1.7861 -3.206311,-5.6692 -3.059524,-8.7362 z"
       id="path4199"
       inkscape:connector-curvature="0"
       sodipodi:nodetypes="ccccccccc" />
    <path
       style="display:inline;fill:url(#pattern6094);fill-opacity:1;fill-rule:evenodd;stroke:none;stroke-width:0.35433072;stroke-linecap:butt;stroke-linejoin:miter;stroke-miterlimit:4;stroke-dasharray:none;stroke-opacity:1;opacity:0.203"
       d="m 53.273208,1008.7116 c 0.43584,-0.7225 -0.28726,-3.5583 -0.88565,-6.1668 0.4201,-1.3149 1.06263,-1.6158 1.69079,-1.9821 1.875118,0.1876 2.815938,1.4399 3.864658,2.5694 l 2.25439,4.5516 c 0.993,0.5857 1.98601,0.4121 2.97901,2.4228 l 0.40257,5.7996 c -1.78312,0.6456 -4.44502,2.1956 -7.24624,1.5417 -1.99442,-1.7861 -3.206309,-5.6692 -3.059529,-8.7362 z"
       id="path4199-2"
       inkscape:connector-curvature="0"
       sodipodi:nodetypes="ccccccccc" />
    <path
       style="color:#000000;font-style:normal;font-variant:normal;font-weight:normal;font-stretch:normal;font-size:medium;line-height:normal;font-family:sans-serif;text-indent:0;text-align:start;text-decoration:none;text-decoration-line:none;text-decoration-style:solid;text-decoration-color:#000000;letter-spacing:normal;word-spacing:normal;text-transform:none;direction:ltr;block-progression:tb;writing-mode:lr-tb;baseline-shift:baseline;text-anchor:start;white-space:normal;clip-rule:nonzero;display:inline;overflow:visible;visibility:visible;opacity:1;isolation:auto;mix-blend-mode:normal;color-interpolation:sRGB;color-interpolation-filters:linearRGB;solid-color:#000000;solid-opacity:1;fill:#d9a69b;fill-opacity:1;fill-rule:evenodd;stroke:none;stroke-width:1.77165353;stroke-linecap:butt;stroke-linejoin:miter;stroke-miterlimit:4;stroke-dasharray:none;stroke-dashoffset:0;stroke-opacity:1;color-rendering:auto;image-rendering:auto;shape-rendering:auto;text-rendering:auto;enable-background:accumulate"
       d="m 8.7460346,943.18832 c -0.5028414,0.56954 -0.7792314,1.55923 -0.9505592,2.61863 -0.4971344,3.0742 -0.7039416,6.35258 0.098128,9.50929 0.749062,2.94809 2.8487146,5.15643 3.8797576,7.42849 0.548372,1.20841 0.766398,2.78562 1.678211,4.32449 1.728504,2.91719 4.428364,4.97492 6.151759,7.34819 1.26498,1.74198 2.011525,4.09507 3.811825,6.09329 1.862156,2.06683 4.991283,4.50773 7.691586,6.49017 2.700301,1.98242 4.964178,3.48024 4.964178,3.48024 0.425534,-0.0892 1.353193,-0.54921 1.737067,-1.06329 0,0 -3.129823,-1.72616 -5.781997,-3.67325 -2.652173,-1.94711 -5.687238,-4.0357 -7.302533,-5.82856 -1.405749,-1.56028 -2.719365,-4.29059 -4.242761,-6.38843 -1.970648,-2.71375 -4.423274,-4.52939 -5.87529,-6.97994 -0.645048,-1.08866 -0.757288,-2.68218 -1.461187,-4.23332 -1.222105,-2.69309 -3.4271083,-4.80436 -3.937332,-7.105 -1.1621074,-5.24006 -0.2582235,-11.19862 1.004345,-11.18501 0.869934,0.009 1.035291,7.46339 1.451221,9.06458 0.581318,2.23786 0.770188,5.23057 3.138756,7.1202 1.076611,0.85893 1.669697,2.51114 2.433323,4.48136 1.842541,4.75391 5.950902,7.53951 9.36348,10.91123 2.850788,2.81666 6.237277,5.52673 9.562299,7.84116 1.786926,1.24383 3.388291,2.48796 4.185338,3.63001 0.527791,-0.26604 1.209955,-0.66583 1.49143,-1.6406 0,0 -3.484798,-2.03617 -4.973603,-3.07247 -3.235651,-2.25224 -6.298307,-4.72822 -9.045225,-7.44225 -3.537741,-3.49539 -7.543409,-6.70991 -9.115674,-10.76649 -0.771139,-1.98959 -1.53065,-4.03274 -3.250744,-5.40503 -1.526863,-1.21812 -2.040276,-3.62626 -2.651925,-5.98087 -0.6586,-2.53539 -0.605264,-8.168 -0.667477,-8.85065 -0.07875,-0.86411 -0.60183,-1.49961 -1.239689,-1.71621 -1.0343441,-0.35124 -1.5518662,0.31628 -2.1467028,0.99004 z"
       id="path4184"
       inkscape:connector-curvature="0"
       sodipodi:nodetypes="ssssssssccssssssssssssccssssssss" />
    <path
       style="color:#000000;font-style:normal;font-variant:normal;font-weight:normal;font-stretch:normal;font-size:medium;line-height:normal;font-family:sans-serif;text-indent:0;text-align:start;text-decoration:none;text-decoration-line:none;text-decoration-style:solid;text-decoration-color:#000000;letter-spacing:normal;word-spacing:normal;text-transform:none;direction:ltr;block-progression:tb;writing-mode:lr-tb;baseline-shift:baseline;text-anchor:start;white-space:normal;clip-rule:nonzero;display:inline;overflow:visible;visibility:visible;opacity:1;isolation:auto;mix-blend-mode:normal;color-interpolation:sRGB;color-interpolation-filters:linearRGB;solid-color:#000000;solid-opacity:1;fill:#ba837a;fill-opacity:1;fill-rule:evenodd;stroke:none;stroke-width:1.77165353;stroke-linecap:butt;stroke-linejoin:miter;stroke-miterlimit:4;stroke-dasharray:none;stroke-dashoffset:0;stroke-opacity:1;color-rendering:auto;image-rendering:auto;shape-rendering:auto;text-rendering:auto;enable-background:accumulate"
       d="m 106.17483,1036.7593 c 0.52991,0.1742 1.71431,-0.4659 2.24812,-0.5188 1.13335,-0.1122 1.74258,0.055 2.66414,0.8317 0.21545,0.1816 1.05573,1.4782 1.00109,2.1657 -1.1109,-1.4014 -2.47623,-1.4804 -3.05163,-1.5906 -0.90907,-0.1742 -2.05245,0.7427 -2.95773,0.9325 0.0996,0.3383 1.58748,-0.2194 2.51407,0.041 0.92658,0.2602 1.33248,0.37 1.80001,0.5735 0.83766,0.3645 1.54232,0.9042 1.85567,1.1738 0.40875,0.3515 1.64458,1.0928 1.06297,2.4408 -0.4509,0.6489 -1.7995,-0.7036 -2.14257,-1.0435 -0.34308,-0.3399 -0.74454,-0.8757 -1.33871,-1.2226 -0.63453,-0.3707 -1.33825,-0.8371 -2.15745,-1.0139 -1.21581,-0.2626 -2.32288,0.098 -2.44205,0.4609 0.74493,0 1.41103,0.1083 2.18726,0.3517 0.71585,0.2802 1.27979,0.5998 1.83497,0.924 0.51317,0.2997 1.09181,0.9226 1.16241,1.1241 l 0.29542,0.8432 c 0.11687,0.3336 0.15266,1.1976 -0.44032,1.6168 -0.64233,0.4539 -1.66841,0.096 -2.14516,-0.3252 -0.47677,-0.4202 -0.56559,-1.4908 -1.3362,-2.1622 -0.62568,-0.5451 -1.7182,-1.1518 -2.21936,-0.8685 -0.74056,0.4185 -0.77515,1.0851 -0.57273,1.5121 0.36293,0.7523 0.7099,1.811 0.38363,2.1407 -0.48796,0.4932 -1.36145,0.4864 -2.11433,-0.06 -0.41427,-0.3008 -0.72434,-0.8079 -0.71445,-1.2302 0.0161,-0.6884 0.029,-1.0694 0.18402,-1.8253 -0.9265,0.2376 -1.20985,-0.053 -1.53267,-0.1338 -0.319095,-0.08 -0.876146,-0.7417 -0.8675,-1.0163 0.01822,-0.579 0.135817,-0.8987 0.76126,-1.2008 l -1.076876,-1.5073 -1.912203,1.138 1.016683,0.9817 c 0,0 -0.01409,0.5206 0.05708,0.923 0.08398,0.4748 0.7258,1.1406 1.175475,1.3397 0.964351,0.4269 1.259151,0.3107 1.716071,0.2269 -0.3347,1.5468 -0.22482,1.8119 -0.12988,2.2655 0.10511,0.5021 0.72239,1.0067 1.22818,1.2408 0.50578,0.2339 1.56143,0.3737 1.96674,0.2062 0.68971,-0.2849 1.23273,-0.5875 1.25859,-1.206 0.0237,-0.5659 -0.39153,-1.2452 -0.62775,-1.8901 -0.153,-0.4177 -0.31354,-0.8211 0.0482,-1.17 0.891,-0.8593 2.06515,2.2555 2.34037,2.5016 0.27523,0.2462 0.67944,0.761 1.37553,1.1488 0.36181,0.2015 0.85118,0.3735 1.41402,0.3372 0.56289,-0.036 1.12123,-0.2979 1.55615,-0.9167 0.43492,-0.6187 -0.009,-1.3038 0.1461,-1.5028 0.15653,-0.199 0.86721,0.2833 1.13587,0.3479 0.34279,0.082 0.99973,-0.031 1.35161,-0.408 0.35191,-0.3774 0.6054,-1.2879 0.4339,-1.8628 -0.17152,-0.5748 -0.98562,-1.7642 -1.71371,-2.1404 0.13207,-0.4213 0.24951,-0.9051 0.11477,-1.45 -0.11815,-0.4776 -0.36151,-0.958 -0.82818,-1.4588 -0.36219,-0.3885 -1.12102,-1.0402 -1.93649,-1.3421 -0.34487,-0.1275 -1.44624,-0.2568 -2.57951,-0.2812 -0.95218,-0.02 -2.40415,0.7386 -2.40415,0.7386 0.11374,0.2954 0.33388,0.6168 0.95112,0.8197 z"
       id="path4186"
       inkscape:connector-curvature="0"
       sodipodi:nodetypes="ssscscssscsssccssssssscssscssccccsscsssssssssscssscsssscs" />
    <path
       style="color:#000000;font-style:normal;font-variant:normal;font-weight:normal;font-stretch:normal;font-size:medium;line-height:normal;font-family:sans-serif;text-indent:0;text-align:start;text-decoration:none;text-decoration-line:none;text-decoration-style:solid;text-decoration-color:#000000;letter-spacing:normal;word-spacing:normal;text-transform:none;direction:ltr;block-progression:tb;writing-mode:lr-tb;baseline-shift:baseline;text-anchor:start;white-space:normal;clip-rule:nonzero;display:inline;overflow:visible;visibility:visible;opacity:1;isolation:auto;mix-blend-mode:normal;color-interpolation:sRGB;color-interpolation-filters:linearRGB;solid-color:#000000;solid-opacity:1;fill:#c08279;fill-opacity:1;fill-rule:evenodd;stroke:none;stroke-width:1.77165353;stroke-linecap:butt;stroke-linejoin:miter;stroke-miterlimit:4;stroke-dasharray:none;stroke-dashoffset:0;stroke-opacity:1;color-rendering:auto;image-rendering:auto;shape-rendering:auto;text-rendering:auto;enable-background:accumulate"
       d="m 13.330809,1014.2554 c -0.694073,1.296 -2.222361,2.2529 -3.167717,3.4941 -0.6771178,0.8889 -1.5763898,1.9268 -1.9003372,2.5187 -0.1843872,0.3371 -0.5862282,1.3756 -0.6182316,2.1976 -0.068584,1.7622 0.191433,2.8074 1.9902009,3.2143 1.5297009,0.346 2.2013319,-0.2758 2.5865049,-1.8216 0.06226,0.7284 0.1637,1.4273 0.591275,1.9386 0.521115,0.6229 1.309974,1.5671 2.059049,1.5693 0.749061,0 1.578873,-0.029 2.125153,-0.6931 0.275273,-0.3346 0.530022,-0.6508 0.352248,-1.6381 0.20482,0.5417 0.63394,0.9413 1.006814,1.2086 0.372873,0.2674 1.021223,0.4504 1.708115,0.6314 0.686859,0.1806 1.954711,0.051 2.522106,-1.0247 0.567446,-1.0746 0.119559,-2.0102 -0.172927,-2.6363 l -1.206882,-0.9207 -1.421572,-1.2778 1.185063,2.1656 c 0.218634,0.3995 0.677149,1.5111 0.379922,2.1014 -0.335048,0.6653 -0.848764,0.8919 -1.720959,0.4452 -0.384809,-0.1972 -1.456716,-1.0768 -1.595141,-1.4778 -0.390353,-1.1309 -0.262104,-2.0244 -0.910903,-2.9441 -0.403232,-0.4586 -1.007633,-1.8012 -1.484474,-1.6958 -0.704471,0.1558 0.204556,0.958 0.503207,1.5602 0.299782,1.1346 0.49769,1.5545 0.666745,3.0648 0.0491,0.4386 0.132871,1.7214 -1.604904,1.8248 -0.651187,0.038 -1.483178,-1.3422 -1.632913,-1.7614 -0.675995,-1.8932 -0.272618,-4.019 -0.82813,-4.1439 -0.418374,-0.094 -0.08505,1.8569 -0.523341,2.2025 -0.332669,0.5499 -1.049457,2.715 -2.048069,2.2918 -1.642344,-0.696 -1.4775064,-1.723 -0.9108134,-3.0902 0.1865343,-0.45 1.6003354,-2.1289 2.4456084,-2.9411 1.139743,-1.095 2.360768,-2.2337 3.087201,-3.5904 1.027107,-1.9181 1.358671,-3.8404 1.358671,-3.8404 l -1.185098,-2.8922 c 0,0 -0.64697,4.1149 -1.635471,5.9607 z"
       id="path4192"
       inkscape:connector-curvature="0"
       sodipodi:nodetypes="ssssscssscssssccsssscscsssscssssccs" />
    <path
       style="color:#000000;font-style:normal;font-variant:normal;font-weight:normal;font-stretch:normal;font-size:medium;line-height:normal;font-family:sans-serif;text-indent:0;text-align:start;text-decoration:none;text-decoration-line:none;text-decoration-style:solid;text-decoration-color:#000000;letter-spacing:normal;word-spacing:normal;text-transform:none;direction:ltr;block-progression:tb;writing-mode:lr-tb;baseline-shift:baseline;text-anchor:start;white-space:normal;clip-rule:nonzero;display:inline;overflow:visible;visibility:visible;opacity:1;isolation:auto;mix-blend-mode:normal;color-interpolation:sRGB;color-interpolation-filters:linearRGB;solid-color:#000000;solid-opacity:1;fill:#000000;fill-opacity:1;fill-rule:evenodd;stroke:none;stroke-width:1.0629921;stroke-linecap:butt;stroke-linejoin:miter;stroke-miterlimit:4;stroke-dasharray:none;stroke-dashoffset:0;stroke-opacity:1;color-rendering:auto;image-rendering:auto;shape-rendering:auto;text-rendering:auto;enable-background:accumulate"
       d="m 48.706565,1045.8804 0.0025,0 0,0.013 c -8.63e-4,0 -0.0017,0 -0.0025,-0.013 z"
       id="path4198"
       inkscape:connector-curvature="0"
       sodipodi:nodetypes="cccc" />
    <path
       style="fill:#b78d82;fill-opacity:1;fill-rule:evenodd;stroke:none;stroke-width:0.29055119;stroke-linecap:butt;stroke-linejoin:miter;stroke-miterlimit:4;stroke-dasharray:none;stroke-opacity:1"
       d="m 81.050474,1018.9894 c 2.423555,-4.3815 5.575652,-5.2203 8.614978,-6.6072 2.353551,-0.6965 4.713375,-1.3897 8.534464,-1.3214 -1.465498,0.5484 -3.451998,2.2053 -5.555452,4.1111 -2.539312,1.8246 -3.543251,3.5091 -3.945177,5.1389 -1.339369,2.3867 -4.211659,2.8166 -6.521619,3.9643 -1.697717,-1.7619 -0.990762,-3.5239 -1.127194,-5.2857 z"
       id="path4201"
       inkscape:connector-curvature="0"
       sodipodi:nodetypes="ccccccc" />
    <path
       style="fill:url(#radialGradient6408);fill-opacity:1;fill-rule:evenodd;stroke:none;stroke-width:0.29055119;stroke-linecap:butt;stroke-linejoin:miter;stroke-miterlimit:4;stroke-dasharray:none;stroke-opacity:1"
       d="m 81.936127,1024.2751 c 2.216534,-0.8089 4.434037,-1.6132 6.441104,-3.3771 1.961349,-4.1828 5.399542,-7.2886 9.500631,-9.9106 1.152592,1.737 1.162482,3.1266 1.046678,4.4781 0.724981,6.2663 -0.0968,5.4806 -0.161028,8.1489 -1.811867,2.6695 -3.629413,5.3221 -6.280076,5.506 -2.875863,0.511 -5.631696,-0.2914 -8.292923,-2.129 z"
       id="path4205"
       inkscape:connector-curvature="0"
       sodipodi:nodetypes="cccccccc" />
    <path
       style="display:inline;fill:#ffffff;fill-opacity:1;fill-rule:evenodd;stroke:none;stroke-width:0.29055119;stroke-linecap:butt;stroke-linejoin:miter;stroke-miterlimit:4;stroke-dasharray:none;stroke-opacity:1"
       d="m 63.623462,1035.3093 c 1.076809,-1.9961 2.203426,-3.8333 3.703636,-4.4782 1.586141,-0.5827 3.135167,-0.8948 4.508773,0.073 1.094467,1.2235 0.881897,2.447 0.724624,3.6706 -0.581575,1.1988 -1.247148,2.1679 -2.254386,2.2024 -1.717042,-0.1104 -3.139184,-0.6251 -4.42826,-1.3214 -0.811027,-0.1574 -1.649857,-0.3655 -2.254387,-0.1463 z"
       id="path4209-0"
       inkscape:connector-curvature="0"
       sodipodi:nodetypes="ccccccc" />
    <path
       inkscape:connector-curvature="0"
       style="fill:url(#radialGradient6420);fill-opacity:1;fill-rule:evenodd;stroke:none;stroke-width:0.29055119;stroke-linecap:butt;stroke-linejoin:miter;stroke-miterlimit:4;stroke-dasharray:none;stroke-opacity:1"
       d="m 69.911998,1030.2865 c -0.757225,0.031 -1.541829,0.2524 -2.3349,0.5437 -1.50021,0.6448 -2.626827,2.4821 -3.703636,4.4782 0.60453,-0.2192 1.44336,-0.012 2.254387,0.1468 1.289076,0.6963 2.711218,1.211 4.42826,1.3214 1.007238,-0.034 1.672811,-1.0035 2.254386,-2.2023 0.157273,-1.2236 0.369843,-2.4471 -0.724624,-3.6707 -0.686803,-0.4838 -1.416648,-0.647 -2.173873,-0.6171 z m -0.63153,1.0415 c 0.596963,-0.029 1.028235,0.3324 1.064293,0.5598 0.06763,0.4283 -0.715592,0.3496 -1.180032,0.4383 -0.958704,0.1828 -1.892074,1.0506 -1.892074,1.0506 0,0 0.550687,-1.4551 1.363703,-1.8697 0.227676,-0.1163 0.445123,-0.1691 0.64411,-0.179 z"
       id="path4209" />
    <path
       style="color:#000000;font-style:normal;font-variant:normal;font-weight:normal;font-stretch:normal;font-size:medium;line-height:normal;font-family:sans-serif;text-indent:0;text-align:start;text-decoration:none;text-decoration-line:none;text-decoration-style:solid;text-decoration-color:#000000;letter-spacing:normal;word-spacing:normal;text-transform:none;direction:ltr;block-progression:tb;writing-mode:lr-tb;baseline-shift:baseline;text-anchor:start;white-space:normal;clip-rule:nonzero;display:inline;overflow:visible;visibility:visible;opacity:1;isolation:auto;mix-blend-mode:normal;color-interpolation:sRGB;color-interpolation-filters:linearRGB;solid-color:#000000;solid-opacity:1;fill:#000000;fill-opacity:1;fill-rule:evenodd;stroke:none;stroke-width:1.0629921;stroke-linecap:butt;stroke-linejoin:miter;stroke-miterlimit:4;stroke-dasharray:none;stroke-dashoffset:0;stroke-opacity:1;color-rendering:auto;image-rendering:auto;shape-rendering:auto;text-rendering:auto;enable-background:accumulate"
       d="m 67.126615,1030.3376 c -0.930264,0.6617 -1.514649,1.2633 -2.141164,2.0555 -0.919183,1.1622 -1.845348,2.2464 -1.917683,3.5879 1.070782,-0.3697 2.263251,-0.3512 2.85618,0 1.514362,0.9091 3.325428,1.5103 4.41568,1.4065 1.156687,-0.1106 2.144541,-1.4395 2.707276,-2.5238 0.563114,-1.085 0.41761,-2.1846 -0.109785,-3.272 -0.527388,-1.0876 -1.191784,-1.4099 -2.210022,-1.6532 -1.423803,-0.3401 -2.700476,-0.2461 -3.600484,0.3943 z m 4.576708,2.2917 c 0.445309,0.9754 0.192067,1.5417 -0.216381,2.3287 -0.425818,0.8203 -1.109447,1.2995 -1.532279,1.3398 -0.651402,0.062 -2.457569,-0.2324 -3.434613,-0.7741 -0.977043,-0.5418 -1.464606,-0.3491 -1.728335,-0.4414 0.623361,-1.4155 1.498225,-2.8945 2.80792,-3.6751 1.085233,-0.6469 1.962188,-0.4334 2.607066,-0.2446 0.644879,0.1886 1.276232,0.9841 1.496622,1.4667 z"
       id="path4200"
       inkscape:connector-curvature="0"
       sodipodi:nodetypes="sscsssssssssscsss" />
    <path
       style="fill:#ffd7ce;fill-opacity:1;fill-rule:evenodd;stroke:none;stroke-width:0.29055119;stroke-linecap:butt;stroke-linejoin:miter;stroke-miterlimit:4;stroke-dasharray:none;stroke-opacity:1"
       d="m 50.374711,1036.9326 c -1.254005,0.6088 -1.442368,1.3146 -1.650534,2.0188 -1.519277,0.3053 -2.212214,1.5317 -2.777725,2.8999 0.406341,1.5069 0.347776,2.179 1.690789,3.2301 -0.350879,0.5044 -0.337565,1.1511 0.805138,2.2392 0.670948,0.196 1.221125,-0.4491 1.892075,-0.991 0.854803,0.2 1.493055,-0.1526 1.81156,-1.3217 1.100013,-0.3883 1.442283,-1.5663 1.811561,-2.7162 -0.174114,-1.6476 -0.802674,-1.6481 -1.247965,-1.7986 l -1.328477,0.2571 c -1.738197,-0.4714 -0.491059,-3.4124 -1.006422,-3.8176 z"
       id="path4211"
       inkscape:connector-curvature="0"
       sodipodi:nodetypes="ccccccccccc" />
    <path
       style="display:inline;fill:url(#pattern5799);fill-opacity:1;fill-rule:evenodd;stroke:none;stroke-width:0.29055119;stroke-linecap:butt;stroke-linejoin:miter;stroke-miterlimit:4;stroke-dasharray:none;stroke-opacity:1;opacity:0.426"
       d="m 81.050475,1018.9894 c 2.42356,-4.3815 5.57565,-5.2203 8.61498,-6.6072 2.35354,-0.6965 4.71337,-1.3897 8.53446,-1.3214 -1.4655,0.5484 -3.452,2.2053 -5.55545,4.1111 -2.53931,1.8246 -3.54325,3.5091 -3.94517,5.1389 -1.33938,2.3867 -4.21166,2.8166 -6.52162,3.9643 -1.69772,-1.7619 -0.99077,-3.5239 -1.1272,-5.2857 z"
       id="path4201-9"
       inkscape:connector-curvature="0"
       sodipodi:nodetypes="ccccccc" />
    <path
       style="color:#000000;font-style:normal;font-variant:normal;font-weight:normal;font-stretch:normal;font-size:medium;line-height:normal;font-family:sans-serif;text-indent:0;text-align:start;text-decoration:none;text-decoration-line:none;text-decoration-style:solid;text-decoration-color:#000000;letter-spacing:normal;word-spacing:normal;text-transform:none;direction:ltr;block-progression:tb;writing-mode:lr-tb;baseline-shift:baseline;text-anchor:start;white-space:normal;clip-rule:nonzero;display:inline;overflow:visible;visibility:visible;opacity:1;isolation:auto;mix-blend-mode:normal;color-interpolation:sRGB;color-interpolation-filters:linearRGB;solid-color:#000000;solid-opacity:1;fill:#a47265;fill-opacity:1;fill-rule:evenodd;stroke:none;stroke-width:1.77165353;stroke-linecap:butt;stroke-linejoin:miter;stroke-miterlimit:4;stroke-dasharray:none;stroke-dashoffset:0;stroke-opacity:1;color-rendering:auto;image-rendering:auto;shape-rendering:auto;text-rendering:auto;enable-background:accumulate"
       d="m 91.039414,1011.15 c -2.343113,0.7561 -3.94387,1.4529 -4.870805,1.8406 -0.926935,0.3877 -1.841829,0.9962 -2.800708,1.7994 -0.941246,0.7882 -1.273824,1.4871 -1.615636,2.4194 -0.341813,0.9324 -1.068247,2.05 -0.753771,2.1847 0.697368,0.2986 2.190672,-2.2119 3.078066,-2.9831 0.887394,-0.7715 2.209888,-1.3986 2.961787,-1.7131 0.751899,-0.3145 2.023906,-1.1426 3.478779,-1.5881 1.454873,-0.4454 4.703204,-1.2049 4.820734,-1.0755 0.104585,0.1152 -3.010524,2.6033 -3.641883,3.1354 -0.631357,0.5321 -2.177919,1.4677 -3.106739,3.373 -0.928821,1.9053 -2.218791,3.1066 -3.984159,3.8008 -1.765365,0.6942 -3.189478,1.7615 -2.923057,2.1562 0.196531,0.291 1.07457,-0.1871 1.838484,-0.3405 0.922012,-0.1851 1.234743,-0.4765 2.840713,-1.0671 1.605972,-0.5907 2.671981,-1.808 3.634153,-3.6276 0.962173,-1.8196 2.433633,-2.8412 2.778031,-3.1293 0.3444,-0.2882 4.048677,-4.3549 4.699328,-4.1695 0.901535,0.2568 0.711097,2.3502 1.026355,3.931 0.315257,1.5809 -0.232234,3.4152 -0.482883,5.12 -0.277387,1.8867 -0.646389,2.5776 -1.254961,3.429 -0.953829,1.3345 -1.515393,1.8909 -2.347554,2.688 -1.090369,1.0447 -2.260807,0.9982 -3.467217,1.2637 -1.206412,0.2656 -2.192646,-0.075 -3.225344,-0.5194 -1.032695,-0.4453 -1.954768,-0.7252 -2.430536,-0.9526 -0.781072,-0.3733 -1.120971,-0.7584 -1.487589,-0.4211 -0.379412,0.349 0.739751,1.1499 1.215255,1.498 0.475504,0.3482 1.474711,0.871 1.877259,1.0285 1.448191,0.5672 3.093061,0.9179 4.584237,0.6703 0.735832,-0.1224 3.10643,-0.7392 3.933473,-1.3805 1.218834,-0.945 1.447465,-1.0784 2.625376,-2.8011 0.509639,-0.7454 1.163519,-1.9252 1.349836,-2.3912 0.216291,-0.5411 0.582145,-1.5683 0.712452,-2.7093 0.13031,-1.1412 0.18758,-2.6317 -0.486422,-4.8732 0.268792,-0.9159 0.293309,-1.8878 -0.209304,-3.5453 -0.134911,-1.3288 0.04921,-1.3127 -0.595489,-1.8299 -0.21681,-0.1739 -0.619318,-0.1208 -2.138349,-0.024 -1.519031,0.097 -3.2888,0.047 -5.631912,0.8032 z"
       id="path4178"
       inkscape:connector-curvature="0"
       sodipodi:nodetypes="ssssssssssssssssssssssssssssssssscccss" />
    <path
       style="color:#000000;font-style:normal;font-variant:normal;font-weight:normal;font-stretch:normal;font-size:medium;line-height:normal;font-family:sans-serif;text-indent:0;text-align:start;text-decoration:none;text-decoration-line:none;text-decoration-style:solid;text-decoration-color:#000000;letter-spacing:normal;word-spacing:normal;text-transform:none;direction:ltr;block-progression:tb;writing-mode:lr-tb;baseline-shift:baseline;text-anchor:start;white-space:normal;clip-rule:nonzero;display:inline;overflow:visible;visibility:visible;opacity:1;isolation:auto;mix-blend-mode:normal;color-interpolation:sRGB;color-interpolation-filters:linearRGB;solid-color:#000000;solid-opacity:1;fill:#cb9885;fill-opacity:1;fill-rule:evenodd;stroke:none;stroke-width:1.0629921;stroke-linecap:butt;stroke-linejoin:miter;stroke-miterlimit:4;stroke-dasharray:none;stroke-dashoffset:0;stroke-opacity:1;color-rendering:auto;image-rendering:auto;shape-rendering:auto;text-rendering:auto;enable-background:accumulate"
       d="m 50.697478,1036.7944 c -0.135986,-0.1853 -1.278846,0.3536 -1.603447,0.6525 -0.325464,0.2991 -0.488992,0.9685 -0.499117,1.1096 -0.705358,0.1208 -1.351938,0.5005 -1.815016,0.9557 -0.610684,0.6 -1.003343,1.2019 -1.104031,2.1202 -0.04026,0.3669 -0.02128,0.8893 0.220241,1.5043 0.09578,0.2438 0.427515,0.8809 0.682998,1.2216 0.325018,0.4337 0.325553,0.4471 0.750726,0.6652 -0.628542,0.5396 -0.04485,1.3502 0.160254,1.6384 0.196596,0.2763 0.701055,0.8332 1.193812,0.8332 0.52743,-1e-4 0.776661,-0.101 1.175,-0.3837 0.153304,-0.1104 0.375863,-0.3378 0.487325,-0.6122 0.42443,0.2689 1.126967,0.1979 1.500358,-0.1174 0.377656,-0.3189 0.780707,-0.9253 0.605507,-1.2841 0.62306,-0.1 1.22081,-0.9367 1.51553,-1.5676 0.342452,-0.733 0.386223,-1.4735 0.319523,-2.0574 -0.06669,-0.5838 -0.591803,-1.0005 -1.05492,-1.3024 -0.463054,-0.3016 -1.130807,-0.1723 -1.374686,-0.057 -0.234846,0.1104 -0.784303,0.551 -0.560222,0.7368 0.160738,0.1331 0.695543,-0.4765 1.410321,-0.052 0.318477,0.1892 0.449864,0.6697 0.4718,0.883 0.01841,0.1789 0.04941,0.8152 -0.115026,1.3518 -0.232172,0.9162 -0.40459,1.3404 -1.377504,1.6949 0.0016,0.3591 -0.02671,0.5992 -0.140016,0.7433 -0.124673,0.1591 -0.309128,0.323 -0.533228,0.3814 -0.384962,0.1 -0.520549,-0.022 -0.855905,-0.097 -0.0045,0.3427 -0.441939,0.7363 -0.665457,0.8805 -0.292408,0.1886 -0.713389,0.2697 -0.894018,0.2192 -0.367114,-0.1034 -1.015889,-0.6649 -0.896722,-1.2719 0.03662,-0.1866 0.07119,-0.4215 0.34893,-0.6424 -0.76204,-0.5575 -0.951867,-0.9982 -1.19311,-1.7852 -0.136659,-0.4457 -0.270905,-1.1864 -0.14933,-1.7391 0.101438,-0.4611 0.41295,-1.0145 0.742517,-1.3947 0.608609,-0.7022 1.525456,-0.8574 1.803356,-0.9247 -0.05419,-0.5076 -0.04203,-1.0417 0.374534,-1.4451 0.416556,-0.4036 0.599847,-0.581 1.069023,-0.8573 z"
       id="path4196"
       inkscape:connector-curvature="0"
       sodipodi:nodetypes="cscsssscssscscsssssssccsscssscssscsc" />
    <g
       id="g6442"
       transform="translate(16.874998,-38.374995)">
      <path
         sodipodi:nodetypes="cccccc"
         inkscape:connector-curvature="0"
         id="path4207-3"
         d="m 32.944573,1065.1328 c 0.982407,-0.7438 1.581386,-1.8372 3.140039,-2.0556 0.984699,0.4584 2.021972,0.8808 2.173873,1.9087 -0.03454,1.5731 -0.829072,2.4782 -1.288221,3.0834 -0.942038,0.3107 -1.763473,0.9513 -2.898497,0.7341 -1.188574,-1.2236 -1.204387,-2.447 -1.127194,-3.6706 z"
         style="display:inline;fill:#ffffff;fill-opacity:1;fill-rule:evenodd;stroke:none;stroke-width:0.29055119;stroke-linecap:butt;stroke-linejoin:miter;stroke-miterlimit:4;stroke-dasharray:none;stroke-opacity:1" />
      <path
         id="path4207"
         d="m 35.834612,1062.9522 c -1.558653,0.2184 -2.157632,1.3118 -3.140039,2.0556 -0.07719,1.2236 -0.06138,2.447 1.127194,3.6706 1.135024,0.2172 1.956459,-0.4234 2.898497,-0.7341 0.459149,-0.6052 1.253684,-1.5103 1.288221,-3.0834 -0.151901,-1.0279 -1.189174,-1.4503 -2.173873,-1.9087 z m -0.276767,1.0875 c 0.331595,0.015 0.598849,0.1558 0.67682,0.2914 0.220116,0.3832 -0.548007,0.5462 -0.953586,0.7707 -0.837285,0.4634 -1.401443,1.5646 -1.401443,1.5646 0,0 -0.01134,-1.5393 0.603854,-2.1771 0.344577,-0.3572 0.742761,-0.4653 1.074355,-0.4496 z"
         style="fill:url(#radialGradient6438);fill-opacity:1;fill-rule:evenodd;stroke:none;stroke-width:0.29055119;stroke-linecap:butt;stroke-linejoin:miter;stroke-miterlimit:4;stroke-dasharray:none;stroke-opacity:1"
         inkscape:connector-curvature="0" />
      <path
         sodipodi:nodetypes="ssssssssssssssssss"
         inkscape:connector-curvature="0"
         id="path4202"
         d="m 32.686352,1067.1586 c 0.179087,0.7348 0.391596,1.4433 1.172927,1.7697 0.782596,0.327 1.802665,-0.036 2.338479,-0.2444 0.56249,-0.2182 1.126523,-0.4917 1.560949,-0.9902 0.227448,-0.261 0.647755,-0.8469 0.812686,-1.5497 0.164932,-0.7027 0.301956,-1.5029 -0.04636,-2.1819 -0.348319,-0.6791 -1.035578,-1.1248 -1.440618,-1.2203 -0.458619,-0.1081 -1.09379,-0.4585 -1.816585,-0.1842 -0.811171,0.3075 -0.939356,0.7071 -1.328478,0.991 -0.603853,0.4406 -1.161886,0.8551 -1.370538,1.3847 -0.291589,0.7401 -0.04348,1.5645 0.117537,2.2253 z m 0.582946,-1.8961 c 0.09596,-0.6124 1.203139,-1.838 2.407664,-1.8592 1.057872,-0.019 1.389047,0.7129 1.54728,0.9833 0.158233,0.2706 0.398771,1.223 0.193648,1.7377 -0.361589,0.9072 -1.493025,2.0546 -2.570654,2.1359 -0.628837,0.047 -1.092799,-0.6168 -1.189935,-0.971 -0.120771,-0.4405 -0.508774,-1.2558 -0.388003,-2.0267 z"
         style="color:#000000;font-style:normal;font-variant:normal;font-weight:normal;font-stretch:normal;font-size:medium;line-height:normal;font-family:sans-serif;text-indent:0;text-align:start;text-decoration:none;text-decoration-line:none;text-decoration-style:solid;text-decoration-color:#000000;letter-spacing:normal;word-spacing:normal;text-transform:none;direction:ltr;block-progression:tb;writing-mode:lr-tb;baseline-shift:baseline;text-anchor:start;white-space:normal;clip-rule:nonzero;display:inline;overflow:visible;visibility:visible;opacity:1;isolation:auto;mix-blend-mode:normal;color-interpolation:sRGB;color-interpolation-filters:linearRGB;solid-color:#000000;solid-opacity:1;fill:#000000;fill-opacity:1;fill-rule:evenodd;stroke:none;stroke-width:0.063;stroke-linecap:butt;stroke-linejoin:miter;stroke-miterlimit:4;stroke-dasharray:none;stroke-dashoffset:0;stroke-opacity:1;color-rendering:auto;image-rendering:auto;shape-rendering:auto;text-rendering:auto;enable-background:accumulate" />
    </g>
    <path
       style="color:#000000;font-style:normal;font-variant:normal;font-weight:normal;font-stretch:normal;font-size:medium;line-height:normal;font-family:sans-serif;text-indent:0;text-align:start;text-decoration:none;text-decoration-line:none;text-decoration-style:solid;text-decoration-color:#000000;letter-spacing:normal;word-spacing:normal;text-transform:none;direction:ltr;block-progression:tb;writing-mode:lr-tb;baseline-shift:baseline;text-anchor:start;white-space:normal;clip-rule:nonzero;display:inline;overflow:visible;visibility:visible;opacity:1;isolation:auto;mix-blend-mode:normal;color-interpolation:sRGB;color-interpolation-filters:linearRGB;solid-color:#000000;solid-opacity:1;fill:#2e2e2e;fill-opacity:1;fill-rule:evenodd;stroke:none;stroke-width:1.77165353;stroke-linecap:butt;stroke-linejoin:miter;stroke-miterlimit:4;stroke-dasharray:none;stroke-dashoffset:0;stroke-opacity:1;color-rendering:auto;image-rendering:auto;shape-rendering:auto;text-rendering:auto;enable-background:accumulate"
       d="m 51.704453,981.04263 c -2.658687,0.66117 -4.827897,-0.1551 -10.772486,4.09604 -3.061309,2.18923 -0.0018,-1.8e-4 -0.0025,0 -0.0018,4e-4 1.233882,-0.89562 -0.005,0.002 -0.904981,0.65595 -2.342892,1.69135 -3.701118,2.7117 -1.345654,1.01089 -2.544042,1.97394 -3.263327,2.6681 -0.951242,0.91802 -1.783908,2.26074 -3.114876,3.87484 -1.32448,1.60626 -2.952819,3.60129 -5.575582,5.00134 -2.682819,1.43205 -6.365325,1.92335 -8.949614,4.34735 -1.403537,1.3165 -1.663132,3.1953 -1.36622,4.8889 0.264376,1.5081 1.007088,2.883 2.060653,3.9093 0.301629,4.392 1.486821,9 6.989603,12.2324 2.189177,1.2861 5.759573,2.0436 7.622169,1.7881 1.947993,0.9385 3.62061,2.0524 6.217684,2.2087 2.597072,0.1564 4.229315,0.4298 5.940331,1.5767 0.869885,0.5831 1.45352,1.6351 2.512109,2.2059 -0.114767,0.5813 0.192457,1.1113 0.35087,1.6242 -0.989595,0.9898 -1.681597,1.9855 -2.417486,3.3056 -0.32195,0.5775 -0.776986,1.6064 -0.577903,2.5212 0.143185,0.6579 0.306545,1.257 0.64899,1.7116 0.342446,0.4545 0.455836,0.6622 0.500936,0.8675 -0.853566,1.0503 -1.116391,1.292 -1.12517,1.877 -0.0071,0.478 0.37295,1.4161 0.883184,1.6683 -0.22168,0.3631 -0.0863,0.6815 0.09481,1.2663 0.2477,0.7997 0.564474,1.0764 0.987609,1.4877 1.435385,1.3952 5.912108,4.2827 9.818653,1.9787 1.188044,1.5058 4.475384,0.8046 6.039967,-0.058 1.433537,-0.7887 2.417324,-1.8434 3.303582,-2.7805 0.701694,0.2857 1.399387,0.6346 2.133615,0.608 0.96186,-0.035 1.920374,-0.3331 2.953852,-0.6814 2.118278,0.3982 5.053085,0.9409 7.129788,0.2551 2.076703,-0.686 4.013353,-1.5159 6.232394,-3.29 1.21334,0.096 2.166064,-0.157 3.641326,-0.4453 1.385626,-0.2708 2.90465,-0.8748 4.438325,-2.0281 1.062088,0.012 2.019659,0.1698 3.233133,-0.08 1.332569,-0.2745 2.697397,-1.057 3.819466,-2.1251 l 1.071532,-1.6275 c 0.680698,-1.0339 1.708618,-1.9569 2.621938,-2.6847 0.81629,-0.6506 1.70463,-1.1026 2.58149,-0.8765 0.57203,0.1476 0.34728,1.2831 1.01021,1.2041 l 0.76611,-0.092 c 0.71651,-0.1961 1.30292,-0.738 1.58009,-1.3261 0.27717,-0.5881 0.3524,-1.2169 0.36231,-1.9294 0.0195,-1.4022 -0.26041,-3.1854 -0.5963,-5.3843 -0.0525,-0.8793 -0.41708,-1.7185 -0.74979,-2.4617 0.2041,-0.8014 0.38418,-1.8588 0.0327,-3.143 -0.0815,-0.728 -0.43867,-1.3001 -0.88061,-1.9385 -0.42148,-0.609 -0.9712,-1.3348 -1.57758,-2.2231 0.26049,-2.855 -0.56985,-5.2466 -2.11097,-7.0362 -1.49078,-1.7311 -3.509448,-2.9271 -5.532805,-3.8864 0.108759,-1.2761 -0.247067,-2.7557 -1.642985,-4.4574 -0.578488,-3.43276 -1.858546,-6.88445 -4.176655,-10.30773 l -0.0077,-0.0111 -0.0077,-0.0141 c -1.503528,-2.09421 -3.421562,-4.24167 -6.702774,-5.38672 -2.243946,-2.23818 -3.642487,-2.25738 -4.542126,-2.74643 -0.899637,-0.48905 -1.694402,-1.31213 -3.247583,-1.86483 -1.553182,-0.55268 -3.718409,-0.49095 -6.129323,-0.3572 -2.410916,0.13376 -3.082973,-0.83276 -4.941137,-1.29802 -1.858165,-0.46524 -3.734371,-0.77146 -6.389911,-0.78627 -2.65554,-0.0147 -4.813617,0.77918 -7.472306,1.44033 z m 2.396535,43.53027 c -0.112565,-0.9958 -0.636344,-1.7196 -0.269027,-2.2612 0.367316,-0.5416 0.684005,-1.0703 1.284747,-1.7193 0.344161,-0.3718 1.445068,-0.9629 1.126695,-1.264 -0.388585,-0.3673 -2.782179,1.3108 -3.375346,2.1855 -0.512513,0.7559 -1.025939,1.6073 -1.006359,2.7539 0.809227,-0.2991 1.536688,-0.077 2.23929,0.3051 z m -4.620081,4.1573 c -1.749756,-1.2016 -2.718382,-3.306 -1.979597,-4.9236 -0.868525,-1.1844 -1.518883,-2.5095 -1.138251,-3.5964 0.434759,-1.2417 1.292266,-1.9236 2.403921,-2.6152 -0.812887,-0.6476 -1.182565,-1.4046 -1.513384,-2.25 -0.174348,-0.4456 -0.0069,-1.1084 0.245784,-1.4219 0.505356,-0.6268 2.030997,-1.641 3.044774,-1.6217 l 0.08712,-0.4175 c -0.986282,-0.022 -3.00173,0.4554 -3.892341,1.5601 -0.445304,0.5522 -0.673127,1.2872 -0.518306,2.0716 0.119379,0.6048 0.639183,1.2463 1.187578,1.8926 -0.771977,0.5711 -1.537883,1.3176 -1.93988,2.363 -0.460577,1.1978 -0.330225,2.7078 0.671789,4.3084 0.01,0.8561 -0.146523,3.9053 2.277031,5.6529 -0.498539,0.1008 -1.527931,0.7147 -1.49444,1.2897 -0.86044,-0.449 -1.032505,-1.2617 -2.718242,-2.3909 -1.685736,-1.1292 -4.039745,-1.259 -6.471946,-1.406 -2.432203,-0.147 -2.195239,0.1261 -5.909485,-1.6915 -3.189263,0.012 -4.870274,-0.8276 -7.010723,-2.085 -4.849649,-2.8489 -5.842114,-6.3121 -6.073826,-8.4078 -0.155556,-1.4067 -0.120694,-2.3485 -0.09149,-4.0327 0.01058,-0.6085 0.506693,-2.6324 0.672133,-3.0907 0.314296,-0.8708 1.340932,-1.7529 1.071987,-1.9729 -0.24568,-0.2006 -1.48967,1.2941 -1.692122,1.8706 -0.330462,0.941 -0.5769,1.6925 -0.663154,2.5796 -0.378646,-0.6043 -0.696622,-1.3325 -0.827782,-2.0807 -0.221188,-1.2618 -0.42547,-2.745 0.294331,-3.4201 1.981855,-1.8589 5.70117,-2.2382 8.747059,-3.8661 3.045891,-1.62799 4.283856,-3.7236 5.708128,-5.45093 1.424274,-1.72722 3.095243,-3.31126 3.588593,-3.7893 0.493352,-0.47811 1.938701,-1.42292 3.271218,-2.42396 1.330508,-0.99952 1.729575,-1.97158 5.004811,-4.3179 3.275236,-2.34632 4.885433,-1.77548 8.397401,-2.67142 3.511968,-0.89593 5.813321,-1.47135 7.902632,-1.35695 2.089323,0.1144 3.557106,0.55655 5.193675,1.00387 0.962243,0.26301 2.306211,1.4458 4.84153,1.28255 2.535321,-0.16324 4.472618,-0.0809 5.763497,0.23024 3.273716,0.78926 6.051753,3.13305 7.526981,4.39223 3.023989,0.65619 4.555398,2.3427 6.409329,5.01853 1.853934,2.67575 3.84371,6.43276 4.010331,10.22924 2.01691,2.1351 1.158767,2.9906 0.890498,4.0227 l -0.21135,0.8076 0.81772,0.3671 c 2.056788,0.9215 4.105622,1.4734 5.421951,3.0018 1.31633,1.5286 1.53848,4.286 1.78563,6.4535 0.70261,1.8821 1.73376,2.3058 2.13709,2.8886 0.40339,0.5829 0.96982,1.7556 0.78617,2.4068 -0.24995,0.8866 -0.2825,1.2318 -0.20358,2.3125 0.079,1.0808 1.06707,2.2671 1.25759,3.669 0.24929,1.6269 1.12152,4.0359 -0.31162,4.8551 -0.78659,0.1315 -1.61752,-1.0748 -2.23553,-1.0627 -1.22965,0.024 -2.3096,0.6754 -3.3061,1.3672 -0.996564,0.692 -1.759276,1.3979 -2.285022,2.2675 -0.271059,0.4483 -0.510767,0.9593 -1.422147,2.1273 -0.911381,1.1679 -2.179744,1.5127 -2.925152,1.6664 -0.771102,0.1591 -1.65022,2e-4 -3.437132,0.727 -1.777209,0.7259 -2.924718,1.8346 -4.90861,1.7978 1.916967,-0.8935 3.140934,-2.6278 3.738843,-4.1032 0.339785,-0.8384 0.922203,-2.0517 0.864883,-3.222 -0.06886,-1.4055 -0.261381,-1.9501 -0.764241,-2.8275 -0.493041,-0.8604 -0.781634,-1.003 -1.366217,-0.7457 -0.04931,0.022 0.674528,1.0805 0.910811,1.9936 0.236284,0.9128 0.243386,2.7039 -0.706155,4.517 -0.949541,1.813 -2.694999,3.2614 -5.501349,4.3663 -1.496915,1.9353 -4.404592,3.2182 -6.366315,3.8468 -1.961725,0.6289 -4.249112,0.031 -6.225417,-0.7913 -1.862443,0.4762 -2.820586,0.6399 -3.455274,0.663 -0.634685,0.023 -1.079859,-0.083 -1.700853,-0.4955 l -0.860492,-0.5713 -0.684368,0.7432 c -0.921568,0.9997 -2.006616,2.0934 -3.280937,2.7944 -1.274322,0.7011 -3.079845,1.8057 -4.870899,0.7825 -1.278667,0.7159 -4.309186,0.3616 -5.714616,-0.097 -1.584944,-0.517 -2.869315,-1.1001 -3.366513,-2.7023 -0.258121,-0.2071 -0.526847,-0.7807 0.05081,-1.1883 -0.487817,-0.1743 -0.672223,-0.5892 -0.730642,-0.8007 -0.116842,-0.423 -0.0579,-0.5775 0.85351,-1.4229 -0.07468,-0.8333 -0.104291,-1.5916 0.116494,-2.2576 l -0.04834,-0.4559 c -1.03731,0.2448 -1.56936,-0.2684 -1.76777,-0.5155 -0.2036,-0.2534 -0.03105,-1.6987 0.401134,-2.4199 0.616205,-1.0283 1.338251,-1.8942 2.327549,-2.7541 l 0.81514,-0.5327 c -0.710531,-0.8107 -0.971002,-1.8209 -0.746298,-2.5322 0.288216,-0.9125 1.282852,-1.3646 2.126184,-1.9598 0.325136,-0.3569 -0.06247,-0.4548 0.366546,-0.3574 -0.70709,-0.6555 -0.534688,-0.7763 -0.652261,-1.0735 z"
       id="path4170"
       inkscape:connector-curvature="0"
       sodipodi:nodetypes="sssssssssscscssccssccscsscccccscccscsssscsscccccccccccccsssssccsscccccscssccsscscccsscsssssscssssssssssssccccccccsscccsssssccsssssscsccccsccsccccccssccsccc" />
    <path
       style="color:#000000;font-style:normal;font-variant:normal;font-weight:normal;font-stretch:normal;font-size:medium;line-height:normal;font-family:sans-serif;text-indent:0;text-align:start;text-decoration:none;text-decoration-line:none;text-decoration-style:solid;text-decoration-color:#000000;letter-spacing:normal;word-spacing:normal;text-transform:none;direction:ltr;block-progression:tb;writing-mode:lr-tb;baseline-shift:baseline;text-anchor:start;white-space:normal;clip-rule:nonzero;display:inline;overflow:visible;visibility:visible;opacity:1;isolation:auto;mix-blend-mode:normal;color-interpolation:sRGB;color-interpolation-filters:linearRGB;solid-color:#000000;solid-opacity:1;fill:#9a6e63;fill-opacity:1;fill-rule:evenodd;stroke:none;stroke-width:1.77165353;stroke-linecap:butt;stroke-linejoin:miter;stroke-miterlimit:4;stroke-dasharray:none;stroke-dashoffset:0;stroke-opacity:1;color-rendering:auto;image-rendering:auto;shape-rendering:auto;text-rendering:auto;enable-background:accumulate"
       d="m 54.152442,1000.1003 c -0.176987,0.012 -0.355827,0.037 -1.008579,0.3465 -0.652752,0.3097 -1.182469,1.0425 -1.364063,1.7435 -0.181626,0.701 -0.105064,1.3416 0.03085,2.0399 0.135907,0.6985 0.299895,1.226 0.587962,2.0932 0.228966,0.6892 0.316478,1.5664 0.220669,2.1279 -0.555327,0.5505 -2.448872,1.882 -2.820897,2.6901 -0.337392,0.7327 -0.322173,1.6293 0.03492,2.9198 0.606355,2.1915 2.988375,4.7854 4.781297,6.5153 l 0.844771,-0.6505 c -1.47852,-1.6052 -2.620297,-2.9346 -3.713016,-4.6715 -0.984573,-1.565 -0.780294,-2.4911 -0.90184,-2.9349 -0.174741,-0.6378 0.959349,-2.9001 2.038629,-2.7836 0.136561,0.7714 -0.210359,2.3969 0.239974,3.839 0.4683,1.4996 1.839862,3.3341 2.106048,3.3209 0.16048,-0.01 -0.194398,-0.9802 -0.431244,-1.8711 -0.15844,-0.596 -0.548875,-1.1682 -0.636321,-1.8625 -0.133983,-1.0637 0.05971,-2.3084 -0.111689,-3.542 -0.283294,-2.0384 -0.490446,-3.8107 -0.796271,-5.2386 -0.106631,-0.4978 -0.09864,-1.4355 -0.03135,-1.6876 0.109972,-0.4124 0.39041,-0.933 1.06374,-1.0107 0.223361,-0.026 1.255356,0.3517 2.372373,1.382 1.117016,1.0304 1.247374,3.2501 2.525653,4.8266 1.278278,1.5766 2.362592,1.1424 2.941274,2.9615 0.469491,1.4758 0.845339,5.51 1.325489,5.4912 0.478602,-0.019 0.410792,-1.1972 0.455037,-2.0124 0.08298,-1.5286 0.440456,-2.2807 -0.03385,-3.8345 -0.46774,-1.5322 -0.0039,-0.01 -0.005,-0.011 -0.0015,0 0.459857,1.3915 -0.0025,-0.014 -0.748021,-2.2732 -2.398232,-2.7393 -2.961397,-3.4756 -1.246226,-1.6294 -2.049272,-3.6426 -3.266533,-4.7674 -1.217228,-1.1247 -1.533574,-1.4372 -2.052376,-1.6814 -0.389147,-0.1834 -0.900687,-0.2825 -1.431641,-0.2478 z"
       id="path4174"
       inkscape:connector-curvature="0"
       sodipodi:nodetypes="ssssscssccsscssssssssssssssssssss" />
  </g>
</svg>
