<?xml version="1.0" encoding="utf-8"?>

<!DOCTYPE svg PUBLIC "-//W3C//DTD SVG 1.1//EN" "http://www.w3.org/Graphics/SVG/1.1/DTD/svg11.dtd">
<svg version="1.1" id="Ebene_1" xmlns="http://www.w3.org/2000/svg" xmlns:xlink="http://www.w3.org/1999/xlink" x="0px" y="0px"
	 viewBox="539.3286 -27.8735 1512.2233 1644.3754" enable-background="new 539.3286 -27.8735 1512.2233 1644.3754"
	 xml:space="preserve">
<g>
	<g>
		<g>
			<path fill="#CA9E67" stroke="#7D4E24" stroke-width="7.7335" stroke-miterlimit="10" d="M1304.614,787.6495
				c-16.5253-1.9135-197.7821,32.3549-209.7847,0c-12.1766-32.3549-20.1783-113.0681-104.8924-137.2472
				c0,0,24.1792-72.7115,0-108.8932c-24.1791-36.3557-113.0681,12.1765-141.248,104.8923c0,0-165.4273-8.0018-229.9631,217.9604
				l32.3549,68.5367c0,0,173.603,16.1774,165.4273,24.1793c-8.0018,8.0016,50.7936,121.5916,50.7936,121.5916l-103.1529-81.235
				c0,0-84.7141-72.7114-145.249,0s24.1791,96.8907,24.1791,96.8907l40.3566-28.1801c0,0,108.8932,92.8898,145.249,117.0688
				c36.3557,24.1792,213.9597,48.3584,213.9597,48.3584s36.3557,36.3557,56.5339,36.3557
				c20.1783,0,4.0009,157.4255,84.7141,201.7831h-104.8923c0,0-125.0707-48.3584-145.249-28.1802
				c-20.1783,20.1783-52.5331,40.3567-40.3566,68.5367c12.1765,28.1801,80.7132,56.5341,121.0698,28.1801
				c40.3566-28.1801,221.9613,31.4851,335.0294,11.6548c113.068-19.8304,223.005,38.443,287.5406-58.4475
				c0,0,34.6163-178.4735-44.0095-346.1622C1490.0457,927.1581,1341.3176,791.9982,1304.614,787.6495z"/>
			<g>
				<path fill="#FFFFFF" d="M826.945,785.2142c-5.3925,5.2186-39.8348,37.2255-74.9728,27.4843
					c-3.8269-1.0438-13.2203-6.7841-16.5253-19.8304c-3.1311-13.2203,2.7832-25.5708,13.2203-33.0507
					C760.3218,751.2938,801.0263,759.2955,826.945,785.2142z"/>
				<path fill="#432918" d="M746.9276,810.611c0,0-28.0061-15.3077-6.0883-45.4012c0,0,11.6547-13.9161,39.139-6.7841
					c27.4843,7.132,35.8339-19.8304,35.8339-19.8304s0.5219,22.4396-15.4816,28.5279c0,0,18.7867,4.6967,42.7919-21.9178
					c0,0-13.9161,32.7027-28.8759,30.4414c0,0,24.1792,9.3933,52.881-22.4397c0,0-11.6547,32.8767-40.0087,31.833l-10.4371,8.8715
					c0,0-5.0446-19.3086-32.8767-32.007c0,0,21.396,29.5717-2.0874,50.4457C781.5438,812.5245,760.1478,819.8304,746.9276,810.611z"
					/>
			</g>
			<path fill="#936037" stroke="#7D4E24" stroke-width="7.7335" stroke-miterlimit="10" d="M1892.0461,407.5669
				c-24.0051-54.2726,45.5752,96.8906,45.5752,96.8906c19.6564-13.916,9.5673-39.4868,9.5673-39.4868
				c18.7866-10.4371,46.0969,49.9239,46.0969,49.9239c-1.2177-46.4449-51.1415-97.4125-51.1415-97.4125
				c19.1345-12.1765,40.0087,17.3951,40.0087,17.3951c0-34.7902-45.2273-52.1853-57.4038-86.9754s36.5297,10.437,36.5297,10.437
				c-6.958-59.1433-66.1013-60.8828-80.0173-93.9335c-13.9161-33.0507,55.6642,6.958,55.6642,6.958
				c-10.437-48.7062-111.3285-64.3618-120.026-90.4545c-8.6976-26.0926,78.2778,5.2185,78.2778,5.2185
				c-46.9667-66.1013-113.0681-31.3112-147.8583-66.1013s60.8828-37.7473,60.8828-37.7473
				c-66.1013-30.7893-140.9001,15.1337-163.5138,0s38.2692-28.354,38.2692-28.354
				c-90.4543-17.3951-130.4631,45.2272-158.2953,28.354c-27.832-16.8732,34.7902-45.7491,34.7902-45.7491
				c-99.152,8.6975-130.4631,78.2779-158.4691,71.3199c-28.0061-6.958,22.7875-53.9248,22.7875-53.9248
				c-81.7568,24.3531-88.715,135.6817-113.068,132.2027c-24.3531-3.479,6.958-76.5384,6.958-76.5384
				c-59.1433,66.1013-55.6643,184.3879-71.3198,177.4299c-15.6556-6.958-13.9161-64.3618-13.9161-64.3618
				c-29.5717,60.8828-6.958,90.4544-18.2648,161.7743c-11.3069,71.3199-20.0044,60.8828-20.0044,60.8828
				c-22.6136,12.1766-33.0507-60.8828-33.0507-60.8828c-17.3951,88.7149,62.6223,196.5645,48.3583,203.8704
				c-14.2639,7.306-48.3583-45.5751-48.3583-45.5751c20.8741,99.152,89.2368,155.3381,89.2368,155.3381
				c-32.5289,10.9589-44.5315-3.827-44.5315-3.827c38.2692,52.1852,103.8488,94.9772,103.8488,94.9772
				c409.4802,307.7191,326.8536,702.4136,326.8536,702.4136s504.8053,270.8416,254.838-550.3806c0,0-42.9659-85.7578-6.958-155.8599
				c0,0-46.271,17.3951-45.7491,38.0952s-45.9231-74.451-7.6538-163.6878c0,0-37.7474,14.9598-46.097,52.1853
				c0,0-54.7944-76.5384-3.653-158.8172c0,0-54.4465,13.9161-52.1852,54.6205c0,0-36.0078-72.0156,18.6128-126.4622l-53.229-4.3488
				c0,0,3.479-64.0139,83.4965-54.7945c0,0,4.6967-19.3085-30.0935-35.1381c0,0,93.9335-19.3086,126.4623,64.1879
				C1873.7814,451.0546,1901.0916,427.9191,1892.0461,407.5669z"/>
		</g>
		<path fill="#936037" d="M888.1757,645.8795c0,0,32.5287-77.5821,71.8417-77.756c0,0,33.5725,2.2614,0,77.756
			C960.0174,645.8795,918.0952,639.0955,888.1757,645.8795z"/>
	</g>
	
		<ellipse transform="matrix(0.4904 0.8715 -0.8715 0.4904 1771.9141 -1175.4698)" fill="#CA9E67" cx="1891.0763" cy="927.3911" rx="10.0892" ry="6.958"/>
	
		<ellipse transform="matrix(0.6562 -0.7546 0.7546 0.6562 -329.0536 831.757)" fill="#CA9E67" cx="748.2509" cy="776.9849" rx="10.0892" ry="6.9581"/>
</g>
</svg>
