<?xml version="1.0" encoding="UTF-8"?>
<svg version="1.1" viewBox="0 0 437.43 233.4" xmlns="http://www.w3.org/2000/svg" xmlns:cc="http://creativecommons.org/ns#" xmlns:dc="http://purl.org/dc/elements/1.1/" xmlns:rdf="http://www.w3.org/1999/02/22-rdf-syntax-ns#">
<metadata>
<rdf:RDF>
<cc:Work rdf:about="">
<dc:format>image/svg+xml</dc:format>
<dc:type rdf:resource="http://purl.org/dc/dcmitype/StillImage"/>
<dc:title>Green Turtle</dc:title>
<dc:date>02/13/2015</dc:date>
<dc:creator>
<cc:Agent>
<dc:title>edited by Paul Sherman</dc:title>
</cc:Agent>
</dc:creator>
<dc:rights>
<cc:Agent>
<dc:title>pd</dc:title>
</cc:Agent>
</dc:rights>
<dc:publisher>
<cc:Agent>
<dc:title>wpclipart</dc:title>
</cc:Agent>
</dc:publisher>
<cc:license rdf:resource="http://creativecommons.org/licenses/publicdomain/"/>
</cc:Work>
<cc:License rdf:about="http://creativecommons.org/licenses/publicdomain/">
<cc:permits rdf:resource="http://creativecommons.org/ns#Reproduction"/>
<cc:permits rdf:resource="http://creativecommons.org/ns#Distribution"/>
<cc:permits rdf:resource="http://creativecommons.org/ns#DerivativeWorks"/>
</cc:License>
</rdf:RDF>
</metadata>
<title>Green Turtle</title>
<path d="m383.19 40.385c-2.8389 0.40117-5.6778 0.80355-8.5168 1.2047h35.267 0.99735c-4.5028-0.7841-9.0326-1.4904-13.609-1.6484-2.464-0.0851-4.9182-0.10941-7.3822-0.05227-1.1873 0.02674-2.3733 0.09117-3.5594 0.14466-0.85645 0.03647-2.5743-0.06929-3.1967 0.35133" clip-rule="evenodd" fill-rule="evenodd"/>
<path d="m374.67 41.59c-10.467 1.8113-21.337 3.5935-31.209 7.6174-2.399 0.97861-4.6315 2.6088-6.6458 4.2013-1.8465 1.4624-4.0666 3.2871-5.14 5.4182-0.54768 1.0892-1.2498 2.0508-1.7031 3.196-0.2426 0.61634-0.46557 1.2096-0.64445 1.8466-0.22671 0.80234-0.54159 0.96402-1.077 1.5998-1.6308 1.9366-2.3194 4.5928-3.0607 6.9536-0.16294 0.51422-0.3247 1.0297-0.4852 1.5451-0.0466-0.04618-0.0919-0.09239-0.13845-0.13737-0.31368 0.39631-0.6261 0.79383-0.93978 1.1901-0.25729 0.32701-0.17398 0.67104-0.22791 1.0746-0.16784 1.2497-0.29161 1.9876-0.92016 3.0683 0.62245 0 3.2028 0.33674 3.465-0.14831 0.59794-1.1075 1.2216-2.2113 1.7325-3.3625 0.99982-2.2551 2.1908-4.4469 3.1183-6.719 0.97653-2.3888 2.181-4.7143 3.6084-6.8709 0.65305-0.98712 1.3796-2.0131 2.1454-2.9164 0.91404-1.0783 1.8845-1.8174 3.0656-2.5979 4.4783-2.9589 9.7739-4.3436 14.85-5.9215 4.8679-1.5135 9.943-2.7644 14.959-3.6835 10.516-1.9268 21.235-3.3078 31.929-2.0119 5.3691 0.65038 10.625 1.5633 15.877 2.8617 2.6196 0.64796 5.1289 1.6594 7.4287 3.0647 0.45457 0.27838 2.5902 1.4381 2.6564 1.939 0.16661 1.285 0.33203 2.5699 0.49623 3.8549 0.68979 5.3915 0.99611 10.815 0.99611 16.249 0 1.3141-0.0184 2.6271-0.0319 3.94-6e-3 0.48141-0.0735 0.95916-0.0735 1.4406 0 0.9859-0.0625 0.88257 0.88955 0.88257h2.709c0.93239 0 0.88585 0.11549 0.91158-0.84732 0.0355-1.3239 0.11027-2.6489 0.14825-3.974 0.15072-5.2176 0.0747-10.506-0.41535-15.703-0.23403-2.4885-0.37002-5.1799-1.0647-7.593-0.18872-0.65767-0.23528-0.98712-0.77805-1.4722-0.40803-0.3647-0.87116-0.62122-1.3478-0.88501-1.1811-0.65524-2.3549-1.3178-3.5728-1.9025-4.7834-2.2915-9.8253-4.1515-15.051-5.1568-1.4274-0.27596-3.1024-0.03769-4.5482-0.03769h-10.608c-7.1016-0.0024-14.202-0.0024-21.304-0.0024" clip-rule="evenodd" fill-rule="evenodd"/>
<path d="m226.06 39.49c-1.2179 0.55799-2.3341 1.3591-3.4442 2.0994h5.2233c1.3527 0 2.5387-0.95794 3.8743-0.88378 1.6112 0.08874 3.0876 0.37685 4.6216 0.86798 0.63594 0.20302 1.6137 0.0158 2.2753 0.0158h2.4676c-3.0827-2.1347-6.5208-3.9205-10.118-5.0231-0.18501 0.4498-0.82337-0.52395-1.0427-0.75736-0.42271-0.45101-0.843-0.90081-1.2816-1.336-1.0316-1.0199-2.0731-2.0265-3.1256-3.027-1.8305-1.7445-3.835-3.365-5.8506-4.8918-4.1463-3.1401-8.605-6.1342-13.298-8.4124-0.95204-0.46195-1.0721-0.32944-0.80131-1.3591 0.0723-0.27474 0.26956-1.0406 0.11028-1.2728-0.69351-1.0029-1.4703-2.052-2.5179-2.7231-2.0952-1.3421-4.618-2.187-6.968-2.9978-5.1902-1.7907-10.461-3.2008-15.862-4.1989-4.9562-0.9154-10.143-1.5719-15.192-1.5719-4.9513 0-10.165-0.2018-15.05 0.73548-10.681 2.0496-21.366 4.1989-31.841 7.1311-5.048 1.4126-9.47 4.0141-13.234 7.6137-1.8305 1.7506-3.3842 3.9339-4.5886 6.1476-0.46684 0.85826 0.0858 2.4581 0.0858 3.4343 0 0.65524-0.12989 1.2619 0.27813 1.7931 0.0527 0.06929 0.49744 0.59324 0.45579 0.62971-0.35042 0.30027-0.69961 0.60054-1.0488 0.90081-3.1636 2.7182-5.8861 5.975-8.5168 9.188h6.4902c0.18623 0 0.71065-0.7136 0.83685-0.84246 0.4374-0.44736 0.87605-0.89473 1.3135-1.3421 0.72167-0.73791 1.5206-1.4138 2.2778-2.1165 0.90423 1.099 1.8293 2.114 2.8561 3.1024 0.35533 0.3416 0.92998 1.0333 1.3858 1.1986 0.31244 0.11427 0.88588 0 1.213 0h9.8437c-4.6008-2.3377-8.9297-5.3696-12.385-9.216-0.45947-0.51058-0.91894-1.0224-1.3747-1.5378-0.42517-0.4814-0.1115-1.1342-0.0515-1.7639 0.0674-0.70144 0.0956-1.0199 0.40065-1.6776 0.25363-0.54218 0.72046-1.1695 1.1015-1.6326 1.5953-1.9366 3.7101-3.3747 5.8984-4.5879 9.2188-5.1143 19.017-9.1138 29.489-10.864 10.252-1.7141 20.948-2.7365 31.322-1.5208 5.2993 0.61999 10.534 1.4588 15.67 2.9188 2.7188 0.77316 5.3617 1.6545 8.0144 2.6307 1.2657 0.4656 2.5032 0.99806 3.7493 1.5147 1.0721 0.44372-0.2083 2.6769-0.47173 3.2373-0.55135 1.1743-0.68367 2.4058-0.92019 3.6616-0.24012 1.2692-0.51334 2.1177-1.3428 3.134-1.5316 1.8758-2.8242 3.9144-4.2541 5.8704-1.3123 1.7955-2.91 3.3893-4.3839 5.0559-0.50973 0.57622-1.0182 1.1512-1.5279 1.7275-0.28673 0.32458-1.5451 0.41576-1.9592 0.52274-1.3527 0.35011-2.7078 0.69171-4.0617 1.0345-2.2128 0.5592-4.4587 1.009-6.6887 1.4941h8.137 5.5933c0.66528 0 1.9114 0.24921 2.5424 0 0.44967-0.17749 1.017-0.85948 1.3906-1.1877 0.47786-0.41697 0.93367-0.85826 1.3576-1.3299 0.8393-0.93606 1.6234-1.9293 2.2937-2.9881 0.593-0.93728 1.0341-1.9657 1.7558-2.8216 0.8209-0.97375 1.6075-1.8709 2.3035-2.9601 1.8122-2.8386 3.3033-5.6772 4.6327-8.7722 8.7165 4.2171 16.135 10.24 21.941 17.957m-124.37-7.3973c0.0135-0.04863-0.0478-0.18478 0.0343-0.10333 0.0662 0.06686-0.0159 0.03404-0.0343 0.10333" clip-rule="evenodd" fill-rule="evenodd"/>
<path d="m228.71 41.59h-4.4367-1.6369c-0.37003 0-1.1922 0.75615-1.5046 0.98834-2.1699 1.6108-4.2529 3.2872-6.1728 5.1872-3.7248 3.6871-6.7095 7.7377-9.3512 12.237-0.2193 0.37321-0.40189 0.76222-0.59423 1.15-0.0919 0.18721-0.29899 0.45952-0.33084 0.66862-0.0466 0.31121 0.31858 0.15439 0.12252 0.56406-0.20337 0.4194-0.23032 0.9312-0.43494 1.3287-0.21197 0.40968-0.78051 0.6905-0.93857 1.1354-0.2377 0.66984-0.0796 1.8952-0.0674 2.6088 0.022 1.0795 0.0625 2.1493 0.12743 3.2264 0.11027 1.8186 0.53665 3.6579 1.001 5.4133 0.26342 0.9932 0.62856 1.9524 0.97409 2.9188 0.14459 0.4036 2.3537 0.14467 2.8328 0.14467-0.99859-2.294-1.9372-4.6244-2.0254-7.1663-0.0846-2.4508 0.10047-4.8712 0.95326-7.1992 0.21564-0.58717 0.35164-1.3202 0.75966-1.8053 0.41657-0.49599 0.718-1.1257 0.91034-1.7372 0.37493-1.1877 1.0538-2.2247 1.7411-3.2774 1.3576-2.0788 2.9198-4.115 4.6682-5.8875 2.1074-2.1359 4.417-4.0433 6.6605-6.037 2.0817-1.8502 4.1879-3.3261 6.7426-4.4615" clip-rule="evenodd" fill-rule="evenodd"/>
<path d="m241.08 41.59h-4.6928c2.2827 0.95551 4.1683 2.3912 5.7367 4.301 1.4593 1.7785 2.9333 3.4792 4.493 5.1787 3.7248 4.0567 7.4496 8.1121 11.162 12.181 2.7409 3.0027 5.521 5.9738 8.1798 9.0482 1.2902 1.4916 2.5559 3.0003 3.8191 4.5138 0.50602 0.60662 1.0721 1.1524 1.5879 1.7481 0.3639 0.42062 0.42519 0.60297 0.97653 0.60297h1.561c-5.4892-8.9473-12.5-17.186-19.558-24.945-4.1083-4.5174-8.284-9.047-13.266-12.628" clip-rule="evenodd" fill-rule="evenodd"/>
<path d="m325.85 79.162h-2.045c-0.93121 0-1.2155-0.21274-1.6431 0.6054-0.5869 1.1208-0.95693 2.3511-1.24 3.5765-0.25853 1.1208-1.2228 2.3171-1.8256 3.309-0.6298 1.037-1.24 2.1092-1.8882 3.1498-1.3245 2.1226-2.8083 4.1928-4.3827 6.1403-0.9422 1.1658-1.8942 2.3183-2.8585 3.4646-0.79152 0.9385-1.8501 1.6837-2.6637 2.6283-0.28918 0.33673-0.54525 1.1148-0.99616 1.2205-0.63465 0.15074-1.2669 0.31243-1.9077 0.43643-1.3037 0.25285-2.6098 0.41454-3.9306 0.55312 0.25975-0.75492 0.51214-1.5038 0.73025-2.2709-5.2711-1.043-10.282-2.6003-15.115-4.9502-1.1566-0.56285-2.2949-1.1683-3.4295-1.7749-0.35534-0.18964-1.1995-0.48141-1.3662-0.81815-0.31614-0.64187-0.63349-1.2813-0.96919-1.9122-0.58691-1.1014-1.2106-2.1797-1.9151-3.2118-0.33327-0.48991-0.67882-0.96159-1.039-1.4333-0.3651-0.48018-1.0856-1.1014-1.1578-1.7177-0.17889-1.5135-0.51216-3.0987-1.115-4.5077-0.31001-0.72332-0.65428-1.4308-1.0096-2.1335-0.33693-0.66619-1.4973-0.35254-2.1956-0.35254 6.5747 9.1041-3.4308 17.974-10.464 22.868-4.1843 2.9115-8.7863 5.7185-13.665 7.3074-2.437 0.79383-4.9746 1.2412-7.5451 1.2047-2.6147-0.0377-5.1816 0.18843-7.615-0.9628-1.153-0.54584-1.9751-1.336-2.9884-2.0642-1.0721-0.77195-2.0732-1.4685-3.0497-2.3766-0.91034-0.84975-2.0633-1.4394-3.0043-2.2721-0.97529-0.86069-1.8967-1.7955-2.7789-2.7486-3.4871-3.7698-6.4583-7.9857-8.8304-12.524 0.35168 1.2412 0.73393 2.4739 1.1101 3.7078 0.32838 1.0747 0.51582 2.5468 1.0611 3.5121 1.3025 2.3049 2.4358 4.7058 3.791 6.9803 2.5779 4.3326 6.0785 8.3638 10.167 11.36 0.93977 0.68807 2.0352 1.8004 3.2077 2.0496 1.1211 0.23827 2.4187 0.0596 3.5496-0.0717 2.589-0.30149 5.2122-0.52638 7.7522-1.1354 5.1081-1.2254 10.08-2.8653 14.675-5.4401 6.9178-3.8755 13.243-8.4914 17.514-15.252 0.75475 2.3195 1.5818 4.6147 2.5522 6.8551 0.26466 0.60904 0.29038 0.81084 0.85523 1.1111 0.42515 0.22611 1.3625 0.98833 1.8428 0.98104 0.79518-0.0122 1.6259-1.133 2.0866-1.618 0.37246-0.39022 0.42271-0.4267 0.89445-0.21517 0.78661 0.3489 1.572 0.699 2.3574 1.0479 1.1089 0.49356 2.252 0.91783 3.3781 1.3713 2.1503 0.86555 4.4072 1.5098 6.6176 2.2004-1.5769 1.6861-2.8132 3.6628-4.1916 5.5094-1.5573 2.0836-3.1366 4.143-4.7442 6.189h6.2574c-0.23527-0.17141-0.48276-0.32945-0.73026-0.48141 1.5842-1.5682 3.1698-3.185 4.4722-4.9939 0.60649-0.84124 1.175-1.7032 1.7546-2.5626 0.51339-0.76101 0.68614-0.45953 1.5438-0.16898 0.44355 0.15074 0.94834 0.19086 1.409 0.25893-0.52442 1.6946-0.79398 3.179-0.82951 4.9502-9e-3 0.4194-0.0674 2.0204 0.23771 2.1724 0.20707 0.10333 0.54278 0.23827 0.63588 0.4425 0.0331 0.0717 0.58078 0.74764 0.58078 0.33188 0-0.42548 0.31858-0.51787 0.48766-0.84367 0.20094-0.38294 0.26589-0.91053 0.38596-1.3251 0.21811-0.74641 0.43374-1.4977 0.62119-2.2526 0.18748-0.75979 0.38719-1.522 0.55138-2.2867 0.0576-0.27109 0.0833-1.1342 0.28302-1.3251 0.18381-0.17627 0.97163-0.20058 1.2155-0.2407-0.0662 1.9742 0.0159 3.8087 0.31245 5.7622 0.0796 0.52638 0.15438 2.2368 0.55871 2.565 0.19604 0.15925 1.1934 0 1.4421 0h1.4421c-0.21197-2.7717-0.39086-5.513-0.45087-8.2908-9e-3 -0.43156-0.19114-1.2412-0.0343-1.6521 0.18748-0.49113 1.0562-1.0102 1.4495-1.3992 0.8491-0.84245 1.7215-1.6509 2.5644-2.5079 3.4295-3.495 6.4657-7.6137 8.5645-12.034 1.8134-3.8281 3.2163-7.7377 4.7026-11.695" clip-rule="evenodd" fill-rule="evenodd"/>
<path d="m292.68 116.73h-5.8592c-1.0476 0-2.3745 2.3-3.0533 3.0647-2.4224 2.7304-4.9734 5.3088-7.5317 7.9115-1.7093-1.691-3.6966-2.9856-6.1214-3.371-2.4762-0.39388-4.9623 0.15439-7.3724 0.70144-5.211 1.1804-10.389 2.6344-15.349 4.6329-10.032 4.0421-18.927 9.7666-26.832 17.096-1.5119 1.4017-2.91 2.9249-4.3141 4.4323-0.7229 0.77559-1.3931 1.5986-2.0829 2.4022-0.19482 0.22612-0.47174-0.0474-0.81357 0.0802-0.56119 0.20788-1.1224 0.41697-1.6835 0.62485h4.5665c0.22791 0 1.1505 0.14468 1.3282-0.017 0.61876-0.56405 1.2363-1.1294 1.855-1.6946 1.8354-1.6776 3.8669-3.2434 5.9082-4.667 4.362-3.0404 8.8905-5.7294 13.742-7.9346 4.8337-2.1979 9.932-3.5534 14.985-5.1277 4.9452-1.5402 10.199-2.6392 15.381-2.9723 0.81847-0.0523 1.6369-0.10455 2.4554-0.15805-0.49747 0.40117-0.99616 0.80235-1.4936 1.2035 0.3602 0.0413 1.4152-9e-3 1.4936 0.30998 1.7962-1.5342 5.0407-1.1063 7.2339-1.2728-0.2671-0.14953-0.53545-0.29905-0.80131-0.44736 0.48153-0.29906 0.79641 0.4425 1.1162 0.75979 0.41291 0.40846 0.91037 0.74641 1.3882 1.0783 1.0353 0.71723 2.0658 1.4394 3.0472 2.2247 2.0682 1.6533 4.1156 3.3334 5.9989 5.197 3.7027 3.6664 7.0661 7.6526 9.9748 11.971 0.14336 0.21154 0.83931 1.5463 1.0549 1.5463h1.6725 4.2614c-0.52933-0.8303-1.05-1.6618-1.6014-2.4775 9.4737-4.2147 18.37-9.7095 25.909-16.852 3.6329-3.4428 7.1359-7.0691 9.8278-11.3 0.7327-1.15 1.409-2.3292 2.0756-3.5182 0.18868-0.33795 1.3943 0.42791 1.7288 0.57744 0.62486 0.27839 1.2841 0.49356 1.9237 0.73426 2.3414 0.8838 4.8753 1.5135 7.354 1.8697 5.4377 0.78286 11.125 0.48869 16.611 0.56528 5.3274 0.0754 10.657-0.0401 15.983-0.11549 10.257-0.14346 20.518-0.48748 30.062-4.6463 1.7705-0.77195 3.4945-1.6193 5.2502-2.4082h-9.1845c-2.1908 0-4.2296 0.65403-6.3983 0.94336-5.3642 0.71845-10.723 1.2947-16.124 1.6606-10.879 0.73791-21.663 0.50086-32.533-0.25407-2.5069-0.17384-4.9868-0.60905-7.4508-1.0892-1.1971-0.2334-2.35-0.55434-3.5043-0.93484-1.3857-0.45709-2.7409-0.3258-4.2039-0.3258h-1.9775c-0.53788 0-0.36879 0.7914-0.36879 1.1294 0 0.90689-1.3233 2.5505-1.8686 3.3163-1.4592 2.0472-2.8597 4.0858-4.4305 6.0565-2.9504 3.7029-6.8271 6.9633-10.711 9.6694-4.4183 3.0805-8.9677 5.8826-14.005 7.8447-1.2216 0.47654-2.426 0.99685-3.6378 1.5001-0.4999 0.20788-1.0035 0.40968-1.5071 0.61269-0.39819 0.1617-1.3662 0.92391-1.7056 0.83639-0.36633-0.0936-1.0353-1.4004-1.262-1.708-0.33205-0.45101-0.67146-0.89472-1.0145-1.3384-0.87728-1.1342-1.7717-2.2466-2.6808-3.3564-1.6002-1.9548-3.3302-3.816-5.0836-5.6334-0.2708-0.28083-0.76579-0.58839-0.94471-0.93728-0.24873-0.48382-0.15558-1.347-0.18868-1.8782-0.0772-1.1962-0.0747-2.3961-0.0343-3.5947 0.0674-2.0569 0.21317-4.1369 0.57708-6.1658 0.21687-1.2035 0.45214-2.3961 0.70577-3.5923 0.15806-0.76708 0.89441-2.2028 0.25729-2.7644m-10.814 11.527c2.2802-2.6842 4.4758-5.4146 6.6434-8.1887-0.91158 3.7066-1.5058 7.3864-1.4617 11.217-1.6039-1.1792-3.3989-2.1481-5.1816-3.0282" clip-rule="evenodd" fill-rule="evenodd"/>
<path d="m309.06 116.73h-2.8843c0.26832 0.96159 0.57345 1.8976 0.93244 2.8301 0.17765 0.46438 0.85766 2.2028 1.6749 1.798 0.75232-0.37321 0.74253-0.68929 0.63226-1.5208-0.13847-1.0358-0.25239-2.0678-0.35534-3.1072" clip-rule="evenodd" fill-rule="evenodd"/>
<path d="m301.76 116.73c-0.12253-0.0207-0.25853 0-0.38349 0 0.0515 0.0778 0.17275 0.18722 0.24383 0.23949 0.0478-0.079 0.0931-0.15925 0.13966-0.23949" clip-rule="evenodd" fill-rule="evenodd"/>
<path d="m433.19 79.162h-4.3435c-0.32961 0-0.29409 2.7085-0.32961 3.2166-0.18747 2.7936-0.43864 5.5775-0.71922 8.3638-0.5097 5.0754-0.9851 10.467-2.5007 15.348-0.35287 1.1379-0.9594 2.2004-1.6345 3.1777-0.46804 0.67713-0.59181 0.57987-1.2878 0.89473-0.36879 0.16655-1.0537 1.0297-1.349 1.0698-2.698 0.37686-5.3948 0.73548-8.1087 0.99442-5.3679 0.51058-10.777 0.75736-16.169 0.68928-3.0546-0.0377-6.1361-0.124-9.1796-0.39509-1.7534-0.15561-3.5091-0.2869-5.2588-0.48627-0.76945-0.0875-1.5401-0.16898-2.3084-0.26866-0.71923-0.0936-1.7398-0.0511-2.3745-0.3647 0.53052-0.43156 1.0586-0.86312 1.5892-1.2947 0.37616-0.30635-0.0527-0.98104-0.37369-1.2509-0.79275-0.66983-2.3574 0.0827-3.198 0.53246-1.0537 0.56529-2.0045 1.4782-2.366 2.6453-0.17151 0.55312-0.45457 1.1439 0.0674 1.5123 0.0931 0.0669 0.60162 0.51301 0.69597 0.44858 0.38349-0.26501 0.76821-0.53003 1.1529-0.79383 0.61999-0.42791 0.6384 0.034 1.2277 0.35984 0.58325 0.32215 1.1456 0.62849 1.795 0.79869 1.3074 0.34525 2.7274 0.37564 4.063 0.51544 2.5534 0.26623 5.1105 0.48262 7.6726 0.64674 7.9678 0.50936 15.889 0.57014 23.868 0.31728-0.88341 0.29176-1.7632 0.5896-2.6416 0.89473h9.1845 1.4801c0.30877 0 0.82706-0.4583 1.1052-0.61512 1.0929-0.61756 2.3366-1.2059 3.2347-2.0873 0.8589-0.8461 1.2682-1.8575 1.7398-2.9589 0.39823-0.93242 0.83811-1.9499 1.1113-2.9273 0.74125-2.6441 1.2718-5.2748 1.7215-7.982 1.1616-6.9658 1.8906-13.964 2.4334-21.001" clip-rule="evenodd" fill-rule="evenodd"/>
<path d="m340.53 116.73h5.2502c-1.4936-0.6443-3.9809-1.6764-5.2502 0" clip-rule="evenodd" fill-rule="evenodd"/>
<path d="m143.1 45.959c-5.1792 0.19694-10.301 0.17385-15.386-0.96888-2.5228-0.5665-4.9929-1.319-7.376-2.3231-0.88831-0.37321-1.9016-1.0783-2.8696-1.0783h-4.8618-5.7722c4.2725 3.1996 9.383 4.8468 14.465 6.3555 4.9795 1.477 10.162 2.4253 15.333 2.9176 10.443 0.99441 20.967-0.1556 31.06-2.9298 2.078-0.57136 4.134-1.3178 6.2684-1.6545 2.1896-0.34525 4.406-0.42913 6.6017-0.73913 1.6382-0.23098 3.1697-0.77925 4.6964-1.2837 1.8857-0.62364 3.3744-1.8162 5.1289-2.666h-8.1357c-2.6772 0-5.4684-0.23098-8.137 0-2.5755 0.22368-5.1878 1.0199-7.7363 1.4479-2.5853 0.43399-5.1718 0.90081-7.7718 1.2448-5.1608 0.68564-10.323 1.2205-15.508 1.6776" clip-rule="evenodd" fill-rule="evenodd"/>
<path d="m98.178 41.59h-4.444-1.953c-0.34555 0-0.86382 0.9701-1.0611 1.2217-1.5977 2.0411-3.0962 4.1831-4.4673 6.3822-1.4605 2.3402-2.7936 4.7703-4.1806 7.1542-0.66898 1.15-1.3466 2.2964-2.0192 3.444-0.10782 0.18478-0.54034 1.195-0.77192 1.1524-0.61629-0.11427-1.2939-0.07537-1.909 0.06078-1.0439 0.23218-2.0266 0.46681-3.0251 0.84245-1.0819 0.40726-1.572 0.94701-2.3598 1.7761-1.6541 1.7408-3.2653 3.4926-4.8484 5.2966-2.9088 3.3176-5.6448 6.7372-8.322 10.241h1.8955c0.4803 0 1.7117 0.23584 2.1381 0 0.42025-0.23341 0.8442-1.1184 1.1297-1.4965 0.37859-0.50207 0.73393-1.0333 1.1419-1.5111 1.6455-1.9305 3.258-3.9351 5.0395-5.7452 1.7913-1.8186 3.5153-4.0725 6.0748-4.8237 2.2459-0.65889 5.2735-0.59324 7.4986 0.21274 0.96795 0.35133 1.8942 0.72089 2.8107 1.1901 0.83074 0.42548 1.4593 1.1038 2.3476 1.3822 1.8073 0.56528 3.5373 1.8186 4.8937 3.1036 1.3968 1.3251 2.6257 2.7632 3.3829 4.5502 0.41047 0.96645 0.68737 1.9329 0.92874 2.9541 0.10537 0.44493 2.3574 0.18235 2.8597 0.18235-0.0662-0.96159-0.20829-1.9426-0.20829-2.9042 0-0.5592-0.0858-1.1281-0.1311-1.6849-0.0282-0.34038 0.0711-1.1756-0.18257-1.4357-1.7007-1.7469-3.4295-3.416-5.287-4.9976-3.3646-2.8629-7.2597-4.9672-11.263-6.8004 3.9515-7.1809 8.643-13.778 14.291-19.747" clip-rule="evenodd" fill-rule="evenodd"/>
<path d="m62.852 79.162h-1.8955c-0.49133 0-1.6994-0.23341-2.1381 0-0.44354 0.23705-0.90425 1.1889-1.2044 1.5828-0.34062 0.44858-0.69595 0.88864-1.0182 1.3506-1.5524 2.2247-3.1415 4.4299-4.5825 6.7263-2.9075 4.6353-5.695 9.3035-8.2056 14.165-0.24873 0.48141 0.19482 1.2157-0.09312 1.7104-0.42271 0.72697-0.68858 1.3433-0.94342 2.1456-0.35411 1.1148-0.51461 2.5456-0.33696 3.7041 0.12866 0.83881 0.22545 1.0358-0.30509 1.7153-0.44722 0.57379-0.89321 1.1524-1.3748 1.6971-0.83929 0.94822-1.7141 1.8514-2.589 2.7754h4.1855 2.2177c0.47295 0 0.62732-0.47776 0.86503-0.86069 0.32102 0.56285 0.2622 0.86069 0.89321 0.86069h2.4027 8.5927 13.146c-5.0517-0.67834-10.287-1.099-15.386-0.84975-1.5512 0.0766-3.1024 0.15196-4.6523 0.22733-0.34676 0.017-1.1113 0.17141-1.3735-0.028-0.55013-0.41819-1.0954-0.8303-1.6075-1.2935-0.37738-0.3416-0.79395-0.70873-0.8344-1.1524-0.05636-0.61512 0.16418-1.0856-0.03431-1.7214-0.1654-0.53003-0.53054-0.83759-0.76579-1.3068-0.2757-0.55191-0.40434-1.2995-0.47661-1.9037-0.27692-2.3158-0.14214-5.017 1.2767-6.9208 1.6174-2.1724 3.4197-4.2244 5.2674-6.206 0.7756-0.83151 1.0452-2.0982 1.8428-2.9808 0.44478-0.49234 0.48399-1.1403 0.87363-1.7031 0.33081-0.47775 0.69838-0.95916 1.0905-1.3871 1.7055-1.8624 2.8916-4.2706 4.2994-6.3762 0.9128-1.3652 1.8685-2.6647 2.8634-3.9704" clip-rule="evenodd" fill-rule="evenodd"/>
<path d="m100.96 79.162h-2.8156c0.29772 5.011-0.16296 10.058-0.92139 15.011-0.74617 4.8809-1.9077 9.9441-3.7628 14.537-1.0917 2.7024-2.2055 5.3696-3.4172 8.0246 0.54156 0 3.639 0.24799 3.715-0.15317 0.24628-1.3129 0.57832-2.5711 0.98634-3.8427 0.79519-2.4824 1.8366-4.8833 2.6306-7.3706 1.4728-4.611 2.5976-9.4481 3.0926-14.265 0.41046-3.9959 0.49255-7.9322 0.49255-11.941" clip-rule="evenodd" fill-rule="evenodd"/>
<path d="m44.842 116.73h-4.4195c-0.86259 0-2.4248-0.33795-3.0215 0.53246-0.48398 0.70631-1.7203 1.3506-2.4334 1.8065-0.7854 0.50207-1.6786 0.8923-2.5032 1.3068-2.0204 1.0139-4.286 1.719-6.5637 1.2254-2.5681-0.55677-4.8398-1.9001-7.4496-2.2818-2.464-0.36105-4.9035 0.54826-6.56 2.3705-0.91894 1.0114-1.3123 2.1809-2.0278 3.2957-0.40311 0.62609-0.5967 0.76224-0.70207 1.55-0.077191 0.57257-0.075966 1.178-0.026956 1.753 0.20339 2.4143 1.0684 4.8468 2.3219 6.9147 0.63223 1.0406 1.4397 2.0544 2.3844 2.8325 0.51706 0.42547 1.0562 0.79626 1.6235 1.1512 0.41412 0.25893 1.2461 0.47654 1.5597 0.83637 2.0033 2.2867 4.2529 4.239 7.0918 5.4292 0.52564 0.22004 1.3576 0.30877 1.5536 0.69292 0.31734 0.62728 0.88466 1.1901 1.3735 1.6861 1.039 1.0552 2.2827 1.8174 3.617 2.4435-1.2792 1.3081-2.4946 2.6684-3.7211 4.0263h4.4747c0.96427 0 1.9518-1.6618 2.6184-2.3049 1.7362-1.6776 3.3548-3.4148 5.2858-4.8651 0.49868-0.37564 1.0047-0.74035 1.4862-1.1379 0.56239-0.4644 1.0353-0.68807 1.6014-1.0503 1.077-0.68805 2.1613-1.3676 3.3057-1.9451 2.3072-1.1646 4.7368-2.2441 7.2339-2.9504 1.2767-0.36108 2.6404-0.84856 3.9662-0.98835 1.3343-0.141 2.7519-0.0255 4.0911 0.0195 2.6184 0.0875 5.2417 0.37688 7.8294 0.77439 2.5681 0.39389 4.8765 0.95551 7.1898 2.1529 2.3403 1.212 4.6352 2.5626 6.7928 4.0725 2.1797 1.5244 4.1499 3.2969 5.9241 5.2699 0.43128 0.48019 0.83071 0.98226 1.2375 1.4831 0.30876 0.37928 0.69348 1.274 1.1138 1.4697 0.33817 0.15803 1.1358 0 1.4973 0h21.204 7.653c-2.6992-0.72818-5.3985-1.4515-8.1002-2.1712-0.92631-0.24678-2.0744 9e-3 -3.0521-0.124-1.153-0.15559-2.339-0.45344-3.4675-0.7379-2.5424-0.64067-5.0321-1.5475-7.2756-2.9164-2.3341-1.4248-4.1512-3.2179-6.1655-5.0268-3.7015-3.3236-8.7116-5.6869-13.48-7.0472-5.1889-1.4806-10.339-1.9754-15.724-1.5949-2.5081 0.17748-5.1657 1.1172-7.6211 1.6484-2.7605 0.59811-5.4953 1.3056-8.2631 1.8855-2.4591 0.51667-4.8741 1.0418-7.2756 1.736-2.4542 0.70873-5.1142 0.70266-7.6517 0.66496-4.9586-0.0717-10.144-0.55189-14.393-3.1765-2.1209-1.3105-4.025-3.0598-5.4597-5.0912-0.62367-0.88503-0.75722-2.3548-0.89568-3.4489-0.15438-1.2242 0.15683-2.3377 0.99245-3.2677 0.73027-0.81328 1.6504-1.9414 2.8377-1.9925 1.3735-0.0596 2.7188-0.12643 4.0899-0.0122 1.2351 0.10212 2.4248 0.24556 3.6329 0.53247 0.55994 0.1325 1.5512 0.16533 1.9996 0.5349 0.38719 0.31971 0.8197 0.59323 1.2853 0.78288 4.9525 2.0192 10.151 3.4829 15.533 3.6798 4.792 0.17625 9.4651-0.41577 14.127-1.488-3.1746-2.0958-6.9692-1.3385-10.574-1.5135-3.9429-0.1921-7.7718-0.81086-11.644-1.5488 2.0511-0.88863 3.9465-1.8697 5.6631-3.3236 1.5953-1.353 2.9333-2.9565 4.2798-4.5551m-11.301 28.523c0.77681-0.1629 1.5438-0.29905 2.3292-0.41331-0.10537 0.25528-0.18625 0.5215-0.24383 0.79137 0.57955-0.0693 1.1591-0.13736 1.7386-0.20666-1.3968 0.71361-2.6772 1.584-3.8939 2.5104-0.84664-0.71724-1.7276-1.3871-2.6073-2.063 0.73025-0.2164 1.4458-0.39389 2.1908-0.55071-0.13847-0.20423-0.29162-0.40117-0.48644-0.5507 0.4313-0.37685 0.69351 0.18234 0.97287 0.48262" clip-rule="evenodd" fill-rule="evenodd"/>
<path d="m93.728 116.73c-0.87238 0-3.4197-0.45222-3.8657 0.30635-0.26957 0.45587-0.22546 1.0345-0.09067 1.522 0.06984 0.25408-1.0121 1.2643-1.2253 1.5232-0.62121 0.75493-1.9935-0.11792-2.9002-0.35984-1.3711-0.36713-2.7385-0.70022-4.123-1.0151-4.4796-1.0199-8.975-1.9779-13.582-1.9779h-22.057c0.4754 1.2096 0.84909 2.2198 2.3145 2.1821 1.4654-0.0377 2.9272-0.0498 4.3926-0.0498 2.6625 0 5.3299 0.09 7.9911 0.15804 5.2882 0.13372 10.598 0.63336 15.851 1.2412 3.5778 0.41454 7.1359 0.96524 10.687 1.567 0.89076 0.15073 1.7766 0.31972 2.6649 0.49112 0.21564 0.0413 0.94835 0.31852 1.0231 0.0742 0.12866-0.4121 0.32103-0.79748 0.46561-1.2059 0.29406-0.82909 0.68737-1.5901 1.1297-2.3511 0.38719-0.66375 1.1836-1.3555 1.3245-2.1055" clip-rule="evenodd" fill-rule="evenodd"/>
<path d="m208.3 79.162h-2.7814c0.39579 0.92148 0.90182 3.2264 2.1896 2.9079 0.60897-0.15196 0.90302-0.66861 1.0439-1.2558 0.15929-0.66862-0.15928-1.043-0.4521-1.6521" clip-rule="evenodd" fill-rule="evenodd"/>
<path d="m108.85 174.4c5.0738 1.353 10.048 2.9759 15.054 4.5551 5.2588 1.6582 10.557 3.1036 15.92 4.3934 1.1113 0.26745 2.1944 0.55435 3.3143 0.76952 0.85523 0.16533 1.7104 0.32943 2.5657 0.49478 0.20706 0.0401 0.38593-0.011 0.38593 0.21151 0 0.2784 0.68617 0.19452 0.92264 0.21397 0.40433 0.034 1.2424-0.12643 1.2265 0.34647-0.027 0.87283-0.0551 1.7469-0.0833 2.6198-0.0404 1.2679-0.81033 16.171-0.82381 17.44 1.0893 0 3.4356 6.7688 4.5248 6.7688-0.0341-0.53095 0.16842-1.2116-0.033-3.926-0.10072-1.3572 0.95205 1.8297-0.29834-4.1887-0.89172-4.292-0.46293-3.4491-0.5141-4.4945-0.014-0.28634-0.4333-3.3259-0.26929-6.8761 0.13707-2.967-0.0124-6.1529 0.10598-7.283 2.5718 0.16656 5.4679-0.8072 8.0336-1.1415 2.758-0.35985 5.4744-0.34768 8.2398-0.0717 1.2461 0.12524 2.453 0.32338 3.6844 0.55193 0.5452 0.1009 3.2482 0.47654 3.4809 1.0054 5.0659 0.53233 4.7981 0.19686 5.8838 1.074-0.19115-0.85583 1.9885-0.64486 2.6599-0.73724 1.5218-0.20789 3.0436-0.41697 4.5665-0.62609 2.2361-0.30635 4.4722-0.61026 6.7083-0.91538-0.13353 0.55677-0.0809 1.3336-0.45948 1.7518-0.55261 0.61148-1.0697 1.2084-1.5585 1.8709-0.85399 1.1549-1.5794 2.3402-2.2581 3.6032 0.83074 0 2.8879 0.42913 3.3572-0.30148 0.45704-0.70995 0.91405-1.4211 1.3698-2.1323 0.28673-0.44735 0.61876-1.2959 1.0451-1.6265 0.2095-0.16291 0.4901-0.16413 0.6947-0.34405 0.17157-0.15075 0.31978-0.49599 0.44967-0.68077 0.35534-0.50815 0.69229-1.0053 0.94222-1.5731 0.0772-0.17505 0.3333-1.1038 0.47419-1.1269 0.45211-0.0754 0.90426-0.14952 1.3564-0.2249 5.6619-0.93607 11.308-2.0277 16.978-2.8921 1.4483-0.22004 2.9235-0.18966 4.3693-0.43884 1.3282-0.22856 2.551-0.78048 3.7321-1.4248 0.979 2.5274 2.2704 4.9174 3.1281 7.4958 0.48152 1.4442 0.93853 2.8787 1.3453 4.3448 0.22913 0.82664 0.087 0.92512 0.93244 0.92512h2.4542c-1.3735-5.1799-3.0791-10.159-5.238-15.071-1.9175-4.363-4.1953-9.0275-7.1224-12.853-1.8109-2.3645-3.9968-4.1248-6.4154-5.8303 1.3061-1.1598 2.524-2.559 3.8596-3.7503h-4.5665c-1.3551 0-2.3157 0.32092-3.628 0.73912-2.3598 0.75248-4.7258 1.4466-7.1273 2.0532-5.1755 1.3068-10.562 2.5529-15.889 3.0586-5.2588 0.49841-10.477 0.85824-15.759 0.85824-5.1154 0-10.236-0.32579-15.318-0.89716-10.75-1.2084-21.386-2.9164-31.922-5.3708-1.7239-0.40238-3.0901-0.44127-4.8655-0.44127h-10.496-16.888c2.8659 4.4578 4.6119 9.2159 5.2539 14.474 0.07229 0.59203 0.09802 1.2157 0.20462 1.8016 0.04533 0.24921 0.12864 0.50085 0.20094 0.74398 0.06616 0.22367 0.46192 0.82907 0.45947 1.0102-0.0074 0.47047-0.91527 1.4272-1.1738 1.8284-0.34797 0.5434-0.68369 1.0953-1.0219 1.6448-1.4348 2.328-2.9443 4.6122-4.4906 6.8685-1.0905 1.5925-2.1736 3.1778-3.3119 4.7375-0.49989 0.68562-0.91894 1.5864-1.5291 2.1736-0.77069 0.74034-1.5414 1.4807-2.3133 2.221h3.9c0.21811 0 1.0647 0.13372 1.2155-0.0462 0.36389-0.43277 0.7278-0.86433 1.0917-1.2971 1.4691-1.7433 2.8904-3.5011 4.2602-5.3331 1.2596 1.55 2.4027 3.1303 3.4773 4.8116 0.3394 0.53124 0.6984 1.8636 1.3674 1.8636h3.3266c-1.3404-3.45-3.258-7.0108-6.7451-8.7394 1.7717-3.0063 3.8265-5.7999 5.7857-8.709 0.51094-0.75859 0.95938-1.567 1.4372-2.3462 0.47172-0.77194 0.77927-0.0644 1.414 0.2784 1.6124 0.86918 3.22 1.5342 4.9586 2.1079m29.764-9.3582c1.2289 0.25651 2.453 0.56286 3.6856 0.79749 0.66897 0.12763 1.338 0.25528 2.007 0.38171 0.47294 0.09 1.8183 0.0778 1.6088 0.74641 0.86014-0.14829 1.8881 0.16656 2.747 0.27597v-0.27597c4.368 0.55193 8.7398 1.0917 13.143 1.274 4.3705 0.17991 8.741 0.0766 13.108-0.10333-0.223 0.64795 1.4985 0.16413 1.9347 0.124 0.80625-0.0754 1.5745-0.0255 2.377 0.0486-0.0588-0.17749-0.0686-0.37806-0.13965-0.55069 4.8165-0.63944 9.5937-1.3336 14.332-2.4204 2.1417-0.49113 4.2492-1.0637 6.3701-1.6375 2.3917-0.64673 4.9832-0.88377 7.2192-1.9292v0.10333c0.9606-0.42305 1.9555-0.66131 2.9896-0.82544-0.45581-1.0066 1.164-0.89107 1.7729-1.24 0.52196 0.94456 1.7399 1.8478 2.4616 2.6951 0.84176 0.98835 1.67 1.984 2.442 3.0282 1.5536 2.1007 2.932 4.301 4.2026 6.5792 0.66165 1.1877 1.3172 2.3791 1.9727 3.5716 0.0257 0.0486-3.1477 0.89594-3.4834 0.97373-2.3623 0.54827-4.7552 0.95065-7.1396 1.3944-2.932 0.54584-5.8592 1.0637-8.8035 1.5366-1.1224 0.17993-2.2434 0.3562-3.3658 0.53126-0.87482 0.13615-1.7509 0.27351-2.6257 0.40966-0.67514 0.10576-0.61876-0.18599-1.1346-0.28203-0.29652-0.0547-0.8442 0.13251-1.0611 0.39509-0.33574 0.40603-1.2032 0.30878-1.7007 0.36593-1.2853 0.14708-2.5706 0.29661-3.8571 0.43519-2.7152 0.29419-5.4316 0.60783-8.1529 0.83881-1.4568 0.124-2.9124 0.24801-4.3693 0.37079-0.3602 0.0304-1.0892-0.61635-1.4593-0.78898-0.56731-0.26379-1.1726-0.49599-1.773-0.67105-2.5252-0.73546-5.2527-0.85096-7.8674-0.91052-2.6943-0.0608-5.3066 0.49841-7.9519 0.89106-2.5289 0.37565-5.091 0.52153-7.6456 0.39146-5.2968-0.27111-10.378-1.6618-15.477-3.0161-4.8447-1.2874-9.6244-2.8288-14.424-4.2743-5.537-1.6691-11.074-3.337-16.61-5.0049 0.61384-1.1524 1.1836-2.3402 1.8342-3.4683 0.26832-0.46562 0.52686-0.97862 0.72903-1.4795 0.19725-0.4887 0.3492-1.3932 0.70451-1.7615 0.78661-0.81329 2.5694-1.2339 3.6072-1.6326 1.1199-0.42912 2.2814-0.88379 3.4528-1.144 0.7523-0.16773 1.5046-0.33429 2.2569-0.50205 0.39453-0.0875 1.0108 0.23218 1.3845 0.33918 1.398 0.39629 2.7911 0.81083 4.194 1.1889 2.6233 0.7063 5.2441 1.415 7.8747 2.0909 2.872 0.73791 5.7489 1.4406 8.6295 2.1396m71.208-5.0243c-0.0294-0.22247-0.23893-0.36713-0.45091-0.48139 0.33575-0.14953 0.67268-0.29785 1.0084-0.44616-0.0392 0.22246-7e-3 0.41212 0.0171 0.63579 0.027 0.25287-0.3492 0.18843-0.57463 0.29176" clip-rule="evenodd" fill-rule="evenodd"/>
<path d="m31.767 154.31h-4.4747c-0.85888 0-1.7337 1.5014-2.2618 2.1371-1.7472 2.1031-3.4234 4.2378-5.0358 6.4442-3.1551 4.318-5.8518 8.9242-8.2582 13.687-2.4628 4.8712-4.3778 10.007-5.907 15.235h2.1736c0.68982 0 0.61998-0.15439 0.8491-0.77924 0.4754-1.2923 0.94835-2.5784 1.4801-3.8488 0.96673-2.3134 1.9812-4.5794 3.0876-6.8308 2.3464-4.7751 5.0285-9.4263 8.1161-13.771 3.0889-4.3496 6.4669-8.4805 10.231-12.273" clip-rule="evenodd" fill-rule="evenodd"/>
<path d="m77.942 196.66c-0.14948 0.1082-0.2806 0.25408-0.41659 0.37928 1.1113 0.68323 2.1663 1.4078 3.1991 2.2016 0.83688 0.6443 2.0352 1.2655 2.0903 2.4143 0.05391 1.1208 1.2008 1.6654 1.039 2.8848-0.05024 0.37806-0.62363 1.3627-0.38841 1.663 0.40924 0.52273 1.006 0.79989 1.572 1.133 2.1883 1.2874 4.1916 2.948 6.0736 4.6353 0.71679 0.6443 2.2361 1.7202 2.2361 2.7049 0 0.53974-0.14948 1.2618 0 1.7688 0.17152 0.58229 0.88831 1.0479 1.0084 1.5828 0.13234 0.59203-0.11517 1.4065-0.20828 1.9961-2.3795-1.1379-4.1561-2.8179-6.9619-2.5857-0.4325 0.0365-1.4103 0.2018-1.7313 0.52152-0.408 0.40849-0.41412 1.4066-0.47785 1.9354-0.14947 1.2607 0.12989 2.2806 0.72048 3.3978-10.677 0.75493-21.387 1.505-32.093 1.6509-5.2833 0.0729-10.568 0.13737-15.854 0.13737h-3.4736c-0.64449 0-1.2841 6e-3 -1.9322-0.017-0.68001-0.0243-0.85399-0.37807-1.3588-0.78287-2.0927-1.6764-4.1095-3.4914-6.0307-5.3599-3.6562-3.5546-7.2854-7.1517-10.502-11.115-1.697-2.0897-3.3609-4.1916-4.9268-6.381-0.84298-1.1792-1.6762-2.3572-2.4811-3.5619-0.40188-0.60054-0.61385-0.67469-0.34797-1.3178 0.29161-0.70752 0.59057-1.4114 0.87361-2.1226 0.34552-0.86677 0.67267-1.7433 1.0084-2.6137h-2.1736c-0.78539 0-0.64081 0.23947-0.854 0.99683-0.37003 1.3166-0.73638 2.621-1.0415 3.9521-0.16786 0.73425-0.33572 1.4685-0.50481 2.204-0.080867 0.35742 0.82582 1.3214 1.0268 1.6205 0.65061 0.96523 1.3466 1.9001 2.0425 2.8325 3.1354 4.205 6.4841 8.2532 10.149 12.018 3.6598 3.7613 7.5023 7.3463 11.592 10.646 1.0121 0.81571 2.0376 1.6144 3.0693 2.4046 0.28426 0.2176 0.89322 0.91175 1.2718 0.89351 0.69717-0.0316 1.3956-0.0644 2.0927-0.096 2.883-0.1325 5.7599-0.23947 8.6454-0.31364 10.451-0.26622 20.897-0.38293 31.351-0.17019 3.7922 0.0766 7.5782 0.19452 11.368 0.32944 0.59059 0.0207 1.1309-0.21517 1.6811-0.42183 0.97163-0.3647 1.224-0.69901 1.4752-1.7335 0.34062-1.4029 0.08454-3.0428 0.03431-4.4724 0.26342 0.0815 1.5304 0.29421 1.5304 0.65283 0 0.68928 0.45702 1.161 1.0476 1.3542 0.90425 0.29663 1.9236 0.39509 2.8475 0.19329 0.73269-0.15926 1.1297-0.26136 1.4348-0.94093 0.2573-0.575 0.48274-1.1476 0.68613-1.742 0.38107-1.116 0.62856-2.2502 0.62612-3.4403-0.0012-0.61513-0.12008-1.206-0.2855-1.7955-0.19235-0.68443-0.49378-1.054-0.27077-1.7153 0.19849-0.58838 0.53054-0.91782 0.49868-1.5913-0.02328-0.50695-0.25484-1.0552-0.39086-1.5476-0.13233-0.47897-0.94467-0.46194-1.3943-0.6455-0.5869-0.2395-1.137-0.5896-1.6688-0.92878-1.0684-0.67954-2.1001-1.4211-3.095-2.2028-2.8977-2.2745-5.2968-5.0547-7.1984-8.1899-0.44968-0.74156-0.61263-1.4138-0.84175-2.2392-0.25363-0.91175 0.14948-1.4357 0.87974-1.9755 1.5402-1.1379 2.9296-2.5505 4.2394-3.9363h-3.2432c-1.1603 0-1.7227-0.17142-2.578 0.62973-1.5389 1.4393-3.1036 2.8337-4.6854 4.222" clip-rule="evenodd" fill-rule="evenodd"/>
<path d="m189.83 191.81c-1.1934 2.294-2.3966 4.5685-3.8914 6.6849-1.4029 1.984-3.4761 3.754-3.9159 6.2303-0.41045 2.3085 0.79028 5.0037 2.1846 6.7591 1.5622 1.9657 4.047 2.9383 6.2942 3.8743 4.8275 2.0107 9.8976 3.3127 15.045 4.2123 5.3531 0.93605 10.801 0.93361 16.216 0.99198 4.6033 0.0498 9.6992 0.74763 13.928-1.3992 0.37983-0.19329 0.70696-0.4887 1.0439-0.7221 0.74495-0.51666 0.86135-0.2869 1.6676 0.14467 1.202 0.64429 2.4211 1.257 3.6537 1.8429 2.3647 1.1233 4.7724 2.1274 7.24 3.0039 9.7984 3.478 20.412 5.3647 30.825 5.3647 2.7814 0 5.5541-0.0827 8.3342-0.17142 1.3919-0.045 2.7875-0.0231 4.1806-0.034 0.952-7e-3 2.3463-0.35861 3.2408-0.12157 2.2631 0.60297 5.1449 1.2923 7.4802 0.71238 2.4027-0.59568 4.4845-1.1743 6.674-2.39 0.41169-0.22855 0.23524-1.0904 0.55505-1.2655 0.23033-0.12644 1.512 0.26501 1.8428 0.32701 1.2473 0.23221 2.5277 0.22855 3.791 0.18965 2.5106-0.0766 5.053-0.74399 7.2266-2.0022 0.46437-0.26866 0.93977-0.49356 1.3956-0.78533 0.68124-0.43398 0.86992-0.53733 0.9042-1.3421 0.0257-0.6042 0.0331-1.2132 0.0331-1.8174 0-0.13861 1.6112-0.0754 1.8452-0.0754 2.2741 0 5.2061-0.0486 7.2989-0.96402 2.2239-0.97254 1.7791-3.2616 1.5536-5.2772-0.27076-2.4143-0.68491-5.0134-1.5708-7.2928-1.9788-5.0888-5.1032-8.9764-10.345-10.966-0.18258-0.0705-0.1985-3.1036-0.29527-3.6336-0.049-0.26865-3.7518-0.0778-4.2578-0.0778 0.33571 0.92876 0.67388 1.8575 1.0096 2.7863-0.53299-0.34524-1.0525-0.68685-1.5573-1.071-0.59058-0.44978-1.2216 0.0705-1.8183 0.40481-1.126 0.62852-2.1369 1.3567-3.0778 2.238-0.46931 0.43886-0.86259 0.89594-1.2559 1.4017-0.15558 0.19937-1.2779-0.53489-1.4911-0.70387-1.3074-1.0382-2.0094-0.68928-3.3719 0.0681-2.2753 1.2667-3.9698 3.247-5.0101 5.5969-0.26342 0.59446-0.45334 1.2047-0.65799 1.8223-0.12987 0.39753-0.0784 1.539-0.36389 1.7712-0.15069 0.12401-1.4446-0.028-1.7582 0.0146-0.62979 0.0863-1.2326 0.22976-1.806 0.50206-2.4395 1.1573-3.59 3.3881-4.7785 5.6918-1.1493 2.2308-2.1687 4.5733-2.8757 6.984-0.3504 1.195-0.72899 2.3985-0.96669 3.6227-0.0478 0.24312-0.18996 1.6886-0.41049 1.6995-0.85889 0.0486-1.719 0.0973-2.578 0.14466-2.5779 0.14468-5.162 0.14588-7.7412 0.0498-5.2576-0.19693-10.491-0.92633-15.67-1.8211-5.2625-0.91053-10.401-2.1456-15.399-4.0312-4.868-1.8369-9.4786-4.2852-13.756-7.2271-0.79522-0.54705-0.26956-2.3183-0.26956-3.1899 0-1.3919-0.0772-2.7802-0.13723-4.1709-0.11517-2.6404-0.51953-5.2602-0.90059-7.8726-0.18991-1.2995-0.49989-2.5954-0.74986-3.8853-0.17641-0.91175-0.11272-0.82302-1.0415-0.82302h-2.2483c0.82583 3.9898 1.1713 7.9918 1.0893 12.062-0.0368 1.8648-0.38595 3.7625-0.25362 5.6224 0.14455 2.0338 1.0427 3.754 2.3304 5.2991-5.1228 1.0297-10.384 2.052-15.639 1.8673-5.3201-0.18843-10.488-0.60905-15.711-1.691-2.5142-0.5203-5.0003-0.79624-7.4545-1.6314-2.4321-0.82788-4.6449-2.3304-6.4939-4.0786-0.90791-0.85945-1.7619-1.8648-2.4309-2.9164-0.33817-0.53245-0.40436-0.48627-0.10905-0.9774 0.39452-0.65647 0.78904-1.3117 1.1824-1.9682 1.5083-2.5091 3.0129-5.0219 4.5371-7.5226 0.8393-1.3774 1.7338-2.7158 2.6196-4.064-1.0538-4e-3 -2.1087-4e-3 -3.1624-4e-3m130.56 6.0552c0.60407 0.21761 1.1848 0.41332 1.7729 0.41332 0.20708 0 0.67392-0.43155 0.72903-0.38657 1.3196 1.0698 2.3488 1.9074 3.095 3.45 0.62613-0.57136 1.0402 0.4109 1.4152 0.85461 0.43622 0.51666 0.80255 1.0783 1.1861 1.6351 0.76454 1.1111 1.3527 2.317 1.9273 3.5315 1.0366 2.1834 1.5561 4.6232 1.8697 7.001 0.0147 0.10698 0.28058 1.5682 0.10415 1.6083-0.65063 0.15196-1.3073 0.35496-1.9727 0.43156-1.2069 0.13738-2.4738 0.19937-3.677 7e-3 -0.84296-0.13373-2.6944-0.97982-3.4197-0.52273-0.40679 0.2565-1.0794 0.56651-1.1468 1.0783-0.0882 0.68322-0.12866 1.3336-0.1115 2.0241 0.0159 0.60419 0.0613 1.1816-0.0772 1.7761-0.0772 0.33795-1.273 0.52638-1.6553 0.63822-1.0782 0.31365-2.3096 0.66011-3.4344 0.68565-1.2191 0.0267-2.4223 0.0219-3.6304-0.14103-0.99365-0.13374-2.5498-0.83516-3.4148-0.22125-2.1565 1.5269-4.161 2.452-6.8516 2.6088-2.6 0.15196-5.3298-0.44615-7.8857-0.86677-0.6837-0.11305-1.3662-0.2334-2.0498-0.3501 0.57706-2.6441 1.5904-5.0778 2.9136-7.435 0.61015-1.0892 1.2951-2.1371 2.0572-3.1279 0.23404-0.30512 2.1381-2.8301 2.4983-2.6526 1.1946 0.5896 5.4843 2.1019 5.744-0.27354 0.12373-1.1233-0.19605-2.3231-0.0698-3.4926 0.14578-1.3384 0.5967-2.5954 1.2608-3.7637 0.28795-0.50695 0.6249-1.0661 1.0317-1.4831 0.27322-0.27839 0.54524-0.55799 0.81724-0.83761 0.23527-0.2419 0.5869 0.18723 0.83316 0.35256 1.0684 0.72088 2.2998 1.195 3.5937 1.2935 0.69227 0.0523 1.3527 6e-3 2.0425-0.0693 0.65675-0.0717 1.0525-0.50815 1.4568-1.0175 0.41538-0.52273 0.81604-1.0588 1.2584-1.5585 0.64939-0.72576 0.81971-1.1901 1.7901-1.1901" clip-rule="evenodd" fill-rule="evenodd"/>
<path d="m309.55 157.57c-0.52072-0.56042-1.077-1.1123-1.5401-1.7226-0.36637-0.48385-0.81358-1.5463-1.4679-1.5463h-5.6497c5.8359 9.03 10.97 18.395 15.399 28.182 0.98876 2.1821 1.8538 4.4177 2.7458 6.64 0.19848 0.49234 0.77802 2.683 1.1346 2.683h4.0862c-3.3388-9.8894-7.3123-19.847-12.454-28.964-0.60159-1.0686-1.2044-2.1371-1.8084-3.2057-0.16909-0.30027-0.33451-0.60174-0.49746-0.90566-0.19975-0.37443 0.21194-0.66013 0.0515-1.1598" clip-rule="evenodd" fill-rule="evenodd"/>
<path d="m330.41 69.94c-2.3268 4.6681-4.7099 9.3314-6.4142 14.261-1.5475 4.4712-3.6574 8.9911-6.511 12.795-0.78909 1.0503-1.5916 2.0861-2.4015 3.1206-0.82214 1.0503-1.6712 1.9244-2.6122 2.8836-0.843 0.85704-1.7129 1.6618-2.5632 2.5055-0.35287 0.35011-1.1566 0.83638-1.3343 1.285-0.22301 0.56285 0.0184 1.674 0.0245 2.2769 0.0282 2.6161 0.22054 5.2334 0.46194 7.8386 0.10047 1.0832 0.63222 2.6963 0.41901 3.7515-0.22053 1.0929-1.6014 0.7063-1.9641-0.14467-1.61-3.7795-2.5877-7.9796-2.2103-12.104-0.24383 0.0401-1.0317 0.0644-1.2155 0.2407-0.19971 0.19086-0.22668 1.0552-0.28303 1.3251-0.16664 0.77438-0.3541 1.5585-0.56116 2.3219-0.22055 0.81085-0.43742 1.6205-0.67269 2.4277-0.24749 0.84732-0.59671 1.4697-0.95203 2.2514-0.2377-0.20302-0.33695-0.63458-0.57707-0.77559-0.0711-0.0425-0.56485-0.27839-0.57345-0.36227-0.0723-0.76101-0.17765-1.5196-0.16172-2.2842 0.0331-1.7019 0.32224-3.1401 0.82584-4.7654-0.4607-0.0681-0.96553-0.10819-1.4091-0.25893-0.85766-0.29176-1.0304-0.59325-1.5438 0.16897-0.57958 0.85948-1.1481 1.7214-1.7546 2.5626-1.3024 1.8089-2.8879 3.4258-4.4722 4.994 0.28424 0.17263 0.99612 0.52882 1.077 0.89473 0.0735 0.33188-0.32224 1.0783-0.40679 1.4515-0.23037 1.0066-0.46317 2.0156-0.64572 3.0319-0.36757 2.0484-0.72657 4.1503-0.79274 6.2315-0.0355 1.105-0.0662 2.204-0.0662 3.309 0 0.90202-0.16418 2.2077 0.16173 3.0319 0.37983 0.95429 1.0966 1.5184 1.7986 2.2623 0.77439 0.8218 1.534 1.6497 2.2827 2.4945 1.0353-1.9572 5.227-1.2436 6.984-1.3676 2.6808-0.18963 5.3495-0.59324 7.9336-1.3567 4.95-1.4649 9.1551-3.9655 13.183-7.1554 4.0801-3.2312 8.0842-6.5172 12.014-9.9198 1.0255-0.88743 2.0474-1.7785 3.0656-2.6745 0.34308-0.30149 0.85893-0.94579 1.3613-0.95673 0.74003-0.017 1.0488 0.79991 1.8256 0.49841 1.2338-0.47896 2.3868 0.0207 3.5386 0.48263 1.2436 0.49842 2.4738 0.89959 3.7799 1.2035 5.0958 1.1828 10.258 1.5208 15.469 1.8077 5.4389 0.29906 10.848 0.50815 16.278 0.0425 1.1554-0.0997 2.2937-0.19694 3.4552-0.16168 0.98756 0.0304 1.9543 0.21031 2.9381 0.14345 2.9909-0.20302 5.9793-0.42427 8.9677-0.66376 5.1302-0.41089 10.568-0.8461 15.497-2.373 0.72413-0.2249 1.4483-0.44858 2.1712-0.67227-10.622 0.33674-21.191 0.11792-31.766-0.98833-2.0107-0.21031-3.8412-0.29784-5.6338-1.291-0.11762-0.0656-0.79151-0.66132-0.84419-0.62485-0.48396 0.33188-0.9655 0.66497-1.4495 0.99806-0.26223 0.17992-0.81237-0.40846-1.0501-0.57744-0.22055-0.1556 0.13356-1.1123 0.19974-1.3238 0.54521-1.7591 2.279-2.8325 3.9821-3.2811 0.93118-0.24557 1.4703-0.19816 1.9996 0.70508 0.44845 0.76587-1.1027 1.5123-1.6333 1.9438 0.88096 0.43642 2.2937 0.36105 3.3106 0.47776 1.3061 0.14831 2.6098 0.28568 3.9196 0.40238 2.8377 0.25286 5.6619 0.43521 8.5094 0.54462 5.2894 0.2018 10.557 0.0413 15.838-0.29419 2.6392-0.16776 5.2772-0.43399 7.9004-0.76709 0.53913-0.0681 1.0782-0.13494 1.6161-0.20909 0.6163-0.0863 1.7999-0.0109 2.3317-0.3258 0.4717-0.27839 0.77311-0.81814 1.3208-1.0661 0.70816-0.32093 0.85276-0.24921 1.3233-0.94821 2.9063-4.3217 2.9443-9.8979 3.6831-14.888 1.534-10.381 1.8918-21.224 1.0488-31.679-0.20094-2.4848-0.48277-4.9514-0.80131-7.4241-0.10169-0.78654-0.20341-1.5731-0.30509-2.3608-0.049-0.37928-0.94469-0.8072-1.2216-1.0151-0.99736-0.74885-2.0597-1.4223-3.1844-1.9633-4.8557-2.3353-10.279-3.2349-15.553-4.1685-10.426-1.8466-21.008-1.4734-31.425 0.11914-5.3642 0.82058-10.628 1.9572-15.889 3.2726-5.14 1.2837-10.432 2.7267-15.324 4.7642-1.7619 0.73426-3.4454 1.6484-5.0701 2.6501-1.7325 1.0674-2.9161 2.3231-4.0985 3.9521-2.0902 2.8848-4.0225 6.0868-5.1461 9.4676m83.76-15.276c-0.79152-0.47654-0.34798-1.6363 0.12007-2.1432 0.33817-0.36592 1.3515-0.45952 1.7534-0.44128 1.5794 0.07416 3.253 0.58351 4.1843 1.9098 0.4754 0.67834 0.43498 1.5293 0.3823 2.3134-0.0135 0.186-0.0466 0.86191-0.24997 0.97618-0.18868 0.10455-1.2326-0.39874-1.4593-0.47168-1.6553-0.53368-3.1942-1.3482-4.7307-2.1432m-48.747 10.597c2.5179-0.57988 4.9868-0.97861 7.5452-0.30878 0.86502 0.22733 2.9124 0.79383 3.3719 1.6509 0.2095 0.39023-0.0588 0.87892-0.0698 1.2047-0.0184 0.57136 0.19239 1.0151-0.29405 1.533-1.6026 1.7007-3.1991 3.0063-5.6864 2.5444-1.1603-0.21639-2.1699-0.85096-3.1992-1.3968-1.1346-0.60175-2.1246-0.50936-3.3388-0.37564-0.74985 0.08267-1.0942-0.49477-1.7166-0.22611-0.70696 0.30513-1.4041 0.59689-2.0768 0.96888-0.66166 0.3647-1.2669 0.95186-1.9776 0.35862-0.3737-0.31121-0.64079-1.0686-0.24261-1.4807 2.1197-2.1931 4.7442-3.6543 7.6848-4.4724" clip-rule="evenodd" fill="#690" fill-rule="evenodd" stroke="#093" stroke-width="1.2205"/>
<path d="m413.86 54.354c0.47784 0.60783 1.4348 0.90809 2.1222 1.2327 0.87605 0.41332 1.7423 0.77802 2.6478 1.1245 0.52809 0.2018 1.7546 0.92998 1.8881 0.16655 0.14213-0.81085 0.25977-1.7469-0.0968-2.5176-0.70331-1.5257-2.3047-1.9791-3.851-2.2089-0.80625-0.12035-1.0954 0.01337-1.7828 0.19573-1.0818 0.28447-1.012 1.0674-0.92747 2.0071" clip-rule="evenodd" fill-rule="evenodd"/>
<path d="m367.37 64.849c-2.5179 0.48019-5.0419 1.2327-7.1432 2.7547-0.70207 0.50815-2.6613 1.6229-2.6613 2.6076 0 0.53854 0.20338 0.97131 0.73023 1.1755 0.7131 0.27718 1.3931-0.3805 2.0168-0.72575 0.55014-0.30392 1.1481-0.52517 1.724-0.77437 0.58567-0.25286 0.91158 0.22611 1.6002 0.22611 1.1591 0 2.1393-0.32336 3.2653 0.27474 2.0033 1.0625 4.0311 2.1967 6.3088 1.24 0.98755-0.41454 2.3831-1.4819 2.8708-2.4471 0.29895-0.59203 0.18501-1.0491 0.27812-1.5792 0.11027-0.63579 0-1.1111-0.5918-1.4624-2.3819-1.415-5.6876-2.0557-8.3979-1.2898" clip-rule="evenodd" fill-rule="evenodd"/>
<path d="m291.26 134.14c-0.0306 0.31486 0.049 0.6042 0.31368 0.7902-0.10415-0.26381-0.20954-0.52641-0.31368-0.7902" clip-rule="evenodd" fill="#093" fill-rule="evenodd"/>
<path d="m313.58 101.87c0.24626-0.21639 0.57954-0.40968 0.69595-0.7221-0.23158 0.2407-0.46438 0.4814-0.69595 0.7221" clip-rule="evenodd" fill="#093" fill-rule="evenodd"/>
<path d="m339.28 115.84c-3.9772 3.495-7.9152 7.0205-12.096 10.278-4.1058 3.1996-7.9445 6.4382-12.714 8.6312-4.7442 2.1785-9.9724 2.8118-15.147 2.9322-1.0966 0.0255-2.3402-0.0146-3.2776 0.63337-0.59423 0.4109-0.78781 0.52638-0.30385 1.0783 0.48154 0.54946 0.9839 1.088 1.4458 1.6521 1.7374 2.1238 3.4099 4.2803 5.0395 6.4856 0.26833 0.36347 1.1542-0.35133 1.512-0.53247 0.5048-0.25651 1.0623-0.43034 1.5867-0.64672 1.1763-0.4887 2.3451-1.0042 3.5336-1.4661 2.5265-0.98469 4.8606-2.0545 7.2045-3.4172 4.4354-2.5796 8.6246-5.4486 12.504-8.805 2.5779-2.2308 5.0113-4.8007 7.0428-7.5274 1.0844-1.4552 2.2974-2.9419 3.1477-4.5466 0.40432-0.76221 1.2228-1.635 1.4593-2.4435 0.10047-0.3416-0.14583-0.84853 0-1.1707 0.16537-0.36225 0.7878-0.61997 1.1125-0.79017-0.58937-0.29297-1.485-0.99076-2.0499-0.34525" clip-rule="evenodd" fill="#360" fill-rule="evenodd"/>
<path d="m385.83 119.52c-2.9945-0.26988-5.9499 0.12278-8.9358 0.37928 3.2224-0.0924 6.4436-0.19572 9.6661-0.30999-0.24259-0.0316-0.48396-0.0462-0.73025-0.0693" clip-rule="evenodd" fill="#093" fill-rule="evenodd"/>
<path d="m264.52 70.629c-3.4932-3.8257-6.9742-7.6635-10.48-11.48-3.7505-4.0834-7.8147-8.0173-11.227-12.386-2.9161-3.7333-7.9152-7.3244-12.926-5.6273-2.3538 0.79747-4.7895 2.046-6.6262 3.7369-1.9114 1.7566-3.9588 3.3783-5.8445 5.1556-1.8575 1.7518-3.7493 3.6154-5.2294 5.7027-0.74005 1.043-1.5316 2.0849-2.1699 3.1948-0.31978 0.55434-0.76456 1.1294-0.99246 1.725-0.2193 0.57501-0.28914 1.1148-0.60406 1.6691-2.5277 4.4408-2.8818 9.8505-1.0941 14.673 0.27936 0.74886 0.60893 1.4454 0.9606 2.1651 0.23524 0.48383 0.62976 0.97982 0.49376 1.5184-0.076 0.29905-0.74006 1.2497-0.69227 1.3773 0.2561 0.68078 0.47297 1.3944 0.77438 2.0569 1.2792 2.8045 2.7507 5.4061 4.4379 7.9893-0.45823-1.5001-0.92627-2.9978-1.3539-4.5077 2.3721 4.5344 5.3397 8.9181 8.9162 12.614 0.9925 1.0236 1.9801 2.0314 3.0485 2.9747 1.0022 0.88622 2.1773 1.5172 3.1587 2.4313 0.941 0.87528 2.0584 1.4782 3.008 2.3134 0.98756 0.8692 2.0952 1.4734 3.3045 1.9803 2.2949 0.96159 5.1424 0.67348 7.5782 0.61756 2.6098-0.0596 5.1118-0.58109 7.5623-1.4624 4.9488-1.781 9.4982-4.6645 13.789-7.6502 1.9053-1.3251 3.9392-2.7924 5.548-4.4663 1.3747-1.4321 2.9896-2.9747 3.9478-4.7034 1.2584-2.2709 2.2716-4.487 2.2716-7.1274 0-2.61-1.3257-4.9879-3.0202-6.9037-2.2067-2.4994-4.3558-5.056-6.5392-7.5809" clip-rule="evenodd" fill="#060" fill-rule="evenodd" stroke="#000" stroke-width=".61023"/>
<path d="m280.03 102.25c-0.65797-0.35011-1.8342-0.69415-2.328-1.2388-0.49133-0.54219-0.72903-1.6509-0.99983-2.3548-0.6837-1.7724-1.3343-3.5461-1.9212-5.3526-2.7715 4.3861-6.3113 7.7499-10.471 10.835-4.0519 3.0051-8.7838 5.8364-13.592 7.4715-2.5387 0.86312-5.0616 1.6497-7.6713 2.2757-2.5669 0.61513-5.1841 0.8923-7.8 1.1974-1.099 0.12765-2.5351 0.42184-3.6218 0.19086-1.2461-0.26501-2.2275-1.1573-3.2298-1.8904-2.0217-1.4831-3.9147-3.1972-5.5909-5.0572-1.7594-1.9499-3.2996-4.0202-4.705-6.2339-1.3319-2.097-2.339-4.3861-3.5606-6.5476-0.61872-1.0929-0.6898-2.3304-1.2314-3.4452-0.57221-1.1804-1.4948-2.3292-2.1785-3.4574-1.2779-2.108-2.2092-4.3946-3.0717-6.6922-1.376 0.63214-1.7423-0.95308-2.1896-1.9609-0.55134-1.2436-0.94467-2.5334-1.3515-3.8293-0.76088-2.4313-1.0427-5.0474-1.1248-7.5797-0.0208-0.62728-0.027-1.2521-0.027-1.8794 0-0.46195-0.0858-1.4138 0.0698-1.8502 0.18624-0.52395 0.85889-0.80963 0.99245-1.3591 0.0772-0.31364 0.13846-0.60054 0.27816-0.89108 0.06-0.12278 0.20704-0.32945 0.22667-0.46803 0.0147-0.1009-0.28306-0.22854-0.23038-0.33917 1.1689-2.3608 2.5461-4.5186 4.0286-6.6934 2.2079-3.2373 4.9084-6.2011 7.8356-8.8136 2.8058-2.5055 6.0515-5.2128 9.5068-6.7919-5.8053-7.717-13.224-13.741-21.941-17.96-0.99858 2.3256-2.0143 4.6134-3.3376 6.7785-0.67388 1.1014-1.387 2.1712-2.1209 3.2337-0.66411 0.96159-1.6014 1.691-2.1822 2.7097-2.3782 4.1709-5.6215 7.7146-10.161 9.6086-2.1797 0.90931-4.4538 1.4223-6.7769 1.8053-2.4236 0.39995-4.9354 0.26501-7.3136 0.95915-5.3274 1.556-10.63 2.8361-16.107 3.7564-9.8866 1.663-20.66 1.1014-30.372-1.3008-4.4942-1.1123-8.8035-2.5128-13.138-4.1272-4.0482-1.5074-7.3258-4.3922-10.019-7.666-7.5059 6.9645-14.012 14.938-18.707 24.051 4.6866 2.1457 9.2617 4.7265 13.013 8.2993 1.0464 0.99563 2.0731 1.9973 3.0803 3.0307 0.86013 0.88378 0.64325 2.1383 0.72658 3.3358 0.18746 2.6732 0.34307 5.3842 0.18501 8.0611-0.15438 2.6137-0.2671 5.2115-0.53053 7.8216-0.25976 2.5699-0.84053 5.1289-1.4201 7.6429-0.57096 2.4787-1.2412 4.9477-2.0878 7.3487-0.85768 2.4374-1.9825 4.8797-2.5804 7.3925-0.19113 0.79869-0.38227 1.5986-0.57218 2.3985-0.1458 0.61148-0.49623 0.97132-0.88709 1.4746-0.76457 0.9859-1.262 2.2599-1.6737 3.4184-0.17398 0.49114-0.19849 0.98591-0.74496 0.88014-0.76702-0.1483-1.5328-0.30512-2.3023-0.44372-1.2841-0.23219-2.5755-0.43641-3.8632-0.65158-5.1902-0.86799-10.423-1.3664-15.662-1.8259-4.2088-0.36955-8.4151-0.51786-12.637-0.59688-1.9972-0.0377-3.9992-0.1009-5.9976-0.0511-0.71186 0.0182-1.4237 0.0353-2.1356 0.0535-0.53911 0.0134-0.73514-0.2796-1.1566-0.6285-0.63346-0.52274-0.76579-1.7068-1.2093-2.4253-1.1493 1.7202-2.6637 3.5437-4.2492 4.8882-1.953 1.6545-3.9453 2.8386-6.2856 3.8524 3.7897 0.72212 7.5439 1.3482 11.406 1.5366 3.6623 0.17871 7.5905-0.60175 10.813 1.5244-4.8863 1.1233-10.304 2.0861-15.337 1.4406-2.562-0.32944-5.162-0.61512-7.6566-1.3141-2.4848-0.69658-5.2907-1.3992-7.4974-2.7656-2.0033-1.2388-4.9586-1.4041-7.305-1.4722-1.1248-0.0328-2.7556-0.23949-3.7554 0.32699-0.4619 0.26138-0.78293 0.70875-1.0598 1.1525-0.36879 0.58715-0.99122 0.68806-1.4005 1.2947-0.62978 0.93606-0.68737 2.328-0.37248 3.3941 0.18501 0.62728 0.3296 1.1816 0.3296 1.8381 0 0.41575 0.71923 1.1549 0.97285 1.4722 1.5977 1.9973 3.5434 3.6336 5.7869 4.8736 4.4318 2.4484 9.7825 2.6526 14.831 2.7268 2.3464 0.034 5.0187-0.0887 7.218-0.95916 2.4187-0.95796 5.2331-1.2108 7.7853-1.7457 1.3184-0.27717 2.5118-0.61635 3.786-1.0272 1.2387-0.39873 2.437-0.50813 3.7088-0.70142 2.6392-0.4024 5.1816-1.3895 7.8564-1.578 5.1314-0.36347 10.367 0.17872 15.269 1.7615 4.8618 1.5706 9.8266 3.8451 13.57 7.3766 1.9898 1.877 3.9368 3.5121 6.2831 4.9441 2.1356 1.3032 4.7013 2.1055 7.1249 2.6696 1.202 0.27962 2.4885 0.62364 3.7211 0.72212 0.96184 0.0766 1.8673-0.1009 2.8095 0.1471 2.8426 0.75005 5.684 1.4904 8.5364 2.2004 4.9292 1.2278 9.9295 2.3401 14.944 3.1631 10.844 1.7785 21.742 3.2507 32.749 3.3625 10.214 0.10333 20.692-0.90931 30.585-3.5121 2.6735-0.70264 5.3433-1.4065 7.9752-2.2538 1.1371-0.36593 2.2729-0.72455 3.4075-1.0953 0.45947-0.15076 1.2498-0.5969 1.7386-0.51666 0.27446 0.045 0.24383 0.23584 0.44601 0 0.3124-0.36228 0.62365-0.72575 0.93607-1.0892 3.4847-4.0518 7.3834-7.7012 11.564-11.033 8.0977-6.4552 17.535-11.039 27.404-14.127 4.1095-1.2862 8.2533-2.2611 12.488-3.0476 3.6574-0.67959 7.1408 0.89349 9.6783 3.4063 3.4123-3.4476 6.8161-6.9013 9.8584-10.682 1.697-2.1068 3.3731-4.2074 4.9917-6.375 1.4041-1.8818 2.6662-3.8998 4.2725-5.6176-2.9333-0.91661-5.8236-1.8806-8.6736-3.027-0.55134-0.22245-1.0978-0.44492-1.6418-0.68562-0.50727-0.22612-1.9396-1.1999-2.4799-1.1038-0.30512 0.0547-0.87852 0.93729-1.0831 1.1403-0.41905 0.40968-0.97534 0.56042-1.4581 0.88742m-34.317 17.34c-0.18625 0.46561-1.1089 0.43035-1.5389 0.51302-0.76698 0.14953-1.5352 0.29904-2.3023 0.44736-1.2302 0.23826-2.4334 0.61999-3.6353 0.96644-2.4211 0.69781-4.8275 1.4843-7.1445 2.4763-2.5681 1.099-5.0689 2.2648-7.539 3.5668-2.1883 1.1524-4.5396 2.5468-6.3873 4.177-0.32345 0.28448-0.80745 0.84976-1.1995 0.5507-0.63958-0.48626-0.70453-0.59688-0.2132-1.3068 0.73393-1.0576 1.5512-2.204 2.5253-3.0586 2.1172-1.8551 4.2823-3.2519 6.9129-4.2828 4.7944-1.8794 9.753-3.4732 14.752-4.7277 1.7913-0.44981 3.8412-1.2546 5.6717-0.99563 0.952 0.13494 1.9102 0.17383 2.8708 0.13007 0.88831-0.0401 1.7411-0.32945 2.6184-0.38171-0.80131 0.66009-1.6835 1.0576-2.7115 1.24-0.65062 0.11306-2.4934-0.11305-2.6796 0.68563m-107.65-50.44c0.46561 0.12278 1.3551 0.56285 1.8122 0.41211 0.49867-0.16411 0.86626-0.16046 1.3735-0.10819 1.7718 0.18235 3.5422 0.36469 5.314 0.54705 2.4995 0.2565 5.0052 0.45709 7.5084 0.67591 2.5534 0.22246 5.113 0.4036 7.6714 0.57258 2.6674 0.17628 5.4144 0.52638 8.0842 0.34647 2.5755-0.17385 5.3495 0.43885 7.7314 1.4369 2.2189 0.92877 3.7395 2.7596 4.9231 4.7654 2.8292 4.7909 5.2968 9.684 7.4459 14.812 4.1401 9.8761 6.3481 20.362 7.3699 30.976 0.45214 4.7046 1.0525 9.9235-1.4446 14.138-2.5535 4.3108-7.963 5.8133-12.458 7.2976-9.7935 3.2324-20.404 4.7946-30.728 4.2268-10.507-0.57865-21.138-2.5541-30.81-6.7676-4.7736-2.08-9.1502-4.8311-13.281-7.9699-0.9949-0.75615-1.9543-1.5938-2.8806-2.4301-0.33448-0.3027-1.213-0.86069-1.3564-1.274-0.14947-0.42912 0.15195-1.37 0.20094-1.8138 0.30387-2.7425 0.69963-5.4559 1.1187-8.1838 1.5794-10.294 4.4587-20.298 7.7792-30.155 0.88218-2.6161 1.8318-5.2067 2.7801-7.7997 0.47785-1.3081 0.99246-2.5991 1.5046-3.8938 0.40558-1.0248 1.3723-1.8989 2.1626-2.655 3.704-3.5424 8.6209-6.133 13.784-6.7275 0.59548-0.06808 4.3154-0.14709 4.395-0.42913" clip-rule="evenodd" fill="#093" fill-rule="evenodd" stroke="#000" stroke-width=".85432"/>
<path d="m245.57 119.83c0.48276-1.0163 1.7007-0.80599 2.7188-0.91783 1.0488-0.11548 2.0082-0.58959 2.8095-1.2497-1.1628 0.0705-2.2716 0.45952-3.4613 0.40603-1.3221-0.0596-2.5412-0.3574-3.8289-0.0778-2.7912 0.6054-5.5284 1.3822-8.2766 2.1529-4.8496 1.3616-10.036 2.8702-14.359 5.4839-2.0658 1.2485-4.3607 3.3236-5.499 5.4729-0.41783 0.79017-0.2377 0.78532 0.44354 1.3044 0.18868 0.14466 1.0231-0.64917 1.2277-0.83881 1.0133-0.93605 2.3513-1.6229 3.5018-2.3791 4.2345-2.779 9.0694-4.9623 13.874-6.5804 3.5667-1.2023 7.1567-2.0581 10.85-2.7766" clip-rule="evenodd" fill-rule="evenodd"/>
<path d="m144.18 71.455c-2.5534 0.28568-5.0713 0.71846-7.6027 1.1573-1.3037 0.22611-2.6086 0.44614-3.9061 0.70752-1.2228 0.24556-2.9406 0.34767-4.0678 0.88743-1.1113 0.53246-2.1957 1.6764-3.1306 2.4727-0.88707 0.75493-1.7594 1.533-2.578 2.3596-0.39697 0.40116-1.2105 0.91296-1.2105 1.5026 0 0.54948 0.0674 1.0722-0.14336 1.5828-0.52808 1.2801-1.0807 2.5529-1.583 3.8427-3.8816 9.9697-7.4741 20.119-10.008 30.519-0.66653 2.734-1.0684 5.4559-1.3858 8.2507-0.0564 0.49722-0.049 1.0029-0.0649 1.5026-0.0147 0.4267-0.26956 1.5342 0.0221 1.8758 0.83564 0.98225 1.659 1.9499 2.6564 2.7802 4.0948 3.4099 8.4984 6.2266 13.539 8.0501 2.4248 0.8777 4.7564 1.7858 7.2621 2.4569 2.4971 0.66984 5.0003 1.2704 7.5427 1.7457 5.1706 0.96524 10.402 1.5123 15.665 1.6132 10.489 0.20059 20.798-1.9134 30.671-5.2967 2.5154-0.8619 4.7613-2.1335 6.8369-3.7783 0.41411-0.32822 1.137-0.72939 1.3159-1.2351 0.20581-0.58231-0.10415-1.7275-0.14089-2.345-0.0711-1.1658-0.15929-2.3377-0.28673-3.4987-0.59305-5.4146-1.5046-10.734-2.7128-16.047-2.2998-10.116-6.1655-20.152-11.193-29.24-0.62369-1.1281-1.2338-2.266-1.8783-3.3844-0.50972-0.88622-1.0917-2.8325-2.1601-3.0294-2.9308-0.53976-5.8567-1.0455-8.801-1.5111-2.3366-0.36956-4.6707-0.7683-7.017-1.0747-1.3527-0.17748-3.0632-0.1167-4.3399-0.64187-0.38718-0.15925-1.2289-0.50693-0.97408-0.94214 0.36145-0.61755 1.0047-0.57014 1.7105-0.60539 4.2039-0.20788 8.4138-0.32094 12.62-0.47289-4.7675-0.27839-9.5398-0.52882-14.296-0.94457-2.3464-0.20545-4.6988-0.38051-7.0416-0.62121-1.5083-0.1556-3.0166-0.31-4.5249-0.4656-1.0255-0.10576-2.2091-0.43521-3.204-0.03404 1.2608 0.37442 3.6329 0.69536 4.4097 1.8612" clip-rule="evenodd" fill="#060" fill-rule="evenodd" stroke="#000" stroke-width=".61023"/>
<path d="m128.6 74.207c5.1179-1.2023 19.779-1.4928 25.006-2.0787-0.50726-0.75979 9.703-0.73909 8.8747-0.98101-1.1775-0.34524-23.236-1.685-24.424-1.9974-0.0821 0.29176-2.8769 0.25407-3.3829 0.31242-1.3515 0.15561-2.7054 0.37686-4.0237 0.71968-2.5093 0.65282-4.8532 1.7955-7.0526 3.1388-1.0415 0.63701-2.1074 1.4381-2.9884 2.2806-0.91158 0.87163-2.078 1.8089-2.7201 2.9067-0.60036 1.0248-0.94466 2.328-1.3539 3.4476-0.45459 1.2424-0.90792 2.4836-1.3625 3.726-3.5937 9.8286-6.8639 19.958-8.6748 30.28-0.49377 2.8167-0.97039 5.631-1.4041 8.4586-0.17399 1.1342-0.30876 2.2648-0.43497 3.4063-0.0931 0.83878-0.18625 1.6776-0.27935 2.5164-0.0747 0.66739 0.28916 0.78289 0.79396 1.2582 3.7677 3.5388 8.0953 6.4783 12.648 8.9254 9.0975 4.8882 19.724 7.4338 29.98 8.3735 10.39 0.95307 20.93 0.22369 31.011-2.5176 2.6184-0.71115 5.1926-1.5354 7.7485-2.4447 2.3464-0.83516 4.656-1.753 6.6372-3.2896 1.9175-1.4868 2.9652-3.3467 3.8853-5.5386 0.93121-2.2174 0.52566-5.1386 0.4387-7.4496-0.40316-10.667-2.6012-21.106-6.1006-31.179-1.6799-4.8347-3.8351-9.6208-6.3224-14.098-1.2853-2.3134-2.4787-4.8092-4.183-6.8491-1.6259-1.9475-3.8154-2.751-6.2047-3.3321-1.5218-0.36956-2.7568-0.67956-4.3141-0.64552-0.91775 0.02068-1.8404 0.11427-2.7593 0.1471-3.3278 0.12035-6.486 0.07231-9.8126 0.19267-0.70328 0.02553-1.335 0.19089-3.2168 0.64857-6.0535-1.1234-7.3415 0.13609-6.7485 0.37922 0.51706 0.21274 8.4467 0.93977 8.9981 1.0115 2.9614 0.38658 5.907 0.81936 8.8574 1.2862 2.388 0.37685 4.7773 0.74033 7.1555 1.178 1.137 0.2091 2.9259 0.08023 3.5324 1.133 0.67145 1.167 1.349 2.3304 2.0008 3.5084 2.5804 4.6633 5.14 9.4579 7.017 14.453 3.715 9.8882 6.7181 20.04 7.8723 30.569 0.30507 2.7863 0.53668 5.5665 0.70577 8.3638 0.038 0.63092-2.1822 1.9244-2.6956 2.2952-1.0256 0.74035-2.1454 1.398-3.3119 1.8989-4.7515 2.0374-9.8682 3.3285-14.909 4.4262-10.172 2.215-20.907 2.2295-31.157 0.53734-10.374-1.7116-20.639-4.8092-29.041-11.273-0.9998-0.76951-1.9285-1.612-2.845-2.4751-0.43252-0.40726-0.79888-0.86436-1.1836-1.3166-0.50237-0.5908-0.41414-0.79626-0.38718-1.5901 0.0919-2.7255 0.46558-5.3805 0.89812-8.072 0.39452-2.4532 1.1811-5.0268 1.8869-7.4034 0.81847-2.7608 1.6578-5.5118 2.524-8.2568 1.5438-4.8943 3.2604-9.7448 5.124-14.528 0.46558-1.195 0.92384-2.3949 1.4127-3.5813 0.53053-1.285 1.3662-2.6307 1.3662-4.0324 0-0.86069 0.12744-0.91904 0.7364-1.5342 0.43986-0.44614 0.87605-0.88864 1.3404-1.3105 0.98266-0.8923 1.9629-1.798 3.0007-2.6271 0.59668-0.47775 1.2289-0.91782 1.8416-1.3761" clip-rule="evenodd" fill-rule="evenodd"/>
<path d="m194.01 134.59c-0.0294-4e-3 -1e-3 -0.2164-0.13969 0.10333 0.0466-0.034 0.0931-0.0693 0.13969-0.10333" clip-rule="evenodd" fill="#093" fill-rule="evenodd"/>
<path d="m57.149 136.21c-1.8624 0.13615-3.5827 0.59935-5.3201 1.2728 1.7766-0.41574 3.5385-0.88742 5.3201-1.2728" clip-rule="evenodd" fill="#690" fill-rule="evenodd"/>
<path d="m288.51 120.07c-2.1675 2.7741-4.3632 5.5057-6.6434 8.1887 1.7582 0.868 3.3878 1.877 5.0419 2.9237 0.44355-0.74763 0.18379-2.1152 0.20585-2.9565 0.0233-0.91782 0.18377-1.849 0.28058-2.762 0.18992-1.8259 0.67758-3.6178 1.115-5.3939" clip-rule="evenodd" fill="#060" fill-rule="evenodd"/>
<path d="m286.91 131.18c0.0466 0.034 0.0919 0.0693 0.13847 0.10333 0.0122-0.12644 0.0257-0.28811 0-0.41333-0.0453 0.10333-0.1017 0.20422-0.13847 0.30999" clip-rule="evenodd" fill="#093" fill-rule="evenodd"/>
<path d="m270.4 132.94c0.49746-0.40117 0.99615-0.80234 1.4936-1.2035-5.1938 0.33431-10.502 0.95553-15.506 2.4398-5.2318 1.5512-10.428 3.0781-15.508 5.0681-1.1922 0.46683-2.3304 1.009-3.4773 1.5755 1.36 2.373-1.3184 4.5952-2.5302 6.3883-1.3821 2.046-1.409 4.8967-1.806 7.2466-0.23646 1.4041-0.27689 2.362-0.12985 3.7674 0.14455 1.3944 0.30874 2.7875 0.43494 4.1843 0.23403 2.5784 0.49012 5.1544 0.66778 7.7377 0.20094 2.9383 0.37616 5.8717 0.52562 8.8124 0.0282 0.58839 0.0588 1.1756 0.0882 1.7639 0.0233 0.45587 0.48519 1.0844 0.62978 1.5269 0.3602 1.0978 0.56362 2.3547 0.5195 3.5096-0.0968 2.5043-0.52933 4.9915-0.76213 7.4885-0.22297 2.3839 0.0319 5.1107-0.76456 7.3754-0.41657 1.184-0.10047 2.4812-1e-3 3.7272 0.0478 0.61754 0.0539 1.2424 0.0809 1.8612 0.0172 0.38901 0.0331 0.77802 0.0502 1.1658 0.011 0.24921 0.234 0.4194 0.24993 0.64187 0.0319 0.4583-0.33694 1.1634-0.37246 1.6642-0.0318 0.46439-0.0404 1.4199 0.19971 1.8454 0.42148 0.74399 2.067 1.5184 2.8046 1.9536 4.4624 2.6368 9.1809 5.1034 14.175 6.6011 5.0248 1.5062 10.119 2.6927 15.322 3.4221 5.2331 0.73427 10.525 1.5038 15.828 1.4053 1.3-0.0243 2.6061-0.0109 3.9049-0.0839 0.85769-0.0486 1.7154-0.096 2.5743-0.14466 0.90548-0.0511 0.80867-0.01 0.98632-0.91296 0.47664-2.4398 1.1714-4.8396 2.0817-7.1554 1.67-4.2536 4.0654-10.86 9.6906-10.522 0.82707 0.0499 0.63959-0.31243 0.79151-1.0965 0.11028-0.56651 0.29529-1.0965 0.47787-1.646 0.3394-1.0297 0.81847-2.0484 1.4826-2.9091 0.66898-0.86434 1.3318-1.5937 2.1589-2.3158 0.84053-0.73426 2.0732-1.6971 3.1746-1.9767 1.0733-0.27351 1.7105 0.76587 2.5841 1.1488 0.89322 0.39266 0.7229 0.27353 1.3453-0.42668 0.39452-0.44251 0.86626-0.88988 1.3208-1.2728 0.88341-0.74276 1.8477-1.319 2.8512-1.8794 0.53422-0.29906 0.93487-0.57015 1.4336-0.18965 0.50356 0.38417 1.0243 0.72576 1.5573 1.071-0.49379-1.3919-0.98879-2.7827-1.4826-4.1746-0.14707-0.41577-0.73516-0.42913-0.82707-0.72212-0.20214-0.64673-0.40309-1.2935-0.60527-1.9414-0.87362-2.7984-1.8489-5.3356-3.0582-8.0088-2.1638-4.7788-4.6057-9.453-7.1886-14.021-5.1314-9.0762-10.781-18.211-18.472-25.398-2.5277-2.3596-5.1596-4.6049-8.0058-6.578-1.4544-1.0078-3.1232-1.6022-4.9243-1.6022-1.4678 0-3.394 0.0973-4.569 1.1002-0.0796-0.32092-1.1346-0.26988-1.4948-0.31121" clip-rule="evenodd" fill="#690" fill-rule="evenodd"/>
<path d="m279.12 131.98c-0.59794 0.0462-1.1824 0.0754-1.7729 0.17263 0.96183 0.2638 1.9236 0.52761 2.8855 0.79018-0.39942-0.30634-0.75595-0.60905-1.1125-0.96281" clip-rule="evenodd" fill="#093" fill-rule="evenodd"/>
<path d="m279.12 131.98c-0.25487-0.28932-0.35534-0.72575-0.80131-0.44735 0.2659 0.14832 0.53421 0.29785 0.80131 0.44735" clip-rule="evenodd" fill="#093" fill-rule="evenodd"/>
<path d="m318.73 189.74c0.23034 0.11427 0.46314 0.22854 0.69351 0.3428-0.85279-2.1238-1.7105-4.2451-2.573-6.364 0.62608 2.0071 1.2534 4.0141 1.8795 6.0212" clip-rule="evenodd" fill="#093" fill-rule="evenodd"/>
<path d="m236.08 145.64c0.72413-0.9385 1.621-2.0399 1.7043-3.2689 0.0196-0.29054-0.0196-1.4114-0.38349-1.5476-0.30385-0.11427-1.7411 0.83153-2.0425 0.97498-2.317 1.1062-4.596 2.4568-6.7548 3.8427-4.5739 2.9346-8.8108 6.3725-12.691 10.157-0.3161 0.30878-2.1209 2.3304-1.5254 2.7365 1.1174 0.76101 2.1332 1.5731 3.1268 2.4885 1.8109 1.6679 3.3449 3.6725 4.5629 5.8024 2.5902 4.5369 4.901 9.1248 6.8529 13.952 2.6796 6.6241 4.1647 13.446 5.1007 20.499 0.10415-0.43521 0.28183-0.87285 0.44969-1.2886 0.19727-0.48991 0.14459-1.1658 0.22666-1.6934 0.18991-1.2278 0.0968-2.5213 0.21322-3.7649 0.24502-2.6185 0.66284-5.2383 0.84419-7.8568 0.0845-1.2218 5e-3 -2.4386-0.27446-3.6336-0.2377-1.0211-0.81605-1.8988-0.86872-2.9419-0.14457-2.852-0.29159-5.7002-0.4864-8.5498-0.31858-4.6608-0.78052-9.3059-1.2645-13.952-0.22054-2.1116 0.37983-4.2439 0.70943-6.3361 0.33327-2.1201 0.99122-4.0299 2.5007-5.6188" clip-rule="evenodd" fill="#360" fill-rule="evenodd"/>
<path d="m214 157.75c-0.1115 0.0681-0.21931 0.21761-0.31364 0.31 0.0772 0.0839 0.24136 0.20423 0.34796 0.2407 0.0502-0.2638 0.0956-0.52761 0.13843-0.7914-0.13233 0.0596-0.12008 0.13007-0.17275 0.2407" clip-rule="evenodd" fill="#093" fill-rule="evenodd"/>
<path d="m214.17 157.51c-0.06 0.37077-0.30753 0.8473 0.17399 0.99806-0.0294-0.89231 0.63589-1.5706 1.1125-2.2708-0.42884 0.42425-0.85889 0.84732-1.2865 1.2728" clip-rule="evenodd" fill="#690" fill-rule="evenodd"/>
<path d="m234.34 210.8c0 0.33796-0.12008 0.6832 0.2083 0.85948-0.1262-0.26745-0.15195-0.56772-0.2083-0.85948" clip-rule="evenodd" fill="#360" fill-rule="evenodd"/>
<path d="m234.65 208.01c-0.0625-0.15439-0.16295-0.30149-0.24136-0.44737v1.3421c0.0184-0.30877 0.0919-0.62121 0.24136-0.89473" clip-rule="evenodd" fill="#360" fill-rule="evenodd"/>
<path d="m293.34 222.33c-0.0576 0.26381-0.11518 0.5276-0.17275 0.79018 2.6919 0.45953 5.3752 0.87286 8.0904 1.1768 2.1148 0.23584 5.2845 0.0182 6.9999-1.4005 0.75966-0.6285 1.8452-1.5548 2.8585-1.3494 1.213 0.24555 2.4358 0.32579 3.6439 0.52516 2.3782 0.39388 4.8054-0.67348 6.9876-1.4795 0.66165-0.24434 0.45457-0.89109 0.42147-1.5281-0.0331-0.6358-1e-3 -1.2582 0.0796-1.8879 0.0797-0.60903 0.48397-0.85219 0.99002-1.1707 0.63589-0.39994 1.0402-0.15439 1.7154 0.0122 1.1958 0.29541 2.3574 0.49721 3.5925 0.49721 0.58691 0 1.1714-0.0194 1.7558-0.0863 0.73883-0.0839 1.338-0.53247 1.9862-0.88501 0.55994-0.30513-0.0784-2.6076-0.22544-3.2799-0.26957-1.2497-0.64082-2.4678-1.0476-3.6798-0.81481-2.4338-2.2569-4.7873-3.911-6.7433-0.34553-0.40969-0.5673-0.99685-1.1138-0.49843-0.57957-1.1962-1.1934-1.9062-2.2287-2.7474-0.31122-0.25285-0.82336-0.9628-1.1077-0.53976-0.0992 0.14833-0.50355 0.24679-0.66161 0.25774-0.5869 0.0425-1.1187-0.44737-1.6737-0.44737-0.90915 0-1.1113 0.51544-1.7105 1.1902-0.59914 0.67711-1.507 2.4447-2.4897 2.5517-1.289 0.14222-2.5204 0.19691-3.7726-0.19817-0.57588-0.18114-1.1162-0.41089-1.6333-0.7221-0.26709-0.16047-0.52438-0.3258-0.78291-0.49963-0.46071-0.31122-0.40313-0.23827-0.78908 0.15803-1.8452 1.8904-2.8965 4.3351-2.8965 6.9767 0 0.78045 0.39082 1.8916 0.10415 2.6027-0.31369 0.77802-1.3686 0.94699-2.1503 0.94699-0.87116 0-1.7926-0.0912-2.5914-0.48746-0.25363-0.12644-0.92754-0.61392-1.1272-0.41577-0.39822 0.39508-0.85769 0.77073-1.2118 1.2059-2.7532 3.3783-4.7295 6.9694-5.9278 11.155" clip-rule="evenodd" fill="#690" fill-rule="evenodd"/>
<path d="m322.17 220.44c-1.6529 0.61027-3.3437 1.0734-5.0064 1.6509 0.84297-0.29297 5.0958-0.47654 5.0064-1.6509" clip-rule="evenodd" fill="#093" fill-rule="evenodd"/>
<path d="m330.76 216.38c0.74006-0.17262 1.8698-0.0583 1.7729-0.96402-0.59058 0.32094-1.1811 0.64309-1.7729 0.96402" clip-rule="evenodd" fill="#093" fill-rule="evenodd"/>
<path d="m199.81 15.888c-9.9111-4.1053-20.171-6.6801-30.911-7.3633-5.1743-0.32944-10.409-0.32094-15.568 0.21153-5.2061 0.53732-10.426 1.0674-15.539 2.2162-5.1608 1.1585-10.252 2.6538-15.137 4.6852-4.9586 2.0618-9.5166 4.6426-14.119 7.373-1.0978 0.6516-1.9139 1.6691-2.7826 2.5736-0.83562 0.87042-1.6664 2.1226-1.6664 3.3334 0 1.319 0.1899 2.0897 1.1015 3.1036 0.8785 0.97861 1.7962 1.9171 2.7752 2.7972 0.96304 0.86556 1.9432 1.8636 3.1109 2.435 0.45947 0.22611 1.235 0.3878 1.6002 0.72332 0.21319 0.19572 0.223 0.60905 0.41658 0.82544 0.2267 0.25286 0.67024 0.43764 0.95449 0.62242 2.1859 1.4248 4.5665 2.5942 6.9852 3.5704 9.7518 3.9375 20.213 3.2981 30.438 2.1615 10.562-1.1743 21.087-2.9796 31.387-5.5933 0.89319-0.22611 1.7852-0.45344 2.6784-0.67955 0.34917-0.08874 1.0942-0.12278 1.3441-0.40482 0.96306-1.0892 1.931-2.1724 2.9125-3.2446 1.5046-1.6448 2.9676-3.3783 4.2173-5.2322 0.67636-1.0029 1.3796-1.9475 2.0695-2.9431 0.7376-1.0637 1.6149-1.8393 2.0082-3.0866 0.32713-1.0345 0.29894-2.1785 0.60407-3.2252 0.35286-1.2059 1.2252-2.4313 1.3796-3.6567 0.0515-0.41089-0.0833-0.83273-0.26096-1.2023" clip-rule="evenodd" fill="#060" fill-rule="evenodd" stroke="#000" stroke-width=".73227"/>
<path d="m104.02 29.788c-0.20218 0.84246-0.0233 0.89351 0.55627 1.5488-0.23157-0.5045-0.48399-0.9932-0.55627-1.5488" clip-rule="evenodd" fill="#093" fill-rule="evenodd"/>
<path d="m112.68 37.977c-0.68614-0.30635-1.3674-0.61877-2.0511-0.92877 0.8099 0.6127 1.6247 1.1901 2.4689 1.7542-0.13968-0.27474-0.27936-0.54948-0.41782-0.82544" clip-rule="evenodd" fill="#093" fill-rule="evenodd"/>
<path d="m88.304 68.186c-3.5826-2.8058-9.927-4.4214-13.99-1.6873-2.2251 1.4965-4.0274 3.771-5.8224 5.7428-1.6161 1.7749-3.1403 3.647-4.5996 5.5495-1.6578 2.1578-3.2469 4.3472-4.754 6.612-0.77436 1.1646-1.4887 2.3511-2.2055 3.551-0.61263 1.0285-1.5193 1.8891-2.2582 2.8374-0.15927 0.20545-0.37493 0.451-0.47906 0.68684-0.1066 0.24557-0.03431 0.63701-0.21688 0.83881-0.44722 0.49477-0.80991 0.98712-1.1517 1.5585-0.25976 0.43642-0.42395 1.1439-0.75476 1.4977-0.52564 0.56406-1.0513 1.1281-1.5781 1.6922-0.91157 0.9774-1.7362 2.0593-2.5975 3.0817-0.72903 0.86556-1.8023 1.8818-2.1099 2.9638-0.669 2.356-0.75476 4.9478-0.03308 7.2916 0.14212 0.46438 0.56973 0.79747 0.74004 1.2716 0.21687 0.59932 0.25852 1.1038 0.15805 1.7311-0.1164 0.73061 2.1013 1.9609 2.7201 2.2465 0.46316 0.21396 0.83319 0.46925 1.3417 0.44372 0.90545-0.045 1.8109-0.0887 2.7164-0.13251 1.3539-0.0656 2.7017-0.10333 4.058-0.12278 2.6257-0.0365 5.26 0.18964 7.8821 0.32945 5.2674 0.28325 10.56 1.2533 15.694 2.4131 1.2559 0.28325 2.502 0.6054 3.7517 0.91418 0.53175 0.13129 1.0562 0.30027 1.583 0.45222 0.48523 0.13981 1.3637 0.58595 1.8367 0.42913 0.39576-0.13129 0.80868-0.9008 1.1223-1.2412 0.58077-0.62971 0.1985-0.83881 0.33817-1.6156 0.19358-1.0746 0.94222-2.4982 1.4948-3.4573 1.2363-2.1456 2.0254-4.7435 2.8009-7.0849 0.75353-2.2757 1.4115-4.5514 2.0315-6.8673 1.2951-4.8371 1.9102-9.9903 2.1332-14.988 0.16541-3.709 0.1311-7.125-1.6921-10.463-1.6259-2.9723-4.9488-5.4705-8.1602-6.4746" clip-rule="evenodd" fill="#060" fill-rule="evenodd" stroke="#000" stroke-width=".85432"/>
<path d="m46.615 113.64c-0.20829 0.46438 1.115 1.4029 1.4544 1.6898 0.34552 0.29298 0.72169 0.55434 1.0831 0.82908 0.13478 0.10212 1.0121-0.0413 1.2179-0.0413-1.4213-0.65524-2.5988-1.4284-3.7554-2.4775" clip-rule="evenodd" fill="#093" fill-rule="evenodd"/>
<path d="m88.13 120.45c0.0968-0.0353 0.14089 0.017 0.17399-0.0693-0.09434-6e-3 -0.09557 0.0413-0.17399 0.0693" clip-rule="evenodd" fill="#093" fill-rule="evenodd"/>
<path d="m38.652 147.63c-0.36021 0.3258-0.62856 1.0917-1.001 1.3081-0.43375 0.25284-0.92142 0.58108-1.2412 0.87405-0.93856 0.85948-1.8967 1.6995-2.7936 2.6015-1.9788 1.9888-3.9049 3.9959-5.7391 6.1172-3.432 3.9716-6.4375 8.1741-9.3242 12.544-2.8745 4.352-5.1988 9.1211-7.2927 13.879-0.98388 2.2356-1.8085 4.5271-2.6907 6.8028-0.52073 1.3421-1.0451 2.6842-1.5794 4.0214-0.15806 0.39628-0.63836 1.0564-0.37983 1.443 0.45212 0.67591 0.90424 1.353 1.3564 2.0289 2.9737 4.4493 6.4265 8.5765 9.9834 12.571 1.6627 1.8672 3.5569 3.4537 5.3054 5.2346 1.7962 1.8296 3.5459 3.6348 5.4879 5.3222 1.0598 0.92147 1.9482 1.691 3.2935 2.17 1.2473 0.44492 2.2116 0.52759 3.5226 0.52759 2.6809 0 5.3617-2e-3 8.0438-0.017 5.3862-0.028 10.769-0.14103 16.154-0.28325 8.6503-0.22854 17.306-0.87894 25.935-1.4892-0.54524-1.0321-0.88219-2.0338-0.74251-3.2106 0.08577-0.72332 0.16541-1.3664 0.46192-2.0362 0.16664-0.37808 1.3294-0.54827 1.7068-0.60297 2.7715-0.39753 4.7013 1.471 7.0232 2.5808 0.08577-0.53732 0.23891-1.1403 0.20829-1.6861-0.03186-0.56527-0.3394-0.80597-0.64815-1.3068-0.4215-0.68441-0.36024-1.1318-0.36024-1.9438 0-0.84853-0.08209-0.96524-0.67512-1.5938-1.7583-1.8563-3.7542-3.4744-5.842-4.949-0.9606-0.67834-2.0854-1.2242-2.9921-1.9572-0.98511-0.79747 0.45578-1.8891 0.0074-2.8677-0.23526-0.51301-0.80009-0.93242-0.99736-1.4162-0.17889-0.43521 0.02941-1.0832-0.24383-1.5135-0.57343-0.90565-2.0927-1.7323-2.9565-2.3572-0.68982-0.49963-1.3931-0.94701-2.1197-1.3932 0.1556-0.1009 0.26587-0.26988 0.41658-0.3793-0.53299-0.12885-0.9263-0.39994-1.3098-0.78045-0.24015-0.23827 0.2328-1.5293 0.33572-1.8697 0.35042-1.1561 0.86992-2.5116 1.5132-3.5388 1.3625-2.176 2.9357-4.3958 3.987-6.7372 1.0329-2.3012 2.2692-4.4992 3.2518-6.8345 0.97901-2.328 1.6946-4.7374 2.4787-7.1323 0.78662-2.4022 1.3564-4.8809 2.029-7.3171 0.41905-1.5159 0.83684-3.0319 1.2559-4.549 0.17768-0.64066 0.35411-1.2813 0.53054-1.922 0.12008-0.43521-0.59793-1.1172-0.83563-1.4685-2.9235-4.3375-6.8908-7.6283-11.34-10.334-1.9996-1.2157-4.3778-2.9358-6.685-3.4561-2.524-0.57013-5.0922-1.1184-7.6787-1.3166-2.6992-0.20786-5.3728-0.43033-8.083-0.3428-2.5657 0.0839-5.3005 1.2072-7.6677 2.1359-2.0609 0.80841-3.9931 1.7749-5.9192 2.858-1.8563 1.054-3.4258 2.2866-5.1498 3.5813m35.188 63.72c0.3492-0.89958 0.44599-1.7445 1.3551-2.3219 0.42516-0.26988 0.79152-0.50935 1.2865-0.63578 0.2965-0.0766 1.2522-0.028 1.2865-0.27597 0.93611 0.13372 2.6306 0.54828 2.6074 1.6861-0.0061 0.29297-0.13109 0.69171-0.24383 0.96402-0.29529 0.71481-0.66532 0.74033-1.4041 0.94335-0.30386 0.0839-1.3466 0.25285-1.4581 0.48992-0.35042 0.74398-0.70207 1.488-1.0525 2.232-0.24504 0.51908 0.28305 0.72088 0.64816 1.1075 0.39698 0.42062 0.81236 0.86432 1.1211 1.353 0.61019 0.96402 0.44721 2.3596 0.22791 3.4209-0.07229 0.34646-0.06371 1.133-0.5134 1.116-0.50726-0.0195-1.4924 0.0766-1.8648-0.29175-0.54768-0.54221-0.60649-0.65404-0.71065-1.3567-0.11027-0.74518-0.44599-1.1452-0.90423-1.7202-0.40924-0.51301-0.72169-0.84124-1.251-1.2047-0.22544-0.15439-0.4178-0.30999-0.59791-0.513-0.17154-0.19452-0.06494-0.46561-0.1838-0.62243-0.01838-0.0231-0.03553-0.0462-0.05269-0.0693-0.13723 0.1422-0.41414 0.79746-0.53299 0.78773-0.73148-0.0559-1.4323-0.096-2.165-0.0766-1.2547 0.034-2.5926 0.19571-3.7689 0.66375-1.1787 0.46925-2.0229 1.4041-3.1268 1.9378-1.1995 0.57987-2.1712 1.2351-3.1673 2.114-0.91404 0.80599-1.5536 1.8405-2.4652 2.6307-0.39332 0.34039-0.76579 0.75859-1.289 0.92148-0.22546 0.0705-0.24996 0.2018-0.4754 0.0973-0.12621-0.0583-0.90302-0.34159-0.86259-0.45465 0.84788-2.3085 2.0204-4.6353 3.5998-6.5439 1.8158-2.1979 3.6954-4.3667 6.7438-4.7022 1.3502-0.1483 2.7985-0.41817 4.1463-0.0851 0.96305 0.23827 3.0803 0.50085 3.4687 1.6071 0.2965-0.42913 0.68614-0.77802 0.86624-1.2558 0.24383-0.64554 0.48766-1.2935 0.7327-1.9426m5.945-3.4744c-0.02573-0.51786 0.41292-1.0929 0.74496-1.4539 0.31-0.33796 1.1799-0.12886 1.3061-0.54096 1.9543 1.0467 3.7566 2.8726 5.4193 4.3326 1.0071 0.88499 1.9935 1.7846 2.9774 2.6951 0.22544 0.20789 0.8785 0.71726 0.85276 1.0588-0.01838 0.24192-0.79396 1.1294-0.97408 1.3068-0.18133 0.17993-0.84664 0.68442-1.1125 0.68808-0.39086 7e-3 -1.1836-0.57622-1.5328-0.77925-1.1027-0.64307-2.154-1.3166-3.1649-2.0958-1.8318-1.4114-3.3094-3.2592-4.5163-5.2116" clip-rule="evenodd" fill="#690" fill-rule="evenodd"/>
<path d="m73.978 210.66c-0.04043 1.4223-0.97408 2.7814-1.7386 3.8877-0.34676-0.98834-2.0891-1.2655-2.9737-1.4843-1.2253-0.30392-2.4419-0.30392-3.6893-0.14464-2.5694 0.32822-4.7136 1.1986-6.3946 3.2324-1.6847 2.0374-3.1563 4.0834-4.259 6.4989-0.15316 0.33674-0.76334 1.3567-0.66041 1.6691 0.15685 0.47532 1.1211 0.42548 1.4458 0.26381 1.0905-0.53976 1.7239-1.4612 2.4824-2.3632 0.85647-1.0175 1.98-1.9414 3.1146-2.6368 0.53301-0.32701 1.2608-0.47533 1.7289-0.87771 0.5587-0.48019 1.0856-0.88742 1.746-1.2266 1.3404-0.68806 2.7519-1.0236 4.2602-1.1087 0.76334-0.0426 1.4973-0.0158 2.2557 0.0426 0.56361 0.0425 0.51585-0.43035 0.83809-0.76466 0.18992 0.41576 0.18499 0.72332 0.62608 1.0491 0.58201 0.43036 0.96184 0.74765 1.4299 1.3202 0.39576 0.48502 0.74007 0.86675 0.87361 1.4794 0.15438 0.70387 0.07106 0.94335 0.61508 1.4819 0.43988 0.43521 1.0219 0.40845 1.6357 0.43157 0.72659 0.028 0.70084-0.14832 0.85155-0.87771 0.21197-1.0248 0.50481-2.559-0.0968-3.5121-0.29529-0.46682-2.0842-2.1031-1.9163-2.4581 0.34551-0.73305 0.69103-1.4661 1.0366-2.1991 0.19359-0.41092 0.97163-0.50208 1.3956-0.61878 0.72166-0.19937 1.1321-0.16776 1.4409-0.84489 0.13723-0.3015 0.34797-0.70387 0.34797-1.0503 0-1.1816-1.5316-1.5378-2.5216-1.7214-0.02818-5e-3 -0.05759-0.0109-0.08699-0.0158-0.02205 0.15924-1.735 0.37928-2.0866 0.60297-0.80623 0.51666-1.3294 1.0528-1.7007 1.9451" clip-rule="evenodd" fill-rule="evenodd"/>
<path d="m79.994 207.22c-0.64937 0.83029 0.87116 2.2526 1.3613 2.8981 0.68002 0.89838 1.4985 1.8077 2.3819 2.5164 0.92139 0.73912 1.8649 1.4588 2.8879 2.0557 0.91404 0.53246 2.1356 1.663 3.0864 0.85704 0.37004-0.31363 0.62489-0.57623 0.92263-0.9774 0.408-0.54704 0.54892-0.78531-0.02083-1.3117-0.93611-0.86557-1.8673-1.7372-2.8267-2.5797-1.8354-1.6108-3.7934-3.6446-5.9511-4.8006-0.09802 0.32092-0.65429 0.23461-0.97287 0.37927-0.44598 0.2018-0.67634 0.50815-0.86871 0.9628" clip-rule="evenodd" fill-rule="evenodd"/>
<path d="m36.566 149.7c0.35658-0.28689 0.68983-0.52638 1.0856-0.75614 0.25484-0.14832 0.55749-0.81571 0.7572-1.0686-0.70574 0.58109-1.2608 1.122-1.8428 1.8247" clip-rule="evenodd" fill="#093" fill-rule="evenodd"/>
<path d="m24.709 218.68c0.06984 0.0571 0.1397 0.11428 0.20832 0.17263-1.5095-1.6752-3.0791-3.2483-4.7981-4.7131 1.5083 1.539 3.0338 3.0477 4.5898 4.5405" clip-rule="evenodd" fill="#093" fill-rule="evenodd"/>
<path d="m31.038 224.32c0.84054 0.88621 1.5487 0.74883 2.747 0.79019-1.2179-0.35742-2.35-0.79383-3.4773-1.3761 0.2426 0.19695 0.48644 0.39143 0.73027 0.58595" clip-rule="evenodd" fill="#093" fill-rule="evenodd"/>
<path d="m97.206 172.34c-0.756-1.2473-0.76824-2.7547-0.94098-4.1697-0.16542-1.3506-0.40802-2.7401-0.77192-4.0542-0.81602-2.9382-1.9396-5.631-3.4332-8.292-2.725 9.8712-4.9647 20.032-10.159 28.986-1.349 2.3268-2.9014 4.5697-4.0556 6.9962-0.57218 1.2011-0.92873 2.4301-1.2289 3.7187-0.11517 0.49234 0.47174 0.81328 0.8969 1.0017 0.62608 0.27597 0.95325-0.34402 1.4029-0.75613 1.7178-1.5779 3.5055-3.0708 5.1963-4.6827 1.9237-1.8332 3.4307-3.991 4.9145-6.1938 2.7924-4.1478 5.4794-8.3479 8.1786-12.554" clip-rule="evenodd" fill="#360" fill-rule="evenodd" stroke="#360" stroke-width=".8"/>
<path d="m32.707 144.88c0.12988 0.13129 0.23404 0.30148 0.34797 0.44735-0.74496 0.15682-1.4605 0.33432-2.1908 0.55071 0.6396 0.49234 2.3635 2.3012 3.1452 1.6557 1.0207-0.84245 2.1785-1.5013 3.3572-2.1031-0.57956 0.0693-1.1591 0.13736-1.7386 0.20667 0.05636-0.26988 0.13845-0.5361 0.24383-0.7914-0.66289 0.096-1.3123 0.19937-1.9666 0.33675-0.60773 0.12642-0.81971-0.85706-1.3368-0.40606 0.04534 0.034 0.0919 0.0681 0.13846 0.10334" clip-rule="evenodd" fill="#093" fill-rule="evenodd"/>
<path d="m205.76 162.36c-4.3803 0.84977-8.6319 2.1311-12.979 3.1279-4.5187 1.037-9.0975 1.663-13.69 2.2733 0.0711 0.17263 0.0797 0.37321 0.13966 0.55071-0.80255-0.0754-1.5708-0.12401-2.377-0.0486-0.43622 0.0413-2.1577 0.52517-1.9347-0.12401-4.3692 0.17993-8.714 0.19574-13.087 0.10333-4.4011-0.0924-8.8059-0.72332-13.165-1.274v0.27595c-0.85892-0.10941-1.8869-0.42306-2.747-0.27595 0.20463-0.65282-0.92874-0.61633-1.3907-0.7051-0.70942-0.13492-1.4176-0.26988-2.1258-0.4048-1.2534-0.23827-2.4995-0.54827-3.7493-0.80963-2.5142-0.52518-5.0088-1.2072-7.4974-1.8466-2.8806-0.73912-5.7526-1.505-8.6246-2.2782-1.1738-0.31608-2.3402-0.65768-3.5091-0.98833-0.72658-0.20668-1.4544-0.41212-2.1822-0.61878-0.50602-0.14346-1.164 0.15925-1.6614 0.26988-2.6159 0.58229-5.2625 1.5135-7.6174 2.7912-0.55871 0.30392-0.58199 0.79992-0.81602 1.3774-0.25363 0.62606-0.62732 1.2132-0.86381 1.8356-0.47785 1.2631-1.2951 2.4885-1.9298 3.681 10.306 3.1048 20.564 6.4977 30.968 9.2609 5.0383 1.3384 10.081 2.7547 15.316 3.0221 2.5669 0.13131 5.14 0.0267 7.6836-0.35133 2.7054-0.40239 5.347-0.92268 8.0977-0.92025 2.5265 2e-3 5.2723 0.14345 7.7069 0.85218 0.56851 0.16534 1.1346 0.36471 1.6811 0.59323 0.55378 0.22978 1.1738 0.81086 1.7386 0.92878 0.50113 0.10455 1.246-0.10576 1.7521-0.1483 0.85156-0.0729 1.7043-0.14466 2.5559-0.2176 2.6808-0.22736 5.3556-0.53369 8.0291-0.82424 1.2755-0.13858 2.551-0.28446 3.8253-0.43035 0.47416-0.0535 1.3515 0.0207 1.7791-0.20301 0.43497-0.22731 0.5526-0.69414 1.1824-0.5835 0.30997 0.0535 0.4472 0.39507 0.88342 0.327 0.89199-0.13858 1.7827-0.27839 2.6748-0.4182 1.1334-0.17748 2.2667-0.35376 3.4001-0.53487 2.9578-0.47657 5.8972-0.99077 8.8427-1.539 2.4211-0.45102 4.8557-0.84732 7.2523-1.4138 0.51093-0.12035 3.367-0.53004 3.5472-0.96282 0.10047-0.24313-0.88099-1.5998-1.0194-1.8514-0.28182-0.51423-0.56854-1.026-0.85403-1.539-1.4666-2.6319-3.0447-5.2006-4.917-7.5724-0.98755-1.2509-2.0229-2.4471-3.0913-3.6287-0.25975-0.28691-0.98512-1.319-1.3833-1.2169-0.66042 0.17019-2.0021 0.26503-1.6002 1.1524-1.0353 0.16411-2.029 0.40239-2.9896 0.82543v-0.10333c-0.42029 0.1945-0.83564 0.38899-1.2534 0.58472" clip-rule="evenodd" fill="#060" fill-rule="evenodd" stroke="#000" stroke-width="1.2205"/>
<path d="m211.77 159.81c-0.1164 0.12764-0.0613 0.0669 0 0" clip-rule="evenodd" fill="#093" fill-rule="evenodd"/>
<path d="m222.83 175.78c0.0478-0.0924 0.0478-0.0924 0 0" clip-rule="evenodd" fill="#093" fill-rule="evenodd"/>
<path d="m209.83 159.88c0.0257 0.11306 0.49009 0.14589 0.59057 0 0.0772-0.11184-0.0649-0.61633-0.0331-0.79018-0.33571 0.14953-0.67264 0.29784-1.0084 0.44616 0.14706 0.11184 0.29038 0.25164 0.4509 0.34402" clip-rule="evenodd" fill="#093" fill-rule="evenodd"/>
<path d="m218.41 180.76c-2.5436 0.186-5.0714 0.58717-7.566 1.1282-0.94348 0.20422-0.54648 0.46559-0.87239 1.2424-0.23894 0.56772-0.55994 1.0601-0.98389 1.5171-0.93241 1.0066-2.0744 1.8114-3.1514 2.6538-3.9748 3.1097-8.0843 5.992-12.254 8.8306-0.84666 0.57623-1.7031 1.1366-2.562 1.6934-0.66409 0.43155-1.2682 0.73181-1.8183-0.034-1.5169 2.5225-3.0338 5.0462-4.5494 7.5687-0.50237 0.83516 0.75352 1.9001 1.311 2.5626 0.84173 0.99927 1.7729 1.9171 2.8206 2.7036 4.1683 3.1279 8.9909 3.7527 13.958 4.6633 4.8484 0.88744 9.9246 1.5755 14.868 1.3907 5.0567-0.18965 9.9283-0.89594 14.882-1.8916-1.7092-2.0496-2.5522-4.3594-2.3023-7.0338 0.2426-2.5967 0.26589-5.1921 0.18625-7.7973-0.15439-5.1459-1.447-10.17-3.2187-14.981-0.74496-2.0241-1.7815-3.9278-2.5608-5.9373-1.9849 1.0831-3.9417 1.5427-6.1875 1.7202" clip-rule="evenodd" fill="#360" fill-rule="evenodd"/>
<path d="m196.37 187.27c-0.15196 0.42669-0.64695 0.30026-0.86996 0.6443-0.4386 0.67711-0.87728 1.353-1.3159 2.029-0.65799 1.0151-1.3282 2.0241-1.9703 3.0489-0.90302 1.4442-1.806 2.8872-2.709 4.3302-0.63956 1.0224 0.64205 1.0795 1.3502 0.62121 4.368-2.8362 8.6087-5.8097 12.783-8.9193 1.4201-1.0588 2.7985-2.1809 4.1941-3.2726 1.2351-0.96644 2.1883-2.1456 2.3439-3.7114-2.9798 0.49234-5.9584 0.9859-8.937 1.4782-0.7217 0.12035-1.4446 0.23947-2.1663 0.35862-0.20706 0.034-0.79274 0.0219-0.96182 0.15925-0.28915 0.23463-0.45091 1.274-0.65429 1.6205-0.33207 0.55799-0.71556 1.0819-1.0868 1.6132" clip-rule="evenodd" fill="#690" fill-rule="evenodd"/>
<path d="m200.3 214.79c-0.10169-9e-3 -0.16053-0.0523-0.27812 0h0.27812" clip-rule="evenodd" fill="#093" fill-rule="evenodd"/>
<path d="m148.18 185.13c-0.68369-0.0559-1.3674-0.11306-2.0511-0.16897-0.0821-7e-3 0.0331-0.26503-0.18133-0.30635-0.39331-0.0754-0.78664-0.15196-1.1787-0.22735-1.1983-0.23095-2.388-0.46925-3.5667-0.75247-2.9137-0.70145-5.8188-1.4236-8.7202-2.1736-5.0787-1.3105-10.029-3.0659-15.029-4.6292-1.8268-0.57136-3.6684-1.1014-5.5026-1.6509 1.3588 2.2429 1.746 4.5539 1.9824 7.1226 0.24751 2.6842 0.47296 5.366 0.59549 8.0586 0.22791 5.0037 0.34921 10.135-1.327 14.933-0.52809 1.5135-1.1076 3.072-1.9114 4.4639-0.68981 1.1938-1.1591 2.8653-2.5387 3.4063 5.3311 0.83394 10.657 1.4685 16.063 1.5147 5.4536 0.0462 10.842-0.50571 16.237-1.2302 3.5643-0.47898 7.0906-1.1245 10.674-1.4892-0.55137-0.95186-1.1187-1.8964-1.6382-2.8665-0.2855-0.53246-0.7805-1.1598-0.93487-1.7445-0.0515-0.19329 0-0.48871 0-0.69294 0-0.22852-0.29774-0.52637-0.42395-0.72332-0.20461-0.31727-0.12008-0.9324-0.14458-1.2947-0.0576-0.85099-0.11395-1.7019-0.17154-2.5541-0.0637-0.94213-0.10782-1.8758-0.13354-2.8203-0.0649-2.3924-0.17032-4.7885-0.17032-7.1822 0-1.1342 0.0135-2.2636 0.0441-3.3966 0.027-0.96282 0.42027-2.7292 0.027-3.5959" clip-rule="evenodd" fill="#360" fill-rule="evenodd" stroke="#360" stroke-width=".5"/>
<path d="m148.25 185.13c-0.0539 0.0523-0.0515 0.051 0 0" clip-rule="evenodd" fill="#093" fill-rule="evenodd"/>
<path d="m113.76 180.45c-0.21074-1.2011-0.39942-2.424-0.90424-3.5437-0.24996-0.55435-0.54035-1.0856-0.85521-1.6047-0.22791-0.37562-1.6406-0.50571-2.0536-0.61512-1.2571-0.3343-2.4713-0.74765-3.688-1.2035-0.49257-0.18477-0.97776-0.44856-1.4409-0.699-0.82952-0.44736-0.98756-0.6297-1.7852-0.0377-1.1297 0.83878-1.9494 1.5572-2.7372 2.7267-0.74007 1.0978-1.4679 2.1931-2.252 3.2616-0.69104 0.94092-1.4323 1.8101-1.7595 2.9395-0.13234 0.45954-0.48889 1.1804-0.29284 1.6667 0.19725 0.48991 0.98266 0.85339 1.3845 1.1902 4.0544 3.4038 5.2049 8.9521 6.3432 13.84 0.54401 2.3341 0.94222 4.7411 1.1983 7.1238 0.15071 1.398 0.27691 2.7924 0.38351 4.194 0.0478 0.61392 0.0919 1.229 0.13722 1.8442 0.0539 0.73669 0.34308 0.85339 1.0182 1.1573 0.96304 0.43279 2.2398 0.78776 3.0607 0.034 0.86871-0.79746 1.3527-2.131 1.9126-3.1656 1.2142-2.249 1.8942-4.6669 2.551-7.1104 1.2682-4.718 0.78783-10.207 0.38962-15.018-0.18991-2.328-0.39575-4.6536-0.61018-6.9803" clip-rule="evenodd" fill="#690" fill-rule="evenodd"/>
<path d="m102.8 171.54c-0.0466 0.0571-0.0931 0.11427-0.13847 0.17263 0.35779 0.11913 0.69717 0.2638 1.0427 0.41332-0.30265-0.19209-0.60529-0.38657-0.90425-0.58595" clip-rule="evenodd" fill="#093" fill-rule="evenodd"/>
<path d="m103.71 172.13c-0.65429-0.28325-0.92385-0.60783-1.3172 0.0353-0.44233 0.72209-0.8834 1.4442-1.3257 2.1675 0.85156-0.79626 1.773-1.4758 2.7826-2.0642-0.0466-0.0462-0.0931-0.0936-0.13967-0.13859" clip-rule="evenodd" fill="#360" fill-rule="evenodd"/>
<path d="m96.162 183.62c-0.63223-0.73426 0.24505-2.3 0.55627-3.0282-0.48644 0.82545-0.97284 1.6521-1.4605 2.4775 0.31979 0.15803 0.6163 0.3416 0.90424 0.55069" clip-rule="evenodd" fill="#360" fill-rule="evenodd"/>
<path d="m105.48 212.14c-0.21198 0.65644 0.91405 0.62241 1.3564 0.72332-0.48274-0.21761-0.91035-0.43764-1.3564-0.72332" clip-rule="evenodd" fill="#360" fill-rule="evenodd"/>
<path d="m162.29 200.38c-1.273 0.045-2.4407 0.25529-3.6856 0.51666 0.55016 0.38902 1.0415 0.72941 1.773 0.51666 0.59304-0.17264 1.3233-0.77196 1.9126-1.0333" clip-rule="evenodd" fill="#fff" fill-rule="evenodd"/>
<path d="m153.15 206.43c0.40678 1.7226 0.98633 3.3078 1.8256 4.8687 0.43007 0.79868 0.90547 1.5573 1.3894 2.3268 0.18013 0.28691 0.6984 0.49965 0.99122 0.6978 0.21689 0.14587 0.43254 0.29055 0.64939 0.43644 0.087 0.0596 0.37985-0.24801 0.34555-0.30028-1.98-3.0525-3.6635-6.1683-5.0273-9.5418-0.47416 0.53489-0.30263 0.79991-0.17397 1.5123" clip-rule="evenodd" fill="#fff" fill-rule="evenodd"/>
<path d="m153.01 205.33c-0.0576-0.24069-0.1164-0.48141-0.17399-0.72212 0.0441 0.24923 0.0711 0.75738 0.17399 0.72212" clip-rule="evenodd" fill="#093" fill-rule="evenodd"/>
<path d="m270.85 74.138c-0.60037-0.65889-1.191-1.3214-1.7729-1.9961 0.70698 0.98712 1.4127 1.973 2.1197 2.9589-0.17641-0.29905-0.30997-0.61391-0.34673-0.96281" clip-rule="evenodd" fill="#093" fill-rule="evenodd"/>
<path d="m278.74 89.793c0.27079-0.58231-0.41906-0.84854-0.79889-1.1695 0.26714 0.39023 0.53175 0.78046 0.79889 1.1695" clip-rule="evenodd" fill="#093" fill-rule="evenodd"/>
<path d="m300.47 104.24c0.89447-0.0936 1.7803-0.22125 2.676-0.31-0.72165-0.40481-1.4348-0.761-2.1895-1.1014-0.16172 0.47046-0.32468 0.94093-0.48644 1.4114" clip-rule="evenodd" fill="#093" fill-rule="evenodd"/>
<path d="m324.5 193.39c0 0.63092-0.0208 1.2327-0.0845 1.86-0.0453 0.45222 1.099 0.59933 1.4997 0.80233 1.2486 0.63579 2.4015 1.3032 3.4871 2.1882-1.4924-1.7967-3.0828-3.3808-4.9023-4.8505" clip-rule="evenodd" fill="#690" fill-rule="evenodd"/>
<path d="m207.18 18.537c-0.5918-0.54584-1.0464-1.2351-1.599-1.8235-0.11027 0.4194-0.42884 0.83881 5e-3 1.0503 0.53175 0.25772 1.0623 0.51544 1.594 0.77316" clip-rule="evenodd" fill="#093" fill-rule="evenodd"/>
<path d="m42.581 111.5c-0.15071 0.25285-0.30143 0.5045-0.45213 0.75736 0.1752-0.23949 0.42271-0.4656 0.45213-0.75736" clip-rule="evenodd" fill="#093" fill-rule="evenodd"/>
<path d="m87.47 192.84c-0.96797 0.8911-1.9298 1.7834-2.9284 2.6404-0.91894 0.78896-1.5524 1.2218-1.1395 2.5201 1.338-1.7347 2.7189-3.4342 4.0679-5.1605" clip-rule="evenodd" fill="#690" fill-rule="evenodd"/>
<path d="m89.904 225.53c1.1946-0.0499 2.127-0.29542 3.1979-0.82666-0.91283-0.29663-1.2216-0.24922-1.6725-1.1427-0.19236-0.38048-0.04043-0.42912-0.41414-0.68076-0.30876-0.20787-0.85768-0.26623-1.2167-0.37806 0.03431 1.009 0.06984 2.0192 0.10537 3.0282" clip-rule="evenodd" fill="#690" fill-rule="evenodd"/>
<path d="m245.71 45.306c-1.7497-2.4605-3.7591-4.1454-6.7107-5.0231 2.3929 1.4965 4.6217 3.1291 6.7107 5.0231" clip-rule="evenodd" fill="#060" fill-rule="evenodd"/>
<path d="m324.39 73.588c-0.12743-0.16047-0.25487-0.32094-0.38349-0.48141-0.0968 0.19694 0.18375 0.31364 0.38349 0.48141" clip-rule="evenodd" fill-rule="evenodd"/>
</svg>