<?xml version="1.0" encoding="UTF-8"?>
<!DOCTYPE svg PUBLIC "-//W3C//DTD SVG 1.1//EN" "http://www.w3.org/Graphics/SVG/1.1/DTD/svg11.dtd">
<svg version="1.1" xmlns="http://www.w3.org/2000/svg" xmlns:xlink="http://www.w3.org/1999/xlink" x="0" y="0" width="819.523" height="875.404" viewBox="0, 0, 819.523, 875.404">
  <g id="Layer_1">
    <path d="M396.051,639.009 C366.918,642.575 340.329,650.447 329.063,620.24 C321.69,600.499 316.194,588.339 317.848,566.542 C318.974,551.825 315.554,500.984 311.239,498.638 C301.154,493.12 284.289,510.609 269.078,527.513 C263.798,533.37 270.729,554.103 258.241,566.564 C226.944,597.781 196.951,563.921 187.738,549.161 C179.609,536.12 179.45,521.142 182.849,501.359 C186.879,478.081 205.248,445.554 220.266,427.494 C252.17,389.123 285.931,343.349 343.797,334.021 C374.486,329.066 395.944,315.862 420.307,328.997 C438.414,338.764 446.539,352.875 467.486,349.279 C498.308,343.993 469.312,313.52 495.115,320.318 C503.181,322.441 516.466,322.887 530.586,326.518 C560.853,334.274 597.312,346.915 611.008,353.601 C646.858,371.107 678.118,397.051 704.108,425.058 C727.298,450.023 747.058,474.3 727.719,504.263 C719.558,516.866 708.948,524.402 700.828,531.638 C694.558,537.216 685.698,532.454 674.698,539.888 C654.898,527.999 655.418,511.736 631.388,504.138 C642.409,480.115 643.688,478.972 646.738,474.804 C639.418,470.228 637.928,462.011 609.168,452.803 C586.24,445.477 575.094,462.741 569.938,485.421 C564.746,508.263 561.417,522.281 562.625,545.29 C563.183,556.345 565.555,567.904 562.211,578.388 C547.451,624.691 438.685,633.775 396.051,639.009" fill="#FFFFFE" id="path3357"/>
    <path d="M396.051,639.009 C366.918,642.575 340.329,650.447 329.063,620.24 C321.69,600.499 316.194,588.339 317.848,566.542 C318.974,551.825 315.554,500.984 311.239,498.638 C301.154,493.12 284.289,510.609 269.078,527.513 C263.798,533.37 270.729,554.103 258.241,566.564 C226.944,597.781 196.951,563.921 187.738,549.161 C179.609,536.12 179.45,521.142 182.849,501.359 C186.879,478.081 205.248,445.554 220.266,427.494 C252.17,389.123 285.931,343.349 343.797,334.021 C374.486,329.066 395.944,315.862 420.307,328.997 C438.414,338.764 446.539,352.875 467.486,349.279 C498.308,343.993 469.312,313.52 495.115,320.318 C503.181,322.441 516.466,322.887 530.586,326.518 C560.853,334.274 597.312,346.915 611.008,353.601 C646.858,371.107 678.118,397.051 704.108,425.058 C727.298,450.023 747.058,474.3 727.719,504.263 C719.558,516.866 708.948,524.402 700.828,531.638 C694.558,537.216 685.698,532.454 674.698,539.888 C654.898,527.999 655.418,511.736 631.388,504.138 C642.409,480.115 643.688,478.972 646.738,474.804 C639.418,470.228 637.928,462.011 609.168,452.803 C586.24,445.477 575.094,462.741 569.938,485.421 C564.746,508.263 561.417,522.281 562.625,545.29 C563.183,556.345 565.555,567.904 562.211,578.388 C547.451,624.691 438.685,633.775 396.051,639.009 z" fill-opacity="0" stroke="#1A1919" stroke-width="2.835" stroke-linecap="round" stroke-linejoin="round" id="path3359"/>
    <path d="M500.271,357.623 C511.621,335.692 490.238,317.779 470.722,311.264 C469.914,303.293 469.506,293.879 468.299,288.448 C465.806,277.392 443.445,279.325 427.195,280.511 C413.711,281.483 408.349,282.745 406.114,286.836 C403.914,290.936 405.667,300.028 404.86,312.338 C396.309,314.517 357.891,330.2 355.252,344.939 C350.366,372.292 418.214,375.198 438.203,376.791 C457.48,378.356 490.689,376.147 500.271,357.623" fill="#F9D8C1" id="path3361"/>
    <path d="M500.271,357.623 C511.621,335.692 490.238,317.779 470.722,311.264 C469.914,303.293 469.506,293.879 468.299,288.448 C465.806,277.392 443.445,279.325 427.195,280.511 C413.711,281.483 408.349,282.745 406.114,286.836 C403.914,290.936 405.667,300.028 404.86,312.338 C396.309,314.517 357.891,330.2 355.252,344.939 C350.366,372.292 418.214,375.198 438.203,376.791 C457.48,378.356 490.689,376.147 500.271,357.623 z M404.86,300.41 C406.084,311.264 404.86,319.948 403.635,330.802 M469.828,300.638 C469.828,313.477 470.74,322.638 473.49,329.053" fill-opacity="0" stroke="#1A1919" stroke-width="2.835" stroke-linecap="round" stroke-linejoin="round" id="path3363"/>
    <path d="M351.557,206.205 C332.234,211.34 323.339,200.383 314.978,184.064 C308.515,171.422 302.676,163.74 300.54,156.159 C292.402,127.139 322.626,107.914 338.988,136.36 C351.003,157.251 361.676,183.781 351.557,206.205" fill="#F9D8C1" id="path3365"/>
    <path d="M351.557,206.205 C332.234,211.34 323.339,200.383 314.978,184.064 C308.515,171.422 302.676,163.74 300.54,156.159 C292.402,127.139 322.626,107.914 338.988,136.36 C351.003,157.251 361.676,183.781 351.557,206.205 z" fill-opacity="0" stroke="#1A1919" stroke-width="2.835" stroke-linecap="round" stroke-linejoin="round" id="path3367"/>
    <path d="M571.97,175.402 C582.556,150.376 581.681,123.315 554.031,123.315 C524.591,123.315 534.836,136.979 531.584,156.104 C529.345,169.308 517.154,203.326 540.211,206.205 C564.273,211.018 563.527,195.356 571.97,175.402" fill="#F9D8C1" id="path3369"/>
    <path d="M571.97,175.402 C582.556,150.376 581.681,123.315 554.031,123.315 C524.591,123.315 534.836,136.979 531.584,156.104 C529.345,169.308 517.154,203.326 540.211,206.205 C564.273,211.018 563.527,195.356 571.97,175.402 z" fill-opacity="0" stroke="#1A1919" stroke-width="2.835" stroke-linecap="round" stroke-linejoin="round" id="path3371"/>
    <path d="M438.762,25.097 C482.246,29.217 549.879,39.891 550.799,83.001 C551.761,128.239 537.396,214.572 534.158,244.993 C530.435,279.832 504.595,276.464 485.345,292.83 C472.728,303.556 465.136,314.001 441.073,313.043 C417.97,312.119 411.065,295.654 396.799,290.902 C382.361,286.097 355.399,278.801 351.256,247.477 C345.353,202.97 344.488,153.23 331.71,110.192 C326.545,92.768 315.828,80.737 322.424,62.652 C336.161,25.062 403.721,21.771 438.762,25.097" fill="#F9D8C1" id="path3373"/>
    <path d="M438.762,25.097 C482.246,29.217 549.879,39.891 550.799,83.001 C551.761,128.239 537.396,214.572 534.158,244.993 C530.435,279.832 504.595,276.464 485.345,292.83 C472.728,303.556 465.136,314.001 441.073,313.043 C417.97,312.119 411.065,295.654 396.799,290.902 C382.361,286.097 355.399,278.801 351.256,247.477 C345.353,202.97 344.488,153.23 331.71,110.192 C326.545,92.768 315.828,80.737 322.424,62.652 C336.161,25.062 403.721,21.771 438.762,25.097 z" fill-opacity="0" stroke="#1A1919" stroke-width="2.835" stroke-linecap="round" stroke-linejoin="round" id="path3375"/>
    <path d="M324.358,124.423 C319.403,118.021 302.68,94.508 299.964,88.57 C292.745,72.852 303.772,51.634 316.215,37.875 C334.898,17.216 351.329,14.062 381.278,20.49 C400.683,24.658 414.953,24.173 403.751,39.594 C392.119,55.613 370.691,52.785 353.632,60.326 C338.736,66.901 341.228,93.52 340.011,110.918 C339.397,119.641 339.049,130.168 340.97,153.268 C333.239,140.948 327.709,128.759 324.358,124.423" fill="#636463" id="path3377"/>
    <path d="M324.358,124.423 C319.403,118.021 302.68,94.508 299.964,88.57 C292.745,72.852 303.772,51.634 316.215,37.875 C334.898,17.216 351.329,14.062 381.278,20.49 C400.683,24.658 414.953,24.173 403.751,39.594 C392.119,55.613 370.691,52.785 353.632,60.326 C338.736,66.901 341.228,93.52 340.011,110.918 C339.397,119.641 339.049,130.168 340.97,153.268 C333.239,140.948 327.709,128.759 324.358,124.423 z" fill-opacity="0" stroke="#1A1919" stroke-width="2.835" stroke-linecap="round" stroke-linejoin="round" id="path3379"/>
    <path d="M408.933,53.808 C393.482,44.51 384.527,42.22 380.333,21.109 C373.802,-11.848 502.72,3.062 530.908,19.046 C544.938,27.004 565.519,38.486 573.189,54.896 C582.484,74.794 575.824,88.777 569.938,98.685 C566.271,104.855 554.111,132.501 545.978,154.231 C545.978,133.042 549.888,99.355 544.056,82.043 C540.4,71.176 534.531,64.765 524.806,59.902 C501.556,48.274 462.244,85.893 408.933,53.808" fill="#636463" id="path3381"/>
    <path d="M408.933,53.808 C393.482,44.51 384.527,42.22 380.333,21.109 C373.802,-11.848 502.72,3.062 530.908,19.046 C544.938,27.004 565.519,38.486 573.189,54.896 C582.484,74.794 575.824,88.777 569.938,98.685 C566.271,104.855 554.111,132.501 545.978,154.231 C545.978,133.042 549.888,99.355 544.056,82.043 C540.4,71.176 534.531,64.765 524.806,59.902 C501.556,48.274 462.244,85.893 408.933,53.808 z" fill-opacity="0" stroke="#1A1919" stroke-width="2.835" stroke-linecap="round" stroke-linejoin="round" id="path3383"/>
    <path d="M368.766,112.95 C358.286,118.442 360.568,129.536 377.703,123.263 C388.918,119.163 407.953,118.45 421.945,129.115 C418.679,110.299 383.203,105.388 368.766,112.95" fill="#1A1919" id="path3385"/>
    <path d="M368.766,112.95 C358.286,118.442 360.568,129.536 377.703,123.263 C388.918,119.163 407.953,118.45 421.945,129.115 C418.679,110.299 383.203,105.388 368.766,112.95 z" fill-opacity="0" stroke="#1A1919" stroke-width="2.835" stroke-linecap="round" stroke-linejoin="round" id="path3387"/>
    <path d="M502.828,119.138 C517.265,124.638 521.39,112.263 504.203,108.138 C490.041,104.74 463.64,108.138 459.343,127.671 C471.203,117.075 491.14,115.7 502.828,119.138" fill="#1A1919" id="path3389"/>
    <path d="M502.828,119.138 C517.265,124.638 521.39,112.263 504.203,108.138 C490.041,104.74 463.64,108.138 459.343,127.671 C471.203,117.075 491.14,115.7 502.828,119.138 z" fill-opacity="0" stroke="#1A1919" stroke-width="2.835" stroke-linecap="round" stroke-linejoin="round" id="path3391"/>
    <path d="M399.682,168.668 C391.986,169.626 390.886,153.225 399.703,154.2 C405.891,154.888 408.49,167.564 399.682,168.668" fill="#1A1919" id="path3393"/>
    <path d="M482.89,153.513 C490.591,152.55 492.138,167.705 483.424,167.705 C476.681,167.705 475.453,154.441 482.89,153.513" fill="#1A1919" id="path3395"/>
    <path d="M446.453,167.263 C443.703,178.95 443.016,188.575 446.845,198.501 C457.431,194.659 464.199,192.486 468.582,201.823 C473.791,212.939 463.357,224.635 453.646,227.616 M463.404,253.686 C451.043,266.65 424.935,261.562 421.515,243.532 M406.578,211.727 C393.945,216.273 383.169,235.136 387.328,244.727 M481.74,215.388 C498.23,218.559 508.57,227.286 506.49,241.053" fill-opacity="0" stroke="#1A1919" stroke-width="2.835" stroke-linecap="round" stroke-linejoin="round" id="path3397"/>
    <path d="M357.087,462.759 C345.009,444.007 344.153,407.741 340.97,386.189 C337.656,363.789 336.045,355.024 330.266,334.325 C341.649,329.977 346.744,328.151 360.22,325.551 C361.848,354.512 365.479,371.017 368.268,395.629 C369.6,407.338 373.789,434.89 369.359,446.336 C369.278,446.551 360.378,467.872 357.087,462.759" fill="#C99A90" id="path3399"/>
    <path d="M357.087,462.759 C345.009,444.007 344.153,407.741 340.97,386.189 C337.656,363.789 336.045,355.024 330.266,334.325 C341.649,329.977 346.744,328.151 360.22,325.551 C361.848,354.512 365.479,371.017 368.268,395.629 C369.6,407.338 373.789,434.89 369.359,446.336 C369.278,446.551 360.378,467.872 357.087,462.759 z" fill-opacity="0" stroke="#1A1919" stroke-width="2.835" stroke-linecap="round" stroke-linejoin="round" id="path3401"/>
    <path d="M504.883,441.971 C502.141,418.2 502.806,341.269 509.703,319.2 C522.698,322.092 533.375,323.832 540.211,327.481 C531.997,354.177 529.239,405.206 531.997,435.542 C532.714,443.436 535.503,450.157 528.545,456.228 C500.68,456.589 505.944,451.226 504.883,441.971" fill="#C99A90" id="path3403"/>
    <path d="M504.883,441.971 C502.141,418.2 502.806,341.269 509.703,319.2 C522.698,322.092 533.375,323.832 540.211,327.481 C531.997,354.177 529.239,405.206 531.997,435.542 C532.714,443.436 535.503,450.157 528.545,456.228 C500.68,456.589 505.944,451.226 504.883,441.971 z" fill-opacity="0" stroke="#1A1919" stroke-width="2.835" stroke-linecap="round" stroke-linejoin="round" id="path3405"/>
    <path d="M311.325,708.49 C309.723,688.198 314.733,658.266 312.971,628.815 C312.21,616.156 312.971,595.498 314.591,573.781 C343.865,536.12 330.257,438.206 340.011,429.501 C349.765,420.822 400.838,423.133 445.112,423.133 C465.025,423.133 515.814,423.648 530.621,425.199 C543.718,426.578 542.896,444.651 543.025,452.781 C543.541,484.741 540.271,545.873 567.162,566.563 C567.162,589.732 557.519,637.229 556.918,660.682 C556.797,665.305 577.765,704.484 574.822,708.49 C566.418,719.865 501.281,713.18 486.982,714.273 C445.298,717.469 417.991,713.43 376.393,717.172 C361.117,718.544 312.477,722.669 311.325,708.49" fill="#C99A90" id="path3407"/>
    <path d="M311.325,708.49 C309.723,688.198 314.733,658.266 312.971,628.815 C312.21,616.156 312.971,595.498 314.591,573.781 C343.865,536.12 330.257,438.206 340.011,429.501 C349.765,420.822 400.838,423.133 445.112,423.133 C465.025,423.133 515.814,423.648 530.621,425.199 C543.718,426.578 542.896,444.651 543.025,452.781 C543.541,484.741 540.271,545.873 567.162,566.563 C567.162,589.732 557.519,637.229 556.918,660.682 C556.797,665.305 577.765,704.484 574.822,708.49 C566.418,719.865 501.281,713.18 486.982,714.273 C445.298,717.469 417.991,713.43 376.393,717.172 C361.117,718.544 312.477,722.669 311.325,708.49 z" fill-opacity="0" stroke="#1A1919" stroke-width="2.835" stroke-linecap="round" stroke-linejoin="round" id="path3409"/>
    <path d="M521.924,434.314 C537.203,435.327 536.558,456.928 521.924,458.376 C504.123,460.138 504.672,433.166 521.924,434.314" fill="#A49B88" id="path3411"/>
    <path d="M521.924,434.314 C537.203,435.327 536.558,456.928 521.924,458.376 C504.123,460.138 504.672,433.166 521.924,434.314 z" fill-opacity="0" stroke="#1A1919" stroke-width="2.835" stroke-linecap="round" stroke-linejoin="round" id="path3413"/>
    <path d="M246.649,475.564 C262.049,469.788 295.522,548.607 283.052,550.2 C262.418,553.437 252.858,540.146 241.617,520.523 C232.469,504.538 222.135,484.755 246.649,475.564" fill="#D7D8D6" id="path3415"/>
    <path d="M246.649,475.564 C262.049,469.788 295.522,548.607 283.052,550.2 C262.418,553.437 252.858,540.146 241.617,520.523 C232.469,504.538 222.135,484.755 246.649,475.564 z" fill-opacity="0" stroke="#1A1919" stroke-width="2.835" stroke-linecap="round" stroke-linejoin="round" id="path3417"/>
    <path d="M321.097,446.327 C322.317,448.39 342.882,440.054 355.252,434.743 C377.549,425.174 385.197,433.639 378.267,444.66 C365.964,464.245 330.004,461.402 321.097,446.327" fill="#F9D8C1" id="path3419"/>
    <path d="M321.097,446.327 C322.317,448.39 342.882,440.054 355.252,434.743 C377.549,425.174 385.197,433.639 378.267,444.66 C365.964,464.245 330.004,461.402 321.097,446.327 z M199.125,507.156 C217.018,492.665 231.631,491.29 238.141,486.95 M638.248,486.878 C644.148,479.642 654.818,464.392 667.828,452.803 M586.205,441.971 C578.076,456.468 574.822,465.148 571.556,479.642 M290.09,437.528 C296.527,444.45 301.58,460.814 301.58,468.044" fill-opacity="0" stroke="#1A1919" stroke-width="2.835" stroke-linecap="round" stroke-linejoin="round" id="path3421"/>
    <path d="M606.367,633.036 C661.478,682.644 496.185,779.706 449.252,781.064 C401.83,782.439 267.626,719.855 290.185,640.835 C301.898,599.855 403.39,588.138 438.526,588.138 C485.404,588.138 566.062,596.761 606.367,633.036" fill="#9E9F9E" id="path3423"/>
    <path d="M606.367,633.036 C661.478,682.644 496.185,779.706 449.252,781.064 C401.83,782.439 267.626,719.855 290.185,640.835 C301.898,599.855 403.39,588.138 438.526,588.138 C485.404,588.138 566.062,596.761 606.367,633.036 z M358.505,664.536 C370.218,643.081 370.218,641.115 383.882,621.607 M383.882,668.447 C397.546,648.931 400.597,636.55 413.161,623.562 M413.161,668.447 C420.956,652.835 430.732,639.171 446.345,619.652" fill-opacity="0" stroke="#1A1919" stroke-width="2.835" stroke-linecap="round" stroke-linejoin="round" id="path3425"/>
    <path d="M602.472,707.484 C600.23,734.339 529.006,753.013 454.451,753.013 C379.916,753.013 296.14,730.898 299.964,704.226 C306.457,658.689 378.283,645.673 452.822,645.673 C527.384,645.673 605.705,668.447 602.472,707.484" fill="#EDC796" id="path3427"/>
    <path d="M602.472,707.484 C600.23,734.339 529.006,753.013 454.451,753.013 C379.916,753.013 296.14,730.898 299.964,704.226 C306.457,658.689 378.283,645.673 452.822,645.673 C527.384,645.673 605.705,668.447 602.472,707.484 z" fill-opacity="0" stroke="#1A1919" stroke-width="2.835" stroke-linecap="round" stroke-linejoin="round" id="path3429"/>
    <path d="M365.036,850.119 C309.254,832.219 296.054,808.689 290.185,750.13 C286.867,716.972 285.149,687.456 288.758,646.786 C297.657,753.865 600.845,747.126 616.248,647.99 C616.248,697.081 613.318,727.318 610.478,758.677 C606.619,801.034 590.924,839.349 547.908,851.079 C484.386,868.399 416.04,866.479 365.036,850.119" fill="#CBCCCB" id="path3431"/>
    <path d="M365.036,850.119 C309.254,832.219 296.054,808.689 290.185,750.13 C286.867,716.972 285.149,687.456 288.758,646.786 C297.657,753.865 600.845,747.126 616.248,647.99 C616.248,697.081 613.318,727.318 610.478,758.677 C606.619,801.034 590.924,839.349 547.908,851.079 C484.386,868.399 416.04,866.479 365.036,850.119 z" fill-opacity="0" stroke="#1A1919" stroke-width="2.835" stroke-linecap="round" stroke-linejoin="round" id="path3433"/>
    <path d="M301.026,716.807 C317.697,724.507 310.441,746.697 290.924,742.799 C263.278,737.268 219.454,716.085 218.01,691.542 C217.194,677.681 223.016,664.962 231.73,659.784 C248.729,649.664 276.83,652.462 288.758,651.839 C287.315,664.833 287.315,669.885 285.87,678.548 C270.238,676.596 249.055,673.495 253.099,687.682 C257.382,702.689 282.261,708.146 301.026,716.807" fill="#4D4E4C" id="path3435"/>
    <path d="M301.026,716.807 C317.697,724.507 310.441,746.697 290.924,742.799 C263.278,737.268 219.454,716.085 218.01,691.542 C217.194,677.681 223.016,664.962 231.73,659.784 C248.729,649.664 276.83,652.462 288.758,651.839 C287.315,664.833 287.315,669.885 285.87,678.548 C270.238,676.596 249.055,673.495 253.099,687.682 C257.382,702.689 282.261,708.146 301.026,716.807 z" fill-opacity="0" stroke="#1A1919" stroke-width="2.835" stroke-linecap="round" stroke-linejoin="round" id="path3437"/>
    <path d="M617.208,740.394 C585.349,748.898 591.322,710.058 612.398,707.663 C627.058,702.611 661.008,693.519 655.148,679.876 C650.318,673.638 636.458,675.902 616.248,675.902 C617.288,664.282 615.278,661.464 618.168,649.913 C641.568,646.009 677.758,654.468 684.588,670.126 C700.948,707.663 646.478,732.603 617.208,740.394" fill="#4D4E4C" id="path3439"/>
    <path d="M617.208,740.394 C585.349,748.898 591.322,710.058 612.398,707.663 C627.058,702.611 661.008,693.519 655.148,679.876 C650.318,673.638 636.458,675.902 616.248,675.902 C617.288,664.282 615.279,661.464 618.168,649.913 C641.568,646.009 677.758,654.468 684.589,670.126 C700.948,707.663 646.478,732.603 617.208,740.394 z M347.711,740.394 C359.223,754.044 379.474,762.534 400.649,761.564 M345.7,769.642 C359.261,785.626 374.657,790.439 396.799,791.402 M349.636,805.847 C363.859,818.449 374.735,820.229 397.761,824.129" fill-opacity="0" stroke="#1A1919" stroke-width="2.835" stroke-linecap="round" stroke-linejoin="round" id="path3441"/>
    <path d="M93.611,732.689 C91.531,731.023 86.109,717.331 83.561,715.665 C89.533,715.046 95.635,719.322 103.236,720.177 C104.375,713.421 108.685,701.525 110.257,696.931 C111.361,699.552 112.982,710.724 113.823,713.439 C119.955,701.722 121.786,690.407 134.865,687.597 C124.531,703.599 121.618,713.765 125.778,727.06 C131.243,744.501 119.268,747.624 104.427,763.511 C94.621,746.732 74.151,743.044 58.773,754.122 C63.774,742.314 73.592,739.921 93.611,732.689" fill="#76A79C" id="path3443"/>
    <path d="M93.611,732.689 C91.531,731.023 86.109,717.331 83.561,715.665 C89.533,715.046 95.635,719.322 103.236,720.177 C104.375,713.421 108.685,701.525 110.257,696.931 C111.361,699.552 112.982,710.724 113.823,713.439 C119.955,701.722 121.786,690.407 134.865,687.597 C124.531,703.599 121.618,713.765 125.778,727.06 C131.243,744.501 119.268,747.624 104.427,763.511 C94.621,746.732 74.151,743.044 58.773,754.122 C63.774,742.314 73.592,739.921 93.611,732.689 z" fill-opacity="0" stroke="#1A1919" stroke-width="2.835" stroke-linecap="round" stroke-linejoin="round" id="path3445"/>
    <path d="M136.649,728.19 C171.702,731.779 236.585,868.638 198.197,860.159 C178.595,855.828 142.028,822.549 127.088,811.439 C119.35,805.663 102.682,798.818 97.169,791.624 C77.61,765.947 106.377,725.072 136.649,728.19" fill="#E4A06A" id="path3447"/>
    <path d="M136.649,728.19 C171.702,731.779 236.585,868.638 198.197,860.159 C178.595,855.828 142.028,822.549 127.088,811.439 C119.35,805.663 102.682,798.818 97.169,791.624 C77.61,765.947 106.377,725.072 136.649,728.19 z M110.987,788.745 C110.244,780.462 116.29,773.534 121.773,769.427 M132.765,792.687 C134.113,786.023 138.028,780.814 144.125,778.21 M148.401,813.729 C149.861,807.193 154.008,802.956 159.972,800.875" fill-opacity="0" stroke="#1A1919" stroke-width="2.835" stroke-linecap="round" stroke-linejoin="round" id="path3449"/>
    <path d="M35.861,747.126 C33.781,745.468 28.75,730.79 26.21,729.132 C32.183,728.491 37.885,735.697 45.486,736.544 C46.62,729.781 51.33,714.968 52.886,710.38 C53.998,713.001 54.974,715.673 55.82,718.394 C61.944,706.681 64.44,703.849 77.507,701.034 C67.168,717.048 64.264,727.202 68.423,740.501 C73.889,757.954 61.909,761.062 47.059,776.956 C37.271,760.185 16.8,756.493 1.417,767.572 C3.136,750.982 16.611,743.284 35.861,747.126" fill="#76A79C" id="path3451"/>
    <path d="M35.861,747.126 C33.781,745.468 28.75,730.79 26.21,729.132 C32.183,728.491 37.885,735.697 45.486,736.544 C46.62,729.781 51.33,714.968 52.886,710.38 C53.998,713.001 54.974,715.673 55.82,718.394 C61.944,706.681 64.44,703.849 77.507,701.034 C67.168,717.048 64.264,727.202 68.423,740.501 C73.889,757.954 61.909,761.062 47.059,776.956 C37.271,760.185 16.8,756.493 1.417,767.572 C3.136,750.982 16.611,743.284 35.861,747.126 z" fill-opacity="0" stroke="#1A1919" stroke-width="2.835" stroke-linecap="round" stroke-linejoin="round" id="path3453"/>
    <path d="M79.281,741.64 C114.339,745.228 179.227,882.079 140.851,873.609 C121.244,869.279 84.665,835.999 69.737,824.889 C61.978,819.109 45.323,812.269 39.815,805.066 C20.255,779.421 49.027,738.525 79.281,741.64" fill="#E4A06A" id="path3455"/>
    <path d="M79.281,741.64 C114.339,745.228 179.227,882.079 140.851,873.609 C121.244,869.279 84.665,835.999 69.737,824.889 C61.978,819.109 45.323,812.269 39.815,805.066 C20.255,779.421 49.027,738.525 79.281,741.64 z M53.624,802.204 C52.881,793.902 58.927,786.972 64.414,782.876 M75.409,806.136 C76.75,799.488 80.665,794.288 86.762,791.652 M91.025,827.179 C92.52,820.639 96.662,816.389 102.596,814.329" fill-opacity="0" stroke="#1A1919" stroke-width="2.835" stroke-linecap="round" stroke-linejoin="round" id="path3457"/>
    <path d="M787.698,749.525 C784.318,763.421 756.518,789.322 748.868,801.482 C726.408,837.119 651.038,832.129 664.548,774.197 C672.048,742.013 706.518,742.564 732.358,731.525 C748.678,724.549 796.128,715.025 787.698,749.525" fill="#68839B" id="path3459"/>
    <path d="M787.698,749.525 C784.318,763.421 756.518,789.322 748.868,801.482 C726.408,837.119 651.038,832.129 664.548,774.197 C672.048,742.013 706.518,742.564 732.358,731.525 C748.678,724.549 796.128,715.025 787.698,749.525 z" fill-opacity="0" stroke="#1A1919" stroke-width="2.835" stroke-linecap="round" stroke-linejoin="round" id="path3461"/>
    <path d="M754.778,706.392 C752.688,719.368 761.098,724.224 749.718,739.245 C769.088,736.616 775.698,742.865 763.108,760.589 C788.378,755.429 777.678,775.456 794.438,781.347 C788.548,759.626 798.708,755.437 809.608,742.339 C800.598,733.849 810.538,726.339 818.128,722.669 C818.308,722.923 812.278,713.109 812.178,713.206 C798.408,726.286 794.018,715.82 782.448,713.195 C778.818,712.365 752.218,722.218 754.778,706.392" fill="#4F4C67" id="path3463"/>
    <path d="M754.778,706.392 C752.688,719.368 761.098,724.224 749.718,739.245 C769.088,736.616 775.698,742.865 763.108,760.589 C788.378,755.429 777.678,775.456 794.438,781.347 C788.548,759.626 798.708,755.437 809.608,742.339 C800.598,733.849 810.538,726.339 818.128,722.669 C818.308,722.923 812.278,713.109 812.178,713.206 C798.408,726.286 794.018,715.82 782.448,713.195 C778.818,712.365 752.218,722.218 754.778,706.392 z" fill-opacity="0" stroke="#1A1919" stroke-width="2.835" stroke-linecap="round" stroke-linejoin="round" id="path3465"/>
    <path d="M716.308,850.369 C703.368,853.539 690.008,855.039 681.638,835.799 C678.608,828.809 683.598,822.129 682.038,815.189 C680.078,806.458 670.928,804.876 673.728,793.482 C677.928,776.406 704.498,767.829 717.938,772.306 C732.578,777.187 736.038,775.424 753.718,785.318 C764.668,791.462 768.958,801.409 771.608,817.849 C774.238,834.359 758.948,846.439 742.328,847.129 C734.168,847.459 725.578,848.119 716.308,850.369" fill="#C49042" id="path3467"/>
    <path d="M716.308,850.369 C703.368,853.539 690.008,855.039 681.638,835.799 C678.608,828.809 683.598,822.129 682.038,815.189 C680.078,806.458 670.928,804.876 673.728,793.482 C677.928,776.406 704.498,767.829 717.938,772.306 C732.578,777.187 736.038,775.424 753.718,785.318 C764.668,791.462 768.958,801.409 771.608,817.849 C774.238,834.359 758.948,846.439 742.328,847.129 C734.168,847.459 725.578,848.119 716.308,850.369 z" fill-opacity="0" stroke="#1A1919" stroke-width="2.835" stroke-linecap="round" stroke-linejoin="round" id="path3469"/>
    <path d="M703.288,811.349 C719.948,840.189 693.888,861.319 672.388,865.019 C659.058,867.319 627.818,865.219 617.058,855.059 C600.574,839.549 612.448,827.719 620.358,812.969 C630.098,794.749 642.248,788.351 664.268,788.573 C681.328,788.755 693.878,795.032 703.288,811.349" fill="#C49042" id="path3471"/>
    <path d="M703.289,811.349 C719.948,840.188 693.888,861.318 672.388,865.018 C659.058,867.318 627.818,865.219 617.058,855.059 C600.574,839.549 612.448,827.719 620.358,812.969 C630.099,794.749 642.248,788.351 664.268,788.573 C681.328,788.755 693.878,795.031 703.289,811.349 z M641.488,811.349 C647.148,817.969 647.029,824.119 639.868,827.599 M669.138,811.349 C670.828,813.749 676.698,817.589 682.159,814.589 M659.378,848.749 C662.388,842.828 667.458,840.758 674.018,842.239 M713.068,785.318 C715.099,791.247 719.738,794.662 726.058,795.072 M719.558,835.739 C724.099,833.078 729.018,831.969 734.208,832.489 M750.458,821.109 C749.919,814.898 752.648,811.268 758.589,811.349" fill-opacity="0" stroke="#1A1919" stroke-width="2.835" stroke-linecap="round" stroke-linejoin="round" id="path3473"/>
    <path d="M616.488,607.083 C634.378,594.042 638.608,567.917 648.248,557.995 C654.508,551.585 665.469,540.747 666.448,540.575 C683.728,537.689 655.099,519.406 643.128,517.286 C635.978,516.039 634.628,534.054 622.988,539.226 C606.719,546.471 588.793,536.052 582.957,537.581 C571.115,540.632 560.406,548.292 550.799,555.112 C528.417,570.99 515.238,585.771 519.034,593.366 C526.977,609.253 539.945,584.421 556.453,576.898 C543.581,586.148 516.355,603.818 528.417,615.023 C538.527,624.406 552.965,604.195 566.199,593.281 C554.267,604.461 535.634,621.521 548.633,628.74 C557.175,633.487 573.168,613.39 585.062,602.991 C576.698,612.892 556.384,625.714 570.482,635.288 C578.162,640.508 601.881,617.729 616.488,607.083" fill="#F9D8C1" id="path3475"/>
    <path d="M616.488,607.083 C634.378,594.042 638.608,567.917 648.248,557.995 C654.508,551.585 665.469,540.747 666.448,540.575 C683.728,537.689 655.099,519.406 643.128,517.286 C635.978,516.039 634.628,534.054 622.988,539.226 C606.719,546.471 588.793,536.052 582.957,537.581 C571.115,540.632 560.406,548.292 550.799,555.112 C528.417,570.99 515.238,585.771 519.034,593.366 C526.977,609.253 539.945,584.421 556.453,576.898 C543.581,586.148 516.355,603.818 528.417,615.023 C538.527,624.406 552.965,604.195 566.199,593.281 C554.267,604.461 535.634,621.521 548.633,628.74 C557.175,633.487 573.168,613.39 585.062,602.991 C576.698,612.892 556.384,625.714 570.482,635.288 C578.162,640.508 601.881,617.729 616.488,607.083 z" fill-opacity="0" stroke="#1A1919" stroke-width="2.835" stroke-linecap="round" stroke-linejoin="round" id="path3477"/>
    <path d="M418.679,601.29 C410.583,592.138 387.539,522.99 353.632,470.954 C326.661,429.574 284.332,408.584 287.143,403.716 C289.682,399.264 309.589,399.951 330.867,420.245 C362.097,450.079 395.127,510.185 405.697,527.677 C426.636,562.331 428.793,555.087 467.873,555.697 C488.572,556.019 520.429,560.652 530.908,575.234 C537.195,583.988 534.084,598.952 521.142,611.431 C501.625,630.277 443.566,629.448 418.679,601.29" fill="#CBCCCB" id="path3479"/>
    <path d="M418.679,601.29 C410.583,592.138 387.539,522.99 353.632,470.954 C326.661,429.574 284.332,408.584 287.143,403.716 C289.682,399.264 309.589,399.951 330.867,420.245 C362.097,450.079 395.127,510.185 405.697,527.677 C426.636,562.331 428.793,555.087 467.873,555.697 C488.572,556.019 520.429,560.652 530.908,575.234 C537.195,583.988 534.084,598.952 521.142,611.431 C501.625,630.277 443.566,629.448 418.679,601.29 z" fill-opacity="0" stroke="#1A1919" stroke-width="2.835" stroke-linecap="round" stroke-linejoin="round" id="path3481"/>
    <path d="M515.203,575.638 C511.431,571.118 496.468,566.005 477.39,564.638 C457.179,563.202 418.722,561.923 434.139,582.462 C456.955,612.863 536.859,601.626 515.203,575.638" fill="#EDC796" id="path3483"/>
    <path d="M441.073,565.214 C419.417,572.432 438.452,587.854 446.845,592.646 C479.058,611.031 526.253,596.976 517.589,578.208" fill-opacity="0" stroke="#1A1919" stroke-width="2.835" stroke-linecap="round" stroke-linejoin="round" id="path3485"/>
    <path d="M341.421,442.598 C353.632,447.776 386.211,452.601 386.933,461.986 C388.381,480.823 356.283,471.868 344.609,470.833 C349.525,471.421 352.824,470.679 355.893,473.536 C359.502,480.032 361.074,484.011 364.555,489.417 C348.291,489.417 343.509,488.855 333.798,490.56 C341.472,489.589 357.336,489.417 365.277,490.144 C371.048,500.245 372.495,503.132 374.657,508.191 C361.633,508.191 352.283,508.191 339.323,510.06 C348.184,507.232 383.581,517.103 373.94,529.847 C367.696,537.31 359.914,527.157 352.283,527.677 C343.994,528.243 335.031,528.88 331.345,528.398 C320.233,526.937 311.566,520.974 300.467,521.06 C284.586,521.189 267.493,538.566 256.703,542.638 C238.579,549.501 235.511,513.54 236.766,508.263 C238.862,499.48 267.703,494.613 274.669,486.663 C293.991,464.556 307.643,428.242 341.421,442.598" fill="#F9D8C1" id="path3487"/>
    <path d="M341.421,442.598 C353.632,447.776 386.211,452.601 386.933,461.986 C388.381,480.823 356.283,471.868 344.609,470.833 C349.525,471.421 352.824,470.679 355.893,473.536 C359.502,480.032 361.074,484.011 364.555,489.417 C348.291,489.417 343.509,488.855 333.798,490.56 C341.472,489.589 357.336,489.417 365.277,490.144 C371.048,500.245 372.495,503.132 374.657,508.191 C361.633,508.191 352.283,508.191 339.323,510.06 C348.184,507.232 383.581,517.103 373.94,529.847 C367.696,537.31 359.914,527.157 352.283,527.677 C343.994,528.243 335.031,528.88 331.345,528.398 C320.233,526.937 311.566,520.974 300.467,521.06 C284.586,521.189 267.493,538.566 256.703,542.638 C238.579,549.501 235.511,513.54 236.766,508.263 C238.862,499.48 267.703,494.613 274.669,486.663 C293.991,464.556 307.643,428.242 341.421,442.598 z" fill-opacity="0" stroke="#1A1919" stroke-width="2.835" stroke-linecap="round" stroke-linejoin="round" id="path3489"/>
    <path d="M244.72,475.564 C235.099,482.302 231.029,486.745 219.578,492.45 C215.72,512.663 227.18,562.674 258.078,574.263 C269.465,568.476 276.641,559.825 285.527,548.027 C281.819,555.005 257.795,526.689 256.214,523.788 C249.678,511.8 245.016,497.95 244.72,475.564" fill="#FFFFFE" id="path3491"/>
    <path d="M244.72,475.564 C235.099,482.302 231.029,486.745 219.578,492.45 C215.72,512.663 227.18,562.674 258.078,574.263 C269.465,568.476 276.641,559.825 285.527,548.027 C281.819,555.005 257.795,526.689 256.214,523.788 C249.678,511.8 245.016,497.95 244.72,475.564 z" fill-opacity="0" stroke="#1A1919" stroke-width="2.835" stroke-linecap="round" stroke-linejoin="round" id="path3493"/>
    <path d="M242.008,771.128 C251.556,763.49 260.115,770.683 262.066,772.073 C275.429,781.63 258.014,795.179 256.325,817.919 C254.426,843.699 246.692,872.349 231.502,870.459 C223.854,869.489 222.908,857.079 222.908,857.079 C222.908,857.079 220.996,865.669 213.357,868.549 C205.708,871.409 208.445,870.519 199.981,870.459 C191.52,870.379 190.437,857.079 190.437,857.079 C190.437,857.079 193.303,869.489 178.978,869.489 C170.8,869.489 163.697,845.609 161.785,817.919 C159.615,803.183 150.862,786.323 153.183,775.898 C156.097,762.921 171.359,759.468 182.316,766.531 C180.245,758.075 199.409,753.177 208.897,769.531 C217.555,761.771 220.146,758.458 228.636,759.665 C235.326,760.618 247.1,763.794 242.008,771.128" fill="#589D79" id="path3495"/>
    <path d="M242.008,771.128 C251.556,763.49 260.115,770.683 262.066,772.073 C275.429,781.63 258.014,795.179 256.325,817.919 C254.426,843.699 246.692,872.349 231.502,870.459 C223.854,869.489 222.908,857.079 222.908,857.079 C222.908,857.079 220.996,865.669 213.357,868.549 C205.708,871.409 208.445,870.519 199.981,870.459 C191.52,870.379 190.437,857.079 190.437,857.079 C190.437,857.079 193.303,869.489 178.978,869.489 C170.8,869.489 163.697,845.609 161.785,817.919 C159.615,803.183 150.862,786.323 153.183,775.898 C156.097,762.921 171.359,759.468 182.316,766.531 C180.245,758.075 199.409,753.177 208.897,769.531 C217.555,761.771 220.146,758.458 228.636,759.665 C235.326,760.618 247.1,763.794 242.008,771.128 z" fill-opacity="0" stroke="#1A1919" stroke-width="2.835" stroke-linecap="round" stroke-linejoin="round" id="path3497"/>
    <path d="M176.103,763.49 C185.642,766.591 187.885,773.982 191.692,780.359" fill="#589D79" id="path3499"/>
    <path d="M176.103,763.49 C185.642,766.591 187.885,773.982 191.692,780.359" fill-opacity="0" stroke="#1A1919" stroke-width="2.835" stroke-linecap="round" stroke-linejoin="round" id="path3501"/>
    <path d="M226.729,784.179 C229.332,778.099 241.368,769.531 253.459,767.304" fill="#589D79" id="path3503"/>
    <path d="M226.729,784.179 C229.332,778.099 241.368,769.531 253.459,767.304" fill-opacity="0" stroke="#1A1919" stroke-width="2.835" stroke-linecap="round" stroke-linejoin="round" id="path3505"/>
    <path d="M187.575,849.439 C189.484,858.029 190.437,858.989 192.345,864.719" fill="#CBCCCB" id="path3507"/>
    <path d="M187.575,849.439 C189.484,858.029 190.437,858.989 192.345,864.719" fill-opacity="0" stroke="#1A1919" stroke-width="2.835" stroke-linecap="round" stroke-linejoin="round" id="path3509"/>
    <path d="M224.812,846.569 C223.854,853.519 222.518,860.629 217.181,865.669" fill="#CBCCCB" id="path3511"/>
    <path d="M224.812,846.569 C223.854,853.519 222.518,860.629 217.181,865.669" fill-opacity="0" stroke="#1A1919" stroke-width="2.835" stroke-linecap="round" stroke-linejoin="round" id="path3513"/>
    <path d="M186.612,816.019 C185.676,821.989 187.575,829.059 188.521,833.839" fill="#CBCCCB" id="path3515"/>
    <path d="M186.612,816.019 C185.676,821.989 187.575,829.059 188.521,833.839" fill-opacity="0" stroke="#1A1919" stroke-width="2.835" stroke-linecap="round" stroke-linejoin="round" id="path3517"/>
    <path d="M228.636,815.379 C227.253,822.699 228.559,828.199 225.766,835.119" fill="#CBCCCB" id="path3519"/>
    <path d="M228.636,815.379 C227.253,822.699 228.559,828.199 225.766,835.119" fill-opacity="0" stroke="#1A1919" stroke-width="2.835" stroke-linecap="round" stroke-linejoin="round" id="path3521"/>
    <path d="M189.161,796.915 C187.575,784.501 198.472,768.07 214.155,772.019 C226.659,775.167 228.636,787.363 228.636,799.454" fill="#589D79" id="path3523"/>
    <path d="M189.161,796.915 C187.575,784.501 198.472,768.07 214.155,772.019 C226.659,775.167 228.636,787.363 228.636,799.454" fill-opacity="0" stroke="#1A1919" stroke-width="2.835" stroke-linecap="round" stroke-linejoin="round" id="path3525"/>
    <path d="M703.578,530.95 C693.948,517.2 649.948,482.825 638.138,479.316 C631.028,489.886 629.328,494.513 620.388,502.075 C629.508,511.941 656.138,541.95 674.018,549.513 C691.198,541.263 694.638,537.825 703.578,530.95" fill="#FFFFFE" id="path3527"/>
    <path d="M703.578,530.95 C693.948,517.2 649.948,482.825 638.138,479.316 C631.028,489.886 629.328,494.513 620.388,502.075 C629.508,511.941 656.138,541.95 674.018,549.513 C691.198,541.263 694.638,537.825 703.578,530.95 z" fill-opacity="0" stroke="#1A1919" stroke-width="2.835" stroke-linecap="round" stroke-linejoin="round" id="path3529"/>
    <path d="M376.328,389.325 C360.043,373.04 351.578,350.138 358.453,332.95 C363.335,320.747 374.657,312.08 404.039,311.62 C383.667,319.888 375.761,328.233 382.739,343.727 C387.978,355.333 411.391,373.513 436.141,376.95 C420.328,387.263 417.578,401.7 417.578,414.075 C406.991,411.179 386.641,399.638 376.328,389.325" fill="#FFFFFE" id="path3531"/>
    <path d="M376.328,389.325 C360.043,373.04 351.578,350.138 358.453,332.95 C363.335,320.747 374.657,312.08 404.039,311.62 C383.667,319.888 375.761,328.233 382.739,343.727 C387.978,355.333 411.391,373.513 436.141,376.95 C420.328,387.263 417.578,401.7 417.578,414.075 C406.991,411.179 386.641,399.638 376.328,389.325 z" fill-opacity="0" stroke="#1A1919" stroke-width="2.835" stroke-linecap="round" stroke-linejoin="round" id="path3533"/>
    <path d="M513.828,354.263 C510.64,370.11 491.828,404.45 460.89,412.7 C458.82,400.983 458.193,389.36 440.266,377.638 C456.529,374.75 480.72,355.951 487.24,344.638 C494.97,331.257 492.74,318.053 469.949,310.159 C498.896,312.111 521.142,317.894 513.828,354.263" fill="#FFFFFE" id="path3535"/>
    <path d="M513.828,354.263 C510.64,370.11 491.828,404.45 460.89,412.7 C458.82,400.983 458.193,389.36 440.266,377.638 C456.529,374.75 480.72,355.951 487.24,344.638 C494.97,331.257 492.74,318.053 469.949,310.159 C498.896,312.111 521.142,317.894 513.828,354.263 z M454.24,318.977 C457.062,326.531 450.613,337.088 441.417,337.303" fill-opacity="0" stroke="#1A1919" stroke-width="2.835" stroke-linecap="round" stroke-linejoin="round" id="path3537"/>
  </g>
</svg>