<?xml version="1.0" encoding="UTF-8"?>
<!DOCTYPE svg PUBLIC "-//W3C//DTD SVG 1.1//EN" "http://www.w3.org/Graphics/SVG/1.1/DTD/svg11.dtd">
<svg version="1.1" xmlns="http://www.w3.org/2000/svg" xmlns:xlink="http://www.w3.org/1999/xlink" x="0" y="0" width="642.321" height="484.943" viewBox="0, 0, 642.321, 484.943">
  <defs>
    <pattern id="Pattern_1" patternUnits="userSpaceOnUse" x="187.738" y="-38978.93" width="NaN" height="NaN" patternTransform="matrix(3.37, 0, 0, -3.37, 291.702, -19209.348)">
      <g transform="translate(-0, -0)"/>
    </pattern>
    <clipPath id="Clip_1">
      <path d="M-117.614,-38.418 L642.321,-38.418 L642.321,519.317 L-117.614,519.317 z"/>
    </clipPath>
    <clipPath id="Clip_2">
      <path d="M-117.614,-38.418 L642.321,-38.418 L642.321,519.317 L-117.614,519.317 z"/>
    </clipPath>
  </defs>
  <g id="sleeping">
    <g id="path846">
      <path d="M75.824,315.769 C75.824,315.769 36.058,322.846 28.981,374.07 L3.369,394.627 C3.369,394.627 44.483,391.257 75.15,397.997 C105.817,404.737 153.671,416.869 196.47,406.422 C239.269,396.312 252.749,420.239 259.826,418.217 L258.141,394.627 C258.141,394.627 280.383,365.645 285.438,345.088 L261.511,281.732 z" fill="#CFEB9E"/>
      <path d="M75.824,315.769 C75.824,315.769 36.058,322.846 28.981,374.07 L3.369,394.627 C3.369,394.627 44.483,391.257 75.15,397.997 C105.817,404.737 153.671,416.869 196.47,406.422 C239.269,396.312 252.749,420.239 259.826,418.217 L258.141,394.627 C258.141,394.627 280.383,365.645 285.438,345.088 L261.511,281.732 z" fill-opacity="0" stroke="#000000" stroke-width="6.74" stroke-linecap="round" stroke-linejoin="round" stroke-miterlimit="10"/>
    </g>
    <g id="path856">
      <path d="M28.981,374.07 C28.981,374.07 74.813,374.744 96.718,383.843 C118.623,392.942 171.532,394.29 190.067,391.594 C208.602,388.561 245.672,388.561 257.467,396.312" fill="#CFEB9E"/>
      <path d="M28.981,374.07 C28.981,374.07 74.813,374.744 96.718,383.843 C118.623,392.942 171.532,394.29 190.067,391.594 C208.602,388.561 245.672,388.561 257.467,396.312" fill-opacity="0" stroke="#000000" stroke-width="6.74" stroke-linecap="round" stroke-linejoin="round" stroke-miterlimit="10"/>
    </g>
    <g id="path866">
      <path d="M292.852,253.761 C292.852,253.761 310.713,140.866 366.992,180.969 L576.269,326.553 L497.748,432.034 L321.16,406.759 C321.16,406.759 260.163,399.345 267.577,301.278 C274.991,203.211 292.852,253.761 292.852,253.761 z" fill="#9FDBE9"/>
      <path d="M292.852,253.761 C292.852,253.761 310.713,140.866 366.992,180.969 L576.269,326.553 L497.748,432.034 L321.16,406.759 C321.16,406.759 260.163,399.345 267.577,301.278 C274.991,203.211 292.852,253.761 292.852,253.761 z" fill-opacity="0" stroke="#000000" stroke-width="6.74" stroke-linecap="round" stroke-linejoin="round" stroke-miterlimit="10"/>
    </g>
    <g id="path877" opacity="0.3">
      <path d="M292.852,253.761 C292.852,253.761 310.713,140.866 366.992,180.969 L576.269,326.553 L497.748,432.034 L321.16,406.759 C321.16,406.759 260.163,399.345 267.577,301.278 C274.991,203.211 292.852,253.761 292.852,253.761 z" fill="url(#Pattern_1)"/>
      <path d="M292.852,253.761 C292.852,253.761 310.713,140.866 366.992,180.969 L576.269,326.553 L497.748,432.034 L321.16,406.759 C321.16,406.759 260.163,399.345 267.577,301.278 C274.991,203.211 292.852,253.761 292.852,253.761 z" fill-opacity="0" stroke="#000000" stroke-width="6.74" stroke-linecap="round" stroke-linejoin="round" stroke-miterlimit="10"/>
    </g>
    <g id="path887">
      <path d="M642.321,478.27 C538.657,477.226 434.955,476.217 331.357,472.106 C310.32,471.271 289.258,470.365 268.261,468.771 C258.737,468.048 247.038,467.928 237.921,464.723 C214.331,454.276 278.024,409.792 278.024,409.792 C278.024,409.792 324.193,381.484 328.574,326.553 C332.955,271.622 313.746,133.452 377.439,133.452 C433.956,132.437 490.537,130.388 546.939,135.671 C593.592,140.041 596.679,141.93 642.321,151.196" fill="#CFEB9E"/>
      <path d="M642.321,478.27 C538.657,477.226 434.955,476.217 331.357,472.106 C310.32,471.271 289.258,470.365 268.261,468.771 C258.737,468.048 247.038,467.928 237.921,464.723 C214.331,454.276 278.024,409.792 278.024,409.792 C278.024,409.792 324.193,381.484 328.574,326.553 C332.955,271.622 313.746,133.452 377.439,133.452 C433.956,132.437 490.537,130.388 546.939,135.671 C593.592,140.041 596.679,141.93 642.321,151.196" fill-opacity="0" stroke="#000000" stroke-width="6.74" stroke-linecap="round" stroke-linejoin="round" stroke-miterlimit="10"/>
    </g>
    <path d="M341.277,298.189 C344.674,298.953 347.633,300.576 350.142,302.963 C446.428,322.815 543.79,342.546 642.321,345.798 L642.321,393.918 C586.02,392.197 529.731,390.086 473.436,388.163 C445.277,387.201 417.08,385.981 388.897,385.865 C388.897,385.865 316.105,379.799 293.863,396.312 C293.863,396.312 320.486,371.037 324.867,326.553 C326.311,317.605 326.626,302.306 336.967,298.484 C338.317,297.985 339.84,298.288 341.277,298.189 z" fill="#CFEB9E" id="path897" opacity="0.25"/>
    <g id="path907">
      <path d="M82.564,379.125 C82.564,379.125 76.835,365.645 79.531,360.927" fill="#FFFFFF"/>
      <path d="M82.564,379.125 C82.564,379.125 76.835,365.645 79.531,360.927" fill-opacity="0" stroke="#000000" stroke-width="6.74" stroke-linecap="round" stroke-linejoin="round" stroke-miterlimit="10"/>
    </g>
    <g id="path917">
      <path d="M160.074,391.594 C160.074,391.594 157.041,385.865 159.063,380.473" fill="#FFFFFF"/>
      <path d="M160.074,391.594 C160.074,391.594 157.041,385.865 159.063,380.473" fill-opacity="0" stroke="#000000" stroke-width="6.74" stroke-linecap="round" stroke-linejoin="round" stroke-miterlimit="10"/>
    </g>
    <path d="M241.291,378.114 C237.584,385.865 230.844,388.561 230.844,388.561 C230.844,388.561 234.551,394.627 235.225,397.997" fill-opacity="0" stroke="#000000" stroke-width="6.74" stroke-linecap="round" stroke-linejoin="round" stroke-miterlimit="10" id="path927"/>
    <g id="path937">
      <path d="M129.07,392.605 C129.07,392.605 125.363,395.975 125.363,398.671" fill="#FFFFFF"/>
      <path d="M129.07,392.605 C129.07,392.605 125.363,395.975 125.363,398.671" fill-opacity="0" stroke="#000000" stroke-width="6.74" stroke-linecap="round" stroke-linejoin="round" stroke-miterlimit="10"/>
    </g>
    <g id="path947">
      <path d="M118.96,391.594 C118.96,391.594 113.568,393.616 113.568,397.66" fill="#FFFFFF"/>
      <path d="M118.96,391.594 C118.96,391.594 113.568,393.616 113.568,397.66" fill-opacity="0" stroke="#000000" stroke-width="6.74" stroke-linecap="round" stroke-linejoin="round" stroke-miterlimit="10"/>
    </g>
    <g id="path957">
      <path d="M51.897,376.092 C51.897,376.092 44.82,379.799 42.461,384.854" fill="#FFFFFF"/>
      <path d="M51.897,376.092 C51.897,376.092 44.82,379.799 42.461,384.854" fill-opacity="0" stroke="#000000" stroke-width="6.74" stroke-linecap="round" stroke-linejoin="round" stroke-miterlimit="10"/>
    </g>
    <g id="polyline967">
      <path d="M269.262,321.835 L304.647,328.238 L299.592,284.091 L329.248,253.761 L300.94,221.409" fill="#9FDBE9"/>
      <path d="M269.262,321.835 L304.647,328.238 L299.592,284.091 L329.248,253.761 L300.94,221.409" fill-opacity="0" stroke="#000000" stroke-width="6.74" stroke-linecap="round" stroke-linejoin="round" stroke-miterlimit="10"/>
    </g>
    <g id="path977">
      <path d="M164.118,325.879 L133.114,323.52 C133.114,323.52 111.546,332.956 91.326,314.758 L81.89,305.322 L65.377,320.487 L62.681,286.45 L44.146,300.267 C40.439,147.606 129.407,143.225 129.407,143.225 C148.279,126.712 216.69,155.357 216.69,155.357" fill="#795E48"/>
      <path d="M164.118,325.879 L133.114,323.52 C133.114,323.52 111.546,332.956 91.326,314.758 L81.89,305.322 L65.377,320.487 L62.681,286.45 L44.146,300.267 C40.439,147.606 129.407,143.225 129.407,143.225 C148.279,126.712 216.69,155.357 216.69,155.357" fill-opacity="0" stroke="#000000" stroke-width="6.74" stroke-linecap="round" stroke-linejoin="round" stroke-miterlimit="10"/>
    </g>
    <g id="path987">
      <path d="M216.016,165.804 C216.016,165.804 190.741,158.053 190.067,153.335 C189.73,149.628 189.73,146.258 193.774,140.529 C200.851,129.745 240.954,134.126 236.236,177.262" fill="#FDD2AF"/>
      <path d="M216.016,165.804 C216.016,165.804 190.741,158.053 190.067,153.335 C189.73,149.628 189.73,146.258 193.774,140.529 C200.851,129.745 240.954,134.126 236.236,177.262" fill-opacity="0" stroke="#000000" stroke-width="6.74" stroke-linecap="round" stroke-linejoin="round" stroke-miterlimit="10"/>
    </g>
    <g id="path997">
      <path d="M213.657,165.13 C242.976,172.207 270.61,184.339 286.449,203.548 C302.288,223.094 305.658,255.109 299.929,277.688 C293.863,302.289 279.709,321.161 253.423,330.597 C231.855,338.348 200.514,334.641 173.891,328.238 L139.517,319.139 L130.755,260.164 L146.257,282.406 L142.213,198.83 L157.715,222.083 L158.726,171.196 C158.726,171.533 193.774,173.218 213.657,165.13 z" fill="#FDD2AF"/>
      <path d="M213.657,165.13 C242.976,172.207 270.61,184.339 286.449,203.548 C302.288,223.094 305.658,255.109 299.929,277.688 C293.863,302.289 279.709,321.161 253.423,330.597 C231.855,338.348 200.514,334.641 173.891,328.238 L139.517,319.139 L130.755,260.164 L146.257,282.406 L142.213,198.83 L157.715,222.083 L158.726,171.196 C158.726,171.533 193.774,173.218 213.657,165.13 z" fill-opacity="0" stroke="#000000" stroke-width="6.74" stroke-linecap="round" stroke-linejoin="round" stroke-miterlimit="10"/>
    </g>
    <g id="path1007">
      <path d="M255.782,291.168 C255.782,291.168 272.969,281.732 264.881,251.402" fill="#FDD2AF"/>
      <path d="M255.782,291.168 C255.782,291.168 272.969,281.732 264.881,251.402" fill-opacity="0" stroke="#000000" stroke-width="6.74" stroke-linecap="round" stroke-linejoin="round" stroke-miterlimit="10"/>
    </g>
    <g id="path1017">
      <path d="M101.099,329.923 C101.099,329.923 178.946,304.985 244.998,343.74" fill="#CFEB9E"/>
      <path d="M101.099,329.923 C101.099,329.923 178.946,304.985 244.998,343.74" fill-opacity="0" stroke="#000000" stroke-width="6.74" stroke-linecap="round" stroke-linejoin="round" stroke-miterlimit="10"/>
    </g>
    <g clip-path="url(#Clip_1)" id="g1039">
      <path d="M206.243,284.091 C209.276,284.428 210.961,292.516 210.624,301.952 C209.95,311.725 207.254,319.476 204.221,319.476 C201.188,319.476 199.503,311.388 199.84,301.615 C200.514,291.505 203.21,283.754 206.243,284.091 z" fill="#FBA7A6" id="path1027" opacity="0.7"/>
      <path d="M214.668,199.167 C217.701,199.504 219.386,207.592 218.712,217.365 C218.038,227.138 215.005,234.889 212.309,234.552 C209.276,234.215 207.591,226.127 208.265,216.354 C208.939,206.581 211.972,198.83 214.668,199.167 z" fill="#FBA7A6" id="path1029" opacity="0.7"/>
      <path d="M208.265,265.556 C216.69,262.86 211.298,281.058 219.386,278.699 C224.778,277.351 224.104,264.882 223.767,260.501" fill-opacity="0" stroke="#000000" stroke-width="6.74" stroke-linecap="round" stroke-linejoin="round" id="path1031"/>
      <g id="g1037">
        <path d="M197.144,225.453 C197.818,225.453 198.829,225.79 199.503,225.79 C204.895,226.127 209.276,223.768 209.276,220.398 C209.613,217.028 205.569,213.995 200.177,213.658 C199.503,213.658 198.492,213.658 197.818,213.658" fill-opacity="0" stroke="#000000" stroke-width="6.74" stroke-linecap="round" stroke-linejoin="round" stroke-miterlimit="10" id="path1033"/>
        <path d="M188.382,302.626 C189.056,302.963 189.73,302.963 190.741,303.3 C195.796,303.974 200.514,302.289 201.188,298.919 C201.862,295.549 198.155,292.179 192.763,291.505 C192.089,291.505 191.415,291.168 190.404,291.168" fill-opacity="0" stroke="#000000" stroke-width="6.74" stroke-linecap="round" stroke-linejoin="round" stroke-miterlimit="10" id="path1035"/>
      </g>
    </g>
    <g id="path1049">
      <path d="M131.092,160.412 C128.733,160.412 99.751,168.163 86.608,204.896" fill="#795E48"/>
      <path d="M131.092,160.412 C128.733,160.412 99.751,168.163 86.608,204.896" fill-opacity="0" stroke="#000000" stroke-width="6.74" stroke-linecap="round" stroke-linejoin="round" stroke-miterlimit="10"/>
    </g>
    <g id="path1059">
      <path d="M135.473,169.848 C135.473,169.848 117.949,175.914 112.894,200.178" fill="#795E48"/>
      <path d="M135.473,169.848 C135.473,169.848 117.949,175.914 112.894,200.178" fill-opacity="0" stroke="#000000" stroke-width="6.74" stroke-linecap="round" stroke-linejoin="round" stroke-miterlimit="10"/>
    </g>
    <g clip-path="url(#Clip_2)" id="g1081">
      <path d="M46.168,61.671 L43.135,52.572 L51.56,16.176 L34.036,22.242 L30.666,12.806 L68.747,0 L72.117,10.11 L59.648,42.125 L80.542,35.048 L85.26,48.865 z" fill="#7ECFE2" id="path1069"/>
      <path d="M101.436,97.393 L99.414,91.327 L104.806,67.4 L93.348,71.107 L91.326,65.041 L116.264,56.616 L118.623,63.019 L110.535,83.913 L124.015,79.195 L127.048,88.294 z" fill="#7ECFE2" id="path1073"/>
      <path d="M142.213,125.027 L140.865,120.983 L144.572,105.144 L137.158,107.84 L135.81,103.796 L152.323,98.067 L153.671,102.448 L148.279,116.265 L157.378,113.232 L159.4,119.298 z" fill="#7ECFE2" id="path1077"/>
    </g>
  </g>
</svg>