<?xml version="1.0" encoding="UTF-8"?>
<!DOCTYPE svg PUBLIC "-//W3C//DTD SVG 1.1//EN" "http://www.w3.org/Graphics/SVG/1.1/DTD/svg11.dtd">
<svg version="1.1" xmlns="http://www.w3.org/2000/svg" xmlns:xlink="http://www.w3.org/1999/xlink" x="0" y="0" width="1250" height="950" viewBox="0, 0, 1250, 950">
  <g id="Layer_1">
    <path d="M0.3,0.2 L1250,0.2 L1250,950 L0.3,950 z" fill="#FFFFFE"/>
    <path d="M871.665,226.665 C809.375,203.615 746.785,183.595 679.965,179.965 C598.485,175.535 516.57,191.995 440.635,220.985 C303.915,273.175 161.63,374.83 120.505,522.64 C87.845,640.03 133.84,759.59 237.525,823.9 C401.82,925.805 636.72,901.46 806.515,827.92 C893.58,790.21 976.755,732.685 1026.04,649.8 C1068.07,579.11 1076.705,498.525 1073.42,417.835 C1072.63,398.54 1071.315,379.265 1070,360" fill="#8FD1E9"/>
    <path d="M761.665,153.75 C754.165,136.25 746.665,91.25 762.915,76.25 C779.165,61.25 787.915,62.5 785.415,75 C782.915,87.5 777.915,97.5 772.915,115 C767.915,132.5 760.415,145 761.665,153.75" fill="#8FD1E9"/>
    <path d="M761.665,153.75 C754.165,136.25 746.665,91.25 762.915,76.25 C779.165,61.25 787.915,62.5 785.415,75 C782.915,87.5 777.915,97.5 772.915,115 C767.915,132.5 760.415,145 761.665,153.75 z" fill-opacity="0" stroke="#6E5E4E" stroke-width="4.925"/>
    <path d="M1029.79,295.1 C1027.635,274.28 1039.465,234.535 1039.465,234.535 C1050.755,218.92 1057.21,221.76 1050.755,214.66 C1044.305,207.565 1028.175,216.08 1018.495,218.92 C1018.495,214.66 1028.175,208.98 1039.465,199.045 C1050.755,189.11 1053.98,183.435 1045.92,170.655 C1037.855,157.88 1000.755,172.075 989.465,183.435 C989.465,169.235 999.145,162.14 1015.27,149.365 C1031.4,136.59 1031.4,140.845 1029.79,122.395 C1028.175,103.94 997.525,116.715 978.175,135.17 C983.015,112.46 1013.66,91.165 1005.595,78.39 C997.525,65.615 968.495,74.13 950.75,82.65 C950.75,76.97 953.98,75.55 973.335,50 C992.69,24.45 958.815,11.675 907.2,8.835 C855.585,5.995 829.29,59.225 799.13,102.52 C788.915,117.19 771.715,200.465 773.86,238.32 C773.86,238.32 769.56,274.28 773.86,291.315" fill="#8FD1E9"/>
    <path d="M1029.79,295.1 C1027.635,274.28 1039.465,234.535 1039.465,234.535 C1050.755,218.92 1057.21,221.76 1050.755,214.66 C1044.305,207.565 1028.175,216.08 1018.495,218.92 C1018.495,214.66 1028.175,208.98 1039.465,199.045 C1050.755,189.11 1053.98,183.435 1045.92,170.655 C1037.855,157.88 1000.755,172.075 989.465,183.435 C989.465,169.235 999.145,162.14 1015.27,149.365 C1031.4,136.59 1031.4,140.845 1029.79,122.395 C1028.175,103.94 997.525,116.715 978.175,135.17 C983.015,112.46 1013.66,91.165 1005.595,78.39 C997.525,65.615 968.495,74.13 950.75,82.65 C950.75,76.97 953.98,75.55 973.335,50 C992.69,24.45 958.815,11.675 907.2,8.835 C855.585,5.995 829.29,59.225 799.13,102.52 C788.915,117.19 771.715,200.465 773.86,238.32 C773.86,238.32 769.56,274.28 773.86,291.315" fill-opacity="0" stroke="#FFFDFD" stroke-width="5"/>
    <path d="M896.72,402.035 C896.72,394.46 898.87,377.425 901.02,367.965 C903.13,358.685 913.925,318.76 944.575,273.335 C961.55,248.17 1023.61,176.81 1059.095,189.585 C1080.065,200.94 1067.16,227.91 1063.935,232.17 C1078.45,217.975 1109.1,203.78 1120.39,212.295 C1131.68,220.815 1138.13,235.005 1122,267.655 C1131.68,259.14 1172.005,249.2 1180.07,252.04 C1188.135,254.88 1194.585,261.98 1184.905,279.01 C1196.2,271.915 1220.395,266.235 1223.62,271.915 C1226.845,277.595 1230.07,293.205 1217.17,308.82 C1222.005,307.4 1247.815,301.725 1247.815,308.82 C1247.815,315.92 1241.36,327.275 1230.07,344.305 C1230.07,344.305 1230.07,345.255 1221.465,364.18 C1212.87,383.105 1199.965,400.14 1199.965,400.14 C1193.51,405.82 1141.89,439.885 1141.89,439.885 C1131.14,449.35 1092.425,466.385 1077.375,472.06 C1062.32,477.74 1017.155,473.955 1002.1,475.845" fill="#8FD1E9"/>
    <path d="M896.72,402.035 C896.72,394.46 898.87,377.425 901.02,367.965 C903.13,358.685 913.925,318.76 944.575,273.335 C961.55,248.17 1023.61,176.81 1059.095,189.585 C1080.065,200.94 1067.16,227.91 1063.935,232.17 C1078.45,217.975 1109.1,203.78 1120.39,212.295 C1131.68,220.815 1138.13,235.005 1122,267.655 C1131.68,259.14 1172.005,249.2 1180.07,252.04 C1188.135,254.88 1194.585,261.98 1184.905,279.01 C1196.2,271.915 1220.395,266.235 1223.62,271.915 C1226.845,277.595 1230.07,293.205 1217.17,308.82 C1222.005,307.4 1247.815,301.725 1247.815,308.82 C1247.815,315.92 1241.36,327.275 1230.07,344.305 C1230.07,344.305 1230.07,345.255 1221.465,364.18 C1212.87,383.105 1199.965,400.14 1199.965,400.14" fill="#8FD1E9"/>
    <path d="M896.72,402.035 C896.72,394.46 898.87,377.425 901.02,367.965 C903.13,358.685 913.925,318.76 944.575,273.335 C961.55,248.17 1023.61,176.81 1059.095,189.585 C1080.065,200.94 1067.16,227.91 1063.935,232.17 C1078.45,217.975 1109.1,203.78 1120.39,212.295 C1131.68,220.815 1138.13,235.005 1122,267.655 C1131.68,259.14 1172.005,249.2 1180.07,252.04 C1188.135,254.88 1194.585,261.98 1184.905,279.01 C1196.2,271.915 1220.395,266.235 1223.62,271.915 C1226.845,277.595 1230.07,293.205 1217.17,308.82 C1222.005,307.4 1247.815,301.725 1247.815,308.82 C1247.815,315.92 1241.36,327.275 1230.07,344.305 C1230.07,344.305 1230.07,345.255 1221.465,364.18 C1212.87,383.105 1199.965,400.14 1199.965,400.14" fill-opacity="0" stroke="#FFFFFE" stroke-width="5"/>
    <path d="M1125.835,150 C1134.585,137.5 1143.335,115 1154.585,108.75 C1165.835,102.5 1177.085,93.75 1188.335,95 C1199.585,96.25 1200.835,105 1195.835,113.75 C1190.835,122.5 1190.835,125 1178.335,128.75 C1165.835,132.5 1134.585,137.5 1125.835,150" fill="#8FD1E9"/>
    <path d="M1125.835,150 C1134.585,137.5 1143.335,115 1154.585,108.75 C1165.835,102.5 1177.085,93.75 1188.335,95 C1199.585,96.25 1200.835,105 1195.835,113.75 C1190.835,122.5 1190.835,125 1178.335,128.75 C1165.835,132.5 1134.585,137.5 1125.835,150 z" fill-opacity="0" stroke="#6E5E4E" stroke-width="4.925"/>
    <path d="M939.165,210 C947.915,197.5 956.665,175 967.915,168.75 C979.165,162.5 990.415,153.75 1001.665,155 C1012.915,156.25 1014.165,165 1009.165,173.75 C1004.165,182.5 1004.165,185 991.665,188.75 C979.165,192.5 947.915,197.5 939.165,210" fill="#FFFFFE"/>
    <path d="M939.165,210 C947.915,197.5 956.665,175 967.915,168.75 C979.165,162.5 990.415,153.75 1001.665,155 C1012.915,156.25 1014.165,165 1009.165,173.75 C1004.165,182.5 1004.165,185 991.665,188.75 C979.165,192.5 947.915,197.5 939.165,210 z" fill-opacity="0" stroke="#6E5E4E" stroke-width="4.925"/>
    <path d="M1050.835,22.5 C1050.835,28.715 1045.235,33.75 1038.335,33.75 C1031.43,33.75 1025.835,28.715 1025.835,22.5 C1025.835,16.285 1031.43,11.25 1038.335,11.25 C1045.235,11.25 1050.835,16.285 1050.835,22.5" fill="#8FD1E9"/>
    <path d="M1050.835,22.5 C1050.835,28.715 1045.235,33.75 1038.335,33.75 C1031.43,33.75 1025.835,28.715 1025.835,22.5 C1025.835,16.285 1031.43,11.25 1038.335,11.25 C1045.235,11.25 1050.835,16.285 1050.835,22.5 z" fill-opacity="0" stroke="#6E5E4E" stroke-width="4.925"/>
    <path d="M700.835,227.5 C700.835,233.715 695.235,238.75 688.335,238.75 C681.43,238.75 675.835,233.715 675.835,227.5 C675.835,221.285 681.43,216.25 688.335,216.25 C695.235,216.25 700.835,221.285 700.835,227.5" fill="#FFFFFE"/>
    <path d="M700.835,227.5 C700.835,233.715 695.235,238.75 688.335,238.75 C681.43,238.75 675.835,233.715 675.835,227.5 C675.835,221.285 681.43,216.25 688.335,216.25 C695.235,216.25 700.835,221.285 700.835,227.5 z" fill-opacity="0" stroke="#6E5E4E" stroke-width="4.925"/>
    <path d="M1104.195,115 C1104.195,119.885 1099.055,123.84 1092.71,123.84 C1086.36,123.84 1081.22,119.885 1081.22,115 C1081.22,110.115 1086.36,106.16 1092.71,106.16 C1099.055,106.16 1104.195,110.115 1104.195,115" fill="#8FD1E9"/>
    <path d="M1104.195,115 C1104.195,119.885 1099.055,123.84 1092.71,123.84 C1086.36,123.84 1081.22,119.885 1081.22,115 C1081.22,110.115 1086.36,106.16 1092.71,106.16 C1099.055,106.16 1104.195,110.115 1104.195,115 z" fill-opacity="0" stroke="#6E5E4E" stroke-width="4.925"/>
    <path d="M915,271.665 C915,276.55 909.855,280.505 903.51,280.505 C897.165,280.505 892.02,276.55 892.02,271.665 C892.02,266.78 897.165,262.825 903.51,262.825 C909.855,262.825 915,266.78 915,271.665" fill="#FFFFFE"/>
    <path d="M915,271.665 C915,276.55 909.855,280.505 903.51,280.505 C897.165,280.505 892.02,276.55 892.02,271.665 C892.02,266.78 897.165,262.825 903.51,262.825 C909.855,262.825 915,266.78 915,271.665 z" fill-opacity="0" stroke="#6E5E4E" stroke-width="4.925"/>
    <path d="M949.82,98.84 C949.82,103.72 944.68,107.675 938.335,107.675 C931.985,107.675 926.845,103.72 926.845,98.84 C926.845,93.955 931.985,90 938.335,90 C944.68,90 949.82,93.955 949.82,98.84" fill="#FFFFFE"/>
    <path d="M949.82,98.84 C949.82,103.72 944.68,107.675 938.335,107.675 C931.985,107.675 926.845,103.72 926.845,98.84 C926.845,93.955 931.985,90 938.335,90 C944.68,90 949.82,93.955 949.82,98.84 z" fill-opacity="0" stroke="#6E5E4E" stroke-width="4.925"/>
    <path d="M1083.335,360 C1072.085,353.75 1078.335,331.25 1087.085,332.5 C1095.835,333.75 1105.835,348.75 1083.335,360" fill="#FFFFFE"/>
    <path d="M1083.335,360 C1072.085,353.75 1078.335,331.25 1087.085,332.5 C1095.835,333.75 1105.835,348.75 1083.335,360 z" fill-opacity="0" stroke="#6E5E4E" stroke-width="4.925"/>
    <path d="M859.585,232.5 C848.335,226.25 854.585,203.75 863.335,205 C872.085,206.25 882.085,221.25 859.585,232.5" fill="#FFFFFE"/>
    <path d="M859.585,232.5 C848.335,226.25 854.585,203.75 863.335,205 C872.085,206.25 882.085,221.25 859.585,232.5 z" fill-opacity="0" stroke="#6E5E4E" stroke-width="4.925"/>
    <path d="M1073.335,180 C1062.085,173.75 1068.335,151.25 1077.085,152.5 C1085.835,153.75 1095.835,168.75 1073.335,180" fill="#FFFFFE"/>
    <path d="M1073.335,180 C1062.085,173.75 1068.335,151.25 1077.085,152.5 C1085.835,153.75 1095.835,168.75 1073.335,180 z" fill-opacity="0" stroke="#6E5E4E" stroke-width="4.925"/>
    <path d="M1144.585,330 C1139.585,321.25 1142.085,311.25 1149.585,308.75 C1157.085,306.25 1167.085,312.5 1153.335,325" fill="#FFFFFE"/>
    <path d="M1144.585,330 C1139.585,321.25 1142.085,311.25 1149.585,308.75 C1157.085,306.25 1167.085,312.5 1153.335,325" fill-opacity="0" stroke="#6E5E4E" stroke-width="4.925"/>
    <path d="M874.585,130 C869.585,121.25 872.085,111.25 879.585,108.75 C887.085,106.25 897.085,112.5 883.335,125" fill="#FFFFFE"/>
    <path d="M874.585,130 C869.585,121.25 872.085,111.25 879.585,108.75 C887.085,106.25 897.085,112.5 883.335,125" fill-opacity="0" stroke="#6E5E4E" stroke-width="4.925"/>
    <path d="M848.335,60 C848.335,66.445 842.365,71.665 835,71.665 C827.63,71.665 821.665,66.445 821.665,60 C821.665,53.555 827.63,48.335 835,48.335 C842.365,48.335 848.335,53.555 848.335,60" fill="#FFFFFE"/>
    <path d="M848.335,60 C848.335,66.445 842.365,71.665 835,71.665 C827.63,71.665 821.665,66.445 821.665,60 C821.665,53.555 827.63,48.335 835,48.335 C842.365,48.335 848.335,53.555 848.335,60 z" fill-opacity="0" stroke="#6E5E4E" stroke-width="4.925"/>
    <path d="M430.835,466.67 C422.5,474.17 327.505,547.5 319.165,560 C312.5,559.165 269.165,548.335 258.33,555.835 C247.5,563.335 236.665,578.335 254.165,585.835 C248.33,591.665 253.33,605.835 262.5,605 C265.83,614.165 269.165,617.5 275.83,616.665 C280,623.335 285.83,627.5 295.83,621.665 C305.835,615.835 329.165,605 335,604.165 C340.83,603.335 349.17,600.835 350,605.835 C350.83,610.835 351.665,615.835 348.33,620 C345,624.165 343.33,630.835 347.5,634.165 C351.665,637.5 367.495,634.165 373.33,625.835 C379.17,617.5 385.005,607.5 386.67,601.665 C388.33,595.835 384.165,583.335 378.33,579.165 C385,574.165 472.505,512.5 476.67,510 L476.67,489.17 L430.835,466.67" fill="#F9D8B2"/>
    <path d="M430.835,466.67 C422.5,474.17 327.505,547.5 319.165,560 C312.5,559.165 269.165,548.335 258.33,555.835 C247.5,563.335 236.665,578.335 254.165,585.835 C248.33,591.665 253.33,605.835 262.5,605 C265.83,614.165 269.165,617.5 275.83,616.665 C280,623.335 285.83,627.5 295.83,621.665 C305.835,615.835 329.165,605 335,604.165 C340.83,603.335 349.17,600.835 350,605.835 C350.83,610.835 351.665,615.835 348.33,620 C345,624.165 343.33,630.835 347.5,634.165 C351.665,637.5 367.495,634.165 373.33,625.835 C379.17,617.5 385.005,607.5 386.67,601.665 C388.33,595.835 384.165,583.335 378.33,579.165 C385,574.165 472.505,512.5 476.67,510 L476.67,489.17 L430.835,466.67 z" fill-opacity="0" stroke="#6E5E4E" stroke-width="5"/>
    <path d="M490.83,485 C490,490 501.665,535 505.835,537.5 C510,540 553.335,550 565.835,547.5 C578.335,545 605.835,536.665 608.335,526.665 C610.835,516.665 613.33,489.165 614.165,485.835 C615,482.5 598.335,481.67 598.335,481.67 L490.83,485" fill="#F9D8B2"/>
    <path d="M490.83,485 C490,490 501.665,535 505.835,537.5 C510,540 553.335,550 565.835,547.5 C578.335,545 605.835,536.665 608.335,526.665 C610.835,516.665 613.33,489.165 614.165,485.835 C615,482.5 598.335,481.67 598.335,481.67 L490.83,485 z" fill-opacity="0" stroke="#6E5E4E" stroke-width="5"/>
    <path d="M468.33,490.83 C468.33,503.335 469.17,530.835 472.5,546.665 C475.83,562.5 477.5,570.835 477.5,570.835 C477.5,570.835 527.5,576.665 534.165,576.665 C540.835,576.665 602.5,555 610,554.165 C617.5,553.335 626.665,514.165 627.5,511.665 C629.165,504.165 629.165,504.165 629.165,504.165 C629.165,504.165 650,472.505 659.165,466.67 L617.5,473.335 C607.5,485.835 598.335,515.835 597.5,527.5 C590.835,531.665 560.83,541.665 544.165,539.165 C527.5,536.665 504.165,533.335 500.835,516.665 C497.5,500 496.665,495 496.665,495 L468.33,490.83" fill="#EB9073"/>
    <path d="M468.33,490.83 C468.33,503.335 469.17,530.835 472.5,546.665 C475.83,562.5 477.5,570.835 477.5,570.835 C477.5,570.835 527.5,576.665 534.165,576.665 C540.835,576.665 602.5,555 610,554.165 C617.5,553.335 626.665,514.165 627.5,511.665 C629.165,504.165 629.165,504.165 629.165,504.165 C629.165,504.165 650,472.505 659.165,466.67 L617.5,473.335 C607.5,485.835 598.335,515.835 597.5,527.5 C590.835,531.665 560.83,541.665 544.165,539.165 C527.5,536.665 504.165,533.335 500.835,516.665 C497.5,500 496.665,495 496.665,495 L468.33,490.83 z" fill-opacity="0" stroke="#6E5E4E" stroke-width="5"/>
    <path d="M1042.085,266.25 C1044.585,261.25 1050.835,257.5 1050.835,257.5 C1050.835,257.5 1057.085,260 1055.835,263.75 C1054.585,267.5 1053.335,277.5 1053.335,277.5 L1039.585,277.5 L1042.085,266.25" fill="#F9D8B2"/>
    <path d="M1042.085,266.25 C1044.585,261.25 1050.835,257.5 1050.835,257.5 C1050.835,257.5 1057.085,260 1055.835,263.75 C1054.585,267.5 1053.335,277.5 1053.335,277.5 L1039.585,277.5 L1042.085,266.25 z" fill-opacity="0" stroke="#6E5E4E" stroke-width="5"/>
    <path d="M1017.085,266.25 C1018.335,262.5 1027.085,253.75 1032.085,253.75 C1037.085,253.75 1042.085,258.75 1042.085,258.75 C1042.085,258.75 1042.085,265 1038.335,270 C1034.585,275 1023.335,276.25 1023.335,276.25 L1014.585,275 L1017.085,266.25" fill="#F9D8B2"/>
    <path d="M1017.085,266.25 C1018.335,262.5 1027.085,253.75 1032.085,253.75 C1037.085,253.75 1042.085,258.75 1042.085,258.75 C1042.085,258.75 1042.085,265 1038.335,270 C1034.585,275 1023.335,276.25 1023.335,276.25 L1014.585,275 L1017.085,266.25 z" fill-opacity="0" stroke="#6E5E4E" stroke-width="5"/>
    <path d="M952.085,348.75 C928.335,345 890.835,317.5 887.085,313.75 C895.835,305 935.835,290 947.085,285 C952.085,277.5 962.085,262.5 970.835,261.25 C979.585,260 997.085,265 1008.335,267.5 C1019.585,270 1025.835,270 1033.335,267.5 C1040.835,265 1043.335,270 1047.085,271.25 C1047.085,271.25 1058.335,263.75 1060.835,267.5 C1063.335,271.25 1059.585,275 1059.585,275 C1063.335,273.75 1064.585,281.25 1064.585,281.25 C1064.585,281.25 1062.085,287.5 1058.335,287.5 C1054.585,287.5 1054.585,287.5 1054.585,287.5 C1044.585,297.5 1022.085,306.25 1015.835,310 C1009.585,313.75 995.835,313.75 989.585,315 C985.835,321.25 958.335,346.25 952.085,348.75" fill="#F9D8B2"/>
    <path d="M952.085,348.75 C928.335,345 890.835,317.5 887.085,313.75 C895.835,305 935.835,290 947.085,285 C952.085,277.5 962.085,262.5 970.835,261.25 C979.585,260 997.085,265 1008.335,267.5 C1019.585,270 1025.835,270 1033.335,267.5 C1040.835,265 1043.335,270 1047.085,271.25 C1047.085,271.25 1058.335,263.75 1060.835,267.5 C1063.335,271.25 1059.585,275 1059.585,275 C1063.335,273.75 1064.585,281.25 1064.585,281.25 C1064.585,281.25 1062.085,287.5 1058.335,287.5 C1054.585,287.5 1054.585,287.5 1054.585,287.5 C1044.585,297.5 1022.085,306.25 1015.835,310 C1009.585,313.75 995.835,313.75 989.585,315 C985.835,321.25 958.335,346.25 952.085,348.75 z" fill-opacity="0" stroke="#6E5E4E" stroke-width="5"/>
    <path d="M839.585,346.25 C847.085,340 859.585,337.5 865.835,332.5 C872.085,327.5 887.085,313.75 887.085,313.75 C890.835,317.5 928.335,345 952.085,348.75 C953.335,355 939.585,367.5 933.335,376.25 C927.085,385 903.335,402.5 899.585,407.5 C895.835,412.5 875.835,420 869.585,423.75 C863.335,427.5 853.335,396.25 853.335,396.25 L834.585,351.25 L839.585,346.25" fill="#C2BAA1"/>
    <path d="M839.585,346.25 C847.085,340 859.585,337.5 865.835,332.5 C872.085,327.5 887.085,313.75 887.085,313.75 C890.835,317.5 928.335,345 952.085,348.75 C953.335,355 939.585,367.5 933.335,376.25 C927.085,385 903.335,402.5 899.585,407.5 C895.835,412.5 875.835,420 869.585,423.75 C863.335,427.5 853.335,396.25 853.335,396.25 L834.585,351.25 L839.585,346.25 z" fill-opacity="0" stroke="#C2BAA1" stroke-width="5"/>
    <path d="M833.335,145 C834.585,133.75 843.335,133.75 849.585,136.25 C859.565,140.245 857.085,142.5 852.085,150 C847.085,157.5 832.085,167.5 832.085,167.5 C825.835,178.75 814.585,196.25 804.585,200 C803.335,208.75 798.335,211.25 797.085,217.5 C795.835,223.75 805.835,300 798.335,312.5 L729.585,293.75 L730.835,273.75 C727.085,258.75 730.835,212.5 735.835,203.75 C729.585,202.5 713.335,182.5 733.335,175 C753.335,167.5 767.085,158.75 770.835,155 C772.085,148.75 773.335,141.25 780.835,138.75 C785.835,135 787.085,141.25 787.085,141.25 C787.085,141.25 793.335,131.25 797.085,131.25 C800.835,131.25 804.585,133.75 804.585,140 C808.335,133.75 810.835,130 814.585,130 C818.335,130 819.585,137.5 819.585,142.5 C822.085,132.5 829.585,133.75 833.335,145" fill="#F9D8B2"/>
    <path d="M833.335,145 C834.585,133.75 843.335,133.75 849.585,136.25 C859.565,140.245 857.085,142.5 852.085,150 C847.085,157.5 832.085,167.5 832.085,167.5 C825.835,178.75 814.585,196.25 804.585,200 C803.335,208.75 798.335,211.25 797.085,217.5 C795.835,223.75 805.835,300 798.335,312.5 L729.585,293.75 L730.835,273.75 C727.085,258.75 730.835,212.5 735.835,203.75 C729.585,202.5 713.335,182.5 733.335,175 C753.335,167.5 767.085,158.75 770.835,155 C772.085,148.75 773.335,141.25 780.835,138.75 C785.835,135 787.085,141.25 787.085,141.25 C787.085,141.25 793.335,131.25 797.085,131.25 C800.835,131.25 804.585,133.75 804.585,140 C808.335,133.75 810.835,130 814.585,130 C818.335,130 819.585,137.5 819.585,142.5 C822.085,132.5 829.585,133.75 833.335,145 z" fill-opacity="0" stroke="#6E5E4E" stroke-width="5"/>
    <path d="M784.585,151.25 C794.585,147.5 833.335,148.75 838.335,160 M787.085,206.25 C797.085,203.75 804.585,201.25 808.335,197.5 M735.835,203.75 L749.585,206.25 M807.085,151.25 C798.335,152.5 795.835,155 787.085,160" fill-opacity="0" stroke="#6E5E4E" stroke-width="4.925"/>
    <path d="M703.335,370 C703.335,370 663.335,407.5 645.835,420 C628.335,432.5 615.835,460 623.335,462.5 C630.835,465 675.835,480 675.835,480 L678.335,522.5 L648.335,557.5 C648.335,557.5 728.335,562.5 743.335,542.5 C758.335,522.5 770.835,497.5 775.835,477.5 C780.835,457.5 785.835,440 775.835,422.5 C765.835,405 703.335,370 703.335,370" fill="#EB9073"/>
    <path d="M703.335,370 C703.335,370 663.335,407.5 645.835,420 C628.335,432.5 615.835,460 623.335,462.5 C630.835,465 675.835,480 675.835,480 L678.335,522.5 L648.335,557.5 C648.335,557.5 728.335,562.5 743.335,542.5 C758.335,522.5 770.835,497.5 775.835,477.5 C780.835,457.5 785.835,440 775.835,422.5 C765.835,405 703.335,370 703.335,370 z" fill-opacity="0" stroke="#6E5E4E" stroke-width="5"/>
    <path d="M878.155,451.705 C886.51,572.87 764.685,679.445 606.05,689.74 C447.415,700.035 312.045,610.155 303.69,488.985 C295.34,367.815 417.17,261.24 575.805,250.945 C734.435,240.65 869.805,330.535 878.155,451.705 z M583.64,373.6 C532.96,376.89 486.705,397.15 459.9,427.795 C450.275,438.81 439.19,455.955 439.19,476.53 C439.19,477.825 439.23,479.14 439.32,480.46 C442.91,532.5 516.91,573.545 597.68,568.3 C648.355,565.01 694.61,544.755 721.415,514.11 C731.655,502.4 743.535,483.765 741.995,461.445 C738.405,409.41 664.41,368.36 583.64,373.6" fill="#F8C65D"/>
    <path d="M878.155,451.705 C886.51,572.87 764.685,679.445 606.05,689.74 C447.415,700.035 312.045,610.155 303.69,488.985 C295.34,367.815 417.17,261.24 575.805,250.945 C734.435,240.65 869.805,330.535 878.155,451.705 z M583.64,373.6 C532.96,376.89 486.705,397.15 459.9,427.795 C450.275,438.81 439.19,455.955 439.19,476.53 C439.19,477.825 439.23,479.14 439.32,480.46 C442.91,532.5 516.91,573.545 597.68,568.3 C648.355,565.01 694.61,544.755 721.415,514.11 C731.655,502.4 743.535,483.765 741.995,461.445 C738.405,409.41 664.41,368.36 583.64,373.6 z" fill-opacity="0" stroke="#6E5E4E" stroke-width="5"/>
    <path d="M866.3,429.085 C867.81,437.465 868.585,446.005 868.585,454.67 C868.585,566.295 739.73,656.78 580.785,656.78 C471,656.78 375.575,613.62 327.045,550.135" fill-opacity="0" stroke="#6E5E4E" stroke-width="5.78"/>
    <path d="M820.335,597.455 C770.935,648.59 694.17,684.02 606.05,689.74 C497.415,696.79 399.69,656.86 346.195,592.075 C355.65,598.265 404.65,617.865 415.675,621.54 C424.25,620.315 431.6,616.64 435.275,616.64 C440.175,625.215 448.75,628.89 462.225,631.345 C475.7,633.79 495.3,637.465 507.55,635.015 C519.8,632.565 500.2,631.345 507.55,635.015 C514.9,638.69 609.225,646.04 619.025,641.145 C628.825,636.245 612.9,626.44 622.7,637.465 C632.5,648.49 660.675,648.49 685.175,644.815 C709.675,641.145 739.075,627.665 747.65,623.99 C756.225,620.315 763.575,614.19 766.025,609.29 C767.25,612.965 769.7,616.64 780.725,614.19 C791.75,611.74 810.945,603.995 820.335,597.455" fill="#AFAD61"/>
    <path d="M820.335,597.455 C770.935,648.59 694.17,684.02 606.05,689.74 C497.415,696.79 399.69,656.86 346.195,592.075 C355.65,598.265 404.65,617.865 415.675,621.54 C424.25,620.315 431.6,616.64 435.275,616.64 C440.175,625.215 448.75,628.89 462.225,631.345 C475.7,633.79 495.3,637.465 507.55,635.015 C519.8,632.565 500.2,631.345 507.55,635.015 C514.9,638.69 609.225,646.04 619.025,641.145 C628.825,636.245 612.9,626.44 622.7,637.465 C632.5,648.49 660.675,648.49 685.175,644.815 C709.675,641.145 739.075,627.665 747.65,623.99 C756.225,620.315 763.575,614.19 766.025,609.29 C767.25,612.965 769.7,616.64 780.725,614.19 C791.75,611.74 810.945,603.995 820.335,597.455 z" fill-opacity="0" stroke="#AFAD61" stroke-width="5"/>
    <path d="M80,756.665 C79.165,763.335 79.995,774.165 90.835,792.5 C101.665,810.835 125.835,824.165 136.67,826.665 C147.5,829.165 367.5,877.5 405,868.335 C442.5,859.165 467.5,845.835 482.5,832.5 C497.5,819.165 625.835,683.335 630.835,673.335 C633.335,667.5 635,650 633.335,644.165 C631.665,638.335 622.5,630.835 612.5,627.5 C602.5,624.165 530,633.335 530,633.335 L388.33,712.5 L278.185,699.39 L158.33,730.835 L80,756.665" fill="#EC9A9B"/>
    <path d="M80,756.665 C79.165,763.335 79.995,774.165 90.835,792.5 C101.665,810.835 125.835,824.165 136.67,826.665 C147.5,829.165 367.5,877.5 405,868.335 C442.5,859.165 467.5,845.835 482.5,832.5 C497.5,819.165 625.835,683.335 630.835,673.335 C633.335,667.5 635,650 633.335,644.165 C631.665,638.335 622.5,630.835 612.5,627.5 C602.5,624.165 530,633.335 530,633.335 L388.33,712.5 L278.185,699.39 L158.33,730.835 L80,756.665 z" fill-opacity="0" stroke="#6E5E4E" stroke-width="5"/>
    <path d="M369.17,575 C374.165,579.165 386.67,600.835 380,613.335 C373.33,625.835 347.495,649.165 338.33,658.335 C329.165,667.5 320,659.165 313.335,653.335 C306.665,647.5 314.165,630 323.33,619.165 C332.5,608.335 369.17,575 369.17,575" fill="#EC9A9B"/>
    <path d="M369.17,575 C374.165,579.165 386.67,600.835 380,613.335 C373.33,625.835 347.495,649.165 338.33,658.335 C329.165,667.5 320,659.165 313.335,653.335 C306.665,647.5 314.165,630 323.33,619.165 C332.5,608.335 369.17,575 369.17,575 z" fill-opacity="0" stroke="#6E5E4E" stroke-width="5"/>
    <path d="M254.165,585.835 C235,600.835 90.655,704.125 80.83,748.335 C72.5,785.835 128.335,795 135,796.665 C151.67,800.835 340.005,850.835 396.665,840 C453.33,829.165 467.505,807.5 484.17,795 C500.835,782.5 616.11,650.83 623.335,640 C626.665,635 615,624.165 598.335,621.665 C581.665,619.165 519.165,603.335 500,621.665 C480.83,640 470.83,655 465,659.165 C459.17,663.335 442.495,670 425.83,667.5 C409.17,665 337.505,658.335 326.67,650.835 C315.83,643.335 316.665,637.5 332.5,623.335 C348.335,609.165 367.505,590 371.67,584.165 C375.83,578.335 372.505,573.335 354.17,569.165 C335.83,565 295,560 275,573.335 L254.165,585.835" fill="#F0B2B8"/>
    <path d="M254.165,585.835 C235,600.835 90.655,704.125 80.83,748.335 C72.5,785.835 128.335,795 135,796.665 C151.67,800.835 340.005,850.835 396.665,840 C453.33,829.165 467.505,807.5 484.17,795 C500.835,782.5 616.11,650.83 623.335,640 C626.665,635 615,624.165 598.335,621.665 C581.665,619.165 519.165,603.335 500,621.665 C480.83,640 470.83,655 465,659.165 C459.17,663.335 442.495,670 425.83,667.5 C409.17,665 337.505,658.335 326.67,650.835 C315.83,643.335 316.665,637.5 332.5,623.335 C348.335,609.165 367.505,590 371.67,584.165 C375.83,578.335 372.505,573.335 354.17,569.165 C335.83,565 295,560 275,573.335 L254.165,585.835 z" fill-opacity="0" stroke="#6E5E4E" stroke-width="5"/>
    <path d="M423.335,864.165 C428.755,859.05 385,872.5 368.33,869.165 C351.665,865.835 337.5,857.5 330,853.335 C322.5,849.165 270,849.165 250,848.335 C230,847.5 223.33,836.665 213.335,829.165 C210,829.165 160,827.5 140.83,830 C121.665,832.5 100.83,822.5 89.165,816.665 L76.665,820 C76.665,820 96.665,838.335 106.665,838.335 C116.665,838.335 171.665,843.335 191.665,855 C211.665,866.665 268.33,873.335 281.665,875 C294.995,876.665 354.995,875 369.995,878.335 C384.995,881.665 408.335,878.335 423.335,864.165" fill="#4EC0E3"/>
    <path d="M669.165,458.335 C678.335,459.17 689.165,459.17 695,466.67 C700.835,474.17 707.5,502.5 698.335,513.335 C689.165,524.165 678.33,535 671.665,540.835 C665,546.665 618.33,601.665 614.165,607.5 C611.665,622.5 599.165,637.5 592.5,635.835 C590,640.835 580,665.835 577.5,670 C575,674.165 559.165,680 564.165,656.665 C560,667.5 550.835,675 545.835,675 C540.835,675 540,664.165 542.5,655.835 C535.835,665.835 528.335,675 522.5,673.335 C516.665,671.665 515.835,666.665 515.835,662.5 C513.335,667.5 507.5,670.835 503.335,667.5 C499.165,664.165 489.58,652.5 514.585,615 C512.085,613.335 503.335,625 500,627.5 C496.665,630 495,634.165 490.83,636.665 C486.665,639.165 478.335,638.335 477.5,632.5 C476.665,626.665 477.5,620 482.5,614.165 C487.5,608.335 515.83,595 531.665,592.5 C542.5,580.835 630.835,495 638.335,493.335 C640.835,485.835 662.5,459.165 669.165,458.335" fill="#F9D8B2"/>
    <path d="M669.165,458.335 C678.335,459.17 689.165,459.17 695,466.67 C700.835,474.17 707.5,502.5 698.335,513.335 C689.165,524.165 678.33,535 671.665,540.835 C665,546.665 618.33,601.665 614.165,607.5 C611.665,622.5 599.165,637.5 592.5,635.835 C590,640.835 580,665.835 577.5,670 C575,674.165 559.165,680 564.165,656.665 C560,667.5 550.835,675 545.835,675 C540.835,675 540,664.165 542.5,655.835 C535.835,665.835 528.335,675 522.5,673.335 C516.665,671.665 515.835,666.665 515.835,662.5 C513.335,667.5 507.5,670.835 503.335,667.5 C499.165,664.165 489.58,652.5 514.585,615 C512.085,613.335 503.335,625 500,627.5 C496.665,630 495,634.165 490.83,636.665 C486.665,639.165 478.335,638.335 477.5,632.5 C476.665,626.665 477.5,620 482.5,614.165 C487.5,608.335 515.83,595 531.665,592.5 C542.5,580.835 630.835,495 638.335,493.335 C640.835,485.835 662.5,459.165 669.165,458.335 z M694.165,439.17 C700.835,438.335 714.165,440.835 720.835,445 M538.335,620 C532.085,628.75 517.085,651.25 515.835,662.5 M555.835,625 C552.085,631.25 542.085,652.5 540.835,658.75 M575.835,631.25 C572.085,637.5 564.585,652.5 563.335,661.25" fill-opacity="0" stroke="#6E5E4E" stroke-width="5"/>
    <path d="M43.33,675 C50.905,661.12 0.835,802.5 68.335,822.5 L73.33,835 C73.33,835 18.33,832.5 13.33,807.5 C8.33,782.5 28.33,702.5 43.33,675" fill="#4EC0E3"/>
    <g>
      <path d="M185.83,570 C155.83,595 103.33,647.5 85.835,700 C85.835,700 70.83,717.5 65.83,732.5 C55.83,687.5 105.835,597.5 185.83,570" fill="#4EC0E3"/>
      <path d="M248.33,900 C313.335,925 353.44,969.02 490.83,917.5 C530.835,902.5 538.335,895 538.335,895 C538.335,895 436.49,925 393.33,925 C365.83,925 278.33,920 248.33,900" fill="#4EC0E3"/>
    </g>
    <path d="M313.335,885 C323.33,895 358.33,917.5 398.33,907.5 C438.335,897.5 458.33,895 483.33,885 C470.83,880 403.33,897.5 388.33,897.5 C373.33,897.5 323.33,892.5 313.335,885" fill="#4EC0E3"/>
    <path d="M558.335,795 C588.335,780 688.335,737.5 703.335,727.5 C693.335,740 618.335,795 558.335,795" fill="#4EC0E3"/>
    <path d="M525.835,852.5 C555.835,837.5 655.835,795 670.835,785 C660.835,797.5 585.835,852.5 525.835,852.5" fill="#4EC0E3"/>
    <path d="M1023.335,562.5 C920.835,630 883.335,622.5 865.835,617.5 C898.335,610 1005.835,572.5 1023.335,562.5" fill="#4EC0E3"/>
    <path d="M895.835,562.5 C899.37,573.105 988.335,527.5 1045.835,497.5 C965.835,570 905.835,572.5 898.335,570 C898.335,570 893.335,555 895.835,562.5" fill="#4EC0E3"/>
    <path d="M428.105,468.975 C410.35,483.57 326.955,548.325 319.165,560 C312.5,559.165 269.165,548.335 258.33,555.835 C247.5,563.335 236.665,578.335 254.165,585.835 C248.33,591.665 253.33,605.835 262.5,605 C265.83,614.165 269.165,617.5 275.83,616.665 C280,623.335 285.83,627.5 295.83,621.665 C305.835,615.835 329.165,605 335,604.165 C340.83,603.335 349.17,600.835 350,605.835 C350.83,610.835 351.665,615.835 348.33,620 C345,624.165 343.33,630.835 347.5,634.165 C351.665,637.5 367.495,634.165 373.33,625.835 C379.17,617.5 385.005,607.5 386.67,601.665 C388.33,595.835 384.165,583.335 378.33,579.165 C383.745,575.11 442.395,533.73 466.54,516.945" fill="#F9D8B2"/>
    <path d="M428.105,468.975 C410.35,483.57 326.955,548.325 319.165,560 C312.5,559.165 269.165,548.335 258.33,555.835 C247.5,563.335 236.665,578.335 254.165,585.835 C248.33,591.665 253.33,605.835 262.5,605 C265.83,614.165 269.165,617.5 275.83,616.665 C280,623.335 285.83,627.5 295.83,621.665 C305.835,615.835 329.165,605 335,604.165 C340.83,603.335 349.17,600.835 350,605.835 C350.83,610.835 351.665,615.835 348.33,620 C345,624.165 343.33,630.835 347.5,634.165 C351.665,637.5 367.495,634.165 373.33,625.835 C379.17,617.5 385.005,607.5 386.67,601.665 C388.33,595.835 384.165,583.335 378.33,579.165 C383.745,575.11 442.395,533.73 466.54,516.945" fill-opacity="0" stroke="#6E5E4E" stroke-width="5"/>
    <path d="M434.165,411.67 C426.665,406.67 406.67,397.505 400,404.17 C393.33,410.835 386.665,423.335 399.165,436.67 C411.665,450 427.5,453.335 430.835,454.17 L434.165,411.67" fill="#F9D8B2"/>
    <path d="M434.165,411.67 C426.665,406.67 406.67,397.505 400,404.17 C393.33,410.835 386.665,423.335 399.165,436.67 C411.665,450 427.5,453.335 430.835,454.17 L434.165,411.67 z" fill-opacity="0" stroke="#6E5E4E" stroke-width="5"/>
    <path d="M438.335,380 C432.5,395 422.5,430.005 425.83,446.67 C429.165,463.335 419.115,502.08 529.165,505.835 C602.5,508.335 645.835,477.5 653.335,470.835 L658.335,463.335 C665.835,465.835 679.165,462.5 687.5,447.5 C695.835,432.5 695.835,424.17 690,416.67 L686.665,401.67 L529.165,362.5 L438.335,380" fill="#F9D8B2"/>
    <path d="M438.335,380 C432.5,395 422.5,430.005 425.83,446.67 C429.165,463.335 419.115,502.08 529.165,505.835 C602.5,508.335 645.835,477.5 653.335,470.835 L658.335,463.335 C665.835,465.835 679.165,462.5 687.5,447.5 C695.835,432.5 695.835,424.17 690,416.67 L686.665,401.67 L529.165,362.5 L438.335,380 z" fill-opacity="0" stroke="#6E5E4E" stroke-width="5"/>
    <path d="M445,382.5 C444.165,385 431.665,405 431.665,412.5 C431.665,412.5 425,410.005 425,404.17 C425,398.335 427.5,386.67 427.5,386.67 L445,382.5" fill="#9F896C"/>
    <path d="M445,382.5 C444.165,385 431.665,405 431.665,412.5 C431.665,412.5 425,410.005 425,404.17 C425,398.335 427.5,386.67 427.5,386.67 L445,382.5 z" fill-opacity="0" stroke="#6E5E4E" stroke-width="5"/>
    <path d="M613.335,376.67 C615.835,385.835 633.335,423.335 650.835,429.17 C657.5,425.835 656.665,424.17 659.165,421.67 C661.665,419.17 679.165,406.67 690,416.67 L695.835,426.67 L694.165,409.17 C692.5,403.335 631.665,366.67 613.335,376.67" fill="#9F896C"/>
    <path d="M613.335,376.67 C615.835,385.835 633.335,423.335 650.835,429.17 C657.5,425.835 656.665,424.17 659.165,421.67 C661.665,419.17 679.165,406.67 690,416.67 L695.835,426.67 L694.165,409.17 C692.5,403.335 631.665,366.67 613.335,376.67 z" fill-opacity="0" stroke="#6E5E4E" stroke-width="5"/>
    <path d="M575.835,238.335 C567.5,235.835 531.665,245 519.165,251.67 C506.665,258.335 515,260.005 506.665,258.335 C498.33,256.665 484.165,259.17 478.33,265.835 C472.5,272.5 424.17,310.835 427.5,386.67 C435,383.335 457.505,378.335 466.67,378.335 C475.83,378.335 548.335,374.165 561.665,375 C575,375.835 669.165,400 691.665,411.67 C700,409.17 709.165,389.17 710.835,386.67 C712.5,384.17 723.335,315.005 720.835,303.335 C718.335,291.67 702.5,272.505 695.835,268.335 C689.165,264.165 660,254.165 650.835,250 C641.665,245.835 583.335,241.67 575.835,238.335" fill="#FFFFFE"/>
    <path d="M575.835,238.335 C567.5,235.835 531.665,245 519.165,251.67 C506.665,258.335 515,260.005 506.665,258.335 C498.33,256.665 484.165,259.17 478.33,265.835 C472.5,272.5 424.17,310.835 427.5,386.67 C435,383.335 457.505,378.335 466.67,378.335 C475.83,378.335 548.335,374.165 561.665,375 C575,375.835 669.165,400 691.665,411.67 C700,409.17 709.165,389.17 710.835,386.67 C712.5,384.17 723.335,315.005 720.835,303.335 C718.335,291.67 702.5,272.505 695.835,268.335 C689.165,264.165 660,254.165 650.835,250 C641.665,245.835 583.335,241.67 575.835,238.335 z M510.835,259.17 C518.335,264.165 528.335,265.835 541.665,263.335 C555,260.835 577.5,261.665 584.165,262.5 C590.835,263.335 625.835,272.5 633.335,275 C640.835,277.5 645.835,280.835 647.5,276.67 C649.165,272.5 649.165,270 645.835,267.5 M620,246.665 C619.165,250 625,266.665 625,266.665 L623.335,272.5 C623.335,272.5 614.165,276.665 606.665,282.5 C599.165,288.335 573.335,320.835 570.835,328.335 C568.335,335.835 560.835,363.335 561.665,370.835 M531.665,248.335 C531.665,252.5 533.335,260.835 530,261.67 C526.665,262.5 523.335,265 523.335,265 C523.335,265 518.335,271.665 509.165,276.67 C500,281.665 490.83,299.17 488.33,306.67 C485.83,314.17 469.995,365.835 470.83,374.17 M431.67,345.835 C437.5,340 480.83,325.835 485,325 C489.17,324.17 560.835,319.17 576.665,321.67 C592.5,324.17 680,333.335 705.835,389.17 M510,424.17 C506.665,427.5 502.5,430.005 497.5,430.835 C492.5,431.67 501.665,439.17 505.835,441.67" fill-opacity="0" stroke="#6E5E4E" stroke-width="5"/>
    <path d="M486.945,417.545 C486.18,423.945 483.89,428.935 481.835,428.685 C479.78,428.445 478.73,423.055 479.495,416.66 C480.26,410.26 482.545,405.27 484.6,405.52 C486.655,405.76 487.705,411.15 486.945,417.545" fill="#6E5E4E"/>
    <path d="M568.61,418.38 C567.845,424.78 565.56,429.765 563.505,429.52 C561.45,429.275 560.4,423.885 561.16,417.49 C561.925,411.09 564.215,406.105 566.27,406.35 C568.325,406.595 569.375,411.98 568.61,418.38" fill="#6E5E4E"/>
    <path d="M514.165,471.67 C523.335,474.17 552.5,470.005 575,448.335 M275.83,616.665 C278.33,611.25 280.83,602.5 285.83,600 C290.83,597.5 304.58,588.75 318.33,586.25 M303.33,575 C294.58,575 255.415,586.25 262.5,605 M254.165,585.835 C255.83,578.75 269.58,565 295.83,566.25" fill-opacity="0" stroke="#6E5E4E" stroke-width="5"/>
    <path d="M477.745,454.87 C476.82,461.9 467.045,466.41 455.915,464.945 C444.78,463.475 436.51,456.585 437.435,449.555 C438.365,442.525 448.14,438.015 459.27,439.485 C470.405,440.95 478.675,447.84 477.745,454.87" fill="#F4BB9A"/>
    <path d="M565.185,451.33 C564.49,444.27 572.99,437.66 584.16,436.56 C595.335,435.465 604.955,440.295 605.65,447.355 C606.34,454.41 597.845,461.025 586.67,462.12 C575.495,463.22 565.875,458.385 565.185,451.33" fill="#F4BB9A"/>
  </g>
</svg>