<?xml version="1.0" encoding="UTF-8" standalone="no"?>
<svg id="svg2" xmlns:rdf="http://www.w3.org/1999/02/22-rdf-syntax-ns#" xmlns="http://www.w3.org/2000/svg" height="908pt" width="1213pt" version="1.1" xmlns:cc="http://creativecommons.org/ns#" xmlns:dc="http://purl.org/dc/elements/1.1/" viewBox="0 0 1213 908">
<g>
<path id="path4" d="m526.52 0h14.7c2.76 0.89 6.43 1.88 6.62 5.39-19.93-1.89-39.89 5.09-60.05 4.67 12.15-5.76 25.72-7.22 38.73-10.06z"/>
<path id="path6" d="m466.44 9.35c-6.95 6.98-6.48 24.69-12.51 33.59 2.3-11.2-0.31-28.24 12.51-33.59z"/>
<path id="path8" d="m480.71 14.37c18.16 1.94 36.36-0.4 54.44-2.03 4.39-1.66 7.64 1.82 9.52 5.13 12.5 22.84 26.07 45.46 33.25 70.69 1.19 3.45-1.75 5.42-2.77 8.18 192.68-11.61 385.16-26.48 577.65-41.57 6-0.77 15.3-1.9 16.7 6.13 18.9 220.26 34.4 440.91 43.5 661.79v12.96c-17.7-222.22-33.4-444.74-57.2-666.46-208 21.42-416.41 39.49-625.29 50.15-16.65 5.39-36.79 8.29-52.17 11.77 223.13-14.22 446.08-31.82 668.76-51.76 5.9 83 14 165.87 19.9 248.88-9-81.01-17-162.49-24.2-243.79-78.3 7.13-156.73 14-234.99 21.37 13.59 8.57 14.62 25.4 14.44 39.86 2.14 26.73 1.95 53.94 5.06 80.39 30.53-1.31 61.08-2.77 91.59-4.08-30.36 3.12-64.12 5.3-95.85 7.76-1.87-32.5-5.12-64.9-7.43-97.37-0.13-12.92-11.06-25.1-24.53-24.22-67.7 5.55-135.47 10.5-203.12 16.78-11.89 0.94-20.2 13.41-17.88 24.92 2.8 34.3 6.65 68.53 8.91 102.87-41.68 4.5-83.75 6.36-125.56 9.64-11.31 0.25-18.64 11.99-16.48 22.6 2.9 56.63 6.67 113.23 10.13 169.83 0.08 10.94 9.16 20.48 20.09 20.78 41.84-1.65 83.69-6.43 125.41-8.12 2.27 34.83 6.02 69.56 9.6 104.28 1.28 9.77 11.17 15.68 20.52 14.89 55.82-5.84 111.86-9.91 167.67-15.74 5.71-4.75 12.49-8.54 17.65-13.96-62.95 6.89-125.78 15.12-188.75 21.71-5.91 0.47-9.11-5.26-9.56-10.48-4.17-36.17-8.21-72.38-10.88-108.7-43.2 3.29-86.49 5.85-129.75 8.25-5.89 0.12-13.02-3.61-13.29-10.13-3.08-56.11-4.83-112.36-6.93-168.53 0.26-5.05-2.04-13.64 5.18-14.59 47.91-1.7 95.87-3.08 143.79-4.59 0.34-40.24-2.93-80.5-3.64-120.69 63.92-2.93 127.88-5.84 191.66-11.15 3.81 39.03 6.21 78.31 10.67 117.3-0.2 4.99 6.03 4.32 9.32 4.19 45.65-3.78 91.23-8.81 136.95-11.38 2.7 49.39 6.2 100.57 5.4 148.86-6.4-43.75-12.9-87.7-21.5-130.98-41.07 4.9-81.96 11.3-123.07 15.85-14.94 3.3-30.59-8.64-32-23.64-3.76-30.67-6.62-61.47-9.86-92.19-47.14 3.65-94.4 5.49-141.66 6.06 1.27 31.2 0.65 62.44 1.95 93.63 1.42 11.42-6.52 22.64-17.78 24.75-44.37 1.94-88.83 1.22-133.17 3.78-0.52 50.58 2.19 101.1 4.11 151.64 45.17-1.18 90.28-4.86 135.38-7.62 3.21-0.03 7.04 1.85 6.93 5.54 3.49 39.04 5.48 78.26 9.73 117.23 61.26-4.14 122.34-10.71 183.58-15.25-1.98-38.78-6.17-77.5-7.55-116.31 0.24-4.56 3.95-8.16 8.61-8.24 44.74-2.78 89.6-3.35 134.4-4.96 7.4 2.36 5.3-4.04 5.9-8.16 2.9 0.57 0.3 6.21 0.8 8.62-47.1 5.2-94.98 6.01-141.89 12.68 2.45 38.68 6.62 77.3 10.52 115.86-0.48 4.36 6.33 0.36 1.57 4.24-6.79 11.02 12.43-3.52 3.7-2.55 0.6-34.71-6.74-75.32-8.62-112.2 33.58-1.21 67.02-4.94 100.62-5.85-30.9 3.54-65.26 5.59-97.52 8.37 2.2 35.45 5.01 71.11 8.62 106.47 5.37-2.54-2.6 4.41 0.75 4.98 4.89-0.16 1.91-5.98 3.46-8.87 0.28 2.19-0.27 7.22 3.14 5.43 41.3-19.14 89.45-23.98 133.45-12.18 52.6 15.46 99.9 55.6 116.2 108.88 8.6 26.14 5.4 53.97 6 80.97 5.6 1.62 3.8-4.22 4.2-7.88 3.8 5.11 0.2 14.15-8 10.45-0.5-15.83-2.2-31.58-3.3-47.37-4.1-41.4-27.4-79.87-61-104.06-52.9-41.44-130.44-45.06-188.78-13.06-4.06 6.65-10.89 9.88-18.18 11.77-24.96 18.88-45.38 44.37-56.26 73.87-13.01 33.99-6.14 70.87-4.76 106.13-140.69 11.12-281.32 23.18-422.02 34.04-8.87-130.16-15.65-260.47-21.93-390.76 12.73 123.98 22.11 251.71 34.32 376.9 132.16-11.19 264.59-20.27 396.64-32.08-1.43-19.58-3.81-39.15-2.91-58.81 2.88-41.46 24.26-80.07 54.64-107.82-11.36-1.41-15.96 12.74-23.34 19.02-33.95 39.28-40.91 93.66-34.5 143.5-128.6 8.58-257.07 20.21-385.61 29.06-16.98-209.73-34.97-419.48-46.17-629.58 20.22-2.69 41.24-3.12 61.81-4.26-21.44-13.18-48.27-5.75-72.72-5.82 10.12 220.24 19.79 440.59 32.72 660.7-0.7 7.66 6.85 8.37 13 6.98 142.06-9.19 284.48-17.19 426.08-31.11 3.58-27.88-5.88-57.73-1.59-86.39 9.43-65.24 67.99-118.53 133.16-124.87 64.1-10.69 132.9 24.12 161.4 82.57 16.3 32.72 10.6 70.5 15.3 105.4 3.8 3.06 4 5.28-0.6 1.95-5.8-24.81-4.5-51.18-11-76.03-17.4-64.68-88.8-107.28-154-96.78-41.44 8.42-85.03 27.09-105.4 66.57 50.77-66.36 162.4-79.53 220.6-15.99 22.7 22.2 33 58.16 27.3 87.48 0.7-34.24-14.9-68.7-42.7-89.13-69.2-54.7-185.43-11.6-209.98 70.87-13.61 47.2 11.06 98.43 52.61 122.51 42.51 26.31 100.57 23.19 140.97-5.91 30.5-21.95 53.6-56.34 62-92.01 6.8 61.84-41.3 121.5-100 136.98-64.64 19.62-136.64-15.05-166.96-74.07-5.86 8.4-15.55 13.11-25.75 13.39-143.8 12.74-287.84 23.44-432.01 30.57-11.25-1.03-19.46-8.95-25.31-17.94-12.19 57.42-65.61 101.25-123.6 106.05h-25.72c-47.59-4.68-90.42-34.65-113.64-76.09-23.08 22.13-58.85 10.69-87.52 16.77-18.53 4.35-39.1-7.84-41.2-27.18-4.3-105.82-5.66-211.66-7.87-317.51-0.21-17.91 5.85-36.85 20.57-48 19.67-15.64 46.15-16.67 70.16-16.91 20.48-41.67 37.71-85.16 55.96-127.96 7.68-17.88 13.14-38.28 29.89-50.13 19.71-15.31 45.92-13.34 69.38-15.6 39.64-2.08 79.2-8.29 118.86-7.7-2.77-40.32-6.15-80.67-7.15-121.08 0.1-13.9 14.83-21.58 27.25-20.29 15.23 0.39 32.78-3.09 46.57-0.44-18.09 0.84-36.17 2.08-54.21 3.66-8.53 0.91-16.01 8.12-16.11 16.94 4.59 88.87 9.08 180.34 18.46 267.35-3.17-88.2-7.7-176.44-11.59-264.64-0.6-5.96 3.92-11.47 9.72-12.25 19.95-2.51 41.57-1.22 60.54-4.13 9.14-9.98-13.63-7.99 1.33-9.46 7.83-24.19 15.11-49.13 23.92-73.2 2.01-4.3 7.19-6.41 11.74-5.78m47.7 15.97c-12.42 5.43-26.15 5.79-39.27 2.81-10.61 21.52-19.85 44.85-22.95 68.76 34.8 1.24 68.86-8.95 103.6-4.71-7.38-3.4 7.68-0.86 3.11-7.16-11.95-21.01-22.29-49.11-44.49-59.7m135.24 96.16c-82.1 6.65-164.21 13.78-246.43 18.61 11.18 204.41 24.38 409.05 42.96 612.93 124.12-10.58 248.6-18.08 372.82-26.32 0.8-16.57-2.38-33.07 0.19-49.56 2.36-41.1 24.97-78.77 52.51-107.26-54.84 6.22-109.79 11.5-164.68 17.07-12.45 0.44-24.07-9.66-24.85-22.23-3.04-32.17-7.26-64.3-9.1-96.54-39.03 3.83-78.12 7.32-117.19 10.74-15.95 1.42-31.7-11.58-31.96-27.87-4.85-57.57-8.71-115.26-12.01-172.92-1.61-15.3 10.98-29.01 25.77-30.64 39.4-2.36 79.3-3.33 118.35-7.83-1.8-34.4-7.09-68.71-7.67-103.12-2.44-5.66 13.44-18.47 1.29-15.06m-307.38 127.08c-19.36-3.4 9.5 14.25 0 0m-22.72 6.91c-44.99 3.74-89.81 9.11-134.66 14.12-4.38 2.02-8.07 5.47-10.91 9.33 51.21-16.89 107.24-13.16 160.08-21.94-3.01-3.02-10.3-1.5-14.51-1.51m15.28 1.94c-0.66 8.57 10.4 11.69 8.99 20.82 4.78 41.93 9.48 83.95 10.73 126.15 8.12 73.42 14.45 147.06 17.67 220.86 3.45 3.97 5.76 9.64 9.99 12.52-10.07-124.52-20.03-249.3-37.86-372.92-2.31-3.21-5.51-6.79-9.52-7.43m-15.22 16.1c-38.1 4.46-76.25 9.97-114.72 8.45-6.95 0.57-16.09-2.72-20.46 4.68 45.08 2.72 90.54 2.26 135.48-2.5 4.12 40.73 13.67 82.28 7.3 122.92-8.65-32.22-20.63-63.43-31.56-94.92-34.93 6.34-70-1.83-104.91-4.33-26.39 39.55-45.35 83.82-61.63 128.41 65.25-5.49 130.39-18.22 196.11-13.4 9.61 3.62 1.67-9.36 5.66-11.96-0.6 4.74 5.66 16.6-4.26 14.77-69.95 3.96-138.23 20.32-207.39 30.13-0.73 1.72-2.19 5.17-2.92 6.89 44.1-5.57 88.16-11.73 132.42-15.74-43.88 9.53-92.59 16.77-138.43 21.21-20.27 14.26-47.86 2.93-69.16 14.95-6.31 3.32-5.02 12.06-5.25 17.86 4.22 93.19 15.01 185.97 22.16 278.97 3.89 0.14 7.61-1.68 11.56-0.75-2.71-28.63-2.44-58.13 6.94-85.61 15.99-46.75 53.3-84.82 97.92-105.15 1.89-1.36 1.44 0.58 0.2 1.27-54.33 25.48-96 80.12-100.29 140.72-2.09 18.47 2.73 36.81 2.46 55.24-8.34-0.17-18.31 3.71-25.71 1.39-8.87-95.31-18.76-190.68-25.08-286.25-0.78-9.28 0.27-20.4 8.95-25.82 19.42-12.8 43.93-7.14 65.43-12.34 0.92-3.39-4.19-5.81-6.04-8.49-21.5 1.92-44.8-1.28-64.39 9.85-12.73 6.74-18.76 22.1-17.04 35.98 2.29 102.51 6.09 204.96 11.22 307.46 0.84 3.5 0.28 10.01 5.32 10.23 24.61-1.41 49.25-2.71 73.79-5.09 2.78 0.08 4.33-2.42 4.69-4.87-1.62-19.66-3.17-39.38-4.62-59.08-3.38-52.29 28.05-101.76 71.7-128.54 58.87-36.09 147.64-29.24 188.82 30.06-30.2-31.31-76.63-44.01-118.96-35.14 0.09 1.36 4.74 0.79 2.11 2.13-37.18 7.77-76.93 22.17-96.87 57.03 47.92-52.09 136.4-65.88 194.79-23.12 17.11 12.41 31.7 29.01 39.29 48.93 2.37-10.34-2.26-24.33-0.01-35.66-7.12 3.1-8.66-7.89-16.04-3.39-0.22-4.93 1.13-9.81 0.84-14.76 3.89 2.03-3.22 15.19 4.69 13.77 0.68-2.06-3.95-6.55-0.04-3.65 6.87 1.3-0.65 7.52 9.12 6.61-0.91-5.05 0.71-10.03 0.15-15.08-28.1-39.41-77.4-62.92-125.94-59.85-76.82-1.98-152.42 56.4-163.58 133.49-3.78 27.1 2.43 54.22 3.45 81.29-21.27 2.25-42.61 3.99-63.9 6.15-8.24-91.08-11.73-182.46-14.04-273.76 10.4 84.12 18.57 172.81 26.3 258.75 12.6 0.33 24.98-2.64 37.54-3.03-0.28-18.95-4.92-37.95-2.88-56.96 1.51-55.33 36.81-105.59 83.16-133.81 63.98-38.74 157.78-34.73 208.09 23.72-4.9-68.57-12.13-137.05-16.05-205.67-5.22 1.62-2.16 35.32-4.55 16.05-6.07 7.13-15.36 6.27-23.59 4.76 6.28-0.79 17.35-0.88 18.05-10.06-4.73-50.63-8.62-101.38-14.76-151.86-0.43-5.42-7.11-4.23-10.64-3.48m-145.9 8.87c-4.4 0.27-5.25 5.3-6.92 8.48-9.83 24.05-19.91 48.04-29.78 72.05 12.73-23.49 23.38-50.23 36.57-74.29 3.75-2.54 10.57-9.63 0.13-6.24m-37.32 81.83c-5.41 7.37 1.88 4.91 0 0m-4.04 9.19c-4.26 3.9 3.03 3.41 0 0m238.7 7.6c-1.44 10.34 3.22 9.63 0 0m-253.7 27.4c-4.26 3.9 3.03 3.41 0 0m-2.95 6.88c-4.9 10.3-9.1 21-13.75 31.45-2.98 5.68 6.98 15.4 8.42 5.44-9.54-11.5 5.41-26.78 5.33-36.89m787.04 135.95c-8.68 1.52-14.7 9.01-21.5 14.11 7.09 2.24 12.31-6.14 18.06-9.34 1.21-0.44 9.15-6.29 3.44-4.77m-636.84 90.3c-51.69 4.47-103.46 35.25-123.62 84.41-9.54 24.21-8.95 51.81 0 76.08 21.12 53.14 82.92 84.95 138.59 72.51 51.66-8.24 92.4-50.78 109.26-98.83-1.53-18.3-1.28-36.72-3.21-54.99-14.02-50.99-68.88-85.94-121.02-79.18z"/>
<path id="path10" d="m524.45 38.36c6.77 2.26 11.62 12.03 15.61 18.54-5.92-4.28-10.52-11.38-18.04-12.87-9.2 2.65-24.41 10.4-18.45 22.29 4.34 0.33 13.57-0.33 15.23 4.65-7.99 0.45-15.6 3.62-23.53 3.93-3.98-10.86-1.72-22.63 2.39-33.08 9.12 0.77 18.27 0.01 26.79-3.46z"/>
<path id="path12" d="m540.79 50.18c9.41 7.47 14.69 19.48 18.29 30.8-6.57-9.37-11.32-21.19-18.29-30.8z"/>
<path id="path14" d="m1033.6 52.59c6.2 0.25 16.9-2.78 21.3 0.35-150.28 15.62-301.15 25.33-451.81 36.13 141.71-15.58 286.96-28.09 430.51-36.48z"/>
<path id="path16" d="m483.15 58.08c3.52 5.85 2.8 16.34 4.9 23.79 12.5-2.1 24.65-6.07 37.17-7.88 9.5-2.43 18.68 7.02 27.57 2.02 1.11 2.29 2.11 4.63 3.01 7.03-27.7 3.31-55.14 8.34-82.62 13.1 1.52-13.09 5.53-25.71 9.97-38.06z"/>
<path id="path18" d="m595.46 89.29c5.56-2.52 3.52 3.34 0 0z"/>
<path id="path20" d="m884.64 114.53c10.01-2.88 22.79 2.25 24.6 13.27 3.86 35.63 5.16 71.71 10.07 107.16 41.93-3.31 83.79-7.31 125.79-10.52 10 0.52 20.3 8.57 20.5 19.16 3.9 58.2 6.8 116.49 4.9 174.82 1.1 8.8-8.4 14.08-16.1 12.64 4.9-0.64 12.8-4.23 12.3-11-4.5-58.25-8.9-116.55-13.9-174.76 0-7.62-9-8.4-14.7-7.29-43.74 3.5-87.56 6.49-131.18 11.02-3.04-39.25-6.46-78.48-10.05-117.68-0.18-6.29-8.66-4-12.65-4.21-65.22 6.19-130.6 11.37-195.87 16.39-0.61 40.01 3.87 82.32 3.92 121.06-21.68 0.42-43.43 2.27-65.16 2.4 18.23-3.25 40.53-3.51 59.89-7.39-2.67-38.21-7.85-76.3-10.98-114.51 0.93-6.23 4.8-12.91 11.64-13.61 65.57-6.5 131.31-11.33 196.98-16.95z"/>
<path id="path22" d="m338.6 226.6c8.05-0.17 18.56-2.25 25.56 0.31-48.18 6.24-96.56 10.69-145.01 14.22-18.84 1.54-37.82 9.16-50.43 23.6-15 17.07-18.13 41.36-28.85 60.2 9.55-24.6 12.68-53.84 34.42-71.64 20.06-17.59 47.81-17.83 72.86-20.15 30.46-2.44 60.92-5.11 91.45-6.54z"/>
<path id="path24" d="m1164.3 231.45c3.2 4.8-2.5 6.57 0 0z"/>
<path id="path26" d="m1165 241.02c3.3 9.63-1.4 10.34 0 0z"/>
<path id="path28" d="m1166 252.1c13.6 136.05 24 275.99 32 413.78-11.2-136.03-21.6-276.18-32-413.78z"/>
<path id="path30" d="m577.11 299.09c9.95-0.23 19.91-0.12 29.88-0.12-7.55 2.25-18.26 0.57-26.9 3.45 1.7 29.46 2.47 59.01 1.88 88.57-2.82-28.78-4.36-61.66-4.86-91.9z"/>
<path id="path32" d="m1167 330.02c3.4 6.31-1.6 10.6 0 0z"/>
<path id="path34" d="m198.29 334.12c-1.81 12.13-9.51 27.28-17.3 37.79 4.32-13.17 9.98-25.99 17.3-37.79z"/>
<path id="path36" d="m107.33 392.28c-3.51 11.83-9.75 27.91-16.22 40.22-36.34-2.15-81.45 13.39-90.16 52.24 5.63-40.39 52.51-58.84 88.81-54.84 5.84-12.55 11.43-25.23 17.57-37.62z"/>
<path id="path38" d="m165.31 398.14c1.25 8.8-2.13 19.65-4.14 29.14 11.61-0.97 25.36-4.42 35.94-1.45-14.13 4.59-29.12 5.9-43.82 7.48 2.83-12.05 8.07-23.46 12.02-35.17z"/>
<path id="path40" d="m703.65 427.53c10.96-3.61 24.65 2.36 26.47 14.39 3.57 34.94 5.79 70.02 7.94 105.07-0.55 5.7 9.73-1.19 11 2.9-4.74 0.39-9.33 1.71-14.07 1.96-3.8-35.51-7.61-71.02-10.08-106.66-0.65-7.74-6.46-14.88-15.01-13.27-33.65 2-67.27 4.74-100.88 7.16 30.35-4.61 63.25-7.79 94.63-11.55z"/>
<path id="path42" d="m1021 428c14.3-1.72 8.9 3.46 0 0z"/>
<path id="path44" d="m334.56 439.59c-0.08 1.8 7.97-2.63 7.19 0.23-32.54 2.98-65.05 6.68-97.61 9.23 28.42-5.73 60.4-8.55 90.42-9.46z"/>
<path id="path46" d="m239.49 449.24c4.54-2.48 2.14 3.55 0 0z"/>
<path id="path48" d="m0 486.09c2.03 0.68 2.03 3.13 0 3.82v-3.82z"/>
<path id="path50" d="m933.35 532.46c3.11 5.98-2.56 7.55 0 0z"/>
<path id="path52" d="m1022.5 602.39c24.9-2.05 50.2 5.39 70.7 19.44 1.9 2.48-1.7 0.25-2.8-0.19-58-33.96-145.59-7.27-167.29 58.49-8.4 26.7-7.01 59.19 13.66 80.09 41.63 43.54 116.63 42.07 161.43 3.93-43.6 49.04-130.85 47.33-172.51-3.84-21.99-26.94-23.33-67.71-5.58-97.2 21.3-35.59 61.14-58.41 102.39-60.72z"/>
<path id="path54" d="m1077 606.97c30.9 11.65 58.2 38.1 63.1 71.83-8.5-31.19-34-57.54-63.1-71.83z"/>
<path id="path56" d="m273.58 655.55c24.81-2.44 51.86 4.19 71.33 19.57-53.85-31.15-133.04-13.41-162.87 42.92-16.08 29.57-17.39 71.13 7.66 96.26 41.44 41.62 115.39 41.53 159.16 3.57 3.34-2.38-1.82 5.24-2.74 4.2-40.58 38.68-109.7 41.42-153.13 5.94-32.87-23.12-41.69-70.91-23.97-106 19.84-38.65 61.49-63.87 104.56-66.46z"/>
<path id="path58" d="m327.02 658.89c31.95 11.3 59.95 38.36 65.02 72.82-8.16-31.78-35.32-59-65.02-72.82z"/>
<path id="path60" d="m1198 667.01c3.6 12.35-1.8 15.66 0 0z"/>
<path id="path62" d="m1136.2 682.23c2.8 10.8 3.9 26.73 1.6 39.59-9.6 53.76-61.5 93.39-114.9 96.07-50.3 7.98-103.21-25.1-118.09-73.68 30.05 55.29 106.39 77.89 162.19 48.84 41.5-20.63 65.5-66.62 69.2-110.82z"/>
<path id="path64" d="m1199 683.02c3.3 9.63-1.4 10.33 0 0z"/>
<path id="path66" d="m388.18 735.05c18.33 65.32-42.86 131.17-107.83 135.28-51.9 10.29-108.04-22.52-123.5-73.26 32.09 59.48 117.01 80.19 173.16 42.93 35.53-22.68 54.42-64.04 58.17-104.95z"/>
</g>
</svg>
