<?xml version="1.0" encoding="UTF-8" standalone="no"?>
<svg id="svg2" xmlns:rdf="http://www.w3.org/1999/02/22-rdf-syntax-ns#" xmlns="http://www.w3.org/2000/svg" height="690pt" width="1140pt" version="1.1" xmlns:cc="http://creativecommons.org/ns#" xmlns:dc="http://purl.org/dc/elements/1.1/" viewBox="0 0 1140 690">
<g>
<path id="path4" d="m804.43 0h16.67c8.2 2.05 5.36 12.08 6.73 18.29-0.37 8.33 5.46 21.1-4.78 25.27-30.52 4.05-63.34 3.92-92.75 8.28 25.85 57.16 50.66 115.56 79.32 171.44 78.09-35.95 177.32-20.49 246.18 30.9 41.4 30.09 74.3 75.94 79.1 127.92-16.3-100.15-118.2-167-215.07-170.04 25.59 3.53 52.27 7.79 75.21 20.07-56.51-20.88-122.12-24.9-178.07-0.09-3.93 0.14-0.84 2.84-0.23 4.31 99.04-44.02 234.26-5.64 288.96 91.06-13.1-19.07-26.9-38.52-45.9-52.22 40.2 33.83 63.4 87.32 55 140.02-1.8-33.72-10.5-67.71-30.6-95.37-57.8-78.12-172-109.6-261.1-70.71 1.95 14.9 18.37 7.74 19.71-4.26 1.29 11.81 12.41 3.71 19.14 3.11 54.65-10.63 114.2-2.04 161.05 29.03 37.6 23.81 67 62.85 72 107.88-7.4-20.41-17.6-42.22-33.7-58.18-50.8-52.79-131.32-71.34-201.24-52.49 23.44 48.61 50.21 96.16 74.37 144.61 8.28 24.87-18.41 50.81-43.3 42.2-23.03-8.3-30.34-33.57-39.26-53.91-18.56-37.21-35.95-75.02-54.97-111.97-26.88 15.13-51.9 35.06-68.72 61.09 13.94-28.44 39.34-49.74 67.46-63.46-0.18-2.39-2.18-6.08-4.93-4.13-21.82 10.43-41.49 25.46-57.18 43.88-27.67 34.08-36.15 81.36-26.76 123.74 7.9 37.93 33.42 70.47 65.28 91.68 58.4 41.92 138.25 45.58 204.12 20.21 69.13-27.13 127.33-94.66 122.93-172.06 6.6 41.53-8.1 86.87-35.8 119.21-35.6 45.02-89.9 72.92-146.43 80.19 91.53-0.3 179.23-73.06 191.53-164.5-1.2 45.57-29.8 85.33-61.3 116.14 47.4-36.21 79.5-94.26 74.9-155 8.8 51.78-13.3 109.07-51.7 146.15-53 57.24-135.05 77.95-210.75 73.25-68.5-6.44-135.19-44.9-170.14-104.95-20.29-36.67-26.41-80.4-20.23-121.6-2.3-0.12-2.79 2.42-3.3 4.13-7.89 40.88-1.33 84.49 19.24 120.76 21.6 38.86 58.05 67.12 97.27 86.72 66.6 31 145.68 31.54 214.07 5.85 73.44-29.12 136.64-95.87 143.54-177.11v9.91c-7.8 81.7-70.8 149.56-144.56 180.18-91.74 36.48-204.21 26.01-280.72-39.15-46.96-36.67-74.98-95.04-75.11-154.55-24.04 28.62-46.53 58.56-70.78 86.99-15.15 15.96-37.91 6.88-56.59 5.32-32.09 106.7-143.38 174.77-251.83 175.96h-18.01c-75.69-2.45-150.62-36.65-198.65-95.75-25.68-31-39.96-70.1-43.75-109.93v-31.64c3.85-40.95 19.66-80.77 46.76-111.92 59.8-74.25 162.36-106.25 254.81-88.19 5.82 1.9 14.35 2.77 14.15-5.57-44.68-9.46-91.47-7.94-135.75 2.97-68.01 16.67-128.32 62.33-162.66 123.34 14.92-31.79 39.39-58.57 66.72-80.28 64.29-51.73 153.57-66.32 232.82-47.42 2.76-5.17 4.79-10.73 8.18-15.55-1.57 6.91-12.53 18.65 0.68 17.76 15.14-30.19 29.29-61.13 43.22-91.93-5.47-16.7-15.45-31.77-21.5-48.31 2.94-11.12-6.79-20.36-10.07-30.39-18.43-0.83-38.14 0.07-55.18-8.23-22.34-10.48-17.36-49.86 6.68-55.2 27.28-5.25 53.21 10.43 80.46 6.71 16.1-1.28 31.77-6.64 48.01-6.08 11.28 1.03 18.43 15.65 12.63 25.18-12.03 11.91-27.82 18.98-42.78 26.48 0.52 2.13 1.46 4.17 2.79 5.94 14.61-7.13 29.29-14.69 41.88-25.08 14.08-11.48 4.27-36.25-12.37-38.71-23.18-1.47-45.4 9.62-68.68 6.2-20.7-3.01-41.27-10.65-62.45-6.51-28.76 4.91-36.27 51.68-10.26 65.03 16.44 9.75 38.05 8.28 54.76 10.07-21.47-0.39-46.17 0.68-63.68-14.12-17.1-19.35-9.31-56.95 17.28-63.5 21.43-4.46 43.01 2.23 64.16 5.22 23.98 2.73 46.71-9.68 70.63-7.04 20.37 3.67 30.9 33.9 13.92 47.68-13.22 10.29-27.8 18.89-43.02 25.88 10.49 8.06 14.77 21.34 21.13 32.69 65.2-4.97 130.55-10.82 195.89-12.27-66.16 8.84-133.03 12.95-199.58 18.4-8.57-11.54-9.79-30.51-25.44-35.29-6.78 2.01 1.35 9.54 5.01 11.25 6.55 9.39 9.59 21.07 15.47 31 100.67-6.23 201.16-16.12 301.85-21.71-9.12-27.21-35.94-49.69-32.37-80.75-1.42-5 1.94-10.46 7.21-10.52 40.98-3.8 82.12-6.07 123.12-9.91m3.07 12.41c-39.64 3.97-79.32 7.57-119.01 10.96-1.3 8.99 1.77 18.06 6.74 25.5 10.82 17.87 20.14 37.25 31.57 54.36-8.98-19.89-19.69-39.2-27.36-59.59-4.3-14.08 13.94-17.84 24.39-17.76 26.64-0.95 53.65-8.49 80.09-3.69-27.64 1.55-58.96 4.69-87.95 6.65-2.18 1.55-8.72-0.67-8.95 3.35 32.31-3.48 64.82-5.01 97.13-8.53-0.57 1.38-1.16 2.76-1.93 4.04-31.15 2.9-62.32 5.79-93.45 8.8-1.26 1.56-2.5 3.89-0.99 5.72 10.03 16.75 18.5 34.49 29.21 50.78-6.29-17.57-18.26-33.84-22.49-51.68 34.11-2.52 68.15-6.13 102.28-8.44-1.73-7.19 3.58-25.22-9.28-20.47m-510.86 21.03c-8.47-0.8-8.35 10.01-7.23 15.68 15.67 8.74 36.53 7.52 52.52 5.97-13.51-6.37-35.91-3.81-46.47-11.07 5.69-13.71 30.79 2.97 42.46-4.76-13.67-2.27-27.29-6.89-41.28-5.82m98.89 3.89c-11.75 1.26-22.83 5.19-33.62 9.78 10.71 4.32 26.49-2.76 36.1-10.14-0.62 0.09-1.86 0.27-2.48 0.36m305.97 4.31c3.77 22.25 20.81 41.29 25.97 62.89-4.86 8.85 2.66 7.24 8.35 7.33-9.93-23.42-21.72-50.83-34.32-70.22m-352.1 13.56c-3.17 1.48 4.94 8.49 6.12 3.22 3.48-4.01-3.48-3.07-6.12-3.22m29.95 14.02c-5.1 0.5-2.87 10.15 1.63 6.79 5.01 0.15 2.06-8.02-1.63-6.79m349.5 21.85c2.12 4.69 3.46 10.25 7.23 13.93-1.35-5.07-3.66-10.05-7.23-13.93m11.21 8.88c0.58 4.7 0.85 9.43 1.31 14.15 15.42 18.74 20.01 44.15 30.25 65.64 1.48-0.31 8.22 3.27 5.66-1.04-12.1-26.35-23.95-53.09-37.22-78.75m-369.06 7.34c-3.63 8.23 11.36 9.22 7.3 17.45 2.34 4.61 7.61 24.09 10.65 12.25-5.69-10-7.13-24.5-17.95-29.7m361.78 18.32c-4.21 1.9-8.4 4.1-13.19 4.05-103.4 8.8-206.86 17.06-310.29 25.47 1.02 14.57 14.05 24.94 19.63 37.94-3.68-11.97-9.36-23.27-12.81-35.29 104.96 2.15 208.55-18.76 313.18-21.65 4.98 11.16 9.42 22.6 13.52 34.11-6.69-7.53-11.67-16.5-18.47-23.98-53.59 9.48-106.39 24.06-160.55 30.54-36.7 4.36-73.72 3.15-110.59 3.06 23.63 88.17 56.88 173.66 93.88 257.08 68.91-83.59 127.14-176.06 203.73-253.23-0.5-4.12-3.24-7.55-4-11.61 3.13 2.82 3.9 7.27 6.13 10.73 3.23-2.71 14.21-0.96 11.09-6.86-9.37-16.59-17.22-34-26.73-50.51-1.13 0.04-3.4 0.11-4.53 0.15m-337.68 17.31c-6.79 9.09 9.26 6.78 0 0m-4.04 11c0.16 4.39 1.96 8.41 7.63 6.3 1.08-5.04-3.66-6.24-7.63-6.3m-4.82 16.24c-17.03 33.19-32.46 67.9-48.09 101.99 18.32-28.43 36.75-59.06 51.1-90.36 0.01-3.17 3.11-9.94-3.01-11.63m18.09 2.17c-1.95 1.81-3.08 4.67-2.93 7.3 23.89 35.69 43.26 74.45 64.62 111.46-8.59-24.21-17.96-48.56-32.15-69.95 2.01 7.55 6.35 14.29 8.16 21.92-13.27-22.6-24.69-49.5-37.7-70.73m360.74 13.01c-5.62 0.6-10.89 2.91-14.92 6.92-42.58 54.94-88.16 107.79-124.93 166.96 43.8-53.01 84.03-109.69 128.49-162.5 2.34-4.08 14.44-4.93 11.36-11.38m4.94 0.46c-6.36 6.63 7.55 6.12 0 0m3.96 0.34c8.22 14.12 18.82 28.42 26.79 43.14-8.22-14.58-10.59-35.66-26.79-43.14m-378.02 2.84c17.53 42.46 33.58 86.35 55.83 126.32-17.72-42.41-34.26-85.93-55.83-126.32m370.44 14.3c-14.53 12.88-25.34 30.42-37.34 45.82 11.89-10.67 28.48-15.67 37.04-29.83 2.53 3.53 5.59 4.02 10.04 1.23-7.88 9.13 5.56 32.41 14.82 18.47-8.03-11.01-11.94-30.21-24.56-35.69m-373.08 29.19c-12.13 10.77-20.28 25.29-29.17 38.72-3.38 4.08 3.61 6.06 6.65 6.59 3.68-9.43 8.37-19.17 16.22-25.72-1.58 8.17-8.54 14.11-10.77 21.72 12.62 4.08 24.69 9.51 36.58 15.37-6.4-18.73-12.39-39.7-19.51-56.68m415.96 2.82c-11.31 4.15 9.66 7.64 0 0m-491.85 12.78c-4.52 4.55-3.35 10.77 4.62 7.37 6.05-3.91 0.9-8.71-4.62-7.37m475.92 2.08c-5.99 3.94 4.33 1.94 0 0m-9.86 5.31c-9.33 5.43-21.6 9.11-27.43 18.58 8.06-6.53 22.42-12.66 27.43-18.58m26.98-0.14c-5.03 6.31 3.8 2.3 0 0m5.81 4.19c-1.46 2.13-2.88 4.3-4.1 6.59 26.45 47.61 54.23 95.61 82.01 141.7 2.28-0.11 7.52-0.48 4.86-3.82-26.93-48.68-57.85-99.7-82.77-144.47m-567.79 9.12c-86.75-2.09-172.16 51.1-207.4 130.45-29.44 65.92-11.11 149.76 45.65 195.18 67.31 60.67 168.8 72.41 251.84 40.31 62.02-24.11 117.42-76.12 130.88-143.14 2.31-8.89 0.91-20.77 10.31-25.83 0.11-11.51-11.48 0.76-12.45 6.12 5.31 7.02 1.85 17.63-2.5 24.26 0.76-6.61 3.46-13.88 1.48-20.02-9.63 75.77-71.21 137.38-142.17 160.21 10.32-6.64 24.67-8.74 34.14-16.96-45.55 22.81-97.82 29.31-148.17 24.69-62.81-4.96-124-40.43-155.13-95.87-25.25-48.29-26.6-109.62-0.9-157.97 46.61-81.03 143.45-129.81 236.55-118.05-11.21-3.47-28.51-3.55-42.13-3.38m44.14 3.65c3.09 3.58 5.24-2.69 0 0m6.03 0.93c1.74 3.87 4.2-2.64 0 0m75.42 0.92c-1.06 1.49-3.24 4.32-0.74 5.54 16.08 8.91 32.21 17.94 46.64 29.42-4.83-20.7-30.27-24.77-45.9-34.96m-38.7 8.15c-10.88 7.39 11.26 4.01 0 0m-39.5 10.66c4.34 3.06 10.64 3.13 15.92 4.11-2.6-3.55-11.31-2.89-15.92-4.11m15.5 5.38c-2.37 5.04-5.13 10.04-6.5 15.49 2.68-3.38 7.2-12.02 6.5-15.49m24.18 6.01c-10.24 15.71-17.13 33.24-23.58 50.76 9.51-15.7 20.13-31.61 25.72-49.4 0.92-1.96-0.8-1.65-2.14-1.36m18.35 6.54c4.65 5.84 7.92 1.33 0 0m-115.36 1.72c-57.76-0.87-115.63 24.81-151.38 70.57-40.02 48.25-40.5 123.59-2.33 173.01 42.43 55.26 116.17 82.06 184.53 72.17 81-7.38 162.23-62.82 182.46-144.23-13.05 0.63 4.13-4.78 5.59-2.96 7.87-14.91-14.67-10.63-22.6-10.39-61.83-2.17-124.07 11.81-185.37 4.51 4.54-7.53-2.27-14.12-4.33-21.22-2.07 10.38-12.16 21.63-8.32 31.03 67.18-1.71 135.52-3.6 202.44 1.73-65.98 7.6-132.14 13.8-198.33 19.14-17.74 3.28-35.16-14.25-30.12-31.98 18.91-53.98 41.2-106.74 64.07-159.13-12.06-1.01-24.19-3.43-36.31-2.25m123.63 2.42c41.13 29.84 94.77 71.06 86.16 129.31-17.97-48.04-61.62-78.16-101.25-107.28-23.55 35.11-46.92 71.52-62.01 110.97 54.43 0.91 109.41-5.05 163.25 5.69 4.38 1.45 0.28-7.33 3.68-7.64 0.44 3.6 0.92 7.25 0.94 10.89-30.59-1.98-61.33 0.46-91.92 2.18 29.96 1.3 63.35 2.13 94.36 7.55 7.87 2.65 12.38-8.38 9.61-14.62-2.73-33.58-13.29-67.6-35.71-93.34-18.82-19.15-42.14-34.05-67.11-43.71m102.66 3.11c19.62 44.62 38.66 89.59 59.32 133.75 1.48 3.24 5.59 2.64 8.52 3.27-18.74-47.38-41.18-93.68-67.84-137.02m-163.38 3.33c-6.15 10.56-10.57 23.04-15.45 34.57 5.85-10.19 14.22-24.75 15.45-34.57m353.21 22.21c-32.96 40.2-59.73 85.2-92.36 125.68-5.79 4.45-13.7 5.97-16.89 13.46-19.96-0.42-39.78-5.59-59.79-5.4-5.2 37.02-20.44 72.69-45.6 100.62-84.02 96.96-244.26 109.77-346.23 34.19 75 62.87 188.13 69.28 275.24 27.81 60.94-29.36 112.13-85.56 122.86-153.7-8.69-0.96 3.53-9.47 0.52-1.53 3.44 3.04 11.03 1.34 15.77 2.7 5.25 4.93 10.7-9.95 10.37 1.19 10.19 1.42 21.12 4.49 31.12 2.29 32.11-39.11 63.4-78.93 95.02-118.44 2.75-8.67 8.74-22.3 9.97-28.87m-214.92 7.56c20.56 24.04 32.03 54.57 39.07 85.03 2.4 4.92-2.19 19.37 8.15 13.56-3.21-37.25-18.87-74-47.22-98.59m-147.24 15.27c-10.33 21.05-20.24 42.47-30.31 63.71-4.05 9.55-11.05 19-7.68 29.97 13.36-30.39 27.34-64.54 37.99-93.68m584.53 39.49c1.32 4.13 2.97 8.18 5.05 11.99 4.32-3.25-2.29-9.19-5.05-11.99m-387.13 4.11c3.16 13.27 5.6 26.79 5.28 40.5 6.83 1.04 13.76 1.7 20.64 2.44-5.86-15.78-14.37-30.62-25.92-42.94m408.62 4.69c1.48 5.01 7 9.94 5.83 15.48-3.91 7.25-12.76-8.68-9.52 0.93-2.11 1.59-3.45-7.41-6.85-6.84-0.15 9.05 10.75 17.75 19.16 12.05 8.47-5.88 1.52-23.08-8.62-21.62m-425.65 8.37c1.26 9.86 0.35 19.77-0.14 29.66 10.33-1.69 1.48-22.68 0.14-29.66m9.41 35.07c-2.44 0.33-1.26 4.49 0.34 5.7 13.67 0.3 27.26 1.94 40.78 3.9-6.54-14-28.04-6.39-41.12-9.6m55.99 3.38c-6.44-0.72-10.99 1.45-4.08 5.25 4.17 6.58 10.55-5.04 4.08-5.25m-84.02 22.64c-6.29 32.85-22.54 64.47-46.09 88.92 24.99-22.95 42.88-55.3 48.57-89l-2.48 0.08m453.78 111.76c6.29 3.54 10.57-1.72 0 0m-818.75 12.58c0.55 6.09 6.19 1.01 0 0z"/>
<path id="path6" d="m996.47 232.34c5.23-1.44 1.13 4.68 0 0z"/>
<path id="path8" d="m485.07 263.93c12.66 20.21 19.77 43.52 26.95 66.17-11.23-20.72-19.06-43.8-26.95-66.17z"/>
<path id="path10" d="m1106 327.99c3.1 2.91 4.8 7.01 6 11.02-3.1-2.92-4.8-7.01-6-11.02z"/>
<path id="path12" d="m341.48 355.47c-2.07 10.37-11.58 25.59-19.51 35.48 5.57-12.21 10.87-25.07 19.51-35.48z"/>
<path id="path14" d="m593.46 360.49c-9.35 20.92-29.54 44.09-44.43 64.49-8.05-17.29-16.35-34.52-24.03-51.95 10.04 12.67 16.41 28.09 25.86 40.99 13.53-18.29 26.37-37.56 42.6-53.53z"/>
<path id="path16" d="m115.57 362.54c-20.39 22.67-42.58 54.04-47.89 87.37 0.17-33.59 22.02-66.05 47.89-87.37z"/>
<path id="path18" d="m1135.4 383.57c3.2 5.72-2.7 7.33 0 0z"/>
<path id="path20" d="m1136.3 392.58c3.4 4.46-2.6 6.3 0 0z"/>
<path id="path22" d="m306.39 413.38c0.84 4.97-3.17 15.72-4.05 23.01 9.11-0.25 23.61-3.58 30.59 1.35-11.5 4.5-26.22 2.42-38.7 3.72 3.69-9.44 7.21-19.38 12.16-28.08z"/>
<path id="path24" d="m708.98 419.16c2.52 29.83 13.65 62.61 34.67 86.19 21.17 25.87 51.5 42.83 80.08 57.84-63.94-15.6-118.43-76.09-114.75-144.03z"/>
<path id="path26" d="m67.88 511.13c23.86 52.05 75.12 85.48 128.06 103.25-56.06-6.58-109.94-48.67-128.06-103.25z"/>
</g>
</svg>
