<?xml version="1.0"?>
<svg xmlns:rdf="http://www.w3.org/1999/02/22-rdf-syntax-ns#" xmlns="http://www.w3.org/2000/svg" xmlns:cc="http://creativecommons.org/ns#" xmlns:xlink="http://www.w3.org/1999/xlink" xmlns:dc="http://purl.org/dc/elements/1.1/" xmlns:svg="http://www.w3.org/2000/svg" id="svg2" viewBox="0 0 352 356" version="1.1">
  <defs id="defs6">
    <linearGradient id="linearGradient3665" y2="197.68" gradientUnits="userSpaceOnUse" y1="369.43" x2="109.08" x1="362.24">
      <stop id="stop3661" offset="0"/>
      <stop id="stop3663" stop-opacity="0" offset="1"/>
    </linearGradient>
    <linearGradient id="linearGradient3675" y2="165.13" gradientUnits="userSpaceOnUse" y1="-7.3707" x2="182.61" x1="-174.78">
      <stop id="stop3671" stop-color="#fff" offset="0"/>
      <stop id="stop3673" stop-color="#fff" stop-opacity="0" offset="1"/>
    </linearGradient>
    <linearGradient id="linearGradient3886" y2="-1.6565" gradientUnits="userSpaceOnUse" y1="-11.064" x2="12.408" x1="8.3689">
      <stop id="stop3598" stop-color="#fff" offset="0"/>
      <stop id="stop3600" stop-color="#fff" stop-opacity="0" offset="1"/>
    </linearGradient>
    <linearGradient id="linearGradient3914" y2="-3.7855" gradientUnits="userSpaceOnUse" x2="9.7691" y1="11.546" x1="15.856">
      <stop id="stop3608" offset="0"/>
      <stop id="stop3610" stop-opacity="0" offset="1"/>
    </linearGradient>
  </defs>
  <path id="path2883" d="m166.48 300.34-0.4882 27.177 47.356 1.1391-3.7429-20.342-6.1839-24.736-36.941 16.762z" fill="#784421"/>
  <path id="path2877" fill="#008000" d="m108 28.539c-3.7874 0.19552-4.2283 3.44-4.362 12.63-0.14331 9.8513-2.8514 25.386-7.7812 44.5-1.6693 6.4723-1.8313 19.934-0.3125 25.563 0.59371 2.2 2.0593 4.7533 3.25 5.6875 1.9852 1.5575 2.1362 2.554 2.0312 12-0.11517 10.366-1.6507 16.806-8.9375 37.156-2.313 6.4597-0.88605 9.1073 3.5755 9.5425l3.0749-0.46285-0.7441 9.3579c-0.66476 10.195-3.5884 21.631-8.4062 32.938-3.7545 8.8108-4.2346 15.005-2.5053 17.725 0.41528 0.65309 2.2428 1.4852 3.7441 2.056 1.5013 0.57079 2.3119 1.9009 2.3119 2.6816 0 4.1406-5.1082 15.295-9.9257 22.631-6.8582 10.444-8.2074 14.235-6.5312 18.281 0.67876 1.6387 2.5729 2.7479 3.7193 3.3614 3.2293 1.7282 9.7055 0.63065 16.106-2.0631 3.2002-1.3469 9.1116-2.599 12.657-2.9623 7.8697-0.80627 9.8519 1.1934 18.112 9.1327 0 0 3.7024 3.5006 5.8314 4.2294 8.201 1.3743 17.206-2.9061 24.575 4.2081 7.4173 4.8203 3.1539 0.77316 13.506 4.9239 1.8577 0.30146 6.4138-0.33857 10.412-1.013 6.2265-1.0502 7.1496-1.7612 10.799-5.125l4.8196-4.1816 3.6374-5.1002 3.3703-3.0012 3.727-2.1126 11.509 0.033c10.612 0.67149 8.7259 1.5473 11.841-1.0737 1.7339-1.459 6.1111-5.9378 7.6462-8.3644 4.1682-6.5885 9.3919-8.407 22.026-9.7058 17.178-1.7659 20.533-2.0762 24.547-6.648 2.3761-2.7062 4.0702-4.5103 4.0702-7.5938 0-5.3678-0.67622-6.7154-6.9493-12.643-5.4775-5.9497-12.671-13.494-10.295-21.689 0-2.8371-0.78565-3.8708-9.3113-10.424-6.4066-4.9244-18.326-21.121-27.57-38.85-8.7994-16.876-9.136-18.558-7.6002-21.158 2.6169-4.4301 2.5093-5.6113-3.4929-10.768-9.579-8.2291-14.92-12.533-17.814-17.543-5.3363-9.2387-14.41-24.32-19.017-29.975-2.5519-3.1331-4.5748-5.9585-4.5268-6.6192 0.38802-5.3424-14.597-19.966-32.399-31.931-6.8976-4.6359-12.78-7.6886-18.5-9.5938-4.6124-1.5361-10.217-4.1935-12.968-5.4068-4.9946-2.2029-8.678-2.7476-10.95-2.6303z"/>
  <path id="path3657" fill="url(#linearGradient3665)" d="m108 28.539c-3.7874 0.19552-4.2283 3.44-4.362 12.63-0.14331 9.8513-2.8514 25.386-7.7812 44.5-1.6693 6.4723-1.8313 19.934-0.3125 25.563 0.59371 2.2 2.0593 4.7533 3.25 5.6875 1.9852 1.5575 2.1362 2.554 2.0312 12-0.11517 10.366-1.6507 16.806-8.9375 37.156-2.313 6.4597-0.88605 9.1073 3.5755 9.5425l3.0749-0.46285-0.7441 9.3579c-0.66476 10.195-3.5884 21.631-8.4062 32.938-3.7545 8.8108-4.2346 15.005-2.5053 17.725 0.41528 0.65309 2.2428 1.4852 3.7441 2.056 1.5013 0.57079 2.3119 1.9009 2.3119 2.6816 0 4.1406-5.1082 15.295-9.9257 22.631-6.8582 10.444-8.2074 14.235-6.5312 18.281 0.67876 1.6387 2.5729 2.7479 3.7193 3.3614 3.2293 1.7282 9.7055 0.63065 16.106-2.0631 3.2002-1.3469 9.1116-2.599 12.657-2.9623 7.8697-0.80627 9.8519 1.1934 18.112 9.1327 0 0 3.7024 3.5006 5.8314 4.2294 8.201 1.3743 17.206-2.9061 24.575 4.2081 7.4173 4.8203 3.1539 0.77316 13.506 4.9239 1.8577 0.30146 6.4138-0.33857 10.412-1.013 6.2265-1.0502 7.1496-1.7612 10.799-5.125l4.8196-4.1816 3.6374-5.1002 3.3703-3.0012 3.727-2.1126 11.509 0.033c10.612 0.67149 8.7259 1.5473 11.841-1.0737 1.7339-1.459 6.1111-5.9378 7.6462-8.3644 4.1682-6.5885 9.3919-8.407 22.026-9.7058 17.178-1.7659 20.533-2.0762 24.547-6.648 2.3761-2.7062 4.0702-4.5103 4.0702-7.5938 0-5.3678-0.67622-6.7154-6.9493-12.643-5.4775-5.9497-12.671-13.494-10.295-21.689 0-2.8371-0.78565-3.8708-9.3113-10.424-6.4066-4.9244-18.326-21.121-27.57-38.85-8.7994-16.876-9.136-18.558-7.6002-21.158 2.6169-4.4301 2.5093-5.6113-3.4929-10.768-9.579-8.2291-14.92-12.533-17.814-17.543-5.3363-9.2387-14.41-24.32-19.017-29.975-2.5519-3.1331-4.5748-5.9585-4.5268-6.6192 0.38802-5.3424-14.597-19.966-32.399-31.931-6.8976-4.6359-12.78-7.6886-18.5-9.5938-4.6124-1.5361-10.217-4.1935-12.968-5.4068-4.9946-2.2029-8.678-2.7476-10.95-2.6303z"/>
  <path id="path3667" fill="url(#linearGradient3675)" d="m108 28.539c-3.7874 0.19552-4.2283 3.44-4.362 12.63-0.14331 9.8513-2.8514 25.386-7.7812 44.5-1.6693 6.4723-1.8313 19.934-0.3125 25.563 0.59371 2.2 2.0593 4.7533 3.25 5.6875 1.9852 1.5575 2.1362 2.554 2.0312 12-0.11517 10.366-1.6507 16.806-8.9375 37.156-2.313 6.4597-0.88605 9.1073 3.5755 9.5425l3.0749-0.46285-0.7441 9.3579c-0.66476 10.195-3.5884 21.631-8.4062 32.938-3.7545 8.8108-4.2346 15.005-2.5053 17.725 0.41528 0.65309 2.2428 1.4852 3.7441 2.056 1.5013 0.57079 2.3119 1.9009 2.3119 2.6816 0 4.1406-5.1082 15.295-9.9257 22.631-6.8582 10.444-8.2074 14.235-6.5312 18.281 0.67876 1.6387 2.5729 2.7479 3.7193 3.3614 3.2293 1.7282 9.7055 0.63065 16.106-2.0631 3.2002-1.3469 9.1116-2.599 12.657-2.9623 7.8697-0.80627 9.8519 1.1934 18.112 9.1327 0 0 3.7024 3.5006 5.8314 4.2294 8.201 1.3743 17.206-2.9061 24.575 4.2081 7.4173 4.8203 3.1539 0.77316 13.506 4.9239 1.8577 0.30146 6.4138-0.33857 10.412-1.013 6.2265-1.0502 7.1496-1.7612 10.799-5.125l4.8196-4.1816 3.6374-5.1002 3.3703-3.0012 3.727-2.1126 11.509 0.033c10.612 0.67149 8.7259 1.5473 11.841-1.0737 1.7339-1.459 6.1111-5.9378 7.6462-8.3644 4.1682-6.5885 9.3919-8.407 22.026-9.7058 17.178-1.7659 20.533-2.0762 24.547-6.648 2.3761-2.7062 4.0702-4.5103 4.0702-7.5938 0-5.3678-0.67622-6.7154-6.9493-12.643-5.4775-5.9497-12.671-13.494-10.295-21.689 0-2.8371-0.78565-3.8708-9.3113-10.424-6.4066-4.9244-18.326-21.121-27.57-38.85-8.7994-16.876-9.136-18.558-7.6002-21.158 2.6169-4.4301 2.5093-5.6113-3.4929-10.768-9.579-8.2291-14.92-12.533-17.814-17.543-5.3363-9.2387-14.41-24.32-19.017-29.975-2.5519-3.1331-4.5748-5.9585-4.5268-6.6192 0.38802-5.3424-14.597-19.966-32.399-31.931-6.8976-4.6359-12.78-7.6886-18.5-9.5938-4.6124-1.5361-10.217-4.1935-12.968-5.4068-4.9946-2.2029-8.678-2.7476-10.95-2.6303z"/>
  <path id="path4008" fill="#fc0" d="m82.036 264.75c-2.807 4.8764-4.4423 7.2479-5.9447 12.431 5.3541 1.0808 19.078-4.394 24.381-5.2892 10.034-3.3375 22.917-2.8301 29.625 6.4062 2.3214 3.0723 5.9973 7.3194 10.188 4.7812 9.0798-2.0966 18.387 1.4122 25.125 7.25 10.452 5.3907 24.368 1.0752 29.875-9.3125 5.916-8.1184 16.851-10.447 26.219-8.2812 4.6322 0.97086 9.9427-0.48668 11.5-5.375 5.1919-8.0888 14.268-12.922 23.812-13.5 8.9647-1.4674 24.707-3.6269 31.429-10.593-1.2693-4.1176-2.6974-5.6511-5.7295-8.5028-1.8764 0.677-8.7776 3.2335-10.825 3.5329-4.7032 0.68804-9.6739 0.67253-14.156 1.4062-2.3862 0.14443-4.757 0.55798-7.0312 1.2188-2.2742 0.66077-4.4445 1.5729-6.5 2.7188-2.0555 1.1458-3.9886 2.5254-5.7188 4.125-1.7301 1.5996-3.2645 3.4153-4.5625 5.4375-0.38933 1.2221-1.0233 2.2224-1.8125 3.0312-0.78923 0.80889-1.7306 1.448-2.7812 1.875-1.0506 0.42703-2.2014 0.64225-3.375 0.71875s-2.3732-0.007-3.5312-0.25c-2.342-0.54146-4.7838-0.79059-7.2188-0.75-2.435 0.0406-4.8654 0.36813-7.1875 1.0312-1.161 0.33156-2.312 0.75522-3.4062 1.25s-2.1233 1.0557-3.125 1.7188c-1.0017 0.66306-1.9603 1.4136-2.8438 2.25-0.88347 0.8364-1.698 1.7664-2.4375 2.7812-0.68838 1.2985-1.5095 2.5234-2.4375 3.625-0.92797 1.1016-1.9726 2.0782-3.0938 2.9688-1.1212 0.89056-2.3257 1.6784-3.5938 2.3438-1.268 0.66531-2.6003 1.2304-3.9688 1.6562-1.3685 0.42588-2.765 0.70276-4.1875 0.875s-2.8823 0.22059-4.3125 0.125c-1.4302-0.0956-2.8272-0.30989-4.2188-0.6875s-2.756-0.91991-4.0625-1.5938c-1.6845-1.4594-3.538-2.7579-5.5-3.875s-4.0355-2.0463-6.1875-2.7188c-2.152-0.67243-4.3703-1.0934-6.625-1.2188-2.2547-0.12533-4.5426 0.0383-6.8125 0.5625-0.52378 0.31726-1.0564 0.53548-1.5625 0.65625-0.50606 0.12077-0.98368 0.13837-1.4688 0.0937-0.97014-0.0892-1.9148-0.46698-2.7812-1.0312-0.86646-0.56427-1.6697-1.3032-2.4062-2.0938-0.73653-0.79055-1.3884-1.6382-1.9688-2.4062-0.83851-1.1545-1.7674-2.1712-2.7812-3.0625s-2.1273-1.6341-3.2812-2.2812c-1.1539-0.64714-2.3662-1.2029-3.625-1.625-1.2588-0.42206-2.5466-0.72145-3.875-0.9375s-2.6998-0.34587-4.0625-0.375c-1.3627-0.0291-2.7319 0.0488-4.0938 0.1875-2.7236 0.27745-5.3978 0.85312-7.9062 1.6875-1.3257 0.22381-2.6336 0.66657-3.9375 1.1562-1.3039 0.48968-2.6075 1.0353-3.9062 1.5312-0.49815 0.19023-1.0009 0.27276-1.5 0.4375l-9.8111 3.8891z"/>
  <path id="path3997" fill="#f00" d="m91.47 212.83c-1.6248 4.5438-3.495 8.6928-5.1455 13.146 14.86-2.2594 30.522-14.507 43.471-20.962 6.31-3.1046 13.415 2.1071 13.656 8.8125 0.72674 6.7291-0.31217 13.545 0.125 20.312 10.363-8.9707 17.698-21.114 29.344-28.469 5.4387-3.2933 12.139 0.95953 12.688 7 0.6281 5.2722 2.4964 10.978 3.8438 15.594 3.2006-7.5689 4.5432-19.097 13.75-21.625 9.4946-0.32111 15.054 8.9359 22.688 13.094 1.9122 1.63 5.5498 4.0494 5.625-0.15625 1.4909-5.9965 1.3808-15.687 8.9688-17.219 7.4156-0.41502 19.578 4.8246 26.979 4.3554-6.9091-4.3781-11.106-9.5696-15.587-15.178-2.2324-0.51592-9.8741-0.6806-11.923-1.0527-2.579-0.46837-4.8961-0.76-6.75-0.65625-0.94849 0.19141-1.7446 0.59628-2.375 1.1562-0.63039 0.55997-1.124 1.2818-1.5 2.125-0.37595 0.84316-0.62732 1.8028-0.8125 2.8438s-0.28567 2.1591-0.34375 3.3125c-0.11617 2.3069-0.0415 4.7555-0.0312 7 0.0102 2.2445-0.0335 4.2821-0.40625 5.7812-0.009 0.52571-0.1058 0.86864-0.25 1.0312-0.1442 0.16261-0.34506 0.15405-0.59375 0.0312-0.49738-0.24559-1.1728-0.98517-1.9062-1.9062-1.4669-1.8422-3.1689-4.4037-4.125-5.2188-0.95414-0.51973-1.7831-1.1266-2.5-1.75-0.71688-0.62342-1.3193-1.2913-1.875-1.9688-1.1115-1.355-1.9828-2.7577-2.9062-4.0312-0.46171-0.63677-0.93991-1.2393-1.4688-1.7812-0.52884-0.54198-1.1092-1.0087-1.7812-1.4062-0.67208-0.39756-1.4211-0.73398-2.3125-0.9375s-1.9069-0.29014-3.0938-0.25c-1.1509 0.31602-2.2048 0.79621-3.1562 1.375-0.95143 0.57879-1.8116 1.2735-2.5938 2.0625-0.78217 0.78898-1.4819 1.6471-2.125 2.5938-0.64307 0.94661-1.2471 1.9796-1.7812 3.0312-1.0683 2.1033-1.9364 4.3544-2.75 6.5625-0.81356 2.2081-1.5436 4.3578-2.3438 6.25-0.67365-2.308-1.2547-4.9313-1.7188-7.6562-0.46401-2.7249-0.81095-5.5514-1.125-8.1875-0.0686-0.75506-0.25367-1.4683-0.5-2.1562-0.24633-0.68795-0.57361-1.3392-0.96875-1.9375-0.79027-1.1967-1.8508-2.203-3.0625-2.9062-0.60587-0.35165-1.2384-0.61794-1.9062-0.8125s-1.3617-0.29752-2.0625-0.3125c-0.70077-0.015-1.4202 0.0629-2.125 0.25-0.70478 0.18709-1.3827 0.46334-2.0625 0.875-1.4558 0.91939-2.816 1.8938-4.0625 2.9062s-2.4087 2.0701-3.5 3.1562c-2.1826 2.1723-4.0826 4.4618-5.9688 6.8125s-3.7591 4.7508-5.7812 7.125c-2.0222 2.3742-4.1905 4.7261-6.7812 6.9688-0.21858-3.3839-0.0839-7.4512 0.0625-11.531 0.14641-4.08 0.30454-8.1726 0.0625-11.531-0.0605-0.83966-0.28301-1.5872-0.625-2.25-0.34199-0.66277-0.80594-1.2262-1.375-1.7188-0.56906-0.49257-1.2583-0.92093-2-1.25-0.74172-0.32907-1.5463-0.57774-2.4062-0.75-1.7199-0.34452-3.6336-0.36758-5.5-0.125s-3.6725 0.75511-5.25 1.5312c-3.2374 1.6136-6.3781 3.5165-9.4688 5.5-3.0906 1.9835-6.16 4.0368-9.2812 5.9688-3.1213 1.9319-6.2956 3.7597-9.625 5.2188-1.6647 0.72953-3.3438 1.3739-5.0938 1.9062-0.69893 0.2126-1.618 0.67828-2.333 0.85355l-4.2427 1.1491z"/>
  <path id="path3986" fill="#fc0" d="m97.245 151.04c-1.5619 6.145-3.6849 10.217-5.6402 16.248 8.9089-6.6661 23.616-23.636 35.371-25.663 8.4844 0.27848 12.565 9.0856 15.812 15.531 3.9354-6.1794 5.504-15.26 13.312-17.812 7.4038 0.97093 8.3328 9.6635 13.219 13.781 0.83575-7.1812 1.69-18.239 10.688-19.562 8.5508 0.40966 11.747 10.813 19.406 12.625 0.73532-8.23 2.7165-17.9 13.656-14.344 4.7281 2.3253 12.224 1.2446 6.9229-2.8678-3.8522-3.1147-7.9611-7.0442-10.884-10.885-1.0884 0.52242-5.798 2.293-6.2364 2.5383-3.1771 1.6201-4.1554 4.83-4.9277 8.0893-0.0644 0.68413-0.0378 1.4225 0 2.125 0.0378 0.70253 0.0846 1.3719 0.0625 2-0.0221 0.62807-0.13074 1.1955-0.375 1.6562-0.95744-0.22644-1.8504-0.5726-2.6875-1.0312-0.83713-0.45865-1.6198-1.0068-2.375-1.625-1.5103-1.2365-2.8999-2.7482-4.3125-4.1875s-2.847-2.8137-4.4688-3.875c-0.81088-0.53064-1.6731-0.98528-2.5938-1.3125-0.92069-0.32722-1.8999-0.54254-2.9688-0.59375-1.1247 0.16548-2.1139 0.49443-3 0.9375-0.88608 0.44307-1.6645 1.02-2.3438 1.6875-0.67921 0.6675-1.2459 1.4112-1.75 2.25-0.50408 0.83877-0.95182 1.7619-1.3125 2.7188-0.72136 1.9137-1.193 3.9953-1.5312 6.0625s-0.54106 4.1109-0.75 5.9062c-1.2215-1.0294-2.1726-2.3408-3.0625-3.75-0.88986-1.4092-1.7095-2.9079-2.5938-4.3125-0.88423-1.4046-1.8579-2.7029-3.0625-3.7188-0.6023-0.5079-1.2565-0.9426-2-1.2812-0.74351-0.33865-1.5745-0.59738-2.5-0.71875-0.97607 0.3191-1.8584 0.74533-2.6562 1.25-0.79788 0.50467-1.5029 1.0966-2.1562 1.75-1.3066 1.3068-2.3512 2.8817-3.2812 4.5625-0.93007 1.6808-1.74 3.4586-2.5625 5.2188-0.82248 1.7601-1.6724 3.4864-2.6562 5.0312-0.81182-1.6114-1.6532-3.3573-2.625-5.0938-0.9718-1.7364-2.0692-3.4476-3.3125-4.9688-0.62167-0.76057-1.2895-1.4821-2-2.125-0.71047-0.64294-1.468-1.2047-2.2812-1.6875-0.81322-0.48277-1.6638-0.87619-2.5938-1.1562-0.92991-0.28006-1.9394-0.46519-3-0.5-1.4694 0.25346-2.8389 0.65418-4.1562 1.1875-1.3174 0.53332-2.5852 1.2148-3.7812 1.9688-1.1961 0.75392-2.332 1.5847-3.4375 2.5-1.1055 0.91528-2.1731 1.9201-3.2188 2.9375-1.8121 1.7631-11.597 10.682-13.356 12.509z"/>
  <path id="path3975" fill="#f00" d="m102.68 88.824c-0.28891 1.4901-7.6545 13.474-7.9062 14.969 0.11325 2.5482 0.31176 4.9343 1.6875 7.25 2.9729-6.4031 11.221-23.867 18.125-26.937 4.0598-1.8453 8.5859 0.08539 11.438 3.1562 1.3877 1.2757 2.8688 4.1563 2.8125 0.625 1.0562-5.3216 3.8456-11.462 9.5938-12.875 4.9359-0.93344 9.4631 2.0578 13.25 4.8438-1.3826-5.2094 1.7771-12.233 7.6875-12.5 3.478-0.44009 20.522 5.527 21.844 6.0625-3.3449-3.4304-2.5994-3.7467-6.3125-6.7812-0.47439-0.06023-17.222-5.3362-17.656-5.2812-0.7388 0.03335-1.4444 0.17921-2.0938 0.40625-0.64939 0.22704-1.2595 0.55004-1.8125 0.9375-1.1059 0.77491-2.0093 1.8143-2.6875 3.0312-0.67816 1.2169-1.1182 2.6073-1.3125 4-0.19431 1.3927-0.12689 2.7914 0.21875 4.0938-1.8935-1.393-3.9661-2.8362-6.1875-3.8125-1.1107-0.48816-2.2601-0.8397-3.4375-1.0312-1.1774-0.19154-2.391-0.20211-3.625 0.03125-1.437 0.35317-2.6942 0.98747-3.7812 1.8438-1.0871 0.85628-2.0063 1.9381-2.7812 3.125-0.77492 1.1869-1.4057 2.4676-1.9062 3.8125-0.50058 1.3449-0.86094 2.7321-1.125 4.0625 0.0141 0.88283-0.067 1.3847-0.21875 1.5938-0.15173 0.20909-0.38909 0.12203-0.65625-0.09375-0.53433-0.43157-1.2437-1.4559-1.9375-2.0938-0.71291-0.76772-1.5166-1.4471-2.4062-2.0312-0.88968-0.58416-1.8761-1.0569-2.875-1.375-0.99894-0.31814-2.0218-0.4991-3.0625-0.46875s-2.0788 0.25743-3.0938 0.71875c-1.726 0.76772-3.2081 1.8275-4.5 3.0625s-2.3916 2.6578-3.375 4.1875c-0.70808 1.1014-1.3021 2.2916-1.9062 3.4688z"/>
  <path id="path2832" d="m211.04 318.83c-1.2323-6.5719-3.0672-14.874-4.0777-18.449-1.0104-3.575-2.3673-8.4605-3.0152-10.857l-1.1781-4.3566-2.3308 2.1896c-1.3695 1.2866-2.2067 3.0834-2.03 4.3566 0.16541 1.1918 1.0217 6.7765 1.9028 12.41 0.88114 5.6339 1.6021 10.771 1.6021 11.417 0 1.462-1.3327 0.22633-1.552-1.439-0.0884-0.67158-0.48006-3.6961-0.8703-6.7211-0.39025-3.025-1.1713-7.6566-1.7356-10.293l-1.0261-4.7926-4.2607 3.9274c-3.6493 3.3638-5.3038 4.1033-11.53 5.1536-3.9983 0.6744-8.7896 0.97953-10.647 0.67807l-3.3776-0.54812-0.0859 14.187c-0.0646 10.658-0.32731 13.441-1.0561 11.187-0.5562-1.7199-0.70717-8.0136-0.3538-14.75 1.2431-14.1 0.4551-9.2876-8.4769-15.734-7.3692-7.1143-16.46-1.5493-24.661-2.9236-2.1289-0.72872-5.7535-5.5248-5.7535-5.5248-8.2601-7.9393-10.552-8.9529-18.422-8.1467-3.5452 0.36322-9.0642 1.7624-12.264 3.1094-6.4 2.6937-13.339 3.3895-16.568 1.6612-1.1464-0.61354-2.6398-2.4563-3.3185-4.0949-1.6762-4.0467-0.32629-7.8217 6.5319-18.266 4.8175-7.3367 9.4279-18.32 9.4279-22.461 0-0.78067-1.2283-1.8864-2.7296-2.4572s-3.0694-1.5722-3.4847-2.2252c-1.7293-2.7197-0.60242-9.1359 3.152-17.947 4.8178-11.306 7.733-22.739 8.3978-32.934l0.50162-8.226-3.1505 0.22604c-4.4615-0.43515-5.5687-3.9882-3.2558-10.448 7.2868-20.351 8.8395-26.795 8.9547-37.161 0.10495-9.446-0.0653-10.442-2.0505-12-1.1907-0.93421-2.6507-3.4986-3.2444-5.6986-1.5188-5.628-1.3517-19.068 0.31761-25.54 4.9299-19.114 7.6531-34.663 7.7964-44.514 0.21391-14.705 1.9784-15.856 15.297-9.9815 2.7511 1.2134 8.7757 3.4629 13.388 4.999 5.7205 1.9051 11.6 4.9532 18.498 9.5892 17.802 11.965 33.745 26.75 33.357 32.092-0.048 0.6607 1.2662 3.3523 3.8181 6.4854 4.6064 5.6555 14.482 20.449 19.818 29.688 2.894 5.0104 7.4024 9.7959 16.981 18.025 6.0023 5.1564 6.6817 7.0806 4.0648 11.511-1.5358 2.5999-1.3615 3.0672 7.4379 19.943 9.2439 17.728 20.61 34.18 27.017 39.104 8.5257 6.5531 10.118 8.307 10.118 11.144-2.3764 8.1954 4.0807 14.506 9.5582 20.455 6.2731 5.9273 7.4418 8.0316 7.4418 13.399 0 3.0835-0.73009 4.8625-3.1062 7.5687-4.0141 4.5718-9.716 6.277-26.894 8.043-12.634 1.2988-17.193 3.4388-21.361 10.027-1.5351 2.4265-4.2098 5.6056-5.9437 7.0646-3.1149 2.621-3.2809 2.6446-13.893 1.9731-15.922-1.0075-15.399-1.8104-10.755 16.483 4.0999 16.152 6.4652 28.903 5.7561 31.031-0.23976 0.7193-1.4442-4.0692-2.6764-10.641zm-23.476-21.561c3.189-1.592 6.313-4.3889 9.3692-8.3883 6.4657-8.4612 9.2451-9.6562 20.608-8.8609 5.0204 0.3514 10.298 0.3452 11.729-0.0138 1.5986-0.40123 4.2041-2.8628 6.7626-6.389 2.2891-3.155 5.1113-6.5252 6.2714-7.4894 2.8352-2.3563 10.782-4.6127 18.109-5.1418 20.716-1.4957 29.466-6.1599 28.06-14.956-2.0897-8.6824-10.401-12.653-14.64-20.164l-3.4883-7.2152-6.7657 1.5431c-5.8656 1.3378-8.0982-0.0729-12.944-2.2348-7.9501-3.5467-8.483-3.4216-9.2516 2.1721-2.6619 19.374-7.6507 20.144-27.82 4.2936-3.5298-2.7739-6.8683-5.0436-7.419-5.0436-1.5499 0-3.597 3.7818-6.673 12.327-4.4278 12.301-9.5015 16.741-13.01 11.386-1.5726-2.4001-7.5478-21.543-7.5478-24.182 0-4.1128-3.0819-1.3974-25.737 22.676-6.1874 6.5748-11.242 9.2133-13.44 7.0156-1.8861-1.8861-2.7686-8.8127-2.4132-18.94 0.53438-15.227 0.36551-15.31-13.166-6.4872-11.901 7.7598-21.838 12.846-26.995 13.815-1.7875 0.33618-3.25 1.0751-3.25 1.6421 0 4.1146-4.9206 15.903-10.058 24.096-6.9176 11.032-8.0587 15.05-5.2564 18.511 2.5801 3.1863 8.9758 3.1023 16.946-0.22242 6.9369-2.8936 17.615-4.3105 21.397-2.8391 6.73 2.7717 10.093 10.094 16.261 13.428 1.6402 0.50862 5.105-0.69277 5.105-0.69277 10.282-1.3954 12.139-1.0981 17.892 2.864 2.9878 2.0578 7.1829 4.3928 9.3226 5.1891 5.6295 2.0949 16.05 1.2918 22.041-1.6986zm-39.515-52.638c1.8091-1.5125 4.8731-4.55 6.8088-6.75s7.548-8.1625 12.472-13.25c8.3588-8.6369 12.19-11 12.972-8 0.17918 0.6875 1.1224 4.625 2.0961 8.75s2.6453 9.8625 3.7147 12.75c3.3462 9.0353 7.2216 6.4504 12.368-8.25 3.3832-9.6635 5.081-12.5 7.4819-12.5 1.0007 0 5.1115 2.6155 9.135 5.8122 10.062 7.9946 16.25 11.502 18.842 10.679 2.559-0.81221 4.3859-4.9479 5.958-13.488 0.65777-3.5732 1.6476-6.7759 2.1997-7.1171 0.55207-0.3412 3.999 0.65764 7.6598 2.2196 11.307 4.8245 21.156 3.5539 21.156-2.7293 0-1.6336-1.5529-3.4606-5.284-6.217-9.7999-7.2396-20.288-21.152-29.52-39.16-11.629-22.682-11.172-21.994-14.632-22.044-2.6972-0.0386-6.3274-1.0877-11.669-3.3723-1.315-0.56238-1.7131 0.22937-2.2053 4.3856-0.86604 7.3123-2.6276 10.464-6.0682 10.859-4.8254 0.55287-7.2479-0.6038-14.661-7.0002-5.6249-4.8533-7.3278-5.8587-8.0339-4.7433-0.49276 0.77847-0.93726 1.8654-0.98776 2.4154s-0.22126 1.675-0.37946 2.5c-0.15821 0.825-0.59893 4.0296-0.97938 7.1214-0.71434 5.805-3.2823 9.8786-6.2273 9.8786-7.3875-2.2397-9.4714-10.825-14.145-16-0.4212 0-2.2606 3.1695-4.0876 7.0434-3.5665 7.5622-7.536 12.957-9.5343 12.957-1.8401 0-5.2121-2.6125-8.1451-10-2.9512-7.4332-5.3008-9-7.7241-9-1.1158 0-5.7214 3.6154-10.595 8.3171-4.7417 4.5744-10.467 9.7348-12.724 11.467l-4.1028 3.1504-0.59065 9.7826c-0.6216 10.295-2.6272 18.51-7.1495 29.283-1.5007 3.575-3.4132 8.6888-4.25 11.364-4.6607 14.9 10.108 13.204 36.61-4.2036 10.803-7.0958 11.658-7.4455 13.557-5.5461 1.6997 1.6997 1.6903 1.5984 1.5334 16.601-0.1574 15.045 2.0502 17.955 9.1311 12.035zm-46.47-73.41c2.2887-1.5502 8.2894-6.9272 13.335-11.949 8.6078-8.5669 9.3636-8.8182 12.53-8.5855 2.4716 0.18172 3.7602 2.0145 5.2694 4.2169 2.5979 3.791 4.8531 9.161 7.6778 13.45 2.5399 2.1079 5.2104-0.64609 10.153-10.471 2.6306-5.2287 5.1317-9.5068 5.558-9.5068 0.42633 0 1.6396 1.6875 2.696 3.75 2.3174 4.5241 10.008 13.25 11.677 13.25 2.3158 0 3.5849-2.9432 4.9768-11.541 1.3591-8.3956 2.6183-11.459 4.7106-11.459 0.55007 0 3.8633 2.6784 7.3627 5.9519 4.4402 4.1535 7.4739 6.1604 10.041 6.6419 6.0589 1.1366 8.0419-1.3567 8.2519-10.375 0.12327-5.2945 1.4124-5.884 7.1622-3.2756 7.3244 3.3228 14.937 2.3063 14.937-1.9943 0-1.0895-1.8805-3.6612-4.179-5.7148-10.333-9.2324-15.702-15.376-20.744-23.739-7.0724-11.729-15.488-25.223-18.836-28.361-2.1842-2.0472-3.4777-0.6546-8.3475-0.75064-4.8004-0.0947-6.9186-0.72125-10.986-3.25-2.7717-1.723-5.2921-3.1327-5.6009-3.1327-0.30875 0-0.22295 1.9125 0.19067 4.25 1.9446 10.99 2.123 12.748 1.4103 13.901-1.0614 1.7174-4.3396 0.10568-12.487-6.1389-3.5966-2.7567-6.9521-5.0121-7.4565-5.0121-1.7206 0-3.8797 4.5156-5.5003 11.504-2.6861 11.582-4.3326 12.098-11.185 3.5046-7.0552-8.8478-8.3301-8.3063-15.182 6.4483-2.2877 4.9261-4.9034 9.7786-5.8127 10.783-1.5418 1.7036-0.50575 0.7491-0.8596 12.43s-3.4299 23.872-8.3144 36.118c-2.3542 5.9018-2.7614 11.819-0.85896 12.482 1.729 0.60313 3.5736-0.14788 8.4113-3.4247zm6.7418-70.517c7.309-14.767 9.479-15.446 17.166-5.3659 2.113 2.7708 4.4071 5.0378 5.0979 5.0378 1.1627 0 1.6751-1.4292 4.4818-12.5 2.455-9.6834 4.6237-10.16 13.851-3.0446 6.3309 4.8819 9.932 6.946 10.728 6.1495 0.30646-0.30646-0.0192-3.1554-0.72378-6.331-2.7781-12.522-1.423-14.592 6.1406-9.3791 5.2667 3.6296 12.958 5.5869 15.866 3.4312 1.9548-1.449 1.4156-2.1741-1.0333-5.5892-2.9512-4.1156-14.111-14.45-22.478-20.816-9.6239-7.3222-17.678-11.857-27.666-15.577-26.547-9.8887-24.146-10.385-24.972 5.1571-0.63579 11.973-1.5463 17.228-6.345 36.622-1.3968 5.6454-2.8161 13.238-3.1539 16.873-0.63456 6.8276 0.79486 16.285 2.8324 18.741 1.7658 2.1276 3.9149-0.69549 10.207-13.408z"/>
  <g id="g3614" stroke-width="0" transform="matrix(3.0244 -2.2562 2.2562 3.0244 73.121 25.82)" fill-rule="evenodd">
    <path id="path2818" transform="matrix(1.31 -.66271 .647 1.2789 -6.0221 17.412)" fill="#fc0" d="m11.714 1.805-1.4506-2.9312-3.2339 0.48794 2.3395-2.2854-1.4634-2.9248 2.8965 1.5188 2.3295-2.2956-0.54937 3.224 2.9031 1.5061-3.236 0.4738-0.53527 3.2264z"/>
    <path id="path3594" d="m11.714 1.805-1.4506-2.9312-3.2339 0.48794 2.3395-2.2854-1.4634-2.9248 2.8965 1.5188 2.3295-2.2956-0.54937 3.224 2.9031 1.5061-3.236 0.4738-0.53527 3.2264z" transform="matrix(1.1083 -.56069 .54739 1.082 -4.049 15.67)" fill="url(#linearGradient3886)"/>
    <path id="path3604" transform="matrix(1.1083 -.56069 .54739 1.082 -4.049 15.67)" fill="url(#linearGradient3914)" d="m11.714 1.805-1.4506-2.9312-3.2339 0.48794 2.3395-2.2854-1.4634-2.9248 2.8965 1.5188 2.3295-2.2956-0.54937 3.224 2.9031 1.5061-3.236 0.4738-0.53527 3.2264z"/>
  </g>
  <path id="path4010" d="m140.48 143.03c-0.9569 0-1.7855 0.7205-2.1814 1.7541-3.7128 1.0235-6.4542 4.4776-6.4542 8.5905 0 4.9183 3.9065 8.9054 8.7255 8.9054 4.8189 0 8.7255-3.9871 8.7255-8.9054 0-4.1868-2.8418-7.6834-6.6566-8.6355-0.40259-1.0084-1.2164-1.7091-2.1589-1.7091z" fill="#00f"/>
  <path id="path4015" d="m125.63 81.883c-0.89683 0.33369-1.4222 1.2979-1.4327 2.4047-3.1228 2.254-4.4875 6.4473-3.0533 10.302 1.7151 4.6096 6.7668 6.984 11.283 5.3036 4.5164-1.6805 6.7873-6.7796 5.0722-11.389-1.46-3.9239-5.3428-6.2101-9.2501-5.7721-0.72898-0.80472-1.736-1.1776-2.6194-0.84897z" fill="#ff0"/>
  <path id="path4181" fill="#f00" d="m196.59 132.74c-0.89255 0.34498-1.4057 1.3158-1.4023 2.4226-3.0941 2.2932-4.4058 6.5034-2.923 10.34 1.7732 4.5876 6.8544 6.8981 11.349 5.1608 4.4949-1.7373 6.7013-6.8647 4.9281-11.452-1.5094-3.9052-5.4207-6.1422-9.3222-5.655-0.73908-0.79547-1.7507-1.1557-2.6299-0.81586z"/>
  <path id="path4183" d="m149.76 216.71c-0.88668-0.3598-1.9254-0.004-2.6808 0.80519-3.8252-0.44761-7.6641 1.7224-9.2106 5.5334-1.8493 4.5574 0.27148 9.7207 4.7368 11.533 4.4653 1.8119 9.5843-0.41376 11.434-4.9712 1.5742-3.8795 0.25564-8.1881-2.9212-10.505 0.006-1.0858-0.48449-2.041-1.3578-2.3954z" fill="#00a6ff"/>
  <path id="path4185" d="m226.99 211.4c0.88668-0.3598 1.9254-0.004 2.6808 0.80519 3.8252-0.44761 7.6641 1.7224 9.2106 5.5334 1.8493 4.5574-0.27148 9.7207-4.7368 11.533-4.4653 1.8119-9.5843-0.41376-11.434-4.9712-1.5742-3.8795-0.25564-8.1881 2.9212-10.505-0.006-1.0858 0.48449-2.041 1.3578-2.3954z" fill="#00f"/>
  <path id="path4187" d="m196.59 274.34c0.88668-0.3598 1.9254-0.004 2.6808 0.80519 3.8252-0.44761 7.6641 1.7224 9.2106 5.5334 1.8493 4.5574-0.27148 9.7207-4.7368 11.533-4.4653 1.8119-9.5843-0.41376-11.434-4.9712-1.5742-3.8795-0.25564-8.1881 2.9212-10.505-0.006-1.0858 0.48449-2.041 1.3578-2.3954z" fill="#f00"/>
  <path id="path4189" d="m105.92 255.24c-0.88668-0.3598-1.9254-0.004-2.6808 0.80519-3.8251-0.44761-7.6641 1.7224-9.2106 5.5334-1.8493 4.5574 0.27148 9.7207 4.7368 11.533 4.4653 1.8119 9.5843-0.41376 11.434-4.9712 1.5742-3.8795 0.25564-8.1881-2.9212-10.505 0.006-1.0858-0.48449-2.041-1.3578-2.3954z" fill="#f00"/>
  <path id="path4191" d="m111.57 208.57c-0.88668-0.3598-1.9254-0.004-2.6808 0.80519-3.8251-0.44761-7.6641 1.7224-9.2106 5.5334-1.8493 4.5574 0.27148 9.7207 4.7368 11.533 4.4653 1.8119 9.5843-0.41376 11.434-4.9712 1.5742-3.8795 0.25564-8.1881-2.9212-10.505 0.006-1.0858-0.48449-2.041-1.3578-2.3954z" fill="#ff0"/>
  <metadata>
    <rdf:RDF>
      <cc:Work>
        <dc:format>image/svg+xml</dc:format>
        <dc:type rdf:resource="http://purl.org/dc/dcmitype/StillImage"/>
        <cc:license rdf:resource="http://creativecommons.org/licenses/publicdomain/"/>
        <dc:publisher>
          <cc:Agent rdf:about="http://openclipart.org/">
            <dc:title>Openclipart</dc:title>
          </cc:Agent>
        </dc:publisher>
        <dc:title>Christmas Tree</dc:title>
        <dc:date>2012-12-01T08:41:07</dc:date>
        <dc:description>Cartoon style Christmas tree</dc:description>
        <dc:source>http://openclipart.org/detail/173469/christmas-tree-by-mathec-173469</dc:source>
        <dc:creator>
          <cc:Agent>
            <dc:title>mathec</dc:title>
          </cc:Agent>
        </dc:creator>
        <dc:subject>
          <rdf:Bag>
            <rdf:li>christmas</rdf:li>
            <rdf:li>christmas tree</rdf:li>
            <rdf:li>clip art</rdf:li>
            <rdf:li>clipart</rdf:li>
            <rdf:li>tree</rdf:li>
            <rdf:li>xmas</rdf:li>
            <rdf:li>xmas tree</rdf:li>
          </rdf:Bag>
        </dc:subject>
      </cc:Work>
      <cc:License rdf:about="http://creativecommons.org/licenses/publicdomain/">
        <cc:permits rdf:resource="http://creativecommons.org/ns#Reproduction"/>
        <cc:permits rdf:resource="http://creativecommons.org/ns#Distribution"/>
        <cc:permits rdf:resource="http://creativecommons.org/ns#DerivativeWorks"/>
      </cc:License>
    </rdf:RDF>
  </metadata>
</svg>
