<?xml version="1.0" encoding="UTF-8" standalone="no"?>
<svg id="svg2" xmlns:rdf="http://www.w3.org/1999/02/22-rdf-syntax-ns#" xmlns="http://www.w3.org/2000/svg" height="839pt" width="1170pt" version="1.1" xmlns:cc="http://creativecommons.org/ns#" xmlns:dc="http://purl.org/dc/elements/1.1/" viewBox="0 0 1170 839">
<g>
<path id="path4" d="m1058.4 0h9.1c14.3 2.54 26.3 15.24 26.5 29.95 24.8 221.84 44.9 444.16 67.7 666.19 1 8.57-7.1 15.5-15.4 15.35-138.9 14.83-278.13 27.44-416.31 48.49-211.86 30.89-425.47 48.27-637.29 79.02h-1.82c-4.29-0.53-11.3-0.31-12.12-6.06-29.99-219.71-57.15-440.36-78.76-660.74v-9.87c1.79 7.17 1.83 14.64 3.49 21.84 6.05-16.61 26.33-21.82 41.61-15.28 330.41-42.2 660.6-86.64 990.7-130.89-7-5.87-21.3-1.72-30.9-1.09-224.29 25.72-447.23 61.65-670.92 91.89-1.28-0.08-3.83-0.24-5.11-0.32 70.96-12.23 142.38-22.94 213.35-34.39-173.72 23.05-347.99 46.35-522.35 61.26 345.31-57.37 690.69-115.68 1038.5-155.35m-6.8 27.55c-3.9 0.4-7.8 0.76-11.7 1.27 5.3 6.06 12.7 8.89 20.7 6.43 1 9.55 4.1 18.12 11.6 24.83-4.4-13.05 3.5-42.19-20.6-32.53m-8.3 22.63c-4 0.69-9.7 0.5-7.2 6.77 5 2.73 13.1-3.75 7.2-6.77m21.6 12.95c19.8 155.39 36.8 311.15 52.9 466.94 0.3 0.8-1.8 15.18 0.2 7.86 2.2-5.51-0.2 4.36 0.3 6.86 6.2 37.83 11.4 77.16 17.8 114.13-5.9-60.23-11.5-120.51-20.7-180.36-18.9-137.93-29.9-279.17-50.5-415.43m-36.2 3.4c-61.75 60.57-115.99 128.34-173.8 192.41-1.11-0.61 13.42-16.71 4.89-9.17-45.25 53.36-91.91 105.55-137.55 158.57-3.29 2.03-5.18 14.95 0.6 8.52 14.12-17.15 30.36-32.49 44.32-49.72-12.18 9.97-21.02 23.79-33.29 33.74 51.62-57.44 102.66-116.18 154.99-173-7.6 11.54-18.81 20.77-26.69 32.32 27.98-29.7 55.2-60.85 83.39-90.64 28.46-33.63 55.64-68.42 84.84-101.37 3.9-1.76-0.6-3.06-1.7-1.66m-33.19 3.83c-159.66 21.33-319.79 38.94-479.81 57.34-150.99 21.82-302.81 40.09-454.64 52.88 174.49 102.14 352.92 199.81 522.79 310.2 136.52-141.68 279.02-277.75 414.08-420.79-0.61 0.09-1.82 0.28-2.42 0.37m43.99 15.25c-99.82 109.74-193.45 225.47-301.81 327.09-5.89 2.46 8.03 9.14 0.62 6.07-5.17-5.97-9.31 3.15-12.22 7.15 128.4 80.13 256.71 160.5 386.31 238.6 3.8 0.62-1.2-8.49-0.1-10.52-117.54-79.7-245.21-143.98-358.66-229.73 110.06 57.68 224.74 108.02 327.46 178.62-9.8-172.8-14.9-346.36-41.1-517.8l-0.5 0.52m-473.91 4.61c1.88 3.76 4.32-2.58 0 0m-8.03 1.06c3.25 3.49 5.36-2.62 0 0m-7 1c3.25 3.49 5.36-2.62 0 0m-7.03 1.04c4.59 3.29 6.4-2.61 0 0m-337.94 65.9c1.88 3.76 4.32-2.58 0 0m-10.08 1.2c-48.42 5.44-97.29 8.75-145.72 12.15 3.01 2.8 6.64 5.48 10.58 6.44 45.66-5.62 91.21-12.24 136.89-17.69 10.19 0.14 1.22-2.99-1.75-0.9m-169.77 13.95c-8.03-2.9-9.26 14.38-10.43 5.56-7.28 6.26-7.18 16.48-5.56 25.17 9.16 62.44 18.15 126.3 27.34 187.86-5.79-50.01-12.22-99.97-17.98-149.97 0.23-2.28 1.75-19.99-0.41-7.21-2.84-0.54 3.35-15.72-1.94-7.87 2.92-14.21-7.82-29.37 1.1-42.94 6.34-4.08 29.39-10.57 7.88-10.6m11.28 1.04c0.21 1.36 0.64 4.08 0.85 5.44 107.39 70.23 217.83 136.12 324.15 208.13 25.04 17.76 49.29 36.6 75.68 52.38 21.01-1.29 37.71 16.27 54.23 26.74-17.34-6.84-30.43-25.35-50.28-24.57 41.77 22.65 81.54 49.05 122.33 73.47 19.04 9.95 42.49 1.28 55.27-14.75 57.34-60.66 112.88-123.06 171.53-182.46 42.8-46.64 89.84-89.27 128.38-139.64-107.2 109.25-213.93 219.45-318.84 331.1-8.22 8.16-22.29 8.89-31.37 1.71-99.63-66-201.4-128.69-301.92-193.25-2.32 1.61-2.26-1.54-4.65-1.51-75.69-46.41-148.85-98.37-225.36-142.79m-7.9 17.64c-0.78 0.98-1.48 2.06-1.87 3.27 10.09 72.74 16.64 146.05 21.79 219.31-11.21-56.44-18.83-119.73-29.13-177.58 17.94 136.81 35.32 275.02 54.17 410.9-14.39-146.74-22.53-294.03-37.23-440.74 73.03 47.9 147.48 95.04 222.07 140.86-6.35-7.86-17.68-10.39-24.08-17.91 62.15 39.64 123.64 80.52 185.82 120.17 2.31 2.06 6.08-2.56 3.13-4.07-112.06-72.03-225.26-142.47-335.04-218-20.1-11.64-38.92-25.82-59.63-36.21m40.68 67.26c8.32 172.84 15.64 346.18 40.12 517.67 101.01-107.84 196.79-221.84 305.98-322.1-11-9.77-24.74-17.36-37.11-25.69 4.32 6.62 13.15 8.7 18.22 14.79-110.01-59.73-224.79-111.92-327.21-184.67m1015.5 51.22c-2.6 6.4 3.3 4.6 0 0m0.6 6.54c4.4 67.39 10.7 135.88 21.2 201.93-1.5-28.43-6.5-58.55-6.3-85.96 4.9 30.84 9.4 63.18 15.2 92.95-9.8-69.48-19.3-140.47-30.1-208.92m-1048.6 76.46c-2.61 7.41 3.18 5.82 0 0m1 8c-2.61 7.41 3.18 5.82 0 0m1 8c-2.61 7.41 3.18 5.82 0 0m677 4.84c-2.9 2.21-10.91 8.78-1.93 8.16 4.2 2.15 1.45-8.04 1.93-8.16m-676.45 2.72c16.14 128.82 26.66 258.47 48.28 386.52 2.34 2.42 4.94 6.59 8.8 6.01 2.03-7-5.77-10.27-5.96-16.76-15.48-125.28-34.56-251.52-51.12-375.77m668.9 7.35c-33.05 31.85-61.92 69.82-94.07 103.3-14.78 13.26-38.09 15.9-55.23 5.7-37.81-24.22-75.52-48.59-113.32-72.8-2.01-1.39-6.93 0.03-6.77 2.01 36.35 23.53 72.83 47.13 109.24 70.67 23.5 16.31 61.64 13.51 78.81-10.86 29.02-32.3 58.01-64.65 86.79-97.15 2.15-3.53-5.58 0.6-5.45-0.87m12.51 4.8c-2.5 3-6.32 5.7-7.12 9.54 125.9 79.14 250.64 156.54 378.81 232.24 2 0.78 6.8 3.82 7.7 1.47-126.57-80.71-259.62-153.42-379.39-243.25m-9.11 10.11c-5.44 7.43-12.55 13.46-18.47 20.37 1.41-0.57 2.81-1.2 4.23-1.77-20.68 24.62-41.55 49.13-62.28 73.72-21.12 25.54-59.93 33.3-89.71 19.34-32.8-16.73-64.81-35.17-97.7-51.61-77.11 94.44-159.85 184.25-248.38 268.06 139.44-8.03 280.05-19.08 419.52-33.04 152.07-20.51 304.2-41.27 456.59-58.96-123.56-75.09-245.06-153.83-363.8-236.11m-284.88 9.93c-9.76 7.87 10.67 3.64 0 0m-7.18 7.94c-80.04 86.04-162.09 170.41-235.97 261.93 80.38-85.54 158.96-173.78 239.75-259.31-0.6-1.61-2.2-2.36-3.78-2.62m14.16 10.02c-102.95 112.03-207.06 223.24-307.6 337.45 13.91-2.6 29.31-3.67 42.26-6.76-10.96 0.65-21.84 2.19-32.74 3.4 0.42-2.28 2.2-3.97 3.67-5.61 104.12-104.59 204.51-212.98 302.9-322.94-0.86-2.15-5.22-5.42-8.49-5.54m673 54.29c-2.6 6.4 3.3 4.59 0 0m9 6c-2.6 6.4 3.3 4.59 0 0m-1042 123c-2.61 6.4 3.29 4.59 0 0m1061.8 8.73c-0.4 6.17 0.7 14.56-5.4 18.52-3.3 1.96-11.2 3.78-6.6 8.97 14.9 0.19 16.2-17.94 12-27.49m-19.7 22.15c-21.6 1.83 12.7 9.83 0 0m21.9 7.6c-5.9 2.82 5.3 2.17 0 0m-39.7 1.5c-19.7 3.49-41 6.35-59.5 10.59 24-2.27 48-4.93 71.9-7.54-3.9-1.85-7.8-5.04-12.4-3.05m-65 10.71c1.9 3.75 4.3-2.59 0 0m-613.01 73c1.88 3.75 4.32-2.59 0 0m-10.03 1.27c-81.24 6.61-163.84 15.41-243.46 28.6 83.55-8.55 168.78-14.57 250.84-29.18-2.47 0.09-4.93 0.29-7.38 0.58m-300.04 27.97c-12.15 2.59 2.24 7.15 0 0m49.01 0.86c4.6 3.29 6.4-2.61 0 0m-70.3 9.42c-1.26 10.03 5.02 12.23 13.63 9.64-1.3-6.59-8.2-7.96-13.63-9.64m24.05 1.54c-10.67 3.09 5.28 8.28 9.64 4.15-3.46-0.79-6.11-4.41-9.64-4.15z"/>
<path id="path6" d="m976.56 80.53c-38.38 44.07-84.1 90.18-126.39 133.66 39.55-46.86 82.62-90.84 126.39-133.66z"/>
<path id="path8" d="m893.59 84.22c4.32-2.58 1.88 3.76 0 0z"/>
<path id="path10" d="m885.61 85.53c6.52-0.72 6.79-0.4 0.81 0.96-91.62 14.85-183.21 30.6-275.67 39.37-1.3 2.44-8.76-0.47-3.99-1.1 92.4-16.68 185.78-27.11 278.85-39.23z"/>
<path id="path12" d="m1035.4 100.37c6.7 35.68 10.6 76.32 15.6 114.01-7.6-33.27-14-67.17-18.9-101.05-16.8 16.3-31.7 37.09-50.2 52.53 15.31-23.47 35.4-44.08 53.5-65.49z"/>
<path id="path14" d="m322.53 129.32c6.4-2.61 4.6 3.29 0 0z"/>
<path id="path16" d="m5.45 160.3c10.38-0.6-10.17 3.74 0 0z"/>
<path id="path18" d="m892.33 223.42c1.5 4.86-6.66 2.91 0 0z"/>
<path id="path20" d="m853.33 260.42c1.5 4.86-6.66 2.9 0 0z"/>
<path id="path22" d="m1052.9 277.92c5.9 36.74 8.9 75.36 11.2 113.01-7.3-36.13-8.9-75.45-11.2-113.01z"/>
<path id="path24" d="m49.22 417.59c3.76 1.88-2.58 4.32 0 0z"/>
<path id="path26" d="m85.91 466.13c7.22 35.69 9.35 75.33 11.15 112.76-5.86-35.99-8.54-75.37-11.15-112.76z"/>
<path id="path28" d="m99.22 643.59c3.76 1.88-2.58 4.32 0 0z"/>
<path id="path30" d="m99.9 648.12c8.35 31.86 12.94 67.23 19.41 100.44 15.97-13.31 29.59-34.73 47.85-47.4-16.14 21.32-33.73 42.02-52.49 61.01-5.31-37.96-10.34-75.97-14.77-114.05z"/>
<path id="path32" d="m1163.3 649.56c3.5 3.25-2.6 5.36 0 0z"/>
<path id="path34" d="m1152.8 716.09c27-7.92 8-43.59 12-59.31 1.9 12.47 2.9 25.07 5.2 37.49v5.37c-1 12.6-13.1 21.01-25.1 21.29-70.1 8.43-141 17.01-210.88 21.35 72.88-9.29 145.98-17.19 218.78-26.19z"/>
<path id="path36" d="m957.57 683.49c2.38 0.07 7.13 0.22 9.51 0.3-91.25 17.67-183.99 26.64-276.05 39.28 87.23-16.67 177.31-30.45 266.54-39.58z"/>
<path id="path38" d="m583.62 729.56c2.89-0.87 17.59-0.7 5.45 0.54-51.56 6.37-103.22 12.04-155.02 15.99 48.63-8.51 99.69-13.04 149.57-16.53z"/>
<path id="path40" d="m926.53 743.32c6.4-2.61 4.59 3.29 0 0z"/>
<path id="path42" d="m762.56 758.28c5.36-2.62 3.25 3.48 0 0z"/>
<path id="path44" d="m754.61 759.54c3.14-2.04 11.5 0.66 1.64 0.78-156.62 23.8-313.44 46.61-470.9 64.2-3.21-0.88-9.21 2.53-11.44-0.32 159.73-25.13 320.35-43.99 480.7-64.66z"/>
</g>
</svg>
