<?xml version="1.0"?>
<svg xmlns:rdf="http://www.w3.org/1999/02/22-rdf-syntax-ns#" xmlns="http://www.w3.org/2000/svg" xmlns:cc="http://creativecommons.org/ns#" xmlns:dc="http://purl.org/dc/elements/1.1/" xmlns:svg="http://www.w3.org/2000/svg" id="svg2" fill-rule="evenodd" xml:space="preserve" viewBox="0 0 7.9879 10.2409" version="1.0">
 <defs id="defs4">
  <style id="style6" type="text/css">
    .str2 {stroke:black;stroke-width:0.00562512;stroke-linecap:round}
    .str7 {stroke:black;stroke-width:0.0058717;stroke-linecap:round}
    .str1 {stroke:black;stroke-width:0.00920054;stroke-linecap:round}
    .str4 {stroke:black;stroke-width:0.00959738;stroke-linecap:round}
    .str3 {stroke:white;stroke-width:0.0147332;stroke-linecap:round}
    .str6 {stroke:black;stroke-width:0.0153574;stroke-linecap:round}
    .str8 {stroke:white;stroke-width:0.0153574;stroke-linecap:round}
    .str0 {stroke:black;stroke-width:0.0221537;stroke-linecap:round}
    .str5 {stroke:black;stroke-width:0.0230938;stroke-linecap:round}
    .fil0 {fill:none;fill-rule:nonzero}
  </style>
 </defs>
 <g id="g2638" stroke="#000" stroke-linecap="round" fill="none" transform="matrix(4.1124 0 0 4.1124 -.69575 -31.165)"><path id="path10" d="m0.74732 9.6239c0.01491 0.1602 0.03354 0.2646 0.01864 0.328-0.01491 0.0631-0.04099 0.1041 0.01117 0.1041 0.05218 0 0.08199 0.004 0.1677 0.004 0.08567 0 0.16767-0.008 0.23847-0.004s0.0858-0.004 0.1305-0.004 0.0372 0.012 0.082 0.012c0.0447 0 0.0596 0 0.0931-0.015 0.0336-0.015 0.1193-0.023 0.0894-0.0599-0.0298-0.0372-0.0335-0.2012-0.026-0.3764 0.0708-0.1342 0.1565-0.2721 0.1639-0.3988 0.0075-0.1267 0.0149-0.1342 0.0783-0.2423s0.0894-0.1714 0.1416-0.2348c0.0522-0.0633 0.1006-0.1081 0.0745-0.1863-0.026-0.0783-0.0745-0.1118-0.1528-0.1081-0.0782 0.0037-0.1416 0.0596-0.2161 0.1528s-0.1081 0.1491-0.1453 0.2273c0-0.1416 0.0037-0.3652 0.0186-0.5031s0.0261-0.1864 0.0298-0.2721-0.0074-0.2422-0.0447-0.3056-0.0485-0.0745-0.1006-0.0671c-0.0522 0.0075-0.0522 0.041-0.0746 0.0522-0.0223 0.0112-0.0372 0.041-0.0484 0.1192-0.0112 0.0783-0.0447 0.3318-0.0335 0.5107-0.0112-0.2386-0.0187-0.4137-0.0448-0.5218-0.026-0.1081-0.0633-0.1864-0.108-0.2237-0.0448-0.0372-0.09693-0.041-0.12301-0.0149-0.02609 0.0261-0.02609 0.0522-0.041 0.0671-0.01489 0.0149-0.03727 0.0336-0.02608 0.1193s0.05218 0.4137 0.05963 0.5106c-0.03727-0.1305-0.07826-0.246-0.0969-0.3056-0.01862-0.0597-0.05216-0.164-0.07825-0.2125-0.02609-0.0484-0.07081-0.0857-0.1118-0.0857-0.04098 0-0.08944 0.0149-0.10063 0.0708-0.01117 0.0559 0.00747 0.0671-0.00372 0.0895-0.01117 0.0223 0 0.0782 0.01491 0.1416s0.10807 0.3541 0.14162 0.4286c-0.08944-0.1789-0.11553-0.3205-0.16398-0.3876-0.04844-0.0671-0.13415-0.1081-0.17887-0.0745-0.04473 0.0335-0.07826 0.1006-0.04845 0.1826 0.02982 0.082 0.13043 0.3131 0.17142 0.4025 0.04099 0.0895 0.0261 0.0634 0.03727 0.1938 0.01118 0.1305 0.01491 0.369 0.0298 0.492 0.01491 0.123 0.08573 0.3354 0.17517 0.3951" stroke-width=".022154" class="fil0 str0"/><path id="path12" d="m0.77713 9.609c0.04099-0.0373 0.04473-0.0112 0.08571-0.0112 0.04099 0 0.07826 0.0223 0.10435 0 0.02608-0.0224 0.08201-0.0261 0.08941-0.0336 0.0075-0.0074 0.0224-0.0037 0.0298 0.0075 0.0075 0.0112 0.0746 0.0298 0.1007 0.0112 0.026-0.0187 0.0335-0.0149 0.0521-0.0187 0.0187-0.0037 0.0447 0.0075 0.0597 0.015 0.0149 0.0074 0.0559 0.0223 0.0745 0.0111 0.0186-0.0111-0.0186-0.0074 0.0224-0.0223 0.0409-0.0149 0.0409 0.0037 0.0447 0.0149 0.0037 0.0112-0.0075 0.0372 0.0261 0.0223 0.0335-0.0149 0.0335-0.0223 0.0372-0.0074m-0.69685 0.0223c0.03727 0.1268 0.01117 0.3019 0.01117 0.3467 0 0.0442-0.01863 0.0372-0.02235 0.0482m0.72083-0.3872c-0.0034 0.0271-0.0129 0.2927 0.0118 0.3379m-0.0432-0.3418c-0.0037 0.0298-0.0112 0.3317 0.0186 0.3615m-0.63722 0.0266c0.00294-0.01 0.01935-0.004 0.01908-0.046-0.00175-0.0485 0.02233-0.2289-0.01089-0.3455m0.06261 0.3885c0.00215-0.0095 0.01638-0.005 0.01582-0.0438-0.00351-0.0521 0.01857-0.2378-0.0106-0.3443m0.0656 0.3851c0.0014-0.0088 0.0134-0.0064 0.0125-0.0416-0.0052-0.0558 0.0201-0.2739-0.0051-0.3703m0.0634 0.4089c0.0006-0.0081 0.0104-0.0073 0.0093-0.0394-0.007-0.0595 0.011-0.2557-0.0101-0.342m0.0716 0.3784c-0.0002-0.0073 0.0074-0.0083 0.006-0.0372-0.0087-0.0632 0.0073-0.2646-0.0097-0.3408m0.0745 0.3753c-0.001-0.0069 0.0044-0.0095 0.0027-0.0353-0.0105-0.0669 0.0036-0.2735-0.0094-0.3396m0.0775 0.3719c-0.0018-0.0062 0.0014-0.0105-0.0005-0.0331-0.0123-0.0706-0.0003-0.2824-0.0092-0.3384m0.0805 0.3686c-0.0025-0.0056-0.0016-0.0116-0.0038-0.031-0.014-0.0742-0.004-0.2914-0.0089-0.3373m0.0835 0.3653c-0.0033-0.0048-0.0045-0.0125-0.0071-0.0288-0.0157-0.0779-0.0077-0.3003-0.0085-0.3361m0.0603 0.3693c-0.0447-0.0044-0.0559 0.0152-0.0969 0.0182-0.041 0.004-0.1453 0.012-0.2124 0.008-0.067-0.004-0.18258-0.004-0.20122 0.007m0.45462 0.004c0.0559-0.011 0.1081-0.026 0.1081-0.026m-0.5105-0.4659c-0.04849-0.1379-0.11929-0.2161-0.12674-0.2869m0.29064 0.2944c0.0112-0.0783-0.0149-0.0671 0.0038-0.1565" stroke-width=".0092005" class="fil0 str1"/><path id="path14" d="m1.5171 9.5938l0.033-0.0613c0.0591-0.1091 0.1203-0.2185 0.1263-0.3209 0.0024-0.0399 0.0048-0.0685 0.0087-0.092 0.0095-0.057 0.0269-0.086 0.0746-0.1675l0.0527-0.0937-0.0002 0.0004c0.032-0.0586 0.0565-0.1029 0.0931-0.1473l0.0165-0.0197c0.0262-0.0312 0.051-0.0568 0.0556-0.09 0.0016-0.0117 0.0002-0.0244-0.0046-0.0387-0.0099-0.0296-0.0229-0.0514-0.0419-0.0648-0.0186-0.0131-0.0423-0.0174-0.0712-0.0161-0.0182 0.0009-0.0353 0.0055-0.052 0.0133-0.0457 0.0215-0.0873 0.0652-0.1349 0.1246-0.072 0.09-0.1044 0.144-0.1404 0.2196m-0.0468 0.7372l0.039-0.0725c0.0546-0.1005 0.1105-0.2006 0.1161-0.2949 0.0024-0.0415 0.005-0.0713 0.0091-0.0958 0.0102-0.061 0.0279-0.0925 0.0791-0.1797l-0.0004 0.0005 0.0528-0.0939c0.0328-0.0598 0.0584-0.1057 0.0964-0.1519l0.0253-0.0301c0.018-0.0211 0.0357-0.0384 0.0389-0.0617 0.001-0.0068-0.0003-0.0141-0.0031-0.0225-0.007-0.021-0.015-0.0373-0.0285-0.0468-0.0127-0.009-0.0291-0.0106-0.0489-0.0096-0.0134 0.0006-0.0261 0.0041-0.0385 0.0099-0.0416 0.0196-0.0788 0.0604-0.1221 0.1146-0.0697 0.0872-0.1013 0.1394-0.1361 0.2126m-0.1041-0.0325c0-0.1428 0.0038-0.3681 0.0188-0.5071l0.0157-0.1296c0.0068-0.0517 0.0117-0.0892 0.014-0.1401 0.0034-0.0801-0.005-0.2267-0.0399-0.286-0.0146-0.0249-0.0231-0.0407-0.0341-0.0487-0.0015-0.0011-0.0031-0.0018-0.005-0.0022-0.0068-0.0013-0.0149-0.0004-0.0256 0.0011-0.0061 0.0009-0.0112 0.0023-0.0153 0.0041-0.009 0.0041-0.013 0.0108-0.0171 0.0162-0.0063 0.0084-0.0126 0.0158-0.0202 0.0216-0.0034 0.0026-0.007 0.0049-0.0109 0.0069-0.0021 0.001-0.0037 0.0027-0.0053 0.0049-0.0107 0.0148-0.0172 0.0414-0.0238 0.0874-0.011 0.0772-0.0442 0.327-0.0332 0.5033m-0.0687 0.0038l-0.0011-0.0222c-0.0105-0.2244-0.0178-0.39-0.0428-0.4934-0.0239-0.0991-0.0561-0.1718-0.0971-0.206-0.0166-0.0139-0.0345-0.022-0.0508-0.0237-0.0063-0.0007-0.0124-0.0004-0.0177 0.0012-0.00383 0.0011-0.00727 0.0029-0.00995 0.0056-0.01119 0.0112-0.01563 0.0226-0.01977 0.0322-0.00599 0.0139-0.01201 0.0257-0.02122 0.0349l-0.0017 0.0017c-0.00445 0.0044-0.01006 0.0093-0.0135 0.0195-0.00171 0.005-0.00293 0.0111-0.00363 0.0186-0.00122 0.0132-0.00071 0.0301 0.00214 0.0518l0.05968 0.5111m-0.30028 0.1469c-0.04587-0.0918-0.0754-0.1738-0.09968-0.2415-0.022-0.0612-0.03871-0.1099-0.06123-0.1411-0.02745-0.038-0.06873-0.0671-0.10402-0.071-0.00876-0.0009-0.017-0.0004-0.0233 0.0043-0.0118 0.0089-0.02254 0.0209-0.0306 0.0353-0.00812 0.0146-0.01346 0.0316-0.0144 0.0506-0.00083 0.017 0.00188 0.0355 0.00899 0.055 0.0296 0.0814 0.12958 0.3109 0.17029 0.3998 0.03331 0.0727 0.03308 0.077 0.03558 0.1303l-0.00004-0.0006 0.00499 0.0771c0.00474 0.0553 0.00821 0.1315 0.01174 0.21 0.00465 0.1031 0.00942 0.2102 0.01787 0.2798 0.00996 0.0822 0.04599 0.2062 0.09605 0.2928 0.01925 0.0333 0.04011 0.0609 0.06308 0.0763m-0.14135-0.9296c-0.01231 0.0098-0.00857 0.0676-0.00857 0.0676 0.00477 0.0555 0.00826 0.1323 0.01183 0.2114 0.0046 0.102 0.00927 0.2079 0.01761 0.2768 0.00946 0.078 0.04359 0.1958 0.0911 0.278 0.01581 0.0273 0.03211 0.0508 0.05099 0.0634m0.14108-1.2594c-0.02578-0.0902-0.05336-0.1733-0.07399-0.2354l-0.02269-0.0695c-0.01814-0.0581-0.05057-0.1598-0.07599-0.207-0.01503-0.028-0.03714-0.0518-0.06091-0.0634-0.00794-0.0038-0.016-0.0062-0.02391-0.0062-0.01511 0-0.03165 0.0022-0.04548 0.0099-0.00487 0.0027-0.00937 0.0061-0.01319 0.0105-0.00568 0.0065-0.00976 0.015-0.01191 0.0257-0.00494 0.0248-0.00281 0.0389-0.00121 0.0495 0.0018 0.0117 0.00256 0.0212 0.00058 0.0312-0.00105 0.0052-0.00574 0.0165-0.00574 0.0165s0.0047 0.0672 0.01733 0.1209c0.01471 0.0625 0.10663 0.3495 0.13972 0.4231m-0.07 0.0818c0.02359-0.0189 0.04718-0.0567 0.09911-0.0567m0.13216-0.0708c0.03304-0.0189 0.08024-0.0236 0.10384-0.0142m0.1746 0.0567c0.0472 0 0.0803 0 0.085 0.0094m0.0566 0.5004c-0.0849 0.0095-0.1699 0.0708-0.184 0.1416" stroke-width=".0056251" class="fil0 str2"/></g>
<metadata><rdf:RDF><cc:Work><dc:format>image/svg+xml</dc:format><dc:type rdf:resource="http://purl.org/dc/dcmitype/StillImage"/><cc:license rdf:resource="http://creativecommons.org/licenses/publicdomain/"/><dc:publisher><cc:Agent rdf:about="http://openclipart.org/"><dc:title>Openclipart</dc:title></cc:Agent></dc:publisher><dc:title>Various Clothing</dc:title><dc:date>2006-11-30T07:03:56</dc:date><dc:description>cap, cap, clip art, clipart, clothing, clothing, glove, glove, image, jacket, jacket, media, pants, pants, png, public domain, scarf, scarf, svg, </dc:description><dc:source>http://openclipart.org/detail/11225/various-clothing-by-jicjac-11225</dc:source><dc:creator><cc:Agent><dc:title>JicJac</dc:title></cc:Agent></dc:creator><dc:subject><rdf:Bag><rdf:li>cap</rdf:li><rdf:li>clip art</rdf:li><rdf:li>clipart</rdf:li><rdf:li>clothing</rdf:li><rdf:li>glove</rdf:li><rdf:li>image</rdf:li><rdf:li>jacket</rdf:li><rdf:li>media</rdf:li><rdf:li>pants</rdf:li><rdf:li>png</rdf:li><rdf:li>public domain</rdf:li><rdf:li>scarf</rdf:li><rdf:li>svg</rdf:li></rdf:Bag></dc:subject></cc:Work><cc:License rdf:about="http://creativecommons.org/licenses/publicdomain/"><cc:permits rdf:resource="http://creativecommons.org/ns#Reproduction"/><cc:permits rdf:resource="http://creativecommons.org/ns#Distribution"/><cc:permits rdf:resource="http://creativecommons.org/ns#DerivativeWorks"/></cc:License></rdf:RDF></metadata></svg>
