<?xml version="1.0" encoding="UTF-8" standalone="no"?>
<!-- Created with Inkscape (http://www.inkscape.org/) -->

<svg
   version="1.1"
   id="svg10840"
   width="800"
   height="800"
   viewBox="0 0 800 800"
   sodipodi:docname="desert-in-the-night-vector-pdv.svg"
   inkscape:version="1.2 (dc2aedaf03, 2022-05-15)"
   xmlns:inkscape="http://www.inkscape.org/namespaces/inkscape"
   xmlns:sodipodi="http://sodipodi.sourceforge.net/DTD/sodipodi-0.dtd"
   xmlns="http://www.w3.org/2000/svg"
   xmlns:svg="http://www.w3.org/2000/svg">
  <defs
     id="defs10844">
    <clipPath
       clipPathUnits="userSpaceOnUse"
       id="clipPath10876">
      <path
         d="M 0,600 H 600 V 0 H 0 Z"
         id="path10874" />
    </clipPath>
  </defs>
  <sodipodi:namedview
     id="namedview10842"
     pagecolor="#ffffff"
     bordercolor="#000000"
     borderopacity="0.25"
     inkscape:showpageshadow="2"
     inkscape:pageopacity="0.0"
     inkscape:pagecheckerboard="0"
     inkscape:deskcolor="#d1d1d1"
     showgrid="false"
     inkscape:zoom="1.04625"
     inkscape:cx="400"
     inkscape:cy="400.4779"
     inkscape:window-width="1920"
     inkscape:window-height="1017"
     inkscape:window-x="-8"
     inkscape:window-y="-8"
     inkscape:window-maximized="1"
     inkscape:current-layer="g10848">
    <inkscape:page
       x="0"
       y="0"
       id="page10846"
       width="800"
       height="800" />
  </sodipodi:namedview>
  <g
     id="g10848"
     inkscape:groupmode="layer"
     inkscape:label="Page 1"
     transform="matrix(1.3333333,0,0,-1.3333333,0,800)">
    <path
       d="M 0,0 H 600 V 599.671 H 0 Z"
       style="fill:#5476c3;fill-opacity:1;fill-rule:nonzero;stroke:none"
       id="path10850" />
    <path
       d="M 0,0 H 600 V 276.503 H 0 Z"
       style="fill:#4565b9;fill-opacity:1;fill-rule:nonzero;stroke:none"
       id="path10852" />
    <g
       id="g10854"
       transform="translate(504.9378,356.6934)">
      <path
         d="m 0,0 -8.456,-8.456 v -17.615 l -8.573,-8.573 v -21.609 l -10.22,-10.217 v 9.176 l -6.15,6.152 v 27.986 l -4.946,4.949 h -3.702 v -45.331 l -4.164,-4.164 v -31.431 h -9.154 l -11.969,-11.968 h -200.348 l -11.291,11.293 h -189.783 l -19.749,-19.749 h -16.433 V -329.971 H 95.063 V -107.25 H 67.026 l -8.117,8.117 h -8.744 l -4.163,4.163 H 35.177 v 43.504 l -8.22,8.222 v 28.205 L 11.918,0 Z"
         style="fill:#2e4ca2;fill-opacity:1;fill-rule:nonzero;stroke:none"
         id="path10856" />
    </g>
    <g
       id="g10858"
       transform="translate(577.5336,235.1331)">
      <path
         d="m 0,0 -29.299,-29.297 h -95.229 l -18.005,18.004 h -219.185 l -17.276,-17.277 h -144.457 l -18.733,-18.733 h -35.35 V -188.846 H 22.467 L 22.467,0 Z"
         style="fill:#273e82;fill-opacity:1;fill-rule:nonzero;stroke:none"
         id="path10860" />
    </g>
    <g
       id="g10862"
       transform="translate(80.4132,283.4757)">
      <path
         d="m 0,0 -17.797,-17.798 v -64.735 l -6.868,-6.868 v -21.65 h -11.66 l -15.403,-15.403 h -28.685 v -142.374 h 600 v 172.089 h -66.496 l -16.912,-16.914 h -76.913 l -17.172,-17.172 H 125.408 l -19.774,19.774 H 86.289 v 32.775 l -17.13,19.682 V -6.401 L 62.758,0 Z"
         style="fill:#1f2d57;fill-opacity:1;fill-rule:nonzero;stroke:none"
         id="path10864" />
    </g>
    <g
       id="g10866"
       transform="translate(310.5207,302.3127)">
      <path
         d="m 0,0 -14.571,-14.57 v -50.372 l -15.196,-15.196 -8.561,14.829 v 54.485 l -13.308,-13.308 v -79.943 l 15.135,-26.213 v -43.051 h -34.531 l -14.727,-14.726 h -54.952 l -14.622,-14.621 H -268.1 l -23.911,23.91 h -18.51 V -302.313 H 289.48 v 111.647 h -33.87 l -12.074,12.072 H 134.883 l -9.785,9.785 h -14.57 l -8.534,8.533 H 91.586 v 69.522 l 12.489,12.489 v 63.278 L 89.088,0 Z"
         style="fill:#151821;fill-opacity:1;fill-rule:nonzero;stroke:none"
         id="path10868" />
    </g>
    <g
       id="g10870">
      <g
         id="g10872"
         clip-path="url(#clipPath10876)">
        <g
           id="g10878"
           transform="translate(166.9004,313.1406)">
          <path
             d="m 0,0 c 74.291,0 134.883,60.591 134.883,134.882 0,74.29 -60.592,134.882 -134.883,134.882 -74.29,0 -134.882,-60.592 -134.882,-134.882 C -134.882,60.591 -74.29,0 0,0"
             style="fill:#5476c3;fill-opacity:1;fill-rule:evenodd;stroke:none"
             id="path10880" />
        </g>
        <g
           id="g10882"
           transform="translate(166.9004,559.7998)">
          <path
             d="m 0,0 c 61.733,0 111.778,-50.045 111.778,-111.777 0,-61.734 -50.045,-111.778 -111.778,-111.778 -61.733,0 -111.777,50.044 -111.777,111.778 C -111.777,-50.045 -61.733,0 0,0"
             style="fill:#7e99d6;fill-opacity:1;fill-rule:evenodd;stroke:none"
             id="path10884" />
        </g>
        <g
           id="g10886"
           transform="translate(166.9004,536.6953)">
          <path
             d="m 0,0 c 48.973,0 88.672,-39.7 88.672,-88.673 0,-48.973 -39.699,-88.673 -88.672,-88.673 -48.972,0 -88.673,39.7 -88.673,88.673 C -88.673,-39.7 -48.972,0 0,0"
             style="fill:#abbde6;fill-opacity:1;fill-rule:evenodd;stroke:none"
             id="path10888" />
        </g>
        <g
           id="g10890"
           transform="translate(166.9004,513.5903)">
          <path
             d="m 0,0 c 36.212,0 65.568,-29.355 65.568,-65.568 0,-36.212 -29.356,-65.568 -65.568,-65.568 -36.212,0 -65.568,29.356 -65.568,65.568 C -65.568,-29.355 -36.212,0 0,0"
             style="fill:#d7e1f3;fill-opacity:1;fill-rule:evenodd;stroke:none"
             id="path10892" />
        </g>
        <g
           id="g10894"
           transform="translate(166.9004,405.5586)">
          <path
             d="M 0,0 C 23.388,0 42.464,19.076 42.464,42.464 42.464,65.852 23.388,84.927 0,84.927 -23.388,84.927 -42.463,65.852 -42.463,42.464 -42.463,19.076 -23.388,0 0,0"
             style="fill:#ffffff;fill-opacity:1;fill-rule:evenodd;stroke:none"
             id="path10896" />
        </g>
        <g
           id="g10898"
           transform="translate(432.7109,542.5234)">
          <path
             d="M 0,0 0.244,-0.796 1.041,-1.041 0.244,-1.286 0,-2.081 l -0.244,0.795 -0.797,0.245 0.797,0.245 z"
             style="fill:#ffffff;fill-opacity:1;fill-rule:evenodd;stroke:none"
             id="path10900" />
        </g>
        <g
           id="g10902"
           transform="translate(448.5313,512.9653)">
          <path
             d="M 0,0 0.93,-3.025 3.954,-3.955 0.93,-4.884 0,-7.909 l -0.93,3.025 -3.027,0.929 3.027,0.93 z"
             style="fill:#ffffff;fill-opacity:1;fill-rule:evenodd;stroke:none"
             id="path10904" />
        </g>
        <g
           id="g10906"
           transform="translate(474.1328,470.9189)">
          <path
             d="M 0,0 1.271,-4.141 5.412,-5.412 1.271,-6.684 0,-10.824 l -1.271,4.14 -4.142,1.272 4.142,1.271 z"
             style="fill:#ffffff;fill-opacity:1;fill-rule:evenodd;stroke:none"
             id="path10908" />
        </g>
        <g
           id="g10910"
           transform="translate(453.1084,425.9585)">
          <path
             d="M 0,0 0.442,-1.434 1.873,-1.874 0.442,-2.314 0,-3.747 l -0.439,1.433 -1.433,0.44 1.433,0.44 z"
             style="fill:#ffffff;fill-opacity:1;fill-rule:evenodd;stroke:none"
             id="path10912" />
        </g>
        <g
           id="g10914"
           transform="translate(294.7056,555.0127)">
          <path
             d="M 0,0 0.783,-2.548 3.331,-3.331 0.783,-4.113 0,-6.661 l -0.782,2.548 -2.548,0.782 2.548,0.783 z"
             style="fill:#ffffff;fill-opacity:1;fill-rule:evenodd;stroke:none"
             id="path10916" />
        </g>
        <g
           id="g10918"
           transform="translate(314.4199,517.042)">
          <path
             d="M 0,0 0.698,-2.275 2.975,-2.975 0.698,-3.674 0,-5.949 l -0.7,2.275 -2.276,0.699 2.276,0.7 z"
             style="fill:#ffffff;fill-opacity:1;fill-rule:evenodd;stroke:none"
             id="path10920" />
        </g>
        <g
           id="g10922"
           transform="translate(348.2012,456.3145)">
          <path
             d="M 0,0 0.53,-1.726 2.256,-2.255 0.53,-2.786 0,-4.512 l -0.53,1.726 -1.726,0.531 1.726,0.529 z"
             style="fill:#ffffff;fill-opacity:1;fill-rule:evenodd;stroke:none"
             id="path10924" />
        </g>
        <g
           id="g10926"
           transform="translate(313.8555,402.645)">
          <path
             d="M 0,0 0.294,-0.955 1.249,-1.249 0.294,-1.542 0,-2.497 l -0.293,0.955 -0.955,0.293 0.955,0.294 z"
             style="fill:#ffffff;fill-opacity:1;fill-rule:evenodd;stroke:none"
             id="path10928" />
        </g>
        <g
           id="g10930"
           transform="translate(310.1094,454.2671)">
          <path
             d="M 0,0 0.392,-1.274 1.666,-1.665 0.392,-2.057 0,-3.331 l -0.392,1.274 -1.273,0.392 1.273,0.391 z"
             style="fill:#ffffff;fill-opacity:1;fill-rule:evenodd;stroke:none"
             id="path10932" />
        </g>
        <g
           id="g10934"
           transform="translate(381.2969,541.6904)">
          <path
             d="M 0,0 0.684,-2.228 2.914,-2.913 0.684,-3.599 0,-5.828 l -0.686,2.229 -2.229,0.686 2.229,0.685 z"
             style="fill:#ffffff;fill-opacity:1;fill-rule:evenodd;stroke:none"
             id="path10936" />
        </g>
        <g
           id="g10938"
           transform="translate(390.8711,556.6772)">
          <path
             d="M 0,0 0.685,-2.229 2.914,-2.914 0.685,-3.599 0,-5.828 l -0.685,2.229 -2.228,0.685 2.228,0.685 z"
             style="fill:#ffffff;fill-opacity:1;fill-rule:evenodd;stroke:none"
             id="path10940" />
        </g>
        <g
           id="g10942"
           transform="translate(410.0898,513.3823)">
          <path
             d="M 0,0 0.799,-2.6 3.398,-3.398 0.799,-4.197 0,-6.796 l -0.799,2.599 -2.599,0.799 2.599,0.798 z"
             style="fill:#ffffff;fill-opacity:1;fill-rule:evenodd;stroke:none"
             id="path10944" />
        </g>
        <g
           id="g10946"
           transform="translate(423.3438,463.0093)">
          <path
             d="M 0,0 0.979,-3.185 4.163,-4.163 0.979,-5.141 0,-8.326 l -0.978,3.185 -3.184,0.978 3.184,0.978 z"
             style="fill:#ffffff;fill-opacity:1;fill-rule:evenodd;stroke:none"
             id="path10948" />
        </g>
        <g
           id="g10950"
           transform="translate(384.8359,398.8984)">
          <path
             d="M 0,0 0.832,-2.706 3.538,-3.538 0.832,-4.37 0,-7.077 l -0.832,2.707 -2.707,0.832 2.707,0.832 z"
             style="fill:#ffffff;fill-opacity:1;fill-rule:evenodd;stroke:none"
             id="path10952" />
        </g>
        <g
           id="g10954"
           transform="translate(387.542,365.5947)">
          <path
             d="M 0,0 1.468,-4.777 6.244,-6.245 1.468,-7.712 0,-12.489 l -1.468,4.777 -4.777,1.467 4.777,1.468 z"
             style="fill:#ffffff;fill-opacity:1;fill-rule:evenodd;stroke:none"
             id="path10956" />
        </g>
        <g
           id="g10958"
           transform="translate(439.7871,380.998)">
          <path
             d="M 0,0 1.223,-3.981 5.204,-5.204 1.223,-6.427 0,-10.408 l -1.222,3.981 -3.981,1.223 3.981,1.223 z"
             style="fill:#ffffff;fill-opacity:1;fill-rule:evenodd;stroke:none"
             id="path10960" />
        </g>
        <g
           id="g10962"
           transform="translate(519.5088,420.9629)">
          <path
             d="M 0,0 0.49,-1.592 2.081,-2.082 0.49,-2.571 0,-4.163 l -0.488,1.592 -1.594,0.489 1.594,0.49 z"
             style="fill:#ffffff;fill-opacity:1;fill-rule:evenodd;stroke:none"
             id="path10964" />
        </g>
        <g
           id="g10966"
           transform="translate(539.9092,399.731)">
          <path
             d="M 0,0 0.195,-0.637 0.832,-0.832 0.195,-1.028 0,-1.665 l -0.195,0.637 -0.637,0.196 0.637,0.195 z"
             style="fill:#ffffff;fill-opacity:1;fill-rule:evenodd;stroke:none"
             id="path10968" />
        </g>
        <g
           id="g10970"
           transform="translate(560.3066,372.6719)">
          <path
             d="M 0,0 0.49,-1.593 2.082,-2.082 0.49,-2.571 0,-4.164 l -0.488,1.593 -1.593,0.489 1.593,0.489 z"
             style="fill:#ffffff;fill-opacity:1;fill-rule:evenodd;stroke:none"
             id="path10972" />
        </g>
        <g
           id="g10974"
           transform="translate(551.7715,487.5713)">
          <path
             d="M 0,0 0.345,-1.115 1.459,-1.457 0.345,-1.8 0,-2.914 -0.341,-1.8 l -1.114,0.343 1.114,0.342 z"
             style="fill:#ffffff;fill-opacity:1;fill-rule:evenodd;stroke:none"
             id="path10976" />
        </g>
        <g
           id="g10978"
           transform="translate(539.4912,549.6006)">
          <path
             d="M 0,0 1.076,-3.503 4.581,-4.58 1.076,-5.656 0,-9.159 l -1.075,3.503 -3.502,1.076 3.502,1.077 z"
             style="fill:#ffffff;fill-opacity:1;fill-rule:evenodd;stroke:none"
             id="path10980" />
        </g>
        <g
           id="g10982"
           transform="translate(565.0957,567.0854)">
          <path
             d="M 0,0 0.537,-1.752 2.287,-2.29 0.537,-2.828 0,-4.58 l -0.539,1.752 -1.751,0.538 1.751,0.538 z"
             style="fill:#ffffff;fill-opacity:1;fill-rule:evenodd;stroke:none"
             id="path10984" />
        </g>
        <g
           id="g10986"
           transform="translate(499.3193,530.4502)">
          <path
             d="M 0,0 0.44,-1.433 1.873,-1.874 0.44,-2.313 0,-3.746 l -0.441,1.433 -1.432,0.439 1.432,0.441 z"
             style="fill:#ffffff;fill-opacity:1;fill-rule:evenodd;stroke:none"
             id="path10988" />
        </g>
        <g
           id="g10990"
           transform="translate(486.2041,575.8271)">
          <path
             d="M 0,0 1.076,-3.502 4.581,-4.579 1.076,-5.655 0,-9.158 l -1.076,3.503 -3.501,1.076 3.501,1.077 z"
             style="fill:#ffffff;fill-opacity:1;fill-rule:evenodd;stroke:none"
             id="path10992" />
        </g>
        <g
           id="g10994"
           transform="translate(511.8086,502.1421)">
          <path
             d="M 0,0 1.223,-3.981 5.204,-5.204 1.223,-6.427 0,-10.408 l -1.223,3.981 -3.981,1.223 3.981,1.223 z"
             style="fill:#ffffff;fill-opacity:1;fill-rule:evenodd;stroke:none"
             id="path10996" />
        </g>
        <g
           id="g10998"
           transform="translate(545.9453,445.1084)">
          <path
             d="M 0,0 1.417,-4.618 6.035,-6.037 1.417,-7.455 0,-12.073 l -1.418,4.618 -4.618,1.418 4.618,1.419 z"
             style="fill:#ffffff;fill-opacity:1;fill-rule:evenodd;stroke:none"
             id="path11000" />
        </g>
        <g
           id="g11002"
           transform="translate(579.249,403.062)">
          <path
             d="M 0,0 0.734,-2.389 3.122,-3.123 0.734,-3.856 0,-6.245 l -0.734,2.389 -2.388,0.733 2.388,0.734 z"
             style="fill:#ffffff;fill-opacity:1;fill-rule:evenodd;stroke:none"
             id="path11004" />
        </g>
        <g
           id="g11006"
           transform="translate(215.6079,296.9033)">
          <path
             d="M 0,0 1.076,-3.502 4.579,-4.579 1.076,-5.655 0,-9.158 l -1.076,3.503 -3.503,1.076 3.503,1.077 z"
             style="fill:#ffffff;fill-opacity:1;fill-rule:evenodd;stroke:none"
             id="path11008" />
        </g>
        <g
           id="g11010"
           transform="translate(230.9077,326.8521)">
          <path
             d="M 0,0 1.101,-3.583 4.684,-4.683 1.101,-5.784 0,-9.367 l -1.1,3.583 -3.583,1.101 3.583,1.1 z"
             style="fill:#ffffff;fill-opacity:1;fill-rule:evenodd;stroke:none"
             id="path11012" />
        </g>
        <g
           id="g11014"
           transform="translate(269.936,351.0229)">
          <path
             d="M 0,0 0.44,-1.434 1.873,-1.873 0.44,-2.313 0,-3.746 l -0.44,1.433 -1.434,0.44 1.434,0.439 z"
             style="fill:#ffffff;fill-opacity:1;fill-rule:evenodd;stroke:none"
             id="path11016" />
        </g>
        <g
           id="g11018"
           transform="translate(311.5664,363.9292)">
          <path
             d="M 0,0 0.831,-2.708 3.538,-3.539 0.831,-4.371 0,-7.077 l -0.832,2.706 -2.708,0.832 2.708,0.831 z"
             style="fill:#ffffff;fill-opacity:1;fill-rule:evenodd;stroke:none"
             id="path11020" />
        </g>
        <g
           id="g11022"
           transform="translate(353.8213,329.7915)">
          <path
             d="M 0,0 0.391,-1.274 1.664,-1.665 0.391,-2.056 0,-3.33 l -0.392,1.274 -1.273,0.391 1.273,0.391 z"
             style="fill:#ffffff;fill-opacity:1;fill-rule:evenodd;stroke:none"
             id="path11024" />
        </g>
        <g
           id="g11026"
           transform="translate(124.8545,312.3076)">
          <path
             d="M 0,0 0.88,-2.866 3.746,-3.747 0.88,-4.628 0,-7.494 l -0.88,2.866 -2.867,0.881 2.867,0.881 z"
             style="fill:#ffffff;fill-opacity:1;fill-rule:evenodd;stroke:none"
             id="path11028" />
        </g>
        <g
           id="g11030"
           transform="translate(17.5513,356.8521)">
          <path
             d="M 0,0 0.073,-0.239 0.312,-0.312 0.073,-0.386 0,-0.625 l -0.073,0.239 -0.239,0.074 0.239,0.073 z"
             style="fill:#ffffff;fill-opacity:1;fill-rule:evenodd;stroke:none"
             id="path11032" />
        </g>
        <g
           id="g11034"
           transform="translate(23.3789,336.6606)">
          <path
             d="M 0,0 0.807,-2.626 3.435,-3.434 0.807,-4.242 0,-6.868 l -0.807,2.626 -2.628,0.808 2.628,0.808 z"
             style="fill:#ffffff;fill-opacity:1;fill-rule:evenodd;stroke:none"
             id="path11036" />
        </g>
        <g
           id="g11038"
           transform="translate(40.5518,316.6777)">
          <path
             d="M 0,0 0.44,-1.433 1.874,-1.873 0.44,-2.313 0,-3.746 l -0.44,1.433 -1.433,0.44 1.433,0.44 z"
             style="fill:#ffffff;fill-opacity:1;fill-rule:evenodd;stroke:none"
             id="path11040" />
        </g>
        <g
           id="g11042"
           transform="translate(51.688,346.0278)">
          <path
             d="M 0,0 0.611,-1.99 2.602,-2.602 0.611,-3.213 0,-5.204 l -0.611,1.991 -1.991,0.611 1.991,0.612 z"
             style="fill:#ffffff;fill-opacity:1;fill-rule:evenodd;stroke:none"
             id="path11044" />
        </g>
        <g
           id="g11046"
           transform="translate(75.7295,337.4927)">
          <path
             d="M 0,0 0.831,-2.706 3.538,-3.537 0.831,-4.369 0,-7.076 l -0.832,2.707 -2.707,0.832 2.707,0.831 z"
             style="fill:#ffffff;fill-opacity:1;fill-rule:evenodd;stroke:none"
             id="path11048" />
        </g>
        <g
           id="g11050"
           transform="translate(65.1138,369.3408)">
          <path
             d="M 0,0 0.489,-1.592 2.081,-2.082 0.489,-2.57 0,-4.163 l -0.489,1.593 -1.593,0.488 1.593,0.49 z"
             style="fill:#ffffff;fill-opacity:1;fill-rule:evenodd;stroke:none"
             id="path11052" />
        </g>
        <g
           id="g11054"
           transform="translate(72.9194,320.2173)">
          <path
             d="M 0,0 0.562,-1.832 2.394,-2.395 0.562,-2.957 0,-4.788 l -0.562,1.831 -1.831,0.562 1.831,0.563 z"
             style="fill:#ffffff;fill-opacity:1;fill-rule:evenodd;stroke:none"
             id="path11056" />
        </g>
        <g
           id="g11058"
           transform="translate(24.8364,391.1968)">
          <path
             d="M 0,0 0.71,-2.309 3.018,-3.019 0.71,-3.727 0,-6.037 l -0.709,2.31 -2.309,0.708 2.309,0.71 z"
             style="fill:#ffffff;fill-opacity:1;fill-rule:evenodd;stroke:none"
             id="path11060" />
        </g>
        <g
           id="g11062"
           transform="translate(14.7412,586.0273)">
          <path
             d="M 0,0 0.147,-0.479 0.625,-0.625 0.147,-0.772 0,-1.25 l -0.146,0.478 -0.478,0.147 0.478,0.146 z"
             style="fill:#ffffff;fill-opacity:1;fill-rule:evenodd;stroke:none"
             id="path11064" />
        </g>
        <g
           id="g11066"
           transform="translate(22.4434,545.229)">
          <path
             d="M 0,0 0.489,-1.592 2.081,-2.082 0.489,-2.571 0,-4.163 l -0.489,1.592 -1.593,0.489 1.593,0.49 z"
             style="fill:#ffffff;fill-opacity:1;fill-rule:evenodd;stroke:none"
             id="path11068" />
        </g>
        <g
           id="g11070"
           transform="translate(21.4028,514.8389)">
          <path
             d="M 0,0 0.538,-1.751 2.289,-2.29 0.538,-2.828 0,-4.579 l -0.539,1.751 -1.751,0.538 1.751,0.539 z"
             style="fill:#ffffff;fill-opacity:1;fill-rule:evenodd;stroke:none"
             id="path11072" />
        </g>
        <g
           id="g11074"
           transform="translate(25.9814,483.2002)">
          <path
             d="M 0,0 0.833,-2.708 3.539,-3.539 0.833,-4.37 0,-7.077 l -0.831,2.707 -2.707,0.831 2.707,0.831 z"
             style="fill:#ffffff;fill-opacity:1;fill-rule:evenodd;stroke:none"
             id="path11076" />
        </g>
        <g
           id="g11078"
           transform="translate(20.9858,443.2349)">
          <path
             d="M 0,0 1.126,-3.663 4.788,-4.788 1.126,-5.913 0,-9.575 l -1.124,3.662 -3.663,1.125 3.663,1.125 z"
             style="fill:#ffffff;fill-opacity:1;fill-rule:evenodd;stroke:none"
             id="path11080" />
        </g>
        <g
           id="g11082"
           transform="translate(32.0181,408.6812)">
          <path
             d="M 0,0 0.979,-3.185 4.163,-4.163 0.979,-5.141 0,-8.326 l -0.979,3.185 -3.184,0.978 3.184,0.978 z"
             style="fill:#ffffff;fill-opacity:1;fill-rule:evenodd;stroke:none"
             id="path11084" />
        </g>
        <g
           id="g11086"
           transform="translate(47.2134,476.5391)">
          <path
             d="M 0,0 0.733,-2.389 3.122,-3.123 0.733,-3.856 0,-6.245 l -0.734,2.389 -2.388,0.733 2.388,0.734 z"
             style="fill:#ffffff;fill-opacity:1;fill-rule:evenodd;stroke:none"
             id="path11088" />
        </g>
        <g
           id="g11090"
           transform="translate(58.0371,535.6543)">
          <path
             d="M 0,0 0.147,-0.479 0.624,-0.625 0.147,-0.771 0,-1.25 l -0.147,0.479 -0.478,0.146 0.478,0.146 z"
             style="fill:#ffffff;fill-opacity:1;fill-rule:evenodd;stroke:none"
             id="path11092" />
        </g>
        <g
           id="g11094"
           transform="translate(69.9014,569.3745)">
          <path
             d="M 0,0 0.293,-0.956 1.25,-1.249 0.293,-1.543 0,-2.497 l -0.293,0.954 -0.956,0.294 0.956,0.293 z"
             style="fill:#ffffff;fill-opacity:1;fill-rule:evenodd;stroke:none"
             id="path11096" />
        </g>
        <g
           id="g11098"
           transform="translate(95.9204,579.7827)">
          <path
             d="M 0,0 0.245,-0.796 1.041,-1.041 0.245,-1.286 0,-2.083 l -0.245,0.797 -0.796,0.245 0.796,0.245 z"
             style="fill:#ffffff;fill-opacity:1;fill-rule:evenodd;stroke:none"
             id="path11100" />
        </g>
        <g
           id="g11102"
           transform="translate(40.5522,572.7051)">
          <path
             d="M 0,0 0.538,-1.751 2.29,-2.29 0.538,-2.828 0,-4.58 l -0.538,1.752 -1.752,0.538 1.752,0.539 z"
             style="fill:#ffffff;fill-opacity:1;fill-rule:evenodd;stroke:none"
             id="path11104" />
        </g>
        <g
           id="g11106"
           transform="translate(92.5908,565.2114)">
          <path
             d="M 0,0 0.733,-2.389 3.122,-3.122 0.733,-3.856 0,-6.245 l -0.734,2.389 -2.388,0.734 2.388,0.733 z"
             style="fill:#ffffff;fill-opacity:1;fill-rule:evenodd;stroke:none"
             id="path11108" />
        </g>
        <g
           id="g11110"
           transform="translate(162.2427,582.3579)">
          <path
             d="M 0,0 1.78,-5.792 7.571,-7.572 1.78,-9.351 0,-15.144 l -1.78,5.793 -5.792,1.779 5.792,1.78 z"
             style="fill:#ffffff;fill-opacity:1;fill-rule:evenodd;stroke:none"
             id="path11112" />
        </g>
        <g
           id="g11114"
           transform="translate(204.1519,583.1128)">
          <path
             d="M 0,0 0.731,-2.383 3.113,-3.114 0.731,-3.846 0,-6.229 l -0.732,2.383 -2.383,0.732 2.383,0.731 z"
             style="fill:#ffffff;fill-opacity:1;fill-rule:evenodd;stroke:none"
             id="path11116" />
        </g>
        <g
           id="g11118"
           transform="translate(236.0063,560.6323)">
          <path
             d="M 0,0 1.272,-4.141 5.413,-5.413 1.272,-6.684 0,-10.824 l -1.271,4.14 -4.141,1.271 4.141,1.272 z"
             style="fill:#ffffff;fill-opacity:1;fill-rule:evenodd;stroke:none"
             id="path11120" />
        </g>
        <g
           id="g11122"
           transform="translate(271.3931,579.7827)">
          <path
             d="M 0,0 1.564,-5.096 6.661,-6.662 1.564,-8.227 0,-13.323 l -1.567,5.096 -5.095,1.565 5.095,1.566 z"
             style="fill:#ffffff;fill-opacity:1;fill-rule:evenodd;stroke:none"
             id="path11124" />
        </g>
        <g
           id="g11126"
           transform="translate(328.6348,583.9448)">
          <path
             d="M 0,0 0.538,-1.751 2.289,-2.289 0.538,-2.828 0,-4.579 l -0.538,1.751 -1.752,0.539 1.752,0.538 z"
             style="fill:#ffffff;fill-opacity:1;fill-rule:evenodd;stroke:none"
             id="path11128" />
        </g>
        <g
           id="g11130"
           transform="translate(336.752,561.4648)">
          <path
             d="M 0,0 1.271,-4.14 5.412,-5.412 1.271,-6.683 0,-10.823 l -1.272,4.14 -4.14,1.271 4.14,1.272 z"
             style="fill:#ffffff;fill-opacity:1;fill-rule:evenodd;stroke:none"
             id="path11132" />
        </g>
        <g
           id="g11134"
           transform="translate(406.2744,586.4434)">
          <path
             d="M 0,0 0.489,-1.592 2.081,-2.082 0.489,-2.572 0,-4.163 l -0.489,1.591 -1.593,0.49 1.593,0.49 z"
             style="fill:#ffffff;fill-opacity:1;fill-rule:evenodd;stroke:none"
             id="path11136" />
        </g>
        <g
           id="g11138"
           transform="translate(258.8848,198.2373)">
          <path
             d="M 0,0 2.727,78.266 13.308,93.251 0,79.943 Z"
             style="fill:#abbde6;fill-opacity:1;fill-rule:evenodd;stroke:none"
             id="path11140" />
        </g>
        <g
           id="g11142"
           transform="translate(295.9497,287.7422)">
          <path
             d="m 0,0 15.827,11.245 87.833,3.326 H 14.571 Z"
             style="fill:#abbde6;fill-opacity:1;fill-rule:evenodd;stroke:none"
             id="path11144" />
        </g>
      </g>
    </g>
  </g>
</svg>
