<?xml version="1.0"?>
<svg xmlns:rdf="http://www.w3.org/1999/02/22-rdf-syntax-ns#" xmlns="http://www.w3.org/2000/svg" xmlns:cc="http://creativecommons.org/ns#" xmlns:dc="http://purl.org/dc/elements/1.1/" xmlns:svg="http://www.w3.org/2000/svg" id="svg2" viewBox="0 0 140.35 86.479" version="1.1">
  <g id="layer1" transform="translate(-96.465 -837.98)">
    <g id="g3778" transform="matrix(1.1121 0 0 1.1121 -10.81 -93.902)">
      <path id="path2832" stroke="#f3c5dc" stroke-width="2" fill="#f9e3ee" d="m102.26 883.08s-6.1564 5.2119-4.5217 7.6989c1.5204 2.3131 5.706-2.1321 8.2411-1.0206 1.6229 0.71154 1.3824 4.782 3.094 4.323 0 0 4.3715-2.6281 6.3665-1.7074 1.7433 0.80457 0.63034 5.7364 2.4744 5.2016 0 0 4.2015-2.715 6.0903-1.7661 1.8641 0.9365 0.36013 4.8604 2.1896 5.8627 2.1245 1.164 6.474-3.8599 7.1063-1.5214 0 0-0.11432 5.0875 1.6974 6.2777 1.5678 1.03 4.001-1.8379 5.5694-0.8087 1.6364 1.0739-0.36817 6.1089 1.5385 5.6667 0 0 4.1141-2.1483 6.0416-1.4012 1.825 0.70741 1.4249 5.2778 3.3315 4.8352 1.9198-0.4456 0.86699-5.8485 0.86699-5.8485l0.21369 0.15272-8.4068-6.929-7.3868-5.7735-9.1414-4.4317-9.4186-3.5109-8.6233-3.2195-7.3226-2.0803z"/>
      <path id="path2834" stroke="#f3c5dc" stroke-width="2" fill="#f9e3ee" d="m166.68 907.7s-1.0225 6.3096 1.1951 6.604c2.014 0.2674 0.87365-4.4564 2.6128-5.5066 1.8304-1.1054 6.4095 0.26451 6.4095 0.26451 1.7688 0.073-0.41551-4.0854 0.93713-5.2275 1.7604-1.4863 6.9117-0.0618 6.9117-0.0618 1.2811-0.0114-1.0805-2.8567-0.25342-3.8351 1.7102-2.023 7.9062-0.80304 7.9062-0.80304 1.8959-0.19259-0.48558-3.699 0.86845-5.04 2.0943-2.0742 5.5137 1.0845 5.5137 1.0845 2.1344 0.1945 0.79699-4.8027 2.7802-5.6153 2.032-0.83257 3.6812 3.0733 5.7427 2.3166 1.802-0.66147 0.75079-4.453 2.5742-5.053 2.0807-0.68467 2.9531 2.58 4.5492 2.092 1.1158-0.34116 0.84746-2.334 1.8187-2.9909 1.0541-0.71285 4.6228 1.75 5.3148 0.1186 1-2.3578-5.4623-5.4033-5.4623-5.4033l-0.005 0.2362-17.536 3.3782-12.97 6.6747-11.794 9.2104-7.1142 7.5566z"/>
      <path id="path2830" stroke="#d4428b" stroke-width="2" fill="#eba6c8" d="m111.46 846.01c33.878 8.2141 63.444 5.4122 89.24-7.0235l15.714 42.074c-19.397 3.0456-36.074 11.786-49.824 26.653l-14.433 1.0909c-14.356-12.861-31.274-20.916-49.977-25.625l9.2802-37.169z"/>
      <path id="path3610" transform="matrix(.57212 -.064614 .064614 .57212 17.044 380.12)" fill="#f3c5dc" d="m174 870.16c0 2.3013-1.8656 4.1669-4.1669 4.1669s-4.1669-1.8656-4.1669-4.1669 1.8656-4.1669 4.1669-4.1669 4.1669 1.8656 4.1669 4.1669z"/>
      <path id="path3610-1" transform="matrix(.57212 -.064614 .064614 .57212 .079931 406.56)" fill="#f3c5dc" d="m174 870.16c0 2.3013-1.8656 4.1669-4.1669 4.1669s-4.1669-1.8656-4.1669-4.1669 1.8656-4.1669 4.1669-4.1669 4.1669 1.8656 4.1669 4.1669z"/>
      <path id="path3610-4" transform="matrix(.57212 -.064614 .064614 .57212 17.836 401.76)" fill="#f3c5dc" d="m174 870.16c0 2.3013-1.8656 4.1669-4.1669 4.1669s-4.1669-1.8656-4.1669-4.1669 1.8656-4.1669 4.1669-4.1669 4.1669 1.8656 4.1669 4.1669z"/>
      <path id="path3610-9" transform="matrix(.57212 -.064614 .064614 .57212 5.8794 390.4)" fill="#f3c5dc" d="m174 870.16c0 2.3013-1.8656 4.1669-4.1669 4.1669s-4.1669-1.8656-4.1669-4.1669 1.8656-4.1669 4.1669-4.1669 4.1669 1.8656 4.1669 4.1669z"/>
      <path id="path3610-8" transform="matrix(.57212 -.064614 .064614 .57212 -9.9152 381.06)" fill="#f3c5dc" d="m174 870.16c0 2.3013-1.8656 4.1669-4.1669 4.1669s-4.1669-1.8656-4.1669-4.1669 1.8656-4.1669 4.1669-4.1669 4.1669 1.8656 4.1669 4.1669z"/>
      <path id="path3610-2" transform="matrix(.57212 -.064614 .064614 .57212 -12.935 395.95)" fill="#f3c5dc" d="m174 870.16c0 2.3013-1.8656 4.1669-4.1669 4.1669s-4.1669-1.8656-4.1669-4.1669 1.8656-4.1669 4.1669-4.1669 4.1669 1.8656 4.1669 4.1669z"/>
      <path id="path3610-5" transform="matrix(.57212 -.064614 .064614 .57212 31.261 392.36)" fill="#f3c5dc" d="m174 870.16c0 2.3013-1.8656 4.1669-4.1669 4.1669s-4.1669-1.8656-4.1669-4.1669 1.8656-4.1669 4.1669-4.1669 4.1669 1.8656 4.1669 4.1669z"/>
      <path id="path3610-7" transform="matrix(.57212 -.064614 .064614 .57212 1.9527 370.26)" fill="#f3c5dc" d="m174 870.16c0 2.3013-1.8656 4.1669-4.1669 4.1669s-4.1669-1.8656-4.1669-4.1669 1.8656-4.1669 4.1669-4.1669 4.1669 1.8656 4.1669 4.1669z"/>
      <path id="path3610-52" transform="matrix(.57212 -.064614 .064614 .57212 26.812 368.72)" fill="#f3c5dc" d="m174 870.16c0 2.3013-1.8656 4.1669-4.1669 4.1669s-4.1669-1.8656-4.1669-4.1669 1.8656-4.1669 4.1669-4.1669 4.1669 1.8656 4.1669 4.1669z"/>
      <path id="path3610-14" transform="matrix(.57212 -.064614 .064614 .57212 35.322 378.81)" fill="#f3c5dc" d="m174 870.16c0 2.3013-1.8656 4.1669-4.1669 4.1669s-4.1669-1.8656-4.1669-4.1669 1.8656-4.1669 4.1669-4.1669 4.1669 1.8656 4.1669 4.1669z"/>
      <path id="path3610-3" transform="matrix(.57212 -.064614 .064614 .57212 42.854 364.49)" fill="#f3c5dc" d="m174 870.16c0 2.3013-1.8656 4.1669-4.1669 4.1669s-4.1669-1.8656-4.1669-4.1669 1.8656-4.1669 4.1669-4.1669 4.1669 1.8656 4.1669 4.1669z"/>
      <path id="path3610-16" transform="matrix(.57212 -.064614 .064614 .57212 48.764 386.45)" fill="#f3c5dc" d="m174 870.16c0 2.3013-1.8656 4.1669-4.1669 4.1669s-4.1669-1.8656-4.1669-4.1669 1.8656-4.1669 4.1669-4.1669 4.1669 1.8656 4.1669 4.1669z"/>
      <path id="path3610-76" transform="matrix(.57212 -.064614 .064614 .57212 10.638 415.66)" fill="#f3c5dc" d="m174 870.16c0 2.3013-1.8656 4.1669-4.1669 4.1669s-4.1669-1.8656-4.1669-4.1669 1.8656-4.1669 4.1669-4.1669 4.1669 1.8656 4.1669 4.1669z"/>
      <path id="path3610-92" transform="matrix(.57212 -.064614 .064614 .57212 -27.251 382.83)" fill="#f3c5dc" d="m174 870.16c0 2.3013-1.8656 4.1669-4.1669 4.1669s-4.1669-1.8656-4.1669-4.1669 1.8656-4.1669 4.1669-4.1669 4.1669 1.8656 4.1669 4.1669z"/>
      <path id="path3610-54" transform="matrix(.57212 -.064614 .064614 .57212 -31.452 396.27)" fill="#f3c5dc" d="m174 870.16c0 2.3013-1.8656 4.1669-4.1669 4.1669s-4.1669-1.8656-4.1669-4.1669 1.8656-4.1669 4.1669-4.1669 4.1669 1.8656 4.1669 4.1669z"/>
      <path id="path3610-12" transform="matrix(.57212 -.064614 .064614 .57212 -22.911 369.51)" fill="#f3c5dc" d="m174 870.16c0 2.3013-1.8656 4.1669-4.1669 4.1669s-4.1669-1.8656-4.1669-4.1669 1.8656-4.1669 4.1669-4.1669 4.1669 1.8656 4.1669 4.1669z"/>
      <path id="path3610-41" transform="matrix(.57212 -.064614 .064614 .57212 -38.686 374.97)" fill="#f3c5dc" d="m174 870.16c0 2.3013-1.8656 4.1669-4.1669 4.1669s-4.1669-1.8656-4.1669-4.1669 1.8656-4.1669 4.1669-4.1669 4.1669 1.8656 4.1669 4.1669z"/>
      <path id="path3610-87" transform="matrix(.57212 -.064614 .064614 .57212 -42.553 387.99)" fill="#f3c5dc" d="m174 870.16c0 2.3013-1.8656 4.1669-4.1669 4.1669s-4.1669-1.8656-4.1669-4.1669 1.8656-4.1669 4.1669-4.1669 4.1669 1.8656 4.1669 4.1669z"/>
    </g>
  </g>
  <metadata>
    <rdf:RDF>
      <cc:Work>
        <dc:format>image/svg+xml</dc:format>
        <dc:type rdf:resource="http://purl.org/dc/dcmitype/StillImage"/>
        <cc:license rdf:resource="http://creativecommons.org/licenses/publicdomain/"/>
        <dc:publisher>
          <cc:Agent rdf:about="http://openclipart.org/">
            <dc:title>Openclipart</dc:title>
          </cc:Agent>
        </dc:publisher>
        <dc:title>Pink dotted panties</dc:title>
        <dc:date>2010-08-09T03:44:48</dc:date>
        <dc:description>Pink dotted panties.</dc:description>
        <dc:source>http://openclipart.org/detail/78697/pink-dotted-panties-by-laobc</dc:source>
        <dc:creator>
          <cc:Agent>
            <dc:title>laobc</dc:title>
          </cc:Agent>
        </dc:creator>
        <dc:subject>
          <rdf:Bag>
            <rdf:li>black and white</rdf:li>
            <rdf:li>clip art</rdf:li>
            <rdf:li>clipart</rdf:li>
            <rdf:li>clothes</rdf:li>
            <rdf:li>clothing</rdf:li>
            <rdf:li>coloring book</rdf:li>
            <rdf:li>knickers</rdf:li>
            <rdf:li>panties</rdf:li>
            <rdf:li>underwear</rdf:li>
            <rdf:li>undies</rdf:li>
          </rdf:Bag>
        </dc:subject>
      </cc:Work>
      <cc:License rdf:about="http://creativecommons.org/licenses/publicdomain/">
        <cc:permits rdf:resource="http://creativecommons.org/ns#Reproduction"/>
        <cc:permits rdf:resource="http://creativecommons.org/ns#Distribution"/>
        <cc:permits rdf:resource="http://creativecommons.org/ns#DerivativeWorks"/>
      </cc:License>
    </rdf:RDF>
  </metadata>
</svg>
