<?xml version="1.0" encoding="UTF-8" standalone="no"?>
<svg id="svg2" xmlns:rdf="http://www.w3.org/1999/02/22-rdf-syntax-ns#" xmlns="http://www.w3.org/2000/svg" height="863pt" width="982pt" version="1.1" xmlns:cc="http://creativecommons.org/ns#" xmlns:dc="http://purl.org/dc/elements/1.1/" viewBox="0 0 982 863">
<g>
<path id="path4" d="m279.65 0h12.74c136.85 70.82 271.16 146.73 406.77 219.94 3.58 2.27 7.38-0.78 10.74-1.95 49.64-22.81 100.15-46.38 154.99-53.09 29.59-3.42 59.83-12.69 89.49-5.23 15.57 4.06 23.73 22.16 17.07 36.71-13.64 28.9-42.03 46.24-64.75 67.32-43.63 38.61-97.89 60.98-150.65 83.71-31.33 149.01-60.93 298.39-89.65 447.92-1.53 3.91-0.96 9.8-5.49 11.67-28.56 13.23-56.49 27.78-85.02 41.06-4.1 2.53-12.07 3.69-12.59-2.85-2.17-136.68-4.1-273.38-5.29-410.08-110.92 48.43-220.78 100.56-331.88 149.04-10.54 36.32-14.78 75.38-26.13 111.75-19.94 12.17-43 20.23-64 31.15-5.07 2.99-14.47 5.19-15.72-2.84 1.54-44.02 3.57-89.09 6.72-132.36-0.11 43.85-1.93 87.77-2.85 131.56 0.48 2.11 2.42 3.27 4.27 1.87 19.18-8.33 37.34-18.9 56.54-27.22 4.17-2.58 11.16-3.68 11.68-9.57 6.95-35.57 14.41-71.05 21.06-106.67 0.37-4.68 6.01-5.11 9.23-7.01 112.54-51.24 224.49-103.81 336.24-156.76 3.46-2.48 9.51-0.78 6.71 5.03 4.37 133.56 8.44 267.13 11.96 400.72 21.69-10.5 43.48-21.1 64.7-32.43 28.26-150.91 58.31-301.58 89.86-451.88 0.91-5.95 6.04-9.92 11.48-11.71 49.06-19.9 98.73-40.87 139.71-75.21 19.49-17.44 41.16-32.83 57.99-52.99 2.84-4.93 12.05-14.73 4.01-19.54-28.39-6.14-57.14 2.72-85.41 6.11-55.15 8.19-105.39 33.34-155.2 56.89-3.06 1.23-6.6 3.84-9.93 1.94-135.75-73.16-271.73-145.95-408.1-217.95-5.32-3.48-11.04 0.84-15.89 2.95-27.39 13.58-55.49 25.77-82.62 39.84-2.28 6.07 3.78 9.82 7.54 13.23 105.59 85.51 212.52 169.45 318.98 253.83-110.45 57.39-219.92 116.77-330.74 173.44-3.73 1.77-7.01-2-10.22-3.29-30.9-18.22-62.12-35.91-93.03-54.11-2.96-1.73-6.51-3.81-9.94-2.03-21.56 9.69-42.7 20.35-64.38 29.77-3.11 0.87-3.29 4.71-1.3 6.8 30.79 26.62 63.53 51.2 93.51 78.7-33.67-27.39-72.17-49.95-102.86-80.33v-3.51c1.24-3.27 2.81-6.8 6.13-8.41 21.39-10.84 42.65-21.94 63.94-32.96 4.79-2.71 10.61-3.9 15.6-0.75 33.55 17.3 66.78 35.31 100.38 52.51 96.05-52.91 191.16-107.85 287.74-159.88-0.11-1-0.57-1.79-1.4-2.36-99.7-76.27-198.51-153.78-296.11-232.73-16.69-13.09-13.72-41.83 5.03-51.49 32.64-15.7 65.05-31.99 98.34-46.27z"/>
<path id="path6" d="m284.99 34.33c3.6-0.6 6.77 2.51 10.05 3.62 133.88 68.29 266.45 139.15 398.94 210.15 3 1.41 6.02 3.25 9.55 2.69 26.87-11.13 52.48-25.26 79.64-35.7-25.32 13.08-51.44 25.13-76.87 38.23-5.77 3.4-12.01-1.26-17.31-3.31-134.23-67.23-268.69-134.16-402.78-201.57-19.06 9.57-38.9 17.92-57.34 28.56 100.77 80.18 201.98 160.16 303.21 239.9 16.85 6.96 18.96 32.58 1.16 39.38-113.04 58.95-225.59 118.85-338.99 177.05-9.97 4.64-20.51-1.33-28.68-6.92-29.43-16.67-58.6-33.81-87.71-51-10.28 4.37-21.43 7.86-30.98 13.44 30.17 25.8 59.55 52.52 88.82 79.31 3.97 3.15 8.74 11.25 5.51 15.63-1.01-4.35-0.92-9.36-4.68-12.42-35.15-28.88-72.03-55.9-106.62-85.31 16.15-7.78 32.28-16.69 48.89-22.92 34.42 18.68 68.27 38.64 102.58 57.6 3.29 1.69 7.35 0.91 10.51-0.72 111.77-58.2 223.42-116.66 335.06-175.11 7.39-1.99 8.17-11.07 1.78-14.62-108.06-85.69-216.75-170.64-324.87-256.23 26.93-13.46 53.8-27.11 81.13-39.73z"/>
<path id="path8" d="m285.67 55.4c135.82 67.35 270.99 136.32 406.41 204.57 4.45 2.04 9.79 4.06 14.58 1.81 33.93-14.76 66.03-33.73 100.99-46.12 37.37-14.78 77.68-19.04 117.02-25.46 2.49-2.11 7.31-12.75 6.53-2.24 4.58 8.71 10.05-8.11 11.76 2.74-4.18-2.05-11.98 3.98-6.71 7.17 4.46 3.16-4.09 1.33-6.58 2.5-33.44 31.86-68.13 63.53-109.67 84.63-25.82 14.68-53.98 24.51-80.78 37.14-8.13 2.79-10.91 11.35-12.08 18.99-30.04 148.22-58.25 296.83-86.54 445.36-16.63 9.13-34.34 18.44-52.03 26.03-1.93-131.19-5.06-262.39-7.36-393.59 0.21-11.02-12.88-16.03-21.64-11.41-60.9 28.12-122.04 55.75-182.66 84.47-1.02 0.33-5.25 2.05-2.89 0.01 62.11-29.64 124.32-59.2 186.62-88.47 13.17-6.08 27.47 7.4 24.64 21.11 3.43 126.43 7 252.83 8.52 379.26 14.15-6.71 28.31-13.69 41.77-21.61 26.78-148.01 54.15-295.91 81.99-443.72 1.61-9.7 6.29-20 15.55-24.49 28.75-14.13 59.38-24.48 86.93-41.04 34.24-18.5 64.16-44.14 91.79-71.13-38.07 5.66-76.59 11.49-112.26 26.66-29.86 11.91-58.26 27.1-87.41 40.56-8.19 3.25-17.8 2.75-25.25-2.14-133.32-67.73-266.76-135.32-400.15-202.83-11.03 3.62-22.97 10.09-32.5 15.78 97.59 78.68 196.41 157.31 293.45 237.19 13.09 13.18 8.72 38.72-8.91 45.69-69.03 34.56-137.6 70.22-206.92 104.12 68.57-37.47 139.01-72.01 207.86-109.16 14.25-7.84 14.93-30.08 1.99-39.57-100.11-79.55-200.2-159.17-300.53-238.44-0.93-0.61-1.26-1.44-0.97-2.51 15.24-7.08 30.19-14.8 45.44-21.86z"/>
<path id="path10" d="m881.88 155.43c23.14-4.5 46.96-9.34 70.55-5.1 14.24 2.5 25.78 13.46 29.57 27.3v15.63c-9.81 32.06-39.59 51.1-62.75 72.99-40.4 36.5-89.44 62.04-140.2 80.84 50.49-22.5 100.67-48.39 141.37-86.67 19.86-18.3 43.6-34.41 55.53-59.46 7.7-15.15 3.03-36.27-13.08-43.93-25.11-13.24-54.71-2.32-80.99-1.6z"/>
<path id="path12" d="m876.65 156.21c4.19-2.63 1.74 3.86 0 0z"/>
<path id="path14" d="m786.25 213.01c4.7 1.8-5.52 2.84 0 0z"/>
<path id="path16" d="m776.25 347.01c4.7 1.8-5.52 2.84 0 0z"/>
<path id="path18" d="m496.25 441.01c4.7 1.8-5.52 2.84 0 0z"/>
<path id="path20" d="m485.51 446.42c4.22-0.71-7.4 6.3-8.14 3.98 2.46-1.77 5.31-2.94 8.14-3.98z"/>
<path id="path22" d="m474.54 451.49c3.61-1.53-1.51 2.33-2.59 2.51-84.36 38.84-168.33 78.54-252.9 116.94-2.33 1.27-5.44 2.02-6.79 4.54-8.35 37.26-14.73 75.06-23.52 112.18-18.32 8.84-36.73 17.56-55.09 26.31-1.73-18.43 0.21-41.18 1.34-59.01 0 18.89 0.67 37.85-1.56 56.65 17.99-8.1 36.02-16.59 53.42-25.87 9.29-37.29 13.4-76.69 24.36-113.56 87.2-41.36 175.55-80.51 263.33-120.69z"/>
<path id="path24" d="m727.21 512.65c3.85 1.74-2.64 4.2 0 0z"/>
<path id="path26" d="m672.49 799.39c17.93-94.21 35.47-188.54 54.44-282.51-15.22 95.41-32.15 190.64-49.24 285.76-0.58 7.51-6 13.53-12.66 16.47-30.23 14.6-60.23 29.66-90.63 43.89h-9.83c-9.27-2.72-15.69-12.43-14.61-22.04 0.84-38.34-1.5-78.55 1.13-115.75 3.72 37.09 2.87 79.77 4.39 118.93-0.23 9.2 10.68 16.24 18.97 12.45 30.57-14.6 60.84-29.84 91.3-44.67 4.41-2.43 5.77-7.99 6.74-12.53z"/>
<path id="path28" d="m124.95 578.75c6.56 6.72 1.21 10.32 0 0z"/>
<path id="path30" d="m135.05 626.02c2.25 7.27 0.61 18.92 0.9 27.96-2.25-7.28-0.62-18.94-0.9-27.96z"/>
</g>
</svg>
