<?xml version="1.0"?>
<svg xmlns:rdf="http://www.w3.org/1999/02/22-rdf-syntax-ns#" xmlns="http://www.w3.org/2000/svg" xmlns:cc="http://web.resource.org/cc/" xmlns:xlink="http://www.w3.org/1999/xlink" xmlns:dc="http://purl.org/dc/elements/1.1/" xmlns:svg="http://www.w3.org/2000/svg" id="Layer_1" xml:space="preserve" overflow="visible" viewBox="0 0 146.379 419.843" version="1.1" enable-background="new 0 0 146.379 419.843">
<g clip-rule="evenodd" fill-rule="evenodd">
	<path d="m57.225 2.937c-1.181 1.99-2.855 3.486-6.154 3.357 0.379-2.791 3.196-3.144 6.154-3.357z" fill="#EFF0F0"/>
	<path d="m82.961 2.937c-1.438 2.842-3.354 2.732-6.714 2.798 1.562-2.518 3.897-2.646 6.714-2.798z" fill="#EFF0F0"/>
	<path d="m109.26 54.41c-1.846 3.003-5.171 4.526-7.273 7.273-3.285-8.428-6.564-19.621-10.07-29.093-1.481-4.002-3.876-8.338-6.154-13.987-2.212-5.482-6.014-11.541-1.119-14.547 0.903-0.158 0.963 0.529 1.679 0.56 7.815 16.422 14.834 33.643 22.934 49.794z" fill="#EFF0F0"/>
	<path d="m57.225 5.175h1.119v1.119h-1.119v-1.119z" fill="#EFF0F0"/>
	<path d="m53.309 7.413c0.822 7.72 1.699 18.075 2.238 26.855-2.008-0.33-2.707 0.65-3.917 1.119-0.095 1.4 0.859 1.751 1.679 2.238-0.81 1.242-3.33 0.773-4.476 1.678 0.224 1.455 1.669 1.688 1.678 3.357-1.709-0.404-2.039 0.572-3.356 0.56-0.242 2.107 1.182 2.548 2.238 3.357-0.39 1.475-2.547 1.183-2.797 2.797 0.396 1.47 2.625 1.104 3.357 2.238-0.067 1.611-2.386 0.971-2.238 2.797 0.847 0.832 2.456 0.901 3.917 1.119-3.417 4.147-14.246 1.517-20.701 2.798 5.501-16.876 11.544-33.212 16.782-50.353 2.383 0.33 3.701-0.403 5.596-0.56z" fill="#EFF0F0"/>
	<path d="m74.569 7.413c2.286 0.549 2.261-0.062 5.035 0 3.337 7.91 6.263 16.378 9.511 24.618 3.229 8.189 7.233 16.153 8.952 24.058-3.932-0.56-11.623-0.652-17.903-0.56 4.098 2.989 14.952-0.779 19.022 2.238-0.912 1.66-3.983 1.143-5.595 1.119-4.242-0.062-9.193-1.067-15.106-0.56-0.497-1.182-1.703-1.654-1.679-3.357 1.486-0.006 3.195 0.211 3.917-0.56 0.027-1.892-1.303-2.427-2.238-3.357-0.02-2.071 3.478-0.625 3.356-2.797 0.089-2.14-2.284-1.818-3.356-2.797-0.1-1.965 1.89-1.84 2.238-3.357-0.589-1.649-2.531-1.945-3.917-2.797-0.001-1.866 1.82-1.91 1.679-3.916-0.508-1.17-1.651-1.706-3.356-1.679 1.54-2.064 1.443-4.865-1.679-5.035 0.747-8.84-0.641-15.304 1.119-21.261z" fill="#EFF0F0"/>
	<path d="m55.546 9.651h1.119v1.119h-1.119v-1.119z" fill="#EFF0F0"/>
	<path d="m59.463 9.651h1.119v1.119h-1.119v-1.119z" fill="#EFF0F0"/>
	<path d="m56.106 13.008h1.119v1.119h-1.119v-1.119z" fill="#EFF0F0"/>
	<path d="m60.582 13.008c2.564 0.373-0.45 3.387 0 0z" fill="#EFF0F0"/>
	<path d="m57.784 14.127c0.453 0.106 0.558 0.561 1.119 0.56-0.106 0.453-0.562 0.558-0.56 1.119-0.453-0.106-0.558-0.561-1.119-0.559 0.107-0.454 0.562-0.559 0.56-1.12z" fill="#EFF0F0"/>
	<path d="m59.463 15.246c0.453 0.106 0.558 0.561 1.119 0.559-0.106 0.453-0.562 0.558-0.56 1.119-0.453-0.106-0.558-0.561-1.119-0.56 0.107-0.452 0.562-0.557 0.56-1.118z" fill="#EFF0F0"/>
	<path d="m56.666 16.365c3.275 0.744-2.026 2.642 0 0z" fill="#EFF0F0"/>
	<path d="m61.142 16.365c1.297 0.156 1.286 1.495 0.56 2.238-1.629-0.487-0.631-0.838-0.56-2.238z" fill="#EFF0F0"/>
	<path d="m58.344 17.484c0.453 0.106 0.558 0.562 1.119 0.56-0.106 0.453-0.562 0.558-0.56 1.119-0.453-0.106-0.558-0.562-1.119-0.56 0.107-0.453 0.562-0.558 0.56-1.119z" fill="#EFF0F0"/>
	<path d="m60.022 18.603c2.565 0.373-0.449 3.387 0 0z" fill="#EFF0F0"/>
	<path d="m58.344 21.4c-0.056 0.056-1.623 0.056-1.678 0-2.02-2.02 3.321-1.643 1.678 0z" fill="#EFF0F0"/>
	<path d="m61.701 20.281c2.069 1.697-1.699 1.885 0 0z" fill="#EFF0F0"/>
	<path d="m58.344 21.4c0.476 0.103 0.528-0.218 0.56-0.56 0.453 0.106 0.558 0.561 1.119 0.56v1.119c-0.476-0.103-0.528 0.218-0.56 0.56-0.453-0.106-0.558-0.561-1.119-0.56v-1.119z" fill="#EFF0F0"/>
	<path d="m56.666 24.198c-2.123-1.642 2.022-2.208 0 0z" fill="#EFF0F0"/>
	<path d="m61.701 23.079v1.119c-2.728 0.56-1.033-2.978 0-1.119z" fill="#EFF0F0"/>
	<path d="m57.784 23.079c2.069 1.696-1.699 1.884 0 0z" fill="#EFF0F0"/>
	<path d="m62.26 23.638c1.163 0.313 1.186 0.873 0.56 1.679h-1.118c0.295-0.45 0.582-0.908 0.558-1.679z" fill="#EFF0F0"/>
	<path d="m58.903 24.757c1.123-0.19 1.751 0.114 1.679 1.119h-1.679v-1.119z" fill="#EFF0F0"/>
	<path d="m60.022 28.114c0.903-0.158 0.963 0.529 1.679 0.56 0.222 1.085-2.549 0.817-1.679-0.56z" fill="#EFF0F0"/>
	<path d="m57.225 28.674c1.632-0.823 1.632 2.501 0 1.678v-1.678z" fill="#EFF0F0"/>
	<path d="m58.903 29.792c0.903-0.157 0.963 0.529 1.679 0.56-0.106 0.453-0.562 0.558-0.56 1.119h-1.119v-1.679z" fill="#EFF0F0"/>
	<path d="m56.666 30.912h1.119v1.119h-1.119v-1.119z" fill="#EFF0F0"/>
	<path d="m60.582 34.269c-1.907 3.197-6.247 6.715-9.512 6.714 1.976-2.414 5.546-3.112 7.833-5.036 0.765-0.643-0.02-2.378 1.679-1.678z" fill="#EFF0F0"/>
	<path d="m58.344 38.185c2.343 1.439-1.71 3.23-3.357 4.476-1.837 1.39-3.884 3.76-5.595 2.798 2.031-3.378 6.595-4.222 8.952-7.274z" fill="#EFF0F0"/>
	<path d="m59.463 43.78c-2.89 2.07-6.739 8.138-10.63 5.595 2.714-2.5 5.675-7.132 10.63-5.595z" fill="#EFF0F0"/>
	<path d="m58.903 48.815c-2.402 2.447-4.154 5.544-8.952 5.595 1.35-3.209 4.89-6.933 8.952-5.595z" fill="#EFF0F0"/>
	<path d="m60.022 52.731c-2.148 2.514-3.647 5.678-8.393 5.595 1.223-3.684 4.06-6.611 8.393-5.595z" fill="#EFF0F0"/>
	<path d="m59.463 54.97c1.513 3.205-3.616 4.58-5.036 6.714-1.336-3.03 4.086-4.11 5.036-6.714z" fill="#EFF0F0"/>
	<path d="m109.82 114.28c-2.397 0.585-3.592 2.375-6.154 2.797-0.126-6.774 0.079-13.88-2.797-17.904 0.257-13.107 0.964-24.165 0-35.248 2.634-2.215 5.913-3.785 7.832-6.714 0.65-0.091 0.996 0.124 1.119 0.56-0.5 18.949-0.88 38.369 0 56.506z" fill="#EFF0F0"/>
	<path d="m53.309 59.445c-7.89 1.139-16.095 2.087-23.499 1.119 1.831-2.12 5.322-0.948 7.833-1.119 5.489-0.374 11.102-1.3 15.666 0z" fill="#EFF0F0"/>
	<path d="m62.26 58.886c-1.85 1.937-3.522 4.91-6.713 3.916 1.346-1.965 3.641-5.488 6.713-3.916z" fill="#EFF0F0"/>
	<path d="m73.45 58.886c4.977 1.33 15.243 0.071 21.261 0.559 1.951 0.158 4.497 0.046 5.035 1.679-6.852-1.6-17.334 1.062-24.617-0.56-0.938-0.208-1.746 0.165-1.679-1.678z" fill="#EFF0F0"/>
	<path d="m62.819 60.005c3.196 1.979-3.318 6.108-4.476 5.595-0.107-3.465 3.462-3.253 4.476-5.595z" fill="#EFF0F0"/>
	<path d="m52.189 62.243c-7.23 0.043-14.147 0.399-20.701 1.119 1.062-1.544 4.755-1.517 7.273-1.678 2.519-0.162 5.384 0.058 7.833 0 1.901-0.046 5.109-1.637 5.595 0.559z" fill="#EFF0F0"/>
	<path d="m70.093 62.243c0.65-0.091 0.996 0.124 1.119 0.56 0.183 13.235-0.364 23.58-0.56 33.01-2.107-1.678-1.077-5.212-1.119-7.833-0.129-8.081-0.103-18.809 0.56-24.058v-1.679z" fill="#EFF0F0"/>
	<path d="m55.546 64.481h1.678c0.086 6.799 3.279 25.72 1.119 33.01-2.3-9.635-1.624-22.247-2.797-33.01z" fill="#EFF0F0"/>
	<path d="m91.913 66.719h1.119v1.119h-1.119v-1.119z"/>
	<path d="m79.604 73.992h1.119v1.119h-1.119v-1.119z"/>
	<path d="m41 79.027h1.119v1.119h-1.119v-1.119z"/>
	<path d="m84.64 79.027c3.275 0.745-2.026 2.643 0 0z"/>
	<path d="m78.485 79.587h1.119v1.119h-1.119v-1.119z"/>
	<path d="m86.318 80.146h1.119v1.119h-1.119v-1.119z"/>
	<path d="m43.797 81.266c1.697-2.069 1.885 1.698 0 0z"/>
	<path d="m46.595 81.266h1.119v1.119h-1.119v-1.119z"/>
	<path d="m49.392 81.825c2.565 0.373-0.45 3.387 0 0z"/>
	<path d="m78.485 82.384h1.119v1.119h-1.119v-1.119z"/>
	<path d="m44.916 83.503h1.119v1.119h-1.119v-1.119z"/>
	<path d="m80.724 83.503h1.118v1.119h-1.118v-1.119z"/>
	<path d="m47.713 84.063h1.119v1.119h-1.119v-1.119z"/>
	<path d="m84.08 85.182c1.123-0.19 1.751 0.114 1.679 1.119h-1.679v-1.119z"/>
	<path d="m81.842 99.169c1.843-1.543 4.597-0.113 7.273 0 3.562 0.151 8.183-1.028 10.071 1.119-6.648-0.21-10.467-0.04-17.344-1.121z" fill="#EFF0F0"/>
	<path d="m42.119 100.85c-0.094-1.213 1.984-0.253 2.797-0.56 0.094 1.21-1.984 0.25-2.797 0.56z" fill="#EFF0F0"/>
	<path d="m54.427 101.97c-2.947 0.127-9.158 1.132-12.868 1.679-3.104 0.458-7.396 1.318-8.952-0.56 3.701 0.557 9.392-1.151 14.547-1.679 2.379-0.25 5.897-1.19 7.273 0.56z" fill="#EFF0F0"/>
	<path d="m85.199 101.41c4.53-1.352 11.226-0.042 15.666 0.56-2.644 2.96-9.815-0.099-13.987 0.56-0.405-0.53-1.013-0.85-1.674-1.12z" fill="#EFF0F0"/>
	<path d="m88.557 104.2c3.298-1.05 10.082-0.766 13.427 0-0.648 5.027 1.67 9.772 0 13.987-0.65-0.091-0.995 0.123-1.118 0.559-4.077 0.07-4.727-4.748-6.154-7.273-1.764-3.13-3.292-5.53-6.149-7.28z" fill="#EFF0F0"/>
	<path d="m81.283 104.2h1.118v1.119h-1.118v-1.12z"/>
	<path d="m37.083 105.32c-0.333 1.509-4.74 3.427-4.476 0.56 0.814-0.86 2.865-0.49 4.476-0.56z" fill="#EFF0F0"/>
	<path d="m84.08 105.32c2.004 0.342 0.743 3.579-1.119 3.357-0.598-2.09 1.39-1.6 1.119-3.36z"/>
	<path d="m79.604 105.88c1.193-0.261 1.065 0.799 1.119 1.679-0.453-0.106-0.558-0.562-1.119-0.56v-1.12z"/>
	<path d="m65.058 107c1.6-0.132 3.078 0.142 5.595 2.238 6.812 5.674 9.618 21.25 4.477 30.212-2.502 4.359-6.741 7.076-10.631 6.714-11.201-1.042-14.285-23.204-7.833-33.569 1.53-2.45 4.632-5.28 8.392-5.59zm0.559 37.49c13.803-0.408 13.395-37.311-1.679-34.688-13.383 2.33-10.642 35.05 1.679 34.69z"/>
	<path d="m63.938 109.8c15.073-2.623 15.481 34.281 1.679 34.688-12.321 0.36-15.062-32.36-1.679-34.69zm-2.796 4.48c3.024-0.58 4.173 3.498 9.511 2.238 0.269-1.76-0.797-2.187-1.119-3.357-3.584 0.81-7.485-1.79-8.392 1.12zm-3.358 7.83c2.684 1.005 1.804-1.554 2.798-2.238 1.575-0.848 2.295 0.188 4.476-0.56 0.235 1.07 0.203 2.408 1.679 2.238 0.219-1.467 0.385-2.422 3.356-2.238 1.028 0.651-0.294 3.651 2.238 2.797 1.185-0.51-1.056-2.248-0.56-3.916-7.073 1.13-13.378-3.52-13.987 3.92zm-0.559 1.12c0.016 2.782 3.807 1.789 5.035 3.357-1.332 1.465-5.593 0.002-5.035 3.357 2.759-0.178 4.369-2.163 7.273-2.238 3.38-0.087 6.723 3.395 8.952 1.119-1.124-1.3-4.279-0.57-4.477-2.797 1.723-0.329 3.96-0.143 3.917-2.238-6.615 2.57-11.099 0.31-15.665-0.56zm0.559 10.07c4.179 1.829 7.243 0.448 11.749 0.56 0.966 0.959-0.822 2.2 1.679 2.238 0.005-1.911 3.405-5.318 0-5.595-1.19 4.22-11.405-0.59-13.428 2.8zm2.238 5.59c0.996 3.234 10.346 3.377 10.63-0.56-1.04-3.16-10.671-4.72-10.63 0.56z" fill="#EFF0F0"/>
	<path d="m84.64 110.36c-1.697 2.07-1.885-1.7 0 0z"/>
	<path d="m39.321 111.48h1.119v1.119h-1.119v-1.12z"/>
	<path d="m49.392 111.48c0.831 0.661 2.5 0.484 2.238 2.238-1.299-0.2-2.622-0.37-2.238-2.24z"/>
	<path d="m33.727 112.04h1.119v1.119h-1.119v-1.12z"/>
	<path d="m69.533 113.16c0.322 1.17 1.388 1.597 1.119 3.357-5.338 1.26-6.486-2.818-9.511-2.238 0.908-2.91 4.809-0.31 8.392-1.12zm-0.559 1.67c-0.756-0.176-1.068-0.796-2.237-0.559-0.897 1.56 2.415 1.55 2.237 0.56z"/>
	<path d="m66.736 114.28c1.169-0.237 1.481 0.383 2.237 0.559 0.179 0.98-3.133 0.99-2.237-0.56z" fill="#EFF0F0"/>
	<path d="m84.64 114.28c2.011 3.19-1.416 2.45 0 0z"/>
	<path d="m87.438 115.39c0.903-0.157 0.963 0.529 1.678 0.56 0.222 1.09-2.549 0.82-1.678-0.56z"/>
	<path d="m37.643 115.95c0.426 0.88 1.775 0.836 1.679 2.238-1.508-0.04-2.69-1.28-1.679-2.24z"/>
	<path d="m40.44 117.07c2.069 1.7-1.699 1.89 0 0z"/>
	<path d="m90.794 117.07h1.119v1.119h-1.119v-1.12z"/>
	<path d="m71.771 118.19c-0.496 1.668 1.744 3.406 0.56 3.916-2.532 0.854-1.21-2.146-2.238-2.797-2.972-0.184-3.138 0.771-3.356 2.238-1.476 0.17-1.443-1.168-1.679-2.238-2.181 0.747-2.9-0.288-4.476 0.56-0.994 0.684-0.114 3.243-2.798 2.238 0.609-7.44 6.914-2.79 13.987-3.92z"/>
	<path d="m72.891 123.79c0.043 2.095-2.194 1.909-3.917 2.238 0.197 2.228 3.353 1.497 4.477 2.797-2.229 2.276-5.572-1.206-8.952-1.119-2.904 0.075-4.515 2.06-7.273 2.238-0.558-3.355 3.703-1.892 5.035-3.357-1.229-1.568-5.019-0.575-5.035-3.357 4.565 0.87 9.049 3.13 15.665 0.56z"/>
	<path d="m71.212 130.5c3.405 0.277 0.005 3.684 0 5.595-2.501-0.038-0.713-1.279-1.679-2.238-4.506-0.111-7.57 1.27-11.749-0.56 2.023-3.39 12.238 1.42 13.428-2.8z"/>
	<path d="m39.881 135.54v-1.119h1.119v1.119h-1.119z"/>
	<path d="m70.652 138.33c-0.284 3.937-9.634 3.793-10.63 0.56-0.041-5.28 9.59-3.72 10.63-0.56zm-8.392 0.56c1.146 0.866 5.009 0.866 6.155 0 0.109-2.43-6.265-2.43-6.155 0z"/>
	<path d="m68.415 138.89c-1.146 0.866-5.009 0.866-6.155 0-0.11-2.43 6.264-2.43 6.155 0z" fill="#EFF0F0"/>
	<path d="m85.759 138.89h1.119v1.119h-1.119v-1.12z"/>
	<path d="m50.511 140.01c2.021 1.552 0.487 3.214 2.238 5.035-1.392 0.086-1.732-0.879-2.797-1.119-0.325-1.81 0.381-2.6 0.559-3.91z"/>
	<path d="m47.713 140.57h1.119v1.119h-1.119v-1.12z"/>
	<path d="m87.438 146.17c1.696-2.07 1.884 1.69 0 0z"/>
	<path d="m84.08 146.17h1.119v1.119h-1.119v-1.12z"/>
	<path d="m89.675 146.73h1.119v1.119h-1.119v-1.12z"/>
	<path d="m91.354 147.84h1.119v1.119h-1.119v-1.12z"/>
	<path d="m93.032 150.64c2.425 0.24-0.59 3.25 0 0z"/>
	<path d="m42.678 171.9h1.119v1.119h-1.119v-1.12z"/>
	<path d="m44.916 176.38h1.119v1.119h-1.119v-1.12z"/>
	<path d="m84.64 177.5c1.632-0.823 1.632 2.501 0 1.678v-1.68z"/>
	<path d="m87.438 178.62c0.688 0.244 1.148 0.716 1.119 1.679-0.904 0.158-0.964-0.529-1.679-0.56 0.106-0.46 0.561-0.56 0.56-1.12z"/>
	<path d="m90.234 179.74c0.688 0.244 1.149 0.716 1.119 1.678-0.903 0.158-0.963-0.529-1.679-0.56 0.107-0.46 0.562-0.56 0.56-1.12z"/>
	<path d="m44.356 183.65c0.193-0.675 1.489-0.453 1.679 0 0.507 1.21-2.049 1.3-1.679 0z"/>
	<path d="m91.913 184.77c1.696-2.07 1.885 1.7 0 0z"/>
	<path d="m43.797 186.45h1.119v1.119h-1.119v-1.12z"/>
	<path d="m89.675 186.45h1.119v1.119h-1.119v-1.12z"/>
	<path d="m93.032 188.13h1.119v1.119h-1.119v-1.12z"/>
	<path d="m108.14 216.1c0.65-0.091 0.995 0.124 1.118 0.56 6.987 24.903 18.981 44.801 22.38 73.293-2.053-3.029-1.5-6.821-2.238-10.071-4.91-21.62-15.42-42-21.26-63.78z" fill="#fff"/>
	<path d="m29.81 225.61c0.65-0.091 0.996 0.124 1.119 0.56-0.73 3.333-2.237 6.735-3.356 10.071-1.049 3.125-1.3 7.032-3.917 8.951 1.43-7.14 4.483-12.67 6.154-19.58z" fill="#fff"/>
	<path d="m122.68 230.09c1.63 0.795 1.536 3.313 2.238 5.035-1.63-0.79-1.53-3.31-2.24-5.03z" fill="#fff"/>
	<path d="m128.28 238.48c0.751 0.368 1.042 1.196 1.119 2.238-0.99-0.14-1.28-0.96-1.12-2.24z" fill="#fff"/>
	<path d="m132.2 251.35c0.802 0.689 1.06 1.924 1.119 3.356-0.98-0.52-1.24-1.75-1.12-3.36z" fill="#fff"/>
	<path d="m138.35 278.76c0.213-1.064 0.712 0.357 0.56 1.119-0.21 1.07-0.71-0.35-0.56-1.12z" fill="#fff"/>
	<path d="m131.08 290.51c1.345 1.707 1.494 4.154 1.679 6.154 1.304 14.174 0.811 30.844-1.119 45.318-0.538 4.034-0.34 9.11-3.357 11.749 4.26-16.81 4.82-43.51 2.8-63.22z" fill="#fff"/>
	<path d="m141.15 297.23c0.864-1.711 0.492 2.427 0.559 3.356-0.87 1.7-0.49-2.43-0.56-3.36z" fill="#fff"/>
	<path d="m125.48 398.5c1.4 1.957 0.935 3.453 1.119 7.273-1.25-1.55-1.16-4.44-1.12-7.27z" fill="#fff"/>
	<path d="m88.557 0.14c0.902 7.072 4.135 13.001 6.713 19.023 4.842 11.308 10.257 23.442 16.785 35.807-0.498 13.568-0.823 42.524-0.56 60.424-1.997 1.733-6.396 1.065-6.714 4.476-0.342 2.207 3.072 0.658 4.476 1.119 0.835 12.251-1.674 24.697-1.118 36.926 1.112 24.5 13.694 44.398 21.26 66.579 3.646 10.691 7.256 22.271 10.071 34.128 3.908 16.464 7.839 34.309 6.714 53.711-0.542 9.349-0.911 20.561-2.238 29.653-1.27 8.699-5.176 16.635-6.154 25.177-0.391 3.408-0.195 9.501 0 15.106 0.24 6.886 0.115 14.582 0.56 21.26 0.1 1.504 0.856 3.498 0.56 5.036-1.121 5.806-7.859 8.02-13.987 10.07-3.073-7.499-3.656-17.305-5.595-27.975-1.176-6.471-3.684-13.277-3.357-18.463 0.22-3.486 2.266-7.298 3.357-10.63 4.455-13.607 7.659-31.285 6.154-50.354-0.431-5.454-1.919-10.554-2.798-15.665-1.117-6.501-1.585-12.785-3.356-19.022-4.021-14.15-10.276-27.297-16.226-40.283-5.8-12.661-10.995-25.777-18.463-37.486-2.101-7.224-4.434-14.216-8.393-19.582 0.118-6.272-3.401-8.907-3.916-14.547-2.091 2.035-2.95 5.104-3.916 7.833-3.09 8.731-5.948 16.738-10.071 25.177-5.047 10.332-10.381 20.925-15.106 31.891-12.2 28.313-23.672 58.418-20.701 95.672 1.362 17.084 4.863 32.127 10.071 46.438-4.744 15.613-7.343 30.705-11.19 46.438-2.357 0.955-7.037 2.094-8.952 1.679-0.401-11.358 1.979-27.783 0-41.402-2.321-15.965-9.719-35.177-11.749-52.592-2.309-19.802 1.335-41.429 5.595-60.425 2.065-9.212 3.112-19.132 7.833-27.974 5.889-28.512 25.123-51.744 22.379-85.042-0.16-1.937 0.114-4.458 0-6.714-0.474-9.339-4.334-16.512 3.917-21.26-2.261-0.723-4.771-1.197-7.833-1.119-2.524-18.848-3.125-39.58-4.476-58.187-0.097-1.332-0.741-3.06-0.559-4.476 0.475-3.713 3.534-8.428 5.035-12.868 3.645-10.781 6.738-22.638 10.63-34.129 2.165-6.393 4.532-9.577 9.511-12.868 2.354-0.544 4.836 0.289 8.393 0 2.591 9.875 1.979 17.689 3.916 26.296-0.986 2.541-2.146 3.927-2.798 5.595-0.544 1.395 0.798 3.648-2.237 4.476 0.238 1.067 1.599 1.012 1.119 2.797-1.114 0.565-2.39 0.967-2.798 2.238 0.352 1.141 2.827 0.157 2.238 2.238-0.805 0.874-1.41 1.947-2.798 2.238 2.866 1.44 3.125 2.954 0.56 5.036 1.71-0.404 2.039 0.572 3.357 0.56-1.438 4.958 1.174 4.92 3.356 7.273v7.833c-0.984-0.135-1.275-0.962-1.119-2.238-7.653 6.034-5.66 24.721 3.917 26.855 1.606-8.387-0.46-23.062 1.118-29.653-0.031-2.643 4.809-0.414 3.357-4.476h3.356c0.792-1.3-2.195-4.89 2.798-3.917-1.371-1.86-2.963-5.475 1.119-5.595-0.147-1.904-2.521-1.583-3.357-2.797-0.002-2.054 1.959-2.144 2.798-3.357-1.12-1.118-3.492-0.984-4.476-2.238 0.521-1.53 1.717-2.386 2.237-3.917-0.78-1.084-2.896-0.834-3.916-1.678 1.306-3.387 1.812-3.152-1.119-5.036 0.742-13.15-2.802-23.717 6.714-29.093 4.51 0.045 6.248-0.411 10.076-0.052zm-37.487 6.154c3.299 0.129 4.974-1.367 6.154-3.357-2.957 0.213-5.774 0.566-6.154 3.357zm25.177-0.559c3.359-0.065 5.276 0.044 6.714-2.798-2.817 0.152-5.152 0.28-6.714 2.798zm10.071-1.119c-0.716-0.031-0.775-0.717-1.679-0.56-4.895 3.006-1.093 9.064 1.119 14.547 2.278 5.649 4.673 9.985 6.154 13.987 3.506 9.472 6.785 20.665 10.07 29.093 2.103-2.747 5.428-4.271 7.273-7.273-8.09-16.151-15.109-33.372-22.932-49.794zm-29.093 1.678h1.119v-1.119h-1.119v1.119zm-9.512 1.679c-5.238 17.141-11.281 33.477-16.784 50.354 6.456-1.281 17.284 1.35 20.701-2.798-1.461-0.217-3.069-0.287-3.917-1.119-0.148-1.827 2.171-1.186 2.238-2.797-0.731-1.134-2.961-0.769-3.357-2.238 0.25-1.614 2.407-1.322 2.797-2.797-1.056-0.809-2.48-1.25-2.238-3.357 1.318 0.013 1.647-0.963 3.356-0.56-0.009-1.669-1.455-1.902-1.678-3.357 1.146-0.905 3.667-0.436 4.476-1.678-0.819-0.486-1.773-0.838-1.679-2.238 1.21-0.469 1.909-1.449 3.917-1.119-0.539-8.781-1.416-19.136-2.238-26.855-1.893 0.156-3.211 0.889-5.594 0.559zm25.737 20.701c3.122 0.17 3.219 2.971 1.679 5.035 1.705-0.027 2.849 0.508 3.356 1.679 0.142 2.006-1.68 2.05-1.679 3.916 1.386 0.853 3.328 1.148 3.917 2.797-0.349 1.517-2.338 1.393-2.238 3.357 1.072 0.979 3.445 0.658 3.356 2.797 0.121 2.172-3.376 0.726-3.356 2.797 0.936 0.93 2.266 1.465 2.238 3.357-0.722 0.771-2.431 0.554-3.917 0.56-0.024 1.703 1.182 2.175 1.679 3.357 5.913-0.508 10.864 0.497 15.106 0.56 1.611 0.023 4.683 0.541 5.595-1.119-4.07-3.017-14.925 0.751-19.022-2.238 6.28-0.093 13.972 0 17.903 0.56-1.719-7.904-5.724-15.868-8.952-24.058-3.248-8.24-6.174-16.708-9.511-24.618-2.774-0.062-2.749 0.549-5.035 0-1.76 5.957-0.372 12.421-1.119 21.261zm-17.904-17.904h1.119v-1.119h-1.119v1.119zm3.917 0h1.119v-1.119h-1.119v1.119zm-3.357 3.357h1.119v-1.119h-1.119v1.119zm4.476-1.119c-0.45 3.387 2.564 0.373 0 0zm-3.357 2.238c0.562-0.002 0.666 0.453 1.119 0.559-0.002-0.561 0.453-0.666 0.56-1.119-0.562 0.001-0.666-0.453-1.119-0.56 0.001 0.562-0.454 0.667-0.56 1.12zm1.678 1.119c0.562-0.001 0.666 0.453 1.119 0.56-0.002-0.561 0.453-0.666 0.56-1.119-0.562 0.002-0.666-0.453-1.119-0.559 0.002 0.56-0.453 0.665-0.56 1.118zm-2.237 0c-2.026 2.642 3.275 0.744 0 0zm5.035 2.238c0.727-0.744 0.737-2.082-0.56-2.238-0.07 1.4-1.068 1.751 0.56 2.238zm-3.917 0c0.562-0.002 0.666 0.453 1.119 0.56-0.002-0.562 0.453-0.666 0.56-1.119-0.562 0.002-0.666-0.453-1.119-0.56 0.002 0.561-0.453 0.666-0.56 1.119zm2.238 0c-0.449 3.387 2.565 0.373 0 0zm-1.678 3.916c0.562-0.001 0.666 0.453 1.119 0.56 0.031-0.341 0.084-0.662 0.56-0.56v-1.119c-0.562 0.001-0.666-0.453-1.119-0.56-0.031 0.341-0.084 0.663-0.56 0.56v1.119zm-1.678-1.119c0.056 0.056 1.623 0.056 1.678 0 1.643-1.643-3.698-2.02-1.678 0zm5.035-1.119c-1.699 1.885 2.069 1.697 0 0zm-3.917 2.798c-1.699 1.884 2.069 1.696 0 0zm-1.118 1.119c2.022-2.208-2.123-1.642 0 0zm5.035 0v-1.119c-1.033-1.859-2.728 1.679 0 1.119zm0 1.119h1.118c0.626-0.806 0.604-1.365-0.56-1.679 0.025 0.771-0.262 1.229-0.558 1.679zm-2.798 0.559h1.679c0.072-1.005-0.556-1.31-1.679-1.119v1.119zm0.56 2.238c-0.466-2.403-1.632-0.861-2.797-2.797v1.678c1.722-0.416 1.074 1.536 2.797 1.119zm3.916 0c0.677-1.966-3.782-1.945-1.678-0.56 0.031-0.341 0.083-0.663 0.559-0.56 0.063 0.684 0.168 1.326 1.119 1.12zm-1.678 0.56c-0.716-0.031-0.775-0.717-1.679-0.56-0.87 1.377 1.901 1.645 1.679 0.56zm-4.476 1.678c1.632 0.823 1.632-2.501 0-1.678v1.678zm1.678 1.119h1.119c-0.002-0.562 0.453-0.666 0.56-1.119-0.716-0.031-0.775-0.717-1.679-0.56v1.679zm-2.237 0.56h1.119v-1.119h-1.119v1.119zm-3.357 4.475c2.92 1.599 7.836-5.014 7.833-4.476-2.303 1.801-5.211 2.996-7.833 4.476zm5.594-0.559c-2.287 1.923-5.857 2.622-7.833 5.036 3.265 0.001 7.604-3.517 9.512-6.714-1.699-0.7-0.914 1.035-1.679 1.678zm-9.511 9.511c1.71 0.962 3.758-1.408 5.595-2.798 1.647-1.246 5.7-3.036 3.357-4.476-2.357 3.053-6.921 3.897-8.952 7.274zm-0.559 3.917c3.891 2.543 7.74-3.524 10.63-5.595-4.955-1.537-7.916 3.095-10.63 5.595zm1.119 5.035c4.798-0.051 6.549-3.148 8.952-5.595-4.063-1.338-7.603 2.386-8.952 5.595zm1.678 3.917c4.745 0.083 6.244-3.081 8.393-5.595-4.334-1.017-7.171 1.91-8.393 5.595zm2.797 3.357c1.42-2.134 6.548-3.509 5.036-6.714-0.95 2.604-6.372 3.684-5.036 6.714zm55.393-3.917c-0.123-0.436-0.469-0.65-1.119-0.56-1.919 2.929-5.198 4.499-7.832 6.714 0.964 11.083 0.257 22.141 0 35.248 2.876 4.024 2.671 11.13 2.797 17.904 2.562-0.422 3.757-2.212 6.154-2.797-0.88-18.127-0.5-37.547 0-56.503zm-72.177 1.678c-2.51 0.171-6.001-1-7.833 1.119 7.403 0.968 15.609 0.02 23.499-1.119-4.564-1.3-10.177-0.374-15.666 0zm17.903 3.357c3.191 0.994 4.864-1.979 6.713-3.916-3.071-1.572-5.366 1.951-6.713 3.916zm19.583-2.238c7.283 1.622 17.766-1.04 24.617 0.56-0.538-1.633-3.084-1.521-5.035-1.679-6.018-0.488-16.284 0.771-21.261-0.559-0.067 1.843 0.741 1.47 1.679 1.678zm-16.785 5.036c1.157 0.513 7.672-3.616 4.476-5.595-1.015 2.342-4.584 2.13-4.476 5.595zm-11.749-3.916c-2.449 0.058-5.314-0.162-7.833 0-2.519 0.161-6.211 0.134-7.273 1.678 6.554-0.72 13.471-1.076 20.701-1.119-0.487-2.196-3.695-0.605-5.595-0.559zm23.498 2.237c-0.662 5.249-0.688 15.977-0.56 24.058 0.042 2.62-0.988 6.155 1.119 7.833 0.195-9.43 0.742-19.775 0.56-33.01-0.123-0.436-0.469-0.65-1.119-0.56v1.679zm2.238-0.559c-1 3.509 0.975 6.798 1.119 8.393 0.015 0.16-1.2 0.731-1.119 1.678 0.205 2.389 0.803 0.231 0 2.238-2.144 5.36 1.54 14.443 0 20.142 9.79-0.649 20.401 0.856 27.415 1.119-0.794-12.525 0.45-21.482-0.56-34.129-7.443 2.857-17.962-0.1-26.855 0.559zm-42.521 1.679c1.082 11.6 2.104 23.259 2.238 35.807 7.451-1.994 16.475-2.376 24.058-2.797-0.311-12.111-1.35-18.972-1.679-33.01-8.691 0.032-19.005 1.671-24.617-0.002zm28.534 32.45c2.16-7.29-1.033-26.21-1.119-33.01h-1.678c1.172 10.763 0.496 23.375 2.797 33.01zm36.926 19.019c-0.098-0.133 0.383 0.521 0-1.119-0.772-3.313-3.939-5.37-5.595-9.511-1.348 0.229-1.216-1.022-2.797-0.56-1.621-4.195-7.959-6.826-13.428-7.833-6.441-1.187-12.753-0.336-17.344 2.238-0.713 1.897-1.475 3.748-2.797 5.036v-1.679c-4.416 1.738-11.825 0.484-15.666 2.797 4.609 1.905 10.989-1.994 15.666 0-6.59 1.243-14.145 1.521-20.701 2.797 0.38 2.044 0.78 4.068 0.56 6.714 0.962 0.221 1.434-0.83 1.678 0-0.008 0.924-1.552 0.313-1.678 1.119 0.775 1.696 1.585-0.14 2.238 1.679-1.669 0.067-1.875 0.447-1.678 3.356 4.662 1.005 6.891 0.978 11.189 2.238 0.511 2.595 1.523 7.945-1.119 8.952-2.109 0.43-2.674-0.683-4.476-0.56 0.621 6.479 4.002 12.506 7.833 13.987 3.44 6.817 11.365 9.149 20.701 10.071 1.796 0.49 1.159-1.451 2.237-1.679 6.901 22.192 16.383 41.805 25.177 62.104 2.424 0.558 3.105-0.625 4.477-1.119 3.709-9.825-0.169-19.396-1.679-29.093-2.135-13.714-3.436-26.645-1.679-36.926-0.932-0.56-0.396-2.588-1.678-2.797 0.521-0.597 2.063-0.174 1.678-1.679-0.006-0.739-0.98-0.511-1.119-1.119 2.455-0.902 1.43-5.285 1.679-8.393-4.237-0.238-9.068 0.117-11.189-2.238-0.092-3.449 0.417-6.297 2.238-7.833 3.523 0.02 5.987 1.1 9.511 1.119-0.439-4.1-0.189-7.3-2.239-10.07zm3.917-16.22c-1.889-2.147-6.51-0.968-10.071-1.119-2.677-0.113-5.431-1.543-7.273 0 6.876 1.079 10.695 0.909 17.344 1.119zm-54.271 0c-0.813 0.306-2.892-0.654-2.797 0.56 0.813-0.31 2.891 0.65 2.797-0.56zm2.238 1.12c-5.155 0.528-10.846 2.236-14.547 1.679 1.555 1.877 5.847 1.017 8.952 0.56 3.71-0.547 9.921-1.551 12.868-1.679-1.376-1.75-4.894-0.81-7.273-0.56zm39.724 1.12c4.172-0.658 11.344 2.4 13.987-0.56-4.44-0.601-11.136-1.911-15.666-0.56 0.666 0.27 1.274 0.59 1.684 1.12zm7.833 8.95c1.428 2.525 2.077 7.343 6.154 7.273 0.123-0.436 0.468-0.65 1.118-0.559 1.67-4.215-0.648-8.96 0-13.987-3.345-0.766-10.129-1.05-13.427 0 2.861 1.75 4.389 4.15 6.158 7.28zm-62.104-5.6c-0.264 2.868 4.143 0.949 4.476-0.56-1.611 0.07-3.662-0.3-4.476 0.56zm6.714 59.31c0.012 0.703-0.056 2.261 0 2.797 0.166 1.589 1.032 2.122 1.119 3.357-0.005-0.069-1.27 0.455-1.119 1.679 0.077 0.623 1.248 1.145 1.119 1.678-0.039 0.162-2.87 1.442-1.679 2.238 0.051 0.882 1.427 0.438 1.119 1.678-1.811-0.435-1.844 3.547-2.238 5.595-1.862 9.675-3.295 19.148-5.035 27.975 0.435 1.244 1.175 2.182 1.119 3.917 0.091 1.77-1.487 1.87-1.119 3.917 1.874-0.085 1.165-1.77 1.678-2.798 0.626-1.253 1.589-1.729 2.238-2.797 10.088-16.624 19.78-37.013 25.177-57.627-11.488-2.313-18.656-8.946-22.38-19.022-0.715-0.031-0.775-0.717-1.679-0.56 0.825 9.75 1.527 18.79 1.68 27.96zm90.079 114.69c0.738 3.25 0.186 7.042 2.238 10.071-3.398-28.492-15.393-48.39-22.38-73.293-0.123-0.436-0.468-0.651-1.118-0.56 5.84 21.78 16.35 42.16 21.26 63.78zm-105.74-34.68c2.616-1.919 2.867-5.827 3.917-8.951 1.12-3.336 2.626-6.738 3.356-10.071-0.123-0.436-0.468-0.651-1.119-0.56-1.671 6.9-4.724 12.43-6.154 19.58zm105.74-10.64c-0.74-2.813-1.706-8.351-3.356-8.392 1.59 2.33 1.27 6.57 3.36 8.39zm-2.24-0.56c-1.24-1.558-0.941-4.654-2.798-5.595 0.64 1.82 1.53 6.29 2.8 5.6zm-2.24 1.12c-0.702-1.722-0.608-4.24-2.238-5.035 0.71 1.73 0.61 4.25 2.24 5.04zm6.72 8.4c0.538 1.637 1.464 5.876 2.238 3.916-2.024-3.57-1.983-9.206-4.477-12.309 1.04 2.72 1.21 5.28 2.24 8.39zm-2.24-2.8c-0.077-1.042-0.368-1.87-1.119-2.238-0.16 1.28 0.13 2.1 1.12 2.24zm-1.68 10.63c-0.525-1.919-1.485-6.323-2.238-6.155 0.35 2.45 0.78 4.81 2.24 6.15zm-108.54 6.15c-10.322 31.982-10.515 85.737 1.679 115.25-1.116 1.268-4.48-2.678-5.595 0 3.064-0.453 3.549 1.673 6.154 1.679-3.449-13.749-6.857-29.576-8.392-44.759-3.107-30.74 2.611-59.914 11.189-83.924-2.835 2.83-3.655 7.48-5.035 11.75zm114.14-2.79c-0.06-1.433-0.317-2.667-1.119-3.356-0.12 1.61 0.14 2.84 1.12 3.36zm2.79 25.17c0.136-7.166-3.438-20.488-6.154-27.975 1.94 10.04 4.5 17.04 6.15 27.98zm-3.35-5.03c-0.335 2.764 1.64-0.582 0-0.56-0.882-7.138-2.262-13.777-4.477-19.582 1.41 7.17 2.68 12.58 4.48 20.14zm2.79-7.83c1.346 1.196 0.688 0.681 0.56-0.56-0.234-2.284-1.545-9.377-2.797-11.189 0.31 4.35 2.04 7.28 2.24 11.75zm3.36 12.86c0.152-0.762-0.347-2.184-0.56-1.119-0.15 0.77 0.35 2.19 0.56 1.12zm-10.63 73.86c3.018-2.639 2.819-7.715 3.357-11.749 1.93-14.475 2.423-31.145 1.119-45.318-0.185-2-0.334-4.447-1.679-6.154 2.02 19.7 1.46 46.4-2.8 63.22zm13.43-53.16c-0.066-0.93 0.306-5.067-0.559-3.356 0.07 0.94-0.31 5.07 0.56 3.36zm-18.47 72.18c0.315 5.28 0.878 10.312 1.679 15.106-0.404 1.213 0.572 3.561 0.56 1.119-0.065-6.14-1.912-11.834-1.119-17.345 0.771-5.355 4.917-9.731 3.357-14.547-2.28 3.688-1.254 10.683-4.477 13.428-1.003-0.565-3.434-2.141-3.916 0 2.44-0.38 3.1 1.01 3.92 2.24zm-102.94 12.87c-0.907 6.745-2.926 14.055-1.679 19.582 2.196-11.791 0.493-27.481 7.273-34.688 1.483-0.008 3.294 0.311 3.357-1.118-8.982 0.16-7.991 9.08-8.951 16.23zm106.3 20.14c-0.185-3.82 0.281-5.316-1.119-7.273-0.04 2.83-0.13 5.72 1.12 7.27z"/>
	<path d="m56.666 26.995v-1.678c1.166 1.937 2.332 0.395 2.797 2.797-1.723 0.417-1.075-1.535-2.797-1.119z" fill="#EFF0F0"/>
	<path d="m62.26 26.995c-0.476-0.103-0.527 0.218-0.559 0.56-2.104-1.386 2.354-1.407 1.678 0.56-0.951 0.205-1.056-0.437-1.119-1.12z" fill="#EFF0F0"/>
	<path d="m61.142 32.031c0.003-0.538-4.913 6.074-7.833 4.476 2.622-1.481 5.53-2.676 7.833-4.476z" fill="#EFF0F0"/>
	<path d="m97.508 126.58c-3.523-0.02-5.987-1.1-9.511-1.119-1.821 1.536-2.33 4.384-2.238 7.833 2.121 2.355 6.952 2 11.189 2.238-0.249 3.108 0.776 7.49-1.679 8.393 0.139 0.607 1.113 0.379 1.119 1.119 0.386 1.504-1.156 1.082-1.678 1.679 1.281 0.209 0.746 2.238 1.678 2.797-1.757 10.282-0.456 23.212 1.679 36.926 1.51 9.697 5.388 19.268 1.679 29.093-1.371 0.494-2.053 1.677-4.477 1.119-8.794-20.299-18.275-39.911-25.177-62.104-1.078 0.228-0.441 2.169-2.237 1.679-9.336-0.922-17.261-3.253-20.701-10.071-3.831-1.481-7.212-7.508-7.833-13.987 1.802-0.123 2.367 0.99 4.476 0.56 2.642-1.006 1.629-6.357 1.119-8.952-4.299-1.261-6.527-1.233-11.189-2.238-0.197-2.909 0.009-3.289 1.678-3.356-0.653-1.819-1.462 0.017-2.238-1.679 0.126-0.806 1.67-0.195 1.678-1.119-0.244-0.83-0.716 0.221-1.678 0 0.221-2.646-0.18-4.669-0.56-6.714 6.557-1.276 14.111-1.554 20.701-2.797-4.677-1.994-11.057 1.905-15.666 0 3.841-2.313 11.25-1.059 15.666-2.797v1.679c1.323-1.288 2.084-3.138 2.797-5.036 4.591-2.574 10.903-3.424 17.344-2.238 5.469 1.007 11.807 3.637 13.428 7.833 1.581-0.462 1.449 0.789 2.797 0.56 1.655 4.141 4.822 6.198 5.595 9.511 0.383 1.64-0.098 0.986 0 1.119 2.051 2.77 1.801 5.97 2.239 10.07zm-56.508 8.96v-1.119h-1.119v1.119h1.119zm40.283-30.22h1.118v-1.119h-1.118v1.12zm1.678 3.36c1.862 0.222 3.123-3.015 1.119-3.357 0.271 1.76-1.717 1.27-1.119 3.36zm-3.357-1.68c0.562-0.002 0.666 0.453 1.119 0.56-0.054-0.879 0.074-1.94-1.119-1.679v1.12zm-22.938 5.6c-6.453 10.366-3.369 32.527 7.833 33.569 3.89 0.362 8.129-2.354 10.631-6.714 5.142-8.963 2.335-24.539-4.477-30.212-2.517-2.096-3.995-2.37-5.595-2.238-3.76 0.3-6.862 3.13-8.392 5.59zm27.974-2.24c-1.885-1.7-1.697 2.07 0 0zm-45.319 2.24h1.119v-1.119h-1.119v1.12zm12.309 1.12c0.262-1.754-1.407-1.577-2.238-2.238-0.384 1.87 0.939 2.04 2.238 2.24zm-17.903-0.56h1.119v-1.119h-1.119v1.12zm50.913 1.12c-1.416 2.45 2.011 3.19 0 0zm4.475 1.67c-0.715-0.031-0.774-0.717-1.678-0.56-0.87 1.38 1.901 1.65 1.678 0.56zm-49.794 2.24c0.097-1.402-1.253-1.358-1.679-2.238-1.01 0.96 0.172 2.2 1.679 2.24zm1.119-1.12c-1.699 1.89 2.069 1.7 0 0zm50.354 1.12h1.119v-1.119h-1.119v1.12zm-5.035 21.82h1.119v-1.119h-1.119v1.12zm-35.807 3.92c1.065 0.24 1.405 1.205 2.797 1.119-1.751-1.821-0.218-3.483-2.238-5.035-0.178 1.3-0.884 2.09-0.559 3.91zm-2.239-2.24h1.119v-1.119h-1.119v1.12zm39.725 4.48c1.884 1.69 1.696-2.07 0 0zm-3.358 1.11h1.119v-1.119h-1.119v1.12zm5.595 0.56h1.119v-1.119h-1.119v1.12zm1.679 1.12h1.119v-1.119h-1.119v1.12zm1.678 1.68c-0.59 3.25 2.425 0.24 0 0zm-8.392 28.54c1.632 0.823 1.632-2.501 0-1.678v1.68zm2.238 0.56c0.715 0.031 0.774 0.717 1.679 0.56 0.029-0.963-0.432-1.435-1.119-1.679 0.001 0.56-0.454 0.66-0.56 1.12zm2.797 1.11c0.716 0.031 0.775 0.717 1.679 0.56 0.03-0.962-0.431-1.434-1.119-1.678 0.001 0.57-0.454 0.67-0.56 1.12zm2.238 3.92c1.885 1.7 1.696-2.07 0 0zm-2.238 2.8h1.119v-1.119h-1.119v1.12zm3.357 1.68h1.119v-1.119h-1.119v1.12z" fill="#EFF0F0"/>
	<path d="m126.04 226.17c1.65 0.042 2.616 5.579 3.356 8.392-2.09-1.82-1.77-6.06-3.36-8.39z" fill="#fff"/>
	<path d="m124.36 228.41c1.856 0.941 1.558 4.037 2.798 5.595-1.27 0.69-2.16-3.78-2.8-5.59z" fill="#fff"/>
	<path d="m129.4 235.12c2.493 3.103 2.452 8.738 4.477 12.309-0.774 1.96-1.7-2.279-2.238-3.916-1.03-3.1-1.2-5.66-2.24-8.39z" fill="#fff"/>
	<path d="m125.48 245.2c0.753-0.168 1.713 4.236 2.238 6.155-1.46-1.35-1.89-3.71-2.24-6.16z" fill="#fff"/>
	<path d="m24.215 245.75c-8.578 24.01-14.296 53.184-11.189 83.924 1.535 15.183 4.943 31.01 8.392 44.759-2.605-0.006-3.09-2.132-6.154-1.679 1.115-2.678 4.479 1.268 5.595 0-12.194-29.517-12-83.271-1.679-115.25 1.38-4.27 2.2-8.92 5.035-11.75z" fill="#fff"/>
	<path d="m129.96 251.91c2.716 7.486 6.29 20.809 6.154 27.975-1.65-10.94-4.21-17.94-6.15-27.97z" fill="#fff"/>
	<path d="m128.28 254.71c2.215 5.805 3.595 12.444 4.477 19.582 1.64-0.022-0.335 3.323 0 0.56-1.8-7.56-3.07-12.97-4.48-20.14z" fill="#fff"/>
	<path d="m133.32 255.27c1.252 1.812 2.562 8.905 2.797 11.189 0.128 1.24 0.786 1.756-0.56 0.56-0.21-4.47-1.94-7.4-2.24-11.75z" fill="#fff"/>
	<path d="m119.33 370.52c0.482-2.141 2.913-0.565 3.916 0 3.223-2.745 2.196-9.739 4.477-13.428 1.56 4.815-2.587 9.191-3.357 14.547-0.793 5.511 1.054 11.205 1.119 17.345 0.013 2.441-0.964 0.094-0.56-1.119-0.801-4.794-1.363-9.826-1.679-15.106-0.83-1.22-1.49-2.61-3.92-2.23z" fill="#fff"/>
	<path d="m29.25 369.4c-0.062 1.429-1.874 1.11-3.357 1.118-6.78 7.207-5.078 22.897-7.273 34.688-1.247-5.527 0.771-12.837 1.679-19.582 0.96-7.15-0.031-16.07 8.951-16.23z" fill="#fff"/>
	<path d="m99.187 62.802c1.01 12.646-0.234 21.604 0.56 34.129-7.014-0.263-17.625-1.769-27.415-1.119 1.54-5.699-2.144-14.781 0-20.142 0.803-2.006 0.205 0.151 0-2.238-0.081-0.947 1.134-1.518 1.119-1.678-0.145-1.594-2.119-4.884-1.119-8.393 8.892-0.658 19.411 2.299 26.855-0.559zm-7.274 5.036h1.119v-1.119h-1.119v1.119zm-12.309 7.273h1.119v-1.119h-1.119v1.119zm5.036 3.916c-2.026 2.643 3.275 0.745 0 0zm-6.155 1.679h1.119v-1.119h-1.119v1.119zm7.833 0.56h1.119v-1.119h-1.119v1.119zm-7.833 2.237h1.119v-1.119h-1.119v1.119zm2.239 1.12h1.118v-1.119h-1.118v1.119zm3.356 1.678h1.679c0.072-1.004-0.556-1.309-1.679-1.119v1.119z" fill="#EFF0F0"/>
	<path d="m54.427 65.041c0.329 14.038 1.368 20.898 1.679 33.01-7.583 0.421-16.607 0.803-24.058 2.797-0.134-12.55-1.156-24.21-2.238-35.809 5.612 1.673 15.926 0.034 24.617 0zm-13.427 15.105h1.119v-1.119h-1.119v1.119zm2.797 1.12c1.885 1.698 1.697-2.069 0 0zm2.798 1.118h1.119v-1.119h-1.119v1.119zm2.797-0.559c-0.45 3.387 2.565 0.373 0 0zm-4.476 2.798h1.119v-1.119h-1.119v1.119zm2.797 0.559h1.119v-1.119h-1.119v1.119z" fill="#EFF0F0"/>
	<path d="m37.643 137.21c0.904-0.158 0.963 0.529 1.679 0.56 3.724 10.076 10.892 16.709 22.38 19.022-5.397 20.614-15.089 41.003-25.177 57.627-0.649 1.069-1.612 1.544-2.238 2.797-0.513 1.028 0.196 2.713-1.678 2.798-0.368-2.047 1.21-2.146 1.119-3.917 0.056-1.735-0.684-2.673-1.119-3.917 1.74-8.827 3.173-18.299 5.035-27.975 0.395-2.048 0.428-6.03 2.238-5.595 0.308-1.24-1.068-0.796-1.119-1.678-1.191-0.796 1.64-2.077 1.679-2.238 0.128-0.534-1.042-1.056-1.119-1.678-0.151-1.224 1.114-1.748 1.119-1.679-0.087-1.235-0.954-1.768-1.119-3.357-0.056-0.537 0.012-2.095 0-2.797-0.155-9.14-0.857-18.18-1.68-27.95zm5.035 35.81h1.119v-1.119h-1.119v1.12zm2.238 4.48h1.119v-1.119h-1.119v1.12zm1.119 6.15c-0.19-0.453-1.486-0.675-1.679 0-0.37 1.3 2.186 1.21 1.679 0zm-2.238 3.92h1.119v-1.119h-1.119v1.12z" fill="#EFF0F0"/>
</g>
<metadata><rdf:RDF><cc:Work><dc:format>image/svg+xml</dc:format><dc:type rdf:resource="http://purl.org/dc/dcmitype/StillImage"/><cc:license rdf:resource="http://creativecommons.org/licenses/publicdomain/"/><dc:publisher><cc:Agent rdf:about="http://openclipart.org/"><dc:title>Openclipart</dc:title></cc:Agent></dc:publisher><dc:title>household pliers</dc:title><dc:date>2006-10-10T19:19:09</dc:date><dc:description>a pair of household pliers</dc:description><dc:source>http://openclipart.org/detail/502/household-pliers-by-johnny_automatic</dc:source><dc:creator><cc:Agent><dc:title>johnny_automatic</dc:title></cc:Agent></dc:creator><dc:subject><rdf:Bag><rdf:li>black &amp; white</rdf:li><rdf:li>clip art</rdf:li><rdf:li>clipart</rdf:li><rdf:li>contour</rdf:li><rdf:li>household</rdf:li><rdf:li>outline</rdf:li><rdf:li>pliers</rdf:li><rdf:li>tool</rdf:li></rdf:Bag></dc:subject></cc:Work><cc:License rdf:about="http://creativecommons.org/licenses/publicdomain/"><cc:permits rdf:resource="http://creativecommons.org/ns#Reproduction"/><cc:permits rdf:resource="http://creativecommons.org/ns#Distribution"/><cc:permits rdf:resource="http://creativecommons.org/ns#DerivativeWorks"/></cc:License></rdf:RDF></metadata></svg>
