<?xml version="1.0" encoding="UTF-8" standalone="no"?>
<svg xmlns:rdf="http://www.w3.org/1999/02/22-rdf-syntax-ns#" xmlns="http://www.w3.org/2000/svg" height="604pt" width="556pt" version="1.1" xmlns:cc="http://creativecommons.org/ns#" xmlns:dc="http://purl.org/dc/elements/1.1/" viewBox="0 0 556 604">
<path d="m483.24 5.4453c-4.012 0.061371-7.9146 1.0941-11.38 3.5141-18.66 20.1-42.04 35.101-60.89 55.011-18.92 22.04-38.44 43.55-57.67 65.33-34.31 40.56-72.231 77.909-107.04 117.96-19.77 22.29-40.94 43.661-57.15 68.831-26.02 27.04-50.759 55.29-76.319 82.7-16.4 19.18-35.431 35.949-52.031 54.959-5.33 6.04-12.69 9.9894-17.4 16.609-13.49 16.61-31.36 31.351-37.45 52.631-2.18 6.12 1.39 12.429 4.85 17.269 8.2 11.31 21.04 17.571 31.27 26.711 10.46 9.53 20.901 19.099 30.711 29.309 1.35 2.77 4.0497 1.0303 6.0797 0.62031 7.55-2.82 16.549-1.7997 23.139-6.9797 4.9-3.46 7.681-8.97 11.811-13.15 17.46-13.52 30.15-31.9 45-48 6.85-6 10.869-14.34 17.139-20.87 9.75-13.72 22.841-24.6 32.911-38.08 4.9-6.98 10.67-13.311 17.25-18.741 6.13-5.24 10.23-12.56 17.43-16.57 8.41-8.08 13.44-19.019 21.87-27.139 13.03-16.84 25.729-34.071 40.759-49.241 15.83-18.44 31.481-37.119 49.161-53.839 7.02-6.39 11.459-15.15 18.909-21.1 10.06-8.66 16.66-20.621 27.48-28.511 36.2-38.67 72.33-77.36 104.82-119.17 9.63-10.83 18.281-22.799 23.541-36.409 6.1-17.89 21.35-33.829 18.13-53.859-0.95-10-12.36-11.881-18.95-17.391-7.94-5.14-16.56-9.18-24.08-15-6.1819-4.095-14.242-7.5219-21.902-7.4047z" fill="#5e2b03"/>
<path fill="#fbce9c" d="m482.92 22.61c8.66-4.06 13.65 1.95 17.45 8.27 10.01 0.83 15.26 9.59 22.87 14.85 8.57 7.89 11.23 20.9 5.83 31.36-7.88 13.07-13.46 27.7-23.96 39.04-22.54 30.41-48.35 58.17-74.78 85.2-15.98 18.31-34.82 33.92-50.36 52.64-26.12 24.99-50.43 51.62-73.69 79.32-21.35 30.26-48.51 55.66-70.86 85.13-23.85 16.67-35.52 44.89-58.11 62.89-6.23 5.16-9.91 12.66-16.18 17.81-12.69 11.72-20.29 27.55-31.67 40.34-8.37 8.04-14.13 18.43-22.89 26.09-8.47 11.31-23.84 16.94-37.6 13.88-9.42-2.2-7.81-15.04-16.45-17.92-11.11-7.74-19.36-18.8-27.99-29.06-3.4-3.58-2.13-8.87 0.09-12.75 2.64-8.24 10.52-12.89 15.99-19.08 5.12-3.85 5.67-11.49 11.48-14.56 9.22-4.45 13.92-14.03 21.81-20.16 10.02-10.98 20.46-21.64 30.17-32.84 23.01-16.75 36.73-42.68 54.93-64.07 8.74-12.66 18.97-24.33 30.72-34.28 11.3-10.43 16.65-25.61 29.31-34.69 28.86-31.05 57.41-62.56 87.22-92.77 31.8-35.78 65.19-70.16 97.65-105.36 5.22-5.79 9.24-12.66 15.23-17.74 7.9-5.55 9.09-16.51 17.27-21.78 6.84-3.82 9.99-11.28 15.1-16.88 9.29-9.08 17.28-21.44 31.42-22.88m-6.85 10.95c0.54 3.29-1.67 8.13 1.78 10.4 4.64 5.26 8.26 11.44 13.66 16.06 5.74 1.13 3.05-6.79 4.06-9.98-5.22-0.07-4.75-6.84-8.21-9.33-4.09-2.53-4.56-10.19-11.29-7.15m-14.9 16.62c-2.29 4.1-2.1 10.55 2 13.64 4.55 4.58 7.19 10.85 12.45 14.77 2.68 1.44 6.72-1.97 4.5-4.72-3.8-6.58-6.31-14.6-12.81-19.11-2.07-1.62-2.78-5.95-6.14-4.58m-16.02 16.04c-1.38 8.53 3.5 14.91 9.05 20.57 2.33 3.68 4.9 9.2 10.55 6.95 2.05-10.79-8.25-16.21-13.32-24.12-1.23-2.29-3.49-4.37-6.28-3.4m-12.24 11.19c0.32 5.63 0.44 12.66 5.48 16.27 8.56 7.63 15.51 16.21 23.54 24.47 1.63 2.45 4.66 4.52 7.69 3.49 1.06-7.62-6.37-13.12-10.93-18.32-2.94-4.35-6.88-7.87-9.75-12.24-5.96-3.66-9.98-11.34-16.03-13.67m-13.9 17.03c-0.18 3.52-0.1 7.05 0.25 10.57 6.38 3.95 9.49 11.16 15.26 15.78 2.83 1.27 6.66-1.75 3.97-5.19-0.53-4.92-5.54-7.37-7.39-11.69-2.76-4.18-5.68-11.21-12.09-9.47m-14.79 19c-4.12 12.29 8.13 17.5 13.94 25.65 4.52 3.06 7.71-1.4 6.23-5.93-3.91-0.4-3.41-5.41-5.97-7.56-3.91-3.56-7.21-7.67-10.46-11.83-0.81-1.28-2.59-0.6-3.74-0.33m-15.04 16c0.1 3.73-1.43 8.59 2.07 11.26 5.19 5.54 9 15.14 17.69 15.04-0.07-8.52-4.77-16.24-11-21.6-3.69-0.77-4.44-6.99-8.76-4.7m-12.94 11.7c-0.09 4.08 1.35 8.03 2.72 11.83 1.23 4.01 6.4 4.27 8.36 7.73 3.16 5.36 7.6 9.68 12.17 13.82 3.78 3.47 6.13 9.46 11.65 10.4 4.08-0.41 0.17-5.21-0.98-7.13-4.68-12.06-16.92-18.46-24.18-28.72-2.91-2.72-4.78-8.91-9.74-7.93m-14.14 16.4c-2.38 10.54 7.5 16.98 12.94 24.47 3.45 4.04 11.51 1.37 7.22-4.89-4.26-6.67-9.41-12.8-15.36-18.01-1.34-1.08-2.99-2.94-4.8-1.57m-15.84 16.82c-1.03 4.46-2.04 10.22 1.8 13.6 4.55 4.89 7.84 11 13.83 14.42 1.81 1.34 5.71 0.6 4.97-2.29 0.83-10.39-9.41-15.04-14.86-22.01-1.83-1.26-3.16-4.94-5.74-3.72m-14.14 17.99c0.58 3.64-2.02 9.07 1.78 11.57 5.34 4.86 9.32 11.01 14.37 16.1 5.99 0.78 5.48-7.67 2.57-10.65-3.56-3.58-5.79-8.23-9.52-11.65-2.41-2.53-5.14-6.69-9.2-5.37m-13.04 15.92c0.59 5.05-0.38 12 5.28 14.45 8.08 7.9 15.29 16.76 22.11 25.78 1.95 2.35 5.19 3.04 8.14 2.33 1.35-7.13-5.5-11.38-9.06-16.4-6.16-8.36-13.62-15.64-20.79-23.11-1.64-1.25-3.25-3.86-5.68-3.05m-16.91 13.06c-0.31 3.59-0.27 7.18 0.14 10.77 7.64 2.82 9.19 14.17 17.64 15.91 4.4-2.32 2.01-10.8-1.78-13.26-5.18-4.1-8.24-14.27-16-13.42m-15.09 18.02c-2.35 8.47 3.02 15.38 8.98 20.5 3.15 2.74 5.2 8.26 10.58 5.99 0.65-7.9-5.82-13.58-9.7-19.75-3.28-2.12-5.59-7.52-9.86-6.74m-14.98 17.15c0.4 3.78-1.78 9.76 3.09 11.22 2.97 5.35 7.26 9.77 10.51 14.94 4.12 1.33 10.1 0.38 6.95-5.83-4.1-7.86-10.71-13.96-16.42-20.61l-4.13 0.28m-13 15.83c-0.61 10.02 7.43 17.27 13.88 23.7 4.96 6.4 10.23 12.59 16.09 18.2 2.3 1.84 8.57 1.37 6.55-2.61-8.05-11.49-17.63-21.84-27.08-32.15-2.04-3.32-5.05-7.73-9.44-7.14m-17.12 13.33c-0.95 6.01 0.86 12.04 5.67 15.79 4.48 3.39 6.99 11.39 13.99 9.23 1.84-6.52-4.14-9.89-6.02-15.28-3.16-4.55-7.1-11.32-13.64-9.74m-14.88 17.71c0.01 4.82-1.65 11.28 3.67 13.89 5.19 3.37 5.93 10.98 11.84 13.57 6.74 3.18 3.49-4.74 4.1-6.98-4.51-7.13-10.83-12.97-16.07-19.56-0.72-1.41-2.24-1.29-3.54-0.92m-14.09 17.01c0.63 4.12-1.8 10.34 2.61 13 6.5 4.14 7.95 15.88 17.78 13.74 1.08-9.09-7.31-14.11-11.68-20.78-3.05-1.68-4.89-6.91-8.71-5.96m-10.94 15.81c0.35 3.56 0.73 7.11 0.73 10.69 2 0.25 2.53 1.79 2.75 3.57 8.16 4.8 12.26 13.7 19.5 19.52 3.99 3.59 5.94 11.53 12.75 9.77-0.33-5.87-2.39-12.61-7.53-16.06-8.92-6.7-15.08-16.15-23.05-23.82-1.55-1.49-2.48-4.35-5.15-3.67m-14.99 15.17c-2.28 9.06 4.73 15.4 10.04 21.46 2.73 2.79 4.1 8.42 9.47 5.97 2.98-2.43 1.57-7.89-1.03-10.3-4.36-3.38-6.52-8.71-10.93-12.05-2.54-1.69-3.9-6.46-7.55-5.08m-14.92 17.89c-3.72 6.61 1.22 14.69 6.77 18.9 4.93 2.64 4.55 12.6 11.81 10.68 2.39-3.59 2.14-10.11-1.6-12.97-6.2-4.97-9.35-14.47-16.98-16.61m-15.11 17.42c-2.97 10.43 7.04 16.01 11.45 23.76 1.84 4.26 11.16 5.56 8.09-1.82-2.39-6.08-5.69-12.04-10.65-16.46-2.94-2.21-3.86-8.24-8.89-5.48m-12.71 17.36c-0.38 6.1 3.78 11.01 6.72 15.9 6.98 4.73 10.78 12.5 17.16 17.84 3.1 3 4.98 7.62 9.37 9.01 4.96 2.93 5.02-2.46 3.13-4.42-5.73-7.87-11.5-15.78-18.28-22.8-3.23-3.47-4.81-8.54-9.78-10.13-3.27-1.35-4-6.75-8.32-5.4m-14.28 13.34c-0.18 4.05-0.63 8.52 0.79 12.28 5.09 4.9 9.63 10.32 14.68 15.25 4.08 1.46 6.03-3.79 3.83-6.9-3.26-6.46-8.48-11.66-13.1-17.17-1.75-1.5-3.54-4.58-6.2-3.46m-14.68 19.85c-2.75 1.18-2.69 4.41-1.47 6.71 1.07 5.93 7.01 8.45 9.55 13.51 2.86 3.07 4.69 9.04 10.29 6.29 2.67-9.15-5.75-13.99-10.43-20.04-2.59-1.85-3.95-7.61-7.94-6.47m-15.17 16.21c-2.45 10.74 7.11 17.87 13.12 25.25 2.2 3.7 8.83 2.72 5.64-3.29 1.2-6.24-5.59-8.56-7.99-13.34-3.4-2.42-5.44-10.41-10.77-8.62m-16.23 15.95c-0.21 5.81 0.2 12.67 5.27 16.47 10.02 7.98 16.65 19 25.45 28.14 2.68 0.35 7.63 0.47 5.82-3.31-8.82-14.43-21.11-26.27-32.28-38.87-1.28-1.05-2.27-3.42-4.26-2.43m-14.8 14.94c-3.31 10.74 6.67 17.03 11.75 24.87 1.36 2.51 6.62 2.92 7.02-0.34 0.5-6.44-4.56-11.16-7.15-16.52-3.82-2.26-6.12-9.8-11.62-8.01m-17.16 18.34c-0.38 4.35-0.19 9.01 3.46 11.9 4.94 5.38 7.03 16.81 16.31 15.12 1.4-8.39-5.34-14.48-9.69-20.71-2.15-3.46-5.05-8.39-10.08-6.31m-14 14.67c-1.44 7.1 0.59 14.02 6.19 18.52 3.82 3.61 5.36 11.4 12.52 8.87 0.27-9.49-6.81-17.8-13.66-23.75-1.48-1.62-2.21-4.85-5.05-3.64z"/>
<path d="m598.5 41.072c-0.98 0.016-2.1 0.283-3.41 0.877 0.67 4.113-2.09 10.163 2.22 13 5.8 6.575 10.33 14.301 17.08 20.076 7.17 1.413 3.81-8.487 5.07-12.474-6.52-0.088-5.94-8.552-10.26-11.664-4.31-2.669-5.41-9.902-10.7-9.815zm-20.61 21.324c-0.43 0.012-0.9 0.115-1.43 0.329-2.86 5.125-2.62 13.188 2.5 17.05 5.69 5.725 8.99 13.563 15.57 18.463 3.35 1.802 8.4-2.463 5.62-5.9-4.75-8.225-7.89-18.251-16.01-23.889-2.27-1.772-3.23-6.136-6.25-6.053zm-19.56 20.075c-0.61-0.018-1.24 0.077-1.89 0.304-1.73 10.663 4.37 18.635 11.31 25.715 2.91 4.6 6.13 11.5 13.19 8.69 2.56-13.49-10.32-20.267-16.65-30.155-1.25-2.325-3.35-4.479-5.96-4.554zm-17.19 14.291c0.4 7.038 0.55 15.828 6.85 20.338 10.7 9.54 19.38 20.26 29.42 30.59 2.04 3.06 5.83 5.65 9.62 4.36 1.32-9.52-7.97-16.4-13.67-22.9-3.67-5.44-8.6-9.84-12.18-15.3-7.45-4.58-12.48-14.176-20.04-17.088zm-15.24 20.948c-0.67 0.03-1.39 0.14-2.14 0.34-0.22 4.4-0.12 8.81 0.31 13.21 7.98 4.94 11.87 13.95 19.08 19.73 3.54 1.59 8.33-2.19 4.96-6.49-0.66-6.15-6.92-9.21-9.23-14.61-3.13-4.74-6.42-12.4-12.98-12.18zm-18.13 23.57c-0.86 0.05-1.78 0.35-2.49 0.52-5.15 15.36 10.16 21.88 17.42 32.06 5.65 3.83 9.64-1.75 7.79-7.41-4.89-0.5-4.26-6.76-7.46-9.45-4.89-4.45-9.02-9.59-13.08-14.79-0.51-0.8-1.32-0.99-2.18-0.93zm-19.46 19.91c-0.55 0.06-1.16 0.25-1.84 0.61 0.13 4.66-1.78 10.74 2.59 14.08 6.49 6.92 11.25 18.92 22.12 18.8-0.09-10.65-5.97-20.3-13.75-27-4.04-0.85-5.26-6.9-9.12-6.49zm-16.89 15.11c-0.36 0.01-0.73 0.05-1.12 0.13-0.11 5.1 1.69 10.03 3.4 14.78 1.54 5.02 8 5.34 10.45 9.67 3.95 6.7 9.5 12.1 15.21 17.27 4.73 4.34 7.67 11.83 14.57 13 5.1-0.51 0.21-6.51-1.23-8.91-5.85-15.08-21.15-23.08-30.23-35.9-3.41-3.19-5.67-10.19-11.05-10.04zm-17.14 20.02c-0.54 0-1.09 0.18-1.66 0.61-2.97 13.17 9.38 21.22 16.18 30.58 4.31 5.05 14.39 1.72 9.02-6.11-5.32-8.34-11.76-16-19.2-22.51-1.25-1.02-2.73-2.57-4.34-2.57zm-20.32 21.33c-0.35 0.01-0.73 0.11-1.14 0.3-1.28 5.57-2.55 12.77 2.25 17 5.69 6.11 9.81 13.75 17.29 18.02 2.27 1.68 7.14 0.76 6.21-2.86 1.04-12.98-11.76-18.8-18.57-27.51-2-1.38-3.53-5.07-6.04-4.95zm-16.98 22.47c-0.59 0.01-1.2 0.11-1.83 0.32 0.73 4.55-2.53 11.34 2.23 14.46 6.67 6.08 11.65 13.76 17.96 20.13 7.49 0.97 6.85-9.59 3.21-13.32-4.45-4.47-7.24-10.28-11.9-14.56-2.64-2.77-5.58-7.09-9.67-7.03zm-17.04 20.03c-0.35 0-0.71 0.06-1.09 0.19 0.74 6.31-0.48 15 6.6 18.06 10.1 9.88 19.11 20.95 27.64 32.22 2.44 2.94 6.48 3.8 10.17 2.92 1.69-8.92-6.87-14.23-11.32-20.5-7.7-10.45-17.03-19.55-25.99-28.89-1.79-1.37-3.56-4.04-6.01-4zm-21.33 16.45c-0.3 0.01-0.59 0.03-0.9 0.06-0.38 4.49-0.34 8.98 0.18 13.46 9.55 3.53 11.49 17.72 22.05 19.89 5.5-2.9 2.51-13.5-2.23-16.57-6.27-4.97-10.06-17.05-19.1-16.84zm-18.79 22.49c-0.31 0.01-0.64 0.04-0.97 0.1-2.94 10.59 3.77 19.22 11.22 25.62 3.94 3.43 6.51 10.33 13.23 7.49 0.81-9.87-7.27-16.97-12.12-24.69-3.85-2.48-6.63-8.57-11.36-8.52zm-14.53 21.19l-5.17 0.34c0.5 4.73-2.22 12.21 3.87 14.03 3.71 6.69 9.07 12.21 13.13 18.67 5.16 1.67 12.63 0.48 8.69-7.28-5.12-9.83-13.39-17.45-20.52-25.76zm-20.41 20.07c-0.32-0.01-0.66 0.02-1 0.06-0.77 12.53 9.28 21.59 17.34 29.63 6.2 8 12.79 15.73 20.12 22.75 2.87 2.3 10.71 1.71 8.19-3.26-10.07-14.37-22.04-27.3-33.85-40.19-2.39-3.89-5.85-8.98-10.8-8.99zm-20.19 16.43c-0.71 0.02-1.45 0.11-2.22 0.29-1.18 7.52 1.08 15.05 7.09 19.74 5.6 4.24 8.74 14.24 17.49 11.54 2.3-8.15-5.17-12.36-7.52-19.1-3.58-5.15-7.97-12.59-14.84-12.47zm-18.94 22.13c-0.62 0-1.27 0.13-1.87 0.3 0.01 6.03-2.07 14.1 4.58 17.36 6.49 4.22 7.41 13.73 14.8 16.97 8.43 3.97 4.36-5.93 5.13-8.73-5.64-8.91-13.54-16.21-20.09-24.45-0.56-1.1-1.52-1.45-2.55-1.45zm-18.62 21.43c-0.28 0.02-0.57 0.06-0.87 0.13 0.79 5.15-2.25 12.93 3.27 16.25 8.12 5.18 9.93 19.86 22.22 17.18 1.35-11.36-9.14-17.64-14.6-25.97-3.57-1.97-5.82-7.84-10.02-7.59zm-13.39 19.77c-0.35-0.02-0.73 0.02-1.15 0.13 0.44 4.45 0.91 8.88 0.91 13.36 2.5 0.31 3.16 2.24 3.44 4.46 10.2 6 15.32 17.13 24.37 24.4 4.99 4.49 7.43 14.42 15.94 12.22-0.41-7.34-2.99-15.77-9.41-20.08-11.15-8.38-18.85-20.19-28.81-29.78-1.7-1.63-2.8-4.57-5.29-4.71zm-18.3 18.78c-0.49 0-1.02 0.09-1.59 0.31-2.85 11.32 5.91 19.25 12.55 26.83 3.41 3.48 5.13 10.52 11.84 7.46 3.72-3.04 1.96-9.86-1.29-12.88-5.45-4.22-8.15-10.88-13.66-15.06-2.78-1.85-4.43-6.64-7.85-6.66zm-20.24 22.67c-4.65 8.26 1.52 18.36 8.46 23.63 6.16 3.3 5.69 15.75 14.77 13.35 2.98-4.49 2.67-12.64-2-16.22-7.75-6.21-11.69-18.08-21.23-20.76zm-15.84 20.89c-0.87-0.02-1.87 0.24-3.05 0.89-3.71 13.04 8.8 20.01 14.31 29.7 2.3 5.32 13.96 6.95 10.12-2.28-2.99-7.6-7.11-15.05-13.31-20.57-2.99-2.25-4.31-7.64-8.07-7.74zm-17.11 22.32c-0.55-0.02-1.15 0.06-1.82 0.27-0.48 7.62 4.72 13.76 8.39 19.87 8.73 5.91 13.48 15.63 21.46 22.3 3.87 3.75 6.22 9.53 11.71 11.26 6.2 3.67 6.27-3.07 3.91-5.52-7.16-9.84-14.37-19.73-22.85-28.5-4.04-4.34-6.01-10.68-12.23-12.66-3.57-1.48-4.72-6.83-8.57-7.02zm-18.48 16.65c-0.38 0.02-0.78 0.12-1.2 0.29-0.22 5.07-0.78 10.65 0.99 15.35 6.36 6.13 12.04 12.9 18.35 19.06 5.1 1.83 7.54-4.73 4.79-8.62-4.08-8.08-10.6-14.58-16.38-21.46-1.91-1.64-3.86-4.8-6.55-4.62zm-18.65 24.94c-0.28 0.02-0.58 0.08-0.9 0.17-3.43 1.47-3.36 5.51-1.83 8.38 1.33 7.41 8.76 10.57 11.93 16.89 3.58 3.84 5.87 11.3 12.87 7.86 3.33-11.44-7.19-17.48-13.04-25.05-3.03-2.16-4.72-8.63-9.03-8.25zm-18.09 20.1c-0.55 0.02-1.14 0.12-1.77 0.33-3.06 13.42 8.89 22.33 16.4 31.56 2.75 4.62 11.04 3.4 7.05-4.11 1.5-7.8-6.99-10.7-9.99-16.68-3.85-2.74-6.3-11.2-11.69-11.1zm-20.78 19.97c-0.39-0.02-0.81 0.06-1.28 0.29-0.26 7.27 0.25 15.84 6.59 20.59 12.53 9.98 20.82 23.75 31.82 35.18 3.34 0.44 9.53 0.58 7.27-4.14-11.02-18.04-26.39-32.84-40.35-48.59-1.3-1.06-2.36-3.22-4.05-3.33zm-17.941 18.63c-0.579 0.02-1.19 0.13-1.834 0.34-4.138 13.43 8.337 21.29 14.685 31.09 1.7 3.14 8.28 3.65 8.78-0.43 0.62-8.05-5.7-13.95-8.94-20.65-4.327-2.56-7.094-10.54-12.691-10.35zm-20.016 22.66c-1.003-0.06-2.089 0.12-3.268 0.6-0.475 5.44-0.238 11.27 4.325 14.88 6.175 6.72 8.788 21.01 20.388 18.9 1.75-10.49-6.676-18.1-12.113-25.89-2.184-3.51-4.985-8.24-9.332-8.49zm-19.553 18.62c-0.368 0.03-0.771 0.13-1.215 0.32-1.8 8.88 0.737 17.53 7.737 23.15 4.775 4.51 6.7 14.25 15.65 11.09 0.338-11.86-8.512-22.25-17.074-29.69-1.619-1.77-2.52-5.08-5.098-4.87z" transform="scale(.8)" fill="#050100"/>
</svg>
