<?xml version="1.0" encoding="UTF-8" standalone="no"?>
<svg id="svg2" xmlns:rdf="http://www.w3.org/1999/02/22-rdf-syntax-ns#" xmlns="http://www.w3.org/2000/svg" height="4646pt" width="1728pt" version="1.1" xmlns:cc="http://creativecommons.org/ns#" xmlns:xlink="http://www.w3.org/1999/xlink" viewBox="0 0 1728 4646" xmlns:dc="http://purl.org/dc/elements/1.1/">
<defs id="defs30">
<linearGradient id="linearGradient4167" y2="4983" gradientUnits="userSpaceOnUse" x2="1151.6" y1="4766" x1="326.43">
<stop id="stop4163" stop-color="#bec5c9" offset="0"/>
<stop id="stop4169" stop-color="#798790" offset="1"/>
</linearGradient>
<linearGradient id="linearGradient4180" y2="107.23" gradientUnits="userSpaceOnUse" x2="1782.8" y1="222.31" x1="1767.3">
<stop id="stop4176" stop-color="#736348" offset="0"/>
<stop id="stop4178" stop-color="#bb8836" offset="1"/>
</linearGradient>
</defs>
<g id="g4182">
<path id="path4" fill="#1f1b17" d="m1212.2 55.22c18.1-16.69 39.9-35.75 66.5-32.07 15.3 3.04 24.3 17.47 29.4 31.08 3.7 1.92 9.3 0.39 13.8 0.79 20.7-0.02 41.4-0.02 62.1 0 89.8 1.21 179.1 14.27 266.7 33.02 6.7-11.47 11.9-26.64 26.1-30.47 14.8-4.18 24.4 10.63 29.5 22.15 31.6 86.25 0.2 178.52-34.9 258.7-71.5 159.01-186.1 295.32-248 459.04-173.1 533.94-280 1086-408.4 1631.7-5.6 10.9 12.7 9.9 15.9 16.9-48.55 187.6-97.32 375.2-145.92 562.9-33.47 140.9-41.54 286.1-55.81 429.7 92.77 19.3 186.83 31.4 281.03 41.1 5.5-3.3 5.1 2.1 4 4.4-137.94 351.3-273.32 704-389.82 1063.2-6.23 25.2-28.09 43.1-51.29 52.7-44.66 19.3-94.27 21.1-142.11 23-100.49-1.2-200.47-18.5-296.63-47.4-61.84-19.8-124.02-43.3-176.18-82.9-31.35-22.8-62.69-63.6-44.06-103.7 170.22-334.7 298.11-688.9 412.95-1045.8 84.28 35.1 172.16 65.3 263.69 72.6 15.13-135 23.27-270.7 37.29-405.9 38-192.2 77.22-384.2 115.31-576.5 1.05-4.8 7.9-3.5 10.39-6.9 65.79-280.5 139.78-559 205.26-839.6 64.8-282.1 123.6-567.3 138-857.11 12.9-199.21-39.2-397.54-17.7-596.6 4.6-27.87 10.3-58.76 32.9-78.07m37.7-8.26c-37.3 20.22-49.8 64.44-55.4 103.5-11.2 84.29-5.2 171.12 0.3 254.51 5.3 72.47 12.5 144.79 18.1 217.24-4.9 290.53-49 579.19-110.9 862.79-68.4 313.6-156.7 622.4-228.9 935 41.62-13.9 87.06-7.4 126.68 8.8 74.82-321.9 140.12-645.9 215.22-967.8 55.6-235.7 116-470.8 198.1-698.87 34-84.88 84.2-161.82 132.1-239.31 43.8-70.69 88.9-141.56 122.7-217.9 22.8-50.81 39.4-105.02 42-160.94 1.4-18.04 3.2-38.93-9.1-53.82-10.2-7.43-24.2-7.31-35.5-2.86-12.5 16.74-19.6 37.06-27.7 56.27-33.8 85.64-62.7 173.23-101 257.01-13.4 27.54-26.8 55.69-46.9 79.13-6 5.14-11.9 11.85-20.2 12.79-42.9 7.6-86.7 13.34-130.2 9.75-29.7-2.54-59.1-11.76-83.3-29.48 7.4-1.75 14.5 3.27 22 3.16-11.8-95.64-13.4-193.91 10.1-287.92-17.1 2.12-38.9 5.66-50.9-10.28-20.4-28.39-19.8-68.81-5.1-99.64 7.6-17.84 28-22.4 45.6-20.99-2.4-11.36-18.1-16.57-27.8-10.14m27.1 26.03c-22.5 0.12-43.6 18.3-46.3 40.83-3.6 19.94 2.8 46.64 23.2 56.2 10.2 6.07 22.3 1.83 33.4 1.2 105.6-9.05 210.2 14.91 312.4 38.65 13.7-32.86 26.7-66.05 40.6-98.81 2.1-1.71-1-2.85-2.5-2.89-119.1-20.93-239.6-40.22-360.8-35.18m31.5 115.48c-1.7 0.18-3.4 0.5-5 1.11-20.1 94.94-19.6 192.86-10.3 289.03 54.4 12.3 112.1 13.69 165.7-2.57 18.8-10.83 30.1-30.85 41.8-48.37 37.7-64.63 65-134.56 93.2-203.7-93.7-20.33-189.3-35.98-285.4-35.5m-449.55 2262.6c-38.26 187.8-77.53 375.4-115.64 563.2-4.47 27.1-6.7 54.4-9.34 81.7-18.36 197-31.18 394.8-62.46 590.4-4.82 22.2-5 49.5 12.55 66.5 94.15-58.5 149.7-157.7 213.09-245 0.11 0.5 0.34 1.5 0.45 2-37.26 69.4-70.01 142.1-119.87 203.8-26.37 31.4-57.7 60.2-95.55 77-24.61-18.2-35.68-50.4-30.62-80.1 17.49-93.8 29.31-188.6 38.2-283.6-87.98-0.7-174.15-29.1-251.45-68.6-44.62 146.7-92.71 292.5-145.22 436.6-74.46 200.3-158.19 396.5-259.1 585-10.07 17.7-9.15 40.1 0.03 58 15.79 28.7 43.49 49.2 72 64.1 73.98 41.9 158.91 62.8 242.21 78.7 71.69 12.5 144.74 19.3 217.49 15 36.49-2.7 73.78-7.1 107.31-22.8 16.64-8 32.63-21 37.39-39.6 105.52-355 238.56-701.3 384.48-1041.6-57.4-5.5-116.86-10.5-174.71-18.8-35.82-5.8-71.52-12.2-106.94-20 14.27-144.8 22.15-291.1 54.24-433.5 46.38-185.4 92.89-370.9 139.31-556.3-37.23-42.4-103.31-39.9-147.85-12.1z"/>
<path id="path6" fill="#7a5230" d="m1249.9 46.96c9.7-6.43 25.4-1.22 27.8 10.14-17.6-1.41-38 3.15-45.6 20.99-14.7 30.83-15.3 71.25 5.1 99.64 12 15.94 33.8 12.4 50.9 10.28-23.5 94.01-21.9 192.28-10.1 287.92-7.5 0.11-14.6-4.91-22-3.16-29.2-13.68-49.4-40.38-59.6-70.36-1-3.57-1.9 1.07-1.6 2.56-5.5-83.39-11.5-170.22-0.3-254.51 5.6-39.06 18.1-83.28 55.4-103.5z"/>
<path id="path8" fill="#4a443d" d="m1321.9 55.02c18.4-1.52 43.9-1.99 62.1 0-20.7-0.02-41.4-0.02-62.1 0z"/>
<path id="path10" d="m1638.9 90.244c-14.2 0.08-28.4 0.404-42.6 0.994-28.2 0.15-54.5 22.872-58 51.042-4.4 24.92 3.6 58.3 29.1 70.25 12.7 7.58 27.9 2.28 41.7 1.5 132-11.32 262.8 18.63 390.5 48.31 17.1-41.08 33.4-82.57 50.8-123.52 2.6-2.13-1.3-3.56-3.2-3.61-134.8-23.71-271.2-45.733-408.3-44.966z" transform="scale(.8)" fill="url(#linearGradient4180)"/>
<path id="path12" fill="#7a5230" d="m1665.3 87.3c11.3-4.45 25.3-4.57 35.5 2.86 12.3 14.89 10.5 35.78 9.1 53.82-2.6 55.92-19.2 110.13-42 160.94-33.8 76.34-78.9 147.21-122.7 217.9-17.4 7.52-35.6 18.9-55.7 20.63-65.1 9.7-130.3-10.78-190.2-33.99 10.9-2.94 27.4-2.89 40-7.21 43.5 3.59 87.3-2.15 130.2-9.75 8.3-0.94 14.2-7.65 20.2-12.79 20.1-23.44 33.5-51.59 46.9-79.13 38.3-83.78 67.2-171.37 101-257.01 8.1-19.21 15.2-39.53 27.7-56.27z"/>
<path id="path16" fill="#af8457" d="m1194.8 404.97c-0.3-1.49 0.6-6.13 1.6-2.56 10.2 29.98 30.4 56.68 59.6 70.36 24.2 17.72 53.6 26.94 83.3 29.48-12.6 4.32-29.1 4.27-40 7.21 59.9 23.21 125.1 43.69 190.2 33.99 20.1-1.73 38.3-13.11 55.7-20.63-47.9 77.49-98.1 154.43-132.1 239.31-82.1 228.07-142.5 463.17-198.1 698.87-75.1 321.9-140.4 645.9-215.22 967.8-39.62-16.2-85.06-22.7-126.68-8.8 72.2-312.6 160.5-621.4 228.9-935 61.9-283.6 106-572.26 110.9-862.79-5.6-72.45-12.8-144.77-18.1-217.24z"/>
<path id="path18" fill="#c3d1da" d="m858.95 2451.1c44.54-27.8 110.62-30.3 147.85 12.1-46.42 185.4-92.93 370.9-139.31 556.3-32.09 142.4-39.97 288.7-54.24 433.5 35.42 7.8 71.12 14.2 106.94 20-7.96 11.4-14.58 23.8-23.04 34.9-63.39 87.3-118.94 186.5-213.09 245-17.55-17-17.37-44.3-12.55-66.5 31.28-195.6 44.1-393.4 62.46-590.4 2.64-27.3 4.87-54.6 9.34-81.7 38.11-187.8 77.38-375.4 115.64-563.2m-133.95 848c-3.33 126-9.5 253.5-42.95 375.9 1.68 8.5 15.46 4.2 18.89-1.3 39.7-120.3 36.65-251.6 24.06-374.6m47.14 144.9c-13.66 77-30.62 153.6-52.58 228.7-0.13 1.4-1.75 4.8 0.98 4.1 74.45-54.8 131.77-129.1 184.05-204.4-32.9 1.8-66.06 4.4-98.73-1.2-14.78-2.3-31.82-11.1-33.72-27.2z"/>
<path id="path20" fill="#fff" d="m725 3299.1c12.59 123 15.64 254.3-24.06 374.6-3.43 5.5-17.21 9.8-18.89 1.3 33.45-122.4 39.62-249.9 42.95-375.9z"/>
<path id="path22" d="m547.89 4198c-55.78 183.4-115.89 365.6-181.53 545.8-93.07 250.4-197.73 495.6-323.87 731.2-12.589 22.1-11.44 50.2 0.035 72.5 19.738 35.9 54.363 61.4 90.005 80.1 92.47 52.4 198.63 78.5 302.76 98.4 89.61 15.6 180.92 24.1 271.86 18.8 45.61-3.4 92.22-9 134.14-28.5 20.8-10.1 40.79-26.2 46.74-49.5 131.87-443.9 298.17-876.7 480.57-1302.1-71.7-6.8-146-13.1-218.4-23.5-9.9 14.3-18.2 29.7-28.8 43.6 0.2 0.7 0.5 1.9 0.6 2.6-46.6 86.7-87.5 177.7-149.84 254.8-32.96 39.2-72.12 75.2-119.44 96.1-30.76-22.7-44.6-62.9-38.27-100 21.86-117.2 36.64-235.9 47.75-354.5-109.98-0.9-217.69-36.5-314.31-85.8z" transform="scale(.8)" fill="url(#linearGradient4167)"/>
<path id="path24" fill="#1f1b17" d="m772.14 3444c1.9 16.1 18.94 24.9 33.72 27.2 32.67 5.6 65.83 3 98.73 1.2-52.28 75.3-109.6 149.6-184.05 204.4-2.73 0.7-1.11-2.7-0.98-4.1 21.96-75.1 38.92-151.7 52.58-228.7z"/>
</g>
</svg>