<?xml version="1.0" standalone="yes"?>
<svg xmlns="http://www.w3.org/2000/svg" xmlns:xlink="http://www.w3.org/1999/xlink" xmlns:svg="http://www.w3.org/2000/svg" xmlns:dc="http://purl.org/dc/elements/1.1/" xmlns:cc="http://web.resource.org/cc/" xmlns:rdf="http://www.w3.org/1999/02/22-rdf-syntax-ns#" width="960" height="720">
<path style="fill:#ffffff; stroke:none;" d="M0 0L0 720L960 720L960 0L0 0z"/>
<path style="fill:#a08b73; stroke:none;" d="M479 17L479 18L482 18L479 17z"/>
<path style="fill:#b1665f; stroke:none;" d="M478 18L475 25L476 25L478 18z"/>
<path style="fill:#8d0f10; stroke:none;" d="M479 18C472.936 34.0217 460.769 49.9266 451.619 64.4244C439.721 83.2755 429.142 102.982 417.572 122C408.984 136.115 395.365 152.86 395 170L409 165L435 162.043L504 160L504 159L439 159C441.607 154.271 446.116 155.001 451 155L465.514 99L474 62L475 62L477 64L482 35L483 37L484 37L484 33C493.286 36.2814 495.138 47.7308 500.684 55.1697C512.613 71.1722 522.038 89.5994 531.805 107.039C537.407 117.043 544.777 126.583 547 138C553.198 137.779 563.068 158.694 566 164L567 164C564.707 149.494 550.59 132.289 542.698 120C529.935 100.125 518.983 79.0878 506.559 59C498.691 46.2795 487.454 32.3206 483 18L479 18z"/>
<path style="fill:#bf7373; stroke:none;" d="M483.333 19.6667L483.667 20.3333L483.333 19.6667z"/>
<path style="fill:#b25652; stroke:none;" d="M484.333 21.6667L484.667 22.3333L484.333 21.6667z"/>
<path style="fill:#bf7373; stroke:none;" d="M474 25L471 32L472 32L474 25z"/>
<path style="fill:#ca403f; stroke:none;" d="M480 25L482 28L482 25L480 25z"/>
<path style="fill:#a64f40; stroke:none;" d="M486 25L489 29L486 25z"/>
<path style="fill:#f16f75; stroke:none;" d="M479 27L476 33L478 36L479 36L481 27L479 27z"/>
<path style="fill:#bb2b2d; stroke:none;" d="M480 29L479 35L481 35L480 29z"/>
<path style="fill:#b1665f; stroke:none;" d="M489.333 29.6667L489.667 30.3333L489.333 29.6667z"/>
<path style="fill:#bf7373; stroke:none;" d="M490 31L492 34L490 31M470 32L467 38L468 38L470 32z"/>
<path style="fill:#eeaead; stroke:none;" d="M476 33L457.669 64L418.501 131.961L402 161L449 152L471.528 60L478 33L476 33z"/>
<path style="fill:#c60204; stroke:none;" d="M484 33L484 37L483 37L482 35L477 64L475 62L474 62L468.244 87.1697L451 155C446.31 155 440.738 153.763 439 159L525 160.089L567 166C564.723 159.077 554.605 138.906 547 138C545.481 126.249 537.592 116.156 531.805 106.089C521.853 88.7781 512.8 70.1297 500.684 54.2855C495.174 47.0811 493.574 35.3275 484 33z"/>
<path style="fill:#d09188; stroke:none;" d="M492 34L494 39L495 39L492 34z"/>
<path style="fill:#d45152; stroke:none;" d="M474 35L471 42L472 42L476 35L474 35z"/>
<path style="fill:#ef8784; stroke:none;" d="M477 37L475 47L476 47L477 37z"/>
<path style="fill:#d09188; stroke:none;" d="M466 38L463 45L464 45L466 38z"/>
<path style="fill:#90382c; stroke:none;" d="M494 39L497 43L494 39z"/>
<path style="fill:#a64f40; stroke:none;" d="M497.333 43.6667L497.667 44.3333L497.333 43.6667z"/>
<path style="fill:#b25652; stroke:none;" d="M462 45L459 52L460 52L462 45M499.333 46.6667L499.667 47.3333L499.333 46.6667z"/>
<path style="fill:#d86d6f; stroke:none;" d="M467 47L464 54L465 54L467 47z"/>
<path style="fill:#b25652; stroke:none;" d="M500.333 48.6667L500.667 49.3333L500.333 48.6667z"/>
<path style="fill:#d45152; stroke:none;" d="M501 50L503 53L501 50z"/>
<path style="fill:#bf7373; stroke:none;" d="M458 52L457 55L458 52z"/>
<path style="fill:#b25652; stroke:none;" d="M503.333 53.6667L503.667 54.3333L503.333 53.6667z"/>
<path style="fill:#ef8784; stroke:none;" d="M473 54L472 58L473 58L473 54z"/>
<path style="fill:#b1665f; stroke:none;" d="M456 55L452 64L453 64L456 55M504 55L506 58L504 55z"/>
<path style="fill:#d86d6f; stroke:none;" d="M460 58L459 62L460 62L460 58z"/>
<path style="fill:#f16f75; stroke:none;" d="M471 59L471 64L472 64L471 59z"/>
<path style="fill:#a64f40; stroke:none;" d="M508 62L511 66L508 62z"/>
<path style="fill:#bf7373; stroke:none;" d="M449 66L448 70L449 70L451 66L449 66z"/>
<path style="fill:#b1665f; stroke:none;" d="M511.333 66.6667L511.667 67.3333L511.333 66.6667z"/>
<path style="fill:#d45152; stroke:none;" d="M455 67L450 78L451 78L455 67z"/>
<path style="fill:#bf7373; stroke:none;" d="M512 68L514 71L512 68z"/>
<path style="fill:#d09188; stroke:none;" d="M447 70L446 73L447 70z"/>
<path style="fill:#b1665f; stroke:none;" d="M515.333 73.6667L515.667 74.3333L515.333 73.6667z"/>
<path style="fill:#eeaead; stroke:none;" d="M444 74L444 77L445 77L446 74L444 74z"/>
<path style="fill:#bf7373; stroke:none;" d="M443 77L441 82L442 82L443 77z"/>
<path style="fill:#d09188; stroke:none;" d="M518 77L518 80L519 80L518 77z"/>
<path style="fill:#ef8784; stroke:none;" d="M449 78L438 98C442.427 94.6401 449.823 83.6746 449 78z"/>
<path style="fill:#eeaead; stroke:none;" d="M439 82L439 85L440 85L441 82L439 82z"/>
<path style="fill:#b1665f; stroke:none;" d="M521.333 83.6667L521.667 84.3333L521.333 83.6667z"/>
<path style="fill:#a64f40; stroke:none;" d="M438 85L436 90L440 85L438 85z"/>
<path style="fill:#d45152; stroke:none;" d="M465 85L465 89L466 89L465 85z"/>
<path style="fill:#bf7373; stroke:none;" d="M523.333 86.6667L523.667 87.3333L523.333 86.6667z"/>
<path style="fill:#a64f40; stroke:none;" d="M524.333 88.6667L524.667 89.3333L524.333 88.6667z"/>
<path style="fill:#bf7373; stroke:none;" d="M435 90L432 97L433 97L435 90z"/>
<path style="fill:#d45152; stroke:none;" d="M441 90L440 94L441 94L441 90z"/>
<path style="fill:#f16f75; stroke:none;" d="M464 90L462 98L463 98L464 90z"/>
<path style="fill:#bf7373; stroke:none;" d="M525 90L527 93L525 90z"/>
<path style="fill:#b25652; stroke:none;" d="M527.333 93.6667L527.667 94.3333L527.333 93.6667z"/>
<path style="fill:#d09188; stroke:none;" d="M528 94L529 98L530 98L528 94z"/>
<path style="fill:#bf7373; stroke:none;" d="M431 97L430 100L431 97z"/>
<path style="fill:#d45152; stroke:none;" d="M437 98L435 102L437 98z"/>
<path style="fill:#b1665f; stroke:none;" d="M530 99L532 102L530 99z"/>
<path style="fill:#d09188; stroke:none;" d="M429 100L427 105L428 105L429 100z"/>
<path style="fill:#ef8784; stroke:none;" d="M435 102L429 113C432.233 110.327 436.021 106.423 435 102z"/>
<path style="fill:#bf7373; stroke:none;" d="M533.333 103.667L533.667 104.333L533.333 103.667M426 105L422 114L423 114L426 105z"/>
<path style="fill:#b25652; stroke:none;" d="M534.333 105.667L534.667 106.333L534.333 105.667z"/>
<path style="fill:#bf7373; stroke:none;" d="M535 107L537 110L535 107z"/>
<path style="fill:#d09188; stroke:none;" d="M537 110L539 113L537 110z"/>
<path style="fill:#bf7373; stroke:none;" d="M539.333 113.667L539.667 114.333L539.333 113.667z"/>
<path style="fill:#b1665f; stroke:none;" d="M420 115L419 119L420 119L420 115z"/>
<path style="fill:#d45152; stroke:none;" d="M457 115L457 120L458 120L459 115L457 115z"/>
<path style="fill:#b25652; stroke:none;" d="M540.333 115.667L540.667 116.333L540.333 115.667z"/>
<path style="fill:#d45152; stroke:none;" d="M426 117L421 126L426 117z"/>
<path style="fill:#bf7373; stroke:none;" d="M541 117L543 120L541 117z"/>
<path style="fill:#d09188; stroke:none;" d="M418 119L414 127L415 127L418 119z"/>
<path style="fill:#a64f40; stroke:none;" d="M543.333 120.667L543.667 121.333L543.333 120.667z"/>
<path style="fill:#d09188; stroke:none;" d="M544.333 121.667L544.667 122.333L544.333 121.667z"/>
<path style="fill:#b1665f; stroke:none;" d="M545.333 123.667L545.667 124.333L545.333 123.667z"/>
<path style="fill:#d45152; stroke:none;" d="M420 127L416 136L417 136L420 127z"/>
<path style="fill:#d09188; stroke:none;" d="M412 128L409 136L410 136L414 128L412 128z"/>
<path style="fill:#ca403f; stroke:none;" d="M454 128L454 134L455 134L454 128z"/>
<path style="fill:#b1665f; stroke:none;" d="M548 129L550 132L548 129z"/>
<path style="fill:#b25652; stroke:none;" d="M550.333 132.667L550.667 133.333L550.333 132.667z"/>
<path style="fill:#b1665f; stroke:none;" d="M552.333 135.667L552.667 136.333L552.333 135.667z"/>
<path style="fill:#bf7373; stroke:none;" d="M407.333 137.667L407.667 138.333L407.333 137.667z"/>
<path style="fill:#a64f40; stroke:none;" d="M553.333 137.667L553.667 138.333L553.333 137.667z"/>
<path style="fill:#b1665f; stroke:none;" d="M406 139L403 146L404 146L406 139z"/>
<path style="fill:#bf7373; stroke:none;" d="M555.333 140.667L555.667 141.333L555.333 140.667z"/>
<path style="fill:#b25652; stroke:none;" d="M556.333 142.667L556.667 143.333L556.333 142.667z"/>
<path style="fill:#bf7373; stroke:none;" d="M557 144L559 147L557 144M402 146L401 149L402 146z"/>
<path style="fill:#d86d6f; stroke:none;" d="M409 146L408 149L409 146z"/>
<path style="fill:#bf7373; stroke:none;" d="M560.333 148.667L560.667 149.333L560.333 148.667z"/>
<path style="fill:#d09188; stroke:none;" d="M400 149L391 166C394.857 162.542 400.873 154.343 400 149z"/>
<path style="fill:#d86d6f; stroke:none;" d="M407.333 149.667L407.667 150.333L407.333 149.667z"/>
<path style="fill:#bf7373; stroke:none;" d="M561.333 150.667L561.667 151.333L561.333 150.667z"/>
<path style="fill:#d86d6f; stroke:none;" d="M404 154L403 158L404 158L404 154z"/>
<path style="fill:#d45152; stroke:none;" d="M432 154L432 155L437 155L432 154z"/>
<path style="fill:#b1665f; stroke:none;" d="M563 154L565 157L563 154z"/>
<path style="fill:#78141a; stroke:none;" d="M398 155L391 168L400 175L398 178L427 184L427 164L409 165L395 170L398 155z"/>
<path style="fill:#d45152; stroke:none;" d="M427 155L427 156L432 156L427 155z"/>
<path style="fill:#bb2b2d; stroke:none;" d="M417 158L417 159L432 157L417 158z"/>
<path style="fill:#d45152; stroke:none;" d="M410 159L410 160L417 159L410 159M401 159L404 162L404 161L401 159z"/>
<path style="fill:#a64f40; stroke:none;" d="M566.333 159.667L566.667 160.333L566.333 159.667M453 160L453 161L504 161C490.873 155.492 467.311 160 453 160z"/>
<path style="fill:#8d0f10; stroke:none;" d="M515 160L515 161C528.358 161 540.6 166.223 554 166.961C558.287 167.197 564.357 169.913 567 166L515 160z"/>
<path style="fill:#d09188; stroke:none;" d="M440 162L440 163L504 162L484 161L440 162z"/>
<path style="fill:#b25652; stroke:none;" d="M504 161L504 162L515 162L504 161z"/>
<path style="fill:#90382c; stroke:none;" d="M515 161L515 162L531 163L515 161z"/>
<path style="fill:#78141a; stroke:none;" d="M567 161C566.609 172.994 543.82 165 535 165C536.741 170.007 532.356 179.217 536.028 183.164C538.621 185.952 544.367 182.224 547.17 181.444C557.754 178.502 566.973 177.882 568 165L569 165L569 169L570 169L567 161z"/>
<path style="fill:#8d5652; stroke:none;" d="M427 187L427 188C434.772 186.335 426.406 169.26 431.333 164.333C433.38 162.287 437.37 163 440 163C423.134 155.923 432.341 179.95 427 187z"/>
<path style="fill:#b6a188; stroke:none;" d="M428 188L429 203L430 203L431 164L455 172.243L486 183.611L500.972 189.434L502 206L502 249L502 413L506 413C506 409.359 504.915 403.485 507.028 400.318C510.254 395.483 524.809 398 530 398L530 313C530 305.499 526.842 288.511 534 284L532 279L536 280L531 278C531 271.455 529.025 261.872 534 257L532 235L532 189L536 189L536 188L531 188L531 163L521 163L523 194C519.927 194.622 516.148 196.436 513.318 194.239C510.139 191.772 511 186.518 511 183C510.999 174.845 508.1 163.355 519 163L498 162L452 162.039L431.603 164.028L428 188z"/>
<path style="fill:#87755f; stroke:none;" d="M511 194L512 194C512 187.694 508.971 170.247 513.603 165.603C516.024 163.176 521.767 163.409 525 163C506.052 155.271 511 183.626 511 194z"/>
<path style="fill:#b1665f; stroke:none;" d="M568.333 162.667L568.667 163.333L568.333 162.667z"/>
<path style="fill:#621214; stroke:none;" d="M428 163L427 184L405 179C408.897 184.897 422.284 186.656 429 187L428 163z"/>
<path style="fill:#8d5652; stroke:none;" d="M531 163L531 188L536 188L536 187L532 187L531 163z"/>
<path style="fill:#c5b59f; stroke:none;" d="M431 164L431 199L432 199L435 193C441.269 196.203 443.932 203.141 447.242 209C454.702 222.205 469.088 237.7 472.744 252.424C473.87 256.96 468.608 259.44 470.498 264.285C476.878 280.636 491.827 292.684 498.005 309C500.74 316.222 499 326.359 499 334C490.322 334 470.239 337.714 463.139 332.523C448.32 321.689 446.786 293.111 431 284L431 413L432 413C432 405.679 430.987 399.293 440 399L439 367C445.784 367 465.446 363.653 470.397 368.603C475.135 373.342 472 391.54 472 398L492 398L492 413L502 413L502 252L502 208L501.397 189.434L487 183.611L457 172.627L431 164z"/>
<path style="fill:#6e4839; stroke:none;" d="M513 164L513 165C525.427 165.405 521 184.911 521 194C524.921 184.655 525.144 164.043 513 164z"/>
<path style="fill:#897f6f; stroke:none;" d="M521 164L522 194L523 194C523 185.957 525.941 170.521 521 164z"/>
<path style="fill:#621214; stroke:none;" d="M532 164L532 187C545.518 186.888 571.057 181.658 569 165L568 165C566.351 177.683 556.801 178.446 546.286 181.444C543.741 182.17 538.743 185.426 536.318 183.073C530.339 177.274 541.051 169.12 532 164z"/>
<path style="fill:#463f38; stroke:none;" d="M512 165L512 195C514.424 194.991 518.257 195.565 519.972 193.397C522.596 190.08 522.596 169.92 519.972 166.603C518.257 164.435 514.424 165.009 512 165z"/>
<path style="fill:#ab6f74; stroke:none;" d="M390 166L390 172L391 172L390 166z"/>
<path style="fill:#6e4839; stroke:none;" d="M570 166L570 173L571 173L570 166z"/>
<path style="fill:#c5b59f; stroke:none;" d="M571 167L571 173L572 173L571 167z"/>
<path style="fill:#621214; stroke:none;" d="M391 168C391.44 173.821 394.383 176.107 400 177L391 168z"/>
<path style="fill:#b6a188; stroke:none;" d="M569 173L569 175L571 173L569 173z"/>
<path style="fill:#d09188; stroke:none;" d="M395 176L398 178L395 176M561 179L561 180L568 177L561 179M400.667 179.333L401.333 179.667L400.667 179.333M402 180L402 181L405 181L402 180z"/>
<path style="fill:#c5b59f; stroke:none;" d="M555 182L555 183L561 181L555 182z"/>
<path style="fill:#a08b73; stroke:none;" d="M405.667 181.333L406.333 181.667L405.667 181.333z"/>
<path style="fill:#b6a188; stroke:none;" d="M407.667 182.333L408.333 182.667L407.667 182.333z"/>
<path style="fill:#8d5652; stroke:none;" d="M552 182L552 183L555 183L552 182z"/>
<path style="fill:#ab6f74; stroke:none;" d="M550.667 183.333L551.333 183.667L550.667 183.333z"/>
<path style="fill:#d09188; stroke:none;" d="M414 184L414 185L417 185L414 184z"/>
<path style="fill:#8d5652; stroke:none;" d="M546.667 184.333L547.333 184.667L546.667 184.333M418 185L418 186L422 186L418 185z"/>
<path style="fill:#ab6f74; stroke:none;" d="M543 185L543 186L546 186L543 185z"/>
<path style="fill:#a08b73; stroke:none;" d="M422.667 186.333L423.333 186.667L422.667 186.333z"/>
<path style="fill:#ab6f74; stroke:none;" d="M539 186L539 187L542 187L539 186z"/>
<path style="fill:#c5b59f; stroke:none;" d="M422 187L422 188L427 188L422 187z"/>
<path style="fill:#d6cfc8; stroke:none;" d="M536 187L536 188L542 188L536 187M428 189L428 204L429 204L428 189z"/>
<path style="fill:#bfb3a3; stroke:none;" d="M532 189L532 238C532 242.901 530.101 252.593 534 256L533 208L532 189z"/>
<path style="fill:#ab6f74; stroke:none;" d="M435 195L438 194L435 195z"/>
<path style="fill:#90382c; stroke:none;" d="M430 203L434 202L435 198L437 198L442 201L439 194C433.763 195.068 431.691 198.105 430 203z"/>
<path style="fill:#87755f; stroke:none;" d="M514 195L514 196L519 196L514 195z"/>
<path style="fill:#ca403f; stroke:none;" d="M435 198L436 203L437 203L435 198z"/>
<path style="fill:#eeaead; stroke:none;" d="M434 200L408 249L422.454 247.012L427.68 233L436 200L434 200z"/>
<path style="fill:#8d0f10; stroke:none;" d="M437 200L469 252L423 249L423 251C434.309 251 445.791 250.329 456.996 252.069C460.564 252.624 465.944 257.643 469.397 254.968C474.192 251.252 467.26 242.848 465.39 239.414C459.118 227.89 450.079 204.186 437 200z"/>
<path style="fill:#b1665f; stroke:none;" d="M442 200L444 205L445 205L442 200z"/>
<path style="fill:#726553; stroke:none;" d="M476 200L476 201L485 201L485 230L476 230L476 231L486 231C486 219.272 491.305 200.012 476 200z"/>
<path style="fill:#78141a; stroke:none;" d="M432 201C422.307 211.441 414.431 228.425 407.665 241C405.458 245.103 400.774 250.687 402.519 255.66C404.399 261.021 415.246 261.889 420 262L415 252L425 252L425 251L423 248L406 251L425.603 216L432 201z"/>
<path style="fill:#87755f; stroke:none;" d="M475 201L475 230L476 230L475 201z"/>
<path style="fill:#413126; stroke:none;" d="M476 201C476 210.58 470.977 232.478 485 230L485 201L476 201z"/>
<path style="fill:#b6a188; stroke:none;" d="M486 201L486 231L487 231L486 201z"/>
<path style="fill:#c60204; stroke:none;" d="M423 249L469 252C466.988 239.45 453.397 222.857 446.583 212.083C445.087 209.717 439.917 199.149 435.722 203.528C433.534 205.812 434.299 211.129 433.528 214C430.398 225.654 428.158 238.433 423 249z"/>
<path style="fill:#d09188; stroke:none;" d="M428 204L428 207L429 207L428 204z"/>
<path style="fill:#ab6f74; stroke:none;" d="M426.333 208.667L426.667 209.333L426.333 208.667z"/>
<path style="fill:#ca403f; stroke:none;" d="M433 208L432 217L433 217L433 208z"/>
<path style="fill:#b1665f; stroke:none;" d="M425.333 210.667L425.667 211.333L425.333 210.667M423 213L422 217L423 217L423 213z"/>
<path style="fill:#b25652; stroke:none;" d="M450 214L452 217L450 214z"/>
<path style="fill:#bf7373; stroke:none;" d="M421 217L419 222L420 222L421 217z"/>
<path style="fill:#b6a188; stroke:none;" d="M554 221L554 222L557 222L554 221z"/>
<path style="fill:#ab6f74; stroke:none;" d="M418 222L417 225L418 222z"/>
<path style="fill:#ca403f; stroke:none;" d="M430 222L430 227L431 227L430 222z"/>
<path style="fill:#90382c; stroke:none;" d="M552 226L557 223L552 226z"/>
<path style="fill:#78141a; stroke:none;" d="M551 230L554 226L565 238L558 223C554.001 224.149 552.342 226.096 551 230z"/>
<path style="fill:#b25652; stroke:none;" d="M456 224L458 227L456 224M558.333 224.667L558.667 225.333L558.333 224.667z"/>
<path style="fill:#d09188; stroke:none;" d="M416 225L414 230L415 230L416 225z"/>
<path style="fill:#bf7373; stroke:none;" d="M551 225L547 234L548 234L551 225z"/>
<path style="fill:#c60204; stroke:none;" d="M554 226C546.279 237.254 533.341 253.937 535 268L547 268L547 265L582 270L563.025 236.116L554 226z"/>
<path style="fill:#bf7373; stroke:none;" d="M418 227L417 231L418 231L418 227z"/>
<path style="fill:#ca403f; stroke:none;" d="M428 229L427 237L428 237L428 229z"/>
<path style="fill:#bf7373; stroke:none;" d="M412 231L409 238L412 231M416 231L415 234L416 231z"/>
<path style="fill:#a64f40; stroke:none;" d="M460 231L462 234L460 231z"/>
<path style="fill:#8d0f10; stroke:none;" d="M549 231C540.106 247.705 532 257.469 532 277L533 277C541.855 268.613 554.45 268.903 566 270.285C573.233 271.151 579.135 275.338 585 270L566 238L565 238L582 270L547 265L547 268L535 268C534.489 259.12 538.636 252.352 543.305 245C545.762 241.131 550.245 235.687 549 231z"/>
<path style="fill:#ab6f74; stroke:none;" d="M563.333 232.667L563.667 233.333L563.333 232.667z"/>
<path style="fill:#d86d6f; stroke:none;" d="M414 234L410 243L411 243L414 234z"/>
<path style="fill:#d09188; stroke:none;" d="M546 234L544 239L545 239L546 234z"/>
<path style="fill:#b1665f; stroke:none;" d="M565 236L567 239L565 236z"/>
<path style="fill:#a64f40; stroke:none;" d="M464.333 237.667L464.667 238.333L464.333 237.667z"/>
<path style="fill:#b1665f; stroke:none;" d="M543.333 239.667L543.667 240.333L543.333 239.667z"/>
<path style="fill:#d09188; stroke:none;" d="M567 239L569 244L570 244L567 239z"/>
<path style="fill:#ab6f74; stroke:none;" d="M407.333 240.667L407.667 241.333L407.333 240.667z"/>
<path style="fill:#a64f40; stroke:none;" d="M466 241L468 244L466 241z"/>
<path style="fill:#8d5652; stroke:none;" d="M406.333 242.667L406.667 243.333L406.333 242.667z"/>
<path style="fill:#ca403f; stroke:none;" d="M425 242L425 247L426 247L425 242z"/>
<path style="fill:#f16f75; stroke:none;" d="M409 243L406 251L414 250L414 249L408 249L409 243M424 243L424 247L425 247L424 243z"/>
<path style="fill:#ab6f74; stroke:none;" d="M405 244L404 247L405 244z"/>
<path style="fill:#bf7373; stroke:none;" d="M540 244L539 247L540 244z"/>
<path style="fill:#d09188; stroke:none;" d="M570 244L572 247L570 244z"/>
<path style="fill:#b1665f; stroke:none;" d="M403.333 247.667L403.667 248.333L403.333 247.667z"/>
<path style="fill:#b25652; stroke:none;" d="M470.333 247.667L470.667 248.333L470.333 247.667z"/>
<path style="fill:#bf7373; stroke:none;" d="M538.333 247.667L538.667 248.333L538.333 247.667z"/>
<path style="fill:#b1665f; stroke:none;" d="M572.333 247.667L572.667 248.333L572.333 247.667z"/>
<path style="fill:#78141a; stroke:none;" d="M471 249C470.627 253.892 468.892 255.627 464 256L465 260C470.883 258.088 474.753 255.275 471 249z"/>
<path style="fill:#d09188; stroke:none;" d="M537 249L536 252L537 249z"/>
<path style="fill:#c5b59f; stroke:none;" d="M401 250L400 256L401 256L401 250z"/>
<path style="fill:#b03933; stroke:none;" d="M425 251L425 252L453 252L425 251z"/>
<path style="fill:#a64f40; stroke:none;" d="M574.333 251.667L574.667 252.333L574.333 251.667z"/>
<path style="fill:#6e4839; stroke:none;" d="M401 252L401 256L402 256L401 252z"/>
<path style="fill:#b25652; stroke:none;" d="M415 255L416 255L425 253C421.873 251.198 415.895 250.825 415 255z"/>
<path style="fill:#d09188; stroke:none;" d="M425 252L425 253L453 253L425 252z"/>
<path style="fill:#90382c; stroke:none;" d="M453 252L453 253L463 257C463.789 251.533 456.837 252.011 453 252z"/>
<path style="fill:#ab6f74; stroke:none;" d="M473 252L473 256L474 256L473 252z"/>
<path style="fill:#bf7373; stroke:none;" d="M535.333 252.667L535.667 253.333L535.333 252.667z"/>
<path style="fill:#c5b59f; stroke:none;" d="M416 253C418.427 260.057 423.65 265.629 427.487 271.961C437.533 288.538 448.461 304.94 457.63 322.001C461.253 328.743 468.921 336.221 477.512 331.397C480.739 329.585 476.151 318.913 475.3 316C471.842 304.166 466.879 292.88 463.627 281C462.356 276.359 461.935 268.735 457 267L455 253L416 253z"/>
<path style="fill:#b6a188; stroke:none;" d="M457 267C462.193 270.033 462.495 278.544 464.17 284C468.717 298.816 478.461 316.342 479 332L497 332C497 325.324 498.116 317.498 496.443 311C492.916 297.303 479.584 282.891 472.011 271C469.454 266.986 463.407 250.48 456.449 253.647C453.355 255.056 456.965 264.002 457 267z"/>
<path style="fill:#b1665f; stroke:none;" d="M575 253L577 256L575 253z"/>
<path style="fill:#bf7373; stroke:none;" d="M534.333 254.667L534.667 255.333L534.333 254.667z"/>
<path style="fill:#8d5652; stroke:none;" d="M417.333 256.667L417.667 257.333L417.333 256.667z"/>
<path style="fill:#a64f40; stroke:none;" d="M577.333 256.667L577.667 257.333L577.333 256.667z"/>
<path style="fill:#8d5652; stroke:none;" d="M402.667 257.333L403.333 257.667L402.667 257.333z"/>
<path style="fill:#897f6f; stroke:none;" d="M442 287L443 287C443 278.688 438.831 258.852 450 258C437.823 252.946 442 280.145 442 287z"/>
<path style="fill:#8d5652; stroke:none;" d="M532 257L531 278L535 278L535 277L532 277L534 257L532 257z"/>
<path style="fill:#463f38; stroke:none;" d="M452 259C440.276 256.863 443 267.321 443 276C443 279.118 441.953 284.783 444.028 287.397C449.788 294.653 451.999 282.293 452 279L452 271L452 259z"/>
<path style="fill:#726553; stroke:none;" d="M449 258L449 259L452 259L452 288L453 288L453 258L449 258z"/>
<path style="fill:#a08b73; stroke:none;" d="M465 260L496.15 311L497 332L465.184 330.972L451.691 310.961L421 261L420 261L418 262C428.781 278.367 438.829 295.194 448.946 312C452.588 318.051 456.893 329.379 463.185 332.972C471.234 337.569 489.782 334 499 334C499 317.643 498.87 306.918 489.226 293C483.585 284.859 467.727 268.472 471 258L465 260z"/>
<path style="fill:#b6a188; stroke:none;" d="M405.667 259.333L406.333 259.667L405.667 259.333M453 259L453 287L454 287L453 259z"/>
<path style="fill:#b1665f; stroke:none;" d="M579.333 259.667L579.667 260.333L579.333 259.667z"/>
<path style="fill:#8d5652; stroke:none;" d="M408 260L408 261L412 261L408 260z"/>
<path style="fill:#c5b59f; stroke:none;" d="M412 261L412 262L418 263L418 262L412 261z"/>
<path style="fill:#b1665f; stroke:none;" d="M582.333 264.667L582.667 265.333L582.333 264.667z"/>
<path style="fill:#8d5652; stroke:none;" d="M585 269L585 275L586 275L585 269z"/>
<path style="fill:#90382c; stroke:none;" d="M541 270L541 271L568 271L541 270z"/>
<path style="fill:#621214; stroke:none;" d="M583 270C580.462 274.32 577.11 272.158 573 271L570 279C576.304 278.677 584.42 277.295 585 270L583 270z"/>
<path style="fill:#8d5652; stroke:none;" d="M539 275L540 275C542.671 272.282 544.851 271.664 548 274L553 273C548.953 269.934 540.833 269.476 539 275z"/>
<path style="fill:#87755f; stroke:none;" d="M552 271L554 299C544.306 297.454 548 279.55 548 272C538.091 272.117 538.16 279.752 531 284L532 353L534 353L542 333C539.115 330.356 542.26 327.983 544 325C548.406 317.447 552.272 309.695 556.333 302C557.727 299.359 559.868 291.808 563 294L572 272L552 271z"/>
<path style="fill:#8d5652; stroke:none;" d="M556 271L556 272L572 274C573.786 269.262 559.168 271 556 271z"/>
<path style="fill:#621214; stroke:none;" d="M533 275L537 278L539 273L533 275z"/>
<path style="fill:#726553; stroke:none;" d="M548 298L549 298C549 291.162 546.209 277.744 553 274C545.208 271.447 548 293.201 548 298z"/>
<path style="fill:#463f38; stroke:none;" d="M549 299L554 299L554 274C545.636 275.396 549 292.341 549 299z"/>
<path style="fill:#bf7373; stroke:none;" d="M581 276L581 277L585 276L581 276z"/>
<path style="fill:#d6cfc8; stroke:none;" d="M428 277L428 413L423 413L423 414L429 414L429 318C429 306.318 432.507 287.742 428 277z"/>
<path style="fill:#a08b73; stroke:none;" d="M575 278L575 279L580 278L575 278z"/>
<path style="fill:#463f38; stroke:none;" d="M522 311L522 278C519.297 278 514.871 277.231 512.603 279.028C509.062 281.833 509.408 305.898 512.179 309.397C514.166 311.905 519.193 311 522 311z"/>
<path style="fill:#726553; stroke:none;" d="M522 279L522 309L523 309L522 279z"/>
<path style="fill:#c5b59f; stroke:none;" d="M532 282L535 279L532 282z"/>
<path style="fill:#a08b73; stroke:none;" d="M571 279L571 280L574 280L571 279z"/>
<path style="fill:#b6a188; stroke:none;" d="M429 280L429 334L430 362L431 362C431 336.275 427.304 307.294 432 282L429 280z"/>
<path style="fill:#d6cfc8; stroke:none;" d="M568 282L565 289L568 282z"/>
<path style="fill:#a08b73; stroke:none;" d="M530 288L530 398L507 398L507 399L530 399L530 413L532 413L532 354L535 354L536 348L535 348L534 353L532 353C533.516 333.794 537.536 306.729 532 288L530 288M444 289L444 290L451 290L444 289z"/>
<path style="fill:#c5b59f; stroke:none;" d="M369 292L372 291L369 292z"/>
<path style="fill:#d6cfc8; stroke:none;" d="M564.333 290.667L564.667 291.333L564.333 290.667z"/>
<path style="fill:#8d5652; stroke:none;" d="M370.667 291.333L371.333 291.667L370.667 291.333z"/>
<path style="fill:#78141a; stroke:none;" d="M589 291C581.656 311.06 565.883 328.984 556.034 348C553.325 353.23 545.482 360.53 546.373 366.816C547.277 373.194 559.854 375.672 565 376L565 365L558 366L562 372L550 369L551 365C548.782 360.646 557.613 350.054 560.13 346.09C569.87 330.751 583.961 312.494 589 295L594 297L592 291L589 291z"/>
<path style="fill:#8d5652; stroke:none;" d="M368.333 292.667L368.667 293.333L368.333 292.667z"/>
<path style="fill:#78141a; stroke:none;" d="M345 376L345 363L331 364C336.415 345.557 351.352 327.448 361.2 311C364.294 305.832 367.244 296.303 374 296C370.051 286.135 363.157 302.449 360.951 306C351.741 320.821 343.18 335.951 334.247 351C331.854 355.032 325.01 362.929 326.658 367.87C328.469 373.296 340.077 375.507 345 376z"/>
<path style="fill:#726553; stroke:none;" d="M561 292L540 333C548.151 328.002 553.973 311.443 558.191 303C559.879 299.621 562.035 295.731 561 292z"/>
<path style="fill:#b1665f; stroke:none;" d="M588 292L587 295L588 292M592 292L594 295L592 292z"/>
<path style="fill:#bf7373; stroke:none;" d="M366.333 295.667L366.667 296.333L366.333 295.667z"/>
<path style="fill:#ca403f; stroke:none;" d="M370 295L370 300L371 300L370 295z"/>
<path style="fill:#c60204; stroke:none;" d="M371 295C369.748 310.737 362.8 325.71 359.211 341C357.452 348.491 357.415 356.058 350 360L350 361C364.284 363.357 379.579 358.986 394 361.325C397.178 361.84 406.519 366.338 408.957 363.353C412.311 359.247 404.103 349.017 401.905 345.576C391.501 329.293 383.415 309.794 371 295z"/>
<path style="fill:#8d0f10; stroke:none;" d="M372 295C374.358 303.98 381.036 311.304 385.857 318.996C390.959 327.137 394.733 335.927 400.175 343.845C402.555 347.308 411.407 358.413 408.867 362.578C406.72 366.099 395.44 361.207 392 361.04C375.682 360.247 355.613 358.52 340 362L340 363L345 365C362.869 359.336 381.951 365.926 400 364L399 373C403.88 372.329 411.842 370.84 412.753 364.956C413.741 358.571 407.71 351.507 404.715 346.285C395.866 330.86 386.349 305.569 372 295z"/>
<path style="fill:#b25652; stroke:none;" d="M374 295L377 299L374 295z"/>
<path style="fill:#b6a188; stroke:none;" d="M561.333 295.667L561.667 296.333L561.333 295.667z"/>
<path style="fill:#b1665f; stroke:none;" d="M586.333 295.667L586.667 296.333L586.333 295.667z"/>
<path style="fill:#c60204; stroke:none;" d="M589 295C590.689 306.848 584.225 319.552 581.665 331C579.887 338.952 579.756 348.646 575.686 355.891C573.585 359.631 569.854 359.907 566 360L566 361L631 364C628.973 349.091 613.338 332.208 606.139 319C604.219 315.477 599.723 305.543 596 305C595.396 300.181 593.863 296.459 589 295z"/>
<path style="fill:#bf7373; stroke:none;" d="M594 295L596 298L594 295z"/>
<path style="fill:#d09188; stroke:none;" d="M365 297L363 302L364 302L365 297z"/>
<path style="fill:#d6cfc8; stroke:none;" d="M560 297L559 302L560 302L560 297z"/>
<path style="fill:#bf7373; stroke:none;" d="M585 297L584 300L585 297z"/>
<path style="fill:#f16f75; stroke:none;" d="M588 297L586 312L587 312L590 297L588 297z"/>
<path style="fill:#8d0f10; stroke:none;" d="M594 297L596 305C598.762 305 603.172 315.008 605 318C608.999 324.544 611.831 332.73 616.333 338.833C621.505 345.843 629.396 355.29 631 364L571 361L550 362L549 362L551 365L550 369L562 372L558 366L599 363L615.397 365.603L617 375L623 375L623 374L621 372C625.378 371.797 634.734 370.16 634.434 363.995C634.18 358.788 627.433 351.47 624.938 346.83C616.819 331.74 606.596 308.553 594 297z"/>
<path style="fill:#eeaead; stroke:none;" d="M368 298L347.301 336L333 362L355 358L370 298L368 298z"/>
<path style="fill:#b1665f; stroke:none;" d="M596.333 298.667L596.667 299.333L596.333 298.667z"/>
<path style="fill:#bf7373; stroke:none;" d="M377.333 299.667L377.667 300.333L377.333 299.667z"/>
<path style="fill:#d09188; stroke:none;" d="M583 300L580 307L581 307L583 300z"/>
<path style="fill:#ca403f; stroke:none;" d="M369 301L365 319L366 319L369 301z"/>
<path style="fill:#eeaead; stroke:none;" d="M586 301L552 363L575 358L588 301L586 301z"/>
<path style="fill:#bf7373; stroke:none;" d="M598.333 301.667L598.667 302.333L598.333 301.667M362 302L360 307L361 307L362 302z"/>
<path style="fill:#d6cfc8; stroke:none;" d="M558 302L557 306L558 306L558 302z"/>
<path style="fill:#f16f75; stroke:none;" d="M367 305L367 310L368 310L367 305z"/>
<path style="fill:#d86d6f; stroke:none;" d="M584 305L583 308L584 305M600 305L602 308L600 305z"/>
<path style="fill:#bfb3a3; stroke:none;" d="M556 306L555 309L556 306z"/>
<path style="fill:#d09188; stroke:none;" d="M359 307L358 310L359 307z"/>
<path style="fill:#ef8784; stroke:none;" d="M362 308L361 312L362 312L362 308z"/>
<path style="fill:#bf7373; stroke:none;" d="M382 308L384 311L382 308z"/>
<path style="fill:#d09188; stroke:none;" d="M582 308L578 316L582 308z"/>
<path style="fill:#bfb3a3; stroke:none;" d="M554.333 309.667L554.667 310.333L554.333 309.667z"/>
<path style="fill:#eeaead; stroke:none;" d="M356 311L356 314L357 314L358 311L356 311z"/>
<path style="fill:#d09188; stroke:none;" d="M384 311L386 314L384 311z"/>
<path style="fill:#bfb3a3; stroke:none;" d="M553.333 311.667L553.667 312.333L553.333 311.667z"/>
<path style="fill:#bf7373; stroke:none;" d="M576 312L575 315L576 312M604 312L606 315L604 312z"/>
<path style="fill:#d86d6f; stroke:none;" d="M359 313L353 325C356.348 322.151 360.221 317.596 359 313z"/>
<path style="fill:#bfb3a3; stroke:none;" d="M552.333 313.667L552.667 314.333L552.333 313.667z"/>
<path style="fill:#a64f40; stroke:none;" d="M355 314L355 316L357 314L355 314z"/>
<path style="fill:#d6cfc8; stroke:none;" d="M551 315L550 319L551 319L551 315z"/>
<path style="fill:#8d5652; stroke:none;" d="M574 315L572 320L574 315z"/>
<path style="fill:#b25652; stroke:none;" d="M606.333 315.667L606.667 316.333L606.333 315.667z"/>
<path style="fill:#b1665f; stroke:none;" d="M354 316L353 319L354 316z"/>
<path style="fill:#d86d6f; stroke:none;" d="M585 316L584 320L585 320L585 316z"/>
<path style="fill:#eeaead; stroke:none;" d="M608 317L609 321L610 321L608 317z"/>
<path style="fill:#bf7373; stroke:none;" d="M389 320L391 323L389 320z"/>
<path style="fill:#c5b59f; stroke:none;" d="M548 320L547 324L548 324L548 320z"/>
<path style="fill:#ab6f74; stroke:none;" d="M571 320L565 332L566 332L571 320z"/>
<path style="fill:#b1665f; stroke:none;" d="M575 320L574 323L575 320z"/>
<path style="fill:#90382c; stroke:none;" d="M609 321L612 325L609 321z"/>
<path style="fill:#ef8784; stroke:none;" d="M363 323L362 330L363 330L363 323z"/>
<path style="fill:#b25652; stroke:none;" d="M391.333 323.667L391.667 324.333L391.333 323.667z"/>
<path style="fill:#ef8784; stroke:none;" d="M574 323L570 330L574 323z"/>
<path style="fill:#d86d6f; stroke:none;" d="M582 323L582 328L583 328L584 323L582 323z"/>
<path style="fill:#bf7373; stroke:none;" d="M349 324L347 329L348 329L349 324z"/>
<path style="fill:#b25652; stroke:none;" d="M352 325L351 328L352 325z"/>
<path style="fill:#b1665f; stroke:none;" d="M392 325L394 328L392 325z"/>
<path style="fill:#b6a188; stroke:none;" d="M545 325L545 328L546 328L545 325z"/>
<path style="fill:#b25652; stroke:none;" d="M612.333 325.667L612.667 326.333L612.333 325.667z"/>
<path style="fill:#bf7373; stroke:none;" d="M613 327L615 330L613 327z"/>
<path style="fill:#b6a188; stroke:none;" d="M731.667 327.333L732.333 327.667L731.667 327.333z"/>
<path style="fill:#d6cfc8; stroke:none;" d="M544 328L541 337L542 337L544 328z"/>
<path style="fill:#d09188; stroke:none;" d="M729 328L729 331L730 331L731 328L729 328z"/>
<path style="fill:#8d5652; stroke:none;" d="M731.667 328.333L732.333 328.667L731.667 328.333z"/>
<path style="fill:#bf7373; stroke:none;" d="M346 329L345 332L346 329z"/>
<path style="fill:#d09188; stroke:none;" d="M395 329L396 333L397 333L395 329z"/>
<path style="fill:#8d0f10; stroke:none;" d="M731 334L731 338L732 338L732 335L751 360L734 329C730.467 329.25 725.425 334.029 731 334z"/>
<path style="fill:#897f6f; stroke:none;" d="M228 330L228 331L232 333L228 330z"/>
<path style="fill:#b25652; stroke:none;" d="M349 330L345 339L346 339L349 330z"/>
<path style="fill:#d45152; stroke:none;" d="M361 330L361 335L362 335L361 330z"/>
<path style="fill:#bf7373; stroke:none;" d="M569 330L564 340C566.996 337.449 569.956 334.091 569 330z"/>
<path style="fill:#b25652; stroke:none;" d="M615.333 330.667L615.667 331.333L615.333 330.667z"/>
<path style="fill:#8d5652; stroke:none;" d="M734 330L737 334L734 330z"/>
<path style="fill:#b25652; stroke:none;" d="M227 331L225 336L226 336L227 331z"/>
<path style="fill:#8d0f10; stroke:none;" d="M228 331C211.813 358.196 195.309 385.503 179.386 413C174.248 421.872 161.779 435.622 161.203 445.995C160.756 454.046 173.823 457.718 180 458L180 443L240 440.001L279 443L279 460L292 455L291 452C295.818 450.402 296.535 444.6 296 440L295 440L294 445L281.329 442.144L274 437C274 440.414 253.051 439.452 249 438.833C229.605 435.87 203.578 435.689 185 440.833C179.633 442.319 168.765 442.235 165 446C165.603 436.793 175.277 428.025 179.694 420C191.15 399.188 202.82 378.526 214.861 358C219.056 350.849 223.699 338.14 231 334L230 331L228 331z"/>
<path style="fill:#d09188; stroke:none;" d="M344 332L342 337L343 337L344 332z"/>
<path style="fill:#a08b73; stroke:none;" d="M564 332L558 343C561.272 340.366 564.655 336.397 564 332z"/>
<path style="fill:#bf7373; stroke:none;" d="M727.333 332.667L727.667 333.333L727.333 332.667z"/>
<path style="fill:#c60204; stroke:none;" d="M228 334C229.437 356.528 216.717 379.901 213.296 402C212.158 409.352 211.217 424.221 205.697 429.581C198.73 436.346 179.331 437.599 170 438L171 435C166.422 436.586 164.562 441.39 165 446C186.565 434.082 224.137 435.703 248 438.741C252.196 439.275 273.35 440.901 274 437L294 445L294 435C286.222 433.704 286.382 426.073 283 421C278.724 414.586 273.657 408.4 270 402C268.634 399.61 271.689 400.922 272 401L271 397L268 399L253.498 373L232 333L228 334z"/>
<path style="fill:#ab6f74; stroke:none;" d="M232 333L234 336L232 333z"/>
<path style="fill:#d09188; stroke:none;" d="M397 333L399 336L397 333z"/>
<path style="fill:#ab6f74; stroke:none;" d="M617 333L618 337L619 337L617 333z"/>
<path style="fill:#b1665f; stroke:none;" d="M726 334L721 345L722 345L726 334z"/>
<path style="fill:#78141a; stroke:none;" d="M727 334L710.9 362L679.136 415L666 436C676.448 433.255 680.022 420.389 685 412C693.809 397.156 701.578 381.652 710.684 367C716.819 357.13 726.334 345.352 729 334L727 334z"/>
<path style="fill:#eeaead; stroke:none;" d="M730 334L688.867 407L673 435L709 428C713.945 406.378 718.517 384.412 724.156 363C726.054 355.794 732.402 340.924 730 334z"/>
<path style="fill:#bf7373; stroke:none;" d="M737.333 334.667L737.667 335.333L737.333 334.667z"/>
<path style="fill:#c60204; stroke:none;" d="M732 335C728.923 350.811 722.758 366.242 720.089 382.09C717.933 394.898 717.356 414.81 710.026 425.856C706.195 431.629 678.478 437.086 673 433L666 436L663 425L660 427L648 403C637.042 408.984 644.982 434.267 642.911 444.699C641.994 449.313 637.346 448.505 635.028 451.588C632.724 454.651 634 461.351 634 465L683 469C682.811 452.091 663.439 455.711 663 441C678.743 441 694.182 436.732 710 436.039C739.881 434.731 767.648 438.287 797 442L769.312 393.91L748.583 356.91L732 335z"/>
<path style="fill:#eeaead; stroke:none;" d="M227 336L172 436C181.171 435.994 199.855 435.03 206.427 427.721C211.402 422.191 210.906 410.955 212.735 404C218.626 381.592 224.347 358.665 229 336L227 336z"/>
<path style="fill:#d86d6f; stroke:none;" d="M579 336L579 340L580 340L581 336L579 336z"/>
<path style="fill:#d09188; stroke:none;" d="M738 336L740 339L738 336z"/>
<path style="fill:#bf7373; stroke:none;" d="M341 337L337 345L343 337L341 337M619 337L621 340L619 337z"/>
<path style="fill:#b1665f; stroke:none;" d="M400.333 338.667L400.667 339.333L400.333 338.667z"/>
<path style="fill:#bfb3a3; stroke:none;" d="M540 338L539 341L540 338z"/>
<path style="fill:#ca403f; stroke:none;" d="M730 338L727 352L728 352L730 338z"/>
<path style="fill:#b1665f; stroke:none;" d="M344 339L333 359C337.164 355.293 344.822 344.662 344 339M740.333 339.667L740.667 340.333L740.333 339.667M236 340L238 343L236 340z"/>
<path style="fill:#b25652; stroke:none;" d="M401.333 340.667L401.667 341.333L401.333 340.667z"/>
<path style="fill:#bb2b2d; stroke:none;" d="M579 340L577 350L578 350L579 340z"/>
<path style="fill:#bf7373; stroke:none;" d="M726 340L725 343L726 340z"/>
<path style="fill:#d86d6f; stroke:none;" d="M358 341L358 345L359 345L358 341z"/>
<path style="fill:#bfb3a3; stroke:none;" d="M538.333 341.667L538.667 342.333L538.333 341.667z"/>
<path style="fill:#bf7373; stroke:none;" d="M220 342L219 345L220 342M402 342L404 345L402 342z"/>
<path style="fill:#d86d6f; stroke:none;" d="M223 343L222 346L223 343z"/>
<path style="fill:#b25652; stroke:none;" d="M238.333 343.667L238.667 344.333L238.333 343.667z"/>
<path style="fill:#bfb3a3; stroke:none;" d="M537.333 343.667L537.667 344.333L537.333 343.667z"/>
<path style="fill:#d86d6f; stroke:none;" d="M561 343L553 359L554 359L563 343L561 343z"/>
<path style="fill:#d09188; stroke:none;" d="M720 343L719 347L720 347L720 343z"/>
<path style="fill:#b1665f; stroke:none;" d="M724.333 343.667L724.667 344.333L724.333 343.667z"/>
<path style="fill:#eeaead; stroke:none;" d="M556 344L556 347L557 347L558 344L556 344M218 345L217 349L218 349L218 345z"/>
<path style="fill:#d6cfc8; stroke:none;" d="M537 345L536 348L537 345z"/>
<path style="fill:#bf7373; stroke:none;" d="M624.333 345.667L624.667 346.333L624.333 345.667M240.333 346.667L240.667 347.333L240.333 346.667M336 346L334 351L335 351L336 346z"/>
<path style="fill:#b1665f; stroke:none;" d="M405 347L407 350L405 347M555 347L550 357L557 347L555 347z"/>
<path style="fill:#b25652; stroke:none;" d="M625.333 347.667L625.667 348.333L625.333 347.667z"/>
<path style="fill:#b1665f; stroke:none;" d="M718 347L717 351L718 351L720 347L718 347z"/>
<path style="fill:#d86d6f; stroke:none;" d="M722 347L720 352L721 352L722 347z"/>
<path style="fill:#bf7373; stroke:none;" d="M241 348L243 351L241 348z"/>
<path style="fill:#8d5652; stroke:none;" d="M216 349L216 351L218 349L216 349z"/>
<path style="fill:#ca403f; stroke:none;" d="M225 349L225 353L226 353L225 349z"/>
<path style="fill:#b25652; stroke:none;" d="M407.333 350.667L407.667 351.333L407.333 350.667z"/>
<path style="fill:#ca403f; stroke:none;" d="M576 350L575 358L576 358L576 350z"/>
<path style="fill:#bf7373; stroke:none;" d="M627.333 350.667L627.667 351.333L627.333 350.667z"/>
<path style="fill:#ab6f74; stroke:none;" d="M215 351L214 354L215 351z"/>
<path style="fill:#bf7373; stroke:none;" d="M243.333 351.667L243.667 352.333L243.333 351.667z"/>
<path style="fill:#c5b59f; stroke:none;" d="M332 351L332 354L333 354L334 351L332 351z"/>
<path style="fill:#ab6f74; stroke:none;" d="M716 351L711 361L716 351z"/>
<path style="fill:#b25652; stroke:none;" d="M747.333 351.667L747.667 352.333L747.333 351.667z"/>
<path style="fill:#bf7373; stroke:none;" d="M218 352L217 355L218 352z"/>
<path style="fill:#d86d6f; stroke:none;" d="M356 352L355 357L356 357L356 352z"/>
<path style="fill:#b1665f; stroke:none;" d="M408 352L410 355L408 352z"/>
<path style="fill:#bf7373; stroke:none;" d="M628 352L630 355L628 352z"/>
<path style="fill:#b1665f; stroke:none;" d="M719 352L717 357L718 357L719 352z"/>
<path style="fill:#b25652; stroke:none;" d="M244.333 353.667L244.667 354.333L244.333 353.667z"/>
<path style="fill:#d09188; stroke:none;" d="M213 354L204 371L205 371L213 354z"/>
<path style="fill:#b1665f; stroke:none;" d="M331 354L331 356L333 354L331 354z"/>
<path style="fill:#bfb3a3; stroke:none;" d="M532 354L532 397L533.028 412.397L544 414L544 413L533 413L533 373L532 354z"/>
<path style="fill:#bf7373; stroke:none;" d="M749.333 354.667L749.667 355.333L749.333 354.667z"/>
<path style="fill:#b25652; stroke:none;" d="M216 355L214 360L215 360L216 355z"/>
<path style="fill:#bf7373; stroke:none;" d="M245 355L247 358L245 355M630.333 355.667L630.667 356.333L630.333 355.667z"/>
<path style="fill:#d09188; stroke:none;" d="M330 356L328 361L329 361L330 356z"/>
<path style="fill:#b1665f; stroke:none;" d="M750.333 356.667L750.667 357.333L750.333 356.667z"/>
<path style="fill:#d86d6f; stroke:none;" d="M223 357L220 374L221 374L223 357z"/>
<path style="fill:#b1665f; stroke:none;" d="M411 357L413 360L411 357z"/>
<path style="fill:#b25652; stroke:none;" d="M631.333 357.667L631.667 358.333L631.333 357.667z"/>
<path style="fill:#d45152; stroke:none;" d="M347 359L347 360L354 359L347 359z"/>
<path style="fill:#d09188; stroke:none;" d="M548 358L548 361L549 361L550 358L548 358z"/>
<path style="fill:#b03933; stroke:none;" d="M568 359L568 360L575 359L568 359z"/>
<path style="fill:#ca403f; stroke:none;" d="M725 358L724 365L725 365L725 358z"/>
<path style="fill:#bf7373; stroke:none;" d="M751 358L753 361L751 358z"/>
<path style="fill:#d09188; stroke:none;" d="M248.333 359.667L248.667 360.333L248.333 359.667z"/>
<path style="fill:#f16f75; stroke:none;" d="M332 359L332 363L337 363L337 362L332 359z"/>
<path style="fill:#bb2b2d; stroke:none;" d="M551 359L550 364L560 363L560 362L552 363L553 359L551 359z"/>
<path style="fill:#b1665f; stroke:none;" d="M632 359L634 362L632 359z"/>
<path style="fill:#bf7373; stroke:none;" d="M715 359L714 362L715 359z"/>
<path style="fill:#ef8784; stroke:none;" d="M339 360L339 361L344 361L339 360z"/>
<path style="fill:#d09188; stroke:none;" d="M413 360L415 363L413 360z"/>
<path style="fill:#d86d6f; stroke:none;" d="M555 361L555 362L566 361L555 361z"/>
<path style="fill:#ab6f74; stroke:none;" d="M249.333 361.667L249.667 362.333L249.333 361.667M327 361L326 364L327 361z"/>
<path style="fill:#ca403f; stroke:none;" d="M331 361L334 364L334 363L331 361z"/>
<path style="fill:#a64f40; stroke:none;" d="M337 362L337 363L344 362L337 362z"/>
<path style="fill:#a08b73; stroke:none;" d="M429 361L429 414L417 413L414 402L397 402L396 416L378 416C378 406.37 379.2 400.929 368 401.001C366.05 401.013 363.259 400.676 361.639 402.028C358.35 404.772 361.642 411.174 358.397 414.397C355.468 417.306 343.42 417.267 341.028 413.682C338.847 410.413 340.118 404.781 339 401L322 402L322 446L639 446L639 403L635 406C632.836 400.618 626.99 402 622 402C622 416.993 615.077 416 602 416C602 402.538 598.071 397.907 584 401L583 416L564 416L564 402L546 402L546 416L535 416L535 415L544 415L544 414L533 416L528 415L528 401L509 401C509 404.771 510.255 411.422 507.972 414.643C506.204 417.138 502.572 416.139 500 416.039C489.462 415.628 489 410.495 489 401L472 401L472 416L454 416L453 401L434 402L434 413L431 413L431 377L429 361z"/>
<path style="fill:#8d5652; stroke:none;" d="M710.333 361.667L710.667 362.333L710.333 361.667z"/>
<path style="fill:#b1665f; stroke:none;" d="M753.333 361.667L753.667 362.333L753.333 361.667z"/>
<path style="fill:#621214; stroke:none;" d="M413 362C412.148 369.58 405.715 371.558 399 373L400 364C395.419 364.982 397 371.116 397 375C403.479 374.721 421.956 371.608 413 362z"/>
<path style="fill:#ab6f74; stroke:none;" d="M546.333 362.667L546.667 363.333L546.333 362.667z"/>
<path style="fill:#bf7373; stroke:none;" d="M713 362L708 372L709 372L713 362z"/>
<path style="fill:#b1665f; stroke:none;" d="M211 363L209 369L210 369L211 363z"/>
<path style="fill:#d09188; stroke:none;" d="M250 363L252 366L250 363z"/>
<path style="fill:#b25652; stroke:none;" d="M349 363L349 364L389 364C378.488 359.589 360.434 363 349 363z"/>
<path style="fill:#bf7373; stroke:none;" d="M415.333 363.667L415.667 364.333L415.333 363.667z"/>
<path style="fill:#b25652; stroke:none;" d="M566 363L566 364L608 364C597.012 359.389 577.957 363 566 363z"/>
<path style="fill:#eeaead; stroke:none;" d="M635 363L636 368L637 368L635 363z"/>
<path style="fill:#ab6f74; stroke:none;" d="M709 363L703 374C706.146 371.323 709.63 367.317 709 363z"/>
<path style="fill:#bf7373; stroke:none;" d="M754 363L756 366L754 363z"/>
<path style="fill:#d09188; stroke:none;" d="M325 364L325 368L326 368L325 364M346 364L346 365L393 367L393 375C396.598 372.668 395.997 368.987 396 365L346 364z"/>
<path style="fill:#b1665f; stroke:none;" d="M389 364L389 365L396 365L389 364z"/>
<path style="fill:#ab6f74; stroke:none;" d="M545 364L545 369L546 369L545 364z"/>
<path style="fill:#d09188; stroke:none;" d="M565 364L565 374L566 374L566 365L611 365C599.061 359.99 578.003 364 565 364z"/>
<path style="fill:#b25652; stroke:none;" d="M611 364L611 365L616 365L611 364z"/>
<path style="fill:#ab6f74; stroke:none;" d="M345 365L345 376L346 376L345 365z"/>
<path style="fill:#b6a188; stroke:none;" d="M346 365L346 372L347 372L347 366L352 366L352 367L348 367L348 398L349 398L349 368L360 370L360 368C365.948 372.6 373.464 375.521 381 376L380 413L394 413C394 401.132 397.924 386.857 392 376L395 377L393 367L346 365z"/>
<path style="fill:#8d5652; stroke:none;" d="M396 365L396 376L402 376L402 375L397 375L396 365z"/>
<path style="fill:#c5b59f; stroke:none;" d="M566 365L567 413L581 413L582 399C571.203 398.183 573.999 386.03 574 378C574 374.698 573.052 369.152 576.317 367.032C579.264 365.119 583.015 367.299 586 368L585 398L602 398L602 377L584.772 365.603L566 365z"/>
<path style="fill:#b6a188; stroke:none;" d="M586 365C588.893 372.623 593.73 376.154 602 377L602 398L584 397L602.397 400.603L604 413L617 413L617 377L615 377L615 397C611.863 397.396 607.191 398.964 604.603 396.396C600.997 392.817 601.318 370.798 605.318 367.622C608.095 365.416 611.978 367.382 615 368C613.833 362.554 591.517 365 586 365z"/>
<path style="fill:#897f6f; stroke:none;" d="M615 365L614 397L615 397C615 391.324 612.754 380.401 618 377L618 376L615 365z"/>
<path style="fill:#90382c; stroke:none;" d="M616 365L616 376L622 376L622 375L617 375L616 365z"/>
<path style="fill:#d45152; stroke:none;" d="M723 365L722 374L723 374L723 365z"/>
<path style="fill:#ab6f74; stroke:none;" d="M252.333 366.667L252.667 367.333L252.333 366.667z"/>
<path style="fill:#bfb3a3; stroke:none;" d="M347 366L346 406L345 406L345 399L344 399L344 412L343 412L343 400L342 400L342 413L357 413L357 400C343.082 399.065 348 377.163 348 367L352 367L347 366z"/>
<path style="fill:#87755f; stroke:none;" d="M574 397L575 397C575 387.817 570.459 367.408 583 367C569.412 361.312 574 389.406 574 397z"/>
<path style="fill:#726553; stroke:none;" d="M603 397L604 397C604 388.488 599.904 368.733 611 367C599.045 362.178 603 390.414 603 397z"/>
<path style="fill:#621214; stroke:none;" d="M633 366C630.443 370.296 625.797 371.568 621 372L621 374C626.912 373.73 633.91 372.684 635 366L633 366z"/>
<path style="fill:#8d5652; stroke:none;" d="M635 366L635 369L636 369L635 366z"/>
<path style="fill:#b1665f; stroke:none;" d="M756.333 366.667L756.667 367.333L756.333 366.667z"/>
<path style="fill:#b6a188; stroke:none;" d="M439 367C439 374.66 436.241 388.815 439.742 395.682C441.853 399.823 448.272 397.026 451.772 398.603C456.481 400.727 455 408.842 455 413L469 413L469 399L492 399L492 398L472 398C472 391.364 475.139 373.864 470.972 368.603C469.109 366.25 464.617 367.001 462 367L439 367z"/>
<path style="fill:#463f38; stroke:none;" d="M575 398C577.424 397.991 581.257 398.565 582.972 396.397C585.643 393.021 585.65 371.976 582.972 368.603C577.212 361.347 575.001 373.707 575 377L575 385L575 398M604 398C606.424 397.991 610.257 398.565 611.972 396.397C614.635 393.031 614.656 371.958 611.972 368.604C606.605 361.896 604.007 373.818 604 377L604 385L604 398z"/>
<path style="fill:#8d0f10; stroke:none;" d="M252 368C252.605 376.09 262.992 394.714 270 399C268.262 390.278 258.706 373.85 252 368z"/>
<path style="fill:#6e4839; stroke:none;" d="M349 368L349 398L350 398L350 369L358 369L349 368z"/>
<path style="fill:#c5b59f; stroke:none;" d="M360 368L360 398L381 399L381 376L360 368z"/>
<path style="fill:#726553; stroke:none;" d="M584 368L584 397L585 397L584 368z"/>
<path style="fill:#b6a188; stroke:none;" d="M585 368L585 396L586 396L585 368z"/>
<path style="fill:#726553; stroke:none;" d="M613 368L613 397L614 397L613 368z"/>
<path style="fill:#b25652; stroke:none;" d="M208 369L206 374L207 374L208 369z"/>
<path style="fill:#463f38; stroke:none;" d="M350 369L350 399C363.922 398.951 359 379.426 359 369L350 369z"/>
<path style="fill:#8d5652; stroke:none;" d="M546.667 369.333L547.333 369.667L546.667 369.333z"/>
<path style="fill:#87755f; stroke:none;" d="M359 370C359 378.964 363.353 398.596 351 399L351 400L357 400L357 413L342 413L342 399L320 399L320 400C325.718 402.975 332.855 402.463 339 401C339.871 404.66 338.72 411.483 341.028 414.397C343.308 417.276 356.676 417.233 358.976 414.397C361.656 411.091 358.818 404.645 362.407 402.028C374.329 393.333 378 407.847 378 416L396 416L397 402L414 402L417 410L417 399L395 399C395 411.678 392.355 413 380 413L380 399L360 399L359 370z"/>
<path style="fill:#a64f40; stroke:none;" d="M758 370L760 373L758 370M202 374L205 371L202 374z"/>
<path style="fill:#d09188; stroke:none;" d="M328 371L328 372L332 373L332 372L328 371z"/>
<path style="fill:#c5b59f; stroke:none;" d="M442 371L442 397L469 396L469 371L442 371z"/>
<path style="fill:#a08b73; stroke:none;" d="M549 371L552 373L549 371z"/>
<path style="fill:#ab6f74; stroke:none;" d="M629 372L629 373L632 373L629 372z"/>
<path style="fill:#b1665f; stroke:none;" d="M707 372L706 376L707 376L707 372z"/>
<path style="fill:#8d0f10; stroke:none;" d="M758 372L772.914 400.075L797 442C767.689 436.539 737.955 434.038 708 436.09C692.969 437.119 677.975 441 663 441C663.143 453.682 675.176 451.507 681 461L682 461C682 455.719 679.849 444.368 684.318 440.603C689.202 436.488 700.961 439.405 707 438.83C724.922 437.125 744.543 436.553 762.17 439.741C767.31 440.67 774.185 438.526 778.682 441.938C781.871 444.358 781 449.486 781 453C789.62 452.629 799 450.461 798.298 440C797.779 432.272 790.452 424.262 786.421 417.961C777.521 404.044 770.808 382.672 758 372z"/>
<path style="fill:#d09188; stroke:none;" d="M760.333 372.667L760.667 373.333L760.333 372.667M201 373L200 377L201 377L201 373z"/>
<path style="fill:#b1665f; stroke:none;" d="M256.333 373.667L256.667 374.333L256.333 373.667z"/>
<path style="fill:#8d5652; stroke:none;" d="M334.667 373.333L335.333 373.667L334.667 373.333z"/>
<path style="fill:#d09188; stroke:none;" d="M407.667 373.333L408.333 373.667L407.667 373.333z"/>
<path style="fill:#b6a188; stroke:none;" d="M552 373L552 374L560 376L560 375L552 373z"/>
<path style="fill:#8d5652; stroke:none;" d="M626.667 373.333L627.333 373.667L626.667 373.333z"/>
<path style="fill:#a08b73; stroke:none;" d="M334 374L334 375L339 375L334 374M395 374L392 376C396.64 387.798 394 399.61 394 412L395 412L398 376L395 374z"/>
<path style="fill:#8d5652; stroke:none;" d="M402 374L402 375L405 375L402 374z"/>
<path style="fill:#b6a188; stroke:none;" d="M405.667 374.333L406.333 374.667L405.667 374.333z"/>
<path style="fill:#a08b73; stroke:none;" d="M565 374L563 376L564 399L545 399L545 400L567 399L565 374z"/>
<path style="fill:#b6a188; stroke:none;" d="M622 375L622 376L628 375L622 375z"/>
<path style="fill:#b1665f; stroke:none;" d="M702 374L699 381L700 381L702 374z"/>
<path style="fill:#d45152; stroke:none;" d="M721 374L721 379L722 379L721 374z"/>
<path style="fill:#bf7373; stroke:none;" d="M761.333 374.667L761.667 375.333L761.333 374.667z"/>
<path style="fill:#a64f40; stroke:none;" d="M257.333 375.667L257.667 376.333L257.333 375.667z"/>
<path style="fill:#d09188; stroke:none;" d="M339.667 375.333L340.333 375.667L339.667 375.333z"/>
<path style="fill:#a08b73; stroke:none;" d="M343 376L345 406L346 406L346 376L343 376z"/>
<path style="fill:#d6cfc8; stroke:none;" d="M618 376L618 377L623 377L618 376z"/>
<path style="fill:#b1665f; stroke:none;" d="M705.333 376.667L705.667 377.333L705.333 376.667z"/>
<path style="fill:#bf7373; stroke:none;" d="M199.333 377.667L199.667 378.333L199.333 377.667z"/>
<path style="fill:#d6cfc8; stroke:none;" d="M397 377L397 399L417 399L417 398L398 398L397 377M563 377L563 398C557.909 398 547.514 395.978 544 400L564 399L563 377M617 377L617 413L619 413C619 396.707 626.943 399 641 399L641 398L618 399L617 377z"/>
<path style="fill:#d86d6f; stroke:none;" d="M203 378L196 392L197 392L203 378z"/>
<path style="fill:#b1665f; stroke:none;" d="M259.333 378.667L259.667 379.333L259.333 378.667z"/>
<path style="fill:#b03933; stroke:none;" d="M703 378L703 381L704 381L705 378L703 378z"/>
<path style="fill:#b1665f; stroke:none;" d="M763.333 378.667L763.667 379.333L763.333 378.667M198.333 379.667L198.667 380.333L198.333 379.667z"/>
<path style="fill:#bf7373; stroke:none;" d="M260 380L262 383L260 380z"/>
<path style="fill:#eeaead; stroke:none;" d="M196 381L196 384L197 384L198 381L196 381z"/>
<path style="fill:#d09188; stroke:none;" d="M698 381L695 388L696 388L698 381z"/>
<path style="fill:#b1665f; stroke:none;" d="M765 382L767 385L765 382M262.333 383.667L262.667 384.333L262.333 383.667M195 384L195 387L196 387L197 384L195 384z"/>
<path style="fill:#bf7373; stroke:none;" d="M263 385L265 388L263 385z"/>
<path style="fill:#b25652; stroke:none;" d="M700 385L696 394L697 394L700 385z"/>
<path style="fill:#bf7373; stroke:none;" d="M193 386L187 399L188 399L195 386L193 386z"/>
<path style="fill:#ca403f; stroke:none;" d="M718 387L718 392L719 392L718 387z"/>
<path style="fill:#ab6f74; stroke:none;" d="M265.333 388.667L265.667 389.333L265.333 388.667z"/>
<path style="fill:#b25652; stroke:none;" d="M694.333 388.667L694.667 389.333L694.333 388.667z"/>
<path style="fill:#eeaead; stroke:none;" d="M692 390L692 393L693 393L694 390L692 390z"/>
<path style="fill:#bf7373; stroke:none;" d="M770 390L772 393L770 390z"/>
<path style="fill:#b25652; stroke:none;" d="M267.333 392.667L267.667 393.333L267.333 392.667z"/>
<path style="fill:#bf7373; stroke:none;" d="M691 393L683 408L684 408L693 393L691 393z"/>
<path style="fill:#bb2b2d; stroke:none;" d="M717 393L714 409C717.441 406.01 718.733 397.171 717 393z"/>
<path style="fill:#d09188; stroke:none;" d="M772 393L774 396L772 393z"/>
<path style="fill:#b25652; stroke:none;" d="M193 394L193 397L194 397L195 394L193 394z"/>
<path style="fill:#d86d6f; stroke:none;" d="M695 394L694 397L695 394z"/>
<path style="fill:#ab6f74; stroke:none;" d="M316 395L316 396L320 398L316 395M641 398L645 396L641 398z"/>
<path style="fill:#8d0f10; stroke:none;" d="M315 396L313 404L314 404L316 400L320 401L318 404L320 446C324.379 435.565 321.668 415.357 320.956 404C320.683 399.641 319.148 397.232 315 396z"/>
<path style="fill:#90382c; stroke:none;" d="M640 446L641 446L641 400L646 400L650 404C648.273 398.61 641.59 392.91 640.148 402.005C637.936 415.959 640 431.861 640 446z"/>
<path style="fill:#bf7373; stroke:none;" d="M774.333 396.667L774.667 397.333L774.333 396.667z"/>
<path style="fill:#ca403f; stroke:none;" d="M191 397L190 402L191 402L191 397z"/>
<path style="fill:#f16f75; stroke:none;" d="M192 397L192 400L193 400L194 397L192 397z"/>
<path style="fill:#d09188; stroke:none;" d="M314 397L312 402L313 402L314 397z"/>
<path style="fill:#87755f; stroke:none;" d="M576 398L576 399L582 399L581 413L567 413L567 399L544 400L544 415L535 415L535 416L546 416L546 402L564 402L564 416L583 416L584 401L588 401L588 399L584 397L576 398z"/>
<path style="fill:#d6cfc8; stroke:none;" d="M320 398L320 399L342 399L320 398z"/>
<path style="fill:#b6a188; stroke:none;" d="M360 398L360 399L379 399L360 398z"/>
<path style="fill:#87755f; stroke:none;" d="M432 413L434 413L434 402L453 401L454 416L472 416L472 401L489 401C489 411.278 489.022 415.355 500 416.09C502.366 416.248 506.172 417.567 507.972 415.382C510.451 412.374 509 404.699 509 401L528 401L528 415L533 416L530 413L530 399L506 399L506 413L492 413L492 399L469 399L469 413L455 413C455 409.325 456.243 402.661 453.821 399.603C451.117 396.189 435.622 397.302 433.028 400.603C430.826 403.404 432 409.631 432 413z"/>
<path style="fill:#b1665f; stroke:none;" d="M775.333 398.667L775.667 399.333L775.333 398.667z"/>
<path style="fill:#bf7373; stroke:none;" d="M186.333 399.667L186.667 400.333L186.333 399.667z"/>
<path style="fill:#bfb3a3; stroke:none;" d="M417 399L417 413L418 413L417 399z"/>
<path style="fill:#897f6f; stroke:none;" d="M591 399L591 401C602.311 401.009 602 405.985 602 416C615.659 416 622 417.415 622 402C627.204 402 632 401.11 635 406L640 399L620.028 400.603L619 413L604 413C604 401.177 603.12 399 591 399z"/>
<path style="fill:#8d0f10; stroke:none;" d="M270 400C272.399 409.139 282.886 429.048 291 434C289.014 424.017 278.097 406.346 270 400z"/>
<path style="fill:#b1665f; stroke:none;" d="M272.333 400.667L272.667 401.333L272.333 400.667z"/>
<path style="fill:#d45152; stroke:none;" d="M316 400L316 404L317 404L316 400z"/>
<path style="fill:#c60204; stroke:none;" d="M317 400C314.949 416.141 310.269 436.772 304.732 452C302.055 459.362 299.249 463.801 291 464C294.745 469.191 325.324 468.432 327.57 460.87C330.56 450.804 322.006 450.572 320.279 442.907C317.44 430.315 321.509 416.516 318 404C320.291 402.335 319.113 401.319 317 400z"/>
<path style="fill:#a64f40; stroke:none;" d="M321 400L321 446L322 446C322 432.996 326.01 411.939 321 400z"/>
<path style="fill:#c5b59f; stroke:none;" d="M456 400L456 412L468 412L468 400L456 400z"/>
<path style="fill:#b1665f; stroke:none;" d="M639 400L639 446L631 446L631 447L640 447C640 433.735 644.11 412.176 639 400z"/>
<path style="fill:#8d0f10; stroke:none;" d="M641 400L641 432L639.972 444.682L632 447L632 467L664 467L664 466L634 465L635.028 452.314L642.856 445.891L643.039 414L646 400L641 400z"/>
<path style="fill:#ab6f74; stroke:none;" d="M776 400L778 403L776 400z"/>
<path style="fill:#bf7373; stroke:none;" d="M185 401L184 404L185 401z"/>
<path style="fill:#a64f40; stroke:none;" d="M273.333 402.667L273.667 403.333L273.333 402.667z"/>
<path style="fill:#a08b73; stroke:none;" d="M311 402L310 405L311 402z"/>
<path style="fill:#78141a; stroke:none;" d="M312 402C306.965 411.393 300.596 428.869 291 434L291 435L294 435L294 439L295 439C297.046 428.39 315.522 412.274 312 402z"/>
<path style="fill:#ef8784; stroke:none;" d="M314 403L312 408L314 409L315 409L316 403L314 403z"/>
<path style="fill:#8d0f10; stroke:none;" d="M648 403L660 427L662 427C661.505 419.922 654.053 406.838 648 403z"/>
<path style="fill:#d86d6f; stroke:none;" d="M689 403L684 414L691 403L689 403z"/>
<path style="fill:#bf7373; stroke:none;" d="M183.333 404.667L183.667 405.333L183.333 404.667z"/>
<path style="fill:#d45152; stroke:none;" d="M212 404L212 409L213 409L212 404z"/>
<path style="fill:#ab6f74; stroke:none;" d="M275.333 405.667L275.667 406.333L275.333 405.667z"/>
<path style="fill:#b6a188; stroke:none;" d="M309 405L308 409L309 409L309 405z"/>
<path style="fill:#b03933; stroke:none;" d="M315 405L313 415L314 415L315 405z"/>
<path style="fill:#b1665f; stroke:none;" d="M651.333 405.667L651.667 406.333L651.333 405.667z"/>
<path style="fill:#eeaead; stroke:none;" d="M181 406L181 409L182 409L183 406L181 406z"/>
<path style="fill:#ca403f; stroke:none;" d="M186 407L185 411L186 411L186 407z"/>
<path style="fill:#8d5652; stroke:none;" d="M276.333 407.667L276.667 408.333L276.333 407.667z"/>
<path style="fill:#eeaead; stroke:none;" d="M313 407C307.203 414.514 299.09 426.745 296.731 436C295.594 440.465 299.972 444.671 297.929 448.907C294.244 456.548 281.524 456.006 280 465C285.237 464.775 296.33 464.519 300.436 461.062C303.429 458.541 303.28 452.533 304.345 449C306.331 442.411 306.483 435.522 308.455 429C310.448 422.408 315.15 413.992 313 407z"/>
<path style="fill:#b1665f; stroke:none;" d="M180 409L179 413L180 413L182 409L180 409z"/>
<path style="fill:#ca403f; stroke:none;" d="M211 409L211 414L212 414L211 409z"/>
<path style="fill:#d86d6f; stroke:none;" d="M310 409L308 415L309 415L310 409z"/>
<path style="fill:#bf7373; stroke:none;" d="M681 409L681 411L683 409L681 409z"/>
<path style="fill:#b1665f; stroke:none;" d="M278.333 410.667L278.667 411.333L278.333 410.667M306 410L305 414L306 414L306 410M654.333 410.667L654.667 411.333L654.333 410.667z"/>
<path style="fill:#b03933; stroke:none;" d="M713 410L711 422L712 422L713 410z"/>
<path style="fill:#b25652; stroke:none;" d="M782.333 410.667L782.667 411.333L782.333 410.667z"/>
<path style="fill:#ef8784; stroke:none;" d="M184 411L182 416L186 411L184 411z"/>
<path style="fill:#bf7373; stroke:none;" d="M655 412L657 415L655 412z"/>
<path style="fill:#d09188; stroke:none;" d="M679 412L676 420L677 420L681 412L679 412z"/>
<path style="fill:#b1665f; stroke:none;" d="M783 412L785 415L783 412z"/>
<path style="fill:#bf7373; stroke:none;" d="M178 413L171 426L172 426L178 413z"/>
<path style="fill:#d09188; stroke:none;" d="M280.333 413.667L280.667 414.333L280.333 413.667z"/>
<path style="fill:#8d5652; stroke:none;" d="M304.333 414.667L304.667 415.333L304.333 414.667z"/>
<path style="fill:#d86d6f; stroke:none;" d="M683 414L681 419L683 414z"/>
<path style="fill:#b25652; stroke:none;" d="M281.333 415.667L281.667 416.333L281.333 415.667z"/>
<path style="fill:#d09188; stroke:none;" d="M307 415L306 418L307 415z"/>
<path style="fill:#b1665f; stroke:none;" d="M657.333 415.667L657.667 416.333L657.333 415.667z"/>
<path style="fill:#b25652; stroke:none;" d="M785.333 415.667L785.667 416.333L785.333 415.667z"/>
<path style="fill:#b1665f; stroke:none;" d="M303 416L302 419L303 416z"/>
<path style="fill:#d86d6f; stroke:none;" d="M312 416L312 419L313 419L312 416z"/>
<path style="fill:#bf7373; stroke:none;" d="M282 417L284 420L282 417M658 417L660 420L658 417M786 417L788 420L786 417z"/>
<path style="fill:#d09188; stroke:none;" d="M301 419L299 424L300 424L301 419z"/>
<path style="fill:#d86d6f; stroke:none;" d="M304 419L303 423L304 423L304 419z"/>
<path style="fill:#b1665f; stroke:none;" d="M660.333 420.667L660.667 421.333L660.333 420.667z"/>
<path style="fill:#eeaead; stroke:none;" d="M674 420L674 422L676 420L674 420z"/>
<path style="fill:#b25652; stroke:none;" d="M788.333 420.667L788.667 421.333L788.333 420.667z"/>
<path style="fill:#d86d6f; stroke:none;" d="M178 422L177 425L178 422z"/>
<path style="fill:#d45152; stroke:none;" d="M679 422L678 425L679 422z"/>
<path style="fill:#bb2b2d; stroke:none;" d="M710 422L709 428L710 428L710 422z"/>
<path style="fill:#bf7373; stroke:none;" d="M286.333 423.667L286.667 424.333L286.333 423.667z"/>
<path style="fill:#d86d6f; stroke:none;" d="M302 423L299 430L300 430L302 423z"/>
<path style="fill:#bf7373; stroke:none;" d="M662.333 423.667L662.667 424.333L662.333 423.667M673 423L672 426L673 423M790.333 423.667L790.667 424.333L790.333 423.667M298 424L295 431L296 431L298 424z"/>
<path style="fill:#ca403f; stroke:none;" d="M310 424L309 433L310 433L310 424z"/>
<path style="fill:#ef8784; stroke:none;" d="M176 425L173 432L174 432L176 425z"/>
<path style="fill:#d09188; stroke:none;" d="M287 425L289 428L287 425z"/>
<path style="fill:#b1665f; stroke:none;" d="M663.333 425.667L663.667 426.333L663.333 425.667M170.333 426.667L170.667 427.333L170.333 426.667z"/>
<path style="fill:#f16f75; stroke:none;" d="M207 426L198 431L198 432C202.009 431.903 208.099 431.29 207 426z"/>
<path style="fill:#ef8784; stroke:none;" d="M309 426L308 433L309 433L309 426z"/>
<path style="fill:#bf7373; stroke:none;" d="M671.333 426.667L671.667 427.333L671.333 426.667z"/>
<path style="fill:#b25652; stroke:none;" d="M676 426L676 428L678 426L676 426z"/>
<path style="fill:#d09188; stroke:none;" d="M792.333 426.667L792.667 427.333L792.333 426.667z"/>
<path style="fill:#ab6f74; stroke:none;" d="M664 427L666 430L664 427z"/>
<path style="fill:#b25652; stroke:none;" d="M169 428L165 436L169 428z"/>
<path style="fill:#d86d6f; stroke:none;" d="M670 428L667 433L670 428z"/>
<path style="fill:#ef8784; stroke:none;" d="M676 428L675 431L676 428z"/>
<path style="fill:#b03933; stroke:none;" d="M701 429L701 430L709 429L701 429z"/>
<path style="fill:#d86d6f; stroke:none;" d="M298 430L295 440L296 440L298 430M676 434L676 435L696 432L696 430L676 434z"/>
<path style="fill:#ef8784; stroke:none;" d="M172 432L170 438L177 437L177 436L172 436L172 432z"/>
<path style="fill:#bb2b2d; stroke:none;" d="M177 436L177 437L201 433L177 436z"/>
<path style="fill:#d86d6f; stroke:none;" d="M291 432L294 434L294 433L291 432z"/>
<path style="fill:#ab6f74; stroke:none;" d="M795 432L797 435L795 432z"/>
<path style="fill:#d86d6f; stroke:none;" d="M307 433L307 438L308 438L307 433z"/>
<path style="fill:#bf7373; stroke:none;" d="M797 435L799 438L797 435z"/>
<path style="fill:#8d5652; stroke:none;" d="M164 436L161 443L164 436z"/>
<path style="fill:#b25652; stroke:none;" d="M709 438L709 439L742 439L709 438z"/>
<path style="fill:#90382c; stroke:none;" d="M742 438L742 439L760 439L742 438z"/>
<path style="fill:#bf7373; stroke:none;" d="M799.333 438.667L799.667 439.333L799.333 438.667z"/>
<path style="fill:#90382c; stroke:none;" d="M682 462L683 462C683 449.086 680.95 441.188 696 440C679.533 433.09 682 451.726 682 462z"/>
<path style="fill:#bf7373; stroke:none;" d="M696 439L696 440L709 440L696 439z"/>
<path style="fill:#b6a188; stroke:none;" d="M691 440L691 441L703 441C703.433 444.452 708.872 445.258 712.06 446.597C721.058 450.378 731.603 454.49 741 457.394C744.436 458.455 749.788 457.062 751.523 461.157C753.322 465.403 752 472.44 752 477L752 514L752 641L752 682C752 685.915 753.435 693.461 750.523 696.542C747.336 699.913 741.111 698.739 737 699.134C718.761 700.886 705.843 691.566 689 688C691.952 695.446 703.907 697.669 711 699.091C730.377 702.976 746.577 702.345 765 694.46C770.152 692.255 779.11 689.599 781.397 683.907C783.391 678.941 782 671.288 782 666L782 626L782 513C782 495.302 778.898 474.23 783 457C778.283 453.942 780 446.074 780 441L691 440z"/>
<path style="fill:#b03933; stroke:none;" d="M209 440L209 441L248 441C237.726 436.689 220.172 440 209 440z"/>
<path style="fill:#ca403f; stroke:none;" d="M296.333 440.667L296.667 441.333L296.333 440.667z"/>
<path style="fill:#bf7373; stroke:none;" d="M763 440L763 441L776 441L763 440z"/>
<path style="fill:#621214; stroke:none;" d="M798 440C797.881 450.008 789.844 452.296 781 453L781 456C787.114 455.819 809.266 447.961 798 440z"/>
<path style="fill:#ab6f74; stroke:none;" d="M800 440L801 447L802 447L800 440z"/>
<path style="fill:#bf7373; stroke:none;" d="M197 441L197 442L248 442C234.873 436.492 211.311 441 197 441z"/>
<path style="fill:#c5b59f; stroke:none;" d="M684 441L684 616L684 664L686 687L598 687C591.265 687 572.513 683.836 568 689C591.138 683.491 620.204 688 644 688C658.462 688 675.129 685.672 689 690L702 693.611L739 699.028L751.278 696.667L752 681L752 641L752 512L752 476L751.667 460.25L742 457.5L712.028 446.194L703 441L684 441z"/>
<path style="fill:#ab6f74; stroke:none;" d="M187 442L187 443L197 443L187 442z"/>
<path style="fill:#b6a188; stroke:none;" d="M184 443L184 444L222 452C223.843 458.299 242.797 461.806 249 462L249 620C249 643.796 244.491 672.862 250 696L248 700L238 701L238 702L241 702L241 703L235 703L235 704L250 702L249 699C257.144 698.188 271.544 693.286 275.976 685.74C278.223 681.915 277 675.281 277 671L277 637C277 572.334 278 507.438 278 443L184 443z"/>
<path style="fill:#621214; stroke:none;" d="M297 442L291 454C297.061 452.542 299.451 447.844 297 442z"/>
<path style="fill:#d09188; stroke:none;" d="M683 442L683 476L684 476L683 442z"/>
<path style="fill:#87755f; stroke:none;" d="M780 442L780 457L785 457L785 456L781 456L780 442z"/>
<path style="fill:#eeaead; stroke:none;" d="M159 443C159.112 447.634 159.709 450.748 164 453L161 443L159 443z"/>
<path style="fill:#b1665f; stroke:none;" d="M180 443L178 458L178 459C184.773 457.549 177.596 446.842 184 444L180 443z"/>
<path style="fill:#6e4839; stroke:none;" d="M278 443L278 464L279 464L281 461L281 460L278 443M160 444L160 449L161 449L160 444z"/>
<path style="fill:#c5b59f; stroke:none;" d="M181 444L179 687L180 687L180 461L181 461L181 626L181 669C181 674 179.451 682.165 182.434 686.471C196.047 706.125 228.879 700.171 248 700L250 696C245.362 671.016 249 642.409 249 617L249 462C241.923 461.436 225.796 458.21 222 452L181 444z"/>
<path style="fill:#8d5652; stroke:none;" d="M298 444L298 450L299 450L298 444z"/>
<path style="fill:#bb2b2d; stroke:none;" d="M305 445L303 456L304 456L305 445z"/>
<path style="fill:#87755f; stroke:none;" d="M322 446L322 447L631 447L603 446L540 446L322 446M261 447L261 448L267 448L261 447z"/>
<path style="fill:#78141a; stroke:none;" d="M322 447L322 448C328.505 450.957 331.116 460.918 323.532 464.852C317.203 468.135 305.999 466 299 466L299 467L329 467C329 459.356 332.131 447.561 322 447z"/>
<path style="fill:#90382c; stroke:none;" d="M327 447L327 448C330.926 453.182 329.13 462.915 328 469C332.354 465.196 330 452.561 330 447L327 447z"/>
<path style="fill:#726553; stroke:none;" d="M330 447L330 449L632 449L632 447L330 447z"/>
<path style="fill:#463f38; stroke:none;" d="M257 448L257 475L258.742 484.972L270 485L270 460L268.397 449.742L257 448z"/>
<path style="fill:#726553; stroke:none;" d="M267 448L267 449C273.755 455.615 270 475.884 270 485L271 485L271 448L267 448z"/>
<path style="fill:#87755f; stroke:none;" d="M330 449C330 457.35 331.71 474.583 326.972 481.682C323.299 487.187 313.812 480.827 310.028 485.603C308.231 487.871 309 492.297 309 495L304 494L294 496C294 488.251 290.875 474.581 301 473L301 472C293.405 472.247 293.005 476.276 293 483L278 484L278 687L305 686L305 685L280 684L280 486C282.595 486.492 287.316 485.367 289.397 486.951C292.222 489.103 289.817 493.765 292.603 495.972C295.457 498.232 307.767 498.58 309.961 495.424C311.606 493.058 310.869 488.757 311 486L331 486C331.001 496.315 333.917 497.872 344 496C344 486.784 339.939 464.609 345.603 457.152C349.105 452.542 353.699 455.604 355.231 460.015C357.564 466.731 356 475.949 356 483L371 483L371 477L404 477L402 482C411.607 483.784 421.11 475.909 427 484L453 483L454 494C465.223 494 466.118 492.674 468 482C479.123 482.092 493.95 479.961 494 494L500 494L501 459C503.585 458.675 507.196 457.49 509.566 459.042C514.422 462.223 513.005 480.033 510 484L510 485C521.084 485 530.989 482.198 531 496L550 496L548 484L575 484L575 494L579 494C579 481.721 572.627 450.433 591 454L591 482C594.403 481.412 595.272 480.351 596 477L610 475L607 477L607 478L622 478L627 477L626 483C633.742 481.652 631 456.099 631 449L330 449z"/>
<path style="fill:#a64f40; stroke:none;" d="M631 449L631 466L632 466L631 449z"/>
<path style="fill:#897f6f; stroke:none;" d="M206 488L206 487C190.985 489.786 193 478.421 193 467C193 463.007 191.829 456.61 194.603 453.318C197.072 450.388 201.581 451.003 205 451C201.956 449.723 196.231 448.976 193.603 451.603C190.463 454.744 192 462.938 192 467C192 478.603 189.61 492.845 206 488z"/>
<path style="fill:#87755f; stroke:none;" d="M256 450L256 484L257 484L256 450z"/>
<path style="fill:#463f38; stroke:none;" d="M195.318 452.028C190.725 455.093 191.473 479.973 193.603 484.852C195.14 488.371 201.508 489.109 204.397 486.821C206.908 484.832 206 479.793 206 477C206 470.901 209.307 442.694 195.318 452.028z"/>
<path style="fill:#897f6f; stroke:none;" d="M714 451L714 452L722 452L714 451z"/>
<path style="fill:#6e4839; stroke:none;" d="M164 452L167 454L164 452z"/>
<path style="fill:#87755f; stroke:none;" d="M206 452L206 487L207 487L206 452z"/>
<path style="fill:#463f38; stroke:none;" d="M580 495C593.536 494.952 590 478.183 590 468C590 464.287 591.231 457.766 588.972 454.573C581.674 444.257 580 463.677 580 467L580 478L580 495z"/>
<path style="fill:#a08b73; stroke:none;" d="M712 452L711 488L712 488C712 476.795 709.578 462.435 714 452L712 452z"/>
<path style="fill:#463f38; stroke:none;" d="M713 489L725 489C725 478.495 726.663 466.449 724.852 456.109C724.129 451.98 717.794 450.502 714.603 453.028C712.082 455.023 713 460.198 713 463L713 489z"/>
<path style="fill:#ab6f74; stroke:none;" d="M793 452L793 453L796 453L793 452z"/>
<path style="fill:#a08b73; stroke:none;" d="M439.995 453.468C434.115 453.88 419.201 451.386 414.603 455.028C411.215 457.711 412.61 467.585 416.394 469.397C421.85 472.008 435.999 470.864 441.941 469.852C448.65 468.709 448.254 452.89 439.995 453.468M597.573 454.028C593.915 456.592 593.915 465.408 597.573 467.972C601.843 470.966 623.367 470.668 627.257 467.062C630.025 464.495 628.986 455.335 625.566 453.603C621.213 451.399 601.576 451.221 597.573 454.028z"/>
<path style="fill:#726553; stroke:none;" d="M725 453L725 488L726 488L725 453z"/>
<path style="fill:#8d5652; stroke:none;" d="M790 453L790 454L793 454L790 453z"/>
<path style="fill:#a08b73; stroke:none;" d="M166 454L166 455L169 455L166 454z"/>
<path style="fill:#bf7373; stroke:none;" d="M277 454L277 467L290 466L290 465L278 464L277 454z"/>
<path style="fill:#463f38; stroke:none;" d="M344 496L350 496L350 484L355 484C355 476.086 356.35 466.788 354.656 459.044C353.711 454.724 348.836 452.506 345.603 456.319C343.118 459.25 344 464.448 344 468L344 496z"/>
<path style="fill:#a08b73; stroke:none;" d="M371.603 455.028C368.817 457.234 368.979 466.754 372.318 468.397C376.839 470.621 398.421 470.97 402.397 467.821C405.2 465.601 404.989 456.428 401.682 454.742C397.269 452.492 375.513 451.931 371.603 455.028z"/>
<path style="fill:#726553; stroke:none;" d="M590 454L590 485C601.084 485 610.989 482.198 611 496L630 496L630 485L634 485L634 467L631 466C629.682 471.537 632.346 480.948 626 483L627 477L622 478L607 478L607 477L610 475L596 477L591 482L590 454z"/>
<path style="fill:#6e4839; stroke:none;" d="M712 454L712 488L713 488L712 454z"/>
<path style="fill:#b6a188; stroke:none;" d="M726 454L726 488L727 488L726 454z"/>
<path style="fill:#8d5652; stroke:none;" d="M787.667 454.333L788.333 454.667L787.667 454.333z"/>
<path style="fill:#d09188; stroke:none;" d="M789 454L789 455L792 455L789 454M170.667 456.333L171.333 456.667L170.667 456.333z"/>
<path style="fill:#726553; stroke:none;" d="M579 456L579 494L575 494L575 484C567.111 482.122 555.794 481.696 548 484L548 485L568.852 485.742L573.603 494.972L590 496L590 486L589 486C588.837 492.743 586.73 494.92 580 495C580 483.828 583.311 466.274 579 456z"/>
<path style="fill:#c5b59f; stroke:none;" d="M172 457L172 458L175 458L172 457z"/>
<path style="fill:#a08b73; stroke:none;" d="M526 471C530.717 471.596 535.234 472 540 472C548.264 472.001 558.262 474.601 559.262 464.001C559.435 462.159 559.742 460.091 558.357 458.603C554.869 454.856 531.288 455.385 527.603 458.858C524.849 461.455 526 467.573 526 471z"/>
<path style="fill:#b6a188; stroke:none;" d="M176.667 458.333L177.333 458.667L176.667 458.333z"/>
<path style="fill:#ef8784; stroke:none;" d="M281 461L286 459L281 461z"/>
<path style="fill:#463f38; stroke:none;" d="M502 495L509 495C509.007 486.082 512.004 478.184 512 469C511.999 466.145 512.818 461.073 510.258 459.029C506.852 456.309 502.723 459.482 502.148 463.019C500.499 473.16 502 484.721 502 495z"/>
<path style="fill:#d6cfc8; stroke:none;" d="M782 458L782 685L783 685L783 525L783 479L782 458z"/>
<path style="fill:#726553; stroke:none;" d="M355 459L355 484L350 486C354.85 484.845 366.421 482.854 370.397 486.742C372.841 489.133 370.96 493.745 374.318 495.397C378.356 497.383 385.565 496 390 496C390.011 481.879 400.775 485 412 485L412 496L430 496C430.007 486.534 439.222 479.718 448.682 486.028C452.012 488.248 449.833 493.569 453.434 495.397C457.601 497.511 465.391 496 470 496C470.008 485.581 478.665 481.156 488.852 485.603C493.119 487.466 490.524 492.535 493.603 494.972C502.822 502.269 509.999 493.179 510 485L509 485L509 495L502 495L503 459L501 469L500 494L494 494C493.989 479.658 479.684 482.032 468 482C465.287 492.079 465.242 494 454 494L453 483L427 484L429 495L416 495L416 483L402 482L404 477C394.312 475.201 380.497 474.193 371 477L371 483L356 483L355 459z"/>
<path style="fill:#a08b73; stroke:none;" d="M180 461L180 626L180 671C180 675.915 178.401 684.332 181.028 688.671C184.205 693.919 193.451 696.908 198.961 698.661C213.943 703.427 225.387 703.67 241 703L241 702C224.272 702 193.077 702.067 182.434 685.671C179.63 681.352 181 673.928 181 669L181 631L181 512C181 497.7 185.506 474.121 180 461z"/>
<path style="fill:#ef8784; stroke:none;" d="M285 464L285 465L300 463L285 464z"/>
<path style="fill:#78141a; stroke:none;" d="M281 468L285 471L295 468L295 467L292 465L281 468z"/>
<path style="fill:#6e4839; stroke:none;" d="M278 467L280 477C279.114 473.226 278.499 470.272 282 468L278 467z"/>
<path style="fill:#b25652; stroke:none;" d="M295 467L295 468L328 468L295 467M634 467L634 468L666 469C659.178 463.832 642.435 467 634 467z"/>
<path style="fill:#78141a; stroke:none;" d="M665 467L665 468C673.186 468.006 675.97 469.476 676 478L683 478L683 469L665 467z"/>
<path style="fill:#413126; stroke:none;" d="M279 468C279.019 473.315 279.223 476.795 285 478C284.938 472.798 283.934 470.159 279 468z"/>
<path style="fill:#8d5652; stroke:none;" d="M282 478L282 479L286 479C286.023 472.527 286.964 469.229 294 469C284.392 464.978 287.264 474.587 282 478z"/>
<path style="fill:#d09188; stroke:none;" d="M284 483L287 483L287 471C297.992 471.36 317.399 463.726 327 471C328.773 466.296 315.957 468 313 468C307.396 468 290.723 465.519 286.889 470.477C285.14 472.739 284.313 480.035 284 483z"/>
<path style="fill:#b6a188; stroke:none;" d="M633 468L633 483L634 483L634 469L661 469L633 468z"/>
<path style="fill:#b03933; stroke:none;" d="M666 468L666 469L675 469L666 468z"/>
<path style="fill:#c5b59f; stroke:none;" d="M287 471L287 483L293 483C293.019 477.575 298.239 466.189 303.972 475.279C306.769 479.712 305 488.903 305 494L308 494C308.01 480.54 317.065 483 328 483L326.821 470.603L316 469L287 471M634 469L634 483C644.777 483 652.99 480.909 653 494L657 494C657 489.251 655.299 480.396 658.028 476.318C662.678 469.367 668.842 478.167 669 483C672.511 483 676.146 483.987 677 480C673.497 480 675 472.961 675 470L634 469z"/>
<path style="fill:#bf7373; stroke:none;" d="M666 469L666 470L675 470L675 477L676 477L676 469L666 469z"/>
<path style="fill:#a08b73; stroke:none;" d="M277 471C274.646 526.682 277 583.181 277 639L277 671C277 675.155 278.05 681.106 275.976 684.871C271.642 692.739 257.241 697.599 249 699L249 701C260.07 699.898 269.891 694.027 279 688L278 637L278 536L278 500L280 484L282 478L282 477L278 477L277 471z"/>
<path style="fill:#463f38; stroke:none;" d="M294 496L304 496C303.021 490.724 305.27 478.777 301.972 474.743C299.496 471.714 295.188 473.89 294.318 477.059C292.763 482.717 294 490.146 294 496z"/>
<path style="fill:#726553; stroke:none;" d="M301 473L301 474L303 494L304 494L304 473L301 473z"/>
<path style="fill:#a08b73; stroke:none;" d="M304 474L304 494L305 494L304 474z"/>
<path style="fill:#87755f; stroke:none;" d="M657 494L658 494C658 485.965 655.349 475.347 666 475C654.054 470 657 487.062 657 494z"/>
<path style="fill:#463f38; stroke:none;" d="M657 496L668 496L667 475C654.309 475.045 658.781 486.407 657 496z"/>
<path style="fill:#87755f; stroke:none;" d="M667 476L668 496L670 496L667 476z"/>
<path style="fill:#b6a188; stroke:none;" d="M668 476C668.004 481.221 671.541 488.993 669.397 493.772C667.358 498.315 654.705 498.678 652.028 494.682C650.028 491.698 651.849 487.349 647.852 485.603C643.073 483.517 635.183 485.116 630 485L630 496L611 496C610.998 481.883 601.633 485 590 485L590 496L573.603 494.397L569.682 485.742L550 485L550 496L531 496C530.998 481.883 521.633 485 510 485C509.998 488.18 510.702 492.9 508.258 495.397C505.366 498.351 494.433 498.061 492.028 494.566C490.306 492.066 491 487.875 491 485C479.367 485 470.002 481.883 470 496C465.417 496 458.463 497.306 454.228 495.397C450.088 493.53 452.432 488.426 449.397 486.028C446.645 483.854 433.297 483.739 431.028 486.603C429.231 488.871 430 493.297 430 496L412 496L412 485C400.227 485 390.002 481.576 390 496C385.683 496 378.045 497.459 374.318 494.972C371.315 492.969 372.967 489.198 370.972 486.742C368.342 483.505 358.746 484.719 355.019 485.059C346.808 485.806 352.367 496.662 342 497L341.117 507.357L361.397 511.564L363 528L335.603 530.742L332.59 543L326.92 573L312.478 644.039L304 684C311.717 686.281 320.982 685 329 685C349.781 685 372.826 682.259 393 687C398.084 670.706 395.845 651.016 398.209 634C402.837 600.695 416.081 561.506 440.289 537.289C469.685 507.883 506.043 517.22 530.181 548C559.084 584.856 567 639.668 567 685C605.279 685 645.245 682.005 683 687C676.342 671.287 681 645.993 681 629L681 533C681 517.438 678.391 499.159 682 484L683 484L683 684L684 684L684 476L683 476L677 479L677 480L682 479C680.149 485.043 674.211 483.014 669 483L668 476z"/>
<path style="fill:#726553; stroke:none;" d="M675 477L675 481L679 479L679 478L675 477z"/>
<path style="fill:#ffffff; stroke:none;" d="M279 478L279 483L284 483C283.412 479.597 282.351 478.728 279 478z"/>
<path style="fill:#413126; stroke:none;" d="M416 495L427 495C426.237 490.892 427.038 484.989 425.062 481.344C418.503 469.246 416 491.628 416 495z"/>
<path style="fill:#ffffff; stroke:none;" d="M677 483L682 483L682 479L677 483z"/>
<path style="fill:#6e4839; stroke:none;" d="M426 482C426 486.545 424.925 492.121 429 495L426 482z"/>
<path style="fill:#d6cfc8; stroke:none;" d="M280 483L280 484L284 484L280 483z"/>
<path style="fill:#a08b73; stroke:none;" d="M305 494L305 495L309 495C309.01 482.305 316.392 484 327 484C323.475 482.521 311.732 481.192 309.028 484.603C306.486 487.809 308.932 491.451 305 494z"/>
<path style="fill:#897f6f; stroke:none;" d="M634 483L635 486C639.529 485.159 647.061 483.254 649.972 488.148C651.367 490.493 650.317 494.163 652.603 495.972C655.863 498.552 664.03 497 668 497L668 496L653 494C652.998 480.565 645.326 483 634 483z"/>
<path style="fill:#d6cfc8; stroke:none;" d="M677 483L677 484L681 484L677 483z"/>
<path style="fill:#87755f; stroke:none;" d="M682 484C679.367 499.559 682 518.088 682 534L682 639L682 675C682 679.7 680.759 685.26 686 687C679.322 673.09 683 652.32 683 637L683 528C683 515.532 686.807 495.456 682 484z"/>
<path style="fill:#a08b73; stroke:none;" d="M280 486L280 684L305 685L304 682C306.968 679.406 305.871 674.72 306.63 671.015C308.402 662.351 310.69 653.685 312.478 645.015C318.059 617.964 325.132 590.499 329.13 563C330.159 555.92 330.771 535.307 336.318 530.742C341.931 526.123 355.911 529.316 363 528L361.397 510.938L341.317 506.593L342 497L349 497L349 496C338.418 496.029 331.01 499.419 331 486L311 486C310.604 488.758 311.294 493.201 309.358 495.388C306.729 498.358 295.364 498.157 292.603 495.397C290.192 492.985 292.256 488.148 289.397 486.282C287.217 484.861 282.589 486.225 280 486z"/>
<path style="fill:#897f6f; stroke:none;" d="M258 486L258 487L267 487L258 486M491 486L493 496L491 486z"/>
<path style="fill:#a08b73; stroke:none;" d="M681 487L681 685L682 685L682 546L682 506L681 487z"/>
<path style="fill:#b6a188; stroke:none;" d="M725 488L713 490L713 491C716.04 491 725.74 492.49 725 488z"/>
<path style="fill:#726553; stroke:none;" d="M713 489L713 490L724 490L713 489z"/>
<path style="fill:#a08b73; stroke:none;" d="M493 496L493 497L509 497L493 496z"/>
<path style="fill:#897f6f; stroke:none;" d="M563 568L564 568L564 527C564 521.361 562.555 513.336 564.603 508.019C566.38 503.41 570.723 503.051 575 503C570.795 501.239 564.698 501.885 563.318 507.044C561.719 513.021 563 520.831 563 527L563 568z"/>
<path style="fill:#463f38; stroke:none;" d="M567 503L567 504L570 504C562.47 514.468 567 538.335 567 551C567 555.439 565.652 562.637 567.742 566.678C569.19 569.476 572.535 568.432 575 568L575.001 520L575 504L567 503z"/>
<path style="fill:#413126; stroke:none;" d="M572 504C578.711 522.997 575 547.643 575 568C565.238 568.925 567 560.414 567 553C567 538.567 562.943 516.829 570 504C563.454 505.092 565 511.665 565 517L565 557C565 562.165 563.493 570.883 570.989 570.883C578.346 570.883 577 562.06 577 557L577 517C577 511.665 578.546 505.092 572 504z"/>
<path style="fill:#6e4839; stroke:none;" d="M577 505L577 568L578 568L578 525L577 505M564 506L564 568L565 568L565 526L564 506z"/>
<path style="fill:#a08b73; stroke:none;" d="M578 506L578 568L579 568L579 526L578 506z"/>
<path style="fill:#726553; stroke:none;" d="M291 573L292 573L292 532C292 526.635 290.652 519.083 292.603 514.019C294.38 509.41 298.723 509.051 303 509C298.701 507.197 292.704 507.73 291.318 513.019C286.719 530.57 291 554.813 291 573z"/>
<path style="fill:#463f38; stroke:none;" d="M293 577C296.003 577 301.853 578.072 303.972 575.397C306.423 572.302 305 564.731 305 561L305 526C305 521.821 306.257 514.968 303.821 511.318C301.415 507.713 295.072 508.695 293.028 512.148C290.175 516.966 292 526.552 292 532L292 550C292 559.079 291.861 567.991 293 577z"/>
<path style="fill:#6e4839; stroke:none;" d="M304 510L305 573L306 573L306 528L304 510z"/>
<path style="fill:#897f6f; stroke:none;" d="M306 512L306 573L307 573L307 532L306 512z"/>
<path style="fill:#c5b59f; stroke:none;" d="M626.148 513.858C621.849 515.919 620.892 530.001 625.318 532.258C631.877 535.602 656.148 534.84 662.682 531.411C666.595 529.358 666.249 516.844 662.682 514.573C656.717 510.773 632.485 510.82 626.148 513.858z"/>
<path style="fill:#726553; stroke:none;" d="M430 552C443.366 543.92 449.58 528.64 466 523.384C507.016 510.256 539.28 555.933 549 590C552.999 579.754 540.559 563.213 535.505 555C515.773 522.938 479.124 506.345 447 530.884C440.04 536.201 432.272 543.239 430 552z"/>
<path style="fill:#897f6f; stroke:none;" d="M432 552L429 550L427 554C430.667 554 426.987 558.068 425.833 560C421.748 566.84 418.783 573.838 415.5 581C402.045 610.356 397 647.515 397 680L408 680C408 643.077 415.487 606.384 432.403 573.83C441.017 557.253 456.829 538.472 477 537.089C495.351 535.832 510.057 548.763 521.161 561.714C546.518 591.292 554 642.391 554 680L564 680C564 659.599 562.124 637.846 557.406 618C555.833 611.385 548.898 597.009 552 591L551 586L550 586L550 590C540.028 568.925 531.602 547.346 512.741 532.383C488.067 512.808 444.079 520.822 432 552z"/>
<path style="fill:#c5b59f; stroke:none;" d="M375.573 527.028C370.919 530.291 371.956 543.865 376.549 546.987C382.526 551.049 398.864 548.003 406 548C408.774 547.999 413.055 548.676 415.397 546.821C418.71 544.197 418.16 529.349 414.682 527.028C408.561 522.943 392.257 526 385 526C382.174 526 378.031 525.304 375.573 527.028z"/>
<path style="fill:#897f6f; stroke:none;" d="M195 537L195 538L203 538L195 537z"/>
<path style="fill:#463f38; stroke:none;" d="M419 667L540 667C540 661.246 541.827 639.358 535 639C538.117 614.338 528.523 589.606 517.231 568.004C512.021 558.037 504.411 547.1 494 542L497 541C485.046 534.294 465.296 535.451 455.313 545.529C451.785 549.091 450.002 554.921 446.794 558.985C424.242 587.56 419 631.906 419 667z"/>
<path style="fill:#897f6f; stroke:none;" d="M715 537L715 538L723 538L715 537z"/>
<path style="fill:#413126; stroke:none;" d="M194 538L194 565L194 583C194 588.717 192.349 597.562 194.742 602.852C196.232 606.144 202.56 607.442 204.972 604.397C207.544 601.15 206 592.929 206 589L206 555C206 550.89 207.24 544.268 205.142 540.573C203.119 537.01 197.417 538 194 538z"/>
<path style="fill:#a08b73; stroke:none;" d="M204 538L204 540L206 540L206 538L204 538z"/>
<path style="fill:#413126; stroke:none;" d="M714 538L714 565L714 583C714 588.717 712.349 597.562 714.742 602.852C716.232 606.144 722.56 607.442 724.972 604.397C727.544 601.15 726 592.929 726 589L726 555C726 550.89 727.24 544.268 725.142 540.573C723.119 537.01 717.417 538 714 538z"/>
<path style="fill:#a08b73; stroke:none;" d="M724 538L724 540L726 540L726 538L724 538M192 540L192 587L193.434 605.276L205 608L205 606C200.788 605.985 195.994 606.12 193.858 601.695C191.566 596.946 193 589.164 193 584C193 569.634 191.373 554.15 194 540L192 540z"/>
<path style="fill:#726553; stroke:none;" d="M206 540L206 603L207 603L207 560L206 540z"/>
<path style="fill:#a08b73; stroke:none;" d="M712 540C712 559.895 709.093 582.271 712.144 601.91C713.323 609.498 725.345 610.586 727 603L726 603C720.926 608.181 713.614 605.236 713.055 597.985C711.664 579.948 710.701 557.769 714 540L712 540z"/>
<path style="fill:#726553; stroke:none;" d="M726 540L726 603L727 603L727 560L726 540z"/>
<path style="fill:#413126; stroke:none;" d="M494 541L494 542C522.264 561.857 537.635 605.615 535 639C541.806 639.938 540 661.22 540 667L418 667L418 668L543 669C543 634.974 536.978 598.73 520.454 568.714C514.876 558.58 506.562 542.575 494 541z"/>
<path style="fill:#6e4839; stroke:none;" d="M193 542L193 603L194 603L194 562L193 542z"/>
<path style="fill:#b6a188; stroke:none;" d="M207 542L207 603L208 603L208 562L207 542z"/>
<path style="fill:#6e4839; stroke:none;" d="M713 542L713 603L714 603L714 562L713 542z"/>
<path style="fill:#b6a188; stroke:none;" d="M727 542L727 603L728 603L728 562L727 542z"/>
<path style="fill:#463f38; stroke:none;" d="M198 603C209.094 598.238 204 570.51 204 560C204 556.149 205.366 548.817 202.821 545.603C200.798 543.048 196.298 544.016 195.487 547.109C194.319 551.562 196 559.189 196 564L196 580C196 587.677 194.954 595.812 198 603M718 603C729.094 598.238 724 570.51 724 560C724 556.149 725.366 548.817 722.821 545.603C720.798 543.048 716.298 544.016 715.487 547.109C714.319 551.562 716 559.189 716 564L716 580C716 587.677 714.954 595.812 718 603z"/>
<path style="fill:#6e4839; stroke:none;" d="M506 547C510.543 558.747 521.091 568.05 526.01 580C535.113 602.113 537.548 623.772 541.615 647C543.854 659.786 539.944 676.818 554 684C551.815 672.23 553.14 659.913 551.714 648C548.971 625.077 542.906 603.156 533.695 582C528.079 569.101 519.185 553.275 506 547M452 548C439.759 557.404 432.479 571.253 426.37 584.961C412.977 615.011 408 649.017 408 682L422 669L422 668L418 668C420.905 658.171 418.909 646.267 420.128 636C422.291 617.776 427.793 596.77 435.377 580C438.818 572.394 442.421 565.535 447.576 558.985C450.126 555.744 453.372 552.229 452 548z"/>
<path style="fill:#726553; stroke:none;" d="M428 553C418.857 562.071 413.832 576.954 410.04 589C402.665 612.433 398.904 634.724 395.428 659C394.398 666.194 392.642 678.749 393.773 685.695C394.501 690.164 400.471 690.891 403 688C388.398 688.798 409.878 674.775 406 689C409.577 687.813 411.625 683.242 407.427 680.858C404.59 679.246 400.143 680 397 680C397 648.69 403.56 617.529 413.094 588C415.656 580.065 419.484 572.298 423.478 565C425.508 561.29 429.154 557.346 428 553z"/>
<path style="fill:#87755f; stroke:none;" d="M349 558L358 557C354.911 555.704 351.307 555.359 349 558z"/>
<path style="fill:#726553; stroke:none;" d="M644 623L645 623C642.546 609.781 644 595.418 644 582C644 575.831 642.73 567.994 644.573 562.055C645.945 557.63 649.979 557.187 654 557C650.317 555.458 644.845 555.526 643.434 560.109C641.638 565.941 643 573.931 643 580C643 593.296 640.23 610.246 644 623z"/>
<path style="fill:#463f38; stroke:none;" d="M350.318 557.742C346.131 559.874 348 570.097 348 574C348 587.897 344.372 607.561 348.318 620.852C349.354 624.341 354.015 624.573 356.941 623.397C362.589 621.127 361 612.838 361 608C361 593.258 363.216 576.558 360.852 562.019C360.078 557.261 354.429 555.649 350.318 557.742M645 624C648.353 624 653.654 624.93 655.821 621.682C658.129 618.224 657 611.952 657 608L657 573C657 569.325 658.425 561.772 655.972 558.742C653.457 555.636 646.537 556.867 644.893 560.279C642.371 565.515 644 574.308 644 580L644 598C644 606.658 643.414 615.459 645 624z"/>
<path style="fill:#726553; stroke:none;" d="M657 558L656 623L657 623C661.017 609.411 658 591.173 658 577C658 571.113 659.292 563.462 657 558M347 559L347 622L348 622L348 579L347 559z"/>
<path style="fill:#a08b73; stroke:none;" d="M346 560L346 622L347 622L347 580L346 560z"/>
<path style="fill:#87755f; stroke:none;" d="M361 560L361 621L362 621L362 580L361 560M550 591C555.123 621.138 564 648.876 564 680L554 680L554 665L553 665L554 684L552 684C553.454 689.211 564.663 695.586 567.303 687.852C568.724 683.689 566 675.667 566 671C565.999 651.48 563.307 632.095 559.041 613.089C557.593 606.641 555.856 594.691 550 591z"/>
<path style="fill:#c5b59f; stroke:none;" d="M610 624C610.041 619.081 612.476 610.803 608.987 606.603C607.048 604.27 602.671 605.001 600 605C593.197 604.997 575.602 601.4 570.603 606.589C568.961 608.293 569.083 610.814 568.835 613C567.086 628.374 580.51 625 592 625C598.11 625 603.944 624.765 610 624z"/>
<path style="fill:#726553; stroke:none;" d="M350 624L350 625L358 625L350 624M646 624L646 625L654 625L646 624z"/>
<path style="fill:#a08b73; stroke:none;" d="M392 653C392 648.325 393.713 639.416 390.972 635.434C389.056 632.65 384.951 633.016 382 633.001C375.245 632.965 356.961 629.784 351.603 634.028C349.251 635.891 350 640.384 350 643C350 657.612 362.627 654 374 654C380.086 654 385.997 654.114 392 653M642 653C642 648.508 643.906 638.369 640.972 634.742C639.054 632.372 634.673 633.004 632 633C625.288 632.989 605.498 629.672 600.604 634.603C598.18 637.046 599.549 641.041 599.83 644C601.207 658.467 610.905 654 623 654C629.434 654 635.61 653.504 642 653M363 679C363 674.155 364.794 664.534 361.142 660.742C358.941 658.457 354.866 659.005 352 659C345.388 658.989 327.559 655.891 322.603 660.742C320.53 662.772 321.004 666.371 321 669C320.977 683.615 333.645 680 345 680C351.086 680 356.997 680.114 363 679z"/>
<path style="fill:#897f6f; stroke:none;" d="M566 659L566 682L567 682L566 659z"/>
<path style="fill:#a08b73; stroke:none;" d="M573 679L617 679C617 674.37 618.916 664.122 615.397 660.603C613.141 658.348 608.886 659.001 606 659C599.416 658.997 580.435 655.772 575.603 660.603C572.36 663.847 573.037 674.576 573 679z"/>
<path style="fill:#463f38; stroke:none;" d="M422 668L422 669L539 669L503 668L422 668z"/>
<path style="fill:#897f6f; stroke:none;" d="M418 671L460 670L542 670C534.121 666.694 521.534 669 513 669L447 669C440.414 669 422.426 665.935 418 671z"/>
<path style="fill:#d6cfc8; stroke:none;" d="M419 670L419 671L504 671C516.258 671 532.599 668.169 544 673C539.875 666.637 520.121 670 513 670L419 670z"/>
<path style="fill:#b6a188; stroke:none;" d="M417 671L412 681L417 671z"/>
<path style="fill:#c5b59f; stroke:none;" d="M545.333 674.667L545.667 675.333L545.333 674.667M547.333 677.667L547.667 678.333L547.333 677.667M548 679L550 682L548 679z"/>
<path style="fill:#897f6f; stroke:none;" d="M403 688L397 690L397 691L407 690C407.114 688.509 407.659 686.509 407.177 685.054C403.901 675.144 389.206 690.473 403 688z"/>
<path style="fill:#a08b73; stroke:none;" d="M410 682L410 688L411 688L410 682z"/>
<path style="fill:#bfb3a3; stroke:none;" d="M550 682L552 685L550 682z"/>
<path style="fill:#a08b73; stroke:none;" d="M280 686L280 687L390 687L390 685L280 686M568 685L568 687L679 687L679 685L568 685z"/>
<path style="fill:#bfb3a3; stroke:none;" d="M552.333 686.667L552.667 687.333L552.333 686.667z"/>
<path style="fill:#c5b59f; stroke:none;" d="M279 687L279 688L355 688L395 689C390.487 683.836 371.735 687 365 687L279 687z"/>
<path style="fill:#bfb3a3; stroke:none;" d="M407 689L407 690L411 689L407 689z"/>
<path style="fill:#d6cfc8; stroke:none;" d="M554 689L566 692L566 691L554 689M398 691L398 692L406 692L398 691M262 697L262 698L268 696L262 697M760 696L760 697L764 696L760 696z"/>
<path style="fill:#c5b59f; stroke:none;" d="M709 699L709 700L717 701L709 699z"/>
<path style="fill:#d6cfc8; stroke:none;" d="M722 702L722 703L741 703L722 702M222 704L222 705L243 705L222 704z"/>
</svg>
