<?xml version="1.0" encoding="UTF-8" standalone="no"?>
<svg
   version="1.2"
   width="220.03241mm"
   height="106.41621mm"
   viewBox="0 0 22003.242 10641.621"
   preserveAspectRatio="xMidYMid"
   fill-rule="evenodd"
   stroke-width="28.222"
   stroke-linejoin="round"
   xml:space="preserve"
   id="svg3956"
   sodipodi:docname="RedGlasses2.svg"
   inkscape:version="1.2.2 (732a01da63, 2022-12-09, custom)"
   xmlns:inkscape="http://www.inkscape.org/namespaces/inkscape"
   xmlns:sodipodi="http://sodipodi.sourceforge.net/DTD/sodipodi-0.dtd"
   xmlns="http://www.w3.org/2000/svg"
   xmlns:svg="http://www.w3.org/2000/svg"
   xmlns:ooo="http://xml.openoffice.org/svg/export"><sodipodi:namedview
   id="namedview3958"
   pagecolor="#ffffff"
   bordercolor="#000000"
   borderopacity="0.25"
   inkscape:showpageshadow="2"
   inkscape:pageopacity="0.0"
   inkscape:pagecheckerboard="0"
   inkscape:deskcolor="#d1d1d1"
   inkscape:document-units="mm"
   showgrid="false"
   inkscape:zoom="1.3815845"
   inkscape:cx="420.53164"
   inkscape:cy="192.17066"
   inkscape:window-width="1850"
   inkscape:window-height="1016"
   inkscape:window-x="0"
   inkscape:window-y="0"
   inkscape:window-maximized="1"
   inkscape:current-layer="svg3956" />
 <defs
   class="ClipPathGroup"
   id="defs3835">
  <clipPath
   id="presentation_clip_path"
   clipPathUnits="userSpaceOnUse">
   <rect
   x="0"
   y="0"
   width="24015"
   height="11950"
   id="rect3829" />
  </clipPath>
  <clipPath
   id="presentation_clip_path_shrink"
   clipPathUnits="userSpaceOnUse">
   <rect
   x="24"
   y="11"
   width="23967"
   height="11927"
   id="rect3832" />
  </clipPath>
 </defs>
 <defs
   class="TextShapeIndex"
   id="defs3839">
  <g
   ooo:slide="id1"
   ooo:id-list="id3 id4 id5 id6 id7 id8 id9 id10 id11 id12"
   id="g3837" />
 </defs>
 <defs
   class="EmbeddedBulletChars"
   id="defs3871">
  <g
   id="bullet-char-template-57356"
   transform="matrix(4.8828125e-4,0,0,-4.8828125e-4,0,0)">
   <path
   d="M 580,1141 1163,571 580,0 -4,571 Z"
   id="path3841" />
  </g>
  <g
   id="bullet-char-template-57354"
   transform="matrix(4.8828125e-4,0,0,-4.8828125e-4,0,0)">
   <path
   d="M 8,1128 H 1137 V 0 H 8 Z"
   id="path3844" />
  </g>
  <g
   id="bullet-char-template-10146"
   transform="matrix(4.8828125e-4,0,0,-4.8828125e-4,0,0)">
   <path
   d="M 174,0 602,739 174,1481 1456,739 Z M 1358,739 309,1346 659,739 Z"
   id="path3847" />
  </g>
  <g
   id="bullet-char-template-10132"
   transform="matrix(4.8828125e-4,0,0,-4.8828125e-4,0,0)">
   <path
   d="M 2015,739 1276,0 H 717 l 543,543 H 174 v 393 h 1086 l -543,545 h 557 z"
   id="path3850" />
  </g>
  <g
   id="bullet-char-template-10007"
   transform="matrix(4.8828125e-4,0,0,-4.8828125e-4,0,0)">
   <path
   d="m 0,-2 c -7,16 -16,29 -25,39 l 381,530 c -94,256 -141,385 -141,387 0,25 13,38 40,38 9,0 21,-2 34,-5 21,4 42,12 65,25 l 27,-13 111,-251 280,301 64,-25 24,25 c 21,-10 41,-24 62,-43 C 886,937 835,863 770,784 769,783 710,716 594,584 L 774,223 c 0,-27 -21,-55 -63,-84 l 16,-20 C 717,90 699,76 672,76 641,76 570,178 457,381 L 164,-76 c -22,-34 -53,-51 -92,-51 -42,0 -63,17 -64,51 -7,9 -10,24 -10,44 0,9 1,19 2,30 z"
   id="path3853" />
  </g>
  <g
   id="bullet-char-template-10004"
   transform="matrix(4.8828125e-4,0,0,-4.8828125e-4,0,0)">
   <path
   d="M 285,-33 C 182,-33 111,30 74,156 52,228 41,333 41,471 c 0,78 14,145 41,201 34,71 87,106 158,106 53,0 88,-31 106,-94 l 23,-176 c 8,-64 28,-97 59,-98 l 735,706 c 11,11 33,17 66,17 42,0 63,-15 63,-46 V 965 c 0,-36 -10,-64 -30,-84 L 442,47 C 390,-6 338,-33 285,-33 Z"
   id="path3856" />
  </g>
  <g
   id="bullet-char-template-9679"
   transform="matrix(4.8828125e-4,0,0,-4.8828125e-4,0,0)">
   <path
   d="M 813,0 C 632,0 489,54 383,161 276,268 223,411 223,592 c 0,181 53,324 160,431 106,107 249,161 430,161 179,0 323,-54 432,-161 108,-107 162,-251 162,-431 0,-180 -54,-324 -162,-431 C 1136,54 992,0 813,0 Z"
   id="path3859" />
  </g>
  <g
   id="bullet-char-template-8226"
   transform="matrix(4.8828125e-4,0,0,-4.8828125e-4,0,0)">
   <path
   d="m 346,457 c -73,0 -137,26 -191,78 -54,51 -81,114 -81,188 0,73 27,136 81,188 54,52 118,78 191,78 73,0 134,-26 185,-79 51,-51 77,-114 77,-187 0,-75 -25,-137 -76,-188 -50,-52 -112,-78 -186,-78 z"
   id="path3862" />
  </g>
  <g
   id="bullet-char-template-8211"
   transform="matrix(4.8828125e-4,0,0,-4.8828125e-4,0,0)">
   <path
   d="M -4,459 H 1135 V 606 H -4 Z"
   id="path3865" />
  </g>
  <g
   id="bullet-char-template-61548"
   transform="matrix(4.8828125e-4,0,0,-4.8828125e-4,0,0)">
   <path
   d="m 173,740 c 0,163 58,303 173,419 116,115 255,173 419,173 163,0 302,-58 418,-173 116,-116 174,-256 174,-419 0,-163 -58,-303 -174,-418 C 1067,206 928,148 765,148 601,148 462,206 346,322 231,437 173,577 173,740 Z"
   id="path3868" />
  </g>
 </defs>
 
 
<g
   inkscape:groupmode="layer"
   id="layer10"
   inkscape:label="Layer 1"
   transform="translate(-879.89515,-894.56113)"
   style="display:inline"><path
     fill="#000000"
     stroke="none"
     d="m 9740,4437 c 107,-29 182,-54 166,-55 -92,-7 -2228,-458 -2996,-631 -500,-114 -905,-203 -900,-198 5,4 128,101 273,217 284,223 516,480 617,680 35,68 67,129 72,134 5,6 67,-29 138,-77 343,-232 1114,-128 1488,202 95,83 195,142 232,136 35,-6 64,8 64,31 0,22 65,-18 146,-90 80,-73 226,-169 326,-215 99,-45 268,-106 374,-134 z m 3796,7048 C 12133,11206 10603,10128 9643,8744 9065,7910 8647,6774 8647,6037 c 0,-270 -4,-285 -88,-317 -81,-30 -88,-51 -88,-247 0,-391 -148,-579 -553,-704 -474,-147 -612,-82 -612,289 0,174 -13,216 -88,281 -72,63 -88,108 -88,258 0,99 -17,271 -37,381 -20,110 -42,284 -48,385 -15,262 -298,914 -486,1121 -52,57 -165,196 -252,308 -363,473 -813,809 -1311,983 -242,85 -338,99 -670,100 -419,1 -632,-50 -935,-222 C 2684,8252 2032,7375 1643,6300 1510,5932 1335,5262 1294,4960 1266,4754 1255,4735 1123,4651 937,4532 808,4185 924,4114 c 20,-13 51,-60 68,-105 21,-54 66,-87 131,-94 95,-11 100,-22 139,-294 78,-547 170,-775 396,-979 225,-204 445,-251 1061,-227 513,20 775,69 1399,264 l 216,68 578,-245 c 318,-134 1005,-418 1528,-630 522,-211 983,-414 1023,-450 151,-135 1105,-457 1510,-509 376,-48 766,-1 1054,126 107,47 478,253 827,458 348,204 870,504 1160,666 617,345 678,411 565,620 -105,195 -271,292 -501,292 -104,0 -222,-17 -260,-38 -39,-20 -320,-287 -624,-593 C 9878,1122 9455,1014 7980,1619 c -199,82 -329,115 -394,102 -94,-18 -952,316 -2441,951 l -486,207 186,83 c 102,46 250,88 327,94 78,7 411,76 741,154 578,137 1747,399 2593,582 223,49 786,163 1252,254 466,91 882,188 925,215 48,29 178,48 335,48 1374,1 3223,395 4242,906 930,466 1364,1070 1549,2161 63,373 96,403 409,374 589,-56 568,-47 940,-373 1690,-1477 3434,-3097 3434,-3188 0,-75 246,-319 660,-655 581,-472 746,-263 556,705 -51,261 -104,483 -116,493 -13,10 -54,78 -91,151 -54,106 -87,132 -168,132 -97,0 -100,-6 -100,-177 0,-97 40,-345 89,-552 48,-206 82,-382 74,-389 -7,-8 -146,113 -307,270 -161,156 -321,283 -355,283 -34,0 -488,400 -1007,888 -520,487 -1371,1268 -1890,1736 -833,749 -947,865 -965,975 -11,69 -46,160 -78,203 -81,107 -396,195 -711,199 l -265,3 -39,442 c -117,1304 -494,1972 -1351,2398 -374,185 -688,246 -1252,242 -274,-2 -607,-25 -740,-51 z"
     id="path3880"
     style="display:inline"
     transform="translate(8.1995854e-6)" /><path
     fill="#ff0000"
     stroke="none"
     d="m 16551,10060 c 279,-742 335,-1637 168,-2700 -222,-1415 -1080,-2128 -3182,-2644 -1002,-246 -2358,-394 -2820,-307 -120,22 -364,49 -542,60 -477,28 -812,155 -1094,415 -184,170 -297,371 -269,479 11,41 0,100 -25,129 -75,91 -86,670 -19,1006 137,679 520,1561 945,2175 961,1385 2490,2462 3893,2741 378,75 1043,68 1364,-14 754,-192 1334,-685 1581,-1340 z"
     id="path3887" /><path
     fill="#ff0000"
     stroke="none"
     d="m 6237,7722 c 86,-113 200,-252 252,-309 173,-191 470,-855 461,-1032 -4,-63 21,-242 54,-397 48,-221 56,-368 37,-687 -22,-371 -35,-428 -153,-668 -154,-313 -533,-716 -905,-962 -256,-169 -867,-486 -936,-486 -22,0 -81,-32 -130,-71 -50,-39 -169,-94 -267,-123 -98,-29 -212,-76 -254,-103 -82,-54 -492,-185 -952,-304 -407,-105 -1101,-133 -1370,-55 -496,144 -710,552 -753,1439 -25,513 17,898 166,1509 440,1798 1456,3113 2574,3328 193,37 595,-9 866,-100 490,-165 944,-504 1310,-979 z"
     id="path3894" /><path
     fill="#ffff00"
     stroke="none"
     d="m 17906,7970 c 30,-115 154,-241 846,-862 1112,-997 2884,-2661 2860,-2685 -24,-24 -1,-44 -919,807 -810,749 -1525,1395 -2303,2077 -561,492 -507,468 -1184,516 l -313,22 22,105 c 11,59 21,175 21,258 0,139 8,154 97,168 138,23 315,3 538,-61 211,-60 279,-130 335,-345 z"
     id="path3901" /><path
     fill="#ffff00"
     stroke="none"
     d="m 8701,5092 c 24,-107 13,-129 -150,-286 -229,-221 -547,-336 -927,-337 -206,-1 -292,15 -388,73 -117,69 -123,83 -116,247 4,95 18,243 30,329 29,211 85,120 85,-139 1,-287 60,-352 317,-352 259,0 634,114 781,237 147,125 208,279 208,532 0,114 11,218 25,232 36,35 87,-111 98,-278 6,-78 22,-194 37,-258 z"
     id="path3908" /><path
     fill="#e8a202"
     stroke="none"
     d="m 22779,3678 c -12,-257 -17,-269 -102,-279 -64,-8 -149,37 -296,157 -373,302 -682,590 -703,655 -19,61 54,169 115,169 17,0 180,-144 362,-318 182,-175 360,-317 397,-317 77,0 74,32 -65,626 -126,545 -102,745 53,423 139,-289 254,-824 239,-1116 z"
     id="path3915" /><path
     fill="#ffff00"
     stroke="none"
     d="m 1150,3992 c -30,0 -64,28 -76,62 -12,34 -45,88 -73,121 -30,35 -41,88 -27,132 22,70 185,285 215,285 8,0 15,-135 15,-300 0,-246 -10,-300 -54,-300 z"
     id="path3922" /><path
     fill="#ffff00"
     stroke="none"
     d="m 10492,4315 c 39,-16 -269,-91 -794,-195 -471,-93 -1040,-209 -1263,-257 -794,-172 -1684,-370 -2287,-511 -336,-78 -619,-135 -628,-126 -9,10 52,55 136,102 147,82 1178,332 2656,644 330,69 853,180 1164,246 549,116 886,148 1016,97 z"
     id="path3929" /><path
     fill="#e8a202"
     stroke="none"
     d="m 12506,2590 c -22,-34 -276,-194 -564,-356 -289,-162 -811,-462 -1159,-667 -757,-445 -931,-525 -1256,-578 -330,-55 -674,-5 -1198,175 -747,255 -813,289 -786,393 27,104 85,106 312,11 414,-172 907,-325 1178,-365 730,-106 1211,146 2230,1169 304,305 582,572 617,592 110,64 310,46 437,-40 158,-107 240,-251 189,-334 z"
     id="path3936" /><path
     fill="#ffff00"
     stroke="none"
     d="m 5090,2596 c 297,-128 930,-391 1405,-585 765,-313 993,-418 906,-418 -33,0 -1308,515 -2202,889 -374,156 -679,298 -679,315 0,45 -18,51 570,-201 z"
     id="path3943" /></g></svg>
