<?xml version="1.0" encoding="UTF-8" standalone="no"?>
<svg xmlns:rdf="http://www.w3.org/1999/02/22-rdf-syntax-ns#" xmlns="http://www.w3.org/2000/svg" height="1363.1" viewBox="0 0 827.8125 1363.125" width="827.81" version="1.1" xmlns:cc="http://creativecommons.org/ns#" xmlns:dc="http://purl.org/dc/elements/1.1/">
<path d="m299.03 1360.7c-1.1969-3.1481-3.8363-17.446-4.2237-22.879-0.16541-2.3203-0.72489-5.9062-1.2433-7.9687-3.131-12.457-4.8585-20.933-6.2096-30.469-0.84016-5.9297-2.1349-13.955-2.8773-17.834-0.74234-3.879-1.3543-8.5196-1.3598-10.312-0.006-1.7929-0.61941-5.2677-1.364-7.7217-0.74464-2.4541-2.0383-9.8369-2.8748-16.406-0.83648-6.5695-3.6072-23.124-6.1572-36.788s-4.8065-26.109-5.0145-27.656c-0.43754-3.2542-2.6817-16.883-4.7855-29.062-0.80159-4.6407-2.6885-14.344-4.1932-21.562-1.5047-7.2188-3.4005-17.766-4.2129-23.438-0.81243-5.6719-2.0604-12.844-2.7734-15.938-2.5225-10.947-3.3184-15.078-4.245-22.031-0.51532-3.8672-2.4256-14.836-4.245-24.375-4.5015-23.601-16.559-89.9-20.631-113.44-1.8284-10.57-4.1448-23.859-5.1476-29.531-1.0027-5.6719-2.2549-13.477-2.7827-17.344-1.0556-7.7344-3.9982-23.89-9.3918-51.562-0.95474-4.8984-1.987-11.227-2.2939-14.062-0.30693-2.8359-1.1938-8.5312-1.9708-12.656-4.0615-21.562-7.2512-39.097-8.1004-44.531-0.52376-3.3516-3.6764-21.7-7.006-40.774-3.3295-19.074-6.1885-36.371-6.3532-38.438-0.16474-2.0667-0.95534-7.3435-1.7569-11.726-24.054-131.53-40.303-222.43-40.221-225 0.0575-1.8047-10.224-62.474-22.847-134.82-12.62-72.38-23.501-135.66-24.182-140.66-1.212-8.88-3.206-19.67-7.658-41.43-2.309-11.28-5.669-32.393-6.938-43.591-0.409-3.61-1.234-7.803-1.835-9.318-0.6-1.516-2.108-9.957-3.352-18.759s-2.936-17.898-3.76-20.213c-0.825-2.316-1.844-8.007-2.267-12.648-0.422-4.64-1.241-9.625-1.82-11.076-2.651-6.6439-0.717-15.597 3.055-14.149 1.537 0.5899 1.829 1.4131 2.951 8.3278 0.333 2.0502 1.629 6.9692 2.881 10.931 1.2516 3.9619 2.6736 11.355 3.16 16.429 0.48644 5.0739 1.2951 10.491 1.797 12.038 0.50189 1.5469 1.5666 7.2422 2.366 12.656 0.79944 5.4141 1.9043 12.797 2.4552 16.406 0.55092 3.6094 1.4162 9.7266 1.9228 13.594 0.50663 3.8672 1.3086 8.2969 1.7821 9.8438 0.7868 2.5702 3.3509 18.081 5.5017 33.281 1.6982 12.001 4.038 25.923 5.7511 34.219 0.9583 4.6406 2.8262 15.398 4.151 23.906 1.3247 8.5078 11.845 69.68 23.379 135.94 11.534 66.258 21.038 121.95 21.121 123.75 0.14889 3.2307 3.8374 26 5.6951 35.156 0.52308 2.5781 2.0005 10.594 3.2831 17.812 1.2826 7.2188 2.7672 15.234 3.299 17.812 0.53184 2.5781 2.0029 10.682 3.269 18.009 1.2661 7.3268 2.9234 15.553 3.6828 18.281 0.7594 2.7279 1.6455 7.2802 1.9691 10.116 0.32363 2.8359 1.3647 9.1641 2.3136 14.062 0.94885 4.8984 2.2021 11.648 2.785 15 0.58289 3.3516 4.5889 25.711 8.9023 49.688s8.0766 46.336 8.3627 49.688c0.2861 3.3516 6.0471 37.312 12.802 75.469 6.7551 38.156 13.318 75.281 14.584 82.5 1.2661 7.2188 3.6084 20.508 5.2052 29.531 1.5968 9.0234 3.2346 18.305 3.6396 20.625 0.40498 2.3203 1.6196 10.26 2.699 17.644 1.0795 7.384 3.0715 18.564 4.4267 24.844s2.8148 14.16 3.2435 17.512c0.42875 3.3516 1.4357 9.2578 2.2376 13.125 0.80193 3.8672 2.5381 12.938 3.8582 20.156 3.2728 17.897 3.5097 19.214 6.9134 38.438 1.6434 9.2812 4.426 24.469 6.1836 33.75 1.7576 9.2812 3.4227 18.141 3.7002 19.688 0.27748 1.5468 4.1348 22.641 8.5719 46.875 4.437 24.234 8.1919 45.75 8.3441 47.812 0.15223 2.0625 4.7084 26.953 10.125 55.312 5.4164 28.359 10.534 56.625 11.372 62.812 0.83808 6.1875 1.9108 13.148 2.3838 15.469 4.2025 20.614 6.9147 38.817 6.205 41.645-0.8527 3.3975-4.9362 3.387-6.23-0.016zm-79.663-10.71c-1.0715-2.0021-5.0547-22.207-6.0954-30.919-0.87404-7.3166-5.0896-32.651-6.0838-36.562-0.45875-1.8047-1.2851-6.4453-1.8364-10.312-0.55128-3.8672-2.9188-18.422-5.2611-32.344s-4.6401-27.844-5.1063-30.938c-0.47-3.1-11.23-67.8-23.91-143.9-12.69-76.05-23.24-140.48-23.45-143.17-0.39-4.81-1.84-13.66-8.52-51.83-1.8502-10.57-3.7234-21.75-4.1627-24.844-0.43933-3.0938-4.8416-29.25-9.7827-58.125-4.9412-28.875-9.1623-55.031-9.3804-58.125-0.21802-3.0938-1.4795-11.058-2.8033-17.698s-2.6236-14.445-2.8886-17.344c-0.26493-2.8991-1.1095-7.3804-1.8769-9.9586-0.76735-2.5781-2.0352-10.172-2.8174-16.875-0.78222-6.7031-2.2367-16.406-3.2321-21.562-0.99546-5.1562-3.0676-16.969-4.6048-26.25-1.5372-9.2812-3.6557-22.043-4.7079-28.359-1.0522-6.3164-2.7649-16.652-3.8061-22.969-1.0412-6.3164-5.8763-35.531-10.745-64.922-4.872-29.4-10.38-62.73-12.244-74.07-1.864-11.35-3.99-22.71-4.724-25.25s-1.335-5.96-1.335-7.6-8.872-54.61-19.716-117.72-19.893-116.43-20.109-118.5c-0.216-2.06-0.829-6.28-1.363-9.37-1.25-7.24-3.457-21.04-5.171-32.35-1.965-12.95-4.9936-30.094-7.1195-40.308-1.0196-4.898-2.5053-13.757-3.3017-19.687-0.7963-5.93-1.9019-12.325-2.4568-14.212-1.6836-5.725 0.5092-10.117 4.3208-8.655 2.2933 0.88003 6.0548 16.799 8.0611 34.117 0.56752 4.8984 1.8466 13.547 2.8424 19.219 0.9958 5.6719 2.2508 13.266 2.7889 16.875 0.53812 3.6094 1.8071 10.908 2.8199 16.219 1.0128 5.3113 1.8488 11.639 1.8577 14.062 0.009 2.423 0.65436 7.3587 1.4342 10.968 0.77987 3.6094 1.8267 9.3047 2.3262 12.656 3.1261 20.973 2.8955 19.596 27.637 165 11.976 70.383 22.259 131.34 22.85 135.47 0.59131 4.125 4.2205 26.062 8.0648 48.75 16.769 98.964 38.68 230.78 38.646 232.5-0.0479 2.475 1.8205 14.284 3.5598 22.5 0.7641 3.6094 2.025 9.5989 2.8019 13.31 0.77694 3.7112 1.4214 8.3518 1.4322 10.312 0.0108 1.9607 0.6399 6.3071 1.3981 9.6587 2.6216 11.588 5.3793 27.039 8.3666 46.875 3.0566 20.297 5.0851 32.738 7.0312 43.125 2.469 13.178 5.7311 34.953 5.3007 35.384-0.26338 0.26338 0.16387 1.7218 0.94945 3.2409 0.7933 1.5341 1.2041 3.8779 0.92396 5.2718-0.51836 2.5794 0.90613 10.473 3.6526 20.241 0.85734 3.0491 1.3293 6.4216 1.0487 7.4944-0.55013 2.1038 7.1216 49.547 9.2614 57.274 0.71394 2.5782 1.7726 8.4844 2.3526 13.125 0.58001 4.6406 1.6627 10.245 2.406 12.454 0.74329 2.2095 1.3514 6.2698 1.3514 9.0228 0 2.7532 0.63281 6.7992 1.4062 8.9914 0.77344 2.1922 1.4128 5.9366 1.4209 8.321 0.008 2.3844 0.67783 6.8665 1.4884 9.9603 0.81055 3.0937 2.302 10.476 3.3143 16.406 1.0123 5.9297 3.3462 19.219 5.1863 29.531s3.9102 24.023 4.6001 30.469c0.6899 6.4453 1.9299 15.938 2.7556 21.094 0.82566 5.1562 1.9245 12.328 2.4419 15.938 0.5174 3.6093 1.7752 9.8392 2.795 13.844 1.0198 4.0049 2.2428 11.599 2.7176 16.875 0.47481 5.2763 1.2832 11.492 1.7965 13.812 0.51328 2.3203 1.5547 6.9609 2.3142 10.312 2.4156 10.659 5.2419 27.363 6.1865 36.562 0.50294 4.8984 1.7665 11.85 2.808 15.448 1.0414 3.5982 1.8935 8.8801 1.8935 11.738 0 2.8574 0.80842 8.14 1.7965 11.739 2.9913 10.896 5.0727 26.25 3.8645 28.508-1.3256 2.4768-4.3575 2.5028-5.6709 0.049zm524.23-7.1908c-3.4698-1.3849-5.4519-10.193-16.626-73.884-0.9046-5.1563-2.0033-9.8457-2.4416-10.421-0.83052-1.0901-17.454-2.3708-53.277-4.1046-11.086-0.5366-23.531-1.158-27.656-1.381s-20.578-1.0599-36.562-1.8599-33.914-1.8964-39.844-2.4365c-12.521-1.1404-19.877-1.5871-37.969-2.3055-7.2188-0.2867-19.242-0.9152-26.719-1.3967-13.614-0.8768-29.053-1.5703-94.688-4.2528-19.336-0.7903-41.062-1.9233-48.281-2.5179-7.2188-0.5946-18.609-1.1645-25.312-1.2664-6.7031-0.102-14.044-0.6892-16.312-1.305-3.4726-0.9425-4.7692-0.8734-8.2031 0.4381-4.6679 1.7827-4.7671 2.2059-2.7162 11.581 5.8198 26.603 9.7072 53.736 8.0696 56.324-2.2837 3.609-6.1066-5.7891-8.3651-20.565-0.59113-3.8672-2.3294-13.57-3.8628-21.562-4.7224-24.614-12.122-65.842-12.704-70.781-0.30374-2.5782-1.4093-8.9063-2.4569-14.062-1.0475-5.1563-2.3036-11.656-2.7913-14.445-0.48769-2.7886-1.0681-5.3636-1.2898-5.7224-0.22171-0.3586-1.4516-6.7256-2.7331-14.149-1.2815-7.423-3.2024-18.001-4.2688-23.506-1.0663-5.5053-2.107-11.622-2.3127-13.594-1.1595-11.113-3.766-26.162-5.751-33.205-1.2492-4.4321-2.2743-9.2837-2.2779-10.781-0.004-1.4975-0.88437-6.3088-1.9572-10.692-1.0729-4.3828-2.5306-11.977-3.2394-16.875-0.70879-4.8984-2.1459-13.758-3.1936-19.688-1.0477-5.9297-1.9062-11.836-1.9079-13.125-0.004-2.7209-0.21957-3.7455-8.999-42.656-0.69804-3.0938-1.7292-9-2.2915-13.125s-1.8088-10.664-2.77-14.531c-0.96121-3.8672-2.1752-10.406-2.6976-14.531-1.632-12.885-3.9321-26.975-5.2799-32.344-0.71196-2.8359-1.7535-8.5312-2.3145-12.656-0.561-4.125-1.6462-10.242-2.4115-13.594-0.76531-3.3516-1.7891-9.0469-2.2751-12.656-1.0785-8.0096-4.6515-27.727-5.1792-28.58-0.46712-0.75582-2.2526-11.111-2.9121-16.888-0.26484-2.3203-1.0703-6.75-1.79-9.8438-0.71964-3.0938-1.7502-8.6542-2.29-12.357-0.53989-3.7024-1.3631-7.735-1.8294-8.9615s-1.3211-5.5801-1.8995-9.6747c-0.57844-4.0946-1.8766-12.085-2.8849-17.757-1.0083-5.6719-3.7902-21.703-6.1821-35.625s-5.5243-30.586-6.9609-37.031c-1.4366-6.4453-2.8894-15.094-3.2284-19.219-0.33902-4.125-1.6385-12.984-2.8878-19.688-1.2492-6.7031-3.3677-18.265-4.7076-25.692-1.34-7.4277-2.8228-14.522-3.2952-15.764-0.47243-1.2426-0.85339-3.392-0.84658-4.7764 0.007-1.3844-1.4782-10.322-3.3001-19.861-8.4219-44.096-23.954-129.75-24.34-134.23-0.23648-2.7419-1.3138-9.626-2.394-15.298-4.6038-24.174-42.282-229.82-42.669-232.88-1.2849-10.179-5.5148-30.819-9.0199-44.013-1.0184-3.8336-1.5805-8.0427-1.2655-9.4769 0.31471-1.4328-0.05419-4.2023-0.82952-6.2282-1.677-4.36-4.325-19.78-4.325-25.143 0-2.1039-0.43651-5.2991-0.97002-7.1004-2.543-8.585-5.198-23.552-6.153-34.682-0.2433-2.8359-1.2301-7.8984-2.1928-11.25-4.5587-15.87-4.4622-22.5 0.32733-22.5 3.9346 0 6.0242 6.2754 8.1164 24.375 0.88469 7.6535 1.2641 9.7456 5.4404 30 1.5416 7.4766 3.2664 16.758 3.8329 20.625 4.1273 28.176 5.9138 30.734 21.598 30.932 4.3828 0.0553 12.398 0.46007 17.812 0.89938 10.612 0.86107 56.077 4.0932 79.688 5.6649 46.47 3.0936 42.791 2.8589 96.562 6.16 13.148 0.8072 29.391 1.8308 36.094 2.2747 6.7031 0.44388 19.254 1.2597 27.891 1.8129 25.016 1.6023 46.19 3.0123 58.828 3.9173 52.282 3.7438 63.45 2.6028 61.984-6.3319-1.9053-11.607-7.6526-42.309-8.9241-47.673-2.0876-8.807-3.2322-15.388-3.9136-22.5-0.3458-3.6094-1.5791-9.1116-2.7407-12.227-4.31-11.582-4.15-17.304 0.51-17.304 3.6881 0 4.4732 1.8185 5.9649 13.816 0.69 5.5496 1.9249 11.679 2.7442 13.62 0.81932 1.9416 2.5509 9.3244 3.8479 16.406 1.297 7.0818 2.9777 15.829 3.7348 19.439 0.7571 3.6094 2.2795 11.203 3.3832 16.875 5.9775 30.72 4.2456 28.526 23.334 29.558 23.923 1.293 29.149 5.2733 29.149 22.202 0 15.067-7.7809 21.953-23.879 21.131-10.101-0.51551-13.364 0.62971-12.304 4.3174 0.24378 0.84801 0.71681 4.495 1.0512 8.1043 0.62625 6.7603 22.259 118.08 26.283 135.26 1.2415 5.2977 3.1092 14.368 4.1504 20.156 5.0332 27.982 5.6696 28.805 22.251 28.805 17.638 0 19.87 1.1545 24.134 12.482 2.7534 7.315 2.9768 12.336 0.86562 19.457-3.761 12.686-5.8436 14.292-18.419 14.204-10.531-0.0738-10.859 0.23742-10.331 9.8034 0.4409 7.9873 15.427 90.301 17.55 96.398 0.71827 2.0625 1.5958 6.7031 1.9502 10.312 0.77379 7.8822 5.495 32.683 6.9273 36.389 0.56093 1.4515 1.0199 4.224 1.0199 6.1611s0.58703 5.3901 1.3045 7.6733c0.71749 2.2833 1.8088 6.6826 2.4251 9.7764 6.3245 31.747 7.9054 38.354 9.5781 40.027 1.4546 1.4546 3.3705 1.6919 13.645 1.6898 24.428-0.005 34.231 6.0364 34.231 21.096 0 13.49-8.6506 20.695-26.028 21.678-12.619 0.71435-11.999 0.27299-11.435 8.1304 0.54082 7.5338 2.657 21.169 4.8312 31.129 0.7879 3.6094 2.2939 12.047 3.3466 18.75 1.0527 6.7031 2.5793 14.508 3.3923 17.344 0.81302 2.8359 1.8045 7.2656 2.2033 9.8438 1.5191 9.8202 4.8521 26.511 6.5523 32.812 0.97384 3.6094 2.0222 8.4609 2.3297 10.781 0.30751 2.3203 1.3684 7.8047 2.3575 12.188 0.98911 4.3828 2.2723 10.5 2.8515 13.594 0.57922 3.0938 2.2834 11.109 3.787 17.812 3.8894 17.338 5.2093 23.807 7.4605 36.562 6.5973 37.381 5.3977 35.533 22.774 35.087 23.824-0.61078 30.689 3.5168 31.963 19.218 0.94373 11.631-1.126 15.606-12.241 23.507-3.9658 2.8193-6.2115 3.1912-13.639 2.2586-9.3257-1.1709-10.129-0.80044-10.129 4.6726 0 5.2848 2.4766 23.744 3.724 27.756 0.48091 1.5469 1.2859 5.7657 1.7889 9.3751 0.50301 3.6093 2.2195 12.68 3.8145 20.156 4.2584 19.961 14.881 71.55 16.408 79.688 0.7259 3.8672 2.2186 11.039 3.3171 15.938 1.0985 4.8984 2.4063 11.016 2.9062 13.594 0.4999 2.5781 2.5786 13.01 4.6194 23.181s3.8882 19.926 4.1055 21.678c1.2506 10.083 3.736 11.284 24.545 11.86 19.706 0.5451 21.514 1.2267 27.92 10.528 7.3837 10.721 7.0574 21.739-0.87873 29.675l-5.0596 5.0596-5.8708-0.6258c-17.769-1.8941-29.777-1.8635-29.777 0.076 0 3.1891 4.5724 26.58 7.0201 35.912 3.4343 13.094 7.4682 32.367 8.4639 40.439 0.45311 3.6731-1.1172 7.982-2.6603 7.2998-0.0921-0.04-0.72983-0.2985-1.4172-0.5729zm22.324-95.436c4.7997-2.4821 4.8066-7.7849 0.0188-14.394-3.3815-4.668-5.9429-5.4528-20.155-6.1751-6.1875-0.3144-16.523-1.0107-22.969-1.5472-6.4453-0.5365-18.891-1.3259-27.656-1.7543-26.726-1.3057-64.179-3.726-73.662-4.7603-4.9362-0.5383-9.635-0.7254-10.442-0.4158-0.80689 0.3097-8.5807-0.1052-17.275-0.9218-8.6944-0.8168-22.407-1.6342-30.471-1.8165-8.0648-0.1825-15.052-0.5721-15.528-0.8661-0.47558-0.2939-10.752-0.8151-22.837-1.1583-12.085-0.3431-22.379-0.8695-22.876-1.1697-0.49707-0.3002-9.1455-0.6928-19.219-0.8724-10.073-0.1796-25.698-0.9386-34.721-1.6865-9.0234-0.7479-23.156-1.5432-31.406-1.7673-8.25-0.224-21.328-0.8524-29.062-1.3964-12.429-0.8741-44.125-2.741-57.188-3.3684-2.5781-0.1239-10.434-0.5394-17.457-0.9234-15.291-0.8364-14.59-1.4565-12.413 10.983 2.2451 12.827 1.7832 12.493 18.243 13.204 7.4263 0.3208 24.893 1.2535 38.815 2.0726 33.82 1.9898 47.737 2.7589 90.938 5.0255 20.109 1.055 38.039 2.1304 39.844 2.3896 1.8047 0.2591 9.8203 0.7041 17.812 0.9888 7.9922 0.2846 18.961 0.909 24.375 1.3875 5.4141 0.4785 19.758 1.1413 31.875 1.4728 12.117 0.3316 26.039 0.7612 30.938 0.9548 4.8984 0.1936 16.078 0.5583 24.844 0.8105 27.417 0.7887 65.057 2.4472 79.219 3.4905 7.4766 0.5508 17.602 1.1952 22.5 1.432 4.8984 0.2368 15.023 0.7612 22.5 1.1653 20.557 1.1112 20.527 1.1117 23.418-0.383zm-53.668-36.338c2.851-3.6463 2.8608-14.343 0.0158-17.188-0.38637-0.3863-0.70249-2.0623-0.70249-3.7243 0-3.6882-3.3049-20.106-5.0848-25.26-0.71231-2.0625-1.8024-7.3359-2.4223-11.719-0.61996-4.3828-2.3485-12.901-3.8413-18.93-1.4928-6.0284-2.7141-12.155-2.7141-13.614 0-1.4593-1.2298-7.4957-2.7329-13.414-1.5031-5.9186-3.0167-13.081-3.3636-15.917-0.34684-2.8359-1.2464-7.3371-1.9991-10.002-0.75268-2.6655-1.7182-6.8842-2.1456-9.375-2.6195-15.265-5.0356-27.991-6.5555-34.529-0.95897-4.125-2.4505-11.086-3.3146-15.469-0.86404-4.3828-2.3642-10.136-3.3337-12.786-0.96951-2.6494-2.6663-8.6656-3.7706-13.37-2.4899-10.606-1.6429-10.152-21.217-11.351-34.595-2.1188-73.043-4.0413-103.44-5.1726-7.9922-0.29747-22.969-0.94163-33.281-1.4316-10.312-0.48994-30.352-1.2979-44.531-1.7955-14.18-0.49763-37.383-1.536-51.562-2.3076-14.18-0.77146-39.07-1.8654-55.312-2.4308-16.242-0.56541-39.228-1.4252-51.081-1.9105-55.13-2.2577-56.869-1.8226-51.665 12.928 0.72449 2.0534 1.6167 6.6415 1.9827 10.196 0.36601 3.5544 1.8932 12.369 3.3936 19.588 3.0055 14.459 5.0603 25.165 6.4776 33.75 0.51077 3.0937 1.5164 8.3671 2.2348 11.719 0.7184 3.3516 1.5692 8.8359 1.8906 12.188 0.32141 3.3516 0.95903 7.7813 1.4169 9.8438 0.45789 2.0625 1.7385 8.3906 2.8459 14.062 1.1073 5.6718 2.7964 13.898 3.7535 18.281 0.95711 4.3828 2.023 10.078 2.3687 12.656 0.34568 2.5781 1.199 7.4296 1.8963 10.781 0.69729 3.3516 3.2415 16.641 5.6539 29.531 5.4931 29.353 0.99732 26.392 43.987 28.972 13.922 0.8356 31.852 1.9438 39.844 2.4629 42.281 2.7459 60.227 3.8458 75.938 4.6546 9.5391 0.4911 23.25 1.3603 30.469 1.9317 7.2188 0.5713 16.5 0.8033 20.625 0.5153s13.617-0.1368 21.094 0.336c17.248 1.0907 32.267 1.9433 41.25 2.3418 19.844 0.88 28.38 1.3937 39.214 2.3598 15.167 1.3525 34.718 2.0172 65 2.2103 13.232 0.084 24.376 0.4698 24.766 0.8565 1.2411 1.2329 16.947 0.8229 17.957-0.4688zm-10.17-237.84c7.6914-9.7111 5.9947-17.874-4.1119-19.783-5.807-1.0967-43.077-3.377-77.344-4.7319-14.18-0.56072-32.659-1.4099-41.066-1.8871-8.4065-0.47718-21.274-1.0859-28.594-1.3527-7.3201-0.26682-18.583-0.90188-25.028-1.4113-6.4453-0.50943-17.203-0.94453-23.906-0.96684-6.7031-0.0225-18.516-0.45291-26.25-0.95691-12.502-0.81459-24.257-1.3686-69.375-3.2697-6.7031-0.28246-18.938-0.93618-27.188-1.4528-17.194-1.0767-109.22-4.6351-119.87-4.6351-9.3238 0-9.6366 0.54263-7.2644 12.602 2.3653 12.023 1.413 11.371 17.676 12.113 7.609 0.34753 20.795 1.0493 29.303 1.5597 17.932 1.0758 44.306 2.4208 73.594 3.7534 11.344 0.51609 27.586 1.3198 36.094 1.786 25.507 1.3978 122.46 5.6962 148.59 6.5878 21.884 0.74663 56.623 2.304 102.19 4.5809 8.7656 0.43809 21.281 0.86025 27.812 0.93825l11.874 0.14175 2.8632-3.6151zm-44.059-32.864c1.7882-1.1324 0.77793-10.975-2.7744-27.03-1.5108-6.8282-2.747-13.886-2.747-15.684s-0.61399-4.8597-1.3644-6.8038c-1.6305-4.2239-7.3423-32.903-8.9195-44.785-0.61598-4.6406-1.9154-11.18-2.8876-14.531-2.0524-7.0757-6.8213-28.865-11.08-50.625-2.2847-11.674-3.1245-16.316-5.7676-31.875-1.0948-6.4453-2.9731-15.094-4.1738-19.219s-3.3326-12.352-4.7374-18.281c-3.5682-15.061-2.0987-14.173-24.978-15.091-10.483-0.4203-25.811-1.1794-34.061-1.6868-8.25-0.50743-26.18-1.1783-39.844-1.4909-26.725-0.61132-134.72-6.0862-165.47-8.3884-10.312-0.77217-33.727-2.0712-52.031-2.8867-18.305-0.81551-40.664-1.9212-49.688-2.4571-22.551-1.3392-41.025-1.412-42.271-0.16652-0.85323 0.85323 24.886 149.12 33.822 194.82 2.1034 10.758 5.4828 29.616 6.5786 36.71 1.6359 10.59 5.0349 12.265 25.307 12.472 4.3828 0.0446 9.6395 0.4686 11.682 0.94209 2.042 0.47348 11.323 0.9081 20.625 0.96581 9.3017 0.0577 22.397 0.50045 29.1 0.98387 6.7031 0.48341 27.164 1.5254 45.469 2.3156 18.305 0.79014 41.086 1.8539 50.625 2.3639 9.5391 0.51002 31.898 1.5715 49.688 2.3588 17.789 0.78734 35.719 1.6244 39.844 1.8601 4.125 0.23572 16.992 0.82577 28.594 1.3112 19.707 0.82462 42.661 1.8904 79.688 3.7 22.178 1.0839 30.288 1.1334 31.771 0.19387zm-16.072-254.44c6.6427-4.9008 8.2242-9.2358 5.3778-14.74-1.7389-3.3626-1.5598-3.3266-22.952-4.616-9.5391-0.57497-21.984-1.4723-27.656-1.9941-8.6212-0.79309-41.462-3.1355-70.781-5.0484-3.8672-0.25232-13.781-0.6473-22.031-0.87772-8.25-0.23043-47.695-2.1379-87.656-4.2388s-84.047-4.2361-97.969-4.7449c-29.993-1.0961-72.705-3.3991-87.242-4.704-29.941-2.6875-33.57-1.7347-32.167 8.4444 2.0847 15.122 0.35328 14.528 49.097 16.852 11.344 0.54091 26.109 1.4007 32.812 1.9107 6.7031 0.50996 15.773 0.92354 20.156 0.91908 4.3828-0.005 13.242 0.4095 19.688 0.91991 6.4453 0.51042 20.578 1.3712 31.406 1.9128 10.828 0.54164 27.281 1.3944 36.562 1.8951 62.717 3.3832 89.341 4.7001 142.97 7.0713 18.305 0.80938 38.977 1.7828 45.938 2.1631 32.754 1.7896 61.171 1.2937 64.449-1.1246zm-42.825-32.553c2.4562-1.3145 2.4307-8.5582-0.0616-17.552-1.0312-3.7214-1.875-7.8973-1.875-9.2797 0-4.8079-30.136-163.03-32.56-170.95-2.9025-9.481-6.1325-17.03-7.8884-18.437-1.2627-1.0113-6.4144-1.2763-59.864-3.0792-32.796-1.1062-50.208-1.7622-74.531-2.808-10.312-0.4434-19.383-0.81598-20.156-0.82795-3.5667-0.0552-92.68-3.9517-110.62-4.8371-50.751-2.5041-124.37-4.718-128.56-3.8662-4.8999 0.99576-4.7415 10.086 0.56518 32.449 0.73415 3.0938 2.4333 12.586 3.776 21.094 1.3426 8.5078 3.4525 20.109 4.6886 25.781 1.2361 5.6719 2.503 12 2.8154 14.062 0.3124 2.0625 2.4246 13.664 4.6937 25.781 2.2692 12.117 6.881 37.404 10.248 56.192 3.3675 18.788 6.4518 34.49 6.854 34.892 1.1667 1.1667 57.395 4.9265 95.385 6.3781 11.344 0.43343 31.172 1.4649 44.062 2.2922 22.207 1.4252 158.08 8.4004 185.16 9.5049 6.9609 0.28401 23.836 1.1364 37.5 1.8942s27.375 1.502 30.469 1.6537c3.0938 0.15171 6.1801 0.35562 6.8585 0.45312 0.67843 0.0975 2.0495-0.25946 3.0469-0.79322zm-12.63-231.3c5.8852-6.244 6.5328-7.9318 5.094-13.275-1.9724-7.3247 1.5413-6.9181-90.023-10.418-37.796-1.4447-86.76-3.6071-95.156-4.2024-4.125-0.29248-21.211-1.156-37.969-1.9188-28.797-1.311-41.944-1.8678-97.969-4.1495-12.891-0.525-38.836-1.6766-57.656-2.5591-64.961-3.0462-61.992-3.6499-59.06 12.009 2.5724 13.738 1.5547 12.986 18.338 13.551 7.7022 0.25929 24.762 1.1076 37.91 1.8853 13.148 0.77761 32.555 1.8058 43.125 2.285 10.57 0.47911 26.391 1.266 35.156 1.7486 8.7656 0.48258 19.945 0.9246 24.844 0.98224 4.8984 0.0577 12.914 0.51193 17.812 1.0095 4.8984 0.49759 24.938 1.3552 44.531 1.9058 19.594 0.55064 45.961 1.4078 58.594 1.9048 12.633 0.49703 32.039 1.1473 43.125 1.445 11.086 0.29771 36.609 1.0747 56.719 1.7267 20.109 0.65197 39.024 1.2473 42.033 1.3229l5.4708 0.13752 5.0808-5.3906zm-38.023-33.552c1.9952-2.404-2.519-27.858-21.774-122.78-4.6024-22.688-9.1124-45.047-10.022-49.688-0.90997-4.6406-2.1481-9.3543-2.7513-10.475-0.60326-1.1206-1.5547-4.1722-2.1143-6.7815-1.3228-6.1678-1.8162-6.2946-29.462-7.5677-11.859-0.54616-28.102-1.4057-36.094-1.91-19.375-1.2227-45.702-2.6246-70.312-3.7443-11.086-0.50436-23.531-1.3222-27.656-1.8174-4.125-0.49521-23.742-1.6053-43.594-2.4669-19.852-0.86156-42.422-1.9102-50.156-2.3304-7.7344-0.42013-30.094-1.4218-49.688-2.2259-19.594-0.80408-37.102-1.6718-38.906-1.9283-30.064-4.2726-52.006-2.3281-51.244 4.5414 1.4942 13.47 2.5461 20.221 3.7475 24.05 0.72816 2.3203 1.6195 6.9609 1.9807 10.312 0.36121 3.3516 1.6971 11.789 2.9686 18.75 1.2715 6.9609 2.9134 16.031 3.6485 20.156 5.4208 30.417 21.984 118.71 22.394 119.37 0.76539 1.2384 21.274 2.5489 97.129 6.2065 16.242 0.78318 36.07 1.8403 44.062 2.3492 7.9922 0.50891 32.039 1.5963 53.438 2.4163 21.398 0.82007 46.711 1.8805 56.25 2.3564 22.618 1.1286 58.131 2.7666 78.75 3.6322 33.085 1.3891 68.075 1.171 69.406-0.43251zm-4.7305-208.32c5.2074-4.7446 3.9929-12.19-2.5394-15.568-3.3831-1.7495-17.826-3.1713-44.323-4.3635-11.602-0.52199-24.469-1.3531-28.594-1.8469-4.125-0.49381-19.734-1.5595-34.688-2.3682-14.953-0.80868-32.461-1.904-38.906-2.4341-6.4453-0.53004-19.945-1.325-30-1.7666-10.055-0.44159-24.188-1.2535-31.406-1.8042-7.2188-0.55073-22.406-1.4279-33.75-1.9492-11.344-0.52133-26.953-1.3562-34.688-1.8553-15.167-0.97864-35.227-2.1559-72.188-4.2363-30.719-1.7291-52.299-3.0741-68.381-4.2622-16.447-1.215-16.976-0.92415-15.436 8.4812 0.54812 3.3457 1.1976 7.4776 1.4432 9.1822 0.97139 6.7401 5.1969 7.4669 55.655 9.5732 22.426 0.93614 64.731 3.1141 89.531 4.6093 15.49 0.93386 28.028 1.6205 87.188 4.7747 19.078 1.0172 45.867 2.4789 59.531 3.2483 51.184 2.8819 97.748 4.7941 122.09 5.0139l16.626 0.1501 2.8296-2.5781zm267.95 1137.6c-2.0629-2.0627-4.7361-13.285-17.679-74.214-14.917-70.224-14.817-69.735-15.884-77.344-0.47025-3.3516-1.5345-9.0469-2.3649-12.656-3.0222-13.136-5.3156-23.617-6.9742-31.875-0.93205-4.6407-2.5632-12.445-3.6248-17.344-1.0616-4.8984-2.5778-12.281-3.3693-16.406-0.79154-4.125-2.0591-10.031-2.8168-13.125-2.7109-11.069-5.178-22.672-7.0765-33.281-1.0611-5.9297-2.382-12.43-2.9354-14.446-0.95383-3.474-5.8924-26.57-8.939-41.804-0.77338-3.8672-2.6647-12.727-4.2029-19.688-1.5382-6.9609-3.2549-14.977-3.815-17.812-0.56004-2.8359-2.6706-12.961-4.69-22.5-2.0195-9.5391-4.0663-19.664-4.5485-22.5-0.48222-2.8359-1.3125-6.6328-1.845-8.4375-0.85787-2.9072-3.4623-17.034-5.6172-30.469-0.41353-2.5781-1.6366-7.8431-2.718-11.7-1.0813-3.8568-1.9661-8.1622-1.9661-9.5675s-1.0146-6.2654-2.2547-10.8c-1.2401-4.5347-2.7618-11.409-3.3816-15.276-0.61977-3.8672-1.6766-9.1406-2.3486-11.719-0.67196-2.5781-1.7241-7.8516-2.3381-11.719-0.61398-3.8672-2.1284-10.98-3.3654-15.806s-2.2491-10.245-2.2491-12.042c0-1.7971-0.80739-6.0751-1.7942-9.5067-2.4665-8.5771-6.2035-25.075-8.1024-35.771-0.86968-4.8984-2.6281-13.547-3.9076-19.219-1.2795-5.6719-2.6832-12.422-3.1193-15-0.43612-2.5781-1.4474-6.7585-2.2472-9.2896-0.79985-2.5312-1.4543-5.8162-1.4543-7.3s-1.0378-7.4285-2.3061-13.21c-2.0377-9.2891-7.4669-35.237-21.619-103.33-16.042-77.18-24.877-118.86-25.362-119.64-0.31105-0.50331-1.157-4.1648-1.8798-8.1367-0.72281-3.9719-2.3587-12.073-3.6352-18.003-1.2766-5.9297-3.6137-17.953-5.1937-26.719-1.5799-8.7656-3.4511-17.836-4.1581-20.156-0.70704-2.3203-1.7889-6.9609-2.4041-10.312-0.6152-3.3516-1.9311-9.8906-2.9242-14.531-0.99313-4.6406-2.4818-11.602-3.3082-15.469-0.82639-3.8672-2.0743-9.5625-2.7731-12.656-0.69884-3.0938-1.6789-9.018-2.1779-13.165-0.49901-4.147-1.3118-8.604-1.8062-9.9042-0.49436-1.3003-1.5963-6.1338-2.4486-10.741-0.85238-4.6074-2.1582-10.457-2.9018-13-0.74361-2.5428-1.352-6.4366-1.352-8.6529s-0.62747-5.6202-1.3944-7.5642c-0.7669-1.944-1.7937-6.2768-2.2817-9.6284-0.99704-6.8473-3.8278-20.146-6.0786-28.556-0.82243-3.0732-1.4921-6.6591-1.4882-7.9688 0.004-1.3096-1.0545-6.5999-2.3521-11.756-3.3065-13.139-8.5619-36.914-11.708-52.969-1.4653-7.4766-3.149-15.914-3.7415-18.75-0.59249-2.8359-1.4714-7.2656-1.9532-9.8438-0.48177-2.5781-2.3032-11.227-4.0476-19.219-2.8319-12.975-3.8957-18.586-5.6958-30.046-0.56389-3.5898 1.2584-7.2738 3.0502-6.1665 1.2008 0.74211 4.8474 12.417 7.6504 24.493 1.0772 4.6406 2.5684 10.969 3.3138 14.062 4.3971 18.249 7.0396 30.776 7.0396 33.372 0 1.6305 0.81743 6.1794 1.8165 10.109 0.99909 3.9292 2.5158 10.941 3.3704 15.582 0.85463 4.6406 1.9292 9.7031 2.3879 11.25 0.45874 1.5469 1.2811 6.1875 1.8275 10.312 1.1875 8.9652 4.3988 24.462 5.5118 26.599 0.43715 0.83928 1.5037 6.1666 2.3701 11.838 0.8664 5.6719 1.7703 11.156 2.0086 12.188 3.5381 15.309 9.9449 47.218 11.67 58.125 0.57104 3.6094 1.808 10.148 2.7488 14.531 0.9408 4.3828 2.8284 14.297 4.1946 22.031 1.3662 7.7344 3.3646 17.227 4.4408 21.094 1.0762 3.8672 2.4689 9.3901 3.0949 12.273 0.62598 2.883 1.3955 5.6583 1.7101 6.1673 0.49605 0.80262 11.53 57.415 13.926 71.447 0.47352 2.7739 1.2658 5.7999 1.7606 6.7245 0.49484 0.9246 11.693 53.288 24.885 116.36 13.192 63.075 25.89 123.75 28.218 134.84 8.9805 42.766 10.732 51.246 11.523 55.781 0.44958 2.5781 1.2048 5.7422 1.6783 7.0312 0.47347 1.2891 2.0126 8.6719 3.4203 16.406 1.4077 7.7344 3.9718 20.391 5.6981 28.125 1.7263 7.7344 3.6057 16.383 4.1766 19.219 0.57083 2.8359 2.2498 10.852 3.7309 17.812 1.4812 6.9609 2.972 14.344 3.3128 16.406 0.34085 2.0625 1.1935 6.2812 1.8948 9.375 0.70127 3.0938 1.7829 8.3672 2.4037 11.719 0.62077 3.3516 1.696 8.2031 2.3895 10.781 0.69344 2.5781 2.3597 10.383 3.7029 17.344 1.3431 6.9609 4.1664 20.25 6.274 29.531 2.1075 9.2812 4.1482 19.064 4.5348 21.739 0.38658 2.6752 1.9908 10.691 3.5648 17.813 6.57 29.725 10.421 47.998 11.322 53.73 0.52721 3.3516 1.7787 9.2578 2.7811 13.125s3.5334 15.68 5.6245 26.25 4.6428 23.016 5.6705 27.656c1.0277 4.6406 2.7614 13.078 3.8527 18.75 1.0913 5.6718 3.4049 16.641 5.1412 24.375 1.7363 7.7343 3.8422 17.438 4.6797 21.562 0.83755 4.125 2.1084 9.8203 2.8242 12.656 2.0278 8.0342 6.7611 32.488 7.8661 40.64 0.54864 4.047 2.4917 13.75 4.3178 21.562 5.4245 23.206 6.8774 29.746 8.3615 37.642 3.5208 18.73 7.3235 36.601 8.4952 39.922 3.6795 10.429 2.609 22.581-1.6169 18.355zm11.632-8.3548c-1.28-1.5487-3.9486-11.966-3.9486-15.414 0-3.2616-3.1444-18-4.9621-23.258-0.71299-2.0625-1.8291-6.4922-2.4802-9.8438-0.65116-3.3516-2.1577-10.312-3.3478-15.469-1.1902-5.1563-2.4447-11.906-2.7878-15-0.63729-5.7461-5.5262-28.139-8.9037-40.781-1.0331-3.8672-2.2866-9.3516-2.7856-12.188-0.49896-2.8359-1.9889-10.219-3.311-16.406-3.4368-16.085-4.9528-23.773-5.6384-28.594-0.32994-2.3203-1.1922-6.1172-1.9162-8.4375-0.72399-2.3203-2.8259-11.391-4.6709-20.156-8.0876-38.424-9.7447-46.182-10.714-50.156-1.2707-5.2127-9.707-46.326-11.735-57.188-0.81819-4.3828-2.1093-10.922-2.8691-14.531-2.3659-11.238-7.9308-37.317-8.8026-41.25-2.3127-10.435-2.9819-13.796-4.2939-21.562-0.78393-4.6406-2.2582-11.812-3.2763-15.938-2.4328-9.8575-6.5687-32.491-6.5687-35.947 0-1.4978-0.65333-4.5693-1.4519-6.8256-1.6932-4.7842-4.3846-16.16-6.9594-29.415-1.0016-5.1562-8.8108-42.281-17.354-82.5-8.5429-40.219-15.686-74.602-15.873-76.406-0.41683-4.0164-63.845-310.59-65.075-314.53-0.48256-1.5469-1.3929-6.1875-2.023-10.312-0.63006-4.125-1.5801-8.3156-2.1111-9.3125-0.53103-0.99687-1.9579-6.4812-3.1708-12.188-1.2129-5.7062-4.3259-20.078-6.9178-31.938-2.5918-11.859-5.542-25.992-6.5559-31.406-5.5789-29.791-25.84-126.69-29.109-139.22-1.0766-4.125-2.3818-10.031-2.9006-13.125-0.51872-3.0938-1.7319-9.2109-2.6959-13.594-5.25-23.838-5.36-29-0.59-29 3.6712 0 4.2229 1.5908 8.661 24.975 2.3349 12.303 4.8217 24.689 5.5262 27.525 1.1857 4.7729 2.654 11.782 8.445 40.312 3.2951 16.234 7.1297 37.267 7.9476 43.594 0.90129 6.971 8.8767 46.241 11.329 55.781 0.99394 3.8672 2.6774 11.883 3.7411 17.812 2.5352 14.133 4.0718 21.973 6.4313 32.812 1.0663 4.8984 1.9535 9.9609 1.9716 11.25s0.89212 4.238 1.9423 6.5532c1.5632 3.4464 62.175 293.97 73.934 354.38 1.656 8.5078 4.2067 20.742 5.6681 27.188 4.0628 17.919 20.617 97.493 21.13 101.57 0.24913 1.9801 1.4765 7.6754 2.7274 12.656 1.251 4.9809 3.1544 13.908 4.2298 19.837 1.0754 5.9297 2.7984 13.945 3.8287 17.812 1.0303 3.8672 2.6966 11.461 3.7028 16.875 2.2335 12.018 7.0045 34.719 8.8258 41.994 0.73666 2.9425 2.2492 9.9906 3.3612 15.663 1.112 5.6719 2.5885 13.055 3.2811 16.406 0.69261 3.3516 1.9823 9.6797 2.866 14.062 0.88368 4.3828 2.7893 13.453 4.2347 20.156 3.1304 14.517 5.2239 24.671 7.0553 34.219 2.3491 12.247 3.0316 15.343 4.5173 20.497 0.79725 2.7656 2.1168 9.0937 2.9323 14.062 0.81553 4.9688 1.9032 10.3 2.4171 11.847 0.97602 2.9379 3.2288 14.145 4.6158 22.962 0.44548 2.832 2.1173 10.848 3.7152 17.812 4.1492 18.086 6.5652 29.248 9.7416 45.007 0.77947 3.8672 2.7122 12.516 4.295 19.219 1.5828 6.7031 3.8959 17.25 5.1402 23.438 1.2443 6.1875 6.7215 32.032 12.172 57.432 9.2614 43.163 10.771 52.201 9.34 55.929-0.6824 1.7783-2.5826 1.9291-3.9198 0.311z"/>
</svg>
