<?xml version="1.0" encoding="UTF-8" standalone="no"?>
<!-- Created with Inkscape (http://www.inkscape.org/) -->

<svg
   xmlns:dc="http://purl.org/dc/elements/1.1/"
   xmlns:cc="http://creativecommons.org/ns#"
   xmlns:rdf="http://www.w3.org/1999/02/22-rdf-syntax-ns#"
   xmlns:svg="http://www.w3.org/2000/svg"
   xmlns="http://www.w3.org/2000/svg"
   xmlns:xlink="http://www.w3.org/1999/xlink"
   xmlns:sodipodi="http://sodipodi.sourceforge.net/DTD/sodipodi-0.dtd"
   xmlns:inkscape="http://www.inkscape.org/namespaces/inkscape"
   width="21.457148mm"
   height="31.0655mm"
   viewBox="0 0 76.029261 110.0746"
   id="svg2"
   version="1.1"
   inkscape:version="0.91 r13725"
   sodipodi:docname="Schild.svg">
  <title
     id="title4136">traffic sign - coloured</title>
  <defs
     id="defs4">
    <linearGradient
       id="linearGradient6576"
       inkscape:collect="always">
      <stop
         id="stop6578"
         offset="0"
         style="stop-color:#696969;stop-opacity:1;" />
      <stop
         style="stop-color:#dcdcdc;stop-opacity:1"
         offset="0.10286174"
         id="stop6580" />
      <stop
         style="stop-color:#696969;stop-opacity:1;"
         offset="0.16976042"
         id="stop6582" />
      <stop
         id="stop6584"
         offset="0.39275604"
         style="stop-color:#696969;stop-opacity:1;" />
      <stop
         style="stop-color:#898989;stop-opacity:1"
         offset="0.60088527"
         id="stop6586" />
      <stop
         id="stop6588"
         offset="0.75431967"
         style="stop-color:#696969;stop-opacity:1;" />
      <stop
         id="stop6590"
         offset="1"
         style="stop-color:#1b1b1b;stop-opacity:1" />
    </linearGradient>
    <linearGradient
       inkscape:collect="always"
       id="linearGradient4269">
      <stop
         style="stop-color:#696969;stop-opacity:1;"
         offset="0"
         id="stop4271" />
      <stop
         id="stop4285"
         offset="0.10286174"
         style="stop-color:#dcdcdc;stop-opacity:1" />
      <stop
         id="stop4277"
         offset="0.16976042"
         style="stop-color:#696969;stop-opacity:1;" />
      <stop
         style="stop-color:#696969;stop-opacity:1;"
         offset="0.39275604"
         id="stop4279" />
      <stop
         id="stop4281"
         offset="0.60088527"
         style="stop-color:#898989;stop-opacity:1" />
      <stop
         style="stop-color:#696969;stop-opacity:1;"
         offset="0.94580245"
         id="stop4283" />
      <stop
         style="stop-color:#1b1b1b;stop-opacity:1"
         offset="1"
         id="stop4273" />
    </linearGradient>
    <linearGradient
       inkscape:collect="always"
       xlink:href="#linearGradient4269"
       id="linearGradient4275"
       x1="53.073875"
       y1="946.16467"
       x2="79.724678"
       y2="1019.4008"
       gradientUnits="userSpaceOnUse" />
    <linearGradient
       inkscape:collect="always"
       xlink:href="#linearGradient6576"
       id="linearGradient6574"
       x1="40.154247"
       y1="1022.2092"
       x2="50.039211"
       y2="1022.4618"
       gradientUnits="userSpaceOnUse" />
  </defs>
  <sodipodi:namedview
     id="base"
     pagecolor="#ffffff"
     bordercolor="#666666"
     borderopacity="1.0"
     inkscape:pageopacity="0.0"
     inkscape:pageshadow="2"
     inkscape:zoom="1.979899"
     inkscape:cx="57.110657"
     inkscape:cy="22.102568"
     inkscape:document-units="mm"
     inkscape:current-layer="layer1"
     showgrid="false"
     inkscape:window-width="1238"
     inkscape:window-height="950"
     inkscape:window-x="790"
     inkscape:window-y="79"
     inkscape:window-maximized="0"
     inkscape:snap-global="false"
     fit-margin-top="1"
     fit-margin-right="1"
     fit-margin-bottom="1"
     fit-margin-left="1" />
  <metadata
     id="metadata7">
    <rdf:RDF>
      <cc:Work
         rdf:about="">
        <dc:format>image/svg+xml</dc:format>
        <dc:type
           rdf:resource="http://purl.org/dc/dcmitype/StillImage" />
        <dc:title>traffic sign - coloured</dc:title>
        <dc:subject>
          <rdf:Bag>
            <rdf:li>verkehrsschild</rdf:li>
            <rdf:li>verkehr</rdf:li>
            <rdf:li>schild</rdf:li>
            <rdf:li>traffic sign</rdf:li>
            <rdf:li>traffic</rdf:li>
            <rdf:li>sign</rdf:li>
            <rdf:li>line art</rdf:li>
            <rdf:li>outline</rdf:li>
            <rdf:li></rdf:li>
          </rdf:Bag>
        </dc:subject>
        <dc:description>coloured line art traffic sign</dc:description>
        <dc:date>2015-02-20</dc:date>
        <dc:creator>
          <cc:Agent>
            <dc:title>Frank Tremmel</dc:title>
          </cc:Agent>
        </dc:creator>
        <cc:license
           rdf:resource="http://creativecommons.org/publicdomain/zero/1.0/" />
      </cc:Work>
      <cc:License
         rdf:about="http://creativecommons.org/publicdomain/zero/1.0/">
        <cc:permits
           rdf:resource="http://creativecommons.org/ns#Reproduction" />
        <cc:permits
           rdf:resource="http://creativecommons.org/ns#Distribution" />
        <cc:permits
           rdf:resource="http://creativecommons.org/ns#DerivativeWorks" />
      </cc:License>
    </rdf:RDF>
  </metadata>
  <g
     inkscape:label="Ebene 1"
     inkscape:groupmode="layer"
     id="layer1"
     transform="translate(-9.5115637,-943.85181)">
    <path
       style="color:#000000;display:inline;overflow:visible;visibility:visible;opacity:1;fill:url(#linearGradient6574);fill-opacity:1;fill-rule:evenodd;stroke:#00ff00;stroke-width:0.35433072;stroke-linecap:round;stroke-linejoin:round;stroke-miterlimit:4;stroke-dasharray:none;stroke-dashoffset:0;stroke-opacity:1;marker:none;enable-background:accumulate"
       d="m 42.648041,995.53706 7.214004,-0.0833 -1.559016,52.41414 c -0.762209,1.7604 -5.991345,2.687 -7.214004,-0.5483 z"
       id="rect4189-0"
       inkscape:connector-curvature="0"
       sodipodi:nodetypes="ccccc" />
    <path
       style="color:#000000;font-style:normal;font-variant:normal;font-weight:normal;font-stretch:normal;font-size:medium;line-height:normal;font-family:sans-serif;text-indent:0;text-align:start;text-decoration:none;text-decoration-line:none;text-decoration-style:solid;text-decoration-color:#000000;letter-spacing:normal;word-spacing:normal;text-transform:none;direction:ltr;block-progression:tb;writing-mode:lr-tb;baseline-shift:baseline;text-anchor:start;white-space:normal;clip-rule:nonzero;display:inline;overflow:visible;visibility:visible;opacity:1;isolation:auto;mix-blend-mode:normal;color-interpolation:sRGB;color-interpolation-filters:linearRGB;solid-color:#000000;solid-opacity:1;fill:#4c4545;fill-opacity:1;fill-rule:evenodd;stroke:none;stroke-width:1.77167451;stroke-linecap:round;stroke-linejoin:round;stroke-miterlimit:4;stroke-dasharray:none;stroke-dashoffset:0;stroke-opacity:1;marker:none;color-rendering:auto;image-rendering:auto;shape-rendering:auto;text-rendering:auto;enable-background:accumulate"
       d="m 44.399093,957.46548 c -1.423349,0.13768 -1.236413,1.91666 -1.426523,2.85967 -0.974432,29.00637 -1.552184,58.07705 -2.498332,87.08265 0.690634,3.7963 5.74621,3.6605 7.961228,1.2737 1.357147,-1.139 0.809751,-3.0397 0.873572,-4.5854 1.179259,-28.5611 1.965164,-57.13987 2.895156,-85.70832 -0.400936,-1.28288 -2.113157,-0.55806 -3.091148,-0.79465 -1.571317,-0.0426 -3.142639,-0.0851 -4.713953,-0.12765 z m 0.826228,1.79446 c 1.729835,0.0468 3.459669,0.0937 5.189504,0.14053 -0.665402,19.58014 -4.348788,39.16029 -1.996206,58.74043 l -0.0923,1.6427 c 0.196765,1.1565 -0.777031,1.3045 -0.554516,2.3386 0.03569,0.5242 -0.04114,0.8255 0.458076,1.5725 0.08148,0.8963 -0.1878,0.9929 -0.271134,2.0261 -0.07729,1.2775 0.284148,0.8899 0.140114,1.8292 0.05913,0.9375 -0.386818,0.7505 -0.580226,1.7063 0.02528,1.346 0.664627,0.8384 0.464216,1.7076 -0.305944,0.7118 -0.681452,1.4236 -0.832334,2.1355 0.09399,0.7356 0.800706,1.5788 0.669244,2.594 -0.08422,0.9612 -1.024931,0.5719 -0.945453,1.7634 -0.01966,1.1906 1.155573,1.4728 0.804393,2.2768 0.188214,1.0493 -0.727866,0.9943 -0.86949,1.7137 -0.04086,0.3044 -0.200201,0.3569 0.735172,1.4449 -0.05931,1.3214 -0.857344,1.1466 -0.984753,2.2105 -0.108942,1.2391 1.056345,0.2742 0.874459,2.0089 -0.761979,1.2046 -2.128436,1.6944 -3.262516,1.4351 -1.07485,-0.2457 -2.455537,-1.228 -2.39095,-2.8486 z"
       id="rect4189"
       inkscape:connector-curvature="0"
       sodipodi:nodetypes="ccccscccccccccccccccccccccssc" />
    <path
       style="fill:url(#linearGradient4275);fill-opacity:1;fill-rule:evenodd;stroke:#000000;stroke-width:1.0629921;stroke-linecap:butt;stroke-linejoin:miter;stroke-miterlimit:4;stroke-dasharray:none;stroke-opacity:1"
       d="m 48.6857,948.93885 c 0.650257,-0.40198 3.748126,-0.94487 4.735089,-1.01015 0.631345,0.0752 2.08344,0.22047 2.777919,1.89404 l 24.875007,68.31146 c 0.607965,1.6912 0.678044,3.806 -1.040046,5.0761 -0.450955,0.2827 -2.517377,2.1052 -3.189967,1.995 l 0.811775,-5.5666 z"
       id="path4209"
       inkscape:connector-curvature="0"
       sodipodi:nodetypes="cccccccc" />
    <path
       style="fill:#ffffff;fill-rule:evenodd;stroke:#ff0000;stroke-width:0.35433072;stroke-linecap:butt;stroke-linejoin:round;stroke-miterlimit:4;stroke-dasharray:none;stroke-opacity:1"
       d="m 17.437238,995.92463 32.89492,-42.6121 25.08781,69.17077 -28.99133,-13.2798 z"
       id="path4157-9"
       inkscape:connector-curvature="0"
       sodipodi:nodetypes="ccccc" />
    <path
       style="fill:none;fill-rule:evenodd;stroke:#ff0000;stroke-width:7.08661413;stroke-linecap:butt;stroke-linejoin:round;stroke-miterlimit:4;stroke-dasharray:none;stroke-opacity:1"
       d="m 17.159106,995.11667 32.89491,-42.61217 25.08782,69.1708 -28.99133,-13.2798 z"
       id="path4157-90"
       inkscape:connector-curvature="0"
       sodipodi:nodetypes="ccccc" />
    <path
       style="color:#000000;font-style:normal;font-variant:normal;font-weight:normal;font-stretch:normal;font-size:medium;line-height:normal;font-family:sans-serif;text-indent:0;text-align:start;text-decoration:none;text-decoration-line:none;text-decoration-style:solid;text-decoration-color:#000000;letter-spacing:normal;word-spacing:normal;text-transform:none;direction:ltr;block-progression:tb;writing-mode:lr-tb;baseline-shift:baseline;text-anchor:start;white-space:normal;clip-rule:nonzero;display:inline;overflow:visible;visibility:visible;opacity:1;isolation:auto;mix-blend-mode:normal;color-interpolation:sRGB;color-interpolation-filters:linearRGB;solid-color:#000000;solid-opacity:1;fill:#000000;fill-opacity:1;fill-rule:evenodd;stroke:none;stroke-width:1.77165353;stroke-linecap:butt;stroke-linejoin:round;stroke-miterlimit:4;stroke-dasharray:none;stroke-dashoffset:0;stroke-opacity:1;color-rendering:auto;image-rendering:auto;shape-rendering:auto;text-rendering:auto;enable-background:accumulate"
       d="m 50.470703,948.10156 c -1.407188,-0.0325 -2.747167,0.60662 -3.607422,1.72071 L 13.96875,992.43359 c -1.728817,2.24048 -0.910862,5.55414 1.662109,6.73243 l 28.990235,13.27928 28.992187,13.2793 c 1.75172,0.8014 3.629101,0.3494 4.84375,-0.7695 1.21465,-1.1189 1.316115,-2.8259 0.66094,-4.6374 -8.575626,-23.01212 -16.643167,-46.15831 -25.216113,-69.17385 -0.622117,-1.71446 -1.607791,-3.00053 -3.431155,-3.04229 z m -0.128346,1.3231 c 1.09853,0.0252 2.151976,1.16547 2.526786,2.19839 L 77.95508,1020.793 c 0.4132,1.1424 0.04438,2.1762 -0.697266,2.8593 -0.741645,0.6832 -1.801492,0.9684 -2.90625,0.4629 l -28.992189,-13.2793 -29.07952,-12.83283 c -1.573459,-0.72056 -2.41242,-3.29589 -1.35519,-4.66602 l 32.805246,-42.52204 c 0.516978,-0.66953 1.766782,-1.4099 2.612446,-1.39035 z m -1.086496,9.4855 c -0.28118,-0.006 -0.548653,0.12126 -0.720703,0.34375 l -26.232422,33.98047 c -0.347466,0.45104 -0.18536,1.10805 0.332032,1.3457 l 24.9375,11.42192 21.300781,9.7578 c 0.71429,0.3264 1.468653,-0.3691 1.201172,-1.1075 l -20.00586,-55.16011 c -0.125096,-0.34285 -0.447636,-0.5739 -0.8125,-0.58203 z m -0.213448,1.45117 18.647042,52.90817 -19.378906,-8.8769 -24.638114,-10.77848 z"
       id="path4157"
       inkscape:connector-curvature="0"
       sodipodi:nodetypes="ccccccsccccccccccccccccccccccccccc" />
    <g
       id="g4253"
       transform="matrix(0.97803856,0.31444668,-0.06984154,1,34.113585,-18.911296)"
       style="fill:#000000;stroke:none">
      <path
         sodipodi:nodetypes="czcczcc"
         inkscape:connector-curvature="0"
         id="rect4243"
         d="m 80.142359,966.57845 c 0,0 0.07366,-2.39911 2.714785,-2.39911 2.641128,0 2.714784,2.39911 2.714784,2.39911 l -1.26269,19.06663 c 0,0 0.105225,1.45209 -1.452094,1.45209 -1.557319,0 -1.452095,-1.45209 -1.452095,-1.45209 z"
         style="color:#000000;display:inline;overflow:visible;visibility:visible;opacity:1;fill:#000000;fill-opacity:1;fill-rule:evenodd;stroke:none;stroke-width:0.35433072;stroke-linecap:round;stroke-linejoin:round;stroke-miterlimit:4;stroke-dasharray:none;stroke-dashoffset:0;stroke-opacity:1;marker:none;enable-background:accumulate" />
      <path
         inkscape:connector-curvature="0"
         id="path4246"
         d="m 85.178572,991.29079 a 2.3214285,2.3214285 0 0 1 -2.321428,2.32143 2.3214285,2.3214285 0 0 1 -2.321429,-2.32143 2.3214285,2.3214285 0 0 1 2.321429,-2.32143 2.3214285,2.3214285 0 0 1 2.321428,2.32143 z"
         style="color:#000000;display:inline;overflow:visible;visibility:visible;opacity:1;fill:#000000;fill-opacity:1;fill-rule:evenodd;stroke:none;stroke-width:0.35433072;stroke-linecap:round;stroke-linejoin:round;stroke-miterlimit:4;stroke-dasharray:none;stroke-dashoffset:0;stroke-opacity:1;marker:none;enable-background:accumulate" />
    </g>
  </g>
</svg>
