<?xml version="1.0" encoding="utf-8"?>

<!DOCTYPE svg PUBLIC "-//W3C//DTD SVG 1.1//EN" "http://www.w3.org/Graphics/SVG/1.1/DTD/svg11.dtd">
<svg version="1.1" id="Layer_1" xmlns="http://www.w3.org/2000/svg" xmlns:xlink="http://www.w3.org/1999/xlink" x="0px" y="0px"
	 viewBox="0 0 1430 1651.699" enable-background="new 0 0 1430 1651.699" xml:space="preserve">
<g>
	<g enable-background="new    ">
		<g>
			<polygon fill="#DC0000" points="486.132,1226.159 1176.122,825.181 1407.62,958.837 717.63,1359.815 			"/>
		</g>
		<g>
			<polygon fill="#C50000" points="717.63,1359.815 1407.62,958.837 1406.866,1224.871 716.876,1625.849 			"/>
		</g>
		<g>
			<polygon fill="#C50000" points="486.886,960.149 1176.876,559.171 1176.122,825.181 486.132,1226.159 			"/>
		</g>
		<g>
			<polygon fill="#DC0000" points="255.387,826.493 945.377,425.515 1176.876,559.171 486.886,960.149 			"/>
		</g>
		<g>
			<polygon fill="#C50000" points="256.141,560.484 946.131,159.505 945.377,425.515 255.387,826.493 			"/>
		</g>
		<g>
			<polygon fill="#DC0000" points="24.642,426.828 714.632,25.849 946.131,159.505 256.141,560.484 			"/>
		</g>
		<g>
			<polygon fill="#890000" points="256.141,560.484 255.387,826.493 486.886,960.149 486.132,1226.159 717.63,1359.815 
				716.876,1625.849 485.378,1492.193 253.879,1358.537 22.38,1224.881 23.134,958.847 23.888,692.837 24.642,426.828 			"/>
		</g>
	</g>
</g>
</svg>
