<?xml version="1.0" encoding="UTF-8"?>
<!DOCTYPE svg PUBLIC "-//W3C//DTD SVG 1.1//EN" "http://www.w3.org/Graphics/SVG/1.1/DTD/svg11.dtd">
<svg version="1.1" xmlns="http://www.w3.org/2000/svg" xmlns:xlink="http://www.w3.org/1999/xlink" x="0" y="0" width="218" height="550" viewBox="0, 0, 218, 550">
  <g id="Layer_1">
    <path d="M118.931,148.511 C108.267,142.046 91.528,143.921 82.153,151.206 C65.864,163.901 56.392,183.218 50.698,203.511 C39.36,243.979 15.229,284.468 16.382,327.573 C17.651,374.487 64.858,360.913 97.603,361.05 C114.888,361.147 132.28,360.952 149.497,358.979 C157.095,358.12 168.394,357.847 175.044,353.237 C183.335,347.476 179.702,338.921 178.14,329.175 C175.005,309.761 173.53,289.214 169.331,270.151 C162.29,238.159 153.901,208.101 138.784,179.663 C133.784,170.229 129.858,157.417 121.636,150.464 C120.796,149.741 119.878,149.097 118.931,148.511" fill="#FFFFFE"/>
    <path d="M118.931,148.511 L119.977,146.785 C115.113,143.842 109.24,142.546 103.342,142.542 C99.239,142.543 95.113,143.174 91.272,144.367 C87.431,145.561 83.871,147.316 80.915,149.613 L80.913,149.614 C72.525,156.152 65.92,164.373 60.7,173.508 C55.48,182.645 51.636,192.699 48.755,202.965 C43.272,222.548 34.705,242.282 27.468,262.44 C20.237,282.598 14.327,303.205 14.323,324.578 C14.323,325.591 14.336,326.608 14.365,327.628 C14.572,335.294 15.975,341.514 18.407,346.531 C20.229,350.291 22.635,353.36 25.48,355.801 C29.751,359.468 34.965,361.708 40.659,363.035 C46.358,364.361 52.562,364.787 58.955,364.789 C71.804,364.784 85.468,363.059 97.104,363.064 C97.266,363.064 97.422,363.065 97.573,363.067 L97.591,363.067 C99.777,363.08 101.965,363.086 104.155,363.086 C119.309,363.086 134.563,362.72 149.727,360.984 L149.724,360.984 C153.442,360.562 158.213,360.278 162.951,359.506 C167.69,358.723 172.434,357.485 176.193,354.895 L176.196,354.894 C178.454,353.33 180.042,351.468 181.004,349.419 C181.971,347.372 182.308,345.198 182.307,343.025 C182.305,340.727 181.942,338.404 181.498,336.042 C181.052,333.681 180.52,331.279 180.132,328.855 C177.012,309.559 175.54,288.978 171.302,269.717 C164.245,237.66 155.815,207.405 140.566,178.716 L140.567,178.718 C138.137,174.14 135.903,168.58 133.222,163.228 C130.533,157.88 127.395,152.702 122.938,148.923 L122.952,148.934 C122.01,148.124 121.006,147.422 119.992,146.794 L119.977,146.785 L118.931,148.511 L117.869,150.227 C118.75,150.771 119.581,151.357 120.32,151.993 L120.333,152.004 C124.099,155.179 127.035,159.883 129.615,165.038 C132.202,170.189 134.431,175.752 137.001,180.608 L137.002,180.61 C151.987,208.796 160.335,238.658 167.36,270.585 C171.52,289.449 172.998,309.962 176.147,329.496 C176.561,332.072 177.104,334.516 177.532,336.79 C177.962,339.063 178.273,341.164 178.271,343.025 C178.27,344.794 178.002,346.324 177.355,347.697 C176.703,349.067 175.668,350.34 173.892,351.58 L173.894,351.579 C171.003,353.599 166.772,354.802 162.301,355.523 C157.827,356.255 153.15,356.537 149.27,356.974 L149.267,356.975 C134.344,358.683 119.244,359.051 104.155,359.051 C101.974,359.051 99.793,359.044 97.614,359.032 L97.632,359.032 C97.45,359.029 97.274,359.029 97.104,359.029 C85.095,359.034 71.456,360.758 58.955,360.753 C53.434,360.753 48.144,360.419 43.349,359.483 C39.752,358.782 36.437,357.745 33.493,356.278 C29.077,354.069 25.492,350.938 22.873,346.355 C20.26,341.771 18.62,335.665 18.399,327.519 C18.372,326.536 18.359,325.557 18.359,324.578 C18.356,303.961 24.087,283.799 31.266,263.803 C38.438,243.808 47.049,224.003 52.641,204.055 C55.454,194.028 59.193,184.278 64.204,175.51 C69.217,166.74 75.493,158.955 83.394,152.797 L83.392,152.799 C85.888,150.856 89.026,149.289 92.469,148.221 C95.911,147.15 99.654,146.578 103.342,146.578 C108.65,146.575 113.826,147.769 117.885,150.236 L117.869,150.227 L118.931,148.511" fill="#8A8B8A"/>
    <path d="M60.503,155.776 C43.481,151.108 29.028,194.097 23.53,205.21 C18.267,215.854 -5.991,418.061 10.044,414.585 C94.351,396.284 102.534,311.909 103.208,301.616 C103.745,293.433 98.96,285.815 95.601,278.491 C85.571,256.577 77.983,236.421 72.964,213.374 C71.411,206.245 66.724,157.476 60.503,155.776" fill="#1A1919"/>
    <path d="M121.968,155.776 C139.019,151.108 153.472,194.097 158.97,205.21 C164.233,215.854 183.687,418.061 167.651,414.585 C83.345,396.284 79.946,311.909 79.282,301.616 C78.755,293.433 83.54,285.815 86.88,278.491 C96.929,256.577 104.507,236.421 109.536,213.374 C111.099,206.245 115.767,157.476 121.968,155.776" fill="#1A1919"/>
    <path d="M38.452,171.011 C48.56,159.78 60.962,149.233 69.429,151.304 C84.106,154.917 64.692,185.698 60.923,192.397 C45.796,219.272 37.368,271.694 74.517,281.753 C82.163,283.804 102.163,287.261 104.536,295.171 C93.003,298.198 82.456,310.894 71.753,317.026 C55.366,326.44 47.349,326.401 34.028,314.624 C23.677,305.464 14.058,303.101 7.798,289.526 C-5.503,260.679 7.026,217.808 22.573,191.792 C25.19,187.378 31.235,179.019 38.452,171.011" fill="#1A1919"/>
    <path d="M77.817,10.054 C71.694,11.597 65.767,14.097 60.942,16.519 C56.011,18.999 51.587,20.015 47.378,23.843 C43.198,27.593 39.048,31.363 35.464,35.992 C27.642,46.187 24.722,51.714 23.901,64.722 C22.886,80.894 42.329,150.249 47.563,156.421 C53.403,163.296 57.183,162.554 65.142,165.386 C71.099,167.495 74.272,170.601 80.952,171.245 C96.353,172.71 108.696,169.644 123.97,168.101 C137.573,166.714 136.128,162.651 141.919,149.546 C145.073,142.358 153.081,49.585 132.466,28.394 C126.108,21.851 119.653,15.699 110.776,13.765 C105.142,12.534 98.823,9.839 93.198,8.941 C88.267,8.159 82.983,8.765 77.817,10.054" fill="#F6C49D"/>
    <path d="M80.835,90.854 C81.313,93.843 79.282,96.675 76.294,97.144 C73.296,97.632 70.474,95.601 69.995,92.593 C69.517,89.624 71.558,86.792 74.556,86.323 C77.534,85.835 80.356,87.866 80.835,90.854" fill="#1A1919"/>
    <path d="M119.683,82.983 C120.161,85.972 118.13,88.784 115.132,89.272 C112.153,89.761 109.331,87.71 108.853,84.722 C108.374,81.733 110.415,78.921 113.403,78.433 C116.401,77.964 119.224,79.995 119.683,82.983" fill="#1A1919"/>
    <path d="M157.026,178.999 C160.679,183.159 163.706,187.534 165.649,191.108 C176.255,210.444 182.358,236.694 178.726,258.784 C176.44,272.612 162.437,283.276 149.077,276.831 C131.606,268.394 126.216,246.909 123.403,229.409 C120.669,212.241 113.364,191.89 121.157,175.269 C130.103,156.186 146.245,166.597 157.026,178.999" fill="#1A1919"/>
    <path d="M44.341,101.558 C44.341,109.8 37.134,116.479 28.237,116.479 C19.341,116.479 12.134,109.8 12.134,101.558 C12.134,93.335 19.341,86.636 28.237,86.636 C37.134,86.636 44.341,93.335 44.341,101.558" fill="#F6C49D"/>
    <path d="M163.716,74.722 C163.716,82.964 156.509,89.644 147.622,89.644 C138.735,89.644 131.509,82.964 131.509,74.722 C131.509,66.479 138.735,59.82 147.622,59.82 C156.509,59.82 163.716,66.479 163.716,74.722" fill="#F6C49D"/>
    <path d="M94.253,178.472 L66.411,160.581 L66.919,190.894 L94.253,178.472" fill="#B62228"/>
    <path d="M93.257,178.472 L121.089,160.581 L120.61,190.894 L93.257,178.472" fill="#B62228"/>
    <path d="M147.866,37.378 C147.847,37.163 147.808,36.968 147.778,36.792 C146.841,31.519 144.028,25.464 141.245,20.913 C135.073,10.816 125.337,7.456 114.116,4.195 C100.181,0.113 82.603,2.242 68.687,5.757 C56.294,8.902 43.579,10.874 32.515,17.847 C27.153,21.206 25.669,27.105 22.427,32.281 C17.69,39.878 15.337,48.12 15.259,57.085 C15.21,64.233 17.72,71.694 20.376,78.237 C22.183,82.71 26.782,94.487 31.313,95.991 C34.058,96.89 41.899,63.511 42.231,60.718 C45.776,60.445 50.269,61.87 54.263,62.066 C58.755,62.281 63.179,62.593 67.729,62.593 C76.167,62.593 84.126,61.851 91.978,61.363 C90.327,58.355 87.339,55.659 86.597,51.831 C100.347,60.679 116.587,56.734 131.46,54.702 C135.532,54.175 143.843,55.659 146.987,52.378 C149.771,49.488 148.56,41.421 147.866,37.378" fill="#734929"/>
    <path d="M93.412,97.244 C94.106,100.447 95.584,102.952 97.007,105.146 C98.445,107.348 99.827,109.282 100.749,111.431 L103.218,110.366 L101.352,108.429 C99.048,110.652 96.946,113.268 95.373,115.936 C94.619,117.215 95.046,118.863 96.326,119.617 C97.606,120.371 99.254,119.944 100.008,118.664 C101.286,116.487 103.129,114.182 105.083,112.303 C105.89,111.525 106.131,110.329 105.687,109.301 C104.459,106.469 102.839,104.263 101.518,102.217 C100.182,100.163 99.146,98.312 98.668,96.105 C98.354,94.654 96.922,93.732 95.471,94.047 C94.019,94.361 93.098,95.792 93.412,97.244" fill="#1A1919"/>
    <path d="M125.913,519.741 C126.099,519.644 126.274,519.565 126.44,519.468 C131.509,516.44 147.798,455.347 147.808,440.015 C147.808,420.288 153.325,383.608 136.753,369.819 C123.618,358.882 99.604,360.757 83.579,358.335 C85.103,358.569 86.636,397.495 87.017,400.171 C91.333,429.917 99.624,449.683 98.794,458.061 C97.954,466.421 87.144,518.12 92.769,518.257 C99.751,518.452 119.409,522.944 125.913,519.741" fill="#1A1919"/>
    <path d="M84.097,503.647 C94.868,484.565 123.696,510.21 133.208,516.499 C141.841,522.202 160.679,524.116 162.007,536.753 C162.935,545.542 154.497,548.745 147.271,546.851 C137.349,544.253 127.935,541.655 117.544,540.093 C112.759,539.37 107.739,539.858 103.003,539.8 C101.763,539.8 81.528,541.46 81.714,538.12 C81.978,533.081 81.675,507.925 84.097,503.647" fill="#1A1919"/>
    <path d="M66.577,519.741 C66.763,519.644 66.938,519.565 67.104,519.468 C72.173,516.44 97.065,450.425 97.075,435.073 C97.075,415.386 105.894,360.913 89.321,347.124 C76.196,336.186 40.269,360.757 24.243,358.335 C25.767,358.569 26.724,397.651 27.671,400.171 C47.183,451.186 31.88,519.155 37.495,519.292 C44.497,519.468 60.073,522.944 66.577,519.741" fill="#1A1919"/>
    <path d="M34.224,503.647 C44.985,484.565 75.503,505.972 85.015,512.241 C93.667,517.944 110.806,524.116 112.114,536.753 C113.062,545.542 104.634,548.745 97.407,546.851 C87.485,544.253 78.062,541.655 67.671,540.093 C62.886,539.37 57.847,539.858 53.13,539.8 C51.88,539.8 31.665,541.46 31.831,538.12 C32.104,533.081 31.792,507.925 34.224,503.647" fill="#1A1919"/>
    <path d="M80.971,131.081 C82.402,132.729 84.382,133.944 86.687,134.848 C88.993,135.738 91.639,136.279 94.401,136.281 C96.565,136.281 98.803,135.944 100.965,135.135 C103.124,134.328 105.202,133.036 106.962,131.185 C107.986,130.109 107.944,128.407 106.869,127.383 C105.793,126.359 104.091,126.401 103.067,127.477 C101.894,128.706 100.551,129.544 99.078,130.099 C97.608,130.65 96.006,130.903 94.401,130.903 C92.356,130.905 90.313,130.486 88.628,129.832 C86.943,129.191 85.632,128.275 85.054,127.581 C84.087,126.453 82.389,126.323 81.262,127.29 C80.135,128.256 80.005,129.954 80.971,131.081" fill="#1A1919"/>
    <path d="M138.784,139.585 C136.323,152.085 133.882,164.565 131.44,177.065 C126.118,204.311 120.835,231.538 115.61,258.784 C110.513,285.444 105.415,312.104 100.601,338.804 C99.468,345.151 98.325,351.519 97.251,357.905 C95.425,368.999 94.78,379.077 98.892,389.683 C104.321,403.667 116.108,411.577 129.907,412.886 C140.454,413.921 152.056,410.894 160.718,404.175 C169.585,397.28 171.05,384.644 173.677,373.765 C177.144,359.311 182.886,347.397 191.021,335.327 C195.767,328.257 205.532,313.315 215.425,316.909 C215.425,316.909 188.325,289.077 157.583,269.897 C157.583,269.897 166.333,278.765 142.769,359.448 C142.007,363.198 140.815,367.202 138.833,370.444 C135.747,375.386 129.106,374.761 129.683,367.671 C129.79,366.226 129.907,364.78 130.024,363.354 C130.815,353.472 131.606,343.608 132.407,333.745 C133.579,319.116 134.751,304.468 135.923,289.839 C137.251,273.335 138.579,256.831 139.907,240.347 C141.147,224.936 142.378,209.526 143.628,194.136 C144.546,182.71 145.454,171.323 146.362,159.917 C146.724,155.464 147.085,151.011 147.437,146.558 C147.437,146.558 151.997,129.819 130.503,128.218 C130.503,128.218 99.155,133.901 95.815,130.796 L95.015,134.058 C95.015,134.058 95.708,137.983 129.487,134.194 C129.487,134.194 140.103,136.382 138.784,139.585" fill="#DEB33F"/>
    <path d="M135.22,408.745 C121.392,407.417 109.614,399.507 104.185,385.542 C100.063,374.956 100.698,364.839 102.534,353.765 C103.618,347.378 104.751,341.03 105.894,334.644 C110.708,307.944 115.796,281.304 120.913,254.644 C126.118,227.397 131.421,200.171 136.724,172.925 C139.165,160.425 141.626,147.925 144.067,135.425 C145.386,132.241 134.78,130.054 134.78,130.054 C119.37,131.792 110.874,131.909 106.147,131.519 C101.079,131.89 96.929,131.831 95.815,130.796 L94.81,136.401 C94.81,136.401 95.708,137.983 129.487,134.194 C129.487,134.194 140.103,136.382 138.784,139.585 C136.323,152.085 133.882,164.565 131.44,177.065 C126.118,204.311 120.835,231.538 115.61,258.784 C110.513,285.444 105.415,312.104 100.601,338.804 C99.468,345.151 98.325,351.519 97.251,357.905 C95.425,368.999 94.78,379.077 98.892,389.683 C104.321,403.667 116.108,411.577 129.907,412.886 C140.454,413.921 152.056,410.894 160.718,404.175 C161.499,403.569 162.192,402.905 162.866,402.222 C154.663,407.378 144.526,409.644 135.22,408.745" fill="#C09841"/>
    <path d="M142.769,359.448 C142.085,362.847 141.021,366.44 139.36,369.487 C141.06,369.37 142.876,368.276 144.116,366.284 C146.089,363.061 147.3,359.058 148.062,355.288 C162.036,307.397 164.634,284.819 164.458,274.37 C162.192,272.847 159.897,271.343 157.583,269.897 C157.583,269.897 166.333,278.765 142.769,359.448" fill="#C09841"/>
    <path d="M206.45,318.101 C209.331,316.46 212.368,315.796 215.425,316.909 C215.425,316.909 214.272,315.737 212.202,313.706 C210.2,314.761 208.257,316.323 206.45,318.101" fill="#F0AB2B"/>
    <path d="M147.778,240.835 C146.792,245.815 142.271,248.999 137.671,247.925 C133.042,246.87 130.103,242.007 131.079,237.026 C132.046,232.065 136.587,228.901 141.196,229.936 C145.815,230.991 148.755,235.874 147.778,240.835" fill="#BD8740"/>
    <path d="M144.478,270.21 C143.491,275.19 138.96,278.354 134.36,277.3 C129.741,276.265 126.792,271.382 127.769,266.421 C128.745,261.44 133.286,258.276 137.886,259.331 C142.485,260.386 145.454,265.249 144.478,270.21" fill="#BD8740"/>
    <path d="M142.231,299.839 C141.245,304.8 136.714,307.964 132.114,306.929 C127.485,305.874 124.536,300.991 125.522,296.03 C126.489,291.069 131.03,287.886 135.64,288.94 C140.239,289.995 143.179,294.878 142.231,299.839" fill="#BD8740"/>
    <path d="M147.388,194.819 L123.97,189.468 L124.79,185.249 L148.228,190.581 L147.388,194.819" fill="#BD8740"/>
    <path d="M145.835,202.671 L122.427,197.319 L123.257,193.12 L146.675,198.452 L145.835,202.671" fill="#BD8740"/>
    <path d="M144.312,210.542 L120.874,205.21 L121.704,200.991 L145.122,206.343 L144.312,210.542" fill="#BD8740"/>
    <path d="M132.847,347.593 L98.511,344.858 L99.429,331.401 L133.794,334.155 L132.847,347.593" fill="#BD8740"/>
    <path d="M204.458,309.214 C204.458,309.214 170.728,342.417 168.706,364.897 C168.706,364.897 164.79,400.093 149.009,404.585 C149.009,404.585 163.247,391.831 166.362,358.022 C166.362,358.022 173.989,335.444 204.458,309.214" fill="#FFFFFE"/>
    <path d="M176.733,366.382 L143.921,351.87 L148.687,339.39 L181.499,353.901 L176.733,366.382" fill="#BD8740"/>
    <path d="M114.751,322.046 C114.751,331.226 107.31,338.647 98.14,338.647 C88.97,338.647 81.528,331.226 81.528,322.046 C81.528,312.866 88.97,305.444 98.14,305.444 C107.31,305.444 114.751,312.866 114.751,322.046" fill="#F6C49D"/>
    <path d="M159.526,234.175 C159.526,244.409 152.534,252.71 143.901,252.71 C135.259,252.71 128.247,244.409 128.247,234.175 C128.247,223.921 135.259,215.62 143.901,215.62 C152.534,215.62 159.526,223.921 159.526,234.175" fill="#F6C49D"/>
  </g>
</svg>
