<?xml version="1.0" encoding="UTF-8"?>
<!DOCTYPE svg PUBLIC "-//W3C//DTD SVG 1.1//EN" "http://www.w3.org/Graphics/SVG/1.1/DTD/svg11.dtd">
<svg version="1.1" xmlns="http://www.w3.org/2000/svg" xmlns:xlink="http://www.w3.org/1999/xlink" x="0" y="0" width="833" height="495" viewBox="0, 0, 833, 495">
  <g id="Layer_1">
    <path d="M7.134,108.111 C9.945,143.809 22.836,178.658 43.931,207.593 C46.563,211.203 49.399,214.796 53.175,217.184 C57.541,219.946 62.79,220.866 67.896,221.649 C115.684,228.979 164.549,229.246 212.415,222.439 C212.453,212.126 208.383,202.272 206.836,192.076 C205.214,181.377 206.524,169.996 211.995,160.66 C217.465,151.324 227.433,144.366 238.246,143.952 C256.645,143.247 271.222,160.17 289.367,163.293 C298.729,145.904 305.305,127.019 308.77,107.576 C309.287,104.674 309.729,101.644 308.893,98.818 C306.818,91.805 298.366,89.32 291.21,87.807 C256.466,80.465 222.355,70.126 189.382,56.943 C163.819,46.723 138.62,34.701 111.49,30.023 C104.71,28.854 97.717,28.159 90.978,29.544 C82.721,31.24 75.447,35.912 67.886,39.636 C47.625,49.615 22.194,54.934 11.713,74.939 C6.461,84.961 6.245,96.831 7.134,108.111" fill="#D4EDF4"/>
    <path d="M814.59,282.804 C797.616,249.16 762.763,227.324 726.359,217.589 C689.955,207.854 651.659,208.68 614.001,210.059 C468.286,215.394 321.946,228.137 181.063,265.727 C140.377,276.583 97.649,291.232 71.923,324.569 C63.335,335.697 56.852,349.48 58.563,363.432 C59.58,371.725 63.405,379.409 67.737,386.554 C93.224,428.594 137.444,456.749 184.277,471.705 C231.11,486.661 280.842,489.681 329.989,490.96 C391.863,492.569 453.773,491.595 515.656,490.383 C557.201,489.569 599.184,488.589 639.417,478.2 C678.139,468.2 714.087,449.778 749.447,431.097 C764.779,422.997 780.258,414.688 792.976,402.902 C824.986,373.236 834.248,321.768 814.59,282.804" fill="#FFFFFE"/>
    <path d="M151.612,389.782 C149.208,383.445 148.705,376.533 146.545,370.109 C144.384,363.685 139.843,357.334 133.185,356.068 C134.522,376.003 137.726,398.328 153.7,410.329 C159.906,414.992 167.414,417.52 174.779,419.974 C199.952,428.361 225.126,436.749 250.299,445.137 C262.236,449.114 274.323,453.123 286.869,454.07 C299.416,455.017 312.673,452.598 322.586,444.848 C322.085,442.678 321.584,440.507 321.083,438.337 C306.904,440.991 292.384,442.438 278.038,440.927 C268.003,439.869 258.182,437.381 248.402,434.901 C234.114,431.277 219.827,427.653 205.54,424.029 C184.031,418.574 159.482,410.53 151.612,389.782" fill="#C1C8CA"/>
    <path d="M681.742,399.632 C702.028,385.787 719.385,368.075 735.454,349.501 C742.175,341.732 749.094,331.293 744.77,321.974 C741.011,322.204 738.193,325.36 735.752,328.228 C704.268,365.217 662.403,392.82 616.893,409.799 C571.383,426.778 522.313,433.345 473.765,431.732 C475.091,439.435 485.466,440.783 493.265,440.249 C509.6,439.132 525.935,438.014 542.271,436.896 C573.755,434.742 605.638,432.512 635.575,422.528 C651.922,417.076 667.508,409.346 681.742,399.632" fill="#C1C8CA"/>
    <path d="M562.167,206.928 C573.501,221.779 575.612,241.475 577.313,260.079 C577.999,267.568 578.68,275.165 577.358,282.568 C574.909,296.276 565.955,307.765 557.711,318.987 C549.467,330.21 541.365,342.645 541.096,356.568 C540.826,370.491 551.878,385.458 565.74,384.136 C579.624,382.812 589.348,366.742 603.286,367.246 C609.109,367.456 614.377,370.63 620.037,372.019 C634.894,375.665 649.656,366.809 662.4,358.347 C680.198,346.528 697.996,334.709 715.795,322.89 C719.372,320.515 722.99,318.105 725.877,314.926 C729.321,311.132 731.573,306.403 733.285,301.573 C740.735,280.549 738.263,256.241 726.732,237.147 C724.541,233.52 722.025,230.035 720.584,226.05 C716.294,214.182 722.356,201.34 723.621,188.784 C725.893,166.225 711.126,143.776 690.517,134.324 C669.908,124.872 644.918,127.526 625.102,138.543 C617.543,119.714 609.078,100.432 593.971,86.888 C578.863,73.344 555.269,67.157 537.927,77.688 C530.453,82.227 523.456,89.808 514.794,88.619 C511.17,88.121 507.849,86.057 504.194,85.911 C498.211,85.672 493.368,90.471 489.344,94.906 C484.249,100.521 478.855,108.517 482.805,114.988 C484.386,117.577 487.16,119.169 489.889,120.491 C503.516,127.092 520.822,131.46 526.15,145.634 C527.346,148.816 527.801,152.294 529.483,155.248 C533.137,161.666 541.618,164.08 545.362,170.447 C548.531,175.834 547.53,182.673 549.382,188.642 C551.602,195.794 557.623,200.975 562.167,206.928" fill="#7FC074"/>
    <path d="M394.249,93.97 C404.889,91.689 415.207,100.573 426.043,99.568 C431.197,99.09 435.897,96.402 440.99,95.475 C451.175,93.621 461.148,98.931 470.143,104.057 C487.269,113.818 504.736,123.851 517.732,138.674 C523.044,144.733 527.524,151.505 533.092,157.331 C536.979,161.399 541.49,165.145 543.714,170.313 C546.026,175.685 545.549,181.921 547.75,187.339 C550.757,194.737 558.086,199.265 563.551,205.087 C569.642,211.574 573.634,220.479 572.57,229.314 C571.505,238.149 564.554,246.435 555.71,247.421 C553.081,247.715 550.418,247.391 547.78,247.592 C540.171,248.174 533.634,252.979 527.561,257.6 C518.888,264.198 510.216,270.796 501.544,277.395 C488.813,287.081 474.695,297.237 458.705,296.755 C448.198,296.439 438.481,291.509 428.716,287.616 C417.065,282.97 404.868,279.691 392.457,277.869 C380.763,276.153 368.425,275.579 358.255,269.557 C340.451,259.015 335.407,236.004 332.055,215.586 C328.989,196.905 325.923,178.224 322.856,159.543 C321.036,148.455 319.412,136.262 325.269,126.672 C335.852,109.344 361.945,112.191 379.481,101.958 C384.343,99.121 388.745,95.15 394.249,93.97" fill="#B5D260"/>
    <path d="M307.547,47.296 C303.554,40.439 296.36,35.872 292.495,28.942 C290.084,24.62 289.058,19.522 285.975,15.65 C282.788,11.646 277.824,9.501 272.913,8.063 C253.712,2.441 232.087,5.767 215.461,16.899 C213.323,18.33 211.153,19.929 208.604,20.286 C206.743,20.547 204.866,20.114 202.998,19.905 C194.299,18.935 185.636,22.958 179.103,28.783 C172.569,34.608 167.81,42.116 163.138,49.518 C185.083,70.352 208.331,89.813 232.702,107.748 C235.998,110.174 239.488,112.645 243.536,113.244 C247.057,113.765 250.611,112.808 254.041,111.859 C266.321,108.463 278.601,105.067 290.881,101.67 C293.655,100.903 296.509,100.097 298.775,98.323 C301.922,95.859 303.464,91.923 304.867,88.181 C309.835,74.937 314.665,59.52 307.547,47.296" fill="#7FC074"/>
    <path d="M275.041,276.033 C264.241,245.387 237.995,221.328 230.779,189.647 C228.271,178.639 228.717,165.786 236.627,157.73 C244.055,150.165 256.299,149.07 266.311,152.555 C276.324,156.041 284.521,163.32 291.959,170.875 C295.396,152.696 311.84,137.791 330.268,136.15 C348.697,134.509 367.515,146.275 374.109,163.561 C378.436,174.904 377.764,187.463 376.819,199.566 C375.758,213.137 374.431,226.688 372.839,240.207 C372.408,243.867 371.923,247.632 370.114,250.843 C368.506,253.699 365.971,255.897 363.486,258.035 C356.859,263.738 350.231,269.44 343.604,275.143 C336.934,280.882 330.044,286.75 321.716,289.591 C311.474,293.085 300.286,291.606 289.572,290.087 C287.022,289.726 284.39,289.336 282.197,287.987 C278.155,285.502 276.618,280.507 275.041,276.033" fill="#F3F6D9"/>
    <path d="M222.894,328.422 C218.585,321.663 220.526,311.675 227.052,307.021 C232.172,303.37 239.522,302.665 243.058,297.466 C244.318,295.613 244.923,293.382 246.149,291.507 C249.778,285.957 257.428,285.116 264.053,284.827 C272.599,272.929 268.677,255.345 258.698,244.622 C248.719,233.898 234.237,228.671 220.052,225.015 C204.833,221.093 187.358,218.928 174.527,228.001 C162.026,236.84 158.047,253.547 157.255,268.836 C157.102,271.782 156.983,274.898 155.382,277.376 C154.192,279.218 152.318,280.484 150.567,281.804 C129.534,297.658 122.228,329.755 135.616,352.437 C149.004,375.119 182.051,383.958 204.253,369.789 C207.725,367.573 211.226,364.178 210.815,360.08 C210.375,355.693 205.63,352.757 204.926,348.405 C204.425,345.314 206.1,342.294 208.023,339.824 C211.902,334.841 217.075,330.875 222.894,328.422" fill="#E0564C"/>
    <path d="M108.252,324.23 C115.774,325.519 123.296,326.808 130.818,328.097 C128.611,313.312 135.324,297.737 147.082,288.505 C158.84,279.272 175.082,276.384 189.55,280.149 C193.699,281.229 198.054,282.822 202.146,281.542 C204.33,280.858 206.182,279.414 207.981,277.999 C216.229,271.51 224.478,265.02 232.726,258.531 C237.019,267.979 244.764,275.812 254.162,280.212 C255.747,271.036 254.629,261.411 250.983,252.843 C255.962,253.56 261.123,252.972 265.813,251.153 C241.652,232.421 229.518,199.401 235.8,169.482 C237.378,161.971 241.707,153.34 249.376,153.058 C252.584,152.94 255.614,154.399 258.492,155.823 C270.551,161.793 282.611,167.764 294.67,173.734 C303.117,159.542 311.564,145.349 320.012,131.157 C306.014,137.778 294.037,148.602 286.038,161.86 C273.787,156.42 264.037,145.743 251.079,142.311 C232.031,137.267 211.091,151.16 205.301,169.994 C199.51,188.829 207.151,210.152 221.369,223.794 C213.453,219.934 203.17,221.66 196.949,227.895 C205.947,233.565 215.363,238.574 225.093,242.869 C219.28,242.556 216.126,249.252 213.09,254.219 C206.339,265.265 192.623,271.595 179.838,269.565 C180.359,262.191 180.881,254.817 181.403,247.443 C173.341,252.021 165.832,257.573 159.092,263.94 C156.375,261.907 153.659,259.875 150.942,257.842 C143.118,273.338 125.818,283.532 108.472,282.868 C115.649,287.777 122.827,292.687 130.005,297.596 C120.927,304.745 113.444,313.907 108.252,324.23" fill="#00A766"/>
    <path d="M148.856,328.494 C153.711,329.549 158.137,325.554 161.118,321.58 C164.232,317.428 166.96,312.539 166.577,307.363 C166.194,302.187 161.47,297.109 156.377,298.109 C155.102,298.359 153.92,298.951 152.814,299.631 C147.527,302.879 143.661,308.357 142.372,314.426 C141.18,320.042 143.245,327.275 148.856,328.494" fill="#FFFFFE"/>
    <path d="M54.158,51.249 C55.383,49.987 56.634,48.243 55.961,46.618 C34.763,46.631 14.119,59.764 5.125,78.958 C2.708,84.116 1.181,90.501 4.283,95.277 C5.943,97.831 8.659,99.469 11.281,101.018 C15.616,103.579 20.049,106.179 24.975,107.223 C25.509,102.259 26.042,97.295 26.576,92.331 C27.13,87.176 27.707,81.933 29.746,77.166 C34.453,66.163 45.82,59.835 54.158,51.249" fill="#ABCDD8"/>
    <path d="M200.885,126.942 C199.206,128.367 198.25,130.442 197.296,132.426 C179.469,169.5 143.789,197.477 103.534,205.948 C85.369,209.771 66.129,209.933 49.308,217.785 C52.594,221.561 58.083,222.297 63.065,222.783 C93.258,225.727 123.451,228.67 153.644,231.613 C160.296,232.262 167.085,232.903 173.603,231.426 C178.065,230.415 182.242,228.444 186.378,226.488 C196.155,221.863 205.931,217.238 215.708,212.613 C201.624,196.255 203.795,168.513 220.252,154.545 C236.71,140.578 264.435,142.945 278.287,159.5 C280.382,162.005 282.818,165.063 286.066,164.731 C288.719,164.46 290.525,161.988 291.901,159.703 C304.53,138.724 310.715,113.924 309.416,89.472 C279.646,108.884 245.121,120.948 209.74,124.302 C206.622,124.597 203.272,124.916 200.885,126.942" fill="#ABCDD8"/>
    <path d="M608.266,209.247 C606.519,208.998 604.602,208.655 603.492,207.285 C602.643,206.236 602.465,204.814 602.287,203.477 C600.647,191.161 596.208,179.226 589.402,168.831 C585.729,176.493 582.799,184.51 580.665,192.735 C578.791,199.962 577.53,207.344 575.456,214.517 C572.028,226.375 566.369,237.585 558.865,247.385 C563.891,251.747 568.917,256.108 573.943,260.469 C576.028,262.278 578.417,264.198 581.174,264.043 C584.682,263.846 587.013,260.48 589.005,257.585 C595.434,248.237 603.967,240.344 613.787,234.662 C624.54,228.44 637.297,224.426 644.687,214.44 C632.547,212.709 620.406,210.978 608.266,209.247" fill="#CC5952"/>
    <path d="M488.399,155.058 C485.382,155.48 482.622,156.933 479.933,158.362 C474.537,161.229 469.142,164.095 463.746,166.962 C459.559,157.348 454.57,146.901 444.963,142.698 C440.388,152.659 439.473,164.252 442.427,174.807 C443.153,177.4 444.114,180.021 443.875,182.703 C443.674,184.955 442.643,187.033 441.77,189.119 C439.314,194.982 438.007,201.323 437.944,207.68 C447.772,209.174 457.6,210.667 467.428,212.161 C468.402,212.309 469.461,212.443 470.319,211.959 C471.336,211.385 471.732,210.146 472.043,209.021 C473.774,202.757 475.505,196.494 477.236,190.23 C477.853,187.997 478.482,185.734 479.657,183.737 C481.268,180.996 483.792,178.939 486.02,176.671 C491.13,171.471 494.841,164.909 496.662,157.85 C494.791,155.446 491.415,154.636 488.399,155.058" fill="#CC5952"/>
    <path d="M248.552,409.336 C249.979,413.94 252.169,418.307 255.005,422.204 C262.406,418.805 269.807,415.406 277.207,412.007 C277.907,417.087 284.01,419.919 289.056,419.004 C294.103,418.088 298.232,414.586 302.097,411.214 C302.864,416.741 303.632,422.269 304.399,427.796 C309.966,431.586 319.233,424.903 323.698,429.945 C326.751,433.393 324.303,439.335 326.935,443.114 C329.578,446.908 335.451,446.122 339.597,444.075 C343.742,442.028 347.953,439.052 352.517,439.795 C350.511,445.312 359.464,448.515 364.76,445.982 C370.055,443.449 374.723,438.39 380.565,438.966 C383.392,439.245 385.882,440.849 388.451,442.061 C400.158,447.578 415.343,444.416 423.874,434.684 C425.871,432.407 428.397,429.517 431.281,430.443 C433.532,431.165 434.419,433.84 436.146,435.455 C439.621,438.706 445.49,436.814 448.923,433.519 C452.357,430.224 454.646,425.769 458.515,422.999 C464.553,418.677 472.682,419.515 480.066,418.729 C487.449,417.942 496.009,413.465 495.801,406.043 C501.991,409.692 510.439,409.02 515.974,404.438 C521.51,399.856 523.748,391.683 521.319,384.92 C538.454,387.433 555.361,369.99 552.316,352.942 C564.282,351.76 571.171,334.966 563.483,325.721 C571.576,321.776 574.256,309.772 568.609,302.76 C578.617,294.213 584.275,280.813 583.422,267.679 C570.943,252.006 553.032,240.743 533.498,236.289 C532.615,241.17 530.861,247.018 526.028,248.132 C523.28,248.765 520.41,247.543 517.61,247.875 C509.697,248.814 508.428,259.692 509.326,267.61 C502.783,269.243 496.24,270.876 489.696,272.51 C491.825,267.206 489.958,260.579 485.374,257.166 C489.591,253.24 494.19,247.559 491.665,242.381 C490.22,239.416 486.916,237.942 484.425,235.781 C478.434,230.585 477.72,220.401 482.927,214.42 C467.877,213.351 452.068,212.033 439.506,203.677 C436.246,201.509 433.115,198.832 429.266,198.117 C419.694,196.339 412.392,208.134 413.914,217.75 C406.392,216.617 398.547,217.709 391.621,220.855 C390.474,229.348 388.659,237.75 386.199,245.959 C373.985,245.904 362.102,253.762 357.37,265.021 C352.565,259.694 343.281,260.971 338.112,265.946 C332.943,270.922 330.992,278.323 329.87,285.409 C320.783,279.139 307.426,280.014 299.234,287.415 C296.112,280.493 286.212,277.768 279.987,282.117 C274.66,285.838 270.906,293.882 264.528,292.641 C260.884,291.931 258.416,288.167 254.767,287.481 C249.2,286.434 245.372,292.591 242.047,297.176 C236.265,305.149 227.099,310.581 217.328,311.823 C219.697,317.802 222.065,323.781 224.433,329.76 C215.41,334.191 207.961,341.752 203.666,350.841 C212.988,355.325 215.893,369.312 209.128,377.137 C214.02,380.249 219.404,382.587 225.018,384.036 C225.152,389.935 225.286,395.833 225.42,401.731 C231.603,408.285 241.704,415.193 248.552,409.336" fill="#EECE7B"/>
    <path d="M587.565,273.344 C584.684,272.564 581.803,271.783 578.922,271.003 C578.445,263.095 575.634,255.342 570.93,248.966 C569.242,256.251 567.554,263.536 565.865,270.821 C559.185,271.446 552.505,272.072 545.824,272.697 C544.513,281.506 545.635,290.665 549.034,298.897 C539.523,298.036 530.3,306.779 530.651,316.322 C530.753,319.08 531.487,322.051 530.136,324.458 C528.374,327.596 524.167,328.042 520.804,329.324 C511.18,332.99 507.767,347.229 514.682,354.861 C506.695,355.84 499.313,360.88 495.492,367.962 C494.529,369.747 493.739,371.704 492.222,373.052 C486.566,378.076 478.648,370.927 471.909,367.49 C461.042,361.947 448.005,366.944 436.879,371.946 C440.603,380.262 443.248,392.232 435.27,396.633 C432.33,398.255 428.769,398.153 425.542,399.083 C418.558,401.095 413.591,408.555 414.429,415.775 C407.034,418.444 400.876,409.986 394.116,405.971 C384.308,400.147 371.842,403.897 361.114,407.774 C362.812,402.218 360.049,395.643 354.893,392.966 C349.737,390.29 342.77,391.814 339.203,396.399 C336.483,386.582 328.055,379.586 320.078,373.25 C318.811,372.243 317.544,371.237 316.277,370.23 C311.17,366.173 306.062,362.115 300.954,358.058 C302.902,353.593 304.849,349.128 306.797,344.663 C307.919,342.092 309.213,339.331 311.701,338.035 C317.893,334.81 324.84,343.032 331.692,341.694 C340.448,339.986 339.766,326.072 347.044,320.914 C352.108,317.326 358.991,319.234 365.176,319.745 C371.361,320.256 379.39,317.219 379.025,311.023 C386.74,314.319 395.838,314.218 403.478,310.751 C405.779,309.706 408.17,308.336 410.662,308.756 C413.075,309.163 414.858,311.13 416.721,312.716 C424.528,319.362 436.875,319.948 445.277,314.073 C446.465,313.241 447.573,312.302 448.679,311.364 C451.71,308.794 454.741,306.223 457.772,303.653 C464.189,304.803 471.146,302.109 475.115,296.937 C476.795,294.748 478.121,292.037 480.645,290.922 C482.368,290.16 484.343,290.301 486.182,289.897 C491.774,288.669 495.105,282.547 495.324,276.827 C495.543,271.106 493.447,265.593 491.891,260.083 C491.345,258.151 490.862,256.105 491.337,254.154 C492.018,251.352 494.568,249.21 494.934,246.35 C495.932,238.535 480.971,235.007 483.139,227.432 C483.709,225.44 485.451,223.946 486.024,221.955 C487.547,216.669 480.691,213.176 475.323,211.978 C465.903,209.875 456.483,207.772 447.064,205.67 C448.282,214.849 449.5,224.029 450.719,233.209 C445.82,233.031 440.922,232.853 436.023,232.676 C437.793,241.625 440.057,250.476 442.8,259.176 C436.669,260.716 430.373,262.332 425.251,266.036 C420.128,269.739 416.388,276.075 417.613,282.276 C410.974,279.805 403.813,278.751 396.744,279.203 C395.412,284.893 394.08,290.582 392.748,296.272 C384.616,293.334 376.166,291.281 367.593,290.16 C367.613,296.784 363.453,303.24 357.412,305.959 C351.371,308.677 343.78,307.509 338.835,303.1 C332.967,309.133 340.7,322.535 333.218,326.388 C331.372,327.338 329.172,327.202 327.113,326.935 C321.159,326.163 315.324,324.487 309.868,321.982 C307.174,324.65 308.815,329.812 306.124,332.484 C300.645,337.924 292.366,323.927 285.364,327.181 C281.917,337.862 278.469,348.542 275.021,359.223 C262.897,353.908 248.845,353.128 236.207,357.069 C236.615,347.882 238.143,338.746 240.747,329.927 C233.798,327.267 225.378,328.99 220.032,334.165 C220.169,330.913 220.306,327.661 220.444,324.41 C212.661,330.28 206.561,338.356 203.042,347.447 C213.857,352.223 213.364,367.847 209.173,378.901 C215.919,378.668 222.717,380.074 228.818,382.963 C223.076,386.973 224.542,396.508 229.707,401.237 C234.874,405.967 242.163,407.343 248.951,409.069 C254.68,410.525 261.477,413.888 261.281,419.797 C266.514,416.406 272.877,412.884 278.641,415.264 C280.651,416.094 282.324,417.574 284.269,418.547 C290.719,421.774 299.645,417.852 301.63,410.918 C301.745,417.336 301.86,423.754 301.976,430.172 C312.591,430.881 323.207,431.59 333.823,432.299 C334.903,437.207 335.983,442.115 337.064,447.022 C348.609,437.21 367.994,438.677 377.931,450.115 C377.193,442.654 387.49,439.36 394.834,440.868 C402.178,442.376 410.284,445.813 416.67,441.885 C421.91,438.662 424.855,430.951 431.006,431.087 C437.471,431.229 443.306,440.483 448.509,436.645 C448.33,429.313 455.93,424.232 463.027,422.382 C470.123,420.531 477.972,420.235 483.84,415.836 C486.725,413.674 488.961,410.616 492.193,409.019 C497.568,406.363 503.937,408.444 509.929,408.65 C515.921,408.857 523.385,404.955 522.263,399.066 C521.973,397.545 521.105,396.065 521.403,394.546 C521.771,392.668 523.716,391.604 525.451,390.795 C536.408,385.692 547.366,380.588 558.323,375.484 C556.176,370.267 554.03,365.05 551.884,359.833 C560.199,355.281 569.854,347.953 567.663,338.731 C567.094,336.335 565.707,334.056 565.928,331.603 C566.374,326.629 572.902,324.199 574.03,319.334 C574.723,316.34 573.162,313.315 572.943,310.25 C572.701,306.85 574.116,303.576 575.502,300.462 C579.523,291.423 583.544,282.383 587.565,273.344" fill="#BF9E4A"/>
    <path d="M233.955,51.111 C219.519,29.423 187.011,22.387 164.899,36.165 C162.365,37.744 159.907,39.576 157.024,40.352 C151.141,41.935 145.15,38.823 139.646,36.211 C125.914,29.695 110.295,25.756 95.461,29.071 C86.684,31.032 78.665,35.407 70.779,39.732 C65.001,42.9 58.602,46.897 57.461,53.387 C43.932,57.55 32.384,67.747 26.578,80.656 C22.396,89.956 21.701,102.18 29.092,109.204 C32.188,112.146 36.28,113.766 40.299,115.208 C112.689,141.197 192.932,130.841 267.692,112.772 C273.496,111.369 279.789,109.593 283.237,104.718 C287.759,98.324 285.229,88.933 279.672,83.415 C274.114,77.896 266.349,75.335 258.856,73.055 C254.243,71.651 249.499,70.226 245.695,67.264 C240.412,63.152 237.665,56.684 233.955,51.111" fill="#FFFBD2"/>
    <path d="M208.005,114.127 C207.362,113.971 206.876,113.459 206.431,112.97 C202.358,108.484 198.471,103.83 194.784,99.023 C205.365,92.883 215.947,86.744 226.529,80.604 C230.581,85.158 233.108,91.047 233.615,97.122 C225.95,102.492 218.285,107.862 210.62,113.232 C209.841,113.778 208.929,114.352 208.005,114.127" fill="#E77C56"/>
    <path d="M92.223,56.576 C91.427,56.036 90.563,55.507 89.601,55.461 C88.749,55.419 87.93,55.763 87.153,56.116 C77.722,60.391 69.31,66.898 62.802,74.953 C69.428,78.571 76.055,82.189 82.681,85.808 C90.537,81.469 98.392,77.13 106.248,72.791 C103.094,66.287 98.205,60.635 92.223,56.576" fill="#E77C56"/>
    <path d="M165.938,63.68 C164.817,61.911 162.571,61.29 160.526,60.834 C155.383,59.689 150.204,58.703 145,57.879 C144.197,57.752 143.313,57.645 142.627,58.08 C141.871,58.561 141.62,59.529 141.431,60.404 C139.489,69.398 137.546,78.391 135.604,87.385 C145.654,89.279 155.704,91.172 165.754,93.066 C166.974,84.615 167.34,76.042 166.844,67.517 C166.767,66.19 166.65,64.803 165.938,63.68" fill="#E77D90"/>
    <path d="M98.677,108.773 C96.284,104.224 99.236,98.31 103.715,95.787 C106.043,94.475 108.678,93.833 111.276,93.206 C112.408,92.933 113.622,92.663 114.712,93.074 C116.441,93.726 117.133,95.755 117.613,97.539 C118.611,101.25 119.609,104.96 120.607,108.67 C117.06,110.754 113.387,112.883 109.306,113.403 C105.225,113.923 100.592,112.414 98.677,108.773" fill="#99C973"/>
    <path d="M822.674,289.848 C819.663,282.5 819.995,274.864 815.996,268.699 C798.876,242.308 765.633,219.552 730.288,211.931 C731.344,207.587 733.739,203.345 734.74,199.688 C744.014,165.803 707.784,140.063 689.104,131.789 C674.063,125.126 641.829,127.534 631.223,136.241 C625.675,132.513 627.186,116.133 624.544,109.527 C622.251,103.792 610.392,87.505 605.622,83.926 C593.694,74.978 571.499,65.624 552.194,73.908 C546.868,76.194 541.99,83.41 536.61,85.039 C527.288,87.863 518.91,77.881 507.67,80.587 C492.957,84.129 488.975,95.171 479.843,103.962 C478.698,104.86 479.569,104.373 477.617,105.075 C471.478,98.428 457.799,88.823 441.998,92.831 C439.506,93.463 435.771,96.51 430.867,95.057 C428.018,94.213 423.56,90.364 420.849,89.492 C402.85,83.7 380.298,98.25 375.213,106.188 C348.847,104.411 340.142,110.416 328.463,129.563 C321.539,129.641 315.648,130.832 311.766,134.015 C311.024,134.015 310.282,134.015 309.54,134.015 C311.395,124.369 313.25,114.721 315.106,105.075 C315.106,95.8 315.106,86.523 315.106,77.248 C316.117,72.599 318.735,53.205 317.332,48.307 C314.564,38.647 302.117,34.093 295.07,28.272 C290.492,24.49 291.784,14.309 287.278,10.462 C275.759,0.628 255.404,1.823 238.302,0.445 C235.541,2.269 232.028,1.419 228.285,2.671 C221.177,5.046 214.874,10.78 211.588,17.141 C204.096,16.766 201.094,12.032 193.779,13.802 C178.703,17.449 168.325,28.267 161.499,40.516 C148.924,37.564 111.989,22.283 98.053,26.046 C82.751,30.177 68.96,39.966 54.643,44.968 C50.191,45.339 45.738,45.71 41.286,46.081 C27.185,51.072 5.534,70.807 1.215,85.039 C0.329,87.955 2.125,90.203 2.328,91.718 C4.433,107.442 2.612,121.416 6.78,132.902 C15.921,158.097 21.948,180.544 35.72,200.801 C40.556,207.914 49.814,212.401 54.643,219.723 C85.759,219.565 116.959,219.779 149.255,219.723 C159.396,219.705 176.83,213.588 184.874,218.61 C186.358,218.61 187.842,218.61 189.327,218.61 C189.327,218.981 189.327,219.352 189.327,219.723 C180.783,224.831 170.535,232.934 164.839,240.872 C161.844,245.046 161.2,249.924 158.16,254.229 C155.216,258.396 147.356,260.519 143.69,264.247 C141.981,265.984 141.038,270.584 139.238,272.038 C135.899,272.409 132.559,272.78 129.22,273.151 C122.021,275.547 112.095,280.448 105.845,284.282 C106.414,289.133 107.112,289.096 110.297,290.961 C104.032,297.454 95.946,301.644 89.149,307.657 C82.87,313.21 78.347,320.628 72.452,326.58 C67.706,331.37 60.428,336.469 57.982,343.276 C51.534,361.219 64.134,381.661 70.226,394.478 C77.332,409.428 86.554,417.476 99.166,426.758 C109.579,434.421 120.025,444.589 132.559,450.133 C137.753,451.246 142.948,452.359 148.142,453.472 C159.009,457.079 171.318,462.305 182.648,465.716 C194.012,469.137 202.948,468.312 214.928,471.281 C249.335,479.808 290.634,480.863 326.237,489.091 C364.078,489.462 401.93,489.833 439.772,490.204 C454.382,493.377 476.479,492.852 496.539,492.43 C502.475,492.059 508.413,491.688 514.349,491.317 C538.345,496.687 570.088,494.551 593.378,489.091 C607.41,485.8 618.26,487.16 631.223,483.525 C657.547,476.145 688.186,469.118 712.479,457.924 C720.285,454.327 728.932,447.622 736.967,443.454 C745.647,438.95 754.715,436.45 762.567,431.21 C783.163,417.467 824.493,368.253 831.579,342.163 C836.148,325.34 826.623,299.483 822.674,289.848 z M499.879,88.379 C507.026,87.364 515.112,84.488 523.253,87.265 C526.217,88.276 528.546,92.439 533.271,91.718 C541.504,90.461 545.847,82.65 552.194,79.474 C572.017,69.554 600.216,83.025 608.961,95.057 C610.774,97.551 610.602,100.162 612.301,102.849 C615.631,108.115 627.735,123.78 621.205,134.015 C620.829,145.472 613.139,144.454 608.961,151.825 C600.278,150.272 596.509,143.941 587.812,141.807 C574.277,138.486 550.198,152.38 545.515,158.503 C542.513,157.476 542.255,156.591 539.95,155.164 C540.755,147.444 555.258,128.609 561.098,126.224 C565.094,124.591 572.93,124.824 576.682,123.998 C585.74,122.001 600.57,126.833 604.509,125.111 C605.621,124.74 606.735,124.368 607.848,123.998 C607.848,122.513 607.848,121.029 607.848,119.545 C601.017,119.099 584.972,115.584 578.908,119.545 C574.827,119.545 570.745,119.545 566.664,119.545 C566.664,118.803 566.664,118.061 566.664,117.319 C572.13,112.147 577.002,104.736 583.36,100.622 C586.041,98.888 588.966,99.239 591.152,97.283 C592.05,96.138 591.563,97.01 592.265,95.057 C591.894,95.057 591.522,95.057 591.152,95.057 C591.152,94.686 591.152,94.315 591.152,93.944 C573.051,94.797 546.084,131.941 537.724,145.146 C531.224,141.228 534.99,107.021 538.836,102.849 C537.859,100.221 538.418,101.012 536.61,99.509 C535.591,98.31 536.703,99.408 535.497,98.396 C531.989,103.772 524.054,126.638 528.819,135.128 C528.819,138.467 528.819,141.807 528.819,145.146 C526.897,144.428 527.729,144.928 526.593,144.033 C519.727,141.869 521.952,134.036 517.688,129.563 C510.779,122.315 503.257,118.382 488.748,118.432 C487.256,115.417 485.75,112.596 483.182,110.64 C485.17,100.184 494.817,95.924 499.879,88.379 z M430.867,101.735 C438.08,103.327 447.021,95.024 457.581,98.396 C470.313,102.462 479.453,113.963 485.408,125.111 C498.92,124.195 508.448,126.699 514.349,136.241 C516.247,139.312 515.261,145.52 517.688,148.485 C521.027,149.598 524.366,150.711 527.706,151.825 C534.299,156.101 538.468,163.702 544.402,168.521 C544.49,175.149 543.959,179.506 541.063,182.991 C541.459,184.385 552.798,194.063 554.42,195.235 C553.95,198.727 553.232,200.417 552.194,203.027 C554.606,203.79 555.485,204.451 557.759,203.027 C566.127,203.877 565.802,209.49 570.003,214.158 C570.037,217.402 570.058,220.225 568.89,221.949 C568.89,222.32 568.89,222.691 568.89,223.062 C568.148,222.691 567.406,222.32 566.664,221.949 C566.664,222.32 566.664,222.691 566.664,223.062 C566.293,223.062 565.921,223.062 565.551,223.062 C565.956,228.051 565.37,227.776 570.003,228.628 C568.337,234.44 564.71,237.067 562.211,241.985 C553.946,241.387 545.048,237.053 541.063,231.967 C532.385,231.971 530.538,239.254 529.932,246.437 C527.422,246.557 520.764,245.538 517.688,247.55 C510.101,250.109 508.994,258.924 507.67,267.586 C504.702,267.957 501.733,268.328 498.765,268.699 C498.01,263.108 495.908,260.022 492.087,257.568 C493.06,252.489 496.687,249.296 499.879,246.437 C499.284,236.726 492.826,233.445 486.522,229.741 C488.515,220.077 496.285,211.824 498.765,201.914 C508.832,204.503 504.224,219.014 503.218,227.515 C504.331,227.515 505.444,227.515 506.557,227.515 C507.173,226.116 507.895,224.154 508.783,223.062 C508.783,222.691 508.783,222.32 508.783,221.949 C513.638,224.403 514.744,234.491 516.575,239.759 C517.317,240.13 518.059,240.501 518.801,240.872 C518.801,240.501 518.801,240.13 518.801,239.759 C519.172,239.759 519.543,239.759 519.914,239.759 C519.343,211.948 501.508,199.636 496.539,177.426 C494.684,177.055 492.828,176.684 490.974,176.313 C491.699,189.414 500.397,201.824 487.634,211.931 C486.331,212.818 479.888,210.07 475.391,209.705 C476.509,197.218 492.007,168.319 498.765,160.729 C498.711,157.293 498.378,155.024 497.652,152.938 C484.223,153.744 474.88,161.572 464.259,166.295 C460.806,158.65 456.691,143.724 448.676,140.694 C447.531,139.795 448.403,140.282 446.45,139.581 C443.147,144.837 436.586,157.823 439.772,168.521 C440.458,170.827 443.899,172.254 443.111,176.313 C441.996,182.049 438.298,189.001 437.546,196.348 C437.174,196.348 436.803,196.348 436.432,196.348 C435.079,192.44 436.513,185.967 435.319,180.765 C433.797,174.132 431.266,167.301 430.867,159.616 C429.383,159.616 427.898,159.616 426.415,159.616 C426.585,173.553 430.107,181.404 430.867,194.122 C425.684,193.996 422.268,194.019 419.736,196.348 C416.152,194.092 417.216,184.277 417.51,178.539 C417.139,178.539 416.768,178.539 416.397,178.539 C416.397,178.168 416.397,177.797 416.397,177.426 C413.829,177.787 413.631,177.943 411.944,178.539 C412.046,192.552 414.888,201.055 414.171,211.931 C407.777,211.904 401.1,212.405 397.474,215.271 C390.981,217.536 392.004,222.41 388.57,227.515 C388.689,233.908 388.29,238.355 386.343,241.985 C384.488,241.985 382.633,241.985 380.778,241.985 C380.982,237.219 383.138,219.682 385.23,216.384 C387.027,213.45 385.172,215.182 389.683,215.271 C402.836,182.963 431.915,140.87 458.694,122.884 C458.694,121.4 458.694,119.916 458.694,118.432 C448.572,120.289 442.64,131.146 436.432,137.355 C421.44,152.35 408.26,169.377 396.361,187.444 C392.162,193.82 390.991,202.582 386.343,208.592 C386.343,208.963 386.343,209.334 386.343,209.705 C385.972,209.705 385.601,209.705 385.23,209.705 C385.112,194.999 384.324,183.767 381.891,171.86 C380.778,168.15 379.665,164.439 378.552,160.729 C387.402,140.841 405.839,115.294 423.075,103.962 C423.075,102.849 423.075,101.735 423.075,100.622 C421.591,100.622 420.107,100.622 418.623,100.622 C403.936,115.92 380.36,132.503 377.439,158.503 C371.919,154.793 367.06,146.993 362.969,141.807 C361.745,140.855 367.736,131.647 369.647,129.563 C374.981,123.744 395.942,100.578 403.04,99.509 C402.669,98.396 402.298,97.283 401.927,96.17 C415.78,91.054 420.998,99.558 430.867,101.735 z M584.473,226.402 C588.588,230.809 594.76,235.591 600.057,238.646 C599.247,245.425 585.674,255.099 581.134,259.794 C575.243,258.733 569.396,251.585 567.777,246.437 C566.879,245.292 567.366,246.163 566.664,244.211 C571.502,239.308 577.368,232.009 581.134,226.402 C582.247,226.402 583.36,226.402 584.473,226.402 z M582.247,218.61 C582.434,207.175 586.048,185.171 591.152,178.539 C591.152,177.797 591.152,177.055 591.152,176.313 C599.077,180.186 600.851,198.507 601.169,209.705 C606.01,211.368 613.905,209.404 620.092,210.818 C625.814,212.126 631.84,214.567 637.901,215.271 C635.217,222.705 613.917,233.286 605.622,236.419 C599.546,229.997 590.571,226.085 585.586,218.61 C584.473,218.61 583.36,218.61 582.247,218.61 z M580.021,294.3 C577.991,298.316 570.799,299.351 566.664,300.979 C567.284,305.819 568.586,314.1 571.116,317.675 C570.138,323.427 566.442,325.43 561.098,326.58 C561.39,331.191 562.244,334.997 564.438,337.71 C564.532,348.278 558.491,351.478 547.741,351.068 C545.04,359.956 548.19,368.369 542.176,375.556 C538.182,384.967 533.561,378.505 525.479,382.234 C518.401,385.5 519.219,395.37 516.575,403.383 C509.723,405.071 498.496,408.825 494.313,406.722 C484.167,407.081 488.434,410.839 483.182,414.514 C480.552,416.354 476.621,415.958 474.277,417.853 C455.529,417.295 452.575,423.163 446.45,434.549 C438.991,434.399 434.921,432.455 431.98,427.871 C421.409,429.842 416.034,439.227 406.379,441.228 C402.669,440.486 398.958,439.744 395.248,439.002 C387.745,438.514 385.064,439.072 381.891,434.549 C374.968,435.854 367.828,442.633 362.969,446.793 C356.476,445.832 352.435,441.312 349.611,436.776 C342.336,437.039 333.744,442.897 330.689,441.228 C326.5,439.447 323.866,430.459 321.784,426.758 C317.332,426.387 312.879,426.016 308.427,425.645 C308.427,425.273 308.427,424.903 308.427,424.532 C308.056,424.532 307.685,424.532 307.314,424.532 C307.34,421.496 307.358,419.431 308.427,417.853 C308.984,406.182 307.639,404.103 299.522,401.157 C299.972,395.314 301.892,392.924 305.088,390.026 C303.62,383.242 294.299,375.688 290.617,366.651 C296.684,363.764 304.152,360.998 309.54,357.746 C309.459,352.155 309.444,345.582 311.766,342.163 C312.137,341.05 312.508,339.937 312.88,338.824 C320.836,339.759 331.888,346.941 337.367,342.163 C343.27,339.868 347.752,325.87 348.498,318.788 C355.201,319.263 363.693,323.809 367.421,322.127 C375.349,321.857 377.946,318.364 380.778,313.223 C391.134,314.748 404.14,318.169 409.718,309.883 C418.103,310.873 418.359,317.524 424.189,319.901 C432.516,323.297 433.183,315.233 440.885,323.24 C451.746,322.563 452.956,313.507 459.807,308.77 C461.416,307.552 466.331,310.864 469.825,308.77 C475.33,305.937 474.249,297.079 478.73,293.187 C481.353,292.192 484.904,295.468 488.748,293.187 C495.545,290.203 491.414,281.955 495.426,276.491 C498.148,272.782 508.291,274.599 512.122,272.038 C514.73,268.415 516.166,256.869 518.801,252.003 C522.045,251.968 524.868,251.947 526.593,253.116 C536.329,252.79 536.18,245.417 538.836,238.646 C555.174,241.61 572.239,256.718 578.908,269.812 C581.194,269.368 581.053,269.536 582.247,268.699 C584.815,269.061 585.012,269.216 586.699,269.812 C585.813,277.019 582.065,276.434 580.021,282.056 C579.075,284.578 582.705,290.013 580.021,294.3 z M230.511,381.121 C228.706,378.235 218.564,377.248 214.928,376.669 C212.535,362.744 219.391,359.608 209.362,349.954 C209.465,339.34 217.788,335.399 224.945,332.145 C225.927,327.6 226.566,320.466 223.832,316.562 C225.294,305.05 238.55,308.517 246.094,303.205 C248.911,301.221 251.025,293.924 252.773,290.961 C258.366,288.598 266.823,287.997 271.695,292.074 C278.819,291.395 282.298,285.819 285.052,280.943 C293.409,282.014 293.294,287.716 300.635,289.848 C305.508,292.139 311.349,285.683 313.993,282.056 C319.406,282.858 326.222,285.545 329.576,288.735 C333.441,288.138 334.001,287.328 337.367,286.508 C339.181,277.06 340.159,269.526 344.046,263.134 C351.208,263.863 360.103,267.19 365.195,263.134 C367.541,261.136 367.796,257.79 369.647,255.342 C370.248,254.095 389.618,244.713 394.135,241.985 C394.04,231.838 395.164,225.656 398.587,219.723 C402.736,218.102 414.343,218.996 418.623,216.384 C420.923,212.819 421.489,204.307 424.189,199.688 C428.866,199.69 431.728,199.92 434.206,201.914 C436.159,203.595 436.603,205.939 437.546,208.592 C455.945,211.933 468.783,215.961 484.295,217.497 C483.563,221.89 481.633,225.303 478.73,227.515 C479.513,234.514 488.372,239.093 493.2,241.985 C492.908,249.557 489.042,251.487 484.295,254.229 C484.861,260.342 488.079,262.911 492.087,265.36 C491.822,273.639 488.273,272.051 486.522,276.491 C484.931,280.523 488.461,282.046 486.522,285.395 C486.522,286.137 486.522,286.88 486.522,287.621 C483.94,287.369 483.382,287.402 482.069,286.508 C470.806,286.259 469.251,295.97 467.599,304.318 C463.152,303.469 462.762,302.062 458.694,300.979 C454.402,306.024 448.961,310.978 445.337,316.562 C440.24,316.124 439.587,315.319 437.546,312.11 C433.254,312.256 432.8,312.085 430.867,314.336 C423.075,313.933 416.28,307.11 413.057,302.092 C406.053,303.037 407.487,306.684 401.927,308.77 C395.646,312.842 383.879,307.878 378.552,306.544 C368.25,319.802 365.182,318.816 347.385,312.11 C346.35,313.123 345.445,313.612 344.046,314.336 C340.764,322.434 338.986,331.774 335.141,338.824 C327.986,338.035 317.991,331.593 312.88,334.371 C309.989,334.594 309.099,334.863 307.314,335.484 C306.436,339.684 303.919,356.449 301.749,357.746 C298.78,358.117 295.812,358.488 292.844,358.859 C290.247,360.714 287.649,362.57 285.052,364.425 C285.548,377.985 293.917,379.475 297.296,388.913 C297.974,389.455 294.562,396.889 292.844,398.93 C293.073,406.711 296.381,406.817 301.749,408.948 C299.585,412.154 296.654,413.069 293.957,415.627 C290.989,415.627 288.02,415.627 285.052,415.627 C282.42,412.848 280.259,411.596 278.374,407.835 C272.101,408.487 266.694,412.255 262.79,415.627 C249.36,414.469 254.112,408.182 249.433,405.609 C246.094,405.98 242.754,406.351 239.415,406.722 C236.818,404.867 234.221,403.011 231.624,401.157 C231.181,399.105 229.693,396.87 229.398,395.591 C228.03,389.674 232.597,385.205 230.511,381.121 z M131.446,335.484 C131.851,330.496 131.265,330.771 135.898,329.919 C127.81,309.849 147.442,288.654 163.725,282.056 C169.868,279.567 173.238,282.883 178.196,278.717 C200.437,278.436 220.956,285.339 224.945,303.205 C225.316,303.205 225.687,303.205 226.058,303.205 C226.058,303.576 226.058,303.947 226.058,304.318 C222.288,306.061 219.744,306.752 218.267,310.997 C217.544,312.321 217.755,317.685 219.38,319.901 C219.38,323.24 219.38,326.58 219.38,329.919 C216.412,331.403 213.443,332.887 210.475,334.371 C207.599,336.573 205.556,340.854 202.684,343.276 C202.691,352.108 205.131,356.612 210.475,359.972 C208.479,365.003 203.07,366.564 198.231,368.877 C169.725,382.502 162.942,372.367 143.69,357.746 C138.781,354.018 128.121,342.83 131.446,335.484 z M128.107,317.675 C125.139,318.417 122.17,319.159 119.202,319.901 C118.057,319.003 118.928,319.49 116.976,318.788 C119.629,311.301 127.004,307.775 131.446,302.092 C132.187,302.092 132.93,302.092 133.672,302.092 C132.132,307.59 129.365,311.695 128.107,317.675 z M193.779,272.038 C196.005,271.667 198.231,271.296 200.458,270.925 C200.458,272.038 200.458,273.151 200.458,274.264 C197.876,274.012 197.318,274.045 196.005,273.151 C194.084,272.433 194.915,272.933 193.779,272.038 z M241.642,223.062 C241.642,223.804 241.642,224.547 241.642,225.289 C236.186,223.135 227.917,221.969 222.719,218.61 C208.796,209.614 206.23,178.697 216.041,164.069 C221.436,156.023 230.594,154.351 238.302,148.485 C239.415,148.485 240.529,148.485 241.642,148.485 C239.279,156.58 232.889,162.778 230.511,170.747 C225.27,188.308 234.343,214.116 241.642,223.062 z M252.773,269.812 C252.401,270.925 252.031,272.038 251.66,273.151 C239.932,272.644 241.912,263.638 237.189,256.455 C238.276,251.493 240.37,251.971 242.755,248.664 C244.676,249.381 243.844,248.881 244.981,249.777 C251.742,255.098 249.403,263.667 252.773,269.812 z M244.981,243.098 C244.981,242.356 244.981,241.614 244.981,240.872 C251.592,241.167 253.203,242.938 257.225,245.324 C257.225,246.066 257.225,246.808 257.225,247.55 C251.497,246.319 251.706,243.657 244.981,243.098 z M233.85,240.872 C235.334,241.243 236.818,241.614 238.302,241.985 C238.05,244.566 238.083,245.124 237.189,246.437 C237.189,246.808 237.189,247.179 237.189,247.55 C234.607,246.723 234.703,246.394 232.737,245.324 C233.099,242.757 233.254,242.558 233.85,240.872 z M228.285,233.08 C227.207,232.531 226.227,229.568 224.945,228.628 C224.945,227.886 224.945,227.144 224.945,226.402 C231.626,227.367 235.155,230.318 240.529,231.967 C240.529,232.709 240.529,233.451 240.529,234.193 C238.366,233.491 231.13,234.53 228.285,233.08 z M222.719,231.967 C223.172,234.35 223.734,239.059 224.945,240.872 C224.945,241.243 224.945,241.614 224.945,241.985 C217.634,239.904 212.852,234.548 207.136,230.854 C207.136,230.483 207.136,230.112 207.136,229.741 C209.717,229.488 210.275,229.521 211.588,228.628 C217.155,229.107 218.538,230.708 222.719,231.967 z M226.058,248.664 C228.639,248.916 229.198,248.883 230.511,249.777 C231.253,249.777 231.995,249.777 232.737,249.777 C230.851,258.464 219.505,260.267 213.814,265.36 C213.072,265.36 212.33,265.36 211.588,265.36 C214.035,254.318 218.586,254.301 226.058,248.664 z M231.624,260.907 C234.853,266.458 238.426,272.337 241.642,277.604 C246.486,278.888 251.042,281.301 254.999,277.604 C259.267,272.472 259.271,260.329 254.999,255.342 C254.999,254.971 254.999,254.6 254.999,254.229 C260.004,254.322 261.074,254.928 263.904,256.455 C265.635,263.191 267.973,272.419 262.79,277.604 C263.161,278.717 263.533,279.83 263.904,280.943 C268.902,280.562 269.26,280.495 270.582,276.491 C281.451,260.543 259.35,242.771 254.999,235.306 C252.154,230.427 252.426,225.37 249.433,220.836 C241.223,208.396 230.916,191.272 237.189,170.747 C239.729,162.437 245.187,155.977 249.433,149.598 C251.72,149.155 251.578,149.322 252.773,148.485 C260.021,149.022 259.653,151.944 263.904,154.051 C273.261,151.204 278.326,159.861 283.939,164.069 C303.861,179.002 311.325,198.093 320.671,224.175 C324.525,234.93 329.369,263.339 321.784,274.264 C321.784,275.007 321.784,275.749 321.784,276.491 C318.749,276.464 316.684,276.447 315.106,275.377 C307.965,276.956 308.232,283.026 301.749,285.395 C298.194,281.809 292.477,275.759 287.278,274.264 C287.278,273.894 287.278,273.522 287.278,273.151 C286.907,273.151 286.536,273.151 286.165,273.151 C282.026,277.49 277.884,280.743 275.034,286.508 C267.991,285.382 258.723,280.594 252.773,285.395 C246.223,287.709 245.767,294.173 241.642,298.752 C240.064,300.06 237.569,300.721 236.076,302.092 C229.764,300.463 230.42,295.416 227.171,290.961 C223.276,285.619 213.975,279.788 207.136,277.604 C208.149,272.989 226.909,263.053 231.624,260.907 z M293.957,165.182 C294.755,161.703 294.691,162.846 296.183,160.729 C297.172,162.646 297.164,162.155 296.183,164.069 C296.183,164.44 296.183,164.811 296.183,165.182 C295.441,165.182 294.699,165.182 293.957,165.182 z M458.694,172.973 C455.355,173.344 452.015,173.715 448.676,174.086 C447.305,167.572 442.073,155.856 447.563,148.485 C447.563,148.114 447.563,147.743 447.563,147.372 C447.934,147.372 448.305,147.372 448.676,147.372 C448.676,147.743 448.676,148.114 448.676,148.485 C453.947,152.593 458.615,164.047 458.694,172.973 z M448.676,180.765 C449.531,179.998 451.157,179.298 452.016,178.539 C461.219,178.405 471.021,178.086 476.504,181.878 C477.246,181.878 477.988,181.878 478.73,181.878 C477.165,190.926 471.809,197.022 469.825,206.366 C460.194,207.013 453.061,205.331 444.224,204.14 C444.224,203.769 444.224,203.398 444.224,203.027 C443.853,203.027 443.482,203.027 443.111,203.027 C443.601,195.157 444.823,185.564 448.676,180.765 z M472.051,170.747 C472.051,170.376 472.051,170.005 472.051,169.634 C476.686,166.931 483.619,164.345 487.634,160.729 C488.748,160.729 489.861,160.729 490.974,160.729 C489.337,166.784 485.967,170.453 483.182,175.2 C479.717,174.368 475.231,173.123 473.164,170.747 C472.793,170.747 472.422,170.747 472.051,170.747 z M345.159,115.093 C350.482,113.688 357.232,109.943 362.969,109.527 C367.444,109.203 369.045,114.558 371.873,112.867 C377.758,111.705 386.472,103.796 389.683,99.509 C390.425,99.509 391.167,99.509 391.909,99.509 C384.587,114.547 364.38,120.489 359.629,138.468 C349.945,136.561 346.305,129.271 336.254,128.45 C338.132,123.075 342.39,119.75 345.159,115.093 z M320.671,140.694 C327.162,137.6 331.486,140.675 336.254,137.355 C367.895,139.435 386.722,176.849 378.552,214.158 C376.899,221.702 378.939,231.019 375.213,236.419 C374.026,244.926 364.795,246.734 361.855,259.794 C354.493,259.724 348.931,258.731 342.933,257.568 C336.976,263.703 332.837,268.42 332.915,280.943 C332.544,280.943 332.173,280.943 331.802,280.943 C331.802,281.314 331.802,281.685 331.802,282.056 C329.234,281.694 329.036,281.539 327.35,280.943 C327.942,273.699 330.384,266.614 331.802,259.794 C336.72,236.143 314.162,181.952 301.749,171.86 C301.898,157.391 310.949,145.327 320.671,140.694 z M310.653,139.581 C312.574,140.299 311.743,139.799 312.88,140.694 C310.867,142.028 309.743,143.113 308.427,145.146 C307.685,145.146 306.943,145.146 306.201,145.146 C307.456,141.66 308.542,141.841 310.653,139.581 z M171.517,32.724 C180.327,26.671 194.797,13.311 207.136,23.819 C217.373,22.277 217.204,14.867 223.832,10.462 C227.957,7.721 235.161,8.758 239.415,6.01 C255.467,5.97 271.083,5.927 280.6,12.689 C286.414,16.819 283.693,24.308 287.278,29.385 C290.525,33.982 298.777,35.458 302.862,39.403 C305.928,42.363 306.91,45.805 310.653,48.307 C310.653,56.84 310.653,65.376 310.653,73.908 C309.193,78.201 303.222,80.48 301.749,83.926 C300.702,86.375 303.165,87.093 302.862,88.379 C301.591,93.749 297.958,93.877 295.07,97.283 C290.387,97.077 289.042,96.573 286.165,97.283 C283.928,91.737 282.266,86.618 278.374,82.813 C280.288,79.801 295.594,78.673 299.522,78.361 C299.893,77.248 300.264,76.135 300.635,75.022 C301.534,73.876 301.047,74.748 301.749,72.795 C301.377,72.795 301.007,72.795 300.635,72.795 C296.329,71.053 283.918,76.867 273.921,75.022 C258.742,72.218 255.542,68.347 244.981,58.325 C248.62,51.949 276.823,51.257 282.826,52.76 C283.801,51.449 283.726,51.499 285.052,50.533 C284.83,47.644 284.56,46.753 283.939,44.968 C269.906,45.303 257.148,48.18 244.981,50.533 C244.981,50.162 244.981,49.792 244.981,49.42 C244.083,48.275 244.57,49.147 243.868,47.194 C246.068,45.135 263.355,25.375 263.904,23.819 C264.802,22.674 264.314,23.546 265.017,21.593 C264.646,21.593 264.274,21.593 263.904,21.593 C263.904,21.222 263.904,20.851 263.904,20.48 C255.107,22.17 246.908,32.743 242.755,39.403 C242.384,39.403 242.013,39.403 241.642,39.403 C241.872,33.703 242.378,27.534 239.415,24.932 C239.415,24.562 239.415,24.19 239.415,23.819 C239.044,23.819 238.674,23.819 238.302,23.819 C237.152,25.491 236.654,26.023 234.963,27.159 C235.089,31.753 234.263,39.416 237.189,43.855 C237.189,44.597 237.189,45.339 237.189,46.081 C223.526,41.352 192.675,17.174 173.743,34.95 C173.001,34.95 172.259,34.95 171.517,34.95 C171.517,34.208 171.517,33.466 171.517,32.724 z M287.278,99.509 C287.278,100.252 287.278,100.994 287.278,101.735 C286.907,101.735 286.536,101.735 286.165,101.735 C286.165,100.994 286.165,100.252 286.165,99.509 C286.536,99.509 286.907,99.509 287.278,99.509 z M63.548,54.986 C64.889,52.948 65.066,46.18 65.774,43.855 C70.648,41.946 75.429,43.835 78.018,42.742 C79.501,40.887 80.986,39.031 82.47,37.176 C87.39,33.931 100.605,29.583 109.184,31.611 C116.178,33.264 123.816,36.472 130.333,38.289 C139.959,40.975 152.467,40.677 158.16,47.194 C169.615,45.841 176.041,37.717 187.1,34.95 C206.574,30.079 230.201,49.126 238.302,57.212 C242.403,61.304 243.608,68.19 247.207,72.795 C252.236,76.079 260.052,75.299 265.017,78.361 C271.212,82.181 274.52,88.883 279.487,93.944 C278.757,99.247 277.273,100.492 277.261,107.301 C257.418,110.069 233.688,116.539 214.928,121.771 C202.313,123.626 189.696,125.482 177.082,127.337 C155.751,131.775 110.231,124.877 91.375,120.658 C82.1,119.916 72.822,119.174 63.548,118.432 C52.951,115.413 41.277,108.865 30.155,106.188 C25.037,82.528 38.099,65.689 54.643,57.212 C57.433,55.782 61.225,56.466 63.548,54.986 z M31.268,57.212 C36.219,53.856 42.87,53.854 47.964,50.533 C49.819,50.533 51.675,50.533 53.53,50.533 C54.549,51.733 53.436,50.635 54.643,51.647 C38.498,66.932 22.99,69.72 23.476,102.849 C14.779,100.485 13.071,95.096 7.893,89.492 C8.603,76.353 22.697,63.022 31.268,57.212 z M169.291,211.931 C138.463,218.77 88.729,214.36 56.869,213.044 C43.131,198.765 30.688,182.621 22.363,162.956 C17.976,152.592 14.478,141.223 11.232,130.676 C9.924,126.425 10.973,123.604 9.006,120.658 C9.006,114.351 9.006,108.042 9.006,101.735 C62.831,134.076 170.152,141.741 241.642,120.658 C248.688,118.58 256.525,119.552 261.677,118.432 C275.384,115.453 299.905,105.351 307.314,96.17 C308.056,96.541 308.798,96.912 309.54,97.283 C308.286,123.836 300.671,142.024 288.392,157.39 C287.819,158.553 281.596,154.35 279.487,152.938 C272.195,148.054 256.429,137.539 241.642,141.807 C236.637,143.251 226.788,146.291 222.719,149.598 C209.567,160.288 195.68,192.701 211.588,211.931 C211.588,212.674 211.588,213.416 211.588,214.158 C198.607,214.028 184.248,208.613 169.291,211.931 z M188.213,226.402 C190.921,225.03 193.861,225.653 196.005,224.175 C200.993,227.565 196.046,226.262 198.231,230.854 C200.552,235.731 211.681,242.48 217.154,244.211 C217.154,244.582 217.154,244.953 217.154,245.324 C210.894,249.498 210.477,256.045 206.023,262.02 C202.017,265.22 194.915,264.727 190.44,267.586 C187.843,267.586 185.245,267.586 182.648,267.586 C185.164,261.392 187.305,255.315 191.553,250.89 C191.021,245.848 190.519,246.85 188.213,244.211 C178.363,245.538 170.565,250.821 164.839,256.455 C164.468,256.455 164.096,256.455 163.725,256.455 C165.513,244.43 178.874,231.13 188.213,226.402 z M139.238,278.717 C142.674,278.663 144.942,278.33 147.029,277.604 C146.585,275.317 146.753,275.459 145.916,274.264 C146.263,267.802 147.886,267.958 150.368,264.247 C152.223,263.876 154.079,263.504 155.934,263.134 C155.934,264.617 155.934,266.102 155.934,267.586 C157.244,268.56 157.194,268.486 158.16,269.812 C159.644,269.812 161.128,269.812 162.612,269.812 C164.096,267.215 165.581,264.617 167.065,262.02 C171.567,257.334 177.591,255.102 182.648,250.89 C183.019,250.89 183.39,250.89 183.761,250.89 C180.422,258.309 177.082,265.732 173.743,273.151 C156.926,279.903 151.085,283.306 139.238,294.3 C135.212,295.823 121.553,289.934 118.089,286.508 C117.347,286.508 116.604,286.508 115.863,286.508 C118.01,282.413 134.169,275.478 139.238,278.717 z M826.013,343.276 C817.841,368.765 779.058,414.048 758.115,427.871 C749.87,433.312 740.454,435.362 731.401,440.115 C723.294,444.37 713.759,451.932 705.8,455.698 C699.957,458.463 691.027,459.068 684.651,461.263 C665.5,467.859 642.822,473.695 623.431,480.186 C612.359,483.892 598.725,483.215 587.812,485.752 C582.99,485.752 578.165,485.752 573.342,485.752 C563.722,488.049 546.964,492.028 534.384,489.091 C528.325,487.676 513.922,484.779 507.67,485.752 C488.694,488.703 453.486,488.605 435.319,484.638 C431.012,483.698 424.365,486.094 421.962,485.752 C410.989,484.187 388.814,486.34 376.326,483.525 C360.002,483.525 343.673,483.525 327.35,483.525 C290.107,474.777 248.31,474.389 212.701,465.716 C199.067,462.395 183.597,462.815 171.517,457.924 C161.182,453.74 148.317,451.659 137.011,446.793 C115.18,437.398 86.075,414.529 75.792,393.365 C69.64,380.707 56.964,364.347 63.548,345.502 C67.344,334.634 97.331,305.723 106.958,298.752 C110.164,296.431 113.392,296.181 115.863,293.187 C120.335,294.257 123.355,295.961 126.994,297.639 C121.899,305.459 114.815,313.576 108.071,319.901 C108.071,321.385 108.071,322.869 108.071,324.353 C114.57,325.66 119.399,325.442 125.88,325.467 C125.571,332.353 123.576,338.069 125.88,344.389 C134.494,368.012 179.278,397.164 204.91,372.216 C208.201,373.859 209.122,377.793 210.475,381.121 C214.281,382.703 217.822,383.476 223.832,383.347 C223.832,383.718 223.832,384.089 223.832,384.46 C224.204,384.46 224.574,384.46 224.945,384.46 C224.574,389.283 224.204,394.107 223.832,398.93 C227.646,402.738 230.655,410.392 236.076,412.288 C239.414,413.454 241.803,410.316 243.868,411.174 C245.972,412.048 249.595,418.659 253.886,420.079 C263.732,423.339 270.012,413.501 276.147,415.627 C277.823,416.208 280.632,420.409 282.826,421.192 C290.552,423.95 294.807,419.967 301.749,418.966 C301.614,424.565 301.503,424.34 301.749,428.984 C305.873,430.872 312.626,432.093 318.445,432.323 C320.176,436.208 321.282,442.611 324.01,445.68 C329.292,449.854 339.842,446.036 344.046,442.341 C348.827,444.039 353.688,449.095 357.403,452.359 C367.577,452.291 373.514,448.56 377.439,442.341 C398.784,445.527 411.928,450.115 426.415,435.662 C431.129,436.259 436.678,437.659 439.772,440.115 C453.217,440.467 455.263,432.381 459.807,424.532 C474.101,424.389 479.788,419.754 489.861,416.74 C489.861,415.627 489.861,414.513 489.861,413.401 C497.673,413.399 519.55,410.545 522.14,406.722 C524.871,402.69 522.864,394.765 525.479,391.139 C531.23,384.638 540.726,388.141 546.628,378.895 C552.005,380.552 559.495,384.175 563.325,387.8 C579.66,387.631 580.128,376.538 591.152,373.329 C607.318,368.624 617.606,380.515 631.223,377.782 C648.177,374.378 677.595,362.701 682.91,343.786 C657.218,359.434 629.979,373.596 623.547,372.241 C615.104,370.422 597.953,363.429 587.812,369.99 C581.164,370.699 574.319,377.881 571.116,382.234 C561.538,381.631 558.445,376.758 551.081,374.443 C551.822,368.507 552.565,362.569 553.307,356.633 C559.674,355.654 562.349,352.695 566.664,349.954 C568.774,342.193 569.717,338.712 567.777,329.919 C570.374,328.064 572.971,326.208 575.568,324.353 C575.684,320.466 575.944,315.439 574.455,313.223 C574.528,299.195 582.994,304.017 586.699,295.413 C591.027,285.364 581.479,284.597 592.265,274.264 C591.392,267.637 586.429,263.58 590.039,259.794 C592.885,258.069 605.836,264.237 610.074,266.473 C629.522,276.731 652.473,287.342 675.747,294.3 C675.747,293.929 675.747,293.558 675.747,293.187 C676.118,293.187 676.489,293.187 676.86,293.187 C675.605,283.142 663.621,285.294 655.711,282.056 C640.516,275.836 624.512,268.763 611.188,260.907 C606.277,258.013 600.744,257.765 596.717,254.229 C596.346,254.229 595.975,254.229 595.604,254.229 C595.604,253.858 595.604,253.487 595.604,253.116 C595.975,253.116 596.346,253.116 596.717,253.116 C603.648,238.482 641.018,229.156 647.919,215.271 C662.192,215.41 703.13,223.668 709.139,230.854 C712.576,230.8 714.844,230.467 716.931,229.741 C716.569,227.173 716.414,226.975 715.818,225.289 C697.689,220.962 678.465,214.227 660.163,209.705 C648.743,206.884 648.367,215.676 640.128,209.705 C639.757,209.705 639.386,209.705 639.015,209.705 C643.257,197.309 681.376,179.925 695.782,175.2 C695.42,172.632 695.265,172.434 694.669,170.747 C681.158,171.964 653.618,188.372 645.693,196.348 C644.951,196.348 644.209,196.348 643.467,196.348 C645.942,180.502 656.902,166.119 657.937,151.825 C647.895,153.709 635.98,195.712 633.449,207.479 C624.825,207.121 613.4,205.917 606.735,203.027 C602.282,189.686 603.456,175.843 593.378,168.521 C592.233,167.622 593.104,168.11 591.152,167.408 C583.575,179.077 578.208,196.842 576.682,214.158 C576.311,214.158 575.939,214.158 575.568,214.158 C569.994,202.288 559.418,188.756 548.854,181.878 C549.593,177.4 552.318,172.191 549.968,168.521 C549.917,156.315 573.529,143.188 588.925,147.372 C593.749,148.683 597.993,152.814 602.283,155.164 C603.618,158.606 604.154,161.094 603.396,164.069 C605.621,164.069 607.848,164.069 610.074,164.069 C612.589,162.445 609.782,158.044 611.188,155.164 C612.085,153.324 619.388,147.133 621.205,146.259 C623.431,146.259 625.658,146.259 627.884,146.259 C629.346,145.396 627.891,142.91 628.997,141.807 C638.481,132.344 657.841,136.898 674.634,134.015 C688.308,131.667 713.448,151.609 720.27,160.729 C727.2,169.995 733.057,191.476 726.949,206.366 C725.037,211.025 718.293,217.394 719.157,225.289 C720.334,236.048 732.087,246.266 735.853,256.455 C738.42,263.4 739.456,275.701 738.08,282.056 C735.684,293.118 737.196,299.586 732.514,307.657 C730.672,310.833 723.391,316.813 713.407,323.893 C719.572,322.647 725.367,320.89 730.288,317.675 C746.638,306.992 747.712,268.905 739.193,248.664 C734.535,237.598 725.359,232.624 726.949,217.497 C758.957,218.611 798.549,250.813 811.543,272.038 C814.14,279.829 816.738,287.622 819.335,295.413 C822.571,303.971 830.821,328.282 826.013,343.276" fill="#1A1919"/>
    <path d="M112.523,75.022 C110.385,64.501 97.239,59.087 91.375,51.647 C89.149,51.647 86.922,51.647 84.696,51.647 C77.894,58.494 66.462,63.447 63.548,73.908 C62.649,75.053 63.136,74.182 62.434,76.135 C89.08,97.195 86.444,88.558 112.523,75.022 z M72.452,72.795 C71.71,72.795 70.968,72.795 70.226,72.795 C72.828,65.378 80.763,62.277 85.809,57.212 C95.048,58.956 98.105,67.21 104.732,71.682 C102.04,78.227 92.319,79.781 88.035,85.039 C81.343,84.321 79.206,81.095 74.678,78.361 C75.658,75.151 76.304,75.516 76.905,71.682 C74.323,71.934 73.765,71.902 72.452,72.795" fill="#1A1919"/>
    <path d="M157.047,95.057 C164.425,95.468 169.625,96.12 171.517,90.605 C176.627,82.719 170.885,65.014 169.291,59.438 C160.538,57.377 152.562,53.335 142.577,52.76 C140.03,57.084 136.473,63.435 134.785,68.343 C132.84,74 134.245,79.537 131.446,83.926 C134.935,93.27 148.936,90.229 157.047,95.057 z M144.803,59.438 C156.992,59.428 160.343,62.718 167.065,67.23 C167.505,71.406 169.145,75.202 167.065,78.361 C167.108,82.609 166.897,86.766 165.952,89.492 C154.789,89.127 147.69,85.842 139.238,83.926 C139.385,72.996 142.483,67.206 144.803,59.438" fill="#1A1919"/>
    <path d="M208.249,117.319 C220.109,116.057 229.441,105.511 239.415,100.622 C238.485,90.816 231.097,78.842 223.832,75.022 C216.396,82.212 205.449,85.402 199.344,93.944 C197.057,93.5 197.199,93.668 196.005,92.831 C192.478,93.46 192.767,93.809 190.44,95.057 C190.867,103.935 202.058,110.8 208.249,117.319 z M221.606,81.7 C227.521,84.467 228.627,91.623 232.737,96.17 C229.909,103.005 218.398,105.013 213.814,110.64 C205.596,110.158 206.36,106.276 201.571,102.849 C202.232,91.061 215.212,88.074 221.606,81.7" fill="#1A1919"/>
    <path d="M101.392,93.944 C97.897,95.258 96.854,96.964 95.827,100.622 C95.019,102.591 97.47,110.929 99.166,113.98 C104.114,114.359 110.813,116.608 114.749,113.98 C121.075,114.212 123.202,114.242 124.767,109.527 C126.557,106.457 120.224,93.274 118.089,89.492 C115.863,89.492 113.636,89.492 111.41,89.492 C108.789,91.573 104.065,91.934 101.392,93.944 z M119.202,106.188 C117.908,108.662 117.59,107.863 115.863,109.527 C111.048,109.593 105.726,109.527 102.505,108.414 C102.821,105.353 103.289,100.534 104.732,98.396 C106.754,96.921 110.569,96.532 112.523,95.057 C116.492,97.874 116.345,102.336 119.202,106.188" fill="#1A1919"/>
    <path d="M400.813,151.825 C395.335,159.472 393.298,169.847 387.456,177.426 C387.574,180.246 387.593,181.55 388.57,182.991 C389.714,183.89 388.843,183.402 390.796,184.104 C398.41,165.262 407.428,152.059 418.623,137.355 C421.591,135.128 424.559,132.902 427.528,130.676 C434.379,122.05 441.984,111.429 452.016,106.188 C452.016,104.704 452.016,103.22 452.016,101.735 C440.276,103.639 435.613,115.915 428.641,122.884 C419.147,132.372 408.744,140.755 400.813,151.825" fill="#1A1919"/>
    <path d="M503.218,154.051 C515.18,165.89 529.472,181.379 537.724,196.348 C540.32,204.139 542.918,211.932 545.515,219.723 C546.806,221.534 546.934,219.487 548.854,218.61 C547.727,189.969 526.536,172.498 512.122,156.277 C506.159,149.566 502.136,142.262 490.974,140.694 C490.427,142.041 487.873,142.944 488.748,145.146 C488.748,145.146 502.47,153.311 503.218,154.051" fill="#1A1919"/>
    <path d="M575.568,167.408 C575.568,172.602 575.568,177.797 575.568,182.991 C577.053,182.991 578.537,182.991 580.021,182.991 C580.187,176.852 581.254,172.475 582.247,167.408 C581.348,166.263 581.836,167.134 581.134,165.182 C577.607,165.811 577.896,166.16 575.568,167.408" fill="#1A1919"/>
    <path d="M517.688,186.331 C513.471,180.031 506.397,174.939 502.105,168.521 C499.214,168.743 498.324,169.013 496.539,169.634 C498.142,176.461 504.129,178.246 507.67,182.991 C517.732,196.476 529.142,210.921 528.819,234.193 C529.932,234.193 531.045,234.193 532.158,234.193 C532.158,233.822 532.158,233.451 532.158,233.08 C536.927,226.688 532.183,217.56 529.932,211.931 C525.922,201.909 523.277,194.681 517.688,186.331" fill="#1A1919"/>
    <path d="M341.82,203.027 C342.964,203.925 342.093,203.438 344.046,204.14 C344.046,203.769 344.046,203.398 344.046,203.027 C344.417,203.027 344.788,203.027 345.159,203.027 C344.948,198.99 344.91,189.401 342.933,186.331 C341.736,185.487 341.904,185.632 339.594,185.217 C338.382,188.477 337.383,197.629 339.594,200.801 C341.061,203.505 339.073,201.586 341.82,203.027" fill="#1A1919"/>
    <path d="M362.969,193.009 C356.268,193.637 352.608,201.44 351.837,207.479 C359.439,206.902 362.7,200.595 362.969,193.009" fill="#1A1919"/>
    <path d="M292.844,211.931 C292.354,205.262 289.341,199.293 285.052,196.348 C281.378,203.644 286.228,205.99 288.392,213.044 C290.959,212.683 291.156,212.528 292.844,211.931" fill="#1A1919"/>
    <path d="M336.254,209.705 C337.399,210.604 336.528,210.116 338.48,210.818 C338.48,210.447 338.48,210.076 338.48,209.705 C338.851,209.705 339.223,209.705 339.594,209.705 C337.914,204.552 333.505,200.456 327.35,199.688 C324.501,205.095 329.308,208.411 336.254,209.705" fill="#1A1919"/>
    <path d="M286.165,221.949 C286.907,221.949 287.65,221.949 288.392,221.949 C288.392,220.836 288.392,219.723 288.392,218.61 C282.827,217.497 277.26,216.384 271.695,215.271 C270.55,216.169 271.422,215.682 269.469,216.384 C269.831,218.951 269.986,219.149 270.582,220.836 C274.782,221.854 282.157,224.656 286.165,221.949" fill="#1A1919"/>
    <path d="M682.425,329.919 C684.092,334.902 684.107,339.526 682.91,343.786 C693.961,337.054 704.709,330.059 713.407,323.893 C703.361,325.922 692.323,326.585 682.425,329.919" fill="#1A1919"/>
    <path d="M339.594,225.289 C339.711,228.108 339.73,229.413 340.707,230.854 C340.707,231.225 340.707,231.596 340.707,231.967 C341.078,231.967 341.449,231.967 341.82,231.967 C341.82,231.596 341.82,231.225 341.82,230.854 C345.04,228.389 346.241,225.496 346.272,219.723 C345.159,219.723 344.046,219.723 342.933,219.723 C341.955,221.748 341.06,223.768 339.594,225.289" fill="#1A1919"/>
    <path d="M305.088,234.193 C305.088,233.822 305.088,233.451 305.088,233.08 C305.459,233.08 305.83,233.08 306.201,233.08 C305.948,230.499 305.981,229.941 305.088,228.628 C303.567,225.277 301.209,223.97 297.296,223.062 C294.588,228.693 299.068,231.621 305.088,234.193" fill="#1A1919"/>
    <path d="M283.939,235.306 C284.161,238.196 284.431,239.087 285.052,240.872 C287.942,240.65 288.833,240.379 290.617,239.759 C290.617,235.678 290.617,231.596 290.617,227.515 C289.134,227.515 287.649,227.515 286.165,227.515 C285.705,229.836 285.109,233.613 283.939,235.306" fill="#1A1919"/>
    <path d="M154.821,327.693 C157.428,325.045 162.517,323.83 164.839,321.014 C166.928,318.48 167.269,314.626 169.291,312.11 C169.22,303.924 167.366,301.544 164.839,296.526 C161.401,295.699 159.835,294.75 155.934,294.3 C153.337,295.784 150.739,297.268 148.142,298.752 C144.795,302.74 143.584,308.05 140.351,312.11 C140.747,321.378 145.052,327.561 154.821,327.693 z M154.821,300.979 C157.402,301.231 157.96,301.198 159.273,302.092 C161.194,302.809 160.362,302.31 161.499,303.205 C168.232,311.725 157.729,317.553 153.708,322.127 C148.979,321.208 149.677,320.172 147.029,317.675 C146.918,307.088 149.929,305.971 154.821,300.979" fill="#1A1919"/>
    <path d="M576.682,323.24 C577.794,332.506 604.032,341.869 613.414,344.389 C620.199,346.212 625.311,344.61 630.11,347.728 C633.565,347.802 637.133,347.886 639.015,346.615 C639.858,345.418 639.714,345.587 640.128,343.276 C626.979,342.427 611.201,339.092 600.057,334.371 C592.126,331.012 587.421,323.524 576.682,323.24" fill="#1A1919"/>
    <path d="M744.758,331.032 C723.507,382.936 661.372,407.073 604.509,423.419 C591.688,427.104 576.777,425.47 563.325,428.984 C546.765,433.309 524.216,435.78 506.557,436.776 C498.754,437.215 486.437,437.974 482.069,434.549 C478.367,434.557 475.445,434.869 473.164,435.662 C473.535,436.776 473.906,437.889 474.277,439.002 C498.777,443.93 528.499,441.201 552.194,435.662 C565.92,434.178 579.651,432.694 593.378,431.21 C631.471,420.598 674.713,407.725 703.574,387.8 C713.111,381.215 730.238,363.993 736.967,354.407 C741.294,348.242 743.864,341.63 749.21,336.597 C748.958,334.016 748.991,333.458 748.097,332.145 C746.9,331.301 747.069,331.446 744.758,331.032" fill="#1A1919"/>
    <path d="M287.278,440.115 C225.484,423.907 163.343,430.081 141.464,372.216 C139.979,372.216 138.495,372.216 137.011,372.216 C136.552,384.258 144.221,390.714 150.368,398.93 C168.546,423.226 208.329,428.762 241.642,437.889 C247.358,439.455 253.935,438.25 257.225,439.002 C268.154,441.498 303.793,450.871 315.106,443.454 C316.004,442.309 315.517,443.18 316.219,441.228 C308.508,438.658 296.337,442.49 287.278,440.115" fill="#1A1919"/>
  </g>
</svg>