<?xml version="1.0" encoding="UTF-8" standalone="no"?>
<!-- Created with Inkscape (http://www.inkscape.org/) -->

<svg
   xmlns:dc="http://purl.org/dc/elements/1.1/"
   xmlns:cc="http://creativecommons.org/ns#"
   xmlns:rdf="http://www.w3.org/1999/02/22-rdf-syntax-ns#"
   xmlns:svg="http://www.w3.org/2000/svg"
   xmlns="http://www.w3.org/2000/svg"
   xmlns:sodipodi="http://sodipodi.sourceforge.net/DTD/sodipodi-0.dtd"
   xmlns:inkscape="http://www.inkscape.org/namespaces/inkscape"
   width="95.149132mm"
   height="226.20976mm"
   viewBox="0 0 337.14259 801.53065"
   id="svg2"
   version="1.1"
   inkscape:version="0.91 r13725"
   sodipodi:docname="Corn3.svg">
  <defs
     id="defs4" />
  <sodipodi:namedview
     id="base"
     pagecolor="#ffffff"
     bordercolor="#666666"
     borderopacity="1.0"
     inkscape:pageopacity="0.0"
     inkscape:pageshadow="2"
     inkscape:zoom="0.83590066"
     inkscape:cx="168.5713"
     inkscape:cy="400.76533"
     inkscape:document-units="px"
     inkscape:current-layer="layer1"
     showgrid="false"
     fit-margin-top="0"
     fit-margin-left="0"
     fit-margin-right="0"
     fit-margin-bottom="0"
     inkscape:window-width="1600"
     inkscape:window-height="837"
     inkscape:window-x="-8"
     inkscape:window-y="-8"
     inkscape:window-maximized="1" />
  <metadata
     id="metadata7">
    <rdf:RDF>
      <cc:Work
         rdf:about="">
        <dc:format>image/svg+xml</dc:format>
        <dc:type
           rdf:resource="http://purl.org/dc/dcmitype/StillImage" />
        <dc:title></dc:title>
      </cc:Work>
    </rdf:RDF>
  </metadata>
  <g
     inkscape:label="Layer 1"
     inkscape:groupmode="layer"
     id="layer1"
     transform="translate(-268.41872,-97.986848)">
    <g
       transform="matrix(3.1066077,-1.3389188,1.3389188,3.1066077,-1345.3824,-528.2342)"
       id="g19860">
      <path
         id="path9016"
         class="fil0 str12"
         d="m 398.6322,492.27217 c 0.62453,-3.47616 2.73795,-4.33586 5.41204,-6.32313"
         inkscape:connector-curvature="0"
         style="clip-rule:evenodd;fill:none;fill-rule:evenodd;stroke:#000000;stroke-width:2.88434219;stroke-linejoin:round;image-rendering:optimizeQuality;shape-rendering:geometricPrecision;text-rendering:geometricPrecision" />
      <g
         transform="matrix(15.574202,0,0,15.574202,-2438.0841,-1555.6108)"
         id="g4393"
         style="clip-rule:evenodd;fill-rule:evenodd;image-rendering:optimizeQuality;shape-rendering:geometricPrecision;text-rendering:geometricPrecision">
        <path
           id="use3924"
           class="fil21 str23"
           d="m 177.149,135.084 c -0.3221,1.6451 0.305,1.4785 0.3079,1.4724 0,0 0.3869,0.6896 1.3094,-0.4742 1.1449,-1.4437 2.9052,-4.7414 3.3672,-5.7491 0.0433,-0.0944 0.075,-0.1684 0.094,-0.2194 0.2341,-0.6285 1.1731,-3.464 1.0727,-4.2314 -0.005,-0.034 0.1355,-0.7572 -0.4708,-1.1262 -0.504,-0.3067 -0.9137,0.1823 -0.9358,0.193 -0.5929,0.2803 -2.3609,3.3616 -2.3609,3.3616 0,0 -1.3259,3.0982 -2.0209,5.3564 -0.1655,0.5378 -0.2868,1.0298 -0.3628,1.4169 l 0,0 0,0 0,0 0,0 z"
           inkscape:connector-curvature="0"
           style="fill:#fcd116;stroke:#000000;stroke-width:0.185;stroke-linejoin:round" />
        <path
           id="use3293"
           class="fil0 str23"
           d="m 183.282,125.363 c -0.0577,-0.2027 -0.3849,-0.4097 -0.5623,-0.3588 -0.1223,0.035 -0.1854,0.2208 -0.163,0.348 0.0369,0.2101 0.405,0.4715 0.5624,0.3588 0.1189,-0.0851 0.2045,-0.2021 0.1629,-0.348 z"
           inkscape:connector-curvature="0"
           style="fill:none;stroke:#000000;stroke-width:0.185;stroke-linejoin:round" />
        <path
           id="use3297"
           class="fil0 str23"
           d="m 183.163,126.041 c -0.0698,-0.24 -0.4605,-0.4873 -0.6717,-0.4285 -0.1453,0.0407 -0.2196,0.2599 -0.1922,0.4108 0.045,0.2486 0.4847,0.5606 0.6717,0.4283 0.1411,-0.0998 0.2423,-0.2376 0.1922,-0.4106 z"
           inkscape:connector-curvature="0"
           style="fill:none;stroke:#000000;stroke-width:0.185;stroke-linejoin:round" />
        <path
           id="use3315"
           class="fil0 str23"
           d="m 182.757,124.999 c -0.0837,-0.0591 0.115,-0.0296 -0.3227,-0.2559 -0.061,-0.0316 -0.0572,0.0213 -0.0415,0.0918 0.0103,0.0466 0.0271,0.1121 0.0294,0.1261 0.0121,0.0759 0.008,0.1092 0.1237,0.1228 0.0871,0.0104 0.2645,-0.047 0.2111,-0.0848 l 0,0 z"
           inkscape:connector-curvature="0"
           style="fill:none;stroke:#000000;stroke-width:0.185;stroke-linejoin:round" />
        <path
           id="use3319"
           class="fil0 str23"
           d="m 182.537,125.25 c -0.0448,-0.218 -0.3597,-0.4172 -0.5412,-0.3452 -0.125,0.0495 -0.2004,0.2597 -0.1865,0.3981 0.0235,0.2279 0.3759,0.4835 0.5413,0.3452 0.125,-0.1044 0.2185,-0.241 0.1864,-0.3981 z"
           inkscape:connector-curvature="0"
           style="fill:none;stroke:#000000;stroke-width:0.185;stroke-linejoin:round" />
        <path
           id="use3339"
           class="fil0 str23"
           d="m 183.274,126.413 c 0.0671,-0.2441 0.0646,-0.0986 -0.1467,-0.0397 -0.1452,0.0406 -0.2194,0.2599 -0.1922,0.4106 0.0453,0.2487 0.1301,0.5116 0.1915,0.2657 0.064,-0.2567 0.0893,-0.4251 0.1474,-0.6366 l 0,0 z"
           inkscape:connector-curvature="0"
           style="fill:none;stroke:#000000;stroke-width:0.185;stroke-linejoin:round" />
        <path
           id="use3341"
           class="fil0 str23"
           d="m 182.859,126.692 c -0.0697,-0.2401 -0.4604,-0.4876 -0.6716,-0.4284 -0.1452,0.0406 -0.2196,0.2597 -0.1922,0.4105 0.045,0.2487 0.4847,0.5608 0.6717,0.4285 0.141,-0.0999 0.2423,-0.2377 0.1921,-0.4106 l 0,0 0,0 0,0 z"
           inkscape:connector-curvature="0"
           style="fill:none;stroke:#000000;stroke-width:0.185;stroke-linejoin:round" />
        <path
           id="use3343"
           class="fil0 str23"
           d="m 183.097,127.17 c 0.0488,-0.2499 -0.068,-0.2013 -0.2793,-0.1422 -0.1452,0.0406 -0.2195,0.2598 -0.1922,0.4105 0.0453,0.2486 0.2493,0.557 0.3318,0.3193 0.0743,-0.2143 0.0997,-0.3827 0.1397,-0.5876 l 0,0 z"
           inkscape:connector-curvature="0"
           style="fill:none;stroke:#000000;stroke-width:0.185;stroke-linejoin:round" />
        <path
           id="use3345"
           class="fil0 str23"
           d="m 182.574,127.379 c -0.0697,-0.2401 -0.4604,-0.4875 -0.6717,-0.4285 -0.1452,0.0407 -0.2194,0.2598 -0.1921,0.4105 0.045,0.2486 0.4848,0.5608 0.6716,0.4285 0.1412,-0.0997 0.2424,-0.2376 0.1922,-0.4105 z"
           inkscape:connector-curvature="0"
           style="fill:none;stroke:#000000;stroke-width:0.185;stroke-linejoin:round" />
        <path
           id="use3347"
           class="fil0 str23"
           d="m 182.926,127.876 c 0.064,-0.2452 -0.2098,-0.2198 -0.421,-0.1608 -0.1453,0.0406 -0.2195,0.2598 -0.1921,0.4106 0.045,0.2486 0.4394,0.4849 0.4773,0.2328 0.041,-0.2716 0.0841,-0.2849 0.1358,-0.4826 z"
           inkscape:connector-curvature="0"
           style="fill:none;stroke:#000000;stroke-width:0.185;stroke-linejoin:round" />
        <path
           id="use3349"
           class="fil0 str23"
           d="m 182.235,128.034 c -0.0698,-0.2401 -0.4606,-0.4875 -0.6716,-0.4285 -0.1453,0.0405 -0.2196,0.2597 -0.1923,0.4105 0.0451,0.2486 0.4848,0.5608 0.6717,0.4285 0.141,-0.0999 0.2423,-0.2376 0.1922,-0.4105 z"
           inkscape:connector-curvature="0"
           style="fill:none;stroke:#000000;stroke-width:0.185;stroke-linejoin:round" />
        <path
           id="use3351"
           class="fil0 str23"
           d="m 182.694,128.652 c 0.0675,-0.2441 -0.2881,-0.3417 -0.4993,-0.2826 -0.1452,0.0405 -0.2195,0.2597 -0.1921,0.4105 0.0451,0.2487 0.4516,0.6138 0.5313,0.3748 0.1014,-0.3045 0.1228,-0.3678 0.1601,-0.5027 l 0,0 0,0 0,0 0,0 z"
           inkscape:connector-curvature="0"
           style="fill:none;stroke:#000000;stroke-width:0.185;stroke-linejoin:round" />
        <path
           id="use3353"
           class="fil29 str23"
           d="m 181.951,128.721 c -0.0698,-0.2401 -0.4604,-0.4875 -0.6717,-0.4285 -0.1451,0.0406 -0.2194,0.2599 -0.192,0.4105 0.045,0.2487 0.4848,0.5607 0.6715,0.4285 0.1412,-0.0998 0.2425,-0.2376 0.1922,-0.4105 z"
           inkscape:connector-curvature="0"
           style="fill:#eac102;stroke:#000000;stroke-width:0.185;stroke-linejoin:round" />
        <path
           id="use3355"
           class="fil0 str23"
           d="m 182.251,125.905 c -0.0698,-0.2399 -0.4606,-0.4873 -0.6717,-0.4284 -0.1453,0.0406 -0.2195,0.2598 -0.1921,0.4106 0.0451,0.2487 0.4847,0.5607 0.6715,0.4285 0.1411,-0.0999 0.2426,-0.2377 0.1923,-0.4107 l 0,0 0,0 0,0 z"
           inkscape:connector-curvature="0"
           style="fill:none;stroke:#000000;stroke-width:0.185;stroke-linejoin:round" />
        <path
           id="use3357"
           class="fil0 str23"
           d="m 181.311,125.793 c -0.0697,-0.24 0.0624,-0.2921 -0.0963,-0.1153 -0.1068,0.1192 -0.3023,0.4047 -0.3793,0.4888 -0.1598,0.1753 0.0965,0.1694 0.2833,0.0371 0.1411,-0.0999 0.2424,-0.2378 0.1923,-0.4106 z"
           inkscape:connector-curvature="0"
           style="fill:none;stroke:#000000;stroke-width:0.185;stroke-linejoin:round" />
        <path
           id="use3359"
           class="fil0 str23"
           d="m 181.942,126.558 c -0.0697,-0.2402 -0.4605,-0.4875 -0.6715,-0.4285 -0.1455,0.0406 -0.2197,0.2598 -0.1923,0.4105 0.0451,0.2486 0.4847,0.5608 0.6717,0.4285 0.1409,-0.1 0.2423,-0.2377 0.1921,-0.4105 z"
           inkscape:connector-curvature="0"
           style="fill:none;stroke:#000000;stroke-width:0.185;stroke-linejoin:round" />
        <path
           id="use3361"
           class="fil0 str23"
           d="m 181.027,126.481 c -0.0698,-0.2401 -0.0707,-0.4973 -0.1965,-0.2868 -0.0965,0.1614 -0.2236,0.3648 -0.3638,0.5523 -0.1444,0.193 0.1812,0.2772 0.3681,0.145 0.1411,-0.0999 0.2424,-0.2378 0.1922,-0.4105 l 0,0 0,0 0,0 0,0 z"
           inkscape:connector-curvature="0"
           style="fill:none;stroke:#000000;stroke-width:0.185;stroke-linejoin:round" />
        <path
           id="use3363"
           class="fil0 str23"
           d="m 181.629,127.246 c -0.0697,-0.2402 -0.4604,-0.4875 -0.6716,-0.4285 -0.1454,0.0407 -0.2197,0.2597 -0.1923,0.4105 0.0452,0.2486 0.4848,0.5608 0.6717,0.4285 0.1411,-0.0997 0.2423,-0.2375 0.1922,-0.4105 z"
           inkscape:connector-curvature="0"
           style="fill:none;stroke:#000000;stroke-width:0.185;stroke-linejoin:round" />
        <path
           id="use3365"
           class="fil0 str23"
           d="m 180.688,127.136 c -0.0698,-0.2399 -0.113,-0.2656 -0.3242,-0.2067 -0.1146,0.032 0.1471,-0.2631 -0.1276,0.2262 -0.1391,0.2477 0.1773,-0.1422 -0.1044,0.1409 -0.0364,0.0367 0.1772,0.3825 0.364,0.2502 0.1411,-0.0998 0.2424,-0.2376 0.1922,-0.4106 l 0,0 0,0 0,0 z"
           inkscape:connector-curvature="0"
           style="fill:none;stroke:#000000;stroke-width:0.185;stroke-linejoin:round" />
        <path
           id="use3367"
           class="fil0 str23"
           d="m 181.319,127.9 c -0.0699,-0.2401 -0.4606,-0.4875 -0.6716,-0.4285 -0.1454,0.0406 -0.2196,0.2599 -0.1923,0.4106 0.0451,0.2486 0.4847,0.5607 0.6718,0.4285 0.141,-0.0998 0.2422,-0.2376 0.1921,-0.4106 l 0,0 0,0 0,0 z"
           inkscape:connector-curvature="0"
           style="fill:none;stroke:#000000;stroke-width:0.185;stroke-linejoin:round" />
        <path
           id="use3369"
           class="fil0 str23"
           d="m 180.403,127.823 c -0.0697,-0.24 -0.2283,-0.5934 -0.3701,-0.3977 -0.1017,0.1403 -0.1941,0.366 -0.2801,0.534 -0.1128,0.2202 0.2712,0.4065 0.458,0.2743 0.1411,-0.0999 0.2424,-0.2377 0.1922,-0.4106 l 0,0 0,0 0,0 z"
           inkscape:connector-curvature="0"
           style="fill:none;stroke:#000000;stroke-width:0.185;stroke-linejoin:round" />
        <path
           id="use3403"
           class="fil0 str23"
           d="m 182.459,129.315 c 0.0386,-0.252 -0.3808,-0.4009 -0.5918,-0.3417 -0.1453,0.0405 -0.2196,0.2597 -0.1923,0.4105 0.0451,0.2488 0.5933,0.5611 0.6757,0.3234 0.0744,-0.2145 0.0813,-0.2147 0.1084,-0.3922 l 0,0 0,0 0,0 z"
           inkscape:connector-curvature="0"
           style="fill:none;stroke:#000000;stroke-width:0.185;stroke-linejoin:round" />
        <path
           id="use3405"
           class="fil0 str23"
           d="m 181.599,129.291 c -0.0697,-0.24 -0.4604,-0.4873 -0.6716,-0.4285 -0.1453,0.0407 -0.2195,0.2599 -0.1923,0.4107 0.0452,0.2486 0.485,0.5606 0.6717,0.4285 0.1412,-0.1 0.2424,-0.2378 0.1922,-0.4107 z"
           inkscape:connector-curvature="0"
           style="fill:none;stroke:#000000;stroke-width:0.185;stroke-linejoin:round" />
        <path
           id="use3407"
           class="fil0 str23"
           d="m 182.189,130.028 c -0.0618,-0.2354 -0.4306,-0.4689 -0.634,-0.4043 -0.14,0.0441 -0.2156,0.2632 -0.1928,0.4115 0.0381,0.2446 0.4524,0.5408 0.6342,0.4046 0.1372,-0.1031 0.2372,-0.2422 0.1926,-0.4118 l 0,0 0,0 0,0 0,0 z"
           inkscape:connector-curvature="0"
           style="fill:none;stroke:#000000;stroke-width:0.185;stroke-linejoin:round" />
        <path
           id="use3409"
           class="fil0 str23"
           d="m 181.315,129.978 c -0.0698,-0.2402 -0.4606,-0.4875 -0.6718,-0.4285 -0.1452,0.0405 -0.2194,0.2598 -0.192,0.4105 0.045,0.2486 0.4847,0.5608 0.6716,0.4285 0.1411,-0.1 0.2424,-0.2377 0.1922,-0.4105 z"
           inkscape:connector-curvature="0"
           style="fill:none;stroke:#000000;stroke-width:0.185;stroke-linejoin:round" />
        <path
           id="use3411"
           class="fil0 str23"
           d="m 181.877,130.7 c -0.0699,-0.2401 -0.4207,-0.4442 -0.632,-0.3851 -0.1452,0.0405 -0.2193,0.2598 -0.1921,0.4105 0.0452,0.2487 0.4876,0.4906 0.6743,0.3586 0.0769,-0.0546 0.0682,-0.0592 0.1034,-0.1355 0.0296,-0.0641 0.0693,-0.1697 0.0464,-0.2485 l 0,0 0,0 0,0 z"
           inkscape:connector-curvature="0"
           style="fill:none;stroke:#000000;stroke-width:0.185;stroke-linejoin:round" />
        <path
           id="use3413"
           class="fil0 str23"
           d="m 180.976,130.632 c -0.0698,-0.2401 -0.4605,-0.4875 -0.6717,-0.4285 -0.1452,0.0406 -0.2194,0.2598 -0.192,0.4105 0.045,0.2487 0.4846,0.5608 0.6715,0.4285 0.1411,-0.0999 0.2425,-0.2377 0.1922,-0.4105 z"
           inkscape:connector-curvature="0"
           style="fill:none;stroke:#000000;stroke-width:0.185;stroke-linejoin:round" />
        <path
           id="use3415"
           class="fil29 str23"
           d="m 181.578,131.396 c 0.1105,-0.2219 -0.4308,-0.4865 -0.6419,-0.4277 -0.1453,0.0406 -0.2195,0.2599 -0.1923,0.4107 0.0452,0.2485 0.539,0.5629 0.663,0.351 0.0961,-0.1645 0.0979,-0.1863 0.1712,-0.334 z"
           inkscape:connector-curvature="0"
           style="fill:#eac102;stroke:#000000;stroke-width:0.185;stroke-linejoin:round" />
        <path
           id="use3417"
           class="fil0 str23"
           d="m 180.692,131.32 c -0.0697,-0.2401 -0.4605,-0.4875 -0.6716,-0.4285 -0.1454,0.0407 -0.2196,0.2597 -0.1923,0.4106 0.0451,0.2485 0.4849,0.5608 0.6716,0.4285 0.1412,-0.0999 0.2425,-0.2376 0.1923,-0.4106 z"
           inkscape:connector-curvature="0"
           style="fill:none;stroke:#000000;stroke-width:0.185;stroke-linejoin:round" />
        <path
           id="use3419"
           class="fil0 str23"
           d="m 180.992,128.504 c -0.0698,-0.2399 -0.4605,-0.4875 -0.6717,-0.4285 -0.1452,0.0407 -0.2194,0.2598 -0.1921,0.4105 0.0451,0.2486 0.4847,0.5609 0.6716,0.4285 0.1411,-0.0997 0.2425,-0.2376 0.1922,-0.4105 z"
           inkscape:connector-curvature="0"
           style="fill:none;stroke:#000000;stroke-width:0.185;stroke-linejoin:round" />
        <path
           id="use3421"
           class="fil0 str23"
           d="m 180.052,128.392 c -0.0697,-0.24 -0.2057,-0.3249 -0.4169,-0.2659 -0.0415,0.0115 -0.146,0.2909 -0.2166,0.4308 -0.1118,0.2208 0.2545,0.3779 0.4414,0.2456 0.1409,-0.0998 0.2423,-0.2376 0.1921,-0.4105 l 0,0 0,0 0,0 0,0 z"
           inkscape:connector-curvature="0"
           style="fill:none;stroke:#000000;stroke-width:0.185;stroke-linejoin:round" />
        <path
           id="use3423"
           class="fil0 str23"
           d="m 180.683,129.157 c -0.0699,-0.24 -0.4606,-0.4874 -0.6717,-0.4283 -0.1453,0.0404 -0.2195,0.2598 -0.1922,0.4105 0.0451,0.2486 0.4848,0.5606 0.6717,0.4285 0.1411,-0.0999 0.2424,-0.2377 0.1922,-0.4107 l 0,0 0,0 0,0 z"
           inkscape:connector-curvature="0"
           style="fill:none;stroke:#000000;stroke-width:0.185;stroke-linejoin:round" />
        <path
           id="use3425"
           class="fil0 str23"
           d="m 179.768,129.08 c -0.0699,-0.2401 -0.375,-0.4774 -0.471,-0.2466 -0.0735,0.1762 -0.1127,0.2562 -0.1627,0.4114 -0.0772,0.2402 0.2545,0.3778 0.4414,0.2458 0.1411,-0.1 0.2425,-0.2379 0.1923,-0.4106 l 0,0 0,0 0,0 z"
           inkscape:connector-curvature="0"
           style="fill:none;stroke:#000000;stroke-width:0.185;stroke-linejoin:round" />
        <path
           id="use3427"
           class="fil0 str23"
           d="m 180.37,129.845 c -0.0699,-0.24 -0.4607,-0.4875 -0.6717,-0.4285 -0.1454,0.0406 -0.2196,0.2598 -0.1922,0.4106 0.045,0.2487 0.4846,0.5608 0.6716,0.4285 0.1411,-0.0999 0.2424,-0.2377 0.1923,-0.4106 z"
           inkscape:connector-curvature="0"
           style="fill:none;stroke:#000000;stroke-width:0.185;stroke-linejoin:round" />
        <path
           id="use3429"
           class="fil0 str23"
           d="m 179.429,129.734 c -0.0697,-0.2402 -0.3169,-0.456 -0.3951,-0.2162 -0.0552,0.1699 -0.119,0.2701 -0.1444,0.4051 -0.0472,0.2502 0.1605,0.3538 0.3473,0.2216 0.1412,-0.1 0.2424,-0.2378 0.1922,-0.4105 l 0,0 0,0 0,0 0,0 z"
           inkscape:connector-curvature="0"
           style="fill:none;stroke:#000000;stroke-width:0.185;stroke-linejoin:round" />
        <path
           id="use3431"
           class="fil0 str23"
           d="m 180.06,130.499 c -0.0698,-0.2401 -0.4605,-0.4875 -0.6715,-0.4285 -0.1454,0.0406 -0.2196,0.2597 -0.1922,0.4105 0.0451,0.2486 0.4846,0.5608 0.6717,0.4285 0.1411,-0.0999 0.2423,-0.2378 0.192,-0.4105 z"
           inkscape:connector-curvature="0"
           style="fill:none;stroke:#000000;stroke-width:0.185;stroke-linejoin:round" />
        <path
           id="use3433"
           class="fil0 str23"
           d="m 179.144,130.422 c -0.0698,-0.2401 -0.2582,-0.4569 -0.3705,-0.2365 -0.0721,0.1413 -0.1449,0.3254 -0.164,0.4466 -0.0394,0.2519 0.1553,0.3326 0.3423,0.2003 0.1411,-0.0998 0.2424,-0.2377 0.1922,-0.4104 z"
           inkscape:connector-curvature="0"
           style="fill:none;stroke:#000000;stroke-width:0.185;stroke-linejoin:round" />
        <path
           id="use3435"
           class="fil29 str23"
           d="m 181.234,132.023 c 0.0938,-0.232 -0.3678,-0.4283 -0.5789,-0.3693 -0.1453,0.0406 -0.2195,0.2597 -0.1922,0.4105 0.0451,0.2487 0.5235,0.5182 0.6179,0.2865 0.0729,-0.1792 0.0849,-0.1587 0.1532,-0.3277 z"
           inkscape:connector-curvature="0"
           style="fill:#eac102;stroke:#000000;stroke-width:0.185;stroke-linejoin:round" />
        <path
           id="use3437"
           class="fil0 str23"
           d="m 180.387,131.97 c -0.0697,-0.2403 -0.4605,-0.4876 -0.6716,-0.4286 -0.1453,0.0405 -0.2196,0.2598 -0.1922,0.4105 0.0452,0.2486 0.4848,0.5606 0.6715,0.4285 0.1412,-0.1 0.2426,-0.2378 0.1923,-0.4104 z"
           inkscape:connector-curvature="0"
           style="fill:none;stroke:#000000;stroke-width:0.185;stroke-linejoin:round" />
        <path
           id="use3439"
           class="fil29 str23"
           d="m 180.93,132.571 c 0.1114,-0.221 -0.3719,-0.3233 -0.583,-0.2642 -0.1453,0.0406 -0.2196,0.2599 -0.1923,0.4106 0.0452,0.2486 0.4829,0.4743 0.578,0.243 0.0795,-0.193 0.1369,-0.2691 0.1973,-0.3894 l 0,0 0,0 0,0 0,0 z"
           inkscape:connector-curvature="0"
           style="fill:#eac102;stroke:#000000;stroke-width:0.185;stroke-linejoin:round" />
        <path
           id="use3441"
           class="fil0 str23"
           d="m 180.102,132.659 c -0.0697,-0.2401 -0.4603,-0.4876 -0.6716,-0.4285 -0.1453,0.0405 -0.2195,0.2597 -0.1922,0.4104 0.045,0.2487 0.4847,0.5608 0.6717,0.4286 0.1411,-0.1 0.2423,-0.2378 0.1921,-0.4105 z"
           inkscape:connector-curvature="0"
           style="fill:none;stroke:#000000;stroke-width:0.185;stroke-linejoin:round" />
        <path
           id="use3443"
           class="fil29 str23"
           d="m 180.528,133.257 c 0.0937,-0.2321 -0.2832,-0.3205 -0.4942,-0.2614 -0.1453,0.0406 -0.2196,0.2598 -0.1922,0.4105 0.045,0.2486 0.3389,0.468 0.4761,0.2679 0.1076,-0.157 0.1418,-0.2479 0.2103,-0.417 l 0,0 z"
           inkscape:connector-curvature="0"
           style="fill:#eac102;stroke:#000000;stroke-width:0.185;stroke-linejoin:round" />
        <path
           id="use3445"
           class="fil0 str23"
           d="m 179.765,133.312 c -0.0697,-0.2401 -0.4605,-0.4874 -0.6716,-0.4285 -0.1454,0.0407 -0.2196,0.2597 -0.1922,0.4105 0.045,0.2486 0.4848,0.5609 0.6716,0.4285 0.1412,-0.0997 0.2424,-0.2375 0.1922,-0.4105 z"
           inkscape:connector-curvature="0"
           style="fill:none;stroke:#000000;stroke-width:0.185;stroke-linejoin:round" />
        <path
           id="use3447"
           class="fil29 str23"
           d="m 180.188,133.781 c 0.0282,-0.2536 -0.2523,-0.1932 -0.4634,-0.134 -0.1453,0.0405 -0.2196,0.2598 -0.1922,0.4105 0.0451,0.2487 0.3402,0.4196 0.4492,0.1968 0.0974,-0.1995 0.1844,-0.2746 0.2064,-0.4733 z"
           inkscape:connector-curvature="0"
           style="fill:#eac102;stroke:#000000;stroke-width:0.185;stroke-linejoin:round" />
        <path
           id="use3449"
           class="fil0 str23"
           d="m 179.48,134 c -0.0698,-0.2401 -0.4606,-0.4874 -0.6716,-0.4284 -0.1453,0.0406 -0.2195,0.2599 -0.1923,0.4105 0.0452,0.2488 0.4848,0.5607 0.6717,0.4285 0.141,-0.0998 0.2425,-0.2376 0.1922,-0.4106 l 0,0 0,0 0,0 z"
           inkscape:connector-curvature="0"
           style="fill:none;stroke:#000000;stroke-width:0.185;stroke-linejoin:round" />
        <path
           id="use3451"
           class="fil0 str23"
           d="m 179.781,131.184 c -0.0696,-0.24 -0.4605,-0.4873 -0.6716,-0.4285 -0.1454,0.0406 -0.2196,0.2599 -0.1922,0.4105 0.0451,0.2488 0.4848,0.5608 0.6716,0.4285 0.1412,-0.0998 0.2424,-0.2376 0.1922,-0.4105 l 0,0 0,0 0,0 z"
           inkscape:connector-curvature="0"
           style="fill:none;stroke:#000000;stroke-width:0.185;stroke-linejoin:round" />
        <path
           id="use3453"
           class="fil29 str23"
           d="m 178.839,131.072 c -0.0698,-0.2399 -0.2266,-0.3648 -0.3385,-0.1439 -0.0785,0.1549 -0.132,0.2976 -0.1769,0.4742 -0.0625,0.2457 0.1362,0.2125 0.3231,0.0805 0.1411,-0.1 0.2425,-0.2379 0.1923,-0.4108 l 0,0 z"
           inkscape:connector-curvature="0"
           style="fill:#eac102;stroke:#000000;stroke-width:0.185;stroke-linejoin:round" />
        <path
           id="use3455"
           class="fil0 str23"
           d="m 179.471,131.836 c -0.0697,-0.2402 -0.4605,-0.4876 -0.6716,-0.4285 -0.1453,0.0406 -0.2196,0.2597 -0.1922,0.4105 0.045,0.2486 0.4847,0.5607 0.6716,0.4285 0.1412,-0.1 0.2424,-0.2377 0.1922,-0.4105 z"
           inkscape:connector-curvature="0"
           style="fill:none;stroke:#000000;stroke-width:0.185;stroke-linejoin:round" />
        <path
           id="use3457"
           class="fil29 str23"
           d="m 178.555,131.761 c -0.0697,-0.2402 -0.2293,-0.3668 -0.3269,-0.1368 -0.0862,0.2039 -0.0893,0.2711 -0.1625,0.4115 -0.1142,0.2192 0.1104,0.2681 0.2973,0.1358 0.1411,-0.1 0.2423,-0.2378 0.1921,-0.4105 z"
           inkscape:connector-curvature="0"
           style="fill:#eac102;stroke:#000000;stroke-width:0.185;stroke-linejoin:round" />
        <path
           id="use3459"
           class="fil0 str23"
           d="m 179.157,132.526 c -0.0697,-0.2401 -0.4605,-0.4875 -0.6717,-0.4285 -0.1453,0.0406 -0.2195,0.2598 -0.1921,0.4105 0.045,0.2487 0.4847,0.5608 0.6716,0.4285 0.1411,-0.0999 0.2424,-0.2377 0.1922,-0.4105 z"
           inkscape:connector-curvature="0"
           style="fill:none;stroke:#000000;stroke-width:0.185;stroke-linejoin:round" />
        <path
           id="use3461"
           class="fil29 str23"
           d="m 178.218,132.414 c -0.0698,-0.2401 -0.1285,-0.3562 -0.2265,-0.1265 -0.0928,0.2177 -0.1282,0.354 -0.169,0.4254 -0.1219,0.2134 0.0163,0.2438 0.2032,0.1116 0.141,-0.0999 0.2426,-0.2376 0.1923,-0.4105 l 0,0 z"
           inkscape:connector-curvature="0"
           style="fill:#eac102;stroke:#000000;stroke-width:0.185;stroke-linejoin:round" />
        <path
           id="use3463"
           class="fil0 str23"
           d="m 178.849,133.178 c -0.0697,-0.24 -0.4604,-0.4874 -0.6717,-0.4286 -0.1452,0.0408 -0.2194,0.26 -0.1922,0.4108 0.0451,0.2486 0.4849,0.5607 0.6717,0.4285 0.1412,-0.1 0.2424,-0.2377 0.1922,-0.4107 z"
           inkscape:connector-curvature="0"
           style="fill:none;stroke:#000000;stroke-width:0.185;stroke-linejoin:round" />
        <path
           id="use3465"
           class="fil29 str23"
           d="m 177.933,133.102 c -0.0698,-0.2401 0.049,-0.3264 -0.1566,-0.2435 -0.007,0.003 -0.2083,0.4285 -0.1809,0.5794 0.045,0.2486 -0.0415,0.2069 0.1452,0.0747 0.1412,-0.0998 0.2425,-0.2377 0.1923,-0.4106 l 0,0 0,0 0,0 z"
           inkscape:connector-curvature="0"
           style="fill:#eac102;stroke:#000000;stroke-width:0.185;stroke-linejoin:round" />
        <path
           id="use3531"
           class="fil29 str23"
           d="m 179.837,134.434 c 0.1288,-0.2076 -0.1748,-0.3589 -0.3859,-0.2999 -0.1453,0.0405 -0.2195,0.2598 -0.1922,0.4105 0.0451,0.2486 0.2441,0.4387 0.3937,0.2511 0.1193,-0.1497 0.1057,-0.2351 0.1844,-0.3617 l 0,0 z"
           inkscape:connector-curvature="0"
           style="fill:#eac102;stroke:#000000;stroke-width:0.185;stroke-linejoin:round" />
        <path
           id="use3533"
           class="fil29 str23"
           d="m 179.183,134.451 c -0.0697,-0.24 -0.4604,-0.4876 -0.6716,-0.4285 -0.1452,0.0407 -0.2196,0.2598 -0.1922,0.4106 0.0451,0.2487 0.4848,0.5608 0.6716,0.4284 0.1412,-0.0998 0.2425,-0.2376 0.1922,-0.4105 l 0,0 0,0 0,0 z"
           inkscape:connector-curvature="0"
           style="fill:#eac102;stroke:#000000;stroke-width:0.185;stroke-linejoin:round" />
        <path
           id="use3535"
           class="fil29 str23"
           d="m 179.48,134.967 c 0.0192,-0.2547 -0.1258,-0.2381 -0.337,-0.1792 -0.1453,0.0407 -0.2197,0.2597 -0.1923,0.4106 0.0451,0.2486 0.009,0.419 0.1964,0.2869 0.1411,-0.0999 0.3279,-0.4525 0.3329,-0.5183 l 0,0 0,0 0,0 0,0 z"
           inkscape:connector-curvature="0"
           style="fill:#eac102;stroke:#000000;stroke-width:0.185;stroke-linejoin:round" />
        <path
           id="use3537"
           class="fil29 str23"
           d="m 178.898,135.14 c -0.0699,-0.24 -0.4606,-0.4874 -0.6716,-0.4285 -0.1454,0.0406 -0.2196,0.2598 -0.1922,0.4107 0.045,0.2485 0.4846,0.5606 0.6717,0.4283 0.141,-0.0998 0.2423,-0.2376 0.1921,-0.4105 l 0,0 0,0 0,0 z"
           inkscape:connector-curvature="0"
           style="fill:#eac102;stroke:#000000;stroke-width:0.185;stroke-linejoin:round" />
        <path
           id="use3539"
           class="fil29 str23"
           d="m 179.055,135.603 c 0.0967,-0.2304 -0.0152,-0.1854 -0.2262,-0.1265 -0.1453,0.0407 -0.2196,0.2599 -0.1922,0.4105 0.045,0.2486 -0.0313,0.3774 0.0999,0.1716 0.0861,-0.135 0.2719,-0.3445 0.3185,-0.4556 l 0,0 0,0 0,0 0,0 z"
           inkscape:connector-curvature="0"
           style="fill:#eac102;stroke:#000000;stroke-width:0.185;stroke-linejoin:round" />
        <path
           id="use3541"
           class="fil29 str23"
           d="m 178.56,135.794 c -0.0697,-0.24 -0.4605,-0.4874 -0.6717,-0.4285 -0.1452,0.0406 -0.2194,0.2598 -0.1922,0.4106 0.0452,0.2487 0.4849,0.5607 0.6717,0.4284 0.1411,-0.0998 0.2425,-0.2375 0.1922,-0.4105 l 0,0 0,0 0,0 z"
           inkscape:connector-curvature="0"
           style="fill:#eac102;stroke:#000000;stroke-width:0.185;stroke-linejoin:round" />
        <path
           id="use3545"
           class="fil29 str23"
           d="m 178.275,136.482 c -0.0697,-0.2401 -0.4606,-0.4876 -0.6717,-0.4285 -0.1453,0.0405 -0.2195,0.2597 -0.1922,0.4105 0.0451,0.2487 0.4027,0.3827 0.5896,0.2504 0.1412,-0.0997 0.3245,-0.0596 0.2743,-0.2324 l 0,0 0,0 0,0 0,0 z"
           inkscape:connector-curvature="0"
           style="fill:#eac102;stroke:#000000;stroke-width:0.185;stroke-linejoin:round" />
        <path
           id="use3547"
           class="fil0 str23"
           d="m 178.576,133.665 c -0.0697,-0.24 -0.4604,-0.4875 -0.6717,-0.4285 -0.1452,0.0407 -0.2194,0.2599 -0.1922,0.4107 0.0452,0.2487 0.4849,0.5607 0.6717,0.4285 0.1412,-0.1 0.2425,-0.2377 0.1922,-0.4107 z"
           inkscape:connector-curvature="0"
           style="fill:none;stroke:#000000;stroke-width:0.185;stroke-linejoin:round" />
        <path
           id="use3551"
           class="fil29 str23"
           d="m 178.266,134.317 c -0.0696,-0.2402 -0.4604,-0.4875 -0.6715,-0.4285 -0.1453,0.0406 -0.2196,0.2598 -0.1922,0.4105 0.0451,0.2487 0.4848,0.5608 0.6715,0.4285 0.1412,-0.1 0.2425,-0.2377 0.1922,-0.4105 z"
           inkscape:connector-curvature="0"
           style="fill:#eac102;stroke:#000000;stroke-width:0.185;stroke-linejoin:round" />
        <path
           id="use3555"
           class="fil29 str23"
           d="m 177.962,135.011 c -0.0534,-0.2306 -0.3996,-0.4496 -0.5949,-0.3796 -0.1346,0.0483 -0.2118,0.267 -0.1933,0.413 0.0304,0.2405 0.4185,0.5197 0.5949,0.3795 0.1332,-0.1061 0.2316,-0.2468 0.1933,-0.4129 z"
           inkscape:connector-curvature="0"
           style="fill:#eac102;stroke:#000000;stroke-width:0.185;stroke-linejoin:round" />
        <path
           id="use3559"
           class="fil29 str23"
           d="m 177.645,135.66 c -0.0697,-0.2402 -0.2493,-0.4247 -0.4606,-0.3655 -0.1452,0.0405 -0.1026,0.46 -0.0753,0.6106 0.0452,0.2487 0.1568,0.2975 0.3436,0.1654 0.1412,-0.1 0.2425,-0.2377 0.1923,-0.4105 l 0,0 0,0 0,0 0,0 z"
           inkscape:connector-curvature="0"
           style="fill:#eac102;stroke:#000000;stroke-width:0.185;stroke-linejoin:round" />
        <path
           id="use3579"
           class="fil29 str23"
           d="m 177.364,136.346 c -0.0696,-0.2402 -0.0353,-0.4317 -0.2464,-0.3727 -0.1453,0.0406 0.0258,0.0573 0.0532,0.2079 0.0451,0.2487 0.2577,-0.0149 0.1953,0.1607 -0.0636,0.1787 0.0483,0.1769 -0.002,0.004 l 0,0 -2e-4,3e-4 z"
           inkscape:connector-curvature="0"
           style="fill:#eac102;stroke:#000000;stroke-width:0.185;stroke-linejoin:round" />
      </g>
      <path
         id="path2254"
         class="fil30 str12"
         d="m 336.55343,556.0641 c -2.63983,-29.17048 0.58248,-54.04248 10.55464,-80.10591 1.29733,-3.38739 25.91547,-57.88931 23.26474,-55.71203 -3.52133,2.89524 12.36436,-52.99745 12.90478,-51.90103 0,0 -19.62037,38.07581 -32.70115,66.93013 -13.05585,28.79203 -6.6533,14.21146 -18.10033,49.40604 -12.47961,38.37328 -14.41704,109.91026 -14.41704,109.91026 l 18.49436,-38.52746 0,0 0,0 0,0 0,0 z"
         inkscape:connector-curvature="0"
         style="clip-rule:evenodd;fill:#008f4c;fill-rule:evenodd;stroke:#000000;stroke-width:2.88434219;stroke-linejoin:round;image-rendering:optimizeQuality;shape-rendering:geometricPrecision;text-rendering:geometricPrecision" />
      <path
         id="path3229"
         class="fil30 str12"
         d="m 443.18999,410.50761 c -10.84899,7.24668 -19.0488,4.55545 -37.03078,37.66621 -8.41941,15.50256 -7.16102,27.31715 -16.85751,39.46035 -4.67694,5.86369 -35.35188,53.60641 -35.58238,55.98614 7.43824,4.68161 56.25713,-45.87381 59.47009,-73.16916 5.66901,-48.13674 20.3804,-41.55508 30.00058,-59.94354 l 0,0 0,0 0,0 0,0 z"
         inkscape:connector-curvature="0"
         style="clip-rule:evenodd;fill:#008f4c;fill-rule:evenodd;stroke:#000000;stroke-width:2.88434219;stroke-linejoin:round;image-rendering:optimizeQuality;shape-rendering:geometricPrecision;text-rendering:geometricPrecision" />
      <path
         id="path3231"
         class="fil30 str12"
         d="m 317.47503,594.84386 c -4.52274,-19.57365 -7.27315,-29.12375 3.29239,-78.17003 4.02593,-19.62038 4.85759,-43.90991 6.48666,-67.03604 5.31859,29.1736 7.93972,60.07126 2.74884,88.74492 -2.18662,12.09648 -8.71532,35.56525 -12.52789,56.46115 l 0,0 0,0 0,0 0,0 z"
         inkscape:connector-curvature="0"
         style="clip-rule:evenodd;fill:#008f4c;fill-rule:evenodd;stroke:#000000;stroke-width:2.88434219;stroke-linejoin:round;image-rendering:optimizeQuality;shape-rendering:geometricPrecision;text-rendering:geometricPrecision" />
      <path
         id="path4202"
         class="fil30 str12"
         d="m 438.28412,436.23619 c -26.32196,54.69037 -36.16641,117.73162 -120.36055,158.35226 l 17.44934,-36.58069 c 17.92435,-25.02463 32.2495,-27.94946 43.7526,-36.13838 25.72858,-18.3137 38.06491,-60.53225 59.15861,-85.63319 z"
         inkscape:connector-curvature="0"
         style="clip-rule:evenodd;fill:#008f4c;fill-rule:evenodd;stroke:#000000;stroke-width:2.88434219;stroke-linejoin:round;image-rendering:optimizeQuality;shape-rendering:geometricPrecision;text-rendering:geometricPrecision" />
    </g>
  </g>
</svg>
