<?xml version="1.0" encoding="UTF-8"?>
<!DOCTYPE svg PUBLIC "-//W3C//DTD SVG 1.1//EN" "http://www.w3.org/Graphics/SVG/1.1/DTD/svg11.dtd">
<svg version="1.1" xmlns="http://www.w3.org/2000/svg" xmlns:xlink="http://www.w3.org/1999/xlink" x="0" y="0" width="494" height="429" viewBox="0, 0, 494, 429">
  <g id="Layer_1">
    <path d="M350.648,369.43 C350.648,401.75 307.25,427.969 253.695,427.969 C200.141,427.969 156.742,401.75 156.742,369.43 C156.742,337.094 200.141,310.891 253.695,310.891 C307.25,310.891 350.648,337.094 350.648,369.43" fill="#1A1919"/>
    <path d="M247.602,275.288 C182.891,275.288 121.956,261.501 76.021,236.468 C28.898,210.787 2.946,176.222 2.946,139.141 C2.946,102.053 28.898,67.486 76.021,41.807 C121.953,16.778 182.888,2.993 247.602,2.993 C312.309,2.993 373.239,16.778 419.168,41.807 C466.29,67.487 492.241,102.054 492.241,139.141 C492.241,176.222 466.29,210.786 419.168,236.468 C373.236,261.501 312.306,275.288 247.602,275.288 z M247.602,15.397 C184.926,15.397 126.099,28.645 81.957,52.699 C39.005,76.105 15.351,106.804 15.351,139.141 C15.351,171.472 39.005,202.169 81.957,225.577 C126.102,249.635 184.929,262.884 247.602,262.884 C310.268,262.884 369.09,249.635 413.232,225.577 C456.183,202.169 479.837,171.472 479.837,139.141 C479.837,106.804 456.183,76.105 413.232,52.699 C369.093,28.645 310.271,15.397 247.602,15.397" fill="#1A1919"/>
    <path d="M247.602,269.086 C115.906,269.086 9.148,210.899 9.148,139.141 C9.148,274.352 115.906,383.945 247.602,383.945 C379.281,383.945 486.039,274.352 486.039,139.141 C486.039,210.899 379.281,269.086 247.602,269.086" fill="#1A1919"/>
    <path d="M247.602,390.329 C182.17,390.329 120.665,364.182 74.416,316.702 C28.21,269.267 2.764,206.207 2.764,139.141 L15.533,139.141 C15.533,171.402 39.154,202.042 82.044,225.416 C126.163,249.46 184.959,262.702 247.602,262.702 C310.237,262.702 369.029,249.46 413.145,225.416 C456.034,202.041 479.655,171.401 479.655,139.141 L492.423,139.141 C492.423,206.207 466.978,269.266 420.774,316.702 C374.527,364.182 313.026,390.329 247.602,390.329 z M21.178,191.534 C44.482,297.875 137.157,377.561 247.602,377.561 C358.039,377.561 450.707,297.875 474.01,191.533 C461.61,208.298 443.152,223.604 419.255,236.628 C373.297,261.676 312.335,275.47 247.602,275.47 C182.861,275.47 121.895,261.676 75.934,236.628 C52.037,223.605 33.578,208.298 21.178,191.534" fill="#1A1919"/>
    <path d="M486.039,139.141 C486.039,210.899 379.281,269.086 247.602,269.086 C115.906,269.086 9.148,210.899 9.148,139.141 C9.148,67.367 115.906,9.195 247.602,9.195 C379.281,9.195 486.039,67.367 486.039,139.141" fill="#AB2430"/>
    <path d="M247.602,269.086 C363.367,269.086 459.828,224.102 481.469,164.484 C459.828,104.844 363.367,59.883 247.602,59.883 C131.82,59.883 35.375,104.844 13.734,164.484 C35.375,224.102 131.82,269.086 247.602,269.086" fill="#A06F33"/>
    <path d="M207.242,135.031 L170.852,127.281 L165.086,103.945 L201.469,111.695 L207.242,135.031" fill="#E4E4E3"/>
    <path d="M207.242,135.031 L232.641,112.828 L226.867,89.492 L201.469,111.695 L207.242,135.031" fill="#D7D8D6"/>
    <path d="M165.086,103.945 L193.383,83.203 L226.867,89.492 L201.469,111.695 L165.086,103.945" fill="#F2F1F0"/>
    <path d="M138.898,120.945 C156.203,111.547 196.141,121.758 208.57,119.977 C225.281,117.586 261.82,96.164 271.078,122.445 C283.102,156.578 192.414,156.953 175.164,158.398 C161.984,159.508 141.312,165.562 134.875,150.914 C127.57,134.266 130.695,125.406 138.898,120.945" fill="#A06F33"/>
    <path d="M311.117,140.367 L289.82,109.859 L301.539,88.867 L322.836,119.367 L311.117,140.367" fill="#E4E4E3"/>
    <path d="M311.117,140.367 L344.836,141.477 L356.547,120.484 L322.836,119.367 L311.117,140.367" fill="#D7D8D6"/>
    <path d="M301.539,88.867 L336.375,93.031 L356.547,120.484 L322.836,119.367 L301.539,88.867" fill="#F2F1F0"/>
    <path d="M270.328,120.586 C287.633,111.187 327.562,121.398 339.992,119.617 C356.703,117.227 393.25,95.797 402.508,122.086 C414.523,156.211 323.844,156.586 306.586,158.039 C293.414,159.141 272.742,165.195 266.305,150.547 C259,133.906 262.125,125.039 270.328,120.586" fill="#A06F33"/>
    <path d="M248.977,230.117 L211.867,227.523 L202.906,205.211 L240.016,207.813 L248.977,230.117" fill="#E4E4E3"/>
    <path d="M248.977,230.117 L271.039,204.594 L262.062,182.289 L240.016,207.813 L248.977,230.117" fill="#D7D8D6"/>
    <path d="M202.906,205.211 L228.031,180.727 L262.062,182.289 L240.016,207.813 L202.906,205.211" fill="#F2F1F0"/>
    <path d="M185.023,210.367 C202.328,200.969 242.258,211.18 254.695,209.399 C271.398,207.008 307.945,185.586 317.203,211.875 C329.227,246 238.539,246.375 221.281,247.828 C208.109,248.93 187.438,254.984 181,240.336 C173.695,223.687 176.82,214.828 185.023,210.367" fill="#A06F33"/>
    <path d="M347.742,191.367 L317.289,170.008 L321.102,146.273 L351.57,167.633 L347.742,191.367" fill="#E4E4E3"/>
    <path d="M347.742,191.367 L379.797,180.875 L383.609,157.141 L351.57,167.633 L347.742,191.367" fill="#D7D8D6"/>
    <path d="M321.102,146.273 L355.258,138.258 L383.609,157.141 L351.57,167.633 L321.102,146.273" fill="#F2F1F0"/>
    <path d="M297.945,169.102 C315.25,159.703 355.18,169.914 367.609,168.133 C384.32,165.742 420.867,144.313 430.125,170.602 C442.141,204.727 351.461,205.102 334.203,206.555 C321.031,207.656 300.359,213.711 293.922,199.063 C286.617,182.422 289.742,173.555 297.945,169.102" fill="#A06F33"/>
    <path d="M110.906,180.727 L84.273,154.75 L91.859,131.938 L118.492,157.914 L110.906,180.727" fill="#E4E4E3"/>
    <path d="M110.906,180.727 L144.234,175.523 L151.812,152.711 L118.492,157.914 L110.906,180.727" fill="#D7D8D6"/>
    <path d="M91.859,131.938 L126.852,129.508 L151.812,152.711 L118.492,157.914 L91.859,131.938" fill="#F2F1F0"/>
    <path d="M65.227,156.914 C82.922,148.281 122.367,160.234 134.867,159 C151.664,157.344 189.117,137.539 197.211,164.211 C207.727,198.828 117.117,195.234 99.812,195.93 C86.594,196.445 65.68,201.586 59.898,186.68 C53.328,169.727 56.828,161.008 65.227,156.914" fill="#A06F33"/>
    <path d="M118.195,114.313 C115.266,112.906 109.281,102.07 110.773,99.305 C112.984,95.133 128.188,91.875 131.547,95.211 C133.43,97.063 133.5,101.375 134.086,103.766 C135.227,108.398 133.305,110.586 128.258,113.062 C123.781,115.281 120.563,115.422 118.195,114.313" fill="#70952F"/>
    <path d="M432.609,167.148 C429.273,167.531 415.32,161.953 413.852,158.953 C411.672,154.484 419.484,144.086 424.828,145.023 C427.859,145.555 431.781,148.961 434.359,150.57 C439.328,153.688 439.898,156.422 438.586,160.984 C437.43,165.07 435.289,166.836 432.609,167.148" fill="#3A753C"/>
    <path d="M136.594,204.391 C133.562,204.078 119.633,197.578 117.75,195.133 C114.953,191.5 120.398,185.266 125.516,186.875 C128.406,187.789 132.648,190.961 135.328,192.594 C140.477,195.727 141.477,197.82 141.07,200.93 C140.68,203.695 139.016,204.617 136.594,204.391" fill="#3A753C"/>
    <path d="M401.383,120.836 C398.273,122.031 386.883,118.664 386.227,115.531 C385.227,110.836 394.617,97.063 399.266,96.953 C401.859,96.898 404.656,99.953 406.633,101.25 C410.437,103.758 410.367,106.797 408.18,112.367 C406.203,117.352 403.875,119.859 401.383,120.836" fill="#498A45"/>
    <path d="M272.094,232.148 C272.406,228.516 281.516,215.93 285.07,215.477 C290.344,214.773 299.82,226.57 297.609,231.82 C296.383,234.766 291.852,237.656 289.523,239.789 C285.086,243.859 282.008,243.516 277.398,240.539 C273.289,237.883 271.859,235.016 272.094,232.148" fill="#498A45"/>
    <path d="M391.156,215.242 C389.594,212.781 388.773,199.883 390.578,197.648 C393.227,194.289 404.25,196.516 405.523,201.016 C406.242,203.555 405.023,207.852 404.742,210.453 C404.148,215.469 402.234,216.93 398.18,217.602 C394.578,218.195 392.398,217.172 391.156,215.242" fill="#70952F"/>
    <path d="M163.609,237.914 C160.766,238.977 145.406,239.555 142.609,238.328 C138.422,236.523 140.344,229.055 145.656,228.187 C148.625,227.703 153.836,228.516 156.945,228.703 C162.992,229.102 164.867,230.399 165.945,233.148 C166.906,235.602 165.828,237.078 163.609,237.914" fill="#3A753C"/>
    <path d="M220.867,156.461 C217.945,155.305 206.859,144.602 206.07,141.523 C204.898,136.945 213.258,132.008 217.68,135.117 C220.187,136.891 223.016,141.383 224.977,143.812 C228.734,148.523 228.805,151.008 226.969,154.117 C225.32,156.891 223.195,157.367 220.867,156.461" fill="#498A45"/>
    <path d="M333.82,196.734 C331.023,197.367 322.836,193.172 323.141,190.461 C323.602,186.406 334.672,175.992 338.406,176.461 C340.484,176.734 341.922,179.633 343.133,180.961 C345.516,183.531 344.641,186.07 341.453,190.469 C338.57,194.399 336.039,196.242 333.82,196.734" fill="#70952F"/>
    <path d="M57.906,174.758 C56.906,172.055 59.969,163.383 62.703,163.32 C66.773,163.242 78.578,172.813 78.609,176.578 C78.625,178.672 75.945,180.484 74.789,181.867 C72.563,184.57 69.93,184.047 65.133,181.477 C60.867,179.141 58.695,176.883 57.906,174.758" fill="#70952F"/>
  </g>
</svg>
