<?xml version="1.0" encoding="UTF-8"?>
<!DOCTYPE svg PUBLIC "-//W3C//DTD SVG 1.1//EN" "http://www.w3.org/Graphics/SVG/1.1/DTD/svg11.dtd">
<svg version="1.1" xmlns="http://www.w3.org/2000/svg" xmlns:xlink="http://www.w3.org/1999/xlink" x="0" y="0" width="236" height="177" viewBox="0, 0, 236, 177">
  <g id="Layer_1">
    <path d="M23.817,43.13 C24.15,44.13 33.817,72.464 35.484,76.797 C36.484,75.797 63.484,65.464 63.484,65.464 C63.484,65.464 36.15,41.463 36.15,40.13 C36.15,38.797 36.15,37.464 36.15,37.464 C32.484,38.464 25.484,38.797 24.817,39.797 C24.15,40.797 23.484,41.796 23.817,43.13 z" fill-opacity="0" stroke="#1A1919" stroke-width="4" stroke-linecap="round" stroke-linejoin="round"/>
    <path d="M136.817,40.13 L139.484,44.797 L143.817,51.797 L157.817,49.797 L147.817,40.797 L136.817,40.13" fill="#FFFFFE"/>
    <path d="M136.817,40.13 L139.484,44.797 L143.817,51.797 L157.817,49.797 L147.817,40.797 L136.817,40.13 z" fill-opacity="0" stroke="#1A1919" stroke-width="4" stroke-linecap="round" stroke-linejoin="round"/>
    <path d="M194.15,58.464 C190.15,66.464 185.15,73.464 174.484,86.13 C166.15,94.464 160.484,100.13 137.484,113.464 C110.143,129.314 74.484,139.797 50.484,143.13 C13.15,148.13 4.817,132.13 3.817,128.464 C2.817,124.798 2.817,120.797 3.817,116.464 C14.15,84.464 22.817,77.464 43.15,69.13 C68.81,58.613 173.15,47.13 188.484,46.13 C191.817,48.464 193.484,53.797 194.15,58.464" fill="#FFFFFE"/>
    <path d="M194.15,58.464 C190.15,66.464 185.15,73.464 174.484,86.13 C166.15,94.464 160.484,100.13 137.484,113.464 C110.143,129.314 74.484,139.797 50.484,143.13 C13.15,148.13 4.817,132.13 3.817,128.464 C2.817,124.798 2.817,120.797 3.817,116.464 C14.15,84.464 22.817,77.464 43.15,69.13 C68.81,58.613 173.15,47.13 188.484,46.13 C191.817,48.464 193.484,53.797 194.15,58.464 z" fill-opacity="0" stroke="#1A1919" stroke-width="4" stroke-linecap="round" stroke-linejoin="round"/>
    <path d="M171.535,89.062 C151.664,100.402 121.447,113.647 104.817,121.13 C84.817,130.13 62.484,138.463 42.15,140.463 C27.379,141.916 19.296,140.73 14.316,139.462 C21.263,143.071 32.504,145.538 50.484,143.13 C74.484,139.797 110.143,129.314 137.484,113.464 C157.695,101.746 164.521,95.95 171.535,89.062" fill="#9E9F9E"/>
    <path d="M171.535,89.062 C151.664,100.402 121.447,113.647 104.817,121.13 C84.817,130.13 62.484,138.463 42.15,140.463 C27.379,141.916 19.296,140.73 14.316,139.462 C21.263,143.071 32.504,145.538 50.484,143.13 C74.484,139.797 110.143,129.314 137.484,113.464 C157.695,101.746 164.521,95.95 171.535,89.062 z M194.15,58.464 C190.15,66.464 185.15,73.464 174.484,86.13 C166.15,94.464 160.484,100.13 137.484,113.464 C110.143,129.314 74.484,139.797 50.484,143.13 C13.15,148.13 4.817,132.13 3.817,128.464 C2.817,124.798 2.817,120.797 3.817,116.464 C14.15,84.464 22.817,77.464 43.15,69.13 C68.81,58.613 173.15,47.13 188.484,46.13 C191.817,48.464 193.484,53.797 194.15,58.464 z" fill-opacity="0" stroke="#1A1919" stroke-width="4" stroke-linecap="round" stroke-linejoin="round"/>
    <path d="M189.484,61.463 L175.817,69.797 C175.817,69.797 175.484,72.463 176.484,73.463 C182.484,73.797 208.239,74.179 213.484,73.13 C215.817,71.797 218.484,67.463 218.817,66.13 C218.817,66.13 192.484,61.796 189.484,61.463" fill="#FFFFFE"/>
    <path d="M189.484,61.463 L175.817,69.797 C175.817,69.797 175.484,72.463 176.484,73.463 C182.484,73.797 208.239,74.179 213.484,73.13 C215.817,71.797 218.484,67.463 218.817,66.13 C218.817,66.13 192.484,61.796 189.484,61.463 z" fill-opacity="0" stroke="#1A1919" stroke-width="4" stroke-linecap="round" stroke-linejoin="round"/>
    <path d="M69.301,109.047 C69.301,110.246 70.101,115.446 70.101,119.046 C70.101,122.647 67.3,128.246 67.3,128.246 C67.3,128.246 66.101,129.446 67.701,130.247 C69.301,131.047 75.7,129.047 75.7,129.047 L78.101,127.446 C78.653,126.008 80.228,124.949 81.301,119.046 C82.101,114.646 81.128,109.383 80.9,108.246 C80.5,106.246 78.901,106.247 78.901,106.247 C78.901,106.247 72.501,107.447 71.301,107.847 L69.301,109.047" fill="#286AA6"/>
    <path d="M69.301,109.047 C69.301,110.246 70.101,115.446 70.101,119.046 C70.101,122.647 67.3,128.246 67.3,128.246 C67.3,128.246 66.101,129.446 67.701,130.247 C69.301,131.047 75.7,129.047 75.7,129.047 L78.101,127.446 C78.653,126.008 80.228,124.949 81.301,119.046 C82.101,114.646 81.128,109.383 80.9,108.246 C80.5,106.246 78.901,106.247 78.901,106.247 C78.901,106.247 72.501,107.447 71.301,107.847 L69.301,109.047 z" fill-opacity="0" stroke="#1A1919" stroke-width="4" stroke-linecap="round" stroke-linejoin="round"/>
    <path d="M17.484,99.463 C16.752,98.731 14.774,95.147 13.633,92.622 C11.361,96.626 9.206,101.396 7.041,107.174 C8.19,110.035 10.233,113.784 11.817,114.463 C22.484,116.796 38.15,114.463 41.817,113.463 C42.484,112.129 46.15,101.797 47.15,98.797 C45.15,99.464 36.15,99.797 31.15,100.13 C26.15,100.463 18.484,100.463 17.484,99.463" fill="#35A0CD"/>
    <path d="M17.484,99.463 C16.752,98.731 14.774,95.147 13.633,92.622 C11.361,96.626 9.206,101.396 7.041,107.174 C8.19,110.035 10.233,113.784 11.817,114.463 C22.484,116.796 38.15,114.463 41.817,113.463 C42.484,112.129 46.15,101.797 47.15,98.797 C45.15,99.464 36.15,99.797 31.15,100.13 C26.15,100.463 18.484,100.463 17.484,99.463 z" fill-opacity="0" stroke="#1A1919" stroke-width="4" stroke-linecap="round" stroke-linejoin="round"/>
    <path d="M140.4,84.246 C141.602,83.846 146.801,82.146 146.801,82.146 C148.2,82.746 148.601,84.547 148.601,84.547 C148.601,84.547 149.04,88.451 148.9,90.547 C148.601,95.047 148,95.946 147.101,98.347 L145.9,99.246 L139,101.647 C139,101.647 138.101,100.746 138.101,99.847 C138.101,98.946 139.601,95.047 139.9,92.047 C140.05,90.554 139.601,87.246 139.301,86.347 C139,85.446 140.4,84.246 140.4,84.246" fill="#286AA6"/>
    <path d="M140.4,84.246 C141.602,83.846 146.801,82.146 146.801,82.146 C148.2,82.746 148.601,84.547 148.601,84.547 C148.601,84.547 149.04,88.451 148.9,90.547 C148.601,95.047 148,95.946 147.101,98.347 L145.9,99.246 L139,101.647 C139,101.647 138.101,100.746 138.101,99.847 C138.101,98.946 139.601,95.047 139.9,92.047 C140.05,90.554 139.601,87.246 139.301,86.347 C139,85.446 140.4,84.246 140.4,84.246 z" fill-opacity="0" stroke="#1A1919" stroke-width="4" stroke-linecap="round" stroke-linejoin="round"/>
    <path d="M89.4,110.047 L88.9,118.047 L93.65,116.047 L94.15,108.547 L89.4,110.047" fill="#283278"/>
    <path d="M89.4,110.047 L88.9,118.047 L93.65,116.047 L94.15,108.547 L89.4,110.047 z" fill-opacity="0" stroke="#1A1919" stroke-width="4" stroke-linecap="round" stroke-linejoin="round"/>
    <path d="M108.15,104.047 L107.65,112.047 L112.4,110.047 L112.9,102.547 L108.15,104.047" fill="#283278"/>
    <path d="M108.15,104.047 L107.65,112.047 L112.4,110.047 L112.9,102.547 L108.15,104.047 z" fill-opacity="0" stroke="#1A1919" stroke-width="4" stroke-linecap="round" stroke-linejoin="round"/>
    <path d="M162.65,81.047 L162.15,89.047 L166.9,87.047 L167.4,79.547 L162.65,81.047" fill="#283278"/>
    <path d="M162.65,81.047 L162.15,89.047 L166.9,87.047 L167.4,79.547 L162.65,81.047 z" fill-opacity="0" stroke="#1A1919" stroke-width="4" stroke-linecap="round" stroke-linejoin="round"/>
    <path d="M126.9,96.797 L126.4,104.297 L131.15,102.297 L131.65,94.797 L126.9,96.797" fill="#283278"/>
    <path d="M126.9,96.797 L126.4,104.297 L131.15,102.297 L131.65,94.797 L126.9,96.797 z" fill-opacity="0" stroke="#1A1919" stroke-width="4" stroke-linecap="round" stroke-linejoin="round"/>
    <path d="M153.4,86.047 L152.9,93.547 L157.65,91.547 L158.15,84.047 L153.4,86.047" fill="#283278"/>
    <path d="M153.4,86.047 L152.9,93.547 L157.65,91.547 L158.15,84.047 L153.4,86.047 z" fill-opacity="0" stroke="#1A1919" stroke-width="4" stroke-linecap="round" stroke-linejoin="round"/>
    <path d="M99.15,107.047 L98.65,115.047 L102.9,113.547 L103.65,105.297 L99.15,107.047" fill="#283278"/>
    <path d="M99.15,107.047 L98.65,115.047 L102.9,113.547 L103.65,105.297 L99.15,107.047 z" fill-opacity="0" stroke="#1A1919" stroke-width="4" stroke-linecap="round" stroke-linejoin="round"/>
    <path d="M118.15,100.047 L117.65,108.047 L121.9,106.547 L122.65,98.297 L118.15,100.047" fill="#283278"/>
    <path d="M118.15,100.047 L117.65,108.047 L121.9,106.547 L122.65,98.297 L118.15,100.047 z M4.817,118.463 C4.346,118.463 3.883,118.498 3.421,118.533 C2.853,122.077 2.979,125.39 3.817,128.464 C4.488,130.922 8.471,138.917 22.265,142.417 C22.835,140.646 23.151,138.759 23.151,136.797 C23.151,126.672 14.943,118.463 4.817,118.463 z" fill-opacity="0" stroke="#1A1919" stroke-width="4" stroke-linecap="round" stroke-linejoin="round"/>
    <g>
      <path d="M189.484,4.797 C188.817,5.797 163.15,47.797 162.15,50.13 C162.15,50.13 163.817,52.463 164.817,52.463 C165.817,52.463 188.817,47.797 188.817,47.797 L204.15,4.463 L202.484,3.13 L189.484,4.797" fill="#FFFFFE"/>
      <path d="M189.484,4.797 C188.817,5.797 163.15,47.797 162.15,50.13 C162.15,50.13 163.817,52.463 164.817,52.463 C165.817,52.463 188.817,47.797 188.817,47.797 L204.15,4.463 L202.484,3.13 L189.484,4.797 z" fill-opacity="0" stroke="#1A1919" stroke-width="4" stroke-linecap="round" stroke-linejoin="round"/>
    </g>
    <path d="M175.279,50.509 C181.75,49.23 188.817,47.797 188.817,47.797 L203.777,5.517 L194.816,6.797 L175.279,50.509" fill="#35A0CD"/>
    <path d="M175.279,50.509 C181.75,49.23 188.817,47.797 188.817,47.797 L203.777,5.517 L194.816,6.797 L175.279,50.509 z" fill-opacity="0" stroke="#1A1919" stroke-width="4" stroke-linecap="round" stroke-linejoin="round"/>
    <path d="M89.484,121.464 C86.817,122.798 80.94,128.832 80.15,131.464 C79.15,134.797 81.15,136.797 81.15,136.797 C85.484,138.797 126.484,124.464 143.484,111.797 C146.817,107.464 146.484,105.13 142.15,104.13 C138.484,103.796 96.15,118.13 89.484,121.464" fill="#FFFFFE"/>
    <path d="M89.484,121.464 C86.817,122.798 80.94,128.832 80.15,131.464 C79.15,134.797 81.15,136.797 81.15,136.797 C85.484,138.797 126.484,124.464 143.484,111.797 C146.817,107.464 146.484,105.13 142.15,104.13 C138.484,103.796 96.15,118.13 89.484,121.464 z" fill-opacity="0" stroke="#1A1919" stroke-width="4" stroke-linecap="round" stroke-linejoin="round"/>
    <path d="M118.896,162.188 C120.18,162.595 126.553,160.623 132.263,156.445 C137.973,152.267 139.03,148.513 139.65,146.713 L138.895,140.918 C138.895,140.918 121.873,134.396 110.641,138.478 L118.896,162.188" fill="#8A8B8A"/>
    <path d="M118.896,162.188 C120.18,162.595 126.553,160.623 132.263,156.445 C137.973,152.267 139.03,148.513 139.65,146.713 L138.895,140.918 C138.895,140.918 121.873,134.396 110.641,138.478 L118.896,162.188 z" fill-opacity="0" stroke="#1A1919" stroke-width="4" stroke-linecap="round" stroke-linejoin="round"/>
    <path d="M112.792,164.39 C114.056,164.548 117.741,163.525 120.411,162.327 C121.566,160.989 124.931,156.736 123.967,149.282 C122.81,140.343 118.541,139.293 116.15,137.463 C116.15,137.463 107.65,135.463 104.4,138.463 L112.792,164.39" fill="#FFFFFE"/>
    <path d="M112.792,164.39 C114.056,164.548 117.741,163.525 120.411,162.327 C121.566,160.989 124.931,156.736 123.967,149.282 C122.81,140.343 118.541,139.293 116.15,137.463 C116.15,137.463 107.65,135.463 104.4,138.463 L112.792,164.39 z" fill-opacity="0" stroke="#1A1919" stroke-width="4" stroke-linecap="round" stroke-linejoin="round"/>
    <path d="M108.925,165.225 C103.291,165.638 97.876,160.255 96.855,153.227 C95.801,145.964 99.833,139.111 105.661,138.264 C105.859,138.234 106.06,138.213 106.26,138.198 C112.124,137.769 117.552,143.212 118.361,150.332 C119.271,158.335 115.834,164.15 109.606,165.146 C109.38,165.182 109.152,165.208 108.925,165.225" fill="#FFFFFE"/>
    <path d="M108.925,165.225 C103.291,165.638 97.876,160.255 96.855,153.227 C95.801,145.964 99.833,139.111 105.661,138.264 C105.859,138.234 106.06,138.213 106.26,138.198 C112.124,137.769 117.552,143.212 118.361,150.332 C119.271,158.335 115.834,164.15 109.606,165.146 C109.38,165.182 109.152,165.208 108.925,165.225 z" fill-opacity="0" stroke="#1A1919" stroke-width="4" stroke-linecap="round" stroke-linejoin="round"/>
    <path d="M115.544,150.651 C116.196,156.386 114.335,161.52 109.159,162.346 C105.069,162.999 100.514,158.695 99.66,152.818 C98.807,146.942 101.969,141.665 106.068,141.068 C110.167,140.474 114.838,144.437 115.544,150.651" fill="#283278"/>
    <path d="M115.544,150.651 C116.196,156.386 114.335,161.52 109.159,162.346 C105.069,162.999 100.514,158.695 99.66,152.818 C98.807,146.942 101.969,141.665 106.068,141.068 C110.167,140.474 114.838,144.437 115.544,150.651 z" fill-opacity="0" stroke="#1A1919" stroke-width="4" stroke-linecap="round" stroke-linejoin="round"/>
    <path d="M168.563,171.188 C169.846,171.595 176.219,169.623 181.93,165.445 C187.639,161.267 188.697,157.513 189.316,155.713 L188.562,149.918 C188.562,149.918 171.539,143.396 160.308,147.478 L168.563,171.188" fill="#8A8B8A"/>
    <path d="M168.563,171.188 C169.846,171.595 176.219,169.623 181.93,165.445 C187.639,161.267 188.697,157.513 189.316,155.713 L188.562,149.918 C188.562,149.918 171.539,143.396 160.308,147.478 L168.563,171.188 z" fill-opacity="0" stroke="#1A1919" stroke-width="4" stroke-linecap="round" stroke-linejoin="round"/>
    <path d="M162.458,173.39 C163.723,173.548 167.408,172.525 170.078,171.327 C171.232,169.989 174.598,165.736 173.633,158.282 C172.477,149.343 168.207,148.293 165.816,146.463 C165.816,146.463 157.316,144.463 154.066,147.463 L162.458,173.39" fill="#FFFFFE"/>
    <path d="M162.458,173.39 C163.723,173.548 167.408,172.525 170.078,171.327 C171.232,169.989 174.598,165.736 173.633,158.282 C172.477,149.343 168.207,148.293 165.816,146.463 C165.816,146.463 157.316,144.463 154.066,147.463 L162.458,173.39 z" fill-opacity="0" stroke="#1A1919" stroke-width="4" stroke-linecap="round" stroke-linejoin="round"/>
    <path d="M158.592,174.225 C152.957,174.638 147.543,169.255 146.521,162.227 C145.467,154.964 149.5,148.111 155.327,147.264 C155.525,147.234 155.727,147.213 155.927,147.198 C161.79,146.769 167.219,152.212 168.027,159.332 C168.938,167.335 165.5,173.15 159.272,174.146 C159.047,174.182 158.818,174.208 158.592,174.225" fill="#FFFFFE"/>
    <path d="M158.592,174.225 C152.957,174.638 147.543,169.255 146.521,162.227 C145.467,154.964 149.5,148.111 155.327,147.264 C155.525,147.234 155.727,147.213 155.927,147.198 C161.79,146.769 167.219,152.212 168.027,159.332 C168.938,167.335 165.5,173.15 159.272,174.146 C159.047,174.182 158.818,174.208 158.592,174.225 z" fill-opacity="0" stroke="#1A1919" stroke-width="4" stroke-linecap="round" stroke-linejoin="round"/>
    <path d="M165.211,159.651 C165.862,165.386 164.002,170.52 158.826,171.346 C154.736,171.999 150.181,167.695 149.326,161.818 C148.474,155.942 151.636,150.665 155.734,150.068 C159.834,149.474 164.504,153.437 165.211,159.651" fill="#283278"/>
    <path d="M165.211,159.651 C165.862,165.386 164.002,170.52 158.826,171.346 C154.736,171.999 150.181,167.695 149.326,161.818 C148.474,155.942 151.636,150.665 155.734,150.068 C159.834,149.474 164.504,153.437 165.211,159.651 z" fill-opacity="0" stroke="#1A1919" stroke-width="4" stroke-linecap="round" stroke-linejoin="round"/>
    <path d="M132.484,109.797 C130.817,110.464 92.817,125.131 90.817,126.464 C90.817,126.464 90.15,129.464 90.484,130.797 C108.817,137.464 188.816,155.464 212.15,158.797 C214.816,159.13 217.817,159.13 221.484,157.797 C225.15,156.464 228.15,154.13 233.484,149.13 C233.15,147.797 227.484,148.13 227.484,148.13 C224.816,147.13 136.817,110.797 132.484,109.797" fill="#FFFFFE"/>
    <path d="M132.484,109.797 C130.817,110.464 92.817,125.131 90.817,126.464 C90.817,126.464 90.15,129.464 90.484,130.797 C108.817,137.464 188.816,155.464 212.15,158.797 C214.816,159.13 217.817,159.13 221.484,157.797 C225.15,156.464 228.15,154.13 233.484,149.13 C233.15,147.797 227.484,148.13 227.484,148.13 C224.816,147.13 136.817,110.797 132.484,109.797 z M92.484,127.463 C102.484,132.13 179.484,151.13 213.15,157.13 M189.484,4.797 C188.817,5.797 163.15,47.797 162.15,50.13 C162.15,50.13 163.817,52.463 164.817,52.463 C165.817,52.463 188.817,47.797 188.817,47.797 L204.15,4.463 L202.484,3.13 L189.484,4.797 z" fill-opacity="0" stroke="#1A1919" stroke-width="4" stroke-linecap="round" stroke-linejoin="round"/>
    <path d="M23.817,43.13 C24.15,44.13 33.817,72.464 35.484,76.797 C36.484,75.797 63.484,65.464 63.484,65.464 C63.484,65.464 36.15,41.463 36.15,40.13 C36.15,38.797 36.15,37.464 36.15,37.464 C32.484,38.464 25.484,38.797 24.817,39.797 C24.15,40.797 23.484,41.796 23.817,43.13" fill="#FFFFFE"/>
    <path d="M23.817,43.13 C24.15,44.13 33.817,72.464 35.484,76.797 C36.484,75.797 63.484,65.464 63.484,65.464 C63.484,65.464 36.15,41.463 36.15,40.13 C36.15,38.797 36.15,37.464 36.15,37.464 C32.484,38.464 25.484,38.797 24.817,39.797 C24.15,40.797 23.484,41.796 23.817,43.13 z" fill-opacity="0" stroke="#1A1919" stroke-width="1.5" stroke-linecap="round" stroke-linejoin="round"/>
    <path d="M23.817,43.13 C24.15,44.13 33.817,72.464 35.484,76.797 C36.484,75.797 63.484,65.464 63.484,65.464 C63.484,65.464 36.15,41.463 36.15,40.13 C36.15,38.797 36.15,37.464 36.15,37.464 C32.484,38.464 25.484,38.797 24.817,39.797 C24.15,40.797 23.484,41.796 23.817,43.13" fill="#FFFFFE"/>
    <path d="M23.817,43.13 C24.15,44.13 33.817,72.464 35.484,76.797 C36.484,75.797 63.484,65.464 63.484,65.464 C63.484,65.464 36.15,41.463 36.15,40.13 C36.15,38.797 36.15,37.464 36.15,37.464 C32.484,38.464 25.484,38.797 24.817,39.797 C24.15,40.797 23.484,41.796 23.817,43.13 z" fill-opacity="0" stroke="#1A1919" stroke-width="1.5" stroke-linecap="round" stroke-linejoin="round"/>
    <path d="M136.817,40.13 L139.484,44.797 L143.817,51.797 L157.817,49.797 L147.817,40.797 L136.817,40.13" fill="#FFFFFE"/>
    <path d="M136.817,40.13 L139.484,44.797 L143.817,51.797 L157.817,49.797 L147.817,40.797 L136.817,40.13 z" fill-opacity="0" stroke="#1A1919" stroke-width="1.5" stroke-linecap="round" stroke-linejoin="round"/>
    <path d="M194.15,58.464 C190.15,66.464 185.15,73.464 174.484,86.13 C166.15,94.464 160.484,100.13 137.484,113.464 C110.143,129.314 74.484,139.797 50.484,143.13 C13.15,148.13 4.817,132.13 3.817,128.464 C2.817,124.798 2.817,120.797 3.817,116.464 C14.15,84.464 22.817,77.464 43.15,69.13 C68.81,58.613 173.15,47.13 188.484,46.13 C191.817,48.464 193.484,53.797 194.15,58.464" fill="#FFFFFE"/>
    <path d="M171.535,89.062 C151.664,100.402 121.447,113.647 104.817,121.13 C84.817,130.13 62.484,138.463 42.15,140.463 C27.379,141.916 19.296,140.73 14.316,139.462 C21.263,143.071 32.504,145.538 50.484,143.13 C74.484,139.797 110.143,129.314 137.484,113.464 C157.695,101.746 164.521,95.95 171.535,89.062" fill="#9E9F9E"/>
    <path d="M194.15,58.464 C190.15,66.464 185.15,73.464 174.484,86.13 C166.15,94.464 160.484,100.13 137.484,113.464 C110.143,129.314 74.484,139.797 50.484,143.13 C13.15,148.13 4.817,132.13 3.817,128.464 C2.817,124.798 2.817,120.797 3.817,116.464 C14.15,84.464 22.817,77.464 43.15,69.13 C68.81,58.613 173.15,47.13 188.484,46.13 C191.817,48.464 193.484,53.797 194.15,58.464 z" fill-opacity="0" stroke="#1A1919" stroke-width="1.5" stroke-linecap="round" stroke-linejoin="round"/>
    <path d="M189.484,61.463 L175.817,69.797 C175.817,69.797 175.484,72.463 176.484,73.463 C182.484,73.797 208.239,74.179 213.484,73.13 C215.817,71.797 218.484,67.463 218.817,66.13 C218.817,66.13 192.484,61.796 189.484,61.463" fill="#FFFFFE"/>
    <path d="M189.484,61.463 L175.817,69.797 C175.817,69.797 175.484,72.463 176.484,73.463 C182.484,73.797 208.239,74.179 213.484,73.13 C215.817,71.797 218.484,67.463 218.817,66.13 C218.817,66.13 192.484,61.796 189.484,61.463 z" fill-opacity="0" stroke="#1A1919" stroke-width="1.5" stroke-linecap="round" stroke-linejoin="round"/>
    <path d="M69.301,109.047 C69.301,110.246 70.101,115.446 70.101,119.046 C70.101,122.647 67.3,128.246 67.3,128.246 C67.3,128.246 66.101,129.446 67.701,130.247 C69.301,131.047 75.7,129.047 75.7,129.047 L78.101,127.446 C78.653,126.008 80.228,124.949 81.301,119.046 C82.101,114.646 81.128,109.383 80.9,108.246 C80.5,106.246 78.901,106.247 78.901,106.247 C78.901,106.247 72.501,107.447 71.301,107.847 L69.301,109.047" fill="#286AA6"/>
    <path d="M69.301,109.047 C69.301,110.246 70.101,115.446 70.101,119.046 C70.101,122.647 67.3,128.246 67.3,128.246 C67.3,128.246 66.101,129.446 67.701,130.247 C69.301,131.047 75.7,129.047 75.7,129.047 L78.101,127.446 C78.653,126.008 80.228,124.949 81.301,119.046 C82.101,114.646 81.128,109.383 80.9,108.246 C80.5,106.246 78.901,106.247 78.901,106.247 C78.901,106.247 72.501,107.447 71.301,107.847 L69.301,109.047 z" fill-opacity="0" stroke="#1A1919" stroke-width="1.5" stroke-linecap="round" stroke-linejoin="round"/>
    <path d="M17.484,99.463 C16.752,98.731 14.774,95.147 13.633,92.622 C11.361,96.626 9.206,101.396 7.041,107.174 C8.19,110.035 10.233,113.784 11.817,114.463 C22.484,116.796 38.15,114.463 41.817,113.463 C42.484,112.129 46.15,101.797 47.15,98.797 C45.15,99.464 36.15,99.797 31.15,100.13 C26.15,100.463 18.484,100.463 17.484,99.463" fill="#35A0CD"/>
    <path d="M17.484,99.463 C16.752,98.731 14.774,95.147 13.633,92.622 C11.361,96.626 9.206,101.396 7.041,107.174 C8.19,110.035 10.233,113.784 11.817,114.463 C22.484,116.796 38.15,114.463 41.817,113.463 C42.484,112.129 46.15,101.797 47.15,98.797 C45.15,99.464 36.15,99.797 31.15,100.13 C26.15,100.463 18.484,100.463 17.484,99.463 z" fill-opacity="0" stroke="#1A1919" stroke-width="1.5" stroke-linecap="round" stroke-linejoin="round"/>
    <path d="M140.4,84.246 C141.602,83.846 146.801,82.146 146.801,82.146 C148.2,82.746 148.601,84.547 148.601,84.547 C148.601,84.547 149.04,88.451 148.9,90.547 C148.601,95.047 148,95.946 147.101,98.347 L145.9,99.246 L139,101.647 C139,101.647 138.101,100.746 138.101,99.847 C138.101,98.946 139.601,95.047 139.9,92.047 C140.05,90.554 139.601,87.246 139.301,86.347 C139,85.446 140.4,84.246 140.4,84.246" fill="#286AA6"/>
    <path d="M140.4,84.246 C141.602,83.846 146.801,82.146 146.801,82.146 C148.2,82.746 148.601,84.547 148.601,84.547 C148.601,84.547 149.04,88.451 148.9,90.547 C148.601,95.047 148,95.946 147.101,98.347 L145.9,99.246 L139,101.647 C139,101.647 138.101,100.746 138.101,99.847 C138.101,98.946 139.601,95.047 139.9,92.047 C140.05,90.554 139.601,87.246 139.301,86.347 C139,85.446 140.4,84.246 140.4,84.246 z" fill-opacity="0" stroke="#1A1919" stroke-width="1.5" stroke-linecap="round" stroke-linejoin="round"/>
    <path d="M89.4,110.047 L88.9,118.047 L93.65,116.047 L94.15,108.547 L89.4,110.047" fill="#283278"/>
    <path d="M89.4,110.047 L88.9,118.047 L93.65,116.047 L94.15,108.547 L89.4,110.047 z" fill-opacity="0" stroke="#1A1919" stroke-width="1.5" stroke-linecap="round" stroke-linejoin="round"/>
    <path d="M108.15,104.047 L107.65,112.047 L112.4,110.047 L112.9,102.547 L108.15,104.047" fill="#283278"/>
    <path d="M108.15,104.047 L107.65,112.047 L112.4,110.047 L112.9,102.547 L108.15,104.047 z" fill-opacity="0" stroke="#1A1919" stroke-width="1.5" stroke-linecap="round" stroke-linejoin="round"/>
    <path d="M162.65,81.047 L162.15,89.047 L166.9,87.047 L167.4,79.547 L162.65,81.047" fill="#283278"/>
    <path d="M162.65,81.047 L162.15,89.047 L166.9,87.047 L167.4,79.547 L162.65,81.047 z" fill-opacity="0" stroke="#1A1919" stroke-width="1.5" stroke-linecap="round" stroke-linejoin="round"/>
    <path d="M126.9,96.797 L126.4,104.297 L131.15,102.297 L131.65,94.797 L126.9,96.797" fill="#283278"/>
    <path d="M126.9,96.797 L126.4,104.297 L131.15,102.297 L131.65,94.797 L126.9,96.797 z" fill-opacity="0" stroke="#1A1919" stroke-width="1.5" stroke-linecap="round" stroke-linejoin="round"/>
    <path d="M153.4,86.047 L152.9,93.547 L157.65,91.547 L158.15,84.047 L153.4,86.047" fill="#283278"/>
    <path d="M153.4,86.047 L152.9,93.547 L157.65,91.547 L158.15,84.047 L153.4,86.047 z" fill-opacity="0" stroke="#1A1919" stroke-width="1.5" stroke-linecap="round" stroke-linejoin="round"/>
    <path d="M99.15,107.047 L98.65,115.047 L102.9,113.547 L103.65,105.297 L99.15,107.047" fill="#283278"/>
    <path d="M99.15,107.047 L98.65,115.047 L102.9,113.547 L103.65,105.297 L99.15,107.047 z" fill-opacity="0" stroke="#1A1919" stroke-width="1.5" stroke-linecap="round" stroke-linejoin="round"/>
    <path d="M118.15,100.047 L117.65,108.047 L121.9,106.547 L122.65,98.297 L118.15,100.047" fill="#283278"/>
    <path d="M118.15,100.047 L117.65,108.047 L121.9,106.547 L122.65,98.297 L118.15,100.047 z M4.817,118.463 C4.346,118.463 3.883,118.498 3.421,118.533 C2.853,122.077 2.979,125.39 3.817,128.464 C4.488,130.922 8.471,138.917 22.265,142.417 C22.835,140.646 23.151,138.759 23.151,136.797 C23.151,126.672 14.943,118.463 4.817,118.463 z" fill-opacity="0" stroke="#1A1919" stroke-width="1.5" stroke-linecap="round" stroke-linejoin="round"/>
    <path d="M189.484,4.797 C188.817,5.797 163.15,47.797 162.15,50.13 C162.15,50.13 163.817,52.463 164.817,52.463 C165.817,52.463 188.817,47.797 188.817,47.797 L204.15,4.463 L202.484,3.13 L189.484,4.797" fill="#FFFFFE"/>
    <path d="M175.279,50.509 C181.75,49.23 188.817,47.797 188.817,47.797 L203.777,5.517 L194.816,6.797 L175.279,50.509" fill="#35A0CD"/>
    <path d="M89.484,121.464 C86.817,122.798 80.94,128.832 80.15,131.464 C79.15,134.797 81.15,136.797 81.15,136.797 C85.484,138.797 126.484,124.464 143.484,111.797 C146.817,107.464 146.484,105.13 142.15,104.13 C138.484,103.796 96.15,118.13 89.484,121.464" fill="#FFFFFE"/>
    <path d="M89.484,121.464 C86.817,122.798 80.94,128.832 80.15,131.464 C79.15,134.797 81.15,136.797 81.15,136.797 C85.484,138.797 126.484,124.464 143.484,111.797 C146.817,107.464 146.484,105.13 142.15,104.13 C138.484,103.796 96.15,118.13 89.484,121.464 z" fill-opacity="0" stroke="#1A1919" stroke-width="1.5" stroke-linecap="round" stroke-linejoin="round"/>
    <path d="M118.896,162.188 C120.18,162.595 126.553,160.623 132.263,156.445 C137.973,152.267 139.03,148.513 139.65,146.713 L138.895,140.918 C138.895,140.918 121.873,134.396 110.641,138.478 L118.896,162.188" fill="#8A8B8A"/>
    <path d="M118.896,162.188 C120.18,162.595 126.553,160.623 132.263,156.445 C137.973,152.267 139.03,148.513 139.65,146.713 L138.895,140.918 C138.895,140.918 121.873,134.396 110.641,138.478 L118.896,162.188 z" fill-opacity="0" stroke="#1A1919" stroke-width="1.5" stroke-linecap="round" stroke-linejoin="round"/>
    <path d="M112.792,164.39 C114.056,164.548 117.741,163.525 120.411,162.327 C121.566,160.989 124.931,156.736 123.967,149.282 C122.81,140.343 118.541,139.293 116.15,137.463 C116.15,137.463 107.65,135.463 104.4,138.463 L112.792,164.39" fill="#FFFFFE"/>
    <path d="M112.792,164.39 C114.056,164.548 117.741,163.525 120.411,162.327 C121.566,160.989 124.931,156.736 123.967,149.282 C122.81,140.343 118.541,139.293 116.15,137.463 C116.15,137.463 107.65,135.463 104.4,138.463 L112.792,164.39 z" fill-opacity="0" stroke="#1A1919" stroke-width="1.5" stroke-linecap="round" stroke-linejoin="round"/>
    <path d="M108.925,165.225 C103.291,165.638 97.876,160.255 96.855,153.227 C95.801,145.964 99.833,139.111 105.661,138.264 C105.859,138.234 106.06,138.213 106.26,138.198 C112.124,137.769 117.552,143.212 118.361,150.332 C119.271,158.335 115.834,164.15 109.606,165.146 C109.38,165.182 109.152,165.208 108.925,165.225" fill="#FFFFFE"/>
    <path d="M108.925,165.225 C103.291,165.638 97.876,160.255 96.855,153.227 C95.801,145.964 99.833,139.111 105.661,138.264 C105.859,138.234 106.06,138.213 106.26,138.198 C112.124,137.769 117.552,143.212 118.361,150.332 C119.271,158.335 115.834,164.15 109.606,165.146 C109.38,165.182 109.152,165.208 108.925,165.225 z" fill-opacity="0" stroke="#1A1919" stroke-width="1.5" stroke-linecap="round" stroke-linejoin="round"/>
    <path d="M115.544,150.651 C116.196,156.386 114.335,161.52 109.159,162.346 C105.069,162.999 100.514,158.695 99.66,152.818 C98.807,146.942 101.969,141.665 106.068,141.068 C110.167,140.474 114.838,144.437 115.544,150.651" fill="#283278"/>
    <path d="M115.544,150.651 C116.196,156.386 114.335,161.52 109.159,162.346 C105.069,162.999 100.514,158.695 99.66,152.818 C98.807,146.942 101.969,141.665 106.068,141.068 C110.167,140.474 114.838,144.437 115.544,150.651 z" fill-opacity="0" stroke="#1A1919" stroke-width="1.5" stroke-linecap="round" stroke-linejoin="round"/>
    <path d="M168.563,171.188 C169.846,171.595 176.219,169.623 181.93,165.445 C187.639,161.267 188.697,157.513 189.316,155.713 L188.562,149.918 C188.562,149.918 171.539,143.396 160.308,147.478 L168.563,171.188" fill="#8A8B8A"/>
    <path d="M168.563,171.188 C169.846,171.595 176.219,169.623 181.93,165.445 C187.639,161.267 188.697,157.513 189.316,155.713 L188.562,149.918 C188.562,149.918 171.539,143.396 160.308,147.478 L168.563,171.188 z" fill-opacity="0" stroke="#1A1919" stroke-width="1.5" stroke-linecap="round" stroke-linejoin="round"/>
    <path d="M162.458,173.39 C163.723,173.548 167.408,172.525 170.078,171.327 C171.232,169.989 174.598,165.736 173.633,158.282 C172.477,149.343 168.207,148.293 165.816,146.463 C165.816,146.463 157.316,144.463 154.066,147.463 L162.458,173.39" fill="#FFFFFE"/>
    <path d="M162.458,173.39 C163.723,173.548 167.408,172.525 170.078,171.327 C171.232,169.989 174.598,165.736 173.633,158.282 C172.477,149.343 168.207,148.293 165.816,146.463 C165.816,146.463 157.316,144.463 154.066,147.463 L162.458,173.39 z" fill-opacity="0" stroke="#1A1919" stroke-width="1.5" stroke-linecap="round" stroke-linejoin="round"/>
    <path d="M158.592,174.225 C152.957,174.638 147.543,169.255 146.521,162.227 C145.467,154.964 149.5,148.111 155.327,147.264 C155.525,147.234 155.727,147.213 155.927,147.198 C161.79,146.769 167.219,152.212 168.027,159.332 C168.938,167.335 165.5,173.15 159.272,174.146 C159.047,174.182 158.818,174.208 158.592,174.225" fill="#FFFFFE"/>
    <path d="M158.592,174.225 C152.957,174.638 147.543,169.255 146.521,162.227 C145.467,154.964 149.5,148.111 155.327,147.264 C155.525,147.234 155.727,147.213 155.927,147.198 C161.79,146.769 167.219,152.212 168.027,159.332 C168.938,167.335 165.5,173.15 159.272,174.146 C159.047,174.182 158.818,174.208 158.592,174.225 z" fill-opacity="0" stroke="#1A1919" stroke-width="1.5" stroke-linecap="round" stroke-linejoin="round"/>
    <path d="M165.211,159.651 C165.862,165.386 164.002,170.52 158.826,171.346 C154.736,171.999 150.181,167.695 149.326,161.818 C148.474,155.942 151.636,150.665 155.734,150.068 C159.834,149.474 164.504,153.437 165.211,159.651" fill="#283278"/>
    <path d="M165.211,159.651 C165.862,165.386 164.002,170.52 158.826,171.346 C154.736,171.999 150.181,167.695 149.326,161.818 C148.474,155.942 151.636,150.665 155.734,150.068 C159.834,149.474 164.504,153.437 165.211,159.651 z" fill-opacity="0" stroke="#1A1919" stroke-width="1.5" stroke-linecap="round" stroke-linejoin="round"/>
    <path d="M132.484,109.797 C130.817,110.464 92.817,125.131 90.817,126.464 C90.817,126.464 90.15,129.464 90.484,130.797 C108.817,137.464 188.816,155.464 212.15,158.797 C214.816,159.13 217.817,159.13 221.484,157.797 C225.15,156.464 228.15,154.13 233.484,149.13 C233.15,147.797 227.484,148.13 227.484,148.13 C224.816,147.13 136.817,110.797 132.484,109.797" fill="#FFFFFE"/>
    <path d="M132.484,109.797 C130.817,110.464 92.817,125.131 90.817,126.464 C90.817,126.464 90.15,129.464 90.484,130.797 C108.817,137.464 188.816,155.464 212.15,158.797 C214.816,159.13 217.817,159.13 221.484,157.797 C225.15,156.464 228.15,154.13 233.484,149.13 C233.15,147.797 227.484,148.13 227.484,148.13 C224.816,147.13 136.817,110.797 132.484,109.797 z M189.484,4.797 C188.817,5.797 163.15,47.797 162.15,50.13 C162.15,50.13 163.817,52.463 164.817,52.463 C165.817,52.463 188.817,47.797 188.817,47.797 L204.15,4.463 L202.484,3.13 L189.484,4.797 z" fill-opacity="0" stroke="#1A1919" stroke-width="1.5" stroke-linecap="round" stroke-linejoin="round"/>
  </g>
</svg>