<?xml version="1.0" encoding="UTF-8" standalone="no"?>
<svg id="svg2" xmlns:rdf="http://www.w3.org/1999/02/22-rdf-syntax-ns#" xmlns="http://www.w3.org/2000/svg" height="1072pt" width="1110pt" version="1.1" xmlns:cc="http://creativecommons.org/ns#" xmlns:dc="http://purl.org/dc/elements/1.1/" viewBox="0 0 1110 1072">
<g>
<path id="path4" d="m590.85 0h0.95c-64.41 30.79-131.92 60.21-183.59 111.21-22.45 21.07-41.17 47.63-48.09 78 11.85-31.69 32.69-60.84 60.5-80.6 53.14-46.87 118.44-76.77 183.96-102.12 3.44-1.31 7.55-3.24 11.16-1.44 20.26 12.08 39.63 25.63 60.07 37.43 20.86-13.1 41.31-27.51 64.41-36.41 7.71-3.85 12.9 3.99 16.59 9.18 119.67 170.97 240.73 341.29 352.19 517.73-33-45.93-64.2-93.62-98.1-138.92 27.6 42.26 54.6 85.03 80.9 128.14 3.7 5.49 4.2 15.1-2.6 18.31 3.9-4.98 5.4-12.1 0.6-17.22-113.94-163.31-228.77-325.98-342.84-489.2-2.17-4.16-7.07-7.76-11.68-5.02-14.7 8.59-29.04 17.83-43.72 26.47-3.37 1.68-3.66 5.79-3.79 9.1 17.33-9.09 33.56-20.47 50.64-30.15 2.45-1.66 2.75 3.32 4.49 3.6 39.91 56.46 80.9 112.2 119.66 169.43-40.56-53.77-79.28-109.38-120.64-162.47 106.73 150.8 211.87 302.98 316.78 455.13 13.1 17.91 1.7 39.95-16 48.61 9.3-3.71 17.3-9.8 26.6-13.54-96.89 57.06-195.19 112.56-291.96 170.1-6.19 13.55-12.29 27.3-19.87 40.24 10.93-11.65 16.09-27.67 26.94-39.23 99.18-62.42 200.21-122.08 304.59-175.48-4.6-8.15-3.9-9.4 2.1 0.12-98.97 62.96-199.91 123.13-298.83 186.26-13.61 21.37-27.22 43.7-48.23 58.79-24.5 18.63-55.21 25.2-83.86 34.06-88.34 68.66-171.69 143.8-256.09 216.99 88.08-68.75 175.19-138.93 262.73-208.39 49-10.02 98.18-34.15 123.48-79.41 4.47-6.45 6.88-14.99 14.45-18.57 95.91-59.05 192.7-116.72 290.45-172.56-90.2 62.09-181.89 122.97-273.28 183.71-13.15 6.56-15.5 22.92-24.97 33.06-25.38 38.41-67.88 61.26-111.49 72.56-8.11 1.55-14.35 7.38-20.43 12.56-82.9 68.62-166.47 136.42-251.2 202.74-9.73 7.4-18.94 16.7-31.34 19.2h-7.95c-10.11-1.9-19.39-8-24.62-17-118.88-175.62-235.62-352.95-349.92-531.54v-7.92c13.41-21.61 42.96-28.86 60.77-45.69-2.89-26.58-13.93-52.92-12.76-79.54 43.2-50.88 94.11-95.09 148.23-134.07 44.94-31.16 103.92-49.88 156.72-27.25-5.48-48.15 19.92-93.88 54.47-125.56 52.2-48.08 116.97-80.05 183.42-103.43m19.5 22.36c-4.29 1.93-9.91 2.83-13.16 5.89 5.65-2 20.7-4.06 18.64 2.35 7.46 12.1 25.16 16.92 34.7 24.83 3.18 0.33 11.73 4.45 16.53 7.28 0.7-2.99 2.12-7.48-2.06-8.66-18.41-10.03-35.89-23.46-54.65-31.69m-9.6 8.68c13.18 4.76 8.53-6.4 0 0m-182.06 107.65c-29.79 29.18-43.16 73.71-31.72 114.03 2.16 1.9 4.15 4.98 7.37 4.93-2.91-17.26-9.89-34.54-5.02-52.29 9.44-44.05 44.46-76.23 79.66-101.39 41.39-29.53 87.65-51.41 134.71-70.22 0.96-1.38-2.1-1.92-2.94-2.71-67.4 21.76-132.74 55.95-182.06 107.65m190.26-101.32c-23.64 9.67-47.74 19.26-69.89 31.73 16.41-6.14 32.8-12.54 49.7-17.24-49.42 25.76-101.78 52.46-140.79 94.12-17.41 18.76-32.42 41.33-35.9 67.22-0.96 25.03 13.43 46.99 26.89 66.83 76.16 103.88 139.68 216.23 208.08 325.14 9.99-23.82 24.91-46.78 46.13-62.03-18.99 18.19-34.97 40.51-43.15 65.84 0.69 2.41 2.78 10.43 4.89 4.87 10.49-32.41 34.78-57.23 59.83-79.11 42.86-40.84 97.85-63.97 151.08-87.75-1.08-2.96-4.35-6.81-7.68-3.97-35.02 16.62-68.73 35.89-101.3 56.84 30.7-25.1 66.55-45.01 101.04-63.82-10.67-17.11-23.9-32.9-32.96-50.94 14.66 14.38 25.64 32.44 38.57 48.45 3.3 1.36 2.42-3.44 0.71-4.7-92.15-124.19-178.57-252.61-259.48-384.4-6.88 2.71-2.44-3.27 1.66-3.18 0.55 7.79 7.56 14.07 12.27 19.96-1.64-5.89 1.79-11.99 7.27-14.37-5.73-2.87-10.58-8.77-16.97-9.49m128.87 1.63c1.8 7.41 6.34 3.99 0 0m-107.66 11.35c-2.5 2.4-1.41 7.75 0.7 10.31 67.63 95.6 135.9 190.76 205.75 284.73 22.52 31.48 42.8 64.53 64.7 96.39 2.58 0.3 8.07-1.43 3.87-3.94-53.38-80.08-114.1-155.83-169.21-234.78 36.32 44.49 70.85 90.88 105.67 136.35-53.05-87.41-125.43-161.98-173.71-252.38 51.92 60.9 103.88 122.51 155.89 183.17-37.11-54.5-74.09-109.23-111.52-163.5-19.12-12.96-38.83-25.24-58.38-37.6 4.27 9.8-2.97-0.12-4.83-4.24 7.07 1.91 16.47 9.46 21.53 10.56-11.93-9.54-27-18.26-40.46-25.07m24.44 7.91c3.47 3.92 8.63 5.84 13.35 7.85-3.04-4.41-8.78-5.7-13.35-7.85m16.28-0.32c-4.29 14.33 12.58 5.59 0 0m30.43 4.42c-3.25 1.66-6.34 3.61-9.29 5.71 11.99 10.56 30.94 13.12 38.81 28.11 57.73 80.92 113.24 163.45 173.3 242.69 35.65 49.9 68.07 102.14 105.17 150.95 2.1-2.6 0.2-8.37-1.3-11.65-75.06-116.88-161.98-225.57-243.12-338.08 31.75 35.88 59.79 76.06 89.94 113.11-40.24-57.91-80.97-115.58-122.12-172.89-10.04-6.36-21.08-12.88-31.39-17.95m-30.12 5.16c0.31 4.4 4.55-1.42 0 0m3.26 6.65c9.5 12.4 29.47 17.32 43.55 25.83-13.5-9.74-28.61-19.46-43.55-25.83m-272.91 53.3c-10.99 7.91-1.98 6.82 0 0m-7.2 7.95c-6.67 2.91 1.49 4.87 0 0m-4.07 4.9c-5.35 2.26 2.63 3.63 0 0m-2.77 4.23c-18.93 24.5-31.91 56.8-27.12 88.12 6.05 2.02 1.08-8.72 2.6-11.6-2.31-27.31 11.48-56.31 24.52-76.52m-93.95 116.99c-20.39 1.19-39.66 8.97-57.42 18.58-48.28 27-89.24 65.04-127.22 104.81-4.54 2.25-2.47 7.54 1.03 9.13 25.88-32.24 54.75-62.51 88.23-86.9-31.08 27.41-60.33 58.87-84.15 92.86 11.71 19.98 27.57 38.06 38.09 58.89-15.93-16.07-28.16-35.86-42.39-53.47-1.84 0.06-3.97 3.5-4.26 5.45 90.95 131.18 188.02 258.12 277.65 390.25 15.43-19.77 31.22-39.4 48.13-57.93-17.9 12.9-34.07 28.02-51.4 41.62 55.9-63.64 119.95-132.82 204.92-152.78-73.55-102.37-137.46-211.72-203.73-319.07-18.01-30.49-50.62-54.75-87.48-51.44m80.45 8.36c1.44 8.18 6.89 2.76 0 0m20.3 5.33c-0.7 7.69 9.12 16.2 12.66 23.81 55.06 74.4 107.59 151.29 162.89 225.12-47.35-80.48-106.13-153.3-158.67-230.32-5.4-6.08-9.58-15.43-16.88-18.61m-299.75 95.29c-9.53 8.2-18.39 17.83-25.45 28.15 0.19 11.65 9.75 20.13 16.19 28.9 0.71-4.9-4.54-24.62-10.94-21.15-0.02-14.63 14.44-26.62 20.2-35.9m797.54-0.63c8.97 17.41 19.17 34.21 27.91 51.71-0.52-0.06-1.57-0.19-2.09-0.25 6.34 7.83 14.79 14.02 22.94 19.79-14.72-24.66-32.14-47.84-48.76-71.25m-442.1 12.16c51.7 85.34 113.95 163.66 170.1 246.06 2 1.58 11.43 2.41 7.37-1.55-60.19-80.74-116.8-164.15-177.47-244.51m-345.36 8.05c-6.89 5.31 4.84 12.05 0 0m-5.24 6.89c-6.18 4.34 4.23 8.12 0 0m5.11 4.93c-7.48 4.37 4.9 12.06 0 0m-31.47 20.35c2.6 14.38 5.72 28.68 8.56 43.02 0.25 3.75 4.89 3.46 7.61 4.48-3.65-16.31-1.57-37.11-16.17-47.5m24.95 11.64c1.12 5.17 1.81 10.48 3.49 15.52 34.08 48 73.91 91.51 110.7 137.4 50.61 62.06 91.62 131.84 136.93 197.07-2.08-1.96-4.14-3.93-6.18-5.9 6.43 10.26 12.51 20.75 19.19 30.86 2.22 7.42 19.13 4.81 10.83-3.73 0.11-5.12-7.7-3.06-4.49-6.5-83.64-126.22-177.19-245.59-270.47-364.72m770.2 4.12c1.27 10.75 10.12 1.76 0 0m-781.25 2.93c4.55 9.99-2.1 26.84 8.96 32.29-3.77-10.22-2.68-23.99-8.96-32.29m825.19 13.24c-1.54 2.02-3.18 4.12-3.81 6.63 26.15 14.19 51.29 30.58 77.72 44.04-2.54-5.19-5.84-10.09-11.15-12.77-20.9-12.67-41.7-25.53-62.76-37.9m-8.89 0.97c-5.03 1.11 2.66 3.36 0 0m-13.78 6.16c-55.33 22.49-107.47 52.73-154.34 89.79-23.52 18.38-46.11 40.14-57.73 68.19-4.06 5.51 3.3-10.24-0.78-4.64-1.91 7.38-8.55 16.29-0.36 22.69 15.32-52.13 62.42-85.23 105.76-113.36 35.63-22.95 72.9-43.45 111.79-60.31 0.84-2.73-2.53-3.1-4.34-2.36m2.82 8.7c-5.62 2.84 4.72 1.72 0 0m-786.43 1.28c-0.15 15.77 2.59 31.42 7.24 46.47 27.23 46.44 68.21 81.61 104.59 120.55 48.72 53.86 78.33 120.72 118.44 180.55 2.79 3.35 1.13 13.69 7.45 11.47 3.01-8.6-2.32-15.62-6.63-22.32-67.62-118.37-154.38-225.32-231.09-336.72m-22.34 5.25c-7.17 6.99 3.26 9.32 8.31 13.25-0.47-5.32-0.83-15.04-8.31-13.25m8.69 5.09c-2.8 9.5 6.43 0.13 0 0m819.08 2.77c-40.07 22.29-79.06 46.55-119.33 68.53-33.11 19.56-70.07 38.87-88.9 74.09-12.38 22.67-8.65 50.33 2.16 72.85 3.03 0.02 4.42-3.61 5.64-5.91-7.32-14.49-12.34-30.95-8.75-47.28 2.44 11.62 2.12 25.73 7.98 36.53 4.22-9.59-2.69-21.97 6.19-29.99 23.93-16.91 48.31-34.21 75.51-45.38-21.13 21.99-53.02 31.49-75.87 51.2-0.12 10.66-8.26 22.53-3.05 32.18 9.31-10.6 1.94-29.49 16.21-35.3 78.31-40.94 150.03-93.79 230.91-129.95 7.04-3.91 15.87-8.77 21.47-12.65-22.19-11.77-46.55-20.67-70.17-28.92m109.23 7.24c-6.7 9.73 1 17.71 7.5 25.35-90.51 55.98-184.36 106.62-273.76 164.51-1.5 3.86 2.84 1.27 4.62 0.36 90.83-51.19 180.93-103.71 271.34-155.59 18.8-7.69-5.5-27.05-9.7-34.63m-921.28 3.33c-10.55 7.41-2 21.27 0.87 30.88 46.63 68.71 93.26 137.46 139.77 206.26 44.02 59.68 89.42 118.46 128.13 181.83 2.67 4.27 6.93 11.15 12.78 8.06-1.03-2.22-2.15-7.84-4.92-4.15-85.58-135.47-182.82-263.62-270.41-397.37-2.68-8.24-2.85-18.02-6.22-25.51m902.98 17.43c-7.69 1.54-14.04 6.22-20.64 10.15-67.35 40.3-136.01 79.14-198.48 126.52 35.25-21.63 71.84-42.51 106.27-64.89 31.11-22.84 71.13-45.1 107.77-64.03 2.52-0.77 10.28-6.08 5.08-7.75m-927.81 0.96c-6.67 3.83-13 8.24-19.32 12.63 70.41 104.22 143.58 207.41 216.74 309.19-68.17-104.29-142.55-204.35-212.8-307.22 3.06-3.39 7.35-8.24 11.72-8.53 1.95 21.06 19.6 35 29.1 52.75-11.98-14.54-25.49-30.32-30.94-49-1.81 1.32-5.33 2.94-4.81 5.68 80.79 112.83 163.17 224.87 238.76 341.26-7.03-6.74-11.86-16.02-18.84-23.09 29.18 43.22 58.94 86.41 87.94 129.89 5.32 8.72 18.04 11.85 26.97 7.12 84.67-63.06 166.83-129.49 247.63-197.45 1.55-4.79 20.3-8.14 5.74-6-83.73 64.39-167.05 129.37-250.45 194.21-6.61 7.23-19.28 7.64-24.78-0.92-27.61-41.25-55.02-82.64-84.07-122.89-70.29-103.83-137.52-209.71-209.56-312.36-6.18-7-5.39-18.84-9.03-25.27m-43.94 1.94c-8.02 1.9-8.15 6.83-3.2 11.71 0.83-3.01 2.79-10.51 3.2-11.71m48.58 89.64c92.21 144.41 192.54 283.42 292.38 422.64 1.58 1.9 6.63 5 3.39 0.6-100.88-139.43-194.29-284.24-295.77-423.24m591.13 29.32c-5.22 13.74 13.27 4.94 0 0m4.06 7.97c-11.17 2.19 4.03 15.46-1.13 22.25 0.27-2.87 4.28-19.65 1.13-22.25m-32.84 8.03c-8.78 4.01 5.02 6.71 8.56 8.84-2.2-3.21-3.68-9.97-8.56-8.84m25.1 2.25c-2.2 5.15-7.27 14.91 0.64 17.46 2.7-4.32 1.69-15.23-0.64-17.46m106.83 1.81c-6.72 1.4 1.43 4.27 0 0m-180.77 3.14c-20.76 1.19-41.18 6.77-59.56 16.52-59.81 27.75-104.62 78.06-146.82 127.15 29.42-28.59 61.16-55.56 91.25-83.74 35.97-31.76 82.52-52.97 130.95-52.78-0.45-8.91-9.7-7.74-15.82-7.15m170.77 2.86c-6.72 1.4 1.43 4.27 0 0m-5 3c-6.72 1.4 1.43 4.27 0 0m-4.5 2.72c-10.49 3.42-1.82 5.73 0 0m-11.45 6.09c-6.07 3.99 4.31 1.89 0 0m-98.67 8.03c-0.44 3.3 9.57 7.5 11.22 1.99-3.47-1.63-7.36-2.65-11.22-1.99m22.16 2.06c2.34 9.2 5.83 18.17 10.21 26.61 3.9 0.24 3.68-2.14 1.97-4.86 3.34 2.63 6.35 5.68 9.81 8.19-3.82-12.09-9.07-25.13-21.99-29.94m-78.34 5.21c-83.64 13.67-143.37 81.83-195.49 143.06 5.48 28.04 9.54 56.54 13.61 84.71 5.76-3.97 11.25-8.53 15.22-14.35 63.22-69.31 119.8-147.78 202.28-195.9-9.58-5.55-22.39-7.28-31.92-9.01 15.58-5.11 30.62 8.71 44.75 5.27-13.9-9.95-31.33-15.32-48.45-13.78m156.93 0c-2.67 3.1-3.26 7.68-4.54 11.54 2.62-1.52 5.64-11.01 4.54-11.54m-89.21 1.01c-1.15 4.55 4.49 0.01 0 0m84.18 12.07c-5.33 4.79 2.36 4.96 0 0m-4.14 7.83c-5.31 3.58 2.46 4.25 0 0m-54.1 1.02c-4.17 4.42 5.24 18.59 9.88 10.74-3.35-3.02-5.44-10.15-9.88-10.74m51.34 4.12c-6.11 6.16-11.43 13.3-17.66 19.34 6.58-3.69 16.09-14.16 17.66-19.34m-98.93 13.89c-48.27 34.24-93.57 73.04-135.45 114.75 45.02-36.1 89.63-73.26 134.83-109.22 8.94-1.52 10.93-6.23 0.62-5.53m65.76-0.17c-1.32 2.55-2.26 5.28-3.15 8.01 5.69-2.32 14.92-8.77 3.15-8.01m-4.88 1.14c-9.31 3.28 1.09 5.74 0 0m61.08 3.23c-16.06 19.6-37.05 35.64-61.22 43.77 22.93-3.06 51.46-23.35 61.22-43.77m-78.13 10.52c-8.45 3.05 6.76 1.08 0 0m-7.82 2.11c1.89 3.74 4.33-2.58 0 0m-31.35 0.99c-2.61 4.81 7.89-1.85 0 0m-4.32 4.82c-8.54 5.34-1.55 6.53 0 0m10.6 1.29c4.61 3.28 6.42-2.6 0 0m7.48 0.68c8.92 3.47 14.27-1.73 0 0m-26.38 5.55c-3.87 2.4-6.91 5.91-9.48 9.62 3.2-1.06 11.73-10 9.48-9.62m-7.04 14c-42.04 31.9-83.55 64.71-121.47 101.52 41.63-31.22 85.35-67.51 121.47-101.52m75.84 13.85c-15.59 5.66-34.92 1.23-47.66 13.39-27.83 24.17-56.78 47.18-83.74 72.26 28.89-22.2 56.87-45.84 85.59-68.38 11.08-10.15 27.27-9 40.57-14.5 1.86-0.08 11.95-3.94 5.24-2.77m-283.29 2.92c-8.78 8.29-29.27 14.76-23.52 29.81 7.72-9.31 18.33-21.67 23.52-29.81m-46.93 26.56c4.73 26.44 6.37 53.44 11 79.83 7.33 8.03 10.66 18.95 18.93 26.03-6.5-30.24-14.73-60.13-21.59-90.29-3.89-6.14 7.02-9.93 3.3-15.27-3.86 1.11-7.78 0.3-11.64-0.3m12.02 6.97c-5.31 6.19 0.69 14.38 1.71 21.23 4.47 12.65 5.7 28.08 10.17 39.8-4.2-20-6.25-42.83-11.88-61.03m128.73 26.42c-36.01 28.3-71.07 57.82-107.17 86.02 5.08 4.23 11.35-0.98 15.04-4.55 30.37-27.37 62.8-53.69 92.13-81.47m26.32 64.05c-5.35 2.26 2.63 3.63 0 0m-3.33 2.94c-49.08 38.81-98.05 77.83-146.73 117.14 5.04 2.3 11.38-2.6 15.57-5.7 43.23-37.58 88.72-73.77 131.16-111.44m-145.46 10.05c-2.1 4.72-13.87 1.67-8.39 7.64 4.89 9.22 19.13-4.42 8.39-7.64m11.89 12.15c-3.89 2.56-8.08 4.57-12.27 6.59 2.56 3.96 4.26 10.41 8.76 11.88 5.7-3.68 10.7-8.35 16.28-12.21-4.73-1.04-8.9-4.76-12.77-6.26m-68.32 36.48c14.09 23.09 31.05 44.46 45.91 67.06 6.12 9.8 15.54-0.8 21.39-5.8-8.65 4.4-19.54 2.8-25.89-4.7-13.92-18.8-27.03-38.17-41.41-56.56m51.89 12.01c2.75 11.51 11.48 11.18 17.35 1.38-5.84 0.82-11.79 0.67-17.35-1.38m24.33 41.35c-5.35 2.3 2.63 3.7 0 0z"/>
<path id="path6" d="m762.21 136.53c5.11-0.08-0.21 5.08 0 0z"/>
<path id="path8" d="m288.63 268.49c28.75-5.15 58.13 8.79 75.23 31.68-25.9-28.26-68.23-36.55-103.77-23.03 8.01-5.46 18.91-6.87 28.54-8.65z"/>
<path id="path10" d="m149.27 280.32c2.63 3.63-5.35 2.26 0 0z"/>
<path id="path12" d="m145.55 283.55c-28.86 25.26-62.23 55.85-89.16 86.85-6.24 8.25-16.74 14.75-16.17 26.43 4.54 23.54 9.89 46.95 13.85 70.6-14.54 9.98-29 20.44-44.03 29.57 13.01-11.25 27.92-20.07 41.75-30.21-4.83-21.81-10.18-43.55-14.37-65.51-2.16-8.14 0.82-16.53 6.58-22.36 30.79-34.81 64.18-67.64 101.55-95.37z"/>
<path id="path14" d="m1075.8 531.06c-1.8 5.73-10.5 3.42 0 0z"/>
<path id="path16" d="m1110 535.03c-3.4 5.67-5.3 0.94 0-1.09v1.09z"/>
<path id="path18" d="m557.44 699.38c-27.54 16.82-58.43 42.58-86.56 63.6-4.74 3.07-1.16-2.65 0.87-4.23 24.11-25.22 53.31-46.21 85.69-59.37z"/>
<path id="path20" d="m381.22 898.59c3.74 1.89-2.57 4.32 0 0z"/>
</g>
</svg>
