<?xml version="1.0" encoding="UTF-8" standalone="no"?>
<!-- Created with Inkscape (http://www.inkscape.org/) -->

<svg
   version="1.1"
   id="svg44236"
   width="1600"
   height="1600"
   viewBox="0 0 1600 1600"
   sodipodi:docname="oasis-in-desert-vector-pdv.svg"
   inkscape:version="1.2 (dc2aedaf03, 2022-05-15)"
   xmlns:inkscape="http://www.inkscape.org/namespaces/inkscape"
   xmlns:sodipodi="http://sodipodi.sourceforge.net/DTD/sodipodi-0.dtd"
   xmlns="http://www.w3.org/2000/svg"
   xmlns:svg="http://www.w3.org/2000/svg">
  <defs
     id="defs44240">
    <clipPath
       clipPathUnits="userSpaceOnUse"
       id="clipPath44254">
      <path
         d="M 0,1200 H 1200 V 0 H 0 Z"
         id="path44252" />
    </clipPath>
  </defs>
  <sodipodi:namedview
     id="namedview44238"
     pagecolor="#ffffff"
     bordercolor="#000000"
     borderopacity="0.25"
     inkscape:showpageshadow="2"
     inkscape:pageopacity="0.0"
     inkscape:pagecheckerboard="0"
     inkscape:deskcolor="#d1d1d1"
     showgrid="false"
     inkscape:zoom="0.523125"
     inkscape:cx="800"
     inkscape:cy="800.95579"
     inkscape:window-width="1920"
     inkscape:window-height="1017"
     inkscape:window-x="-8"
     inkscape:window-y="-8"
     inkscape:window-maximized="1"
     inkscape:current-layer="g44244">
    <inkscape:page
       x="0"
       y="0"
       id="page44242"
       width="1600"
       height="1600" />
  </sodipodi:namedview>
  <g
     id="g44244"
     inkscape:groupmode="layer"
     inkscape:label="Page 1"
     transform="matrix(1.3333333,0,0,-1.3333333,0,1600)">
    <path
       d="M 3.408,0 H 1199.999 V 1199.912 H 3.408 Z"
       style="fill:#d4eaff;fill-opacity:1;fill-rule:nonzero;stroke:none"
       id="path44246" />
    <g
       id="g44248">
      <g
         id="g44250"
         clip-path="url(#clipPath44254)">
        <g
           id="g44256"
           transform="translate(1204.6592,580.8594)">
          <path
             d="m 0,0 v -582.2 h -751.804 v 501.33 c 145.058,43.501 278.581,105.003 403.931,179.258 43.801,25.946 63.073,23.314 108.18,-1.692 C -164.614,55.074 -84.666,23.604 0,0"
             style="fill:#f7d38f;fill-opacity:1;fill-rule:evenodd;stroke:none"
             id="path44258" />
        </g>
        <g
           id="g44260"
           transform="translate(683.8613,587.96)">
          <path
             d="m 0,0 c 59.468,27.583 117.01,58.164 172.925,91.288 17.959,10.639 31.791,16.467 44.975,17.925 19.041,-18.852 54.407,-29.904 57.114,-56.56 2.037,-20.056 -61.785,-23.028 -47.58,-37.332 39.764,-40.048 187.086,-24.166 154.158,-70 -49.06,-68.293 -163.771,-38.246 -245.658,-57.368 z"
             style="fill:#ffe4b2;fill-opacity:1;fill-rule:evenodd;stroke:none"
             id="path44262" />
        </g>
        <g
           id="g44264"
           transform="translate(1204.6592,-1.3408)">
          <path
             d="m 0,0 h -1201.251 v 523.907 c 145.058,43.5 278.581,105.006 403.931,179.259 43.8,25.948 108.067,28.686 156.815,6.684 C -446.646,622.351 -237.437,549.648 0,504.151 Z"
             style="fill:#f0c678;fill-opacity:1;fill-rule:evenodd;stroke:none"
             id="path44266" />
        </g>
        <g
           id="g44268"
           transform="translate(828.0186,371.0771)">
          <path
             d="m 0,0 c 8.759,0 16.079,-6.155 17.876,-14.373 3.91,2.383 8.504,3.758 13.417,3.758 8.628,0 16.268,-4.235 20.952,-10.739 5.409,4.855 12.563,7.81 20.406,7.81 6.667,0 12.834,-2.135 17.858,-5.76 4.344,4.031 10.157,6.491 16.546,6.491 13.443,0 24.34,-10.896 24.34,-24.337 0,-13.442 -10.897,-24.341 -24.34,-24.341 -2.922,0 -5.722,0.516 -8.319,1.461 -5.368,-8.779 -15.043,-14.635 -26.085,-14.635 -11.871,0 -22.162,6.772 -27.223,16.66 -4.06,-2.666 -8.916,-4.215 -14.135,-4.215 -14.251,0 -25.803,11.552 -25.803,25.801 0,0.222 0.005,0.441 0.009,0.66 C 3.765,-36.305 1.916,-36.6 0,-36.6 c -10.105,0 -18.3,8.192 -18.3,18.3 C -18.3,-8.194 -10.105,0 0,0"
             style="fill:#94ab13;fill-opacity:1;fill-rule:evenodd;stroke:none"
             id="path44270" />
        </g>
        <g
           id="g44272"
           transform="translate(3.4082,131.8672)">
          <path
             d="m 0,0 v 390.699 c 145.058,43.5 278.581,105.006 403.931,179.259 20.113,11.916 44.546,18.934 69.806,20.911 -42.902,-29.811 78.969,-20.323 55.708,-56.511 C 506.182,498.171 350.392,517.402 377.188,440.664 403.985,363.926 662.734,407.717 645.1,294.265 634.334,224.994 449.447,137.735 403.686,97.252 376.598,73.288 362.013,31.139 337.663,10.248 225.108,6.834 112.554,3.417 0,0"
             style="fill:#ffdb99;fill-opacity:1;fill-rule:evenodd;stroke:none"
             id="path44274" />
        </g>
        <g
           id="g44276"
           transform="translate(407.0938,229.1191)">
          <path
             d="m 0,0 206.058,107.479 c 56.262,29.346 114.045,36.566 175.798,21.964 63.716,-15.064 124.678,-17.044 192.026,-6.609 l 223.683,34.65 V -230.46 H -403.686 V -0.627 Z"
             style="fill:#ffdb99;fill-opacity:1;fill-rule:evenodd;stroke:none"
             id="path44278" />
        </g>
        <g
           id="g44280"
           transform="translate(407.0938,229.1191)">
          <path
             d="M 0,0 C -78.361,-26.163 -214.062,-43.271 -403.686,-51.866 V -0.627 C -269.124,-0.419 -134.562,-0.21 0,0"
             style="fill:#69a8e8;fill-opacity:1;fill-rule:evenodd;stroke:none"
             id="path44282" />
        </g>
        <g
           id="g44284"
           transform="translate(1204.6592,98.9365)">
          <path
             d="m 0,0 -112.936,38.571 c -170.821,58.338 -333.273,62.248 -506.701,12.195 l -71.848,-20.735 c -171.427,-49.474 -330.831,-49.262 -502.124,0.674 l -7.642,2.226 V -100.277 H 0 Z"
             style="fill:#dbad58;fill-opacity:1;fill-rule:evenodd;stroke:none"
             id="path44286" />
        </g>
        <g
           id="g44288"
           transform="translate(185.1543,795.8052)">
          <path
             d="m 0,0 c 88.697,0 161.037,72.342 161.037,161.04 0,88.694 -72.34,161.038 -161.037,161.038 -88.698,0 -161.04,-72.344 -161.04,-161.038 C -161.04,72.342 -88.698,0 0,0"
             style="fill:#fffad6;fill-opacity:1;fill-rule:evenodd;stroke:none"
             id="path44290" />
        </g>
        <g
           id="g44292"
           transform="translate(1032.8779,277.6357)">
          <path
             d="m 0,0 c -18.529,74.481 -18.708,138.505 53.677,161.175 1.952,-2.44 3.903,-4.88 5.855,-7.321 C -0.682,127.739 3.983,72.372 30.688,7.188 23.051,0.71 15.412,-5.77 7.774,-12.25 5.183,-8.166 2.593,-4.082 0,0"
             style="fill:#996633;fill-opacity:1;fill-rule:evenodd;stroke:none"
             id="path44294" />
        </g>
        <g
           id="g44296"
           transform="translate(1085.0918,433.6875)">
          <path
             d="m 0,0 3.129,6.028 c 4.428,8.524 11.687,14.069 21.076,16.089 l 19.484,4.197 c 8.42,1.813 16.672,-1.675 21.241,-8.981 l 3.511,-5.621 z"
             style="fill:#94ab13;fill-opacity:1;fill-rule:evenodd;stroke:none"
             id="path44298" />
        </g>
        <g
           id="g44300"
           transform="translate(1085.0918,433.6875)">
          <path
             d="m 0,0 91.729,-48.168 0.198,10.782 c 0.188,10.167 -5.573,18.951 -14.974,22.829 L 30.448,4.633 C 21.612,8.278 12.422,7.564 4.259,2.593 Z"
             style="fill:#82970a;fill-opacity:1;fill-rule:evenodd;stroke:none"
             id="path44302" />
        </g>
        <g
           id="g44304"
           transform="translate(1085.0918,433.6875)">
          <path
             d="m 0,0 0.677,7.711 c 0.769,8.778 -1.571,16.594 -7.036,23.504 l -5.743,7.258 c -1.125,1.424 -2.814,2.073 -4.603,1.773 -1.79,-0.301 -3.174,-1.466 -3.774,-3.179 l -2.214,-6.322 z"
             style="fill:#bad526;fill-opacity:1;fill-rule:evenodd;stroke:none"
             id="path44306" />
        </g>
        <g
           id="g44308"
           transform="translate(1063.1699,459.0381)">
          <path
             d="M 0,0 -30.828,6.824 C -41.511,9.19 -51.938,5.433 -58.654,-3.205 l -2.448,-3.145 84.683,-17.988 -0.994,3.329 C 19.342,-10.141 11.076,-2.452 0,0"
             style="fill:#94ab13;fill-opacity:1;fill-rule:evenodd;stroke:none"
             id="path44310" />
        </g>
        <g
           id="g44312"
           transform="translate(1112.7832,387.1367)">
          <path
             d="m 0,0 0.023,0.081 c 4.206,14.194 2.309,28.046 -5.554,40.592 l -6.403,10.217 c -1.241,1.978 -3.193,3.122 -5.523,3.238 -2.33,0.117 -4.389,-0.829 -5.816,-2.676 l -3.994,-5.151 z"
             style="fill:#bad526;fill-opacity:1;fill-rule:evenodd;stroke:none"
             id="path44314" />
        </g>
        <g
           id="g44316"
           transform="translate(1011.8564,284.8408)">
          <path
             d="m 0,0 c 1.234,52.515 -8.805,97.654 -63.439,113.639 -0.99,-1.721 -1.978,-3.441 -2.967,-5.161 C -19.804,90.065 -14.304,51.028 -22.779,5.068 -16.365,0.501 -9.95,-4.067 -3.536,-8.635 -2.358,-5.757 -1.18,-2.878 0,0"
             style="fill:#996633;fill-opacity:1;fill-rule:evenodd;stroke:none"
             id="path44318" />
        </g>
        <g
           id="g44320"
           transform="translate(950.2607,394.8672)">
          <path
             d="m 0,0 -3.161,4.251 c -4.476,6.009 -10.476,9.917 -17.414,11.345 l -14.404,2.959 c -6.226,1.277 -11.493,-1.182 -13.551,-6.334 l -1.585,-3.962 z"
             style="fill:#bad526;fill-opacity:1;fill-rule:evenodd;stroke:none"
             id="path44322" />
        </g>
        <g
           id="g44324"
           transform="translate(950.2607,394.8672)">
          <path
             d="m 0,0 -57.024,-33.96 -1.852,7.602 c -1.747,7.17 0.919,13.36 6.934,16.095 l 29.74,13.53 c 5.651,2.571 12.245,2.065 18.79,-1.44 z"
             style="fill:#94ab13;fill-opacity:1;fill-rule:evenodd;stroke:none"
             id="path44326" />
        </g>
        <g
           id="g44328"
           transform="translate(950.2607,394.8672)">
          <path
             d="m 0,0 -1.701,5.437 c -1.935,6.191 -1.528,11.7 1.229,16.573 l 2.896,5.116 c 0.567,1.005 1.656,1.463 2.964,1.251 1.31,-0.213 2.47,-1.034 3.167,-2.242 l 2.563,-4.459 z"
             style="fill:#82970a;fill-opacity:1;fill-rule:evenodd;stroke:none"
             id="path44330" />
        </g>
        <g
           id="g44332"
           transform="translate(961.6913,412.7402)">
          <path
             d="m 0,0 20.654,4.814 c 7.156,1.668 15.103,-0.982 21.209,-7.07 l 2.229,-2.222 -56.852,-12.68 0.172,2.347 C -12.026,-7.15 -7.418,-1.728 0,0"
             style="fill:#94ab13;fill-opacity:1;fill-rule:evenodd;stroke:none"
             id="path44334" />
        </g>
        <g
           id="g44336"
           transform="translate(938.1299,362.0459)">
          <path
             d="m 0,0 -0.03,0.058 c -5.219,10.007 -6.081,19.774 -2.529,28.62 l 2.893,7.203 c 0.559,1.396 1.754,2.201 3.379,2.282 1.625,0.084 3.226,-0.584 4.527,-1.885 l 3.631,-3.633 z"
             style="fill:#82970a;fill-opacity:1;fill-rule:evenodd;stroke:none"
             id="path44338" />
        </g>
        <g
           id="g44340"
           transform="translate(731.1172,321.5811)">
          <path
             d="m 0,0 c -24.49,38.876 -52.182,74.122 -100.055,83.229 -0.302,-1.96 -0.607,-3.921 -0.912,-5.882 C -57.993,67.046 -37.251,34.775 -23.078,-3.459 -15.45,-5.418 -7.82,-7.374 -0.193,-9.331 -0.129,-6.221 -0.065,-3.109 0,0"
             style="fill:#996633;fill-opacity:1;fill-rule:evenodd;stroke:none"
             id="path44342" />
        </g>
        <g
           id="g44344"
           transform="translate(634.084,402.1035)">
          <path
             d="M 0,0 -4.482,2.828 C -10.817,6.827 -17.82,8.318 -24.81,7.153 L -39.313,4.734 C -45.583,3.689 -49.61,-0.5 -49.681,-6.045 l -0.052,-4.268 z"
             style="fill:#bad526;fill-opacity:1;fill-rule:evenodd;stroke:none"
             id="path44346" />
        </g>
        <g
           id="g44348"
           transform="translate(634.084,402.1035)">
          <path
             d="m 0,0 -41.003,-52.193 -4.46,6.426 c -4.209,6.062 -3.947,12.798 0.681,17.514 l 22.889,23.318 c 4.346,4.43 10.682,6.33 18.05,5.414 z"
             style="fill:#94ab13;fill-opacity:1;fill-rule:evenodd;stroke:none"
             id="path44350" />
        </g>
        <g
           id="g44352"
           transform="translate(634.084,402.1035)">
          <path
             d="m 0,0 -3.543,4.461 c -4.034,5.08 -5.633,10.37 -4.811,15.905 l 0.861,5.817 c 0.169,1.141 1.019,1.958 2.318,2.232 1.296,0.275 2.676,-0.076 3.76,-0.953 l 3.993,-3.238 z"
             style="fill:#82970a;fill-opacity:1;fill-rule:evenodd;stroke:none"
             id="path44354" />
        </g>
        <g
           id="g44356"
           transform="translate(638.3232,422.8916)">
          <path
             d="m 0,0 17.54,11.916 c 6.078,4.13 14.447,4.516 22.336,1.029 L 42.75,11.673 -5.737,-20.6 -6.422,-18.348 C -8.651,-10.997 -6.3,-4.282 0,0"
             style="fill:#94ab13;fill-opacity:1;fill-rule:evenodd;stroke:none"
             id="path44358" />
        </g>
        <g
           id="g44360"
           transform="translate(634.5635,367.1143)">
          <path
             d="m 0,0 -0.048,0.043 c -8.469,7.463 -12.786,16.266 -12.65,25.796 l 0.109,7.764 c 0.02,1.501 0.844,2.685 2.331,3.345 1.487,0.66 3.222,0.613 4.904,-0.134 l 4.694,-2.085 z"
             style="fill:#82970a;fill-opacity:1;fill-rule:evenodd;stroke:none"
             id="path44362" />
        </g>
        <g
           id="g44364"
           transform="translate(713.1504,313.1699)">
          <path
             d="m 0,0 c -0.639,61.465 4.954,121.166 52.182,166.104 1.762,-1.986 3.526,-3.97 5.289,-5.956 C 16.618,117.423 16.683,66.102 28.456,12.836 21.298,5.107 14.14,-2.621 6.981,-10.351 4.654,-6.9 2.326,-3.45 0,0"
             style="fill:#996633;fill-opacity:1;fill-rule:evenodd;stroke:none"
             id="path44366" />
        </g>
        <g
           id="g44368"
           transform="translate(764.7666,475.291)">
          <path
             d="m 0,0 5.014,5.014 c 7.088,7.084 15.788,11.092 25.251,11.633 l 19.64,1.12 C 58.394,18.25 64.884,13.971 66.609,6.756 l 1.327,-5.555 z"
             style="fill:#94ab13;fill-opacity:1;fill-rule:evenodd;stroke:none"
             id="path44370" />
        </g>
        <g
           id="g44372"
           transform="translate(764.7666,475.291)">
          <path
             d="m 0,0 68.89,-56.021 3.924,9.702 c 3.705,9.15 1.377,17.862 -6.05,22.651 L 30.023,0.013 C 23.044,4.514 14.219,5.123 4.876,1.757 Z"
             style="fill:#82970a;fill-opacity:1;fill-rule:evenodd;stroke:none"
             id="path44374" />
        </g>
        <g
           id="g44376"
           transform="translate(764.7666,475.291)">
          <path
             d="m 0,0 3.308,6.867 c 3.767,7.817 4.295,15.189 1.591,22.173 l -2.838,7.334 c -0.557,1.44 -1.909,2.259 -3.681,2.233 -1.776,-0.027 -3.472,-0.889 -4.627,-2.355 l -4.259,-5.401 z"
             style="fill:#bad526;fill-opacity:1;fill-rule:evenodd;stroke:none"
             id="path44378" />
        </g>
        <g
           id="g44380"
           transform="translate(753.1074,501.1689)">
          <path
             d="m 0,0 -26.401,10.379 c -9.148,3.596 -20.182,1.633 -29.45,-5.242 l -3.374,-2.504 72.786,-27.824 0.226,3.14 C 14.531,-11.8 9.484,-3.729 0,0"
             style="fill:#94ab13;fill-opacity:1;fill-rule:evenodd;stroke:none"
             id="path44382" />
        </g>
        <g
           id="g44384"
           transform="translate(774.4551,429.4941)">
          <path
             d="M 0,0 0.051,0.069 C 8.9,12.305 11.938,25.062 8.955,37.46 L 6.524,47.556 C 6.053,49.51 4.628,50.811 2.492,51.234 0.357,51.659 -1.89,51.087 -3.864,49.617 l -5.515,-4.103 z"
             style="fill:#bad526;fill-opacity:1;fill-rule:evenodd;stroke:none"
             id="path44386" />
        </g>
        <g
           id="g44388"
           transform="translate(1127.9658,315.9814)">
          <path
             d="m 0,0 c 10.511,0 19.031,-8.521 19.031,-19.033 0,-10.511 -8.52,-19.032 -19.031,-19.032 -5.077,0 -9.69,1.99 -13.103,5.23 -4.758,-10.017 -14.966,-16.941 -26.793,-16.941 -6.157,0 -11.877,1.88 -16.617,5.094 -7.911,-7.682 -18.698,-12.415 -30.595,-12.415 -8.097,0 -15.679,2.196 -22.194,6.015 -3.95,-6.667 -11.218,-11.138 -19.531,-11.138 -12.531,0 -22.691,10.158 -22.691,22.692 0,11.845 9.078,21.569 20.658,22.598 -0.108,1.24 -0.162,2.489 -0.162,3.753 0,24.257 19.663,43.92 43.92,43.92 16.504,0 30.879,-9.104 38.384,-22.565 2.788,0.87 5.755,1.337 8.828,1.337 11.246,0 21.029,-6.26 26.054,-15.486 C -10.372,-2.294 -5.456,0 0,0 m -462.121,8.417 c 7.398,0 13.87,-3.966 17.409,-9.887 l 0.391,0.005 c 3.907,0 7.451,-1.573 10.029,-4.12 -0.336,1.628 -0.515,3.31 -0.515,5.035 0,13.644 11.061,24.705 24.704,24.705 8.851,0 16.612,-4.654 20.974,-11.645 2.102,0.898 4.413,1.396 6.844,1.396 2.55,0 4.972,-0.548 7.153,-1.534 2.335,14.766 15.121,26.059 30.545,26.059 17.08,0 30.927,-13.847 30.927,-30.93 0,-0.831 -0.033,-1.653 -0.098,-2.471 10.117,-0.963 18.03,-9.483 18.03,-19.853 0,-11.016 -8.93,-19.947 -19.946,-19.947 -8.598,0 -15.925,5.441 -18.726,13.066 -3.191,-1.113 -6.618,-1.721 -10.187,-1.721 -9.214,0 -17.487,4.031 -23.153,10.427 -3.106,-4.736 -8.459,-7.863 -14.545,-7.863 -3.732,0 -7.189,1.174 -10.02,3.176 -4.497,-4.666 -10.806,-7.57 -17.798,-7.57 -4.717,0 -9.123,1.322 -12.874,3.617 -1.431,-2.621 -4.214,-4.398 -7.413,-4.398 -1.198,0 -2.337,0.25 -3.369,0.698 -2.611,-2.872 -6.376,-4.673 -10.562,-4.673 -2.267,0 -4.409,0.529 -6.313,1.468 -3.264,-2.252 -7.221,-3.569 -11.487,-3.569 -11.193,0 -20.266,9.071 -20.266,20.262 0,11.193 9.073,20.267 20.266,20.267"
             style="fill:#a7bf1c;fill-opacity:1;fill-rule:evenodd;stroke:none"
             id="path44390" />
        </g>
        <g
           id="g44392"
           transform="translate(508.6963,248.2646)">
          <path
             d="m 0,0 c 83.937,19.521 173.223,55.567 251.808,58.56 78.585,2.993 138.291,-43.567 209.35,-40.992 80.496,2.917 137.505,45.383 234.805,21.96 V -13.177 C 610.863,9.271 534.737,-32.315 458.232,-29.279 381.727,-26.244 331.867,34.506 253.273,39.528 174.677,44.549 84.425,13.177 0,0"
             style="fill:#f0c678;fill-opacity:1;fill-rule:evenodd;stroke:none"
             id="path44394" />
        </g>
      </g>
    </g>
  </g>
</svg>
