<?xml version="1.0" encoding="UTF-8"?>
<!DOCTYPE svg PUBLIC "-//W3C//DTD SVG 1.1//EN" "http://www.w3.org/Graphics/SVG/1.1/DTD/svg11.dtd">
<svg version="1.1" xmlns="http://www.w3.org/2000/svg" xmlns:xlink="http://www.w3.org/1999/xlink" x="0" y="0" width="660" height="660" viewBox="0, 0, 660, 660">
  <defs>
    <clipPath id="Clip_1">
      <path d="M-0,0.828 L659.174,0.828 L659.174,659.94 L-0,659.94 z"/>
    </clipPath>
  </defs>
  <g id="Layer_1">
    <g clip-path="url(#Clip_1)">
      <path d="M-0,0.828 L659.174,0.828 L659.174,659.94 L-0,659.94 z" fill="#E2CD94"/>
      <path d="M-0,635.126 L659.174,635.126 L659.174,659.94 L-0,659.94 z" fill="#B6A166"/>
      <path d="M-0,126.092 L659.174,572.813 L659.174,212.979 L106.688,0.828 L-0,0.828 L-0,126.092" fill="#E9D8AC"/>
      <path d="M142.647,115.56 L516.524,115.56 L516.524,659.94 L142.647,659.94 z" fill="#FFFFFE"/>
      <path d="M163.686,133.114 L495.486,133.114 L495.486,659.94 L163.686,659.94 z" fill="#6E2F20"/>
      <path d="M171.584,142.33 L487.59,142.33 L487.59,659.94 L171.584,659.94 z" fill="#95432A"/>
    </g>
    <path d="M214.176,171.953 L444.998,171.953 L444.998,387.633 L214.176,387.633 z" fill="#6E2F20"/>
    <path d="M214.176,376.333 L214.176,365.582 L258.308,365.582 C259.394,365.582 260.282,366.47 260.282,367.557 L260.282,374.358 C260.282,375.445 259.394,376.333 258.308,376.333 L214.176,376.333" fill="#51281A"/>
    <path d="M223.802,180.949 L435.37,180.949 L435.37,378.638 L223.802,378.638 z" fill="#B0562E"/>
    <path d="M258.952,376.224 L223.802,376.224 L223.802,365.582 L258.308,365.582 C259.394,365.582 260.282,366.47 260.282,367.557 L260.282,374.358 C260.282,375.219 259.725,375.956 258.952,376.224" fill="#9D4B2C"/>
    <path d="M223.802,180.949 L391.214,180.949 C376.82,269.623 310.121,340.739 223.802,361.625 L223.802,180.949" fill="#C0612F"/>
    <path d="M214.176,414.694 L444.998,414.694 L444.998,630.377 L214.176,630.377 z" fill="#6E2F20"/>
    <path d="M223.802,423.691 L435.37,423.691 L435.37,621.38 L223.802,621.38 z" fill="#B0562E"/>
    <path d="M223.802,423.691 L391.909,423.691 C379.107,514.494 311.604,587.711 223.802,608.957 L223.802,423.691" fill="#C0612F"/>
    <path d="M181.512,334.973 L204.111,334.973 C207.008,334.973 209.377,337.343 209.377,340.239 L209.377,413.961 C209.377,416.857 207.008,419.227 204.111,419.227 L181.512,419.227 C178.616,419.227 176.246,416.857 176.246,413.961 L176.246,340.239 C176.246,337.343 178.616,334.973 181.512,334.973" fill="#F2E8DE"/>
    <path d="M209.377,365.582 L209.377,376.333 L189.851,376.333 C188.765,376.333 187.876,375.445 187.876,374.358 L187.876,367.557 C187.876,366.47 188.765,365.582 189.851,365.582 L209.377,365.582" fill="#DCD1C5"/>
    <path d="M175.117,353.737 L210.961,353.737 C213.777,353.737 216.083,356.042 216.083,358.858 L216.083,444.202 C216.083,447.017 213.777,449.323 210.961,449.323 L175.117,449.323 C172.3,449.323 169.996,447.017 169.996,444.202 L169.996,390.223 L193.039,390.223 C200.58,390.223 206.694,384.108 206.694,376.567 C206.694,369.026 200.58,362.912 193.039,362.912 C185.856,362.912 179.97,368.458 179.425,375.501 L169.996,375.501 L169.996,358.858 C169.996,356.042 172.3,353.737 175.117,353.737" fill="#E16060"/>
    <path d="M178.371,417.052 C188.149,417.052 197.928,417.052 207.708,417.052 C207.708,419.185 207.708,421.32 207.708,423.454 C197.928,423.454 188.149,423.454 178.371,423.454 C178.371,421.32 178.371,419.185 178.371,417.052 z M178.371,426.813 L207.708,426.813 L207.708,433.215 L178.371,433.215 z M178.371,407.291 L207.708,407.291 L207.708,413.692 L178.371,413.692 z" fill="#FADA3C"/>
    <path d="M189.851,362.4 L258.308,362.4 C259.394,362.4 260.282,363.289 260.282,364.375 L260.282,371.178 C260.282,372.264 259.394,373.151 258.308,373.151 L189.851,373.151 C188.765,373.151 187.876,372.264 187.876,371.178 L187.876,364.375 C187.876,363.289 188.765,362.4 189.851,362.4" fill="#FFFFFE"/>
  </g>
</svg>