<?xml version="1.0" encoding="UTF-8" standalone="no"?>
<svg id="svg2" xmlns:rdf="http://www.w3.org/1999/02/22-rdf-syntax-ns#" xmlns="http://www.w3.org/2000/svg" height="915pt" width="1122pt" version="1.1" xmlns:cc="http://creativecommons.org/ns#" xmlns:dc="http://purl.org/dc/elements/1.1/" viewBox="0 0 1122 915">
<g>
<path id="path4" d="m461.58 0h42.85c60.21 2.43 129.25 24.62 155.56 84.01 17.32 40.99 15.15 86.77 23.46 129.94 122.55-1.56 246.5-35.39 347.65-105.96 6.4-6.73 19.9-3.1 20.4 6.65 19.5 145.3 40.7 291.37 61.4 436.82-53.6 44.32-120.8 71.65-187.29 92.17-75.35 23.12-154.69 32.79-233.39 31.16-40.53-2.48-82.37-3.94-120.44-19.58-11.9-5.37-23.91-14.1-28.04-27-9.56-52.25-15.99-105.29-26.25-157.28-112.12 6.77-222.33 51.52-306.34 126.38-2.89 2.18-2.03 6.07-1.88 9.26 14.35 97.61 27.92 195.35 40.59 293.19 0.85 4.86-4.86 6.86-8.73 6.64-20.09 2.16-40.03 5.63-60.13 7.63 21.8-4.84 44.5-5.85 66.05-11.5-13.71-102.3-31.46-204.18-47.56-306.17 36.99-34.78 79.7-62.81 124.59-86.27-49.22 17.81-94.57 45.97-130.81 83.75 12.24 97.25 30.21 194.05 42.52 291.39-15.37-94.55-29.92-189.43-45.17-284.08-0.46-3.58-1.58-8.07 1.64-10.8 15.55-15.69 33.51-28.8 51.04-42.1-17.08 6.77-32 18.09-48.75 25.38-12.63 1.75-17.91-13.2-14.23-23.47 1.02 8.38 2.44 23.63 15 20.54 98.92-71.77 217.14-124.47 340.65-127.78 14.85-12.22 37.92-8.88 53.81-14.12-135.8 3.37-270.23 45.16-385.79 116.22 117.3-99.49 274.51-146.67 427.08-142.14-11.03-90.09-18.91-180.54-28.06-270.84-2.85-22.8-16.18-44.39-36.66-55.38-34.4-19.6-75.69-19.46-114.06-18.44-63.08 6.68-125.71 21.84-183.31 48.76-44.94 22.62-87.13 51-124.74 84.39 20.61 119.87 39.75 240.13 51.96 361.2 6.28-1.72-2 4.17 0.33 7.81-2.17-7.28-8.5 1.62-2.23-6.03-18.38-123.09-40.11-245.92-65.89-367.77-2.67-0.12-12.69-4.87-9.05 2.99 8.36 49.94 18.19 99.7 25.42 149.8-10.69-52.28-22.82-104.86-30.74-157.37-6.31-5.45-12.31-11.99-13.46-20.6-3.34-23.58-7.88-47.03-10.36-70.72-1.85-10.25 3.53-19.44 9.74-27-13.33-1.31-28.22-0.48-39.96 6.49 7.82 6.41 17.82 14.18 17.78 26.08 13.74 96.98 28.2 193.9 41.02 290.98-15.04-93.47-29.4-187.22-44.25-280.79-1.53-10.34-2.84-23.24-13.54-28.46-4.98-1.35-10.58-9.8-4.08-12.92 14.26-6.67 31.92-10.76 47.34-6.35 8.67 9.47-9.85 16.97-7.79 27.68 1.78 22.23 6.93 44.19 9.78 66.35 1.3 8.18 3.45 19.86 12.52 22.92 7.12-5.49-4.91-8.49-5.12-14.54-3.83-25.25-8.7-50.44-11.49-75.8 2.88-9.47 17.42-23.49 4.75-31.44-18.68-5.17-42.18-2.51-56.85 10.72-6.58 15.19 16.67 17.49 17.36 31.05 41.9 267.14 90.71 533.55 115.65 803.01 13.06-1.87 6.65 0.99-0.89 1.06-42.05-266.13-83.89-532.32-126.5-798.37 0.32-10.77-13.99-11.23-16.85-20.52-7.16-13.19 0.43-29.11 13.85-34.15 17.09-6.69 36.52-9.97 54.62-6.09 15.98 3.07 23.03 24.56 13.46 37.14-11.75 12.77-0.23 30.19-0.94 45.14 16.15-4.14 8.07-22.37 5.35-33.56 18.04-14.74 12.92-51.71-11.85-58.59-24.2-6.07-51.7-2.67-73.22 10.37-21.9 13.14-19.1 50.11 4.16 60.08 42.58 262.36 86.79 525.93 119.42 790.27-47.89-252.39-95.28-504.92-139.17-758.05 0.64-22.08-23.75-32.82-24.52-55.05v-18.73c4.73-29.69 32.61-49.06 60.57-54 30.73-7.53 70.75-6.28 90.3 22.51 15.72 20.62 12.68 48.19 2.93 70.57 91.57-59.49 198.81-93.2 307.78-98.69m2.92 28.52c-59.13 3.74-119.8 14.64-173.36 39.65 81.93-29.75 171.27-46.05 258.17-32.17-27.25-8.17-56.52-8.81-84.81-7.48m90.12 19.58c40.51 14.86 76.02 50 78.07 95.21 4.67 31.29 10.42 62.41 16.4 93.46 2.26 0.29 4.18-1.75 5.81-3.11-6.14-35.8-11.9-71.7-18.05-107.51-6.59-40.78-42.42-71.43-82.23-78.05m-260.09 10.27c-48 16.68-93.54 40.36-135.33 69.24 0.61 3.49-0.5 7.99 1.34 11.15 41-31.48 85.26-59.23 133.21-78.87 1.28-0.38 3.53-2.77 0.78-1.52m337.5 23.56c18.62 31.84 17.5 70.88 24.99 105.11-6.38-35.17-3.71-74.61-24.99-105.11m400.27 50.56c-9.2 1.3-9.6 9.09-7.1 16.1 8.9 0.66 12.1-11.29 7.1-16.1m-909.41 3.58c3.02 7.71-0.97 20.1 7.29 24.76 7.4-3.3 12.94-9.74 19.76-14.04-4.75-1.82-10.67-7.03-14.98-1.91-0.59-6.12-7.19-7.42-12.07-8.81m890.51 8.47c-17.69 10.3-36.41 19.82-54.29 29.57 18.58-6.1 37.42-11.62 55.69-18.57-1.3-2.43 1.2-10.06-1.4-11m-844.18 4.71c-14.87 7.45-25.58 24.59-43.39 24.96-8.57 5.77 6.77 5.98 9.98 4.12 10.39-10.47 23.05-18.87 33.41-29.08m865.38 7.22c-11.3 2.1 1.7 14.93-4.3 21.74-2-2.87 0.5-10.59-2.4-12.1 12.2 82.79 23.9 165.7 37.8 248.23 2.3 4.6-2 15.67 2.5 12.61 0.8 34.79 10.8 69.63 13.8 104.6 2.8 0.73 4.7-2.46 6.8-3.95-6.6-48.26-16.5-96.07-23.9-144.2 3.5 5.6 2.6 16.88 6.2 23.63-11.2-81.74-23.1-163.39-34-245.17-1.8-0.08 0.8-7.87-2.5-5.39m-21.1 13c-15.69 9.57-32.66 17.58-48.36 26.66 12.93-3.98 25.2-9.94 38.16-13.94-91.17 53.74-193.91 85.86-298.14 102.77 12.46 65.42 20.11 131.68 27.06 197.88 2.56 22.85-6.59 46.38-23.41 61.97-30.85 32.83-80.54 35.03-113.02 65.16 27.76 17.18 61.77 18.99 93.39 22.87 130.94 9.17 269.82-14.9 377.82-93.35-20.3-120.83-40.9-241.78-52.3-363.84-6.2 0.06 4.5-5.96-1.2-6.18m2.7 0.7c-1 4.63 4.6-1.02 0 0m-30.66 2.32c-56.66 25.39-115.71 45.75-176.53 58.52-43.37 9.49-89.11 14.85-131.91 22.05 102.42-5.09 205.39-26.65 296.96-74 2.94-1.77 12.34-4.44 11.48-6.57m31.36 0.73c4.9 35.18 10.6 71.65 17.2 105.74-5.8-34.88-9.9-72.63-17.2-105.74m-359.58 15.34c-2.64 6.34 3.33 4.52 0 0m0.96 7.04c-2.66 5.28 3.54 3.15 0 0m-25.96 1.96c-2.64 6.34 3.33 4.52 0 0m0.57 6.55c2.26 19.67 4.19 41.22 7.05 59.65 3.95-19.93-5.03-40.57-7.05-59.65m48.66 32.43c-4.74 2.26-17.9-3.81-16.51 4.4 11.66-0.51 23.05-3.63 34.73-4.03-3.46-3.02-12.98 0.26-18.22-0.37m-25.49 4.01c-13.82 6.65 5.86 11.8 0 0m25.45 20.88c-21.29 5.63 34.27-2.93 0 0m-12.15 0.77c0.12 9.1 3.16 18.06 4.07 27.14 11.94-9.13-0.73-28.35-4.07-27.14m-29.08 5.4c-2.66 5.28 3.54 3.15 0 0m0.62 6.48c4.8 42.68 10.52 85.29 15.96 127.9-0.29 2.53 2.76 2.27 4.43 2.92-7.89-43.28-13.21-88.11-20.39-130.82m393.4 6.52c-2.7 5.28 3.5 3.15 0 0m1 6c-2.7 5.28 3.5 3.15 0 0m-357.95 2.73c-2.2 0.65-6.43 0.72-2.81 5.2 7.82 46.55 15.92 93.07 23.29 139.69-1.5 11.87-2.63 24.31 2.09 35.72 6.86 15.9 2.18 34.83-7.35 48.63-18.35 21.13-43.86 34.56-69.63 44.47 1.33-2.57 5.09-2.29 6.22-4.94-20.03 8.95-40.32 19.49-54.98 36.08 5.24-9.72 15.07-15.74 22.91-23.14-12.21 2.9-26.65 4.56-30.77 18.97 4.31 13.2-0.47 34.34 17.55 38.08-9.06-7.97-13.7-22.04-4.53-31.79 28.36-31.27 73.97-35.75 105.94-62.02 14.31-11.46 25.69-29.63 22.18-48.6-7.75-64.24-16.94-128.3-26.93-192.22 0.75-3.72-0.32-5.1-3.18-4.13m358.95 3.27c-2.7 5.28 3.5 3.15 0 0m0.9 7.03c-2.6 4.24 3.8 1.79 0 0m1 6c-2.6 4.24 3.8 1.79 0 0m1 6c-2.6 4.24 3.8 1.79 0 0m1 6c-2.6 4.24 3.8 1.79 0 0m31 91c-2.6 4.24 3.8 1.79 0 0m-408.85 5.27c-6.21 3.87-1.27 11.67-1.41 17.32 8.19 0.89 1.45-13.33 1.41-17.32m-65.72 14.31c1.79 3.83 4.24-2.62 0 0m29.93 1.04c4.75 5.07 12.42-2.47 0 0m17.99 3.75c7.36 2.99 14.89 5.53 22.54 7.67 0.46-12.23-7.02 3.09-6.15-9.45-5.32-0.53-12.78-3.69-16.39 1.78m-62.99 4.55c-10.66 1.12-23.23 1.3-32.51 4.5 20.55-1.96 41.2-3.05 61.84-3-7.93-2.33-19.94-1.76-29.33-1.5m-107.93 13.66c1.79 3.83 4.24-2.62 0 0m-6.03 1.07c3.15 3.54 5.28-2.66 0 0m163.7-0.53c6.28 3.95 20.05 9.21 25.98 6.47-15.03-9.03 21.86 9.04 11.61-3.92-12.49-1.52-25.1-1.19-37.59-2.55m-169.57 1.71c-33.79 6.51-68.19 14.23-99.68 27.65 32.64-10.53 65.5-20.87 99.47-26.44 2.49 0.04 9.3-3.7 0.21-1.21m74.31 2.59c-2.13 11.28 10.26-0.91 0 0m-8.8 0.48c0.86 8.18 5.99 2.58 0 0m156.11 6.89c-9.14 1.46 2.63 9.75 4.53 14.77-1.58-4.26-0.02-14.28-4.53-14.77m-115.88 1.66c-13.13 14.98 24.64 0.82 25.7 6.88-8.9 2.42-17.8 4.87-26.93 6.32 4.48 25.62 12.14 51.2 10.2 77.65 3.35 9.85-4.64 0.11-4.32 1.88 3.25 7.31-8.73-3.52-0.25-3.12-4.34-28.86-13.26-57.6-25.94-83.74 1.65 11.95 4.89 23.9 6.36 35.71 4.69 6.61 11.98 32.56 10.02 46.21-2.63-13.01-5.46-25.99-8-39.01-0.13-2.2-3.91-7.22-0.82 1.37 2.82 15.66 5.76 31.3 8.04 47.06-1.06 5.58 7.11 11.93 11.22 6.58 31.67-29.22 81.15-35.14 102.94-75.42-3.04-8.9 2.07-28.55-12.9-26.4 10.96 7.83 11.97 23.49-0.05 30.79-26.85 19.62-51.29 47.54-85.51 53.33 20.01-25.52 40.03-52.04 66.59-71.1-20.78-10.85-44.6-15.82-67.96-14.68-1.7 6.12-4.75-2.44-8.39-0.31m-36.47 1.53c5.19 42.18 15.34 84.51 21.01 126.94 7.46-4.96 10.05-19.52 3.32-28.02 2.02-34.75-13-66.88-24.33-98.92m6.23 0.05c2.94 9.69 5.25 20.72 8.81 29.18-2.9-9.55 0.01-25.18-8.81-29.18m109.61 16.48c1.63 10.48 11.42 6.94 0 0m42.49 4.03c-3.05 28.27-30.82 43.24-50.29 59.86 22.84-11.8 56.01-29.8 50.29-59.86m-359.76 20.19c-10.02 3.91 3.5 1.67 0 0m758.83 22.89c-1.6 2.76-2.5 5.8-3.6 8.77 4-0.64 7.6-7.28 3.6-8.77m1.9 11.24c-4.3 3.67 3.2 3.31 0 0m-7 1.97c-0.9 2.63-2 5.13-3.5 7.49 3.6-0.82 6.9-5.05 3.5-7.49m-5.7 8.07c-12.8 8.05-1.2 4.21 0 0m-515.36 43.91c-9.01 21.29 7.01 45.14 28.35 49.99 44.72 12.02 93.97 13.28 138.35 9.62-36.34-0.02-72.66-4.37-108.21-11.8-17.7-3.34-36.61-6.27-51.08-17.85-6.33-8.61-4.14-20.2-7.41-29.96z"/>
<path id="path6" d="m479.29 65.96c39.98-0.27 92.76 4.49 111.71 45.96-23.23-37.97-74.17-41.5-111.71-45.96z"/>
<path id="path8" d="m401.44 69.32c1.06-0.41 5.16-0.74 2.49 0.64-76.31 17.39-145.94 55.19-211.84 96.08 58.9-50.78 133.5-81.56 209.35-96.72z"/>
<path id="path10" d="m1036.7 94.49c11.2-2.25 23.5 6.72 24.7 18.11 6.3 45.08 12.4 90.19 17.7 135.4-8.5-45.46-13.4-92.92-22.1-138.86-4.2-11.9-20.5-14.58-29.7-6.78-51.47 37.08-110.07 63.46-170.81 81.25-0.89-0.15-3.72 1.51-3.16-0.26 60.32-18.42 117.84-46.29 169.57-82.37 4.2-2.87 8.6-5.82 13.8-6.49z"/>
<path id="path12" d="m133.98 146.24c2.59 1.06 0.7 6.62 2.14 8.54-6.82-0.54-13.89-5.32-2.14-8.54z"/>
<path id="path14" d="m1079.3 249.56c3.3 4.51-2.6 6.34 0 0z"/>
<path id="path16" d="m1080.3 256.6c3.5 3.15-2.7 5.28 0 0z"/>
<path id="path18" d="m142.21 292.63c3.83 1.79-2.61 4.24 0 0z"/>
<path id="path20" d="m142.93 297.04c15.75 75.3 27.92 153.07 38.11 229.99-13.23-75.67-25.64-153.46-38.11-229.99z"/>
<path id="path22" d="m145.21 340.63c3.83 1.79-2.61 4.24 0 0z"/>
<path id="path24" d="m1064.2 378.63c3.8 1.79-2.6 4.24 0 0z"/>
<path id="path26" d="m119.28 388.6c3.54 3.15-2.66 5.28 0 0z"/>
<path id="path28" d="m120.21 396.63c3.83 1.79-2.61 4.24 0 0z"/>
<path id="path30" d="m1103.2 444.63c3.8 1.79-2.6 4.24 0 0z"/>
<path id="path32" d="m1104.3 449.6c3.5 3.15-2.7 5.28 0 0z"/>
<path id="path34" d="m1118.9 550.85c-3.4-32.09-11.1-63.86-13.4-95.95 5.8 30.11 10.3 60.48 16.5 90.53v8.04c-2.8 8.69-11.9 12.69-18.4 18.09-127.37 90.7-289.75 121.98-443.59 112.29 150.82-0.67 312.01-25.98 439.99-113.84 6.5-5.62 18.1-9.13 18.9-19.16z"/>
<path id="path36" d="m610.84 477.09c9.41-0.89 18.63 2.29 27.04 6.2-7.04 1.63-22.56-3.01-27.04-6.2z"/>
<path id="path38" d="m181.28 528.6c3.54 3.15-2.66 5.28 0 0z"/>
<path id="path40" d="m1031.4 550.4c2.6-0.62-3.7 4.92-3.4 3.67-62.59 41.04-136.34 61.64-209.99 71.01 73.62-14.62 146.28-40.01 213.39-74.68z"/>
<path id="path42" d="m610.49 611.19c42.54 9.73 88.59 11.8 130.39 14.76-43.51 1.72-89.18 0.61-130.39-14.76z"/>
<path id="path44" d="m236.28 886.6c3.54 3.15-2.66 5.28 0 0z"/>
<path id="path46" d="m237.48 892.63c2.78 4.06-5.2 3.83 0 0z"/>
<path id="path48" d="m228.6 896.28c5.28-2.66 3.15 3.54 0 0z"/>
<path id="path50" d="m222.63 897.21c4.24-2.62 1.79 3.82 0 0z"/>
<path id="path52" d="m171.79 915c-4.46-4.54 0.25-5.6 1.02 0h-1.02z"/>
<path id="path54" d="m174.57 915h5.41-5.41z"/>
</g>
</svg>
