<?xml version="1.0" encoding="UTF-8" standalone="no"?>
<svg xmlns:rdf="http://www.w3.org/1999/02/22-rdf-syntax-ns#" xmlns="http://www.w3.org/2000/svg" height="513pt" width="467pt" version="1.1" xmlns:cc="http://creativecommons.org/ns#" xmlns:dc="http://purl.org/dc/elements/1.1/" viewBox="0 0 467 513">
<path d="m217.03 0.67578c-9.98-0.0036-19.99 0.38872-30.02 1.2734-34.6 3.2375-70.96 11.413-97.26 35.625 16.09 1.263 31.66 5.402 47.99 4.414 6.77-0.95 6.02 9.25 0.33 10.012-13.96 4.012-25.62 12.887-37.41 21.012 28.9 6.262 59.62 1.989 88.3 10.539 39.58 11.987 79.19 24.869 115.95 43.989 15.78 5.66 5.08 21.46-1.52 29.62-94.2 102.5-175.59 215.7-252.02 331.7-15.52 24.3-35.707 45.55-49.282 71.05-3.5376 20.69 14.338 36.14 25.525 51.21 15.963 23.46 47.525 32.78 74.417 26.07 9.58-2.53 12.91-12.99 16.51-21.12 19.63-39.76 39.91-79.47 65.41-115.87 40.7-66.55 80.04-134.54 131.34-193.66 31.31-39.15 63.71-77.91 88.86-121.43 8.65-5.22 18.02 4.67 21.05 12.27 16.07 23.78 10.85 59.2 37.44 76.27 16.26 13.76 35.94 0.83 51.47-6.97 30.28-20.12 45.8-54.85 60.95-86.59 13.19-25.09 7.15-62.34-21.01-74.27-24.45-14.071-42.3 20.88-65.4 19.44-25.89-11.51-24.6-44.059-38.93-64.959-15.63-24.75-45.49-33.889-72.48-40.051-53.15-7.984-106.32-19.555-160.21-19.574zm7.95 12.105c0.61 0.012 1.22 0.032 1.83 0.047-0.61-0.015-1.22-0.035-1.83-0.047zm4.8 0.131c0.69 0.023 1.37 0.052 2.06 0.08-0.69-0.028-1.37-0.057-2.06-0.08zm4.81 0.199c0.69 0.034 1.37 0.07 2.06 0.108-0.69-0.038-1.37-0.074-2.06-0.108zm4.95 0.28c0.66 0.041 1.32 0.083 1.98 0.129-0.66-0.046-1.32-0.088-1.98-0.129zm4.97 0.349c0.57 0.044 1.14 0.085 1.7 0.131-0.56-0.046-1.13-0.087-1.7-0.131zm4.75 0.397c0.67 0.06 1.33 0.118 2 0.181-0.67-0.063-1.33-0.121-2-0.181zm6.62 0.648c2.73 0.294 5.47 0.622 8.2 0.969-2.73-0.347-5.47-0.675-8.2-0.969zm9.27 1.104c2.58 0.334 5.15 0.693 7.73 1.07-2.58-0.377-5.15-0.736-7.73-1.07zm9.23 1.293c2.46 0.368 4.91 0.752 7.37 1.156-2.46-0.403-4.91-0.788-7.37-1.156zm26.37 4.593c1.11 0.218 2.22 0.449 3.33 0.672-1.11-0.223-2.22-0.454-3.33-0.672zm9.61 1.95c1.24 0.259 2.47 0.525 3.71 0.789-1.24-0.264-2.47-0.53-3.71-0.789zm9.34 2c1.41 0.308 2.82 0.621 4.23 0.935-1.41-0.314-2.82-0.627-4.23-0.935zm8.4 1.873c4.99 1.128 9.98 2.278 14.95 3.445-4.97-1.166-9.96-2.317-14.95-3.445zm85.92 21.314c1.31 0.794 2.6 1.622 3.87 2.483-1.27-0.861-2.56-1.689-3.87-2.483zm3.87 2.483c1.9 1.291 3.76 2.656 5.56 4.095-1.8-1.438-3.66-2.805-5.56-4.095zm13.77 11.089c0.93 0.862 1.79 1.762 2.6 2.698-0.81-0.936-1.67-1.837-2.6-2.698zm-289.69 2.002c-0.77 0.683-1.37 1.619-1.69 2.557 0.32-0.938 0.92-1.874 1.69-2.557zm293.47 2.125c0.76 0.969 1.47 1.969 2.14 2.996-0.67-1.027-1.38-2.027-2.14-2.996zm-295.41 1.811c-0.01 0.44 0.07 0.851 0.24 1.201 0.09 0.175 0.2 0.336 0.34 0.477-0.14-0.141-0.25-0.302-0.34-0.477-0.17-0.35-0.25-0.761-0.24-1.201zm30.85 2.935c3.73 0.336 7.45 0.768 11.16 1.289-3.71-0.521-7.43-0.953-11.16-1.289zm101.66 4.969c0.25 0.259 0.48 0.526 0.69 0.805-0.21-0.278-0.45-0.547-0.69-0.805zm1.27 1.674c0.36 0.601 0.63 1.247 0.8 1.949-0.17-0.701-0.44-1.349-0.8-1.949zm0.8 1.951c0.25 1.053 0.27 2.23 0 3.561 0.28-1.332 0.25-2.507 0-3.561zm168.87 1.213c1.45 3.457 2.79 6.992 4.24 10.467-1.45-3.475-2.79-7.01-4.24-10.467zm-212.44 3.44c7.12 2.414 14.16 5.077 21.13 7.939-6.97-2.862-14.02-5.525-21.13-7.939zm26.34 10.123c6.93 2.958 13.8 6.103 20.58 9.383-6.78-3.28-13.65-6.425-20.58-9.383zm90.65 4.544c-1.99 0.071-3.99 0.235-5.99 0.497-2.01 0.262-4.02 0.622-6.03 1.082 2.01-0.46 4.02-0.82 6.03-1.082 2-0.262 4-0.426 5.99-0.497zm18.29 1.909c3.57 0.87 7.08 1.99 10.5 3.36-3.42-1.37-6.93-2.49-10.5-3.36zm-31.71 0.41c-0.22 0.18-0.37 0.38-0.47 0.59 0.1-0.21 0.25-0.41 0.47-0.59zm117.98 0.14c1.11 1.91 2.34 3.74 3.72 5.48-1.38-1.74-2.61-3.57-3.72-5.48zm-118.45 0.45c-0.44 0.95 0.17 2.12 0.98 3.38-0.81-1.26-1.42-2.43-0.98-3.38zm-56.18 1.93c3.4 1.64 6.77 3.32 10.13 5.02-3.36-1.7-6.73-3.38-10.13-5.02zm15.15 7.59c6.67 3.46 13.27 7.02 19.79 10.62-6.52-3.6-13.12-7.16-19.79-10.62zm238.92 3.31c-0.06 0.01-0.13 0.02-0.19 0.04 0.07-0.02 0.13-0.03 0.19-0.04zm1.18 0.03c0.05 0 0.1 0.02 0.15 0.03-0.05-0.01-0.1-0.03-0.15-0.03zm-1.78 0.12c-0.06 0.02-0.12 0.03-0.17 0.05 0.05-0.02 0.11-0.03 0.17-0.05zm2.36 0.02c0.06 0.02 0.12 0.04 0.17 0.06-0.05-0.02-0.11-0.04-0.17-0.06zm0.57 0.23c0.05 0.03 0.1 0.05 0.15 0.08-0.05-0.03-0.1-0.05-0.15-0.08zm1.05 0.74c0.04 0.04 0.07 0.08 0.11 0.12-0.04-0.04-0.07-0.08-0.11-0.12zm0.35 0.42c0.03 0.04 0.05 0.09 0.08 0.14-0.03-0.05-0.05-0.1-0.08-0.14zm0.24 0.44c0.02 0.05 0.04 0.11 0.06 0.16-0.02-0.05-0.04-0.11-0.06-0.16zm0.13 0.5c0.01 0.05 0.02 0.09 0.03 0.14-0.01-0.05-0.02-0.09-0.03-0.14zm0 0.62c-0.01 0.04-0.03 0.07-0.04 0.11 0.01-0.04 0.03-0.07 0.04-0.11zm-0.18 0.5c-0.03 0.05-0.06 0.11-0.1 0.16 0.04-0.05 0.07-0.11 0.1-0.16zm-0.34 0.5c-0.05 0.05-0.09 0.1-0.15 0.16 0.06-0.06 0.1-0.11 0.15-0.16zm-0.53 0.49c-0.06 0.05-0.12 0.1-0.19 0.15 0.07-0.05 0.13-0.1 0.19-0.15zm-12.13 0.56c-1.25 0.84-2.48 1.71-3.69 2.6-2.41 1.79-4.75 3.67-7.02 5.64 2.27-1.97 4.61-3.85 7.02-5.64 1.21-0.89 2.44-1.76 3.69-2.6zm-207.52 3.19c0.83 0.25 1.66 0.4 2.47 0.47 0.54 0.04 1.07 0.04 1.6 0.01-0.53 0.03-1.06 0.03-1.6-0.01-0.81-0.07-1.64-0.22-2.47-0.47zm93.29 2.71c0.7 0.7 1.4 1.42 2.08 2.14-0.68-0.72-1.38-1.44-2.08-2.14zm4.09 4.32c1.31 1.48 2.59 2.98 3.81 4.51-1.22-1.53-2.5-3.03-3.81-4.51zm5.62 6.82c0.66 0.88 1.19 1.78 1.62 2.71-0.43-0.93-0.96-1.83-1.62-2.71zm2.18 4.12c0.48 1.43 0.74 2.91 0.84 4.42-0.1-1.51-0.36-2.99-0.84-4.42zm0.84 7.5c-0.12 2.07-0.46 4.19-0.88 6.31 0.42-2.12 0.76-4.24 0.88-6.31zm-2.22 12.65c-0.53 2.61-0.96 5.18-1.01 7.61-0.02 0.93 0.02 1.84 0.13 2.73-0.11-0.89-0.15-1.8-0.13-2.73 0.05-2.43 0.48-5 1.01-7.61zm70.89 37.55c-0.41 2.25-0.77 4.51-1.08 6.78 0.31-2.27 0.67-4.53 1.08-6.78zm-1.2 7.7c-0.33 2.5-0.59 5-0.79 7.51 0.2-2.51 0.46-5.01 0.79-7.51zm-0.95 28.36c0.07 0.61 0.18 1.22 0.33 1.82-0.15-0.6-0.26-1.21-0.33-1.82zm1.25 4.47c0.75 1.74 1.76 3.43 2.8 5.11 1.05 1.68 2.13 3.35 3.05 5.03-0.92-1.68-2-3.35-3.05-5.03-1.04-1.68-2.05-3.37-2.8-5.11zm-34.43 3.38c0.54 2.87 1.29 5.76 2.3 8.65-1.01-2.89-1.76-5.78-2.3-8.65zm5.03 13.94c0.55 0.77 1.16 1.5 1.81 2.17-0.65-0.67-1.26-1.4-1.81-2.17zm34.97 5.87c-0.82 0.41-1.68 0.8-2.56 1.14 0.88-0.34 1.74-0.73 2.56-1.14zm-26.33 1.03c0.85 0.38 1.73 0.71 2.62 1-0.9-0.29-1.77-0.62-2.62-1zm22.44 0.6c-0.9 0.3-1.82 0.57-2.75 0.8 0.93-0.23 1.85-0.5 2.75-0.8zm-17.07 1.12c0.93 0.19 1.87 0.34 2.83 0.45 0.95 0.11 1.91 0.17 2.88 0.19-0.97-0.02-1.93-0.08-2.88-0.19-0.96-0.11-1.9-0.26-2.83-0.45zm-389.07 303c1.29 1.59 2.491 3.25 3.592 4.98-1.101-1.73-2.302-3.39-3.592-4.98zm7.834 13.14c0.776 1.91 1.435 3.87 1.968 5.89-0.533-2.02-1.192-3.98-1.968-5.89zm2.345 7.42c0.214 0.93 0.398 1.88 0.557 2.83-0.159-0.95-0.343-1.9-0.557-2.83zm0.635 3.31c0.146 0.94 0.266 1.88 0.358 2.84-0.092-0.96-0.212-1.9-0.358-2.84zm0.633 5.91c0.061 0.8 0.08 1.59 0.057 2.39 0.023-0.8 0.003-1.59-0.057-2.39zm-0.012 3.61c-0.1 1.22-0.296 2.44-0.58 3.63 0.284-1.19 0.48-2.41 0.58-3.63z" transform="scale(.8)"/>
<g>
<path d="m220.19 12.727c-6.83-0.023-13.68 0.185-20.54 0.66-10.59 4.262-31.96-2.774-34.43 8.701 34.63 9.687 70.17 25.424 98.9 48.724 4.93 2.876 11.94 5.6 10.49 12.7-39.15-16.725-87.18-44.15-129.9-20.074-4.07-0.263-7.03 7.437-2.12 7.312 60.95-2.975 118.16 22.724 170.31 51.57 9.05 4.83 17.43-2.53 22.53-9.61 6.61-3.27-6.13-9.6 0.58-11.86 32.2-7.388 63.58 11.5 82.42 36.37 10.56 13.97-11.05 35.67 7.93 45.24 4.5 3.87 10.94 20.1 15.86 9.75 9.05-22.33 27.38-38.97 40.27-58.55-5.09-9.26-16.82-14.15-23.1-23.02-14.58-14.266-13.83-38.19-30.69-50.615-18.05-16.9-42.75-25.588-67.4-24.675-46.36-10.971-93.32-22.466-141.11-22.623zm312.41 102.24c-0.65-0.01-1.31 0.15-1.89 0.52-21.46 11.55-36.65 31.22-51.64 49.85-15.27 25.6-32.69 55.38-21.98 86.26 5.5 15.8 26.16 17.79 38.92 10.5 5.48-10.23-7.86-17.99-8.1-27.92-2.39-42.5 13.62-85.9 46.24-113.97 4-2.01 1.28-5.18-1.55-5.24z" transform="scale(.8)" fill="#636478"/>
<path d="m283.53 90.49c12.79 2.21 28.89 13.22 29.15 27.78-6.88 10.95-11.72 22.97-14.75 35.54-1.23 6.32-10.77 2.29-12.86 8.33-6.13 6.86-3.52 18.09-9.62 24.35-14 3.85-12.03 24.63-26.22 27.66-8.3 2.18-8.53 12.85-12.28 18.88-4.51 3.16-9.22-4.09-13.86-1.19-9.07 4.04-3.41 16.89-7.76 24.1-3.22 8.69-16.16 3.49-19.54 12.24-2.47 5.72 0.64 15.33-6.67 18.05-11.34 2.44-8.2 17.54-17.95 21.85-12.03 6.94-6.51 22.82-10.31 33.64-3.1 5.54-8.91-3.73-11.72 1.45-3.8 8.66-13.98 13.1-15 23.2-3.46 7.96 1.58 19.85-6.53 25.34-9.44-4.18-13.35 9.92-16.73 16.01-10.27 8.95-10.03 24.15-18.9 34.21-2.62 3.94-9.54 12.21-13.93 5.18-11.21-12.23-26.15-21.05-42.97-22.19-4.98 0.26-2.52-6.88-0.25-9.09 12.57-21.03 27.84-40.28 41.73-60.31 14.71-27.91 33.08-53.59 52.83-78.14 38.45-55.86 82.74-106.61 127.57-157.43 8.68-9.77 13.74-24.37 26.57-29.46z" fill="#c55a2f"/>
<path d="m23.637 541.54c-16.438 7.91-12.362 29.97-8.1 44.11 14.95 17.66 33.813 36.21 58.238 37.69 14.013 0.94 24.062-13.38 22.299-26.33-2.075-35-40.625-56.12-72.437-55.47z" transform="scale(.8)" fill="#cc9a72"/>
</g>
</svg>
