<?xml version="1.0" encoding="UTF-8" standalone="no"?>
<!-- Created with Inkscape (http://www.inkscape.org/) -->

<svg
   xmlns:dc="http://purl.org/dc/elements/1.1/"
   xmlns:cc="http://creativecommons.org/ns#"
   xmlns:rdf="http://www.w3.org/1999/02/22-rdf-syntax-ns#"
   xmlns:svg="http://www.w3.org/2000/svg"
   xmlns="http://www.w3.org/2000/svg"
   xmlns:sodipodi="http://sodipodi.sourceforge.net/DTD/sodipodi-0.dtd"
   xmlns:inkscape="http://www.inkscape.org/namespaces/inkscape"
   width="364.11298"
   height="248.52835"
   id="svg2"
   version="1.1"
   inkscape:version="0.48.5 r10040"
   sodipodi:docname="Yellow shed.svg">
  <defs
     id="defs4" />
  <sodipodi:namedview
     id="base"
     pagecolor="#ffffff"
     bordercolor="#666666"
     borderopacity="1.0"
     inkscape:pageopacity="0.0"
     inkscape:pageshadow="2"
     inkscape:zoom="0.64046391"
     inkscape:cx="255.10171"
     inkscape:cy="194.59986"
     inkscape:document-units="px"
     inkscape:current-layer="layer1"
     showgrid="false"
     inkscape:window-width="1440"
     inkscape:window-height="851"
     inkscape:window-x="0"
     inkscape:window-y="0"
     inkscape:window-maximized="1"
     showguides="true"
     inkscape:guide-bbox="true"
     fit-margin-top="0"
     fit-margin-left="0"
     fit-margin-right="0"
     fit-margin-bottom="0" />
  <metadata
     id="metadata7">
    <rdf:RDF>
      <cc:Work
         rdf:about="">
        <dc:format>image/svg+xml</dc:format>
        <dc:type
           rdf:resource="http://purl.org/dc/dcmitype/StillImage" />
        <dc:title></dc:title>
      </cc:Work>
    </rdf:RDF>
  </metadata>
  <g
     inkscape:label="Laag 1"
     inkscape:groupmode="layer"
     id="layer1"
     transform="translate(-116.94553,-534.70732)">
    <path
       style="fill:#000000"
       d="m 508.42284,933.1972 c -0.54585,-7.65032 -1.39624,-15.23949 -2.23614,-22.82806 -0.20542,-1.11612 -0.37432,-2.2444 -0.63599,-3.3422 0.93748,8.72797 1.89654,17.45093 2.87213,26.17026 z"
       id="path3141"
       inkscape:connector-curvature="0" />
    <g
       id="g3936"
       transform="matrix(1.6902158,0,0,1.6902158,-720.99053,-493.09877)">
      <path
         inkscape:connector-curvature="0"
         id="path3152"
         d="m 708.74331,718.66236 c 0.6912,-1.03292 1.40758,-2.05793 2.09375,-3.09375 0.16837,-0.31744 0.25836,-0.63912 0.34375,-0.96875 -0.80951,1.35449 -1.62041,2.71284 -2.4375,4.0625 z"
         style="fill:#000000" />
      <path
         sodipodi:nodetypes="cccccccccccccccccccccccccc"
         inkscape:connector-curvature="0"
         id="path3108"
         d="m 614.05581,739.97486 c -0.0928,-2.6481 -0.14637,-5.291 -0.25,-7.9375 -0.14935,-8.47025 -0.4098,-16.9341 -0.375,-25.40625 0.0976,-5.71139 0.2957,-25.44802 0.625,-31.15625 -1.50161,-0.11691 -2.99679,-0.24764 -4.5,-0.34375 -1.58872,0.32666 -2.09296,2.24392 -1.90625,3.65625 0.1793,13.76758 0.44848,41.579 -0.75,55.3125 -0.29542,4.3425 -0.63752,8.6681 -1.0625,13 -0.46761,1.0841 -2.1465,2.4555 -0.96875,3.5938 0.50263,0.1526 3.26653,0.7604 1.5,0.875 -11.70717,-0.3221 -23.3457,-1.8175 -34.96875,-3.1563 -18.46985,-2.1962 -36.91718,-4.5181 -55.375,-6.8125 -2.98743,-0.6823 -4.82242,-3.87 -4.625,-6.8125 -0.68384,-18.76347 -1.48523,-37.52229 -2.28125,-56.28125 -0.33333,-1.47441 0.42722,-3.3324 -0.84375,-4.5 -0.15442,-0.10231 -0.35737,-0.12888 -0.53125,-0.0625 -1.92919,1.09932 -2.04738,3.59195 -2,5.5625 -0.1765,19.9375 0.62031,39.86607 1.46875,59.78125 0.5359,3.4933 3.83907,6.1012 7.28125,6.3125 15.9877,2.7992 31.98441,5.681 48.125,7.4688 12.44299,1.2857 24.9381,1.7483 37.4375,2.0624 2.30872,-0.3859 4.62491,-0.845 6.84375,-1.5937 1.18974,-0.4165 2.53871,-1.7771 0.59375,-2.2187 -1.90975,-0.5259 -1.04786,-2.4193 0.25,-3.0938 1.69961,-1.4226 6.55838,3.1482 7.90622,1.414 0.72373,-1.0425 -2.28596,-8.6006 -1.59372,-9.664 z"
         style="fill:#000000" />
      <path
         sodipodi:nodetypes="cccccccccccccccccccccccccc"
         inkscape:connector-curvature="0"
         id="path3284"
         d="m 650.13757,620.47458 c -0.20605,0.021 -0.3911,0.16714 -0.53125,0.3125 -5.64878,6.13855 -11.28197,12.30328 -16.9375,18.4375 -3.26451,3.67102 -6.5062,7.33389 -9.59375,11.15625 -1.91077,2.28044 -3.8118,4.63501 -5.25,7.25 -1.00986,1.62872 -1.65348,3.45125 -1.9375,5.34375 -16.4414,2.55588 -3.51274,14.27309 -3.94789,20.80207 -0.55864,7.59629 1.60929,13.989 1.47914,21.60418 -0.0348,8.47215 0.22565,16.936 0.375,25.40625 0.19659,5.02068 0.21634,10.05468 0.65625,15.06258 0.16638,1.5509 0.64101,3.2312 1.9375,4.2187 1.20172,0.774 2.75025,0.7141 4.09375,0.4063 9.40512,-1.8938 18.77404,-3.8712 28.15625,-5.875 4.7865,-1.0367 9.54557,-2.2036 14.34375,-3.1875 1.37892,-0.3858 2.91925,-0.4376 4.09375,-1.3439 0.66611,-0.8537 0.70944,-1.9711 0.84375,-3 0.32199,-12.583 0.65131,-25.16675 0.96875,-37.74993 0.3331,-12.39572 0.58352,-24.79008 0.84375,-37.1875 0.12847,-3.90268 0.0472,-7.8159 -0.0312,-11.71875 -0.11953,-2.24436 -0.0626,-4.50528 -0.5,-6.71875 -0.24318,-1.72576 -1.14852,-3.24964 -2.03125,-4.71875 -1.51919,-2.36156 -3.22818,-4.61679 -4.9375,-6.84375 -2.69436,-3.5354 -5.59044,-6.94249 -9,-9.8125 -0.91595,-0.66085 -1.83223,-1.37994 -2.875,-1.8125 -0.0692,-0.0226 -0.15007,-0.0382 -0.21875,-0.0312 z"
         style="fill:#d4aa00" />
      <path
         sodipodi:nodetypes="ccccccccc"
         inkscape:connector-curvature="0"
         id="path3063"
         d="m 601.25575,659.49001 c 4.78865,5.16445 4.25463,10.1992 5.75837,16.60291 2.22912,15.49131 1.94625,33.96028 0.99091,49.58201 -0.43542,7.52802 -0.21372,15.18563 -1.73053,22.58883 -2.84165,5.6041 -10.12042,3.2471 -15.08537,2.9156 -25.50641,-2.9493 -51.02236,-5.9045 -76.46446,-9.3335 -6.31225,-3.173 -2.20339,-12.98449 -3.87538,-18.87384 -0.91995,-22.30448 -2.281,-44.60602 -2.60414,-66.92639 54.5206,1.78502 84.29016,2.50701 93.0106,3.44438 z"
         style="fill:#d4aa00" />
      <path
         style="fill:#800000"
         d="m 533.27081,610.69065 c 5.0737,-0.39283 10.16676,-0.36723 15.25181,-0.44772 20.60705,-0.10451 41.21399,-0.23763 61.82102,-0.33638 12.04685,0.009 24.09394,-0.0468 36.14055,-0.0539 1.73991,-0.0101 3.54604,0.0568 5.14162,0.8298 1.11974,0.56401 2.47505,1.09855 2.96612,2.35767 0.76885,1.62859 0.55567,3.58988 -0.32641,5.12875 -1.35215,3.02655 -2.74602,6.04092 -4.42707,8.90165 -2.3525,4.2914 -4.83925,8.50634 -7.36019,12.70032 -4.10194,6.96715 -8.49779,13.75366 -12.82654,20.58035 -2.7858,4.05317 -5.54219,8.14506 -8.75549,11.87711 -1.9561,2.19878 -4.1585,4.2404 -6.77331,5.63091 -2.22495,1.24443 -4.63761,2.18037 -7.15615,2.61545 -3.76201,0.7146 -7.60768,0.6618 -11.41956,0.58573 -8.58119,-0.18802 -17.15638,-0.58065 -25.73169,-0.93984 -12.7701,-0.58262 -25.53888,-1.19597 -38.30626,-1.83487 -9.76014,-0.53226 -19.52355,-1.01109 -29.28456,-1.52021 -1.07941,-0.11071 -2.17963,-0.0896 -3.23766,-0.34927 -0.89708,-0.32321 -1.38309,-1.47257 -0.93986,-2.33005 0.64205,-1.10048 1.20763,-2.26833 1.81226,-3.39965 3.61512,-6.79621 7.24665,-13.584 10.96425,-20.32492 6.65137,-12.17777 13.34379,-24.33342 19.99673,-36.51011 0.53547,-0.9453 0.96802,-1.97853 1.65275,-2.82175 0.22078,-0.19019 0.50654,-0.31383 0.79764,-0.33905 z"
         id="path3066"
         inkscape:connector-curvature="0" />
      <path
         inkscape:connector-curvature="0"
         id="path3167"
         d="m 667.08706,733.63111 c -0.0862,1.00205 -0.13947,2.00735 -0.28125,2.99995 -0.0243,0.0679 -0.0668,0.1214 -0.0937,0.1876 l 0.375,0 0,-3.18755 z"
         style="fill:#000000" />
      <path
         inkscape:connector-curvature="0"
         id="path3017"
         d="m 626.32888,682.13083 10.63164,-0.93808 13.4459,63.16447 -23.76485,3.12695 z"
         style="fill:#eece4c;fill-opacity:1;stroke:none" />
      <path
         sodipodi:nodetypes="ccccc"
         style="fill:#ac9393;fill-opacity:1;stroke:none"
         d="m 625.0781,732.47479 13.1332,-0.62538 12.19512,12.50781 -23.76485,3.12695 z"
         id="path3787"
         inkscape:connector-curvature="0" />
      <path
         inkscape:connector-curvature="0"
         id="path3012"
         d="m 644.93897,677.78125 c -3.48468,0.084 -5.37525,3.67334 -6.09149,6.65232 -1.83658,7.84725 -2.04551,15.96612 -2.18375,23.99189 0.0197,8.67607 0.20395,17.43495 1.98193,25.95647 0.68985,3.01389 2.11442,6.64709 5.48699,7.38704 2.47156,-0.41006 5.56886,2.16914 7.58326,0.47089 0.27632,-2.7918 -1.76515,-5.51978 -0.38973,-8.25537 1.87454,-9.62744 1.98172,-19.49849 1.82952,-29.27426 -0.27015,-7.0459 -0.5047,-14.19634 -2.34783,-21.03898 -0.77919,-2.71747 -2.68427,-5.86085 -5.8689,-5.89 z"
         style="font-size:medium;font-style:normal;font-variant:normal;font-weight:normal;font-stretch:normal;text-indent:0;text-align:start;text-decoration:none;line-height:normal;letter-spacing:normal;word-spacing:normal;text-transform:none;direction:ltr;block-progression:tb;writing-mode:lr-tb;text-anchor:start;baseline-shift:baseline;color:#000000;fill:#784421;fill-opacity:1;fill-rule:nonzero;stroke:none;stroke-width:12.47900009;marker:none;visibility:visible;display:inline;overflow:visible;enable-background:accumulate;font-family:Sans;-inkscape-font-specification:Sans" />
      <path
         sodipodi:nodetypes="cccccccccccccccccccccc"
         inkscape:connector-curvature="0"
         id="path3156"
         d="m 652.77456,613.66236 c -4.00685,4.12165 -6.82803,9.52778 -10.2347,14.25163 -5.36989,8.13474 -28.51025,43.03602 -33.88244,51.16925 2.20594,4.95168 31.62153,-44.20856 39.95733,-56.07869 2.16449,3.18691 3.43358,7.27762 6.76141,11.2225 2.20279,3.83967 13.97619,16.13889 10.55927,20.63785 1.91521,15.25001 3.89784,1.13358 1.15148,72.14121 0.5147,1.43848 0.0211,5.36743 0,8.53475 -0.0451,4.1469 -5.9282,4.9838 -9.04756,6.5291 -12.67375,1.2856 -25.33923,3.4945 -38.04338,4.8933 -6.05362,1.0043 -12.8029,0.2216 -17.66109,4.5746 0.60761,3.4902 7.76692,-0.4613 10.90482,0.2252 17.95079,-2.0494 36.09367,-3.8285 53.48897,-8.9065 6.53906,-2.1389 4.74223,-10.29849 5.38715,-15.5613 0.59125,-15.79073 0.98321,-31.59133 0.43548,-47.38623 0.89045,-4.97467 -2.03755,-13.18331 0.73727,-16.23751 8.58644,1.44068 4.79356,-7.84191 2.51931,-11.9367 -5.15227,-12.39835 -11.18545,-24.67609 -19.72321,-35.11386 -1.08377,-0.90555 -1.83061,-2.70645 -3.31011,-2.9586 z m 18.46875,35.625 c 1.26028,3.49863 9.28604,12.57006 1.34849,12.10317 -1.62607,-3.19752 -0.77282,-8.2726 -1.34849,-12.10317 z"
         style="fill:#000000" />
      <path
         sodipodi:nodetypes="cssscccc"
         inkscape:connector-curvature="0"
         id="path3171"
         d="m 648.06363,624.56814 c 0.44015,0.78372 0.41847,2.52418 1.8814,2.52732 1.05317,0.002 3.68161,-1.80245 4.0177,-1.25124 5.73895,9.4123 12.42284,18.17343 16.7865,28.32507 1.33212,3.09905 0.1551,9.28665 3.36908,7.74307 1.19792,-0.92708 2.39583,-1.85417 3.59375,-2.78125 -7.5625,-13.6875 -15.96139,-27.7932 -23.52389,-41.4807 -1.13542,1.26042 -4.98912,5.65731 -6.12454,6.91773 z"
         style="fill:#800000;fill-opacity:1;stroke:none" />
      <path
         style="fill:#000000;fill-opacity:1"
         d="m 570.81031,619.16025 c -1.50437,0.87177 -2.95798,1.86499 -4.43047,2.82721 -1.33829,0.85683 -2.67967,1.72888 -4.01288,2.59939 -0.15369,0.12197 -0.27677,0.27708 -0.35914,0.44468 -0.31708,0.0451 -0.63916,0.10773 -0.94388,0.23379 -0.93229,0.40081 -1.38082,1.23353 -1.48059,1.93844 -0.12449,1.00105 0.0626,1.96013 0.0125,2.95531 0.0104,2.92775 0.21711,5.80944 0.28307,8.7264 0.0239,4.17758 -0.19166,8.39708 -0.29637,12.59544 -0.0247,1.3851 -0.0267,2.8174 0.67909,3.99499 0.80839,1.07148 2.54047,1.64366 4.36343,1.32756 1.40076,-0.16417 2.79671,-0.30639 4.17424,-0.34422 0.18321,-0.0413 0.7532,-0.33368 0.32676,0.021 -0.36063,0.54879 0.83338,-0.16518 1.14976,-0.0959 1.14616,-0.17137 2.53306,0.3182 3.5144,-0.55097 0.0244,-0.0169 0.0489,-0.0341 0.0733,-0.0511 0.69669,-0.49073 1.35208,-1.0852 2.01859,-1.63844 0.80665,-0.60535 1.69564,-1.12734 2.30625,-1.98476 0.58206,-0.82227 1.19392,-1.64929 1.70983,-2.50162 0.86711,-1.44426 1.73149,-2.88535 2.51662,-4.35509 0.4693,-0.96695 0.83246,-1.93728 1.21767,-2.91426 0.49241,-1.37014 0.81194,-2.7546 0.99697,-4.09689 0.0928,-0.92196 0.1641,-1.83872 0.14655,-2.72839 -0.0208,-0.85682 0.0179,-1.74465 -0.0485,-2.58381 -0.1209,-1.20012 -0.1798,-2.41331 -0.33795,-3.59744 -0.30701,-2.58956 -0.65813,-5.17027 -1.02244,-7.73364 -0.12373,-0.62296 -0.16997,-1.32581 -0.61755,-1.7264 -0.4526,-0.51913 -1.22194,-0.61941 -1.91069,-0.78904 -1.02557,-0.20426 -2.13014,-0.25338 -3.22089,-0.29887 -1.73154,-0.0612 -3.46618,-0.0926 -5.24126,-0.0204 -0.49537,0.0479 -1.05434,0.0921 -1.56641,0.34729 z"
         id="path3107"
         inkscape:connector-curvature="0" />
      <path
         style="fill:#d4aa00;fill-opacity:1"
         d="m 574.61853,624.75103 c -1.13627,0.60617 -1.47356,1.92163 -1.4077,2.78092 -0.32641,7.24333 0.17615,14.19425 0.68696,21.12424 0.0813,0.87395 0.034,1.82178 -0.45519,2.81239 -0.2493,0.44509 -0.49405,2.08662 0.1464,0.95135 1.09555,-1.13156 2.08583,-2.35037 3.15783,-3.50463 1.69189,-1.94572 3.13117,-4.12479 3.71831,-6.30317 0.98038,-3.22748 0.59418,-6.13033 0.78369,-9.15816 0.10001,-3.34363 0.26267,-8.05517 0.10724,-11.30867 -0.25101,-0.75639 -0.76007,-1.00243 -1.6975,-0.50291 -1.47768,0.49044 -3.56417,2.50167 -5.04005,3.10864 z"
         id="path3109"
         inkscape:connector-curvature="0"
         sodipodi:nodetypes="ccccccccccc" />
      <path
         inkscape:connector-curvature="0"
         id="path3111"
         d="m 563.58815,627.26184 c -0.57089,0.26543 -0.83564,0.93105 -0.89142,1.52142 -0.0687,0.83973 0.0478,1.67041 0.0249,2.51121 0.0298,2.48603 0.18825,4.95566 0.25215,7.437 0.0481,3.54803 -0.0593,7.11048 -0.0901,10.66583 -0.005,1.17379 0.0138,2.39211 0.45784,3.44832 0.50635,0.97439 1.57188,1.59529 2.69188,1.47324 0.86125,-0.0268 1.72816,-0.0377 2.5761,0.0406 0.11251,-0.0199 0.44961,-0.22761 0.18984,0.0391 -0.21766,0.43693 0.51676,-0.0724 0.71212,0.0117 0.72066,-0.0548 1.6128,0.51955 2.21088,-0.21268 0.54539,-0.82059 -0.0265,-1.66239 -0.10027,-2.47958 -0.36336,-1.97203 -0.2799,-4.03284 -0.35607,-6.05687 -0.0958,-3.40815 -0.34451,-6.79496 -0.52363,-10.19117 -0.12878,-2.16227 -0.26185,-4.32385 -0.39228,-6.48582 -0.13324,-0.81202 -0.66591,-1.5441 -1.46545,-1.70401 -1.44145,-0.30948 -2.96274,-0.10538 -4.44328,-0.15551 -0.28427,0.0356 -0.57788,0.015 -0.85314,0.13707 z"
         style="fill:#d4aa00;fill-opacity:1" />
      <path
         style="fill:#d4aa00;fill-opacity:1"
         d="m 571.05862,621.46366 c 0.51712,-0.26276 2.07554,-0.55178 2.6086,-0.61609 0.47573,-0.0575 3.59449,0.18614 4.07954,0.0284 0.30711,-0.0689 0.66479,-0.24529 0.93848,-0.23493 -0.40825,0.34857 -0.889,0.57032 -1.33232,0.8495 -1.47368,0.85021 -4.2497,2.11794 -5.7284,2.95138 0.2937,-0.13934 -0.34341,0.19755 -0.44259,0.25562 -0.97058,0.52994 -0.6317,0.67931 -1.61644,1.15324 -0.1053,0.0354 0.29069,-0.28397 -0.0263,-0.18323 -0.57559,0.14852 -5.29858,0.033 -5.84568,0.0421 0.71178,-0.50615 2.69492,-1.80466 3.43479,-2.24017 1.54708,-0.87119 2.38088,-1.14423 3.93035,-2.00538 z"
         id="path3113"
         inkscape:connector-curvature="0"
         sodipodi:nodetypes="cccccccccccc" />
      <path
         style="fill:#000000;fill-opacity:1"
         d="m 570.06393,616.37581 c -0.74234,0.63268 -1.2544,1.47718 -1.7179,2.28982 -0.26627,0.84412 -0.28506,1.66165 -0.29908,2.45607 0.002,0.74681 -0.16585,1.57519 0.15026,2.18287 0.26843,0.67352 1.06991,0.86294 1.87967,0.63353 0.87133,-0.22353 1.71971,-0.85779 2.44873,-1.53677 0.49393,-0.56627 1.32772,-1.11269 1.40912,-1.84008 0.0459,-0.38958 -0.73953,-0.10877 -0.32541,-0.64212 0.14972,-0.24768 -0.32574,0.29122 -0.32497,0.0261 -0.0476,-1.08821 -0.10015,-2.17455 -0.14961,-3.2621 -0.13696,-0.78817 -1.05993,-0.86243 -1.83294,-0.72264 -0.4087,0.0464 -0.82559,0.23553 -1.23784,0.41535 z m 3.71214,3.31383 c 0.0905,-0.0216 0.33616,-0.40418 0.0798,-0.0893 l -0.0798,0.0893 z m -0.6841,0.47077 c 0.10221,0.12295 -0.1824,0.0299 0,0 z"
         id="path3115"
         inkscape:connector-curvature="0" />
      <path
         sodipodi:nodetypes="cccccccccccccccccccc"
         inkscape:connector-curvature="0"
         id="path3181"
         d="m 649.28125,677.90625 c -3.90269,1.73739 -10.38573,-0.45275 -14.22031,1.43516 -1.30214,1.17393 1.24917,6.82938 1.25156,8.43984 -0.14596,7.36369 -0.1331,14.72924 -0.21875,22.09375 0.26949,8.30317 0.45781,16.62727 1.47491,24.88062 0.41089,2.22725 0.95836,4.58842 2.52509,6.30688 1.67219,1.36184 3.92312,1.38461 5.90747,1.97504 2.91218,0.74369 5.87018,1.28606 8.81128,1.89996 0.16592,-0.97148 -0.8711,-1.38571 -1.6721,-1.4098 -2.53996,-0.44343 -5.11019,-0.88231 -7.47848,-1.94816 -1.90451,-0.68772 -3.60109,-2.02505 -4.50124,-3.86404 -1.32601,-2.17872 -1.69433,-4.75928 -1.84025,-7.2612 -0.59835,-5.49627 -0.93233,-11.0165 -1.14274,-16.53997 -0.23617,-4.71676 -0.35077,-9.43817 -0.36274,-14.16073 -0.0155,-3.12098 -0.11772,-6.25917 0.24207,-9.36474 0.13887,-1.14533 0.48126,-2.32973 1.38051,-3.11597 1.44325,-1.49009 3.29909,-2.48914 4.99521,-3.6578 1.81579,-1.18076 3.65668,-2.33172 5.44226,-3.55259 0.8434,-0.53162 0.69198,-2.15861 -0.40156,-2.1875 -0.065,-5.2e-4 -0.12811,0.021 -0.19219,0.0312 z"
         style="fill:#000000" />
      <path
         sodipodi:nodetypes="ccccccccccccccccc"
         inkscape:connector-curvature="0"
         id="path3117"
         d="m 501.69539,677.38709 c 1.79912,-2.39555 1.42899,-10.61985 2.78088,-13.07325 8.06149,-17.14405 16.40256,-30.32953 24.84054,-47.43632 1.18602,-1.91717 3.38305,-3.13754 7.14356,-4.24205 2.83587,-0.91732 6.93682,-0.36403 10.05746,-0.7812 11.04425,-1.04067 21.89812,0.10421 32.86292,0.0244 20.72072,0.3571 41.41446,0.88074 62.13736,1.1993 3.66666,-0.19607 7.54178,-0.42013 10.95081,-1.27796 2.43107,-1.53954 -1.31157,-3.43198 -4.38749,-2.51885 -9.65266,0.39225 -19.14459,-0.32742 -28.70515,-0.50905 -27.57353,-0.59839 -55.29383,-1.35325 -83.13387,0.44124 -6.19842,0.61059 -10.44828,3.75961 -11.87051,6.81055 -5.8674,10.81171 -11.88059,21.6139 -17.05462,32.49986 -3.86583,7.74876 -7.09481,15.56047 -10.77162,23.32108 0.2314,1.36099 -2.40542,3.95896 0.85474,4.29372 1.41903,0.41401 2.47519,1.2807 4.29497,1.24857 z"
         style="fill:#000000" />
      <path
         id="path3166"
         d="m 649.9375,675.4375 c -0.14836,-0.006 -0.28998,0.009 -0.4375,0.0312 -7.84024,1.62132 -15.72439,3.03185 -23.53125,4.8125 -2.81533,3.28408 -2.44043,7.87157 -2.5625,11.90625 -0.19587,17.5492 -0.1881,35.14642 1.59375,52.625 -0.65398,2.00612 3.42637,1.89142 2.59375,-0.125 -1.44866,-9.71591 -2.09678,-19.63377 -0.8125,-29.40625 0.0805,-9.82841 -1.65716,-19.72181 -0.0312,-29.5 0.45413,-2.16244 2.73174,-3.47681 4.84375,-3.125 1.29305,0.16993 2.5781,-0.0687 3.65625,-0.8125 1.45217,-0.98502 3.20838,-0.89272 4.6875,-0.0937 2.8004,0.68607 5.46906,-0.83269 8.21875,-1 0.53031,-0.0219 0.99362,0.13751 1.40625,0.375 -0.009,0.0144 -0.0219,0.0154 -0.0312,0.0312 -0.6677,2.70496 0.0577,5.54728 -0.125,8.3125 0.04,16.89991 -0.0517,33.83863 1.3125,50.6875 -0.0313,1.47162 -1.00927,4.07993 0.90625,4.53125 2.0313,0.32072 1.92729,-2.65843 1.71875,-4.15625 -0.92464,-6.82681 -1.17178,-13.75915 -1.1875,-20.65625 -0.004,-3.72525 0.45644,-7.39431 0.71875,-11.09375 -0.007,-6.9363 -1.00416,-13.87265 -0.6875,-20.8125 -0.14975,-0.7758 -0.0784,-1.56804 -0.0312,-2.375 0.17524,-0.0675 0.38745,-0.24381 0.65625,-0.59375 0.4728,-0.78225 -0.93703,-1.82734 -0.28125,-2.90625 0.34146,-2.09468 0.42812,-4.71209 -1.34375,-6.21875 -0.35999,-0.27272 -0.80491,-0.42076 -1.25,-0.4375 z M 645.34375,697.5 c -0.17921,0.047 0.19448,0.41443 0.125,0 -0.0505,-0.01 -0.0994,-0.007 -0.125,0 z"
         style="fill:#000000"
         inkscape:connector-curvature="0" />
      <path
         id="path3157"
         d="M 667.09375,673.09375 667.125,673 l -0.0312,0.0937 z"
         style="fill:#000000"
         inkscape:connector-curvature="0" />
      <path
         inkscape:connector-curvature="0"
         id="path3801"
         d="m 536.16624,685.6976 c -0.57138,0.0802 -1.13143,0.43649 -1.56481,0.80698 -1.02809,0.96255 -0.81827,2.51965 -0.79223,3.82649 0.0798,3.73593 0.0608,9.6282 0.35704,13.40006 -0.0679,0.0643 -0.10884,0.16783 -0.13298,0.34799 0.21812,5.32527 0.5615,9.6412 0.95052,14.95942 0.17218,1.84548 0.15528,3.71007 0.51587,5.53235 0.24004,1.33133 1.2802,2.36656 2.54148,2.599 5.92603,1.03887 11.91003,1.57606 17.87429,2.23633 2.26952,0.14527 4.53265,0.45708 6.8045,0.51788 3.06371,0.17571 6.19346,-0.0905 9.02982,-1.31611 1.14981,-0.62088 2.03903,-1.77739 2.31501,-3.12078 0.1811,-4.29338 0.21613,-8.61463 0.26146,-12.91437 -0.12425,-6.18195 -1.17979,-12.30706 -1.96766,-18.4349 -0.58792,-1.83207 -2.2089,-3.16763 -3.96633,-3.60481 -10.55063,-1.64316 -21.10596,-3.24708 -31.66598,-4.81049 -0.19377,-0.0348 -0.36954,-0.0519 -0.55998,-0.0244 z"
         style="fill:#000000" />
      <path
         inkscape:connector-curvature="0"
         id="path3799"
         d="m 537.68488,688.73748 c 0.48783,-0.1358 0.99443,-0.12335 1.49032,0.002 3.21316,0.54561 6.45037,0.96314 9.64957,1.62107 1.29262,0.12051 2.19898,1.40748 2.39588,2.67317 -0.0244,2.01595 -0.0349,4.00856 -0.0575,6.02455 0.0604,2.33056 -0.33263,4.67258 0.0244,6.99374 -0.42849,1.00037 -0.009,-0.24988 -0.39894,1.04389 -0.70207,0.54875 -1.66011,-0.57702 -2.45311,-0.68229 -1.93761,-0.88447 -4.04222,-1.02015 -6.09631,-1.31894 -1.28247,-0.33513 -2.57607,-0.67891 -3.90477,-0.65357 -0.98988,0.0188 -2.01732,0.0698 -2.92497,-0.41195 -0.002,-2.72317 -0.28036,-7.22989 -0.26122,-9.70558 0.35131,-1.26943 0.20773,-2.66677 0.71493,-3.88721 0.27115,-0.88353 1.00869,-1.47226 1.82175,-1.69851 z"
         style="fill:#eece4c;fill-opacity:1" />
      <path
         inkscape:connector-curvature="0"
         id="path3797"
         d="m 555.12416,691.23542 c 0.16815,-0.0543 0.3396,-0.0661 0.51773,-0.0837 l 0.22111,-0.0524 c 2.32601,0.16324 4.66546,0.2615 6.98876,0.47406 1.34019,0.25161 2.71003,0.20099 4.01533,0.62728 1.42183,0.50322 2.23651,2.06356 2.36185,3.55124 0.33086,2.94803 0.68191,5.9001 0.63232,8.86602 0.0527,1.31913 -0.6483,2.77548 -1.94469,3.07228 -3.15037,0.005 -6.31223,-0.0149 -9.46147,0.0346 -1.86713,-0.0393 -3.71928,0.0921 -5.58374,0.10147 -1.49402,0.15662 -1.25512,-1.93432 -0.7249,-2.79356 0.30489,-1.39239 0.27765,-2.85237 0.39846,-4.28654 0.15124,-2.19232 0.23341,-4.40511 0.44127,-6.59033 0.0686,-1.29993 0.96087,-2.54075 2.13797,-2.92047 z"
         style="fill:#eece4c;fill-opacity:1" />
      <path
         inkscape:connector-curvature="0"
         id="path3795"
         d="m 537.14917,707.01611 c 0.24993,-0.0867 0.50517,-0.12013 0.7775,-0.10572 l 0.0368,-0.01 0.22472,0.0257 c 2.17662,0.31316 4.38818,0.13911 6.54833,0.61832 1.7075,0.64867 3.35992,1.51779 4.98996,2.37288 0.27337,0.0906 0.58882,0.30053 0.91692,0.49383 -0.151,0.62234 -0.08,1.82464 0.24504,3.69854 -0.11387,3.07313 -0.26264,6.16672 0.0535,9.24089 0.50103,0.60123 0.26019,2.54377 -0.74222,1.67916 l -5.74557,-0.17643 c -2.27126,-0.13597 -4.58482,0.0619 -6.83594,-0.39177 -1.20841,-0.33302 -1.86794,-1.68211 -1.95906,-2.89563 0.0497,-2.96027 0.0696,-5.91684 -0.0741,-8.88006 0.0317,-1.29242 -0.30503,-2.65959 0.006,-3.91635 0.20507,-0.81148 0.80859,-1.49458 1.55837,-1.75452 z"
         style="fill:#eece4c;fill-opacity:1" />
      <path
         inkscape:connector-curvature="0"
         id="path3793"
         d="m 551.99797,709.89259 c -0.0244,0.14953 -0.0829,0.42903 -0.12397,0.54355 -0.0135,-0.0134 -0.0254,-0.0175 -0.0386,-0.0303 0.0412,-0.096 0.0727,-0.22813 0.0943,-0.37834 0.0256,-0.0915 0.054,-0.0921 0.0683,-0.13486 z"
         style="fill:#000000" />
      <path
         inkscape:connector-curvature="0"
         id="path3789"
         d="m 552.11573,710.02277 0.11236,0.0119 0.22291,-0.0139 c 1.75871,-0.0811 3.49937,0.10257 5.26109,0.17283 3.62004,0.16334 8.09286,-0.70213 11.63316,0.20047 1.19322,0.21897 1.29101,2.54417 1.69851,3.70894 0.39458,1.71808 0.44713,3.50192 0.35403,5.25444 -0.16664,1.5981 -0.32562,3.39477 -1.54268,4.519 -0.88547,1.12362 -2.38007,0.98137 -3.63574,1.14109 -2.45591,0.27241 -4.93776,0.30711 -7.3841,0.64806 -1.19791,0.12578 -1.78831,0.22924 -4.01611,0.16379 -1.9553,0.003 -2.07196,-0.49607 -2.07196,-0.49607 0.0297,-1.87894 -0.0906,-3.74987 -0.11049,-5.6287 -0.25875,-2.12899 -0.27271,-4.28192 -0.48184,-6.41042 -0.24613,-1.06376 -0.59099,-2.26707 -0.0391,-3.27298 z"
         style="fill:#eece4c;fill-opacity:1" />
    </g>
  </g>
</svg>
