<?xml version="1.0"?>
<svg xmlns:rdf="http://www.w3.org/1999/02/22-rdf-syntax-ns#" xmlns="http://www.w3.org/2000/svg" xmlns:cc="http://web.resource.org/cc/" xmlns:xlink="http://www.w3.org/1999/xlink" xmlns:dc="http://purl.org/dc/elements/1.1/" xmlns:svg="http://www.w3.org/2000/svg" id="svg2" viewBox="0 0 744.09 1052.4">
  <defs id="defs3">
    <linearGradient id="linearGradient4659" y2="565.79" gradientUnits="userSpaceOnUse" x2="388.06" y1="565.79" x1="313.61">
      <stop id="stop4655" stop-color="#e6e6e6" offset="0"/>
      <stop id="stop4657" stop-color="#e6e6e6" stop-opacity="0" offset="1"/>
    </linearGradient>
  </defs>
  <g id="layer1">
    <g id="g4679" stroke="#000">
      <path id="rect1875" d="m327.65 292.16h46.37c7.5 0 13.54 9.99 13.54 22.41v414.21c0 12.41-27.36 110.61-34.86 110.61l0.23 0.04c-7.5 0-38.82-98.24-38.82-110.65v-414.21c0-12.42 6.04-22.41 13.54-22.41z" fill="#ac9393"/>
      <path id="path3766" opacity=".77103" d="m327.65 292.16h46.37c7.5 0 13.54 9.99 13.54 22.41v414.21c0 12.41-27.36 110.61-34.86 110.61l0.23 0.04c-7.5 0-38.82-98.24-38.82-110.65v-414.21c0-12.42 6.04-22.41 13.54-22.41z" fill="url(#linearGradient4659)"/>
      <g id="g4661" transform="translate(2.0395 -16.316)">
        <path id="path1871" d="m442.56 291.64a133.58 71.381 0 1 1 -267.17 0 133.58 71.381 0 1 1 267.17 0z" fill="#ac9393" transform="translate(38.592 4.079)"/>
        <path id="path1880" d="m225.52 266.24l82.49 96.93v-0.52" stroke-width="1.0144px" fill="none"/>
        <path id="path1882" d="m248.3 248.36l98.41 118.24" stroke-width=".9955px" fill="none"/>
        <path id="path1884" d="m275.58 235.57l113.56 128.01" stroke-width="1.0221px" fill="none"/>
        <path id="path1886" d="m214.66 291.65l55.47 62.25" stroke-width="1.0218px" fill="none"/>
        <path id="path1888" d="m313.06 226.74l111.93 127.46" stroke-width="1.0081px" fill="none"/>
        <path id="path1890" d="m354.78 224.76l101.52 111.96" stroke-width="1.0021px" fill="none"/>
        <path id="path1892" d="m395.66 229.44l79.74 86.16" stroke-width="1.0045px" fill="none"/>
        <path id="path1894" d="m440.47 245.1l38.8 40.42" stroke-width="1.0095px" fill="none"/>
        <path id="path1896" d="m216.67 309.16l48.91-69.16" stroke-width="1.0688px" fill="none"/>
        <path id="path1898" d="m232.95 332.28l65.32-102.84" stroke-width="1.01px" fill="none"/>
        <path id="path1900" d="m260.87 349.74l81.17-124.9" stroke-width="1.0523px" fill="none"/>
        <path id="path1902" d="m292.16 360.46l90.86-133.17" stroke-width="1.0202px" fill="none"/>
        <path id="path1904" d="m330.47 366.37l94.42-128.65" stroke-width="1.0244px" fill="none"/>
        <path id="path1906" d="m367.2 366.28l84.95-115.18" stroke-width="1.0284px" fill="none"/>
        <path id="path1908" d="m412.08 358.12l63.01-83.92" stroke-width="1.0411px" fill="none"/>
      </g>
    </g>
  </g>
  <metadata>
    <rdf:RDF>
      <cc:Work>
        <dc:format>image/svg+xml</dc:format>
        <dc:type rdf:resource="http://purl.org/dc/dcmitype/StillImage"/>
        <cc:license rdf:resource="http://creativecommons.org/licenses/publicdomain/"/>
        <dc:publisher>
          <cc:Agent rdf:about="http://openclipart.org/">
            <dc:title>Openclipart</dc:title>
          </cc:Agent>
        </dc:publisher>
        <dc:title>Nail</dc:title>
        <dc:date>2006-12-30T14:54:14</dc:date>
        <dc:description>A simple steel nail</dc:description>
        <dc:source>http://openclipart.org/detail/2516/nail-by-machovka</dc:source>
        <dc:creator>
          <cc:Agent>
            <dc:title>Machovka</dc:title>
          </cc:Agent>
        </dc:creator>
        <dc:subject>
          <rdf:Bag>
            <rdf:li>clip art</rdf:li>
            <rdf:li>clipart</rdf:li>
            <rdf:li>metal</rdf:li>
            <rdf:li>nail</rdf:li>
            <rdf:li>remix problem</rdf:li>
            <rdf:li>tool</rdf:li>
            <rdf:li>work</rdf:li>
          </rdf:Bag>
        </dc:subject>
      </cc:Work>
      <cc:License rdf:about="http://creativecommons.org/licenses/publicdomain/">
        <cc:permits rdf:resource="http://creativecommons.org/ns#Reproduction"/>
        <cc:permits rdf:resource="http://creativecommons.org/ns#Distribution"/>
        <cc:permits rdf:resource="http://creativecommons.org/ns#DerivativeWorks"/>
      </cc:License>
    </rdf:RDF>
  </metadata>
</svg>
