<?xml version="1.0" encoding="UTF-8" standalone="no"?>
<svg id="svg2" xmlns:rdf="http://www.w3.org/1999/02/22-rdf-syntax-ns#" xmlns="http://www.w3.org/2000/svg" height="1028pt" width="943pt" version="1.1" xmlns:cc="http://creativecommons.org/ns#" xmlns:dc="http://purl.org/dc/elements/1.1/" viewBox="0 0 943 1028">
<g>
<path id="path4" d="m517.73 0h30.53c36.13 5.18 71.03 26.07 86.74 60 2.91-8.04 3.07-25.17 16.46-21.59 25.6 9.14 51.07 18.83 76.45 28.62 8.04 1.33 8.86 11.51 3.8 16.59-24.4 33.24-47.08 67.76-70.92 101.37 32-2.29 64.09-3.22 96.12-5.3 7.47 0.1 16.44-3.12 22.34 3.19 16.16 12.62 34.44 22.43 49.76 36.14-19.16-11.63-36.36-26.5-55.91-37.41-38.11 0.49-76.21 5.65-114.36 7.22-3.74 1.59-6.77 5.53-7.53 9.65 26.88-2.46 53.85-4.31 80.82-5.56-24.88 2.83-51.41 3.99-76.95 6.09-9.51 0.36-14.87 9.85-21.16 15.69 52.29-0.84 104.59-3.3 156.87-3.25-4.33-5.79 0.54-2.83 3.59 0.06-56.23 4.69-112.63 8.34-168.89 12.85-8.4 2.62-14.63 9.66-21.99 14.22 69.78-3.59 139.64-7.88 209.44-11.66-77.39 10.66-158.68 13.18-236.32 25.61 92.39-1.83 184.71-9.16 276.94-14.37 11.6 5.18 21.96 13.01 33.24 18.95 4.78 3.34 12.7 5.26 11.61 12.71 15.72 209.91 37.45 419.52 44.59 629.95v40.85c-8.34-105.74-15.89-211.55-26.52-317.1-11.1-115.91-26.02-231.51-37.5-347.31-9.66-6.69-20.55-12.83-31.42-17.69-112.45 8.79-225.29 13.24-337.92 17.98 2.64 4.25 4.21 12.55 10.77 10.56 109.07-6.65 218.28-13.04 327.18-21.51 8.26 4.78 17.21 8.73 24.87 14.43 11.69 123.96 23.58 247.98 33.6 372.09-14.89-122.2-26.88-245.21-39.1-367.8-8.45-6.54-18.93-14.04-30.47-12-105.4 9.95-211.17 17.94-316.61 25.94 9.57 212.75 34.46 424.54 42.03 637.43 35.67-1.46 71.35-3.5 107.03-4.7-35.79 3.57-74.03 6.23-110.81 8.84-13.61-214.08-34.4-427.66-48.26-641.69-4.25 0.17-8.53 0.32-12.7 1.18 7.13 221.96 14.07 444.13 33.98 665.39-0.31 7.36 7.43 5.34 12.61 5.21 126.31-11.5 254.37-22.95 380.25-24.15-129.89 17.02-259.76 34.39-390.05 48.06-12.48 0.11-24.29-9.66-27.16-21.67-2.47-16.93-3.58-34.03-4.97-51.07-4.18 15.18 3.69 35.68-1.05 50.85-11.46 2.33-8.11 1.1-0.06-1.56-11.75-201.07-31.28-401.59-53.27-601.78-3.28-27.01-3.15-54.59-9.95-81.06-114.25 9.04-228.92 14.6-343.51 18.89-28.5-4.16-45.69 24.35-65.72 39.51 7.2 216 15.84 432.15 35.19 647.48-0.16 5.38 1.94 11.93 8.54 10.33 137.38-12.83 274.96-24.01 412.93-27.9-136.64 20.24-276.29 36-414.33 52.2h-5.41c-13.31-2.3-25.53-12.8-26.51-26.8-22.49-215.01-24.5-431.43-31.82-647.31 0.73-7.36-1.76-16.87 4.98-22.19 15.67-13.58 31.68-26.78 47.44-40.26 7.62-7.25 19.36-3.72 28.76-5.35 98.11-2.83 196.04-9.33 293.94-16.1-29.56-6.66-61.63 0.29-92.1 1.09 11.72-2.46 24.35-2.64 36.37-4.64-84.35 2.59-168.62 10.76-253.01 13.7-5.89 0.39-12.29 1.05-16.65 5.55-15.83 13.76-31.89 27.26-47.8 40.93-7.03 5.32-8.2 14.56-8.79 22.71v-11.46c3.08-11.7 14.01-17.84 22.1-25.76 18.03-13.93 32.13-38.15 57.92-35.85 8.24 2.58 3.64-6.55 7.72-9.6 15.04-14.28 30.86-27.75 46.29-41.62 5.19-5.54 13.51-3.41 20.14-4.75-0.39-7.47-23.65-3.48-8.46-5.8-14.45-10.23-30.61-17.84-44.94-28.23-6.6-5.41-5.89-14.91-2.56-21.98 12.55-29.86 24.7-59.89 37.16-89.79 4.43-8.88 17.27-12.71 25.39-6.53 25.08 22.27 46.49 48.35 71.2 71.03-9.16-29.03-6.63-63.17 12.02-88 22.13-29.35 61.32-43.44 97.3-37.52-4.05 1.71-13.11-1.09-14.89 1.35 42.57-0.01 76.84 31.4 99.86 64.3 14.55-39.57 48.12-74.1 91.48-79.12m5.87 6.53c-7.88 1.48-18.23 1.02-24.42 5.66 49.91-15.69 113.12 8.27 131.3 59.45 2.95 0.85 0.91-3.16 0.69-4.66-16.02-42.24-64.27-64.86-107.57-60.45m-27.09 5.85c-32.58 11.5-54.07 42.18-65 73.69-0.01 1.77 3.01 7.17 3.65 2.95 8.97-30.56 26.86-61.67 57.93-73.8 1.13 0.22 7.05-4.13 3.42-2.84m-177.07 10.02c-28.53 1.28-59.18 13.6-72.51 40.52-9.91 20.57-13.43 47.65-3.91 68.31-4.91-18.9-4.46-39.41 2.47-57.74 15-35.67 56.24-53.86 93.42-49.34-3.9-3.51-13.91-1.08-19.47-1.75m208.16 2.14c-44.88 0.6-75.73 43.17-82.5 84.15 1.6 4.39 3.88 8.5 6.16 12.57 6.58-25.62 13.36-53 32.52-72.48 26.11-24.61 68.69-21.71 97.24-2.8 28.57 16.91 41.23 57.9 23.96 86.98-12.12 20.43-30.1 37.35-49.92 50.14 23.39-20.16 52.81-41.74 55.6-75.33-0.97-10.12-0.73-22.38-6.82-30.72 6.43 16.52 5.4 35.43-4.23 50.56-19.04 31.04-46.24 56.6-73.57 79.37 14.04-3.1 21.42-17.06 34.37-22.55 28.36-20.38 60.31-49.93 56.58-88.18 3.29 1.5-1.47 12.16 1.91 13.6 8.5-50.72-43.66-91.24-91.3-85.31m-24.36 15.46c-5.44 2.83 4.67 1.85 0 0m-190.55 2.4c-6.74 1.59-12.68 5.95-16.66 11.57 16.54-5.07 33.89-13.35 51.3-5.36 31.35 15.8 52.28 45.94 66.05 77.39 5.42-8.71 0.12-26.67-9.16-26.34-20.47-30.78-49.88-65.58-91.53-57.26m-12.2 3.02c-45.83 12.42-58.46 80.94-17.73 106.85-20.15-24.55-28.54-65.03-3.48-89.05 6.83-4.32 21.08-12.54 21.21-17.8m346.93 0.79c-1.61 4.03-2.73 8.25-3.46 12.52 3.32-0.55 4.67-4.02 3.81-7 5.56-3.77 11.27 2.31 16.99-0.24-5.78-1.66-11.22-5.37-17.34-5.28m3.74 5.78c-3.19 3.69 4.64 0.69 0 0m-118.76 9.62c-19.54-2.75-32.66 12.65-37.12 29.67-6.28 21.63-20.36 40.93-22.43 63.61 4.32-2.52 9.76-4.96 10.69-10.37 7.52-20.77 13.36-42.45 24.03-61.89 4.1-10.53 18.11-15.18 27.13-10.73-6.4 0.51-14.31 0.63-18.46 6.45-12.21 18.02-16.41 39.82-21.16 60.68 13.67-7.17 25.66-17.27 39.05-24.93-12.19 13.56-27.15 24.42-41.24 35.87-1.55 2.82-1.98 6.1-2.64 9.21 27.98-20.29 51.97-46.08 72.79-73.35 6.29 12.17-3.69 24.35-10.72 33.51-19.93 22.6-43.11 42.33-67.05 60.43-0.7 2.59-1.05 5.29-1.27 7.96 40.08-15.9 66.53-52.85 95-82.26 0.06 15.76 6.49-10.05 2.49-14.77-1.93 2.97-1.49 9.85-4.56 11.12 7.18-25.45-22.4-42.87-44.53-40.21m126.33 3.72c-7.89 2.44-6.48 13.35-10.07 19.27-9.22 37.36-19.15 78.82-50.35 104.73-12.73 7.81-23.41 18.19-34.4 28.18 9.78 1 17.37-9.07 25.49-13.1 43.17-29.2 58.44-82.7 71.95-129.8 5.15 1.03 17.25 9.12 23.39 3.85 0.17 8.55 18.7 4.37 11.04 13.31-5.93 4.21 3.35 14.96-6.38 11.48-16.18 23.32-34.35 45.96-44.19 73.03 21.57-29.45 43.02-59.29 63.75-89.43 2.98-4.59-2.89-9.04-7.07-9.79-14.43-3.47-28.39-11.06-43.16-11.73m-510.04 5.08c-3.78 0.57-7.41 2.93-8.83 6.59-13.43 30.97-26.66 62.04-39.93 93.08-3.4 7.77 3.02 15.28 9.84 18.2 14.69 8.02 27.53 19.69 43.05 25.91-16.72-11.72-37.57-21.22-47.81-39.22 8.28-23.15 19.54-45.34 28.8-68.18 0.4-1.7-1.11-3.21-1.57-4.8 11.27-3.75 7.21-23.54 19.65-25.86 33.52 22.22 51.24 63.35 88.19 82.73-1.04-3.06-2.4-6.02-4.14-8.73-27.74-23.88-50.82-52.64-77.34-77.83-2.72-2.3-6.53-2.72-9.91-1.89m569.37 0.62c1.81 4.32 3.53 8.69 5.7 12.85 6.37-6.48 3.1-12.62-5.7-12.85m-400.52 4.3c-13.23 1.94-7.19 24.06-5.22 33.27 14.58 44.42 60.73 63.21 98.73 83.29-0.91-3.23-1.69-6.59-3.49-9.45-24.7-13.35-47.44-30.07-68.98-48.02-15.89-13.56-29.29-35.38-21.37-56.84 1.96 19.1 15.75 33.62 29.13 46.08 16.77 14.89 34.82 28.76 54.63 39.27-11.98-16.85-34.51-25.39-48.39-41.51-10.84-12.02-28.77-24.97-25.06-43.32 9.27-3.93-7.16-3.3-9.98-2.77m95.47-0.42c3.31 4.99 5.7 10.81 10.13 14.97-1.85-5.91-5.82-10.7-10.13-14.97m-76.85 12.11c12.09 26.06 37.8 43.09 56.7 64.14-16.9-22.41-30.56-51.61-56.7-64.14m17.74 3.05c16.64 18.39 30.04 39.42 42.09 60.91-10.36-22.24-23.1-45.19-42.09-60.91m74.07 5.98c-1.53 3.07 0.52 7.01 3.08 8.68 1.4-3.3-0.45-6.66-3.08-8.68m270.59 10.49c-20.58 28.97-43.15 57.07-61.67 87.37 22.65-26.79 44.04-60.07 61.67-87.37m-543.16 1.95c-2.02 2.36-3.67 9.77 1.49 6.45 5.03-0.53 1.51-7.25-1.49-6.45m3.06 6.94c-6.98 5.33 5.32 1.46 0 0m6.64 3.46c2.83 4.56 5.04 12.67 11.48 12.06-0.66-5.54-7.49-8.74-11.48-12.06m-14.89 2.26c-5.99 11.16-9.15 23.59-15.1 34.77 8.91 5.94 10.86-13.14 15.42-18.13-0.15-6.14-4.98-2.07-6.51 1.32-0.12-5.78 10.85-13.99 6.19-17.96m292.22 1.36c-2.78 4.25-0.57 20.49 4.73 10.57-0.63 3.31-2.72 6.67-1.16 10.05 7.04-5.8-1.13-17.37-3.57-20.62m-21.02 0.9c-0.96 6.84-5.31 17.6 2.67 21.58 2.63-6.99 2.44-18.14-2.67-21.58m-268.23 0.24c-11.01 12.22 6.45 8.32 0 0m25.86 8.37c-1.11 1.72-2.75 4.04-1.07 5.96 19.07 25.11 45.25 46.57 76.69 53.23-28.86-13.01-55.52-34.07-75.62-59.19m60.15 10.62c-1.55 5.16 4.68 1.2 0 0m47.45 4.64c8.84 11.97 24.89 16.41 32.84 29.23 9.22 8.19 21.79 10.24 33.47 12.63-21.85-13.53-45.98-25.33-66.31-41.86m-121.61 9.64c-12.18 14.6 16.29 17.95 23.96 25.1-8.82-7.56-16.11-16.62-23.96-25.1m81.08-0.06c1.24 5.56 6.47 7.99 11.72 8.29-2.17-4.48-7.73-5.84-11.72-8.29m232.33 4.45c-4.21 1.28-7.05 5.59-5.35 10.08 4.27 2 6.68-9.36 5.35-10.08m140.09 0.25c-7.54 9.99-15.68 19.53-24.45 28.54 9.53-6.54 21.72-19.96 24.45-28.54m-486.39 1.69c-4.36 10.11 9.29 2.76 0 0m306-0.14c-1.23 3.68-1.38 7.62-1.32 11.47 7.49 2.11 5.81-10.95 1.32-11.47m140.47 9.48c-7.76 6.26-16.06 11.99-23.61 18.4 10.33-1.15 18.97-13.34 23.61-18.4m-144.57 4.48c1.31 12.58 11.35 0.01 0 0m39.36 8.86c-8.96 7.64 10.88 6.54 0 0m-164.22 1.22c-3.14 3.87 2.19 7.09 5.76 6.57 2.05-5-2.1-6.41-5.76-6.57m11.82 4.15c-4.5 11.13 13.71 7.62 19.98 10.82-5.98-4.63-13.15-7.64-19.98-10.82m313.32 2.16c-6.64 8.09-15.05 14.98-22.1 22.68 7.92-4.38 23.1-16.14 22.1-22.68m-87.94 3.01c-9.8 4.78 3.85 2.58 0 0m-259.69 2.72c5.37 3.11 18.3 9.19 23.46 1.74-7.41-2.96-15.77 0.01-23.46-1.74m261.28 1.13c-15.26 4.56 1.68 7.75 0 0m-183.1 0.73c12.31 8.37 26.28 14.21 41.13 15.99-12.11-8.66-26.31-14.24-41.13-15.99m-182.36 2.35c6.87 6.32 19.11 8.57 20.97 19.03-1.96 5.01 9.69 9.53 7.63 2.75 1.27-16.14-18.3-15.65-28.6-21.78m132.64 0.63c-5.62 4.9 6.17 4.98 9.58 6.09-1.28-3.45-6.62-4.2-9.58-6.09m222.51 1.48c-7.61 3.5-20.85 5.25-26.47 13.43 10.28-2.43 20.42-6.15 29.73-11.2-0.5-1.3-1.61-3.48-3.26-2.23m-193.18 4.58c3.64 3.49 9.16 3.21 13.78 3.97-4.13-2.49-9.22-2.7-13.78-3.97m219.86 0.34c-6.51 1.66 1.77 4.28 0 0m-4.94 3.84c-14.8 5.25-26.05 17.48-38.4 26.75 15.97-2.61 26-15.59 38.16-24.75 0.9-0.88 2.82-3.2 0.24-2m-406.38 0.52c2.08 3.68 6.56 5.2 10.57 5.38-1.29-3.3-7.29-3.83-10.57-5.38m65.29 2.98c0.83 5.05-0.01 10.42 1.71 15.26 12.31-1.93 26.94-1.1 37.77-3.84-13.39-2.95-26.66-6.51-39.48-11.42m143.29 0.58c1.61 2.97 12.98 5.91 17.64 1.73-5.69-1.68-11.72-2.36-17.64-1.73m56.79 11.29c-0.77-0.2 11.56 4.47 12.36 1.77-3.95-1.37-8.17-2.16-12.36-1.77m89.22 3.73c-11.36 3.48-23.79 2.1-34.7 6.78 2.62 18.43 29.14-3.16 34.7-6.78m-215.13 4.04c-14.12 1.2-28.76 1.64-42.54 3.34 32.35 10.58 66.39 3.73 99.39 2.52-18.89-2.26-37.78-6.38-56.85-5.86m-127.93 2.87c-14.8-3.34-25.6 5.98-34.34 15.93 6.83-2.23 31.32 3.42 19.6-8.11 16.39 1.03 32.98-1.37 49.28-3.21-13.82-1.99-30.64 1.72-45.35 2.02-1.9-2.11 14.94-5.24 10.81-6.63m305.63 0.84c-4.1 12.01 7.11 4.67 0 0m-254.63 1.2c-4.78 2.81-9.51 6.02-13.5 9.88 13.67-1.67 27.51-1.53 41.19-2.76-9.39-1.73-18.16-6.6-27.69-7.12m341.55 9.89c-16.51 3.08 13.28 1.35 0 0m-131 9.41c-3.05-0.2-6.08 0.71-9.06 1.11 8.9 1.18 17.84 2.01 26.81 2.5-4.15-3.64-12.07-2.28-17.75-3.61m23.38 1.68c-12.8 3.35 8.02 1.36 0 0m5.47 3.5c-1.63 12.65 6.53 25.23 12.86 35.52-3.23-11.5-3.69-27.48-12.86-35.52m34.01 10.54c-8.44 6.96 8.05 16.88 15.11 10.24-2.4-6.75-6.28-14.33-15.11-10.24m-29.95 15.85c10.34 98.41 14.84 199.39 23.96 296.79-1.12-59.45-2.12-118.9-4.55-178.31-4.88-34.26-6.9-68.87-10.3-103.27-2.25-5.26-5.21-11.8-9.11-15.21m15.35 10.02c0.13 12.5 1.99 25.05 1.7 37.63 1.79-9.68 2.15-29.68-1.7-37.63m8.98 289.37c-2.65 7.3 3.24 5.69 0 0z"/>
<path id="path6" d="m525.78 65.19c15.37-0.68 33.96 5.17 41.07 19.99-9.52-12.66-29.09-17.24-41.07-19.99z"/>
<path id="path8" d="m616.2 90.66c3.9 1.71-2.65 4.17 0 0z"/>
<path id="path10" d="m763.47 190c12.61-1.98 6.71 5.61 0 0z"/>
<path id="path12" d="m748 191c14.27-1.72 8.92 3.47 0 0z"/>
<path id="path14" d="m732.97 191.96c18.22-2.5 9.32 4.23 0 0z"/>
<path id="path16" d="m135.27 216.08c5.97-0.73-3.13 4.28 0 0z"/>
<path id="path18" d="m132.57 218.49c0.65 0.92-4.18 6.82-7.45 7.68 2.07-2.91 4.29-5.87 7.45-7.68z"/>
<path id="path20" d="m846.62 226.47c14.44-3.05 25.33 8.96 37.44 14.47 10.46 7.1 27.4 11.29 27.24 26.83 2.68 38.31 6.67 76.64 6.71 115.06-7.05-37.44-8.44-79.99-13.3-119.32-6.54-10.33-19.65-14.01-29.39-20.83-8.48-4.07-15.88-12.52-26.04-11.33-44.5 3.2-88.99 6.76-133.51 9.6 43.42-5.44 87.23-9.95 130.85-14.48z"/>
<path id="path22" d="m122.56 227.48c-2.2 6.65-10.87 8.07 0 0z"/>
<path id="path24" d="m282.6 271.32c6.26-2.68 4.41 3.38 0 0z"/>
<path id="path26" d="m431.17 294.38c2.75 2.06 2.2 8.34 3.25 12.21 10.83 121.39 21.65 242.82 30.68 364.37-13.89-118.04-24.8-239.07-35.53-358.41-0.96-4.1-0.31-14.12-7.6-11.53-112.68 10.39-225.43 20.81-338.41 27.13-11.15 8.01-21.47 17.51-31.67 26.78 8.56 204.28 35.01 407.42 43.25 611.75 44.12 1.48 90.69-3.54 135.79-4.74-45.07 4.21-93.34 7.84-139.7 10.9-14.65-207.54-35.97-414.54-50.06-622.11 11.97-11.04 24.12-22.05 36.66-32.39 117.8-7.61 235.76-13.27 353.34-23.96z"/>
<path id="path28" d="m504.97 371.13c19.39 186.21 33.09 376.17 47.68 564.1 0.58 3.43-0.88 13.11 6.36 9.76 122-9.95 244.22-23.65 366.77-18.92 2.28-16.52 1.55-9.96 2.98 2.08-128.93 9.95-257.87 19.98-386.74 30.82-15.68-195.72-33.15-391.47-37.05-587.84z"/>
<path id="path30" d="m35.88 417.22c20.51 184.76 34.63 374.3 50.61 561.06 131.69-9.06 265.04-26.39 397.83-20.37 1.75-3.82-1.3-10.41 1.64-12.89-0.22 4.65 2.37 10.17 0.41 14.49-137.05 10.38-274.09 21.59-411.09 32.49-17.78-191.19-33.57-382.77-39.4-574.78z"/>
<path id="path32" d="m905.34 583.58c3.24 5.69-2.65 7.3 0 0z"/>
<path id="path34" d="m905.9 593.07c11.27 97.81 18.69 198.61 24.15 297.86-8.88-97.83-16.03-198.82-24.15-297.86z"/>
<path id="path36" d="m465 608.03c3.55 6.29-1.73 10.57 0 0z"/>
<path id="path38" d="m466 619c3.47 8.92-1.73 14.27 0 0z"/>
<path id="path40" d="m466.94 630.14c9.91 92.65 16.82 189.31 21.07 283.75-7.51-92.82-14.44-189.44-21.07-283.75z"/>
<path id="path42" d="m465.34 673.58c3.24 5.69-2.65 7.3 0 0z"/>
<path id="path44" d="m930 895c3.46 8.92-1.73 14.27 0 0z"/>
<path id="path46" d="m488.04 915.03c3.66 12.23-1.88 15.72 0 0z"/>
<path id="path48" d="m673.65 930.27c5.18-2.7 3.03 3.61 0 0z"/>
</g>
</svg>
