<?xml version="1.0" encoding="UTF-8" standalone="no"?>
<svg id="svg2" xmlns:rdf="http://www.w3.org/1999/02/22-rdf-syntax-ns#" xmlns="http://www.w3.org/2000/svg" height="1221pt" width="1016pt" version="1.1" xmlns:cc="http://creativecommons.org/ns#" xmlns:dc="http://purl.org/dc/elements/1.1/" viewBox="0 0 1016 1221">
<path id="path4" d="m469.54 0h21.93c36.76 2.7 71.98 20.61 94.82 49.71 53.31 67 76.16 151.54 109.77 228.43-8.5-46.37-25.04-90.7-38.39-135.78-9.06-29.99-29.94-54.02-48.37-78.67-1.64-3.32-6.33-6.71-4.4-10.82 16.47 12.3 23.37 34.76 42.58 43.62 23.78 48.02 55.79 93.15 75.09 143.93 30.82 76.05 40.23 159.09 42.66 240.47 25.23-1.29 50.47-0.74 75.68 1.11-12.34 4.27-30.14 1.1-42.69 4.69 25.02 16.09 33.79 49.3 58.95 63.96-6.47-20.98-15.85-41.3-17.1-63.78 13.09 34.99 30.78 68.9 50.98 100.19-8.9-30.32-23.84-59.2-28.05-90.68 6.17 3.76 7.65 15.11 11.28 22.33 34.16 91.4 62.96 184.7 90.82 278.18 11.77 38.42 17.54 78.41 28.27 117.07-4.12-91.4-31.23-181.94-63.65-267.69-14.43-36.74-31.96-72.54-42.16-110.76-1.73-6.9 6.34-1.47 6.89 2.29 5.28 24.52 15.6 47.99 28.52 69.32-7.25-29.35-16.8-58.27-21.14-88.26 10.19 18.48 12.53 40.51 20.05 60.26 20.85 74.91 46.02 148.6 64.96 224.03 12.98 72.32 19.06 145.67 29.16 218.45v11c-2.3 13.3-7.1 27.2-18.28 35.5 4.88 1.1 10.08 1.2 14.58 3.6-6.9 3.5-14.55 7-16.44 15.2-10.44-7.9-24.43-0.4-34.72 5.3-52.2 27.9-109.07 45.3-165 64-88.14 26.5-179.58 39.6-270.83 50.1-59.7 7.7-119.78 11.9-179.89 14.7h-41.84c-49.77-1.6-99.63-8.8-147.38-23-3.78-0.2-10.39-8.5-1.68-5.6 26.58 7.6 53.61 14.5 81.32 16.5 0.5-3.3-3.24-3.4-5.39-4.4-57.35-22-125.23-16.1-175.67-55.2-24.38-17.7-5.73-51.8-15.81-75.5 0.06-3.4-4.61-2-5.11 0.1-7.89 24.7-8.65 54.9-12.45 77.9-18.25-120.6 16.83-240.2 31-359.4 6.06-59.31 17.53-118.28 37.39-174.59 6.41-19.29 8.54-42.05 2.36-60.63-15.31 42.57-29.42 85.67-37.69 130.27-28.71 144.69-44.27 291.87-49.76 439.25-1.8 14.1-5.01-4.9-4.71-9v-8.3c9.03-153.88 20.82-308.78 56.01-459.38 11.42-41.91 24.71-83.56 42.93-123.05 8.2-23.79 38.95-18.35 56.97-27.13 11.52-94.58 19.19-190.54 46.66-282.24 1.24-10.94 12.41-15.79 14.74-26.28 14.01-40.46 35.71-78.74 65.77-109.27 5.1-0.62-3.72 10.85-6.07 13.99-29.29 33.74-48.25 75.12-60.03 117.93-25.68 91.85-27.18 188.12-28.43 282.76 9.42-1.85 12.83-11.66 15.46-19.72 7.77-28.09 8.32-57.47 9.6-86.39 3.06-73.44 15.96-146.23 34.76-217.2 12.27-35.55 31.34-71.61 60.34-95.56-19.12 35.96-51.06 68.38-57.32 109.93 14.06-18.87 24.08-40.37 38.17-59.22 22.96-31.28 50.84-58.63 80.49-83.52 27.71-24.58 62.38-41.54 99.49-45.05m-2.94 5.54c-33.86 3.15-65.75 18.86-90.53 41.85 0.01 2.94 3.97 1.03 5.65 0.5 29.74-14.97 62.86-22.24 95.96-24.21 32.9-2.31 68.13 0.44 96.23 19.4-26.77-29.2-68.73-40.72-107.31-37.54m22.85 23.88c-36.47 2.16-74.58 6.22-106.31 25.7-2.97 2.54 2.27 2.92 4.1 1.34 43.5-10.57 89.19-19.84 133.77-10.45 41.18 7.81 68.49 41.58 98.07 67.86-13.05-29.95-35.27-56.48-62.82-74.13-19.67-13.24-44.35-11.09-66.81-10.32m-21.92 40.08c-35.11 3.06-70.11 10.68-102.66 24.34-32.41 15.74-53.66 47.13-69.86 78.18-38.62 83.7-54 177.81-48.91 269.55-2.08 1.3-1.94-9.61-4.05-5.43-2.36 24.67-1.11 49.67 1.41 74.28 2.01 12.25 19.82 11.23 27.45 9.52-6.47-40.96 4.76-81.37 9.11-121.92 8.18-65 10.55-131.01 26.06-194.9 24.82-80.93 117-131.46 198.6-112.72 41.46 21.86 59.86 68.6 77.61 109.31 34.91 90.83 52.26 187.12 76 281.21 15.1 0.1 31.19 2.59 45.67-1.13-13.74-90.07-23.94-182.99-61.93-266.82-15.05-31.56-41.7-54.86-64.27-80.76-1.6-1.66-5.07-8.13 0.14-5.23 12.16 7.13 20.07 19.65 31.94 27.17-11.53-22.59-30.1-40.46-48.25-57.74-24.86-23.31-61.14-29.72-94.06-26.91m0.11 42.99c-14.71 2.85-30.13 4.5-43.82 10.68 0.54 4.27 4.91 5.96 8.1 7.94 30.69 16.7 50.04 47.25 67.68 76.3 43.32 77.34 73.25 161.36 99.1 245.89 3.88 9 6.1 19.22 12.39 26.84-0.92-36.61-20.21-70.62-30.78-105.48-19.14-61.14-27.09-125.42-50.75-185.21-9.51-24.23-20.92-48.71-40.24-66.75-5.62-5.71-12.85-12.8-21.68-10.21m36.08 13.78c6.24 8.94 12.83 17.76 17.16 27.86 39.65 83.38 46.05 177.68 81.35 262.64 9.08 19.41 10.37 41.21 17.81 61.08 0.28 7.99 16.6 8.44 11.54-1.23-22.4-90.54-40.7-182.61-74.3-269.9-12.54-29.5-25.18-62.94-53.56-80.45m-96.2 5.25c-27.66 3.43-49.21 26.83-59.4 51.59-34.9 80.79-22.18 170.73-39.1 255.03-0.76 21.33 1.15 42.71 4.29 63.79 96.64-1.66 193.54-3.16 289.61-15.81-26.39-83.92-53.72-168.09-92.91-247.12-17.06-31.91-34.63-64.64-61.76-89.25-11.14-9.68-25.13-19.93-40.73-18.23m259.6 18.48c27.12 88.18 46.67 178.91 59.56 270.32 2.32 17.65 2.96 35.68 8.07 52.83 3.07 9.88 22.78 11.95 23.27-0.47 1.38-58.32-6.44-116.73-20.36-173.31-17.35-52.08-37.53-105.94-70.54-149.37m-475.89 142.98c-14.14 72.46-23.02 146.04-29.25 219.56 6.69 1.52 13.53 2.92 20.43 2.37 3.92-4.26-0.81-12.83-6.97-10.59 6.87-7.89 6.1-18.81 7.4-28.5-0.51-60.81 7.25-123.21 8.39-182.84m112.05 167.23c-4.6 12.75-10.87 36.11 0.69 44.73 4.51-12.4 3.28-33.09-0.69-44.73m396.13 26.23c-12.1 1.13-24.16 2.55-36.25 3.62 3.98 10.88-0.41 27.33 10.57 34.41 15.2 1.92 33.32 5.22 47.02 1.91-20.71-3.74-7.27-37.43-21.34-39.94m-79.03 2.88c-17.32 6.87 9.59 12.05 15.61 5.93-4.38-3.59-9.93-5.86-15.61-5.93m-413 2.95c-9.01 4.37-18.63 11.69-19.24 22.51 0.44 8.89 14.14 10.56 17.93 3.19 4.42-7.32 4.64-19.63 1.31-25.7m564.88 15.02c-8.15 11.53 34.61 16.59 15.18 7.28-4.7-2.83-9.33-7.69-15.18-7.28m-623.98 1.18c-13.35 1.97-30.61 2.45-37.26 16.57-8.9 14.94-19.27 37.44-7.01 52.11 10.21-23.53 15.47-59.09 47.17-61.79 7.92-0.5 4.49-9.89-2.9-6.89m14.86 10.63c-2.63 4.78-1.54 11.76-1.79 17.27 6.63 1.86 22.59 6.66 23.32-3.06-9.08 1.12-5.25-6.68-5.9-11.8-5.18-0.89-10.37-2.2-15.63-2.41m-16.56 1.3c-12.5 5.57-23.28 16.68-27.58 29.76-2.25 7.49 2.5 3.08 5.05 1.7 4.08 10.49 13.32-5.04 19.09-5.74 14.25 2.18 18.24-28.67 3.44-25.72m382.93 4.01c-82.21 8.57-164.09 19.93-245.8 32.29-24.02 3.92-48.51 7.45-71.13 16.76-7.9 3.12-3.81 12.92-9.49 17.72-12.99 13.39-19.87 31.06-25.38 48.54-18.06 65.27-20.51 134.25-10.52 201.07 0.76 16.67 17.85 25.3 31.92 29.13 56.89 14.19 116.39 10.53 174.23 7.56 3.3-36.03 6.24-79.92 37.06-103.88-14.59 30.93-36.16 64.88-28.13 101.05 5.11 5.48 14.08-0.72 19.4-3.24 1.48-13.03-1.81-26.85 3.45-39.31 7.61-17.21 21.53-30.42 32.86-45.11 21.39-29.88 63.9-32.71 96.69-24.69 40.46 19.97 70.37 62.68 70.64 108.57 47.07-3.32 93.93-12.03 139.24-25.3 20.2-7.24 44.11-13.86 54.45-34.55 14.12-27.94 10.04-60.37 6.31-90.32-8.56-50.29-13.92-103.21-39.92-148.13-2.85-8.01 10.68 3.97 6.15-5.95-3.23-8.08-5.59-17.33-11.92-23.51-9.24 3.54-13.06-7.12-22.81-5.91-82.18-9.94-165.47-9.01-247.92-3.17 14-5.78 33.66-5.66 47.99-10.12-2.47 0.07-4.93 0.24-7.37 0.5m-280.8 1.88c-7.77 1.76-5.92 12.12-7.27 17.71-4.43 6.23-14.1 1.72-20.26 5.1-2.04 4.79-1.05 10.27-3.09 15.09 12.95-6.5 32.13-2.28 41.89-12.99-17.42-2.15 0.79-24.77-11.27-24.91m484.86 0.15c-10.86 6.28 12.2 4.33 18.27 6.79-1.85-7.23-12.23-7.15-18.27-6.79m56.09-0.11c-1.84 0.62-5.49 1.93-4.29 4.39 7.65 20.97 18.67 40.54 26.46 61.46 13.81 40.41 22.16 82.44 30.79 124.2 5.98 32.98 8.64 69.12-7.54 99.69-11.54 24.32-22.06 52.48-45.44 67.57-58.84 20.08-121.93 20.01-183.06 27.69-7.44 42.67-28.39 85.49-65.73 109.47-26.25 20.2-65.16 40.1-96.43 18.8-28.01-28.1-48.68-64.52-60.79-102.25 1.4-14.27-15.83-12.93-25-12.91-68.35-3.62-144.49 3.62-205.7-33.35-36.68-23.65-28.47-73.59-38.75-108.94-18.4 109.34-35.68 219.05-48.03 329.35 21.37 15.5 41.21 35.9 67.26 43.1 3.65 0.8 15.36 3.6 12.98-3.6 4.74-3.1 9.5 4.4 13.36 6.4 13.06 4.3 26.85 6 40.52 7.3 130.12 10.8 261.19 5.7 390.64-10.8 114.94-12.9 232.19-30.2 336.78-82.2 8.91-26.2 17.36-53.4 16.19-81.4-2.61-37.52-17.34-72.59-30.98-107.2-24.35-62.98-38-129.41-50.43-195.58-7.4-53.22-24.65-105.27-55.15-149.81-4.3-5.21-9.82-13.22-17.66-11.38m77.42 32.44c5.71 23.05 21.28 42.4 31.85 63.33-9.6-21.52-19.2-43.46-31.85-63.33m-663.64 9.54c-19.49 8.23-20.82 34.78-27.42 52.27 9.41-8.86 12.81-25.12 23.26-34.43 6.36-4.36-7.22-6.38-2.11-10.83 1.74-1.47 14.44-8.15 6.27-7.01m-43.03 9.1c-12.36 8.65-14.19 24.78-17.73 38.26-13.63 63.62-25.99 130.24-18.81 194.33 10.49-77.52 15.86-159.01 36.54-232.59m700.61-0.24c2.51 12.55 10.16 23.65 16.62 34.33-5.15-11.1-5.53-28.01-16.62-34.33m-750.76 13.03c-6.4 14.23-5.37 31.58-8.06 46.97-13.57 82.12-38.56 161.96-51.89 244.14-6.74 56.3-6.18 113.2-11.92 169.59 1.81 3.1-1.49 13.9 4.19 12.7 11.42-47.8 14.79-97.27 23.34-145.69 15.11-109.35 40.07-217.59 45.08-328.14l-0.74 0.43m790.86 39.01c12.39 36.62 27.34 72.82 35.9 110.78 7.01 24.46 10.86 50.29 22.29 73.23 4.77-2.07-0.47-10.37-0.23-14.14-13.62-50.29-28.15-100.46-47.18-149-3.07-7-4.7-17.28-10.78-20.87m-812.79 13.91c-11.67 32.3-16.56 66.84-23.87 100.34-1.84 14.35-7.19 29.6-4.71 43.52 9.93-47.6 21.22-97.17 28.58-143.86m811.5 8.02c3.11 10.12 6.46 21.97 13.36 29.53-2.37-10.49-6.17-21.46-13.36-29.53m-35.07 5.8c9 60.85 16.82 122.53 37.55 180.76 15.86 46.46 39.79 90.35 47.67 139.29 3.99 26.81-1.68 53.91-11.22 78.91-0.53 2.6-2.78 9.2 1.81 7.8 13.73-5.7 28.21-11.9 40.23-20.1-3.61-51.03-12.14-102-23.51-151.89-11.27-42.45-27.87-83.22-44-124-16.7-36.6-26.74-77.17-48.53-110.77m-27.66 67.33c-3.28 26.41-4.12 53.82-3.48 79.83 11.71-22.9 13.02-50.18 7.3-74.92-1.05-1.71-1.03-6.04-3.82-4.91m-355.43 41.21c-13.77 2.23-25.29 11.12-35.58 20.02-1.02 4.76 5.08 0.11 6.88-0.46 11.02-8.09 28.87-3.71 35.79-17.48 1.73-4.48-5.57-1.69-7.09-2.08m21.9 1.98c-4.43-0.78-9.7 4.55-3.54 6.62 12.34 3.09 26.32 4.24 35.29 14.62 19.37 21.24 19.15 51.41 23.79 78.06 1.36 6.72 10.46 4.12 9.77-2.11-0.74-27.14-2.96-56.07-17.83-79.68-10.9-14.23-30.49-18.2-47.48-17.51m-368.19 14.39c-4.37 7.12-7.01 18.58-2.41 25.27 1.41-8.23 4.19-17.1 2.41-25.27m427.76 8.21c8.99 25.82 11.09 53.41 17.07 79.94 6.3-2 16.74 1.29 20.43-5.21-4.74-27.32-15.87-57.57-37.5-74.73m-78.53 12.4c-17.51-0.49-26.32 18.08-27.39 33.03 20.95 3.45 47.89-7.54 64.8 10.57 9.72 8.35-5.11 22.61 0.91 29.86 18.43-9.63 3.6-34.21 3.11-49.96 0.56-21.74-24.99-25.56-41.43-23.5m-29.22 11.96c-9.7 9.08-27.29 20.39-25.03 35.26 18.86 5.49 23.02-24.75 25.03-35.26m348.92 38.98c-13.32 3.29-28.32 7.3-38.05 16.83 11.2 0.55 26.02-4.69 36.8-11.38 2.91 0.91 4.69-6.7 1.25-5.45m-376.38 5.83c1.21 9.63-3.25 22.15 4.24 29.93 8.24-6.39-0.96-23.41-4.24-29.93m58.77 1.2c-8.75 3.17-24.11 1.49-28.54 10.31 11.53 5.32 27.87-0.23 36.02-10.19-2.09-1.53-5.38 0.25-7.48-0.12m306.81 10.88c-61.13 16.03-125.29 13.87-186.58 28.71 0.86 3.88 7.12 0.85 9.45 2.66 43.62-0.33 87.38-4.38 130.2-13.1 17.15-3.59 35.55-7.23 49.38-18.67-0.61 0.1-1.84 0.3-2.45 0.4m-650.1 1.54c13.3 20.67 41.08 27.14 63.75 32.98 53.62 12.05 108.99 11.62 163.61 13.23 9.5 2.83 7.51-11.69 2.7-15.07-65.09 3.42-133.7 12.17-196.19-11.28-13.15-3.29-21.22-16.39-33.87-19.86m286.85 24.38c-3.26 4.52-2.57 14.9 2.79 17.7 3.83-3.65 4.42-18.03-2.79-17.7m16.01-0.34c-5.24 3.79-6.54 10.49-5.88 16.57 29.72 2.22 60.15-2.38 89.53-7.54 5.03-0.24 2.99-5.94-1.07-5.88-27.21-5.05-55.4 3.15-82.58-3.15m144.22 1.61c-3.1 0.8-12.95 0.11-9.92 5.94 6.15 2.31 13.05 1.71 19.04-0.89 2.65-5.41-5.97-5.97-9.12-5.05m-202.84 2.92c-12.61 0.06-2.24 22.2 7.37 15.83 11.7-2.99 3.63-21.71-7.37-15.83m209.7 7.83c-8.14 1.1-21.96 0.72-23.75 11.43-4.73 29.57-13.76 58.11-23.68 86.32 29.55-24.05 43.28-61.9 50.93-98.08-1.18 0.07-2.34 0.18-3.5 0.33m-36.01 3.84c-2.79 7.59-1.57 18.66 1.62 24.71 3.3-5.98 7.9-23.38-1.62-24.71m-61.78 2.47c-20.06 1.22-39.98 4.09-60.02 5.59-3.39 11.94-5.1 26.62 1.64 37.69 22.39 20.61 54.63 35.39 85.35 28.94 14.45-19.25 5.9-48.39 8.28-71.15-11.21-3.92-23.66-0.98-35.25-1.07m-108.17 6.57c-5.87 15.9 4.86 36.39 14.72 49.74-4.11-13.76-5.88-28.02-7.61-42.23-0.39-3.56-2.57-9.09-7.11-7.51m-354.22 28.68c-4.92 26.56-9.94 54.99-4.3 81.39 4.61-26.7 6.48-55.11 4.3-81.39m940.76 7.14c2.11 15.4 1.98 32.96 7.11 47.05 3.06-15.85-2.55-32.56-7.11-47.05m-568.92 3.11c6.05 15.85 9.08 33.85 21.7 46.24 17.04 19.5 44.56 26.3 69.47 21.9 8.68-2 21.5-0.8 25.9-10.1-11.33-7.7-26.99-1.5-39.61-5.6-32.54-5-58.63-26.7-77.46-52.44m29.18 63.14c11.56 22 44.02 21.8 64.73 16-22.45-2-44.58-6-64.73-16m-414 0.7c-4.38 21.5-5.63 45.4-1.21 65.9 7.47-19.6 6.07-44.6 1.21-65.9m44.99 98.5c1.6 12 17.56 15 26.79 19.7-8.34-6.9-17-16.1-26.79-19.7m723.32 26c-60.36 10.7-122.06 25.1-180.28 39.7 58.25-5 115.05-20.7 171.44-35.4 1.86-0.4 15.69-5 8.84-4.3m-230.94 40.2c-80.93 4-162.02 4.6-242.91 9 83.68 12 168.33-2.3 251.96-8.9-2.27 0-6.79-0.1-9.05-0.1m-339.05 4.5c-1.76 1 1.66 1.6 2.34 2.1 55.89 17.3 118.85 23.9 174.98 12.8-59.44 0.4-118.61-7.3-177.32-14.9z"/>
<path id="path6" d="m820.63 1090.5c1.12 1.6 6.55-2.3 7.47 0.2-10.1 6.1-22.57 5.7-33.9 7.5-160.84 25.2-321.24 62.4-484.91 60.5-70.65 0-136.67-27.3-201.14-53.1 33.07 2.1 64.66 19.1 96.79 28.5 58.94 19.3 122.1 20.3 183.42 17.2 145.62-8.1 287.94-42.3 432.27-60.8z"/>
</svg>
