<?xml version="1.0"?>
<svg xmlns:rdf="http://www.w3.org/1999/02/22-rdf-syntax-ns#" xmlns="http://www.w3.org/2000/svg" xmlns:cc="http://web.resource.org/cc/" xmlns:dc="http://purl.org/dc/elements/1.1/" xmlns:sodipodi="http://inkscape.sourceforge.net/DTD/sodipodi-0.dtd" xmlns:svg="http://www.w3.org/2000/svg" id="Layer_1" style="enable-background:new 0 0 381.775 409.114" space="preserve" sodipodi:version="0.32" viewBox="0 0 381.775 409.114" version="1.1" sodipodi:docname="sega per legno.svg" sodipodi:docbase="F:\openclip\svg da inviare">
  <sodipodi:namedview id="base" bordercolor="#666666" borderopacity="1.0" pagecolor="#ffffff"/>
  <path id="path3" d="m380.14 342.83c-30.805-42.18-61.608-84.358-92.413-126.54-17.938-24.563-35.877-49.125-53.815-73.688-3.605-4.936-7.21-9.872-10.814-14.808-0.418-0.572 0.836-3.532 0.695-4.731-0.401-3.433-2.231-6.511-3.657-9.754-4.644-10.561-8.08-25.719-17.251-33.224-7.977-6.527-15.879-5.733-25.785-4.879 5.443 4.898 12.313 5.969 18.005 9.757 6.16 4.101 7.86 10.662 10.843 17.338 2.968 6.641 5.935 13.282 8.901 19.924 1.305 2.92-8.346 6.882-10.645 8.319-5.499 3.437-10.998 6.874-16.497 10.31-1.458 0.912-12.815-4.689-15.022-5.248-10.465-2.646-22.123-1.93-32.195 2.1-10.374 4.15-20.082 11.548-31.277 13.354-22.461 3.624-38.464-4.027-52.693-20.525-11.015-12.771-22.03-25.543-33.045-38.314-3.731-4.314-11.672-10.646-13.863-16.066-3.177-7.859 5.017-6.002 10.453-4.646 6.402 1.598 12.189 4.601 19.049 2.323 9.261-3.075 17.705-11.548 26.54-16.719 10.042-5.877 20.953-10.496 31.975-14.169 8.552-2.851 22.039-3.64 27.905-11.393 1.994-2.634 4.794-9.134 4.415-12.544-0.473-4.252-0.852-1.541-2.092 0.464-3.091 4.999-4.785 14.352-12.081 14.868 2.946-5.927 4.992-10.821 6.273-17.423 0.402-2.071 0.796-7.734 3.369-8.247 5.533-1.103 12.968 4.993 17.222 7.938 10.643 7.37 17.294 20.853 20.539 33.04 1.718 6.455 3.902 12.851 7.773 18.378 1.028 1.468 4.647 7.332 6.534 7.169 4.365-0.376 8.731-0.752 13.096-1.129-19.456-9.734-18.627-33.443-29.504-49.947-6.832-10.367-36.477-37.242-45.415-16.378-3.034 7.082-1.735 17.639-7.552 22.651-5.466 4.71-18.697 5.962-26.087 9.3-10.846 4.899-21.573 10.157-31.525 16.718-2.92 1.925-5.734 4.029-8.596 6.04 0.101-0.209 0.256-0.287 0.465-0.232-5.289 3.304-8.585 4.535-15.565 2.556-5.904-1.674-12.312-4.635-18.585-2.556-7.778 2.579-10.121 9.957-6.62 16.959 6.206 12.411 19.853 23.684 28.923 34.266 8.399 9.798 17.687 23.175 26.947 30.781-4.804 3.517-21.147 16.329-11.151 23.812 1.655 1.239 3.641 1.921 5.713 2.011 7.64 0.331 3.286 4.54 6.134 9.953 1.213 2.306 2.533 3.382 4.88 4.414 5.969 2.623 10.383-2.147 11.67 5.829 1.269 7.869 4.74 9.793 12.49 10.202 7.132 0.376 3.593 3.881 5.808 9.406 1.004 2.508 2.707 3.937 5.11 4.996 4.066 1.793 10.798-1.567 11.478 3.696 0.437 3.38 0.5 7.231 3.157 9.777 2.118 2.028 4.776 2.293 7.571 2.443 9.402 0.509 4.563 2.526 7.994 9.404 3.377 6.77 15.707 4.265 16.439 8.808 1.168 7.243 2.617 11.797 10.707 12.222 9.435 0.494 4.648 1.817 7.701 8.939 0.98 2.286 2.341 4.372 4.762 5.343 2.608 1.047 11.583 0.24 11.828 2.144 0.531 4.114 0.529 7.742 3.04 11.099 1.457 1.946 4.116 2.429 6.33 2.608 1.402 0.113 7.832-0.158 8.043 1.195 0.384 2.455 0.288 5.742 1.31 8.045 0.941 2.122 2.028 3.927 4.182 5.109 2.642 1.45 11.922 0.395 12.177 2.375 0.864 6.713 1.436 13.08 9.385 13.707 9.275 0.731 7.184 0.369 9.219 8.544 0.617 2.479 2.043 4.536 4.297 5.808 3.118 1.76 10.044-0.589 12.081 1.394 2.083 2.027 0.515 8.277 2.671 11.151 1.244 1.657 3.35 3.483 5.576 3.483 2.91 0 5.855 0.418 8.756 0.647 1.679 0.133 1.148 6.169 1.814 7.833 0.878 2.195 1.645 4.264 3.833 5.574 3.215 1.927 10.742-0.216 12.661 1.744 1.888 1.928 0.297 7.896 2.092 10.686 1.501 2.333 3.523 3.302 6.154 3.833 2.77 0.559 5.728 0.534 8.541 0.762 1.657 0.135 1.3 5.755 1.798 7.252 0.875 2.631 1.659 4.437 3.95 6.157 3.036 2.281 8.46 1.527 11.889 1.708 1.022 0.054 1.415 6.369 2.863 7.817 11.141 11.141 23.367-12.11 29.016-18.854 9.19-10.972 18.381-21.942 27.571-32.913 2.8-3.33 3.99-7.71 1.14-11.52"/>
  <path id="path5" fill="#5A3D1C" d="m162.69 48.728c-1.795-9.118-6.869-18.528-13.009-25.438-4.694-5.282-16.352-16.214-24.276-14.636-3.265 0.65-3.353 8.992-3.834 11.5-1.063 5.545-3.408 9.342-5.808 14.17 3.373-0.239 6.721-4.057 8.553-6.934 0.829-1.302 3.642-10.54 4.458-10.721 3.367-0.745-4.097 16.652-7.782 18.701-9.236 5.135-20.495 5.769-30.189 9.881-11.375 4.827-22.119 10.066-32.791 16.312-7.229 4.231-14.563 13.185-23.557 13.185-6.863 0-12.162-3.705-18.817-4.415-7.443-0.794-9.165 3.614-3.834 8.944 6.291 6.291 11.969 13.302 17.812 20.076 15.105 17.514 29.712 42.305 52.323 50.446 24.499 8.82 42.546-7.658 64.654-13.877 10.104-2.842 22.188-2.775 31.96 1.411 5.005 2.144 7.66 4.458 12.375 1.511 7.039-4.399 14.078-8.799 21.117-13.199 4.624-2.89 2.824-3.355 0.58-8.378-3.438-7.694-6.875-15.389-10.313-23.083-2.408-5.388-4.33-7.468-9.422-9.913-5.721-2.746-13.737-9.255-19.668-8.693-3.05 0.289-18.044 0.024-18.314 3.001-0.502 5.546-3.56 11.217-8.48 14.055-8.739 5.042-21.326 2.975-30.927 7.296-4.468 2.011-9.492 4.051-13.125 7.426-4.544 4.219-7.027 10.383-13.329 12.459-11.003 3.625-23.224-4.869-23.462-16.494-0.226-11 10.969-19.959 18.945-25.94 14.36-10.767 38.133-19.901 56.325-17.27-13.532-2.938-31.456 1.552-44.256 6.504-10.675 4.13-30.312 14.202-32.407 26.948-2.271-7.924 9.361-16.554 14.635-20.675 10.455-8.171 22.607-12.564 35.286-15.9 10.208-2.687 25.54-5.29 33.711 2.891 3.928 3.932 7.201 11.687 7.201 17.423 7.356-0.697 14.713-1.394 22.069-2.09-8.03-7.738-10.5-16.859-14.41-26.483"/>
  <path id="path7" d="m140.86 60.111c0.618 0.174 1.205 0.357 1.858 0.465-0.66-0.107-1.25-0.29-1.86-0.465"/>
  <path id="path9" d="m152.47 68.242c-4.781-22.499-38.3-12.024-52.546-6.995-9.86 3.481-39.66 18.61-35.732 32.316 2.268-13.803 24.372-24.418 36.008-28.341 12.652-4.265 29.723-7.942 42.512-4.646-12.279-3.494-29.268 2.656-40.93 7.116-13.663 5.224-40.519 21.769-35.617 39.695 2.494 9.119 12.268 15.083 21.489 12.777 5.582-1.396 8.423-5.265 11.649-9.666 2.878-3.927 7.38-6.225 11.588-8.44 14.539-7.653 43.229-2.792 44.132-24.756-5.389-1.362-4.919 6.51-8.362 9.758-4.705 4.438-10.971 3.335-16.961 4.414-10.312 1.856-22.219 5.516-30.046 12.821-4.209 3.928-6.649 9.796-12.466 11.571-9.172 2.798-18.622-5.43-17.19-14.868 2.705-17.823 29.969-28.367 44.347-33.285 11.819-4.043 35.682-8.579 36.497 9.822 7.02 1.892 3.53-6.2 1.63-9.295"/>
  <path id="path11" d="m52.343 75.676l1.162-1.162c-0.387 0.388-0.775 0.775-1.162 1.162"/>
  <path id="path13" d="m53.97 73.586c0.986-0.646-0.184 0.12 0 0"/>
  <path id="path15" d="m54.9 71.727"/>
  <path id="path17" d="m47.931 60.809c0.217 0 0.217 0 0 0"/>
  <path id="path19" d="m43.747 61.272c-0.364 0.378-0.364 0.378 0 0"/>
  <path id="path21" d="m46.769 60.576c-0.367 0.377-0.367 0.377 0 0"/>
  <path id="path23" d="m45.143 60.809c-0.19 0.37-0.19 0.37 0 0"/>
  <path id="path25" d="m209.85 122.6c-4.69 2.443-9.381 4.886-14.071 7.329-5.958 3.103-6.656 4.392-12.645 2.428-9.324-3.057-17.036-5.025-26.967-4.67-19.673 0.703-34.396 17.244-53.856 17.936-20.818 0.741-32.409-8.535-45.321-23.255-12.867-14.68-25.922-29.319-38.331-44.38 11.044 2.822 22.537 3.771 30.434-6.041-8.945 5.28-14.349 7.19-24.626 4.414-3.906-1.055-8.327-3.151-12.543-2.787 2.454 4.516 6.905 8.262 10.336 12.124 7.027 7.908 13.851 16.014 20.756 24.03 13.114 15.225 25.671 36.074 47.384 38.49 23.668 2.633 39.822-13.362 62.173-17.087 10.736-1.789 20.035 0.948 30.099 4.238 6.342 2.073 7.231 0.065 13.212-3.74 4.4-2.8 10.47-6.25 13.97-9.04"/>
  <path id="path27" fill="#fff" d="m17.497 80.323v-0.233 0.233z"/>
  <path id="path29" fill="#fff" d="m200.79 90.777c0.11-0.114 0.11-0.106 0 0"/>
  <path id="path31" d="m187.78 101.23c-21.27-2.469-12.182 34.887 4.646 22.302-4.755 2.127-10.812 0.831-13.705-3.717 12.26 13.08 28.67-14.93 9.06-18.58"/>
  <path id="path33" d="m133.89 111.92c-0.978 9.325 6.757 21.177 16.958 13.241-4.795 2.4-10.66 0.852-13.708-3.485 7.629 6.874 21.174 0.113 18.121-10.569-3.38-11.845-19.03-9.42-21.37 0.81"/>
  <path id="path35" d="m95.089 127.25c-0.74 9.936 6.537 20.172 17.189 13.242-5.151 2.139-10.573 0.662-13.938-3.717 7.395 7.037 21.165 0.296 18.121-10.338-3.28-11.44-18.998-10.21-21.371 0.82"/>
  <path id="path37" fill="#BFBFBF" d="m114.14 130.27c-1.197 10.873-18.197 8.207-16.495-2.556 1.773-11.21 19.525-7.34 16.495 2.56"/>
  <path id="path39" d="m112.05 128.88c-0.396 6.074-8.478 8.056-12.081 3.717 5.212 8.393 17.614-0.649 11.384-8.131 0.77 1.53 0.79 3.56 0.7 4.41"/>
  <path id="path41" d="m107.4 123.3c-2.313 0.626-4.016 10.366-1.626 11.615 0.55-3.88 1.09-7.75 1.63-11.62"/>
  <path id="path43" fill="#BFBFBF" d="m152.93 114.94c-0.725 10.918-18.435 8.428-16.493-2.556 2.06-11.63 19.83-6.29 16.49 2.56"/>
  <path id="path45" d="m150.84 113.78c-0.785 6.043-8.221 7.799-12.081 3.717 5.52 8.285 18.049-1.244 11.151-8.363 1.14 1.61 0.95 2.9 0.93 4.64"/>
  <path id="path47" d="m140.86 108.66c-0.698 2.83 4.717 6.836 6.969 9.292 0.31-0.232 0.619-0.464 0.928-0.697-2.64-2.85-5.27-5.72-7.9-8.59"/>
  <path id="path49" fill="#BFBFBF" d="m194.52 113.31c-1.16 10.921-18.416 8.157-16.727-2.555 1.73-11.001 18.97-7.76 16.73 2.55"/>
  <path id="path51" d="m192.43 111.92c-0.645 5.828-8.529 8.338-12.078 3.716 4.721 8.906 18.185-1.23 11.15-8.131 0.94 1.58 0.93 3.47 0.93 4.41"/>
  <path id="path53" d="m191.03 109.59c-2.42-1.263-7.343 3.89-9.989 5.808 0.232 0.31 0.464 0.62 0.696 0.929 3.1-2.25 6.2-4.49 9.29-6.74"/>
  <path id="path55" fill="#E8DEFF" d="m205.67 135.38c31.075 42.536 62.149 85.072 93.225 127.61l52.581 71.974c3.044 4.166 6.087 8.332 9.131 12.498 0.919 1.258-22.711 27.104-24.963 29.788-0.967 1.151-1.933 2.304-2.899 3.455 7.013-11.205 14.025-22.411 21.039-33.616 1.017-1.624-5.999-9.217-7.02-10.615-17.021-23.336-34.041-46.671-51.062-70.006-20.988-28.774-41.977-57.55-62.964-86.324l-22.17-30.395c-1.39-1.905-6.182-11.222-8.614-11.81-1.482-0.358-7.532 4.691-8.842 5.507-4.323 2.693-4.573 3.624-9.251 1.752-5.949-2.38-12.235-3.94-18.613-4.472-14.408-1.202-27.104 5.896-39.26 12.544-12.686 6.938-26.15 10.218-40.606 8.226-6.854-0.945-12.934-2.857-18.996-6.164-2.095-1.143-4.061-4.375-5.995-2.441l-8.743 8.743c4.924 0.279 11.995-1.727 12.714 3.758 1.372 10.463-0.18 10.988 10.298 11.77 8.846 0.66 7.046 2.651 8.364 11.43 0.86 5.734 10.513 3.762 15.655 4.146 2.093 0.156 0.721 14.068 2.814 14.224 5.12 0.382 14.839-1.598 15.604 4.145 1.173 8.799-0.677 10.77 8.181 11.431 10.468 0.78 8.94 1.331 10.481 11.77 0.842 5.706 9.555 3.604 14.658 3.909 4.226 0.252 0.998 14.07 3.811 14.28 3.211 0.239 14.961-0.708 15.396 2.608 0.491 3.741 0.981 7.481 1.472 11.223 0.366 2.789 4.563 1.73 7.018 1.875 9.732 0.573 8.906 0.021 10.176 9.71 0.286 2.182-0.398 4.91 2.011 5.09 4.284 0.319 8.568 0.64 12.853 0.959 4.514 0.337 0.713 11.852 3.448 14.273 2.92 2.585 15.133-2.375 15.759 2.401 0.306 2.333 0.013 11.176 1.665 12.699 1.727 1.592 10.512 0.772 12.912 0.949 4.42 0.325 3.241 2.893 3.813 7.181 0.804 6.03-0.38 6.872 5.606 7.319 1.328 0.099 10.778 0.069 10.946 1.209 0.658 4.459 1.316 8.918 1.975 13.377 0.168 1.14 9.616 1.109 10.944 1.209 5.979 0.445 4.82 1.303 5.723 7.318 0.636 4.233-0.483 6.855 3.888 7.182 2.381 0.178 11.004-0.624 12.724 0.949 1.648 1.509 1.36 10.374 1.665 12.696 0.411 3.138 8.496 2.084 11.243 2.286 5.218 0.384 4.707 0.049 5.401 5.256 0.322 2.425-0.275 8.922 2.56 9.134 4.615 0.344 9.231 0.688 13.847 1.032 1.076 0.081 1.762 9.021 1.989 10.481 4.619-5.543 45.885-50.571 44.009-53.144-10.921-14.978-21.843-29.955-32.765-44.932-38.592-52.923-77.184-105.84-115.78-158.77-2.943-4.036-5.887-8.073-8.83-12.109-3.05-4.14-6.59 2.12-10.26 3.41"/>
  <metadata>
    <rdf:RDF>
      <cc:Work>
        <dc:format>image/svg+xml</dc:format>
        <dc:type rdf:resource="http://purl.org/dc/dcmitype/StillImage"/>
        <cc:license rdf:resource="http://creativecommons.org/licenses/publicdomain/"/>
        <dc:publisher>
          <cc:Agent rdf:about="http://openclipart.org/">
            <dc:title>Openclipart</dc:title>
          </cc:Agent>
        </dc:publisher>
        <dc:title>Architetto -- sega per legno</dc:title>
        <dc:date>2010-03-26T20:28:02</dc:date>
        <dc:description>Drawing by Francesco 'Architetto' Rollandin. From OCAL 0.18 release.</dc:description>
        <dc:source>http://openclipart.org/detail/34327/architetto----sega-per-legno-by-anonymous</dc:source>
        <dc:creator>
          <cc:Agent>
            <dc:title>Anonymous</dc:title>
          </cc:Agent>
        </dc:creator>
        <dc:subject>
          <rdf:Bag>
            <rdf:li>clip art</rdf:li>
            <rdf:li>clipart</rdf:li>
            <rdf:li>saw</rdf:li>
            <rdf:li>tool.cutting</rdf:li>
          </rdf:Bag>
        </dc:subject>
      </cc:Work>
      <cc:License rdf:about="http://creativecommons.org/licenses/publicdomain/">
        <cc:permits rdf:resource="http://creativecommons.org/ns#Reproduction"/>
        <cc:permits rdf:resource="http://creativecommons.org/ns#Distribution"/>
        <cc:permits rdf:resource="http://creativecommons.org/ns#DerivativeWorks"/>
      </cc:License>
    </rdf:RDF>
  </metadata>
</svg>
