<?xml version="1.0" encoding="UTF-8" standalone="no"?>
<svg version="1.1" x="0" y="0" width="680.40179" height="263.89481" viewBox="0 0 680.4018 263.8948" id="svg847" sodipodi:docname="loaf_of_bread-0026078824.svg" inkscape:version="1.1.1 (c3084ef, 2021-09-22)" xmlns:inkscape="http://www.inkscape.org/namespaces/inkscape" xmlns:sodipodi="http://sodipodi.sourceforge.net/DTD/sodipodi-0.dtd" xmlns="http://www.w3.org/2000/svg" xmlns:svg="http://www.w3.org/2000/svg">
  <defs id="defs851"/>
  <sodipodi:namedview id="namedview849" pagecolor="#ffffff" bordercolor="#666666" borderopacity="1.0" inkscape:pageshadow="2" inkscape:pageopacity="0.0" inkscape:pagecheckerboard="0" showgrid="false" fit-margin-top="0" fit-margin-left="0" fit-margin-right="0" fit-margin-bottom="0" inkscape:zoom="0.49463004" inkscape:cx="190.04103" inkscape:cy="174.87818" inkscape:window-width="1765" inkscape:window-height="1027" inkscape:window-x="0" inkscape:window-y="25" inkscape:window-maximized="0" inkscape:current-layer="svg847"/>
  <g id="Layer_1" transform="rotate(36.74004,2751.6056,86.825279)">
    <path d="m 721.032,1709.387 c 11.689,-64.319 -7.476,-119.848 -37.557,-169.888 l -12.173,32.598 -19.476,2.707 c 3.365,53.46 20.98,100.171 69.206,134.583" fill="#e2ceaa" id="path824"/>
    <path d="m 721.032,1709.388 4.305,0.782 c 2.416,-13.294 3.541,-26.238 3.541,-38.839 0.002,-24.789 -4.355,-48.254 -11.742,-70.539 -7.386,-22.283 -17.795,-43.392 -29.91,-63.547 -0.863,-1.435 -2.485,-2.257 -4.153,-2.104 -1.668,0.155 -3.113,1.26 -3.699,2.828 l -11.26,30.154 -16.891,2.347 c -2.262,0.315 -3.909,2.33 -3.765,4.611 1.707,27.12 7.041,52.742 18.201,76.049 11.15,23.305 28.156,44.225 52.831,61.819 1.214,0.868 2.805,1.055 4.188,0.494 1.383,-0.563 2.392,-1.805 2.659,-3.273 l -4.305,-0.782 2.542,-3.564 c -23.551,-16.816 -39.466,-36.457 -50.021,-58.475 -10.545,-22.017 -15.701,-46.481 -17.36,-72.819 l -4.367,0.275 0.602,4.335 19.477,-2.708 c 1.59,-0.221 2.935,-1.301 3.497,-2.804 l 12.173,-32.597 -4.1,-1.531 -3.752,2.255 c 11.868,19.74 21.972,40.274 29.105,61.792 7.131,21.521 11.296,44.022 11.297,67.784 0,12.081 -1.077,24.492 -3.4,37.273 l 4.307,0.784 2.542,-3.564 z" fill="#2f201b" id="path826"/>
    <path d="m 821.942,1616.256 c 16.576,-60.799 1.668,-121.599 -13.887,-179.589 l -15.948,28.704 -22.959,-1.596 c -6.245,53.277 26.078,105.742 52.794,152.481" fill="#e2ceaa" id="path828"/>
    <path d="m 821.942,1616.256 4.223,1.151 c 5.261,-19.297 7.411,-38.574 7.411,-57.691 -0.01,-42.473 -10.566,-84.151 -21.294,-124.183 -0.462,-1.723 -1.922,-2.991 -3.692,-3.21 -1.77,-0.218 -3.495,0.66 -4.361,2.219 l -14.595,26.268 -20.183,-1.402 c -2.332,-0.162 -4.377,1.535 -4.649,3.857 -0.552,4.71 -0.815,9.41 -0.815,14.094 0.008,25.178 7.525,49.783 17.999,73.406 10.484,23.625 23.961,46.321 36.156,67.663 0.878,1.536 2.596,2.393 4.352,2.17 1.755,-0.224 3.205,-1.484 3.671,-3.191 l -4.223,-1.151 3.799,-2.172 c -12.247,-21.42 -25.56,-43.882 -35.753,-66.869 -10.204,-22.99 -17.255,-46.454 -17.248,-69.856 0,-4.358 0.244,-8.715 0.755,-13.074 l -4.347,-0.51 -0.304,4.366 22.96,1.595 c 1.698,0.118 3.303,-0.753 4.129,-2.241 l 15.947,-28.702 -3.825,-2.126 -4.228,1.134 c 10.724,39.942 21.005,80.909 20.995,121.915 0,18.463 -2.072,36.936 -7.103,55.388 l 4.223,1.152 3.799,-2.172 z" fill="#2f201b" id="path830"/>
    <path d="m 926.707,1378.932 -15.984,16.823 -20.761,-2.964 c -1.213,51.809 14.89,97.855 48.408,138.066 0,-48.362 4.613,-101.457 -11.663,-151.925" fill="#e2ceaa" id="path832"/>
    <path d="m 926.707,1378.932 -3.172,-3.015 -14.429,15.186 -18.526,-2.644 c -1.238,-0.177 -2.493,0.185 -3.447,0.992 -0.955,0.809 -1.517,1.987 -1.547,3.238 -0.043,1.847 -0.065,3.688 -0.065,5.521 -10e-4,25.276 4.114,49.269 12.372,71.875 8.255,22.608 20.647,43.819 37.114,63.574 1.176,1.411 3.125,1.938 4.852,1.313 1.727,-0.626 2.888,-2.278 2.888,-4.115 -0.002,-17.4 0.602,-35.522 0.603,-54.006 -0.005,-32.598 -1.871,-66.355 -12.478,-99.262 -0.476,-1.476 -1.683,-2.581 -3.193,-2.925 -1.511,-0.343 -3.077,0.129 -4.144,1.253 l 3.172,3.015 -4.165,1.343 c 10.165,31.506 12.059,64.304 12.055,96.576 0,18.293 -0.604,36.407 -0.605,54.006 h 4.378 l 3.361,-2.803 c -15.877,-19.05 -27.721,-39.359 -35.615,-60.973 -7.892,-21.613 -11.841,-44.541 -11.842,-68.871 0,-1.764 0.021,-3.537 0.063,-5.316 l -4.375,-0.103 -0.619,4.333 20.762,2.963 c 1.405,0.201 2.814,-0.289 3.792,-1.318 l 15.983,-16.822 -3.173,-3.015 -4.165,1.343 z" fill="#2f201b" id="path834"/>
    <path d="m 1151.831,1421.222 c -26.188,-85.373 -163.003,-57.244 -163.003,-57.244 -20.917,3.028 -41.66,8.225 -62.122,14.954 16.277,50.468 11.663,103.563 11.663,151.925 -33.517,-40.211 -49.62,-86.257 -48.408,-138.066 -28.329,12.145 -55.848,27.063 -81.907,43.876 15.555,57.991 30.464,118.79 13.887,179.589 -26.716,-46.739 -59.039,-99.204 -52.794,-152.481 -31.794,23.889 -60.79,49.876 -85.673,75.725 30.081,50.04 49.246,105.568 37.558,169.888 -48.226,-34.412 -65.841,-81.124 -69.206,-134.583 -32.862,39.6 -54.371,76.163 -59.842,100.646 -65.987,294.967 279.923,24.253 279.923,24.253 0,0 306.129,-193.101 279.924,-278.482" fill="#c09459" id="path836"/>
    <path d="m 1151.832,1421.222 4.184,-1.285 c -4.141,-13.522 -11.004,-24.478 -19.605,-33.145 -6.451,-6.505 -13.858,-11.731 -21.807,-15.905 -11.927,-6.261 -25.064,-10.172 -38.208,-12.54 -13.146,-2.365 -26.307,-3.183 -38.314,-3.185 -28.129,0 -49.951,4.495 -50.134,4.529 l 0.88,4.287 -0.627,-4.331 c -21.214,3.07 -42.201,8.333 -62.86,15.128 -2.284,0.75 -3.538,3.213 -2.799,5.5 10.166,31.507 12.06,64.305 12.054,96.576 0,18.292 -0.603,36.406 -0.604,54.006 h 4.378 l 3.362,-2.803 c -15.878,-19.05 -27.722,-39.358 -35.617,-60.972 -7.891,-21.613 -11.839,-44.542 -11.841,-68.871 0,-1.766 0.021,-3.538 0.063,-5.316 0.035,-1.491 -0.688,-2.893 -1.923,-3.729 -1.237,-0.837 -2.805,-0.986 -4.177,-0.398 -28.58,12.253 -56.307,27.286 -82.555,44.222 -1.601,1.03 -2.348,2.971 -1.856,4.811 10.724,39.943 21.005,80.909 20.997,121.913 0,18.464 -2.073,36.936 -7.104,55.391 l 4.222,1.151 3.799,-2.172 c -12.245,-21.42 -25.558,-43.881 -35.753,-66.868 -10.203,-22.991 -17.255,-46.454 -17.247,-69.857 0,-4.358 0.242,-8.717 0.755,-13.074 0.204,-1.745 -0.643,-3.429 -2.167,-4.305 -1.523,-0.875 -3.405,-0.759 -4.809,0.296 -31.992,24.037 -61.152,50.171 -86.198,76.188 -1.375,1.429 -1.618,3.592 -0.597,5.291 11.867,19.74 21.972,40.274 29.104,61.792 7.133,21.523 11.297,44.023 11.297,67.784 0,12.08 -1.077,24.491 -3.4,37.274 l 4.307,0.783 2.542,-3.563 c -23.551,-16.817 -39.465,-36.459 -50.021,-58.476 -10.545,-22.017 -15.701,-46.481 -17.36,-72.819 -0.112,-1.793 -1.302,-3.33 -3.011,-3.887 -1.71,-0.555 -3.577,-0.016 -4.724,1.367 -16.554,19.95 -30.273,39.156 -40.588,56.554 -5.159,8.701 -9.468,16.95 -12.854,24.636 -3.385,7.687 -5.852,14.807 -7.302,21.296 -5.795,25.912 -8.472,47.6 -8.474,65.693 0,13.794 1.557,25.505 4.539,35.387 2.237,7.407 5.284,13.788 9.08,19.174 5.686,8.087 13.081,13.879 21.564,17.531 8.488,3.664 18.015,5.238 28.194,5.239 11.034,0 22.862,-1.846 35.16,-5.014 21.515,-5.548 44.483,-15.166 66.919,-26.451 33.645,-16.93 66.072,-37.632 90.13,-54.115 24.052,-16.483 39.726,-28.747 39.778,-28.789 l -2.697,-3.447 2.336,3.701 c 0.073,-0.049 70.538,-44.491 141.137,-100.289 35.302,-27.908 70.638,-58.639 97.307,-88.227 13.334,-14.8 24.511,-29.313 32.438,-43.164 3.963,-6.928 7.114,-13.695 9.292,-20.28 2.175,-6.584 3.38,-12.997 3.381,-19.187 0,-4.238 -0.569,-8.368 -1.782,-12.321 l -4.184,1.285 -4.185,1.284 c 0.937,3.054 1.397,6.295 1.399,9.752 10e-4,5.042 -0.993,10.548 -2.941,16.44 -3.643,11.046 -10.657,23.39 -20.21,36.368 -16.712,22.731 -41.138,47.405 -68.334,71.495 -40.798,36.151 -87.834,71.046 -124.639,96.871 -18.404,12.914 -34.253,23.564 -45.495,30.981 -5.62,3.709 -10.088,6.609 -13.15,8.581 -1.532,0.987 -2.711,1.74 -3.504,2.246 -0.398,0.253 -0.699,0.445 -0.901,0.572 -0.2,0.128 -0.299,0.19 -0.299,0.19 -0.154,0.097 -0.219,0.143 -0.362,0.255 l -0.099,0.077 c -2.117,1.652 -38.557,29.909 -84.68,57.669 -23.056,13.879 -48.534,27.632 -73.273,37.867 -12.367,5.117 -24.549,9.356 -36.117,12.302 -11.571,2.948 -22.529,4.596 -32.425,4.595 -8.25,0 -15.747,-1.143 -22.306,-3.556 -4.922,-1.813 -9.324,-4.331 -13.211,-7.666 -5.821,-5.004 -10.545,-11.878 -13.884,-21.276 -3.333,-9.391 -5.226,-21.302 -5.224,-36.08 -0.002,-17.227 2.568,-38.328 8.263,-63.784 1.284,-5.754 3.558,-12.385 6.771,-19.676 9.638,-21.898 27.708,-49.664 52.169,-79.129 l -3.369,-2.795 -4.368,0.276 c 1.707,27.12 7.042,52.742 18.201,76.048 11.151,23.306 28.156,44.227 52.831,61.821 1.214,0.867 2.807,1.054 4.187,0.492 1.383,-0.561 2.394,-1.804 2.66,-3.272 2.416,-13.295 3.541,-26.237 3.541,-38.839 0.002,-24.789 -4.355,-48.254 -11.742,-70.537 -7.386,-22.286 -17.795,-43.393 -29.911,-63.549 l -3.751,2.255 3.154,3.036 c 24.721,-25.682 53.55,-51.521 85.148,-75.262 l -2.628,-3.499 -4.346,-0.51 c -0.554,4.71 -0.815,9.41 -0.815,14.094 0.008,25.178 7.526,49.783 17.998,73.406 10.484,23.626 23.961,46.321 36.156,67.663 0.878,1.536 2.597,2.393 4.352,2.17 1.755,-0.224 3.205,-1.484 3.671,-3.191 5.26,-19.298 7.412,-38.575 7.412,-57.693 -0.011,-42.471 -10.566,-84.149 -21.295,-124.181 l -4.226,1.134 2.372,3.678 c 25.871,-16.692 53.18,-31.493 81.258,-43.532 l -1.724,-4.022 -4.375,-0.104 c -0.044,1.848 -0.065,3.69 -0.065,5.524 -0.002,25.275 4.114,49.269 12.372,71.875 8.255,22.608 20.646,43.819 37.115,63.573 1.174,1.411 3.123,1.938 4.851,1.313 1.727,-0.626 2.888,-2.278 2.888,-4.115 -0.002,-17.401 0.602,-35.523 0.602,-54.006 -0.005,-32.597 -1.869,-66.354 -12.477,-99.262 l -4.166,1.343 1.368,4.157 c 20.262,-6.664 40.762,-11.796 61.382,-14.779 l 0.253,-0.045 0.046,-0.01 c 1.108,-0.227 21.974,-4.344 48.327,-4.34 20.637,-0.012 44.621,2.55 64.991,11.196 10.193,4.318 19.474,10.128 27.121,17.843 7.648,7.722 13.702,17.342 17.453,29.55 z" fill="#2f201b" id="path838"/>
    <path d="m 668.406,1571.745 c -0.016,0.126 -0.075,0.675 -0.075,1.726 0.004,3.857 0.775,14.483 7.41,35.987 6.636,21.501 19.143,53.884 42.678,101.229 0.716,1.442 2.468,2.031 3.912,1.314 1.443,-0.718 2.031,-2.47 1.314,-3.912 -23.431,-47.132 -35.815,-79.247 -42.328,-100.353 -6.516,-21.105 -7.152,-31.2 -7.15,-34.265 0,-0.418 0.012,-0.705 0.022,-0.872 l 0.011,-0.161 0.002,-0.015 -1.663,-0.176 1.659,0.203 0.004,-0.027 -1.663,-0.176 1.659,0.203 c 0.195,-1.6 -0.944,-3.054 -2.544,-3.249 -1.599,-0.194 -3.054,0.945 -3.248,2.544" fill="#2f201b" id="path840"/>
    <path d="m 789.214,1465.747 c 0.003,0.025 3.34,25.648 8.745,57.366 2.703,15.859 5.923,33.242 9.507,49.722 3.586,16.484 7.528,32.054 11.713,44.361 0.519,1.525 2.176,2.341 3.703,1.822 1.525,-0.519 2.341,-2.176 1.823,-3.702 -4.068,-11.948 -7.981,-27.366 -11.536,-43.721 -5.337,-24.538 -9.883,-51.206 -13.09,-71.724 -1.605,-10.26 -2.875,-18.984 -3.743,-25.141 -0.434,-3.079 -0.768,-5.514 -0.995,-7.18 -0.224,-1.665 -0.341,-2.553 -0.341,-2.557 -0.208,-1.598 -1.672,-2.724 -3.27,-2.515 -1.597,0.208 -2.725,1.672 -2.516,3.27 z" fill="#2f201b" id="path842"/>
    <path d="m 907.816,1396.006 c 0.005,0.044 1.949,22.475 6.39,50.657 2.222,14.092 5.067,29.62 8.615,44.525 3.551,14.908 7.793,29.183 12.874,40.835 0.644,1.476 2.363,2.151 3.841,1.508 1.476,-0.646 2.152,-2.365 1.508,-3.841 -4.864,-11.145 -9.049,-25.155 -12.546,-39.853 -5.251,-22.053 -8.975,-45.666 -11.379,-63.742 -1.202,-9.038 -2.075,-16.695 -2.647,-22.088 -0.286,-2.696 -0.497,-4.826 -0.636,-6.281 -0.07,-0.727 -0.121,-1.285 -0.155,-1.66 -0.034,-0.375 -0.052,-0.564 -0.052,-0.564 -0.139,-1.606 -1.553,-2.794 -3.158,-2.655 -1.606,0.14 -2.794,1.554 -2.654,3.16 z" fill="#2f201b" id="path844"/>
  </g>
</svg>