<?xml version="1.0" encoding="UTF-8" standalone="no"?>
<!-- Created with Inkscape (http://www.inkscape.org/) -->

<svg
   version="1.1"
   id="svg10793"
   width="880"
   height="880"
   viewBox="0 0 880 880"
   sodipodi:docname="roasted-chicken-leg-clipart-publicdomain.svg"
   inkscape:version="1.2 (dc2aedaf03, 2022-05-15)"
   xmlns:inkscape="http://www.inkscape.org/namespaces/inkscape"
   xmlns:sodipodi="http://sodipodi.sourceforge.net/DTD/sodipodi-0.dtd"
   xmlns="http://www.w3.org/2000/svg"
   xmlns:svg="http://www.w3.org/2000/svg">
  <defs
     id="defs10797">
    <clipPath
       clipPathUnits="userSpaceOnUse"
       id="clipPath10809">
      <path
         d="M 0,660 H 660 V 0 H 0 Z"
         id="path10807" />
    </clipPath>
  </defs>
  <sodipodi:namedview
     id="namedview10795"
     pagecolor="#ffffff"
     bordercolor="#000000"
     borderopacity="0.25"
     inkscape:showpageshadow="2"
     inkscape:pageopacity="0.0"
     inkscape:pagecheckerboard="0"
     inkscape:deskcolor="#d1d1d1"
     showgrid="false"
     inkscape:zoom="0.95113636"
     inkscape:cx="441.05137"
     inkscape:cy="440.52569"
     inkscape:window-width="1920"
     inkscape:window-height="1017"
     inkscape:window-x="-8"
     inkscape:window-y="-8"
     inkscape:window-maximized="1"
     inkscape:current-layer="g10801">
    <inkscape:page
       x="0"
       y="0"
       id="page10799"
       width="880"
       height="880" />
  </sodipodi:namedview>
  <g
     id="g10801"
     inkscape:groupmode="layer"
     inkscape:label="Page 1"
     transform="matrix(1.3333333,0,0,-1.3333333,0,880)">
    <g
       id="g10803">
      <g
         id="g10805"
         clip-path="url(#clipPath10809)">
        <g
           id="g10811"
           transform="translate(335.5078,109.415)">
          <path
             d="M 0,0 C 141.846,0 257.533,12.343 257.533,27.479 257.533,42.613 141.846,54.958 0,54.958 -141.844,54.958 -257.531,42.613 -257.531,27.479 -257.531,12.343 -141.844,0 0,0"
             style="fill:#e6e6e6;fill-opacity:1;fill-rule:evenodd;stroke:none"
             id="path10813" />
        </g>
        <g
           id="g10815"
           transform="translate(251.8506,238.7227)">
          <path
             d="m 0,0 c -10.167,7.149 -15.664,11.439 -24.834,19.929 -3.722,3.446 -7.209,6.661 -10.951,9.588 l -5.503,-2.314 c 5.783,-9.908 9.525,-15.178 4.87,-31.102 -4.133,-14.137 0.97,-12.145 3.823,-25.017 l 0.447,-2.24 0.207,-1.244 c 1.59,-17.237 -12.257,-15.592 1.255,-39.93 3.601,-6.483 3.944,-7.854 4.36,-12.867 l 18.951,7.968 c 2.303,2.782 4.504,5.616 6.643,8.057 3.958,4.515 6.087,7.133 10.856,10.886 C 6.768,-38.855 3.375,-19.429 0,0"
             style="fill:#8a3605;fill-opacity:1;fill-rule:evenodd;stroke:none"
             id="path10817" />
        </g>
        <g
           id="g10819"
           transform="translate(172.25,260.0801)">
          <path
             d="M 0,0 C 0.77,-1.227 1.474,-2.476 2.108,-3.745 7.727,-14.97 19.014,-21.296 31.522,-20.237 l 45.507,3.862 9.799,-59.473 -38.414,-3.513 C 32.375,-80.829 19.26,-89.47 11.58,-103.626 c -3.95,-7.285 -9.772,-13.683 -17.287,-18.408 -23.336,-14.674 -54.15,-7.652 -68.824,15.685 -11.392,18.117 -9.706,40.74 2.537,56.818 -0.715,0.956 -1.398,1.947 -2.045,2.974 -12.856,20.445 -6.705,47.442 13.741,60.299 C -39.853,26.598 -12.856,20.444 0,0"
             style="fill:#eddaa8;fill-opacity:1;fill-rule:evenodd;stroke:none"
             id="path10821" />
        </g>
        <g
           id="g10823"
           transform="translate(216.916,240.96)">
          <path
             d="m 0,0 32.363,2.745 9.799,-59.473 -38.414,-3.513 c -16.039,-1.468 -29.154,-10.109 -36.834,-24.265 -3.95,-7.285 -9.772,-13.683 -17.287,-18.408 -23.336,-14.674 -54.15,-7.652 -68.824,15.685 -11.392,18.118 -9.706,40.74 2.537,56.818 -0.715,0.956 -1.398,1.947 -2.045,2.974 -10.742,17.084 -8.21,38.738 4.837,52.899 -7.282,-20.939 -5.45,-39.86 12.977,-55.1 -31.889,-28.857 9.945,-74.053 44.427,-44.4 8.054,6.926 16.734,10.814 27.266,12.213 9.289,1.23 17.756,8.633 26.194,12.491 2.797,1.276 -1.844,6.22 -0.98,9.169 1.534,5.23 7.332,8.908 7.869,14.33 C 4.746,-17.17 -6.149,-6.164 0,0"
             style="fill:#e3cd96;fill-opacity:1;fill-rule:evenodd;stroke:none"
             id="path10825" />
        </g>
        <g
           id="g10827"
           transform="translate(352.9199,345.4355)">
          <path
             d="m 0,0 c 9.248,6.307 17.906,8.826 28.052,12.993 10.27,4.296 13.488,7.867 22.153,13.53 19.256,9.51 31.156,1.313 54.847,10.275 20.298,7.679 20.435,5.584 39.661,-2.669 23.648,-10.153 24.154,-21.887 44.342,-33.238 23.057,-11.93 28.893,-23.908 31.392,-48.614 2.055,-20.329 10.895,-20.165 11.359,-42.972 0.149,-7.351 -0.207,-14.408 -0.685,-21.733 -1.376,-19.159 3.89,-19.461 -7.568,-39.013 -6.205,-10.588 -12.117,-21.124 -23.887,-25.808 -10.736,-4.269 -16.152,-7.409 -23.256,-16.812 -8.532,-11.862 -12.756,-14.922 -27.295,-18.247 -10.836,-2.284 -15.718,-3.659 -26.172,-7.431 -26.558,-9.585 -32.28,10.646 -63.071,2.674 l -3.155,-0.819 c -31.932,-8.161 -32.263,4.195 -58.952,13.998 -10.235,3.489 -17.737,2.957 -28.862,7.524 -22.139,9.103 -15.246,5.963 -37.593,6.222 -10.458,0.123 -16.957,3.837 -29.209,2.778 -10.101,-0.874 -14.46,-3.386 -23.654,-6.604 -13.901,-4.865 -0.842,17.36 0.585,21.575 3.997,11.816 -6.269,13.124 -4.254,20.587 0.373,1.381 1.026,2.698 1.645,3.978 3.537,6.914 2.952,15.044 2.206,22.66 -0.41,4.198 -2.96,7.955 -3.894,13.292 -2.355,14.219 0.712,17.26 -13.428,27.357 -3.296,2.355 -8.27,5.46 -6.782,10.385 1.502,4.968 12.006,1.319 17.758,3.856 8.965,4.097 5.79,4.184 16.321,6.131 15.107,2.793 25.485,11.175 38.268,18.754 6.335,3.756 9.769,7.124 15.067,12.036 12.051,11.145 20.977,8.29 33.516,17.111 5.875,4.133 10.16,7.039 16.267,10.81 C -5.465,-3.698 -2.736,-1.854 0,0"
             style="fill:#d97338;fill-opacity:1;fill-rule:evenodd;stroke:none"
             id="path10829" />
        </g>
        <g
           id="g10831"
           transform="translate(352.9199,345.4355)">
          <path
             d="m 0,0 c 9.248,6.307 17.906,8.826 28.05,12.993 10.272,4.296 13.49,7.867 22.155,13.53 19.256,9.51 31.156,1.313 54.847,10.275 20.298,7.679 20.435,5.584 39.661,-2.67 5.091,-2.186 9.109,-4.446 12.482,-6.759 C 149.799,15.368 140.52,15.449 125.131,2.925 117.651,-3.449 114.548,-9.455 105.82,-16.05 88.442,-29.165 94.09,-25.214 83.429,-42.308 c -4.99,-8 -10.893,-11.4 -15.813,-21.292 -4.053,-8.153 -4.157,-12.596 -5.98,-21.063 -0.043,-0.196 -0.085,-0.382 -0.132,-0.563 l -0.007,-0.026 c -0.045,-0.175 -0.091,-0.346 -0.14,-0.506 l -0.004,-0.016 c -0.048,-0.162 -0.1,-0.318 -0.152,-0.465 l -0.012,-0.036 c -0.05,-0.139 -0.1,-0.272 -0.152,-0.396 l -0.018,-0.043 c -0.055,-0.132 -0.113,-0.257 -0.171,-0.378 l -0.002,-0.002 c -0.057,-0.116 -0.117,-0.226 -0.177,-0.33 l -0.024,-0.047 c -0.058,-0.095 -0.115,-0.185 -0.173,-0.27 l -0.022,-0.032 c -0.064,-0.091 -0.131,-0.179 -0.196,-0.259 l -0.017,-0.018 c -0.062,-0.073 -0.126,-0.142 -0.192,-0.209 l -0.03,-0.028 c -0.065,-0.064 -0.128,-0.121 -0.195,-0.173 l -0.034,-0.027 c -0.065,-0.05 -0.132,-0.096 -0.199,-0.139 l -0.041,-0.025 c -0.067,-0.037 -0.132,-0.072 -0.2,-0.104 l -0.037,-0.017 c -0.072,-0.033 -0.147,-0.059 -0.222,-0.082 l -0.041,-0.011 c -0.068,-0.022 -0.134,-0.036 -0.203,-0.05 l -0.054,-0.009 c -0.065,-0.009 -0.134,-0.016 -0.199,-0.023 l -0.08,-0.004 c -0.063,-0.001 -0.127,0 -0.192,0.004 l -0.086,0.004 c -0.06,0.005 -0.119,0.01 -0.177,0.021 l -0.097,0.014 c -0.059,0.011 -0.119,0.023 -0.179,0.038 l -0.124,0.031 -0.164,0.049 -0.111,0.039 -0.173,0.068 -0.134,0.057 -0.146,0.068 -0.162,0.079 -0.002,0.003 -0.126,0.066 -0.004,0.003 -0.191,0.109 -0.098,0.059 c -0.07,0.043 -0.139,0.088 -0.209,0.134 l -0.021,0.014 c -0.118,0.076 -0.236,0.16 -0.351,0.246 l -0.028,0.018 c -0.082,0.06 -0.162,0.121 -0.242,0.185 l -0.037,0.029 c -0.081,0.062 -0.159,0.125 -0.237,0.191 l -0.133,0.109 v 0.002 c -2.566,1.005 -4.43,1.214 -9.728,1.237 -5.993,0.023 -10.108,0.612 -13.097,1.575 l -0.178,-0.49 -0.025,-0.069 -0.162,-0.466 -0.039,-0.109 -0.125,-0.375 -0.081,-0.248 -0.118,-0.363 -0.054,-0.174 -0.115,-0.378 -0.083,-0.278 -0.08,-0.28 -0.085,-0.307 -0.086,-0.305 -0.004,-0.017 c -0.048,-0.177 -0.093,-0.354 -0.138,-0.533 l -0.006,-0.019 -0.137,-0.555 -0.002,-0.009 -0.078,-0.34 -0.054,-0.236 -0.071,-0.326 -0.056,-0.259 -0.073,-0.352 -0.043,-0.224 -0.065,-0.351 -0.043,-0.228 -0.065,-0.375 -0.035,-0.218 -0.05,-0.317 -0.049,-0.322 -0.04,-0.286 -0.031,-0.216 -0.046,-0.372 c -0.025,-0.185 -0.045,-0.371 -0.066,-0.555 l -0.002,-0.025 -0.054,-0.529 -0.003,-0.035 -0.027,-0.307 -0.022,-0.273 -0.026,-0.36 -0.012,-0.193 -0.023,-0.362 -0.013,-0.271 -0.012,-0.294 -0.011,-0.27 -0.011,-0.333 -0.004,-0.266 -0.005,-0.299 -0.002,-0.3 0.002,-0.296 -0.002,-0.011 0.009,-0.553 v -0.007 l 0.015,-0.542 0.002,-0.022 0.013,-0.311 0.011,-0.274 0.019,-0.292 0.019,-0.307 0.018,-0.25 0.028,-0.368 0.018,-0.197 0.036,-0.391 0.021,-0.213 0.041,-0.369 0.027,-0.222 0.047,-0.369 0.028,-0.222 0.005,-0.033 0.079,-0.535 0.002,-0.009 0.003,-0.026 0.091,-0.559 0.021,-0.122 0.079,-0.451 0.043,-0.218 0.068,-0.348 0.049,-0.246 0.079,-0.367 0.043,-0.193 0.08,-0.351 0.061,-0.263 0.08,-0.32 0.063,-0.254 0.085,-0.324 0.064,-0.242 0.102,-0.361 0.053,-0.193 0.009,-0.028 c 0.108,-0.37 0.222,-0.739 0.341,-1.108 l 0.078,-0.244 0.112,-0.336 0.076,-0.218 0.128,-0.363 0.074,-0.203 0.136,-0.371 0.07,-0.186 0.146,-0.378 0.08,-0.205 0.153,-0.373 0.076,-0.187 c 0.144,-0.346 0.293,-0.691 0.448,-1.036 l 0.031,-0.07 0.008,-0.019 0.232,-0.5 0.008,-0.022 0.151,-0.311 0.112,-0.238 0.128,-0.26 0.164,-0.328 0.097,-0.19 0.185,-0.354 0.115,-0.22 0.171,-0.318 0.126,-0.231 0.191,-0.341 0.107,-0.191 0.273,-0.471 0.032,-0.057 c 0.109,-0.185 0.222,-0.371 0.334,-0.556 l 0.175,-0.291 0.173,-0.292 0.171,-0.295 0.168,-0.294 0.167,-0.298 0.162,-0.296 v -0.002 l 0.163,-0.3 0.159,-0.301 0.156,-0.303 0.153,-0.304 0.154,-0.306 0.148,-0.307 0.149,-0.309 0.144,-0.308 v -0.002 l 0.141,-0.311 0.138,-0.311 0.138,-0.315 0.136,-0.317 0.132,-0.316 0.13,-0.319 0.126,-0.317 0.125,-0.322 0.122,-0.322 0.119,-0.323 0.118,-0.324 0.114,-0.327 v -0.002 l 0.113,-0.325 v -0.002 l 0.108,-0.328 0.107,-0.33 0.104,-0.331 0.101,-0.332 0.098,-0.332 0.097,-0.335 0.092,-0.336 0.091,-0.337 0.088,-0.339 0.085,-0.338 0.082,-0.341 0.081,-0.342 0.076,-0.343 0.076,-0.343 0.071,-0.345 0.067,-0.347 0.067,-0.346 0.062,-0.349 0.061,-0.35 0.058,-0.35 0.054,-0.349 0.052,-0.353 0.048,-0.353 0.046,-0.356 0.043,-0.354 0.042,-0.357 0.037,-0.357 0.034,-0.36 0.03,-0.359 0.03,-0.358 0.025,-0.362 0.021,-0.362 0.02,-0.364 0.016,-0.364 0.014,-0.364 0.011,-0.366 0.008,-0.365 c 0.386,-24.304 -19.45,-44.998 -44.305,-46.22 -19.296,-0.949 -35.942,10.117 -42.607,26.486 -1.071,-0.138 -2.154,-0.236 -3.248,-0.289 -0.313,-0.016 -0.624,-0.029 -0.936,-0.036 l -0.326,-0.007 c -0.207,-0.003 -0.415,-0.005 -0.622,-0.007 l -0.366,0.002 c -0.189,0.002 -0.378,0.003 -0.567,0.007 l -0.382,0.008 c -0.194,0.006 -0.387,0.015 -0.58,0.022 l -0.344,0.016 c -0.289,0.016 -0.576,0.034 -0.862,0.053 l -0.042,0.002 -0.015,0.002 c -0.301,0.023 -0.602,0.05 -0.902,0.08 l -0.284,0.028 c -0.216,0.024 -0.428,0.047 -0.642,0.074 l -0.296,0.038 c -0.212,0.028 -0.424,0.056 -0.635,0.089 l -0.284,0.041 c -0.207,0.03 -0.41,0.066 -0.615,0.099 l -0.314,0.054 c -0.277,0.048 -0.551,0.102 -0.823,0.155 l -0.037,0.007 -0.026,0.006 c -0.291,0.059 -0.582,0.121 -0.871,0.187 l -0.221,0.052 c -0.212,0.05 -0.425,0.1 -0.635,0.152 l -0.337,0.088 -0.526,0.14 -0.347,0.096 -0.533,0.157 -0.308,0.093 c -0.253,0.078 -0.507,0.16 -0.758,0.242 l -0.073,0.025 c -0.277,0.093 -0.549,0.186 -0.821,0.286 l -0.334,0.125 -0.472,0.176 -0.389,0.152 -0.436,0.178 -0.358,0.146 c -0.153,0.066 -0.305,0.133 -0.456,0.2 l -0.353,0.157 -0.415,0.193 c -0.201,0.092 -0.402,0.187 -0.6,0.285 -0.166,0.08 -0.332,0.161 -0.496,0.244 l -0.361,0.187 -0.401,0.209 -0.392,0.216 -0.33,0.182 c -0.15,0.084 -0.298,0.168 -0.446,0.254 l -0.255,0.149 c -0.159,0.097 -0.319,0.191 -0.478,0.287 l -0.173,0.11 c -0.32,0.195 -0.633,0.399 -0.946,0.604 l -0.231,0.152 c -0.134,0.088 -0.263,0.181 -0.394,0.271 l -0.281,0.194 -0.415,0.296 -0.276,0.203 c -0.138,0.102 -0.275,0.202 -0.411,0.305 l -0.221,0.172 c -0.153,0.117 -0.305,0.235 -0.455,0.353 l -0.123,0.1 c -0.547,0.439 -1.081,0.894 -1.602,1.36 l -0.071,0.067 c -0.16,0.142 -0.317,0.289 -0.474,0.434 l -0.136,0.129 c -0.146,0.138 -0.29,0.275 -0.433,0.416 l -0.154,0.152 c -0.154,0.149 -0.303,0.3 -0.452,0.453 l -0.011,0.011 c -0.703,0.72 -1.377,1.469 -2.02,2.243 l -0.044,0.051 c -0.152,0.184 -0.301,0.37 -0.45,0.555 l -0.039,0.051 c -0.777,0.98 -1.506,2.003 -2.179,3.061 l -0.047,0.073 c -0.126,0.197 -0.247,0.395 -0.37,0.595 l -0.042,0.07 c -0.657,1.086 -1.259,2.208 -1.803,3.367 l -0.005,0.008 c -0.106,0.227 -0.209,0.454 -0.313,0.682 l -0.021,0.052 c -0.521,1.178 -0.983,2.387 -1.381,3.626 l -0.002,0.002 c -0.078,0.242 -0.151,0.485 -0.226,0.73 l -0.007,0.025 v -0.002 c -0.946,3.182 -1.479,6.55 -1.536,10.051 -0.338,21.293 17.04,39.424 38.816,40.494 1.304,0.064 2.597,0.066 3.872,0.008 11.282,-0.522 21.441,5.436 26.479,15.526 l 5.292,10.602 c -6.459,5.395 -11.374,5.994 -17.933,5.956 -3.2,-1.455 -7.167,-3.018 -9.889,-0.147 -3.127,3.3 4.602,9.814 5.341,15.338 1.02,8.514 -0.461,6.349 2.733,14.737 2.931,1.175 5.994,2.69 9.308,5.022 5.875,4.134 10.16,7.039 16.267,10.81 C -5.465,-3.698 -2.736,-1.854 0,0"
             style="fill:#cc662b;fill-opacity:1;fill-rule:evenodd;stroke:none"
             id="path10833" />
        </g>
        <g
           id="g10835"
           transform="translate(583.9658,212.707)">
          <path
             d="m 0,0 c -0.43,-4.627 -2.13,-9.561 -7.493,-18.713 -6.205,-10.588 -12.116,-21.124 -23.887,-25.808 -10.736,-4.269 -16.152,-7.409 -23.256,-16.812 -8.532,-11.861 -12.756,-14.922 -27.295,-18.247 -10.836,-2.283 -15.717,-3.658 -26.171,-7.431 -26.559,-9.585 -32.281,10.647 -63.072,2.674 l -3.155,-0.818 c -31.932,-8.161 -32.263,4.194 -58.952,13.998 -10.235,3.488 -17.737,2.957 -28.862,7.523 -22.139,9.104 -15.246,5.963 -37.593,6.223 -10.458,0.123 -16.957,3.837 -29.209,2.777 -10.101,-0.874 -14.46,-3.386 -23.654,-6.603 -13.901,-4.866 -0.841,17.359 0.585,21.575 3.997,11.815 -6.269,13.123 -4.254,20.587 0.374,1.381 1.026,2.697 1.645,3.977 3.537,6.914 2.952,15.044 2.206,22.66 -0.41,4.199 -2.96,7.956 -3.893,13.292 -0.994,6.002 -1.022,10.013 -1.788,13.403 l 0.039,0.03 c 8.232,-6.193 12.263,-12.916 18.931,-17.902 9.512,-7.114 -1.355,-11.406 5.294,-20.042 5.832,-7.576 3.917,-5.511 7.608,-12.9 3.011,-6.024 9.158,-8.048 10.99,-0.552 2.076,8.511 -3.48,15.007 -3.266,25.693 0.168,8.528 -23.683,47.629 10.338,28.062 7.545,-4.337 13.564,-4.772 20.116,-8.79 13.133,-8.047 19.692,-8.518 29.019,-22.113 8.477,-13.046 4.466,-11.028 9.28,-22.51 4.017,-9.582 24.649,-19.552 34.856,-21.664 13.377,-2.772 24.764,-6.668 38.16,-8.649 31.725,-4.692 18.888,-2.349 47.715,3.448 34.695,6.978 54.587,-25.057 79.306,5.797 C -27.551,-10.171 -31.794,-16.132 0,0"
             style="fill:#cf6425;fill-opacity:1;fill-rule:evenodd;stroke:none"
             id="path10837" />
        </g>
        <g
           id="g10839"
           transform="translate(328.1855,295.0654)">
          <path
             d="m 0,0 c -0.642,28.263 20.714,20.751 35.892,31.564 4.931,3.513 8.577,6.418 13.866,9.741 1.007,0.633 2.018,1.263 3.028,1.896 8.139,6.108 15.591,12.664 23.509,18.789 9.98,7.5 19.402,10.936 31.9,10.418 12.941,-0.536 11.834,0.225 23.439,3.19 13.29,2.932 23.769,-2.911 35.741,-7.648 22.026,-9.105 17.924,-21.742 37.091,-29.752 8.758,-3.66 11.583,-7.54 13.186,-17.138 2.428,-14.717 1.692,-16.003 9.889,-28.943 7.271,-12.058 6.427,-20.16 6.33,-33.673 -0.145,-20.33 -7.895,-22.917 -26.559,-24.709 -13.659,-1.557 -17.607,-6.338 -29.003,-12.876 -13.429,-7.759 -14.678,-9.926 -25.405,-20.42 -6.679,-6.332 -14.408,-10.495 -22.634,-14.501 -23.673,-10.959 -28.342,8.383 -47.101,8.905 -12.61,0.351 -22.672,2.238 -22.911,17.474 -0.214,13.55 -2.943,14.198 -12.823,21.306 -10.092,7.973 -6.327,12.522 -21.743,14.221 C 12.733,-50.728 5.84,-46.819 3.96,-33.458 3.101,-27.354 2.317,-23.977 1.007,-17.986 -0.042,-13.199 0.118,-5.157 0,0"
             style="fill:#e8844b;fill-opacity:1;fill-rule:evenodd;stroke:none"
             id="path10841" />
        </g>
        <g
           id="g10843"
           transform="translate(328.1855,295.0654)">
          <path
             d="m 0,0 c -0.642,28.263 20.714,20.751 35.892,31.564 4.931,3.513 8.575,6.418 13.866,9.742 1.007,0.633 2.018,1.262 3.028,1.895 8.139,6.108 15.591,12.664 23.509,18.789 9.98,7.5 19.402,10.936 31.9,10.418 12.941,-0.536 11.834,0.225 23.441,3.19 13.288,2.932 23.765,-2.911 35.739,-7.648 1.064,-0.439 2.064,-0.887 3.009,-1.342 -5.463,-3.362 -12.069,-6.437 -20.519,-13.313 -7.479,-6.374 -10.583,-12.38 -19.31,-18.975 -17.378,-13.115 -11.731,-9.164 -22.392,-26.258 -4.989,-8 -10.892,-11.4 -15.812,-21.291 -4.054,-8.154 -4.158,-12.597 -5.981,-21.064 -0.043,-0.196 -0.085,-0.382 -0.132,-0.563 l -0.006,-0.026 c -0.045,-0.175 -0.091,-0.346 -0.14,-0.506 l -0.005,-0.016 c -0.048,-0.162 -0.1,-0.318 -0.151,-0.465 l -0.013,-0.036 c -0.05,-0.139 -0.1,-0.272 -0.151,-0.396 l -0.019,-0.043 c -0.055,-0.132 -0.112,-0.257 -0.171,-0.378 l -0.002,-0.002 c -0.056,-0.116 -0.116,-0.226 -0.177,-0.33 l -0.024,-0.047 c -0.058,-0.095 -0.114,-0.185 -0.173,-0.27 l -0.021,-0.032 c -0.065,-0.091 -0.131,-0.179 -0.197,-0.259 l -0.016,-0.018 c -0.063,-0.073 -0.126,-0.142 -0.193,-0.209 l -0.03,-0.028 c -0.064,-0.064 -0.128,-0.121 -0.194,-0.173 l -0.034,-0.027 c -0.066,-0.05 -0.132,-0.096 -0.2,-0.139 l -0.041,-0.025 c -0.066,-0.037 -0.131,-0.072 -0.2,-0.104 l -0.037,-0.017 c -0.071,-0.033 -0.146,-0.059 -0.222,-0.082 l -0.041,-0.011 c -0.067,-0.022 -0.133,-0.036 -0.203,-0.05 l -0.053,-0.009 c -0.066,-0.009 -0.134,-0.016 -0.2,-0.023 l -0.08,-0.004 c -0.062,-10e-4 -0.127,0 -0.191,0.004 l -0.087,0.004 c -0.06,0.005 -0.118,0.01 -0.177,0.021 l -0.097,0.014 c -0.058,0.011 -0.119,0.023 -0.178,0.038 l -0.124,0.031 -0.164,0.049 -0.112,0.039 -0.172,0.068 -0.134,0.057 -0.147,0.068 -0.162,0.079 -0.002,0.003 -0.126,0.066 -0.004,0.003 -0.19,0.109 -0.099,0.059 c -0.069,0.043 -0.138,0.088 -0.209,0.134 l -0.02,0.014 c -0.119,0.076 -0.237,0.16 -0.352,0.246 l -0.027,0.018 c -0.082,0.06 -0.162,0.121 -0.242,0.185 l -0.037,0.029 c -0.082,0.062 -0.16,0.125 -0.238,0.191 l -0.133,0.109 v 0.002 c -2.566,1.005 -4.429,1.214 -9.727,1.237 -5.993,0.023 -10.109,0.612 -13.098,1.575 l -0.178,-0.49 -0.025,-0.069 -0.162,-0.466 -0.038,-0.109 -0.126,-0.375 -0.08,-0.248 -0.118,-0.363 -0.054,-0.174 -0.115,-0.378 -0.083,-0.278 -0.08,-0.28 -0.085,-0.307 -0.086,-0.305 -0.004,-0.017 c -0.048,-0.177 -0.094,-0.354 -0.139,-0.533 l -0.006,-0.019 -0.136,-0.555 -0.002,-0.009 -0.078,-0.34 -0.054,-0.236 -0.071,-0.326 -0.056,-0.259 -0.073,-0.352 -0.043,-0.224 -0.066,-0.351 -0.043,-0.228 -0.064,-0.375 -0.035,-0.218 -0.05,-0.317 -0.049,-0.322 -0.041,-0.286 -0.03,-0.216 -0.046,-0.372 c -0.026,-0.185 -0.045,-0.37 -0.067,-0.555 l -0.002,-0.025 -0.053,-0.529 -0.003,-0.035 -0.028,-0.307 -0.022,-0.273 -0.025,-0.36 -0.013,-0.193 -0.023,-0.362 -0.012,-0.271 -0.013,-0.294 -0.011,-0.27 -0.01,-0.333 -0.004,-0.266 -0.005,-0.299 -0.002,-0.3 0.002,-0.296 -0.002,-0.011 0.009,-0.553 v -0.007 l 0.014,-0.542 0.002,-0.022 0.014,-0.311 0.011,-0.274 0.018,-0.292 0.02,-0.307 0.017,-0.25 0.029,-0.368 0.017,-0.197 0.036,-0.391 0.022,-0.213 0.041,-0.369 0.026,-0.222 0.047,-0.369 0.028,-0.222 0.005,-0.033 0.079,-0.535 0.002,-0.009 0.003,-0.026 0.091,-0.559 0.022,-0.122 0.079,-0.451 0.043,-0.218 0.067,-0.348 0.05,-0.246 0.078,-0.367 0.043,-0.193 0.08,-0.351 0.062,-0.263 0.08,-0.32 0.062,-0.254 0.085,-0.324 0.065,-0.242 0.101,-0.361 0.054,-0.193 0.009,-0.028 c 0.107,-0.37 0.221,-0.739 0.34,-1.108 l 0.079,-0.244 0.112,-0.336 0.075,-0.218 0.129,-0.363 0.073,-0.203 0.137,-0.371 0.069,-0.186 0.147,-0.378 0.08,-0.205 0.152,-0.373 0.076,-0.187 c 0.145,-0.346 0.293,-0.691 0.449,-1.036 l 0.031,-0.07 0.008,-0.019 0.231,-0.5 0.009,-0.022 0.15,-0.311 0.113,-0.238 0.127,-0.26 0.165,-0.328 0.096,-0.19 0.186,-0.354 0.114,-0.22 0.171,-0.318 0.127,-0.231 0.19,-0.341 0.108,-0.191 0.272,-0.471 0.032,-0.057 c 0.11,-0.185 0.222,-0.371 0.334,-0.556 l 0.175,-0.291 0.173,-0.292 0.171,-0.295 0.168,-0.294 0.168,-0.298 0.162,-0.296 v -0.002 l 0.162,-0.3 0.159,-0.301 0.157,-0.303 0.153,-0.304 0.153,-0.306 0.149,-0.307 0.148,-0.309 0.145,-0.308 v -0.002 l 0.14,-0.311 0.139,-0.311 0.138,-0.315 0.135,-0.317 0.132,-0.316 0.13,-0.319 0.127,-0.317 0.125,-0.322 0.121,-0.322 0.119,-0.323 0.118,-0.324 0.115,-0.327 v -0.002 l 0.112,-0.325 v -0.002 l 0.108,-0.328 0.108,-0.33 0.103,-0.331 0.102,-0.332 0.098,-0.332 0.096,-0.335 0.093,-0.336 0.091,-0.337 0.088,-0.339 0.085,-0.338 0.082,-0.341 0.081,-0.342 0.076,-0.343 0.075,-0.343 0.071,-0.345 0.068,-0.347 0.066,-0.346 0.063,-0.349 0.06,-0.35 0.059,-0.349 0.054,-0.35 0.051,-0.353 0.048,-0.353 0.047,-0.356 0.043,-0.354 0.041,-0.357 0.037,-0.357 0.034,-0.36 0.031,-0.359 0.03,-0.358 0.024,-0.362 0.022,-0.362 0.019,-0.364 0.017,-0.364 0.014,-0.364 0.01,-0.366 0.008,-0.365 c 0.059,-3.665 -0.347,-7.245 -1.156,-10.691 -3.027,2.563 -4.861,6.606 -4.962,13.008 -0.214,13.55 -2.943,14.198 -12.823,21.306 -10.092,7.973 -6.327,12.522 -21.743,14.221 -12.959,1.428 -19.852,5.337 -21.732,18.698 -0.615,4.37 -1.191,7.342 -1.951,10.877 1.27,1.58 2.389,3.317 3.328,5.199 L 10.629,-6.78 C 6.77,-3.556 3.463,-2.045 0.025,-1.358 0.019,-0.889 0.01,-0.434 0,0"
             style="fill:#d97338;fill-opacity:1;fill-rule:evenodd;stroke:none"
             id="path10845" />
        </g>
        <g
           id="g10847"
           transform="translate(425.0176,351.3086)">
          <path
             d="m 0,0 c 6.394,-1.695 15.405,-6.237 21.524,-1.899 15.128,10.648 14.059,3.46 29.486,1.253 15.307,-2.189 20.817,-0.06 30.349,-14.078 3.828,-5.629 3.848,-6.259 9.967,-9.047 2.585,-1.176 3.783,-3.86 5.795,-6.11 l 1.025,-1.143 c 5.931,-6.254 11.719,-14.052 12.642,-22.833 0.351,-6.324 -1.653,-12.478 -3.837,-18.322 -3.034,-7.843 -7.342,-17.356 -17.302,-14.462 -10.508,3.054 -6.588,4.087 -19.202,3.125 -3.912,-0.299 -7.197,-0.024 -11.088,0.274 -2.184,0.171 -3.256,0.101 -5.408,-0.209 -8.024,-1.573 -9.786,-3.658 -17.909,0.827 -6.569,3.632 -10.152,6.418 -17.744,6.975 -10.93,1.545 -13.026,9.994 -23.482,11.669 -8.117,1.299 -7.846,6.915 -9.312,14.476 -2.057,10.603 -7.663,35.287 -2.788,44.886 3.121,6.148 8.943,6.367 14.986,5.141 z"
             style="fill:#f59862;fill-opacity:1;fill-rule:evenodd;stroke:none"
             id="path10849" />
        </g>
        <g
           id="g10851"
           transform="translate(425.0176,351.3086)">
          <path
             d="m 0,0 c 6.394,-1.695 15.405,-6.237 21.524,-1.899 15.128,10.648 14.059,3.46 29.488,1.253 1.51,-0.215 2.922,-0.39 4.253,-0.541 -0.73,-0.559 -1.472,-1.144 -2.232,-1.761 C 45.554,-9.322 42.45,-15.328 33.723,-21.923 16.345,-35.038 21.992,-31.087 11.331,-48.182 7.213,-54.784 2.47,-58.255 -1.825,-64.828 c -1.024,0.36 -2.133,0.651 -3.359,0.848 -8.119,1.299 -7.844,6.915 -9.312,14.476 -2.057,10.603 -7.663,35.287 -2.788,44.886 3.121,6.148 8.943,6.367 14.986,5.141 z"
             style="fill:#e8844b;fill-opacity:1;fill-rule:evenodd;stroke:none"
             id="path10853" />
        </g>
        <g
           id="g10855"
           transform="translate(107.1929,262.4063)">
          <path
             d="m 0,0 c 12.718,19.968 59.338,15.277 58.957,-14.171 0.095,-19.305 7.46,-22.536 24.975,-25.242 6.658,-1.029 18.853,-3.309 8.575,-10.836 -11.319,-8.29 -14.041,-7.247 -23.39,-19.523 l -2.07,-2.717 c -10.766,-13.54 -15.636,-23.194 -34.326,-16.383 -17.823,6.721 -18.548,23.353 -0.643,29.833 6.25,2.33 14.428,5.583 9.7,13.556 -3.45,5.097 -13.428,8.015 -19.061,9.985 -10.976,4.183 -19.293,8.833 -24.065,20.166 C -3.637,-9.561 -2.71,-5.365 0,0"
             style="fill:#f7e8c3;fill-opacity:1;fill-rule:evenodd;stroke:none"
             id="path10857" />
        </g>
        <g
           id="g10859"
           transform="translate(153.0146,196.2012)">
          <path
             d="m 0,0 c 7.173,-7.609 -10.989,-17.701 -17.961,-10.874 -6.914,6.767 8.128,16.13 16.596,11.733 z m -23.737,74.237 c 6.512,0.453 17.217,-1.24 16.936,-9.685 -0.429,-12.928 -30.128,-10.367 -29.727,1.527 0.197,5.823 8.236,7.513 12.791,8.158"
             style="fill:#faf1dc;fill-opacity:1;fill-rule:evenodd;stroke:none"
             id="path10861" />
        </g>
        <g
           id="g10863"
           transform="translate(333.5713,324.5508)">
          <path
             d="m 0,0 c -9.394,-5.888 -14.821,-8.926 -24.972,-13.529 -4.12,-1.869 -7.967,-3.625 -11.669,-5.691 v -5.324 c 10.146,1.33 15.772,2.584 27.255,-6.748 10.196,-8.284 10.322,-3.401 21.893,-5.503 l 1.997,-0.409 1.092,-0.261 c 14.724,-4.65 8.583,-15.469 33.265,-12.771 6.577,0.72 7.822,0.527 12.088,-0.864 v 18.337 c -1.489,2.855 -3.061,5.645 -4.327,8.248 -2.344,4.814 -3.761,7.47 -5.198,12.69 C 34.287,-7.869 17.141,-3.941 0,0"
             style="fill:#8a3605;fill-opacity:1;fill-rule:evenodd;stroke:none"
             id="path10865" />
        </g>
        <g
           id="g10867"
           transform="translate(288.4922,266.4834)">
          <path
             d="M 0,0 C 1.273,0.211 2.546,0.357 3.807,0.439 14.979,1.18 24.083,8.271 27.534,18.923 L 40.094,57.674 92.381,45.172 81.989,12.371 c -4.338,-13.694 -1.768,-27.464 7.217,-38.673 4.623,-5.766 7.871,-12.765 9.159,-20.577 3.997,-24.26 -12.429,-47.169 -36.689,-51.168 -18.834,-3.103 -36.851,6.106 -45.84,21.731 -1.033,-0.259 -2.084,-0.479 -3.152,-0.656 -21.256,-3.501 -41.326,10.89 -44.827,32.146 C -35.646,-23.572 -21.256,-3.503 0,0"
             style="fill:#eddaa8;fill-opacity:1;fill-rule:evenodd;stroke:none"
             id="path10869" />
        </g>
        <g
           id="g10871"
           transform="translate(319.6543,296.5996)">
          <path
             d="M 0,0 8.932,27.558 61.219,15.056 50.827,-17.745 c -4.338,-13.694 -1.768,-27.464 7.217,-38.673 4.623,-5.767 7.871,-12.766 9.159,-20.577 3.997,-24.26 -12.429,-47.169 -36.689,-51.168 -18.834,-3.104 -36.851,6.105 -45.84,21.73 -1.033,-0.258 -2.084,-0.478 -3.153,-0.655 -17.759,-2.925 -34.69,6.643 -41.823,22.266 14.701,-13.226 30.89,-18.261 49.791,-8.378 12.703,-36.197 64.327,-17.423 51.865,21.18 -2.911,9.015 -3.107,17.497 -0.615,26.638 2.2,8.064 -0.96,17.585 -1.213,25.858 -0.084,2.74 -5.754,0.632 -7.88,2.363 -3.771,3.069 -4.789,9.109 -9.063,11.426 C 15.757,-2.032 2.941,-7.187 0,0"
             style="fill:#e3cd96;fill-opacity:1;fill-rule:evenodd;stroke:none"
             id="path10873" />
        </g>
        <g
           id="g10875"
           transform="translate(280.7676,444.5435)">
          <path
             d="m 0,0 c -1.987,9.784 -1.066,17.773 -0.984,27.555 0.017,9.929 -1.806,13.81 -3.466,22.892 -1.163,19.122 9.692,26.073 10.512,48.65 0.704,19.343 2.474,18.732 15.907,31.686 16.522,15.934 26.344,12.296 42.656,24.97 17.781,14.834 29.648,15.492 50.824,9.005 17.426,-5.338 20.348,1.988 39.26,-5.516 6.095,-2.418 11.775,-5.152 17.633,-8.077 15.279,-7.754 17.346,-3.529 29.461,-19.709 6.56,-8.764 13.179,-17.266 12.962,-28.562 -0.201,-10.303 0.508,-15.843 5.784,-24.933 6.804,-11.117 7.86,-15.648 5.567,-28.752 -1.868,-9.698 -2.426,-14.188 -2.938,-24.088 -1.3,-25.15 -19.912,-22.861 -24.002,-50.935 l -0.42,-2.877 c -4.327,-29.075 -14.601,-25.077 -31.888,-43.632 -6.405,-7.209 -8.563,-13.56 -16.163,-21.13 -15.141,-15.055 -10.175,-10.473 -18.113,-28.758 -3.716,-8.557 -9.017,-12.616 -12.383,-23.057 -2.774,-8.607 -2.213,-13.061 -2.744,-21.731 -0.807,-13.112 -14.566,5.308 -17.539,7.939 -8.333,7.372 -12.957,-0.618 -18.399,3.621 -1.006,0.783 -1.862,1.773 -2.702,2.728 -4.463,5.296 -11.348,7.626 -17.867,9.646 -3.596,1.113 -7.565,0.316 -12.275,1.394 -12.505,2.977 -13.947,6.552 -27.136,-1.584 -3.077,-1.898 -7.349,-4.911 -10.884,-1.986 -3.566,2.951 3.065,10.328 2.97,15.935 -0.27,8.786 -1.44,6.206 0.6,15.537 2.925,13.386 -0.38,24.819 -2.19,37.949 -0.899,6.508 -2.48,10.495 -4.69,16.548 -4.995,13.764 0.438,20.114 -2.48,33.475 C 3.505,-19.538 2.597,-15.01 1.608,-8.686 1.152,-5.772 0.58,-2.89 0,0"
             style="fill:#d97338;fill-opacity:1;fill-rule:evenodd;stroke:none"
             id="path10877" />
        </g>
        <g
           id="g10879"
           transform="translate(469.7764,588.6289)">
          <path
             d="m 0,0 c 3.654,-1.953 7.124,-5.056 12.794,-12.63 6.56,-8.763 13.18,-17.266 12.962,-28.561 -0.2,-10.304 0.509,-15.844 5.784,-24.934 6.805,-11.117 7.86,-15.648 5.567,-28.751 -1.868,-9.699 -2.425,-14.188 -2.938,-24.088 -1.3,-25.151 -19.912,-22.861 -24.002,-50.935 l -0.42,-2.877 c -4.327,-29.076 -14.601,-25.078 -31.888,-43.632 -6.405,-7.209 -8.563,-13.561 -16.163,-21.13 -15.14,-15.056 -10.175,-10.474 -18.113,-28.759 -3.716,-8.557 -9.017,-12.615 -12.383,-23.057 -2.773,-8.606 -2.213,-13.06 -2.744,-21.73 -0.807,-13.112 -14.565,5.308 -17.539,7.938 -8.333,7.373 -12.957,-0.618 -18.399,3.622 -1.005,0.783 -1.862,1.773 -2.702,2.727 -4.463,5.297 -11.347,7.626 -17.867,9.647 -3.596,1.113 -7.564,0.316 -12.275,1.393 -5.279,1.257 -8.586,2.62 -11.638,3.164 l -0.013,0.041 c 7.94,4.628 14.86,5.619 21.265,9.378 9.138,5.362 8.911,-5.058 18.31,-2.577 8.245,2.177 5.885,1.316 13.234,1.799 5.997,0.392 9.785,4.747 4.256,8.843 -6.28,4.65 -13.543,2.328 -22.257,6.196 -6.952,3.087 -47.347,-3.007 -19.498,18.203 6.175,4.703 8.614,9.503 14.182,13.501 11.156,8.016 13.812,13.246 28.215,16.214 13.658,2.461 10.611,-0.14 21.716,-0.152 9.264,-0.008 24.597,13.511 29.862,21.17 6.903,10.042 14.043,18.058 20.303,28.387 14.827,24.463 8.46,14.718 13.659,40.424 6.259,30.939 39.476,36.221 22.651,67.211 C -1.163,-26.169 2.27,-31.718 0,0"
             style="fill:#cf6425;fill-opacity:1;fill-rule:evenodd;stroke:none"
             id="path10881" />
        </g>
        <g
           id="g10883"
           transform="translate(313.6328,406.793)">
          <path
             d="m 0,0 c -23.46,9.242 -9.899,24.206 -13.543,40.422 -1.186,5.269 -2.313,9.271 -3.216,14.768 -0.173,1.048 -0.343,2.097 -0.513,3.146 -2.208,8.803 -5.022,17.198 -7.321,25.825 -2.717,10.799 -2.285,19.734 2.462,29.831 4.914,10.454 3.906,9.808 5.481,20.376 2.183,11.94 10.609,18.535 18.643,26.742 15.102,14.963 24.073,7.221 37.285,20.212 6.037,5.936 10.204,6.917 18.65,4.917 12.94,-3.091 13.743,-4.142 27.217,-1.875 12.428,1.809 18.798,-1.685 29.875,-6.436 16.666,-7.149 16.113,-14.414 11.134,-30.378 -3.442,-11.769 -0.877,-16.669 0.561,-28.299 1.737,-13.726 3.088,-15.501 8.007,-27.949 2.896,-7.681 3.649,-15.475 4.098,-23.623 C 139.645,44.426 122.129,47.272 115.216,32.03 110.567,21.782 105.537,14.162 92.927,19.232 81.713,23.741 80.236,21.721 70.978,16.055 60.932,10.513 58.495,15.182 51.768,3.094 46.111,-7.067 40.516,-11.385 28.88,-8.312 23.565,-6.907 20.516,-6.383 15.139,-5.392 10.84,-4.599 4.283,-1.686 0,0"
             style="fill:#e8844b;fill-opacity:1;fill-rule:evenodd;stroke:none"
             id="path10885" />
        </g>
        <g
           id="g10887"
           transform="translate(300.8643,505.8525)">
          <path
             d="m 0,0 c 3.604,4.671 10.454,10.512 9.004,17.042 -3.526,16.12 2.014,12.756 9.162,24.678 7.092,11.829 7.245,17.095 22.067,20.087 5.951,1.201 6.477,0.999 10.883,5.067 1.862,1.718 4.482,1.776 7.03,2.653 l 1.292,0.446 c 7.194,2.716 15.607,4.78 23.143,2.501 5.322,-1.897 9.69,-5.673 13.739,-9.487 5.4,-5.208 11.734,-12.037 5.909,-19.225 -6.144,-7.585 -5.637,-4.005 -9.207,-14.71 -1.105,-3.319 -2.466,-5.927 -4.057,-9.021 -0.896,-1.738 -1.209,-2.643 -1.698,-4.52 C 85.786,8.37 86.893,6.2 80.395,1.072 75.138,-3.073 71.61,-5.058 68.527,-11.107 c -5.048,-8.452 -12.72,-7.254 -17.713,-15.273 -3.876,-6.225 -8.399,-4.059 -15.124,-2.652 -9.426,1.974 -31.661,5.899 -37.868,13.224 -3.976,4.693 -2.142,9.555 0.954,14.1 z"
             style="fill:#f59862;fill-opacity:1;fill-rule:evenodd;stroke:none"
             id="path10889" />
        </g>
        <g
           id="g10891"
           transform="translate(264.0898,213.7969)">
          <path
             d="m 0,0 c -12.023,17.36 7.952,54.071 32.031,43.578 15.906,-6.597 21.11,-1.657 29.39,11.808 3.147,5.117 9.237,14.356 11.874,3.304 C 76.198,46.516 74.4,44.639 81.26,32.708 l 1.52,-2.64 C 90.191,16.536 96.442,9.194 84.384,-3.819 72.697,-16.151 58.771,-10.997 59.63,5.966 59.876,11.909 60.029,19.759 51.837,18.626 46.454,17.553 40.605,10.357 37.04,6.404 29.806,-1.172 23.108,-6.403 12.14,-6.409 6.602,-6.295 3.475,-4.083 0,0"
             style="fill:#f7e8c3;fill-opacity:1;fill-rule:evenodd;stroke:none"
             id="path10893" />
        </g>
        <g
           id="g10895"
           transform="translate(334.3643,228.585)">
          <path
             d="m 0,0 c 8.736,3.267 10.756,-15.154 2.732,-18.527 -7.956,-3.344 -10.453,12.259 -3.909,17.703 z m -69.245,6.146 c 1.879,5.512 6.97,13.729 13.818,10.578 10.481,-4.822 -1.892,-28.356 -11.533,-23.915 -4.72,2.175 -3.328,9.371 -2.285,13.337"
             style="fill:#faf1dc;fill-opacity:1;fill-rule:evenodd;stroke:none"
             id="path10897" />
        </g>
      </g>
    </g>
  </g>
</svg>
