<?xml version="1.0" encoding="UTF-8"?>
<!DOCTYPE svg PUBLIC "-//W3C//DTD SVG 1.1//EN" "http://www.w3.org/Graphics/SVG/1.1/DTD/svg11.dtd">
<svg version="1.1" xmlns="http://www.w3.org/2000/svg" xmlns:xlink="http://www.w3.org/1999/xlink" x="0" y="0" width="1402.5" height="875.5" viewBox="0, 0, 1402.5, 875.5">
  <defs>
    <linearGradient id="Gradient_1" gradientUnits="userSpaceOnUse" x1="727.923" y1="669.537" x2="1387.81" y2="669.537">
      <stop offset="0" stop-color="#2F3130"/>
      <stop offset="1" stop-color="#FFFFFE"/>
    </linearGradient>
    <linearGradient id="Gradient_2" gradientUnits="userSpaceOnUse" x1="687.709" y1="233.572" x2="1269.28" y2="233.572">
      <stop offset="0" stop-color="#C6C9CA"/>
      <stop offset="1" stop-color="#FFFFFE"/>
    </linearGradient>
    <linearGradient id="Gradient_3" gradientUnits="userSpaceOnUse" x1="915.646" y1="70.831" x2="962.299" y2="70.831">
      <stop offset="0" stop-color="#999EA0"/>
      <stop offset="1" stop-color="#C6C9CA"/>
    </linearGradient>
    <clipPath id="Clip_1">
      <path d="M922.854,35.692 C932.994,35.692 959.616,54.043 961.52,55.497 C963.424,56.942 939.267,102.349 922.854,107.177 C911.982,110.364 912.705,35.692 922.854,35.692 z"/>
    </clipPath>
    <linearGradient id="Gradient_4" gradientUnits="userSpaceOnUse" x1="716.295" y1="68.731" x2="790.108" y2="68.731">
      <stop offset="0" stop-color="#999EA0"/>
      <stop offset="1" stop-color="#C6C9CA"/>
    </linearGradient>
    <linearGradient id="Gradient_5" gradientUnits="userSpaceOnUse" x1="1065.925" y1="155.21" x2="1165.948" y2="187.779">
      <stop offset="0" stop-color="#FFFFFE"/>
      <stop offset="1" stop-color="#C6C9CA"/>
    </linearGradient>
    <clipPath id="Clip_2">
      <path d="M1102.56,143.548 C1104.524,143.548 1106.3,143.82 1107.83,144.364 C1121.354,149.192 1154.206,154.946 1154.206,154.946 C1154.206,154.946 1041.666,187.51 1049.393,176.239 C1060.995,159.281 1087.303,143.548 1102.56,143.548 z"/>
    </clipPath>
    <linearGradient id="Gradient_6" gradientUnits="userSpaceOnUse" x1="1153.305" y1="261.494" x2="1233.596" y2="261.494">
      <stop offset="0" stop-color="#FFFFFE"/>
      <stop offset="1" stop-color="#C6C9CA"/>
    </linearGradient>
    <clipPath id="Clip_3">
      <path d="M1170.127,233.495 C1183.047,233.495 1200.608,237.124 1214.047,248.106 C1227.835,259.833 1235.159,271.992 1230.975,289.976 L1230.019,289.976 C1204.735,273.617 1179.535,257.128 1154.207,240.839 C1148.588,237.252 1156.969,233.495 1170.127,233.495 z"/>
    </clipPath>
    <linearGradient id="Gradient_7" gradientUnits="userSpaceOnUse" x1="1215.593" y1="374.561" x2="1304.838" y2="374.561">
      <stop offset="0" stop-color="#FFFFFE"/>
      <stop offset="1" stop-color="#C6C9CA"/>
    </linearGradient>
    <linearGradient id="Gradient_8" gradientUnits="userSpaceOnUse" x1="759.398" y1="28.101" x2="1023.878" y2="681.697">
      <stop offset="0" stop-color="#694129"/>
      <stop offset="1" stop-color="#1A1919"/>
    </linearGradient>
    <clipPath id="Clip_4">
      <path d="M722.092,29.418 C743.988,46.155 633.216,147.9 707.922,186.541 C782.62,225.182 808.384,294.729 814.827,330.803 C821.27,366.86 953.921,365.568 1011.874,393.907 C1069.844,422.246 1104.626,472.481 1161.295,466.038 C1217.965,459.595 1267.63,408.076 1267.63,408.076 C1211.607,572.296 1044.08,772.573 714.357,663.093 C420.699,369.444 626.773,86.079 722.092,29.418 z"/>
    </clipPath>
    <linearGradient id="Gradient_9" gradientUnits="userSpaceOnUse" x1="681.785" y1="240.116" x2="1279.332" y2="240.116">
      <stop offset="0" stop-color="#BFA17F"/>
      <stop offset="1" stop-color="#493421"/>
    </linearGradient>
  </defs>
  <g id="Layer_1">
    <path d="M1124.827,607.674 C1199.481,612.412 1277.53,613.76 1349.052,638.633 C1358.369,641.874 1384.225,650.915 1387.812,664.286 L1387.812,672.205 C1377.526,700.536 1291.852,712.612 1268.806,716.19 C1199.352,726.974 1129.11,729.711 1058.938,730.38 C876.716,730.38 728.994,702.559 728.994,668.245 C738.008,635.721 823.101,624.337 849.062,620.307 C896.787,612.897 944.838,609.525 993.047,607.674 L1124.827,607.674 z" fill="url(#Gradient_1)"/>
    <path d="M964.521,560.516 C896.393,529.678 571.217,695.657 383.979,811.776 C518.007,804.704 1031.076,671.993 1099.943,594.388" fill="#007D50"/>
    <path d="M922.539,544.162 C854.403,513.324 487.688,702.483 300.458,818.601 C434.486,811.529 989.086,655.639 1057.961,578.043" fill="#00A75D"/>
    <path d="M931.099,573.096 C869.117,531.233 262.072,632.477 57.987,715.454 C286.017,726.053 783.368,666.443 864.297,601.528" fill="#009858"/>
    <path d="M884.722,565.36 C822.74,523.506 215.696,624.75 11.611,707.727 C239.649,718.318 736.992,658.716 817.93,593.801" fill="#00A75D"/>
    <path d="M1004.233,612.442 C942.251,570.588 547.715,472.141 318.793,540.251 C440.513,614.482 993.88,694.773 1074.817,629.858" fill="#009858"/>
    <path d="M992.647,596.989 C930.665,555.127 502.979,460.658 272.425,511.369 C394.145,585.582 982.294,679.329 1063.214,614.406" fill="#00A75D"/>
    <path d="M641.078,622.047 L126.879,687.829 L638.894,606.756 L641.078,622.047" fill="#009858"/>
    <path d="M696.15,587.248 L300.458,511.369 L698.768,572.016 L696.15,587.248" fill="#009858"/>
    <path d="M720.12,652.35 L421.183,780.564 L713.694,638.291 L720.12,652.35" fill="#009858"/>
    <path d="M842.333,658.444 C882.581,646.578 1045.135,776.297 1140.182,855.262 C1066.274,840.982 796.756,715.25 764.482,666.825" fill="#00A75D"/>
    <path d="M866.932,652.605 C907.162,640.739 1096.287,774.146 1191.343,853.12 C1117.427,838.831 821.338,709.402 789.08,660.969" fill="#8FBD5F"/>
    <path d="M859.945,668.015 C897.608,649.553 1227.043,752.667 1334.032,814.53 C1206.515,802.808 934.804,731.289 894.854,688.976" fill="#00A75D"/>
    <path d="M886.295,667.301 C923.967,648.839 1253.393,751.953 1360.382,813.816 C1232.865,802.094 961.163,730.575 921.204,688.262" fill="#8FBD5F"/>
    <path d="M816.272,684.233 C853.935,665.762 1080.732,641.52 1202.656,697.051 C1129.302,728.9 815.651,730.77 775.71,688.466" fill="#00A75D"/>
    <path d="M823.896,676.541 C861.577,658.079 1106.462,638.614 1230.647,684.59 C1157.292,716.423 823.293,723.087 783.343,680.765" fill="#8FBD5F"/>
    <path d="M1017.28,717.613 L1297.882,793.858 L1019.669,709.283 L1017.28,717.613" fill="#00A75D"/>
    <path d="M989.366,694.025 L1215.067,682.422 L989.094,685.363 L989.366,694.025" fill="#00A75D"/>
    <path d="M971.031,728.34 L1127.21,822.656 L975.689,721.03 L971.031,728.34" fill="#00A75D"/>
    <path d="M878.492,17.748 C901.438,20.404 920.008,28.924 938.476,41.803 C989.357,81.235 1108.485,133.892 1146.59,146.617 C1184.713,159.35 1220.064,263.509 1232.713,305.686 C1245.369,347.854 1297.5,330.548 1252.416,412.216 C1207.349,493.867 1052.343,416.016 986.119,388.756 C919.904,361.497 835.431,373.312 813.526,320.493 C791.639,267.691 763.776,229.05 716.329,191.157 C668.882,153.255 696.141,110.109 701.709,77.061 C707.276,44.022 759.262,30.966 783.904,26.155 C811.091,20.756 794.372,23.833 834.204,17.748 L878.492,17.748 z" fill="url(#Gradient_2)"/>
    <g clip-path="url(#Clip_1)">
      <path d="M922.854,107.177 C939.267,102.349 963.424,56.942 961.52,55.497 C959.616,54.043 932.994,35.692 922.854,35.692 C912.705,35.692 911.982,110.364 922.854,107.177 z" fill="url(#Gradient_3)"/>
    </g>
    <path d="M934.439,114.895 C923.584,118.091 924.299,43.418 934.439,43.418 C944.579,43.418 971.21,61.77 973.114,63.223 C975.018,64.668 950.87,110.075 934.439,114.895" fill="#C6C9CA"/>
    <path d="M743.516,43.104 C760.884,47.67 786.334,78.351 789.624,94.138 C774.562,89.624 716.329,68.536 716.329,68.536 C720.024,56.512 727.626,45.398 740.613,43.104 L743.516,43.104 z" fill="url(#Gradient_4)"/>
    <path d="M797.351,86.411 C802.425,87.924 769.012,36.159 750.422,35.207 C731.824,34.255 724.055,60.809 724.055,60.809 C724.055,60.809 782.306,81.889 797.351,86.411" fill="#E1E3E3"/>
    <path d="M1045.517,168.513 C1058.624,149.379 1090.457,131.801 1103.972,136.638 C1117.495,141.466 1150.331,147.22 1150.331,147.22 C1150.331,147.22 1037.799,179.784 1045.517,168.513" fill="#838A8B"/>
    <g clip-path="url(#Clip_2)">
      <path d="M1049.393,176.239 C1041.666,187.51 1154.206,154.946 1154.206,154.946 C1154.206,154.946 1121.354,149.192 1107.83,144.364 C1106.3,143.82 1104.524,143.548 1102.56,143.548 C1087.303,143.548 1060.995,159.281 1049.393,176.239 z" fill="url(#Gradient_5)"/>
    </g>
    <path d="M1163.769,272.833 C1152.464,279.667 1158.55,230.333 1214.047,255.833 C1245.845,270.453 1230.766,298.197 1230.766,298.197 C1230.766,298.197 1181.738,261.978 1163.769,272.833" fill="#838A8B"/>
    <g clip-path="url(#Clip_3)">
      <path d="M1170.127,233.495 C1183.047,233.495 1200.608,237.125 1214.046,248.107 C1227.835,259.834 1235.158,271.993 1230.975,289.978 L1230.02,289.978 C1204.736,273.618 1179.536,257.128 1154.206,240.839 C1148.588,237.252 1156.969,233.495 1170.127,233.495 z" fill="url(#Gradient_6)"/>
    </g>
    <path d="M1191.605,340.059 C1206.104,343.748 1253.107,353.046 1259.173,369.443 C1260.465,383.614 1248.862,408.077 1248.862,408.077 C1248.862,408.077 1172.889,355.275 1170.305,346.256 C1170.272,341.136 1169.355,343.553 1174.966,340.059 L1191.605,340.059 z" fill="url(#Gradient_7)"/>
    <g clip-path="url(#Clip_4)">
      <path d="M714.357,663.093 C1044.08,772.573 1211.607,572.296 1267.63,408.076 C1267.63,408.076 1217.965,459.595 1161.295,466.038 C1104.626,472.481 1069.844,422.246 1011.874,393.907 C953.921,365.568 821.27,366.86 814.827,330.803 C808.384,294.729 782.62,225.182 707.922,186.541 C633.216,147.9 743.988,46.155 722.092,29.418 C626.773,86.079 420.699,369.444 714.357,663.093 z" fill="url(#Gradient_8)"/>
    </g>
    <path d="M700.188,180.107 C700.111,180.166 700.961,180.974 701.717,183.124 C702.465,185.241 703.086,188.641 702.567,192.857 C701.7,201.331 697.365,212.653 690.914,225.14 C687.701,231.413 684.046,238.077 679.932,244.936 C675.852,251.821 671.551,259.046 666.893,266.339 C662.337,273.666 657.628,281.248 652.842,288.941 C648.099,296.625 643.254,304.394 638.656,312.273 C633.972,320.093 629.51,328.015 625.294,335.886 C621.163,343.791 617.057,351.543 613.649,359.278 C610.266,367.022 607.121,374.553 604.613,381.846 C602.14,389.164 600.091,396.168 598.604,402.756 C595.705,415.922 594.94,427.295 595.102,435.319 C595.187,439.323 595.331,442.519 595.569,444.669 C595.756,446.845 595.867,448.01 595.867,448.01 C595.867,448.01 595.459,446.913 594.694,444.856 C594.311,443.819 593.895,442.536 593.461,440.997 C592.977,439.484 592.475,437.716 592.05,435.685 C590.138,427.695 588.608,415.735 589.832,401.447 C590.401,394.307 591.566,386.606 593.529,378.658 C595.416,370.694 597.856,362.389 601.06,354.093 C604.239,345.797 607.784,337.331 611.957,329.035 C616.029,320.688 620.627,312.486 625.362,304.394 C630.156,296.353 635.145,288.439 640.262,280.832 C645.303,273.165 650.607,265.889 655.613,258.791 C660.594,251.685 665.669,245.013 670.327,238.621 C674.951,232.195 679.396,226.211 683.332,220.601 C691.16,209.364 697.144,199.682 699.575,192.236 C700.791,188.53 701.088,185.428 700.867,183.337 C700.689,181.237 700.111,180.098 700.188,180.107" fill="#99704F"/>
    <path d="M677.008,176.239 C676.923,176.307 677.782,177.115 678.538,179.257 C679.286,181.382 679.907,184.773 679.38,188.989 C678.521,197.472 674.186,208.794 667.726,221.281 C664.513,227.554 660.867,234.218 656.744,241.069 C652.673,247.954 648.38,255.179 643.722,262.48 C639.166,269.807 634.449,277.372 629.663,285.082 C624.912,292.757 620.075,300.526 615.477,308.406 C610.793,316.234 606.331,324.156 602.106,332.019 C597.975,339.924 593.878,347.676 590.47,355.419 C587.087,363.154 583.942,370.685 581.434,377.987 C578.961,385.305 576.912,392.309 575.425,398.888 C572.526,412.063 571.753,423.436 571.923,431.452 C571.999,435.455 572.144,438.651 572.39,440.802 C572.577,442.978 572.688,444.142 572.688,444.142 C572.688,444.142 572.28,443.046 571.523,440.989 C571.132,439.952 570.707,438.677 570.265,437.138 C569.789,435.617 569.288,433.849 568.871,431.826 C566.967,423.827 565.42,411.876 566.653,397.579 C567.222,390.448 568.395,382.747 570.342,374.791 C572.237,366.826 574.685,358.53 577.881,350.234 C581.06,341.93 584.605,333.464 588.77,325.176 C592.85,316.829 597.448,308.618 602.174,300.535 C606.985,292.485 611.966,284.58 617.075,276.964 C622.124,269.306 627.428,262.03 632.434,254.932 C637.415,247.818 642.473,241.145 647.139,234.753 C651.763,228.336 656.226,222.352 660.153,216.733 C667.981,205.496 673.965,195.815 676.388,188.369 C677.595,184.663 677.901,181.569 677.68,179.478 C677.51,177.378 676.915,176.239 677.008,176.239" fill="#99704F"/>
    <path d="M677.008,126.013 C676.923,126.055 677.705,126.948 678.308,129.081 C678.929,131.189 679.337,134.513 678.614,138.601 C677.263,146.778 672.656,157.743 665.83,169.907 C659.073,182.138 650.292,195.806 640.9,210.367 C636.225,217.643 631.405,225.165 626.501,232.807 C621.622,240.457 616.777,248.285 612.144,256.199 C607.444,264.087 602.905,272.06 598.757,280.075 C594.643,288.082 590.665,296.013 587.316,303.892 C580.55,319.609 575.713,334.883 573.231,348.33 C570.775,361.777 570.435,373.312 571.14,381.319 C571.463,385.322 571.795,388.493 572.16,390.618 C572.5,392.768 572.687,393.907 572.687,393.907 C572.687,393.907 572.356,392.802 571.744,390.703 C571.421,389.666 571.081,388.374 570.732,386.827 C570.341,385.297 569.95,383.52 569.644,381.497 C568.276,373.49 567.179,361.692 568.837,347.676 C570.392,333.668 574.583,317.628 581.026,301.3 C584.273,293.148 587.928,284.835 592.118,276.658 C596.266,268.464 600.788,260.304 605.497,252.272 C610.266,244.282 615.247,236.428 620.236,228.778 C625.192,221.085 630.351,213.741 635.256,206.584 C645.124,192.321 654.534,179.197 662.039,167.637 C665.779,161.849 669.06,156.468 671.687,151.547 C674.296,146.634 676.132,142.129 677.161,138.295 C678.164,134.462 678.266,131.291 677.9,129.183 C677.586,127.067 676.914,126.03 677.008,126.013" fill="#99704F"/>
    <path d="M680.867,71.919 C680.791,71.953 681.564,72.854 682.176,74.987 C682.788,77.095 683.205,80.427 682.482,84.507 C681.131,92.693 676.515,103.649 669.698,115.813 C662.932,128.044 654.152,141.721 644.759,156.264 C640.093,163.549 635.265,171.071 630.369,178.713 C625.481,186.354 620.645,194.174 616.004,202.105 C611.303,209.993 606.764,217.974 602.625,225.973 C598.519,233.988 594.524,241.919 591.184,249.79 C584.409,265.515 579.581,280.789 577.099,294.236 C574.634,307.683 574.303,319.209 575.008,327.225 C575.323,331.22 575.654,334.39 576.02,336.524 C576.36,338.666 576.547,339.813 576.547,339.813 C576.547,339.813 576.224,338.7 575.612,336.617 C575.28,335.572 574.94,334.271 574.6,332.733 C574.209,331.203 573.81,329.426 573.504,327.403 C572.144,319.405 571.039,307.598 572.705,293.582 C574.26,279.565 578.451,263.534 584.894,247.206 C588.141,239.054 591.796,230.741 595.986,222.564 C600.134,214.362 604.656,206.202 609.365,198.178 C614.134,190.188 619.106,182.334 624.096,174.675 C629.051,167 634.219,159.647 639.124,152.49 C648.992,138.219 658.393,125.095 665.907,113.543 C669.639,107.738 672.928,102.374 675.546,97.444 C678.164,92.531 680,88.035 681.02,84.201 C682.023,80.368 682.125,77.197 681.768,75.089 C681.445,72.973 680.782,71.936 680.867,71.919" fill="#99704F"/>
    <path d="M714.935,220.677 C714.858,220.737 715.742,221.587 716.482,223.882 C717.179,226.134 717.612,229.755 716.822,234.124 C716.091,238.485 714.586,243.687 712.172,249.254 C709.818,254.864 706.834,261.01 703.179,267.427 C699.584,273.887 695.529,280.764 690.982,287.819 C686.468,294.908 681.742,302.362 676.617,309.885 C671.593,317.441 666.391,325.244 661.121,333.183 C655.885,341.114 650.539,349.129 645.413,357.247 C640.228,365.322 635.256,373.507 630.496,381.608 C625.838,389.768 621.256,397.783 617.329,405.782 C613.436,413.772 609.815,421.566 606.874,429.148 C603.984,436.739 601.536,444.015 599.726,450.874 C596.181,464.585 594.983,476.502 595.102,484.917 C595.127,489.133 595.314,492.473 595.544,494.734 C595.748,497.012 595.867,498.236 595.867,498.236 C595.867,498.236 595.45,497.08 594.668,494.921 C594.277,493.833 593.869,492.473 593.419,490.858 C592.909,489.243 592.467,487.373 592.05,485.248 C591.149,481.007 590.316,475.745 590.121,469.668 C589.84,463.582 590.019,456.663 591.013,449.208 C591.931,441.737 593.529,433.73 595.935,425.476 C598.289,417.214 601.239,408.638 604.979,400.095 C608.685,391.544 612.714,382.806 617.423,374.281 C622.038,365.704 627.138,357.264 632.383,348.934 C637.704,340.68 643.186,332.546 648.779,324.7 C654.313,316.821 660.101,309.332 665.55,302.022 C670.99,294.695 676.481,287.819 681.564,281.231 C686.604,274.61 691.441,268.439 695.75,262.642 C704.31,251.056 710.965,241.077 713.855,233.351 C715.326,229.517 715.793,226.279 715.606,224.069 C715.462,221.876 714.85,220.677 714.935,220.677" fill="#99704F"/>
    <path d="M700.188,180.107 C700.111,180.149 700.885,181.042 701.497,183.175 C702.1,185.283 702.525,188.607 701.803,192.704 C700.451,200.872 695.844,211.846 689.01,224.001 C682.253,236.241 673.472,249.9 664.08,264.452 C659.413,271.737 654.585,279.259 649.681,286.909 C644.81,294.551 639.965,302.371 635.333,310.301 C630.624,318.181 626.085,326.162 621.945,334.161 C617.831,342.176 613.845,350.107 610.504,357.986 C603.738,373.703 598.893,388.977 596.42,402.424 C593.955,415.871 593.623,427.406 594.32,435.413 C594.643,439.425 594.983,442.587 595.349,444.72 C595.689,446.862 595.867,448.01 595.867,448.01 C595.867,448.01 595.544,446.896 594.932,444.805 C594.609,443.768 594.269,442.468 593.921,440.929 C593.53,439.391 593.139,437.614 592.833,435.6 C591.456,427.584 590.368,415.795 592.025,401.77 C593.581,387.762 597.771,371.722 604.206,355.394 C607.453,347.234 611.108,338.938 615.298,330.761 C619.446,322.55 623.977,314.398 628.686,306.374 C633.454,298.367 638.435,290.522 643.425,282.863 C648.38,275.188 653.531,267.835 658.436,260.687 C668.313,246.415 677.722,233.291 685.236,221.74 C688.951,215.934 692.249,210.562 694.875,205.641 C697.476,200.728 699.321,196.231 700.341,192.389 C701.344,188.556 701.454,185.385 701.089,183.277 C700.774,181.161 700.111,180.124 700.188,180.107" fill="#99704F"/>
    <path d="M677.008,176.239 C676.923,176.29 677.705,177.183 678.308,179.316 C678.929,181.416 679.337,184.748 678.614,188.828 C677.263,197.013 672.656,207.97 665.83,220.142 C659.073,232.373 650.292,246.041 640.9,260.593 C636.225,267.869 631.405,275.392 626.501,283.033 C621.622,290.683 616.777,298.512 612.144,306.425 C607.444,314.313 602.905,322.303 598.757,330.302 C594.643,338.317 590.665,346.239 587.316,354.119 C580.55,369.835 575.713,385.11 573.231,398.565 C570.775,412.012 570.435,423.538 571.14,431.545 C571.463,435.557 571.795,438.719 572.16,440.853 C572.5,443.003 572.687,444.142 572.687,444.142 C572.687,444.142 572.356,443.029 571.744,440.946 C571.421,439.901 571.081,438.6 570.732,437.062 C570.341,435.523 569.95,433.747 569.644,431.732 C568.276,423.725 567.179,411.927 568.837,397.911 C570.392,383.903 574.583,367.863 581.026,351.535 C584.273,343.375 587.928,335.07 592.118,326.893 C596.266,318.691 600.788,310.531 605.497,302.507 C610.266,294.508 615.247,286.654 620.236,279.004 C625.192,271.329 630.351,263.968 635.256,256.819 C645.124,242.548 654.534,229.424 662.039,217.864 C665.779,212.075 669.06,206.695 671.687,201.782 C674.296,196.869 676.132,192.364 677.161,188.53 C678.164,184.688 678.266,181.518 677.9,179.418 C677.586,177.293 676.914,176.256 677.008,176.239" fill="#99704F"/>
    <path d="M714.935,220.677 C714.858,220.72 715.657,221.672 716.244,223.933 C716.822,226.168 717.06,229.687 716.065,233.929 C714.212,242.429 708.891,253.691 701.318,266.229 C693.804,278.834 684.173,292.919 673.854,307.913 C668.712,315.427 663.416,323.17 658.027,331.05 C652.664,338.938 647.309,346.996 642.149,355.173 C636.939,363.299 631.89,371.527 627.215,379.772 C622.582,388.034 618.103,396.228 614.244,404.354 C610.385,412.497 606.925,420.478 604.146,428.23 C601.375,435.982 599.131,443.454 597.55,450.449 C596.003,457.462 595,463.998 594.515,469.821 C593.997,475.66 594.048,480.786 594.32,485.002 C594.583,489.218 594.957,492.541 595.314,494.785 C595.671,497.029 595.867,498.236 595.867,498.236 C595.867,498.236 595.535,497.063 594.906,494.87 C594.566,493.774 594.243,492.397 593.886,490.782 C593.47,489.167 593.13,487.288 592.832,485.163 C591.489,476.723 590.826,464.262 593.198,449.625 C595.45,434.988 600.55,418.336 608.073,401.523 C611.83,393.108 615.986,384.54 620.704,376.125 C625.404,367.685 630.419,359.278 635.647,351.025 C640.934,342.797 646.408,334.722 651.882,326.834 C657.33,318.937 662.966,311.364 668.312,303.986 C679.099,289.289 689.341,275.749 697.612,263.84 C705.814,251.923 712.198,241.587 714.612,233.546 C715.878,229.568 716.15,226.245 715.836,224.018 C715.547,221.791 714.85,220.694 714.935,220.677" fill="#99704F"/>
    <path d="M727.234,225.505 C727.234,225.505 727.345,225.819 727.549,226.423 C727.753,227.043 728.127,227.919 728.365,229.168 C728.951,231.599 729.487,235.331 728.994,240.048 C728.135,249.466 723.928,262.488 716.762,276.853 C709.69,291.286 700.068,307.317 689.435,324.181 C684.089,332.579 678.572,341.258 672.945,350.072 C667.292,358.853 661.614,367.795 656.081,376.813 C644.878,394.757 634.312,413.04 625.566,430.729 C616.819,448.426 610.181,465.613 606.305,480.87 C604.401,488.495 603.126,495.601 602.454,501.967 C601.791,508.334 601.757,513.944 601.953,518.551 C602.225,523.158 602.582,526.787 602.973,529.235 C603.381,531.7 603.585,533.009 603.585,533.009 C603.585,533.009 603.236,531.726 602.565,529.32 C601.936,526.915 601.06,523.336 600.448,518.687 C599.267,509.43 598.816,495.796 601.978,479.918 C604.953,464.032 610.997,446.054 619.429,427.813 C623.645,418.701 628.235,409.394 633.394,400.222 C638.52,391.025 643.926,381.828 649.519,372.742 C655.18,363.715 660.96,354.773 666.697,346.018 C672.418,337.246 678.24,328.763 683.748,320.492 C694.807,303.96 705.032,288.532 712.852,274.788 C716.703,267.886 720.086,261.485 722.568,255.586 C725.058,249.704 726.724,244.366 727.506,239.844 C728.297,235.339 728.297,231.676 727.948,229.245 C727.863,228.012 727.574,227.086 727.455,226.457 C727.311,225.836 727.234,225.505 727.234,225.505" fill="#99704F"/>
    <path d="M756.211,236.139 C756.211,236.139 756.33,236.462 756.542,237.099 C756.755,237.737 757.12,238.663 757.35,239.964 C757.919,242.522 758.362,246.441 757.724,251.345 C756.568,261.163 751.885,274.618 744.234,289.536 C736.678,304.53 726.529,321.215 715.334,338.785 C709.708,347.531 703.885,356.575 697.969,365.772 C692.019,374.91 686.026,384.234 680.179,393.618 C674.263,402.968 668.482,412.378 663.034,421.787 C657.628,431.197 652.358,440.487 647.717,449.71 C643.093,458.932 638.8,467.934 635.273,476.689 C631.754,485.444 628.813,493.867 626.62,501.798 C624.461,509.72 622.965,517.132 622.123,523.762 C621.282,530.4 621.146,536.257 621.265,541.085 C621.529,545.896 621.86,549.695 622.268,552.254 C622.685,554.829 622.914,556.198 622.914,556.198 C622.914,556.198 622.549,554.855 621.86,552.339 C621.206,549.814 620.356,546.057 619.769,541.195 C618.706,531.497 618.622,517.234 622.31,500.744 C625.812,484.22 632.544,465.622 641.614,446.701 C646.144,437.24 651.091,427.601 656.565,418.064 C661.997,408.51 667.743,398.956 673.633,389.513 C679.609,380.103 685.695,370.796 691.739,361.675 C697.833,352.614 703.851,343.698 709.665,335.07 C721.293,317.832 732.037,301.742 740.35,287.436 C744.456,280.262 748.034,273.59 750.763,267.47 C753.457,261.358 755.31,255.799 756.245,251.107 C757.18,246.415 757.256,242.599 756.942,240.049 C756.857,238.757 756.576,237.779 756.44,237.125 C756.296,236.47 756.211,236.139 756.211,236.139" fill="#99704F"/>
    <path d="M750.422,296.03 C750.346,296.072 751.119,296.965 751.723,299.098 C752.335,301.198 752.76,304.53 752.037,308.618 C750.677,316.795 746.07,327.76 739.245,339.924 C732.479,352.155 723.707,365.823 714.314,380.375 C709.648,387.66 704.811,395.182 699.907,402.824 C695.036,410.474 690.2,418.294 685.559,426.216 C680.858,434.104 676.319,442.077 672.18,450.084 C668.057,458.099 664.079,466.021 660.73,473.909 C653.964,489.626 649.136,504.9 646.654,518.347 C644.189,531.794 643.858,543.32 644.555,551.336 C644.878,555.339 645.209,558.51 645.575,560.643 C645.915,562.785 646.093,563.924 646.093,563.924 C646.093,563.924 645.77,562.811 645.167,560.72 C644.835,559.674 644.495,558.391 644.155,556.844 C643.756,555.314 643.365,553.537 643.059,551.514 C641.69,543.507 640.594,531.701 642.26,517.693 C643.815,503.676 648.006,487.637 654.449,471.317 C657.687,463.157 661.342,454.852 665.533,446.675 C669.681,438.473 674.211,430.321 678.92,422.289 C683.689,414.29 688.661,406.436 693.651,398.786 C698.606,391.111 703.757,383.75 708.67,376.601 C718.547,362.338 727.948,349.206 735.462,337.646 C739.185,331.857 742.483,326.477 745.101,321.564 C747.711,316.651 749.547,312.146 750.567,308.312 C751.57,304.47 751.68,301.3 751.315,299.2 C751,297.084 750.337,296.038 750.422,296.03" fill="#99704F"/>
    <path d="M777.461,291.193 C777.461,291.193 777.571,291.508 777.784,292.12 C777.979,292.723 778.362,293.616 778.591,294.848 C779.178,297.288 779.713,301.019 779.22,305.728 C778.37,315.155 774.163,328.168 766.989,342.533 C759.925,356.975 750.295,372.997 739.67,389.87 C734.323,398.268 728.798,406.955 723.18,415.769 C717.527,424.541 711.858,433.492 706.307,442.493 C695.113,460.445 684.539,478.729 675.801,496.417 C667.054,514.106 660.416,531.301 656.54,546.55 C654.627,554.183 653.352,561.289 652.689,567.656 C652.018,574.022 652.001,579.632 652.188,584.239 C652.451,588.846 652.808,592.476 653.208,594.932 C653.607,597.389 653.82,598.698 653.82,598.698 C653.82,598.698 653.463,597.414 652.791,595.017 C652.162,592.595 651.304,589.025 650.683,584.375 C649.502,575.119 649.051,561.476 652.205,545.598 C655.188,529.72 661.232,511.751 669.655,493.502 C673.88,484.39 678.47,475.074 683.629,465.911 C688.746,456.714 694.161,447.508 699.745,438.439 C705.406,429.395 711.186,420.453 716.924,411.698 C722.644,402.934 728.484,394.46 733.975,386.172 C745.033,369.648 755.267,354.221 763.087,340.468 C766.929,333.583 770.312,327.174 772.794,321.275 C775.293,315.393 776.951,310.046 777.741,305.533 C778.532,301.028 778.532,297.373 778.183,294.942 C778.098,293.692 777.809,292.774 777.69,292.145 C777.537,291.525 777.461,291.193 777.461,291.193" fill="#99704F"/>
    <path d="M796.79,314.381 C796.79,314.381 796.892,314.687 797.104,315.29 C797.3,315.911 797.674,316.786 797.912,318.036 C798.507,320.475 799.034,324.198 798.541,328.916 C797.682,338.342 793.475,351.364 786.309,365.721 C779.237,380.154 769.615,396.185 758.99,413.049 C753.652,421.455 748.119,430.125 742.5,438.948 C736.848,447.72 731.17,456.662 725.636,465.681 C714.425,483.624 703.859,501.916 695.121,519.605 C686.375,537.293 679.728,554.48 675.852,569.738 C673.956,577.362 672.664,584.468 672.001,590.835 C671.339,597.201 671.313,602.82 671.5,607.427 C671.78,612.025 672.137,615.655 672.529,618.111 C672.928,620.568 673.149,621.885 673.149,621.885 C673.149,621.885 672.783,620.593 672.12,618.196 C671.483,615.782 670.616,612.204 670.004,607.554 C668.814,598.306 668.363,584.664 671.517,568.786 C674.5,552.908 680.552,534.922 688.967,516.689 C693.192,507.569 697.782,498.261 702.95,489.09 C708.058,479.901 713.481,470.696 719.066,461.609 C724.718,452.582 730.516,443.64 736.253,434.885 C741.973,426.113 747.796,417.647 753.304,409.36 C764.354,392.827 774.579,377.4 782.399,363.655 C786.25,356.762 789.633,350.353 792.123,344.454 C794.614,338.58 796.271,333.234 797.062,328.72 C797.852,324.207 797.852,320.56 797.504,318.121 C797.41,316.88 797.13,315.962 797.003,315.324 C796.866,314.695 796.79,314.381 796.79,314.381" fill="#99704F"/>
    <path d="M684.734,133.739 C684.649,133.773 685.398,134.7 685.942,136.833 C686.485,138.941 686.774,142.231 685.984,146.251 C684.471,154.326 679.617,165.07 672.596,177.055 C665.567,189.074 656.761,202.683 647.19,217.141 C637.628,231.583 627.521,247.036 618.214,262.948 C608.745,278.758 600.091,295.061 593.453,310.964 C586.831,326.859 582.003,342.278 579.836,355.895 C577.626,369.487 577.617,381.089 578.493,389.096 C578.893,393.1 579.36,396.253 579.776,398.37 C580.193,400.503 580.406,401.642 580.406,401.642 C580.406,401.642 580.125,400.52 579.581,398.421 C579.037,396.321 578.323,393.193 577.745,389.181 C576.555,381.174 575.781,369.444 577.685,355.572 C579.564,341.726 583.763,325.839 590.359,309.681 C596.93,293.522 605.497,276.973 614.89,260.984 C624.401,245.064 634.695,229.636 644.411,215.28 C654.117,200.889 663.484,187.723 670.744,175.942 C678.011,164.22 683.468,153.961 685.253,146.098 C686.188,142.197 686.162,138.992 685.729,136.884 C685.338,134.768 684.649,133.756 684.734,133.739" fill="#533220"/>
    <path d="M688.594,79.645 C688.509,79.679 689.265,80.614 689.809,82.739 C690.345,84.847 690.642,88.137 689.852,92.149 C688.339,100.232 683.485,110.968 676.456,122.953 C669.435,134.98 660.62,148.589 651.058,163.039 C641.487,177.489 631.38,192.942 622.073,208.854 C612.604,224.655 603.951,240.958 597.321,256.862 C590.699,272.757 585.871,288.184 583.704,301.801 C581.494,315.393 581.485,326.987 582.361,334.994 C582.76,338.997 583.228,342.159 583.653,344.276 C584.044,346.409 584.273,347.54 584.273,347.54 C584.273,347.54 583.984,346.426 583.449,344.318 C582.905,342.219 582.182,339.108 581.604,335.096 C580.423,327.08 579.649,315.342 581.553,301.47 C583.432,287.632 587.622,271.737 594.218,255.587 C600.789,239.428 609.357,222.879 618.749,206.89 C628.278,190.953 638.563,175.551 648.278,161.186 C657.977,146.795 667.344,133.62 674.603,121.848 C681.87,110.126 687.327,99.867 689.112,92.004 C690.047,88.103 690.022,84.89 689.597,82.79 C689.206,80.674 688.509,79.662 688.594,79.645" fill="#533220"/>
    <path d="M707.914,187.833 C707.837,187.867 708.585,188.811 709.121,190.936 C709.673,193.044 709.962,196.316 709.163,200.345 C707.65,208.412 702.805,219.164 695.784,231.149 C688.755,243.168 679.949,256.785 670.386,271.227 C660.815,285.677 650.7,301.13 641.393,317.042 C631.924,332.852 623.279,349.146 616.632,365.058 C610.011,380.945 605.191,396.372 603.024,409.989 C600.805,423.589 600.797,435.175 601.681,443.182 C602.08,447.202 602.539,450.347 602.964,452.464 C603.372,454.597 603.585,455.736 603.585,455.736 C603.585,455.736 603.304,454.614 602.769,452.506 C602.216,450.415 601.502,447.304 600.933,443.284 C599.734,435.277 598.961,423.538 600.873,409.666 C602.752,395.82 606.942,379.933 613.53,363.783 C620.117,347.616 628.668,331.067 638.069,315.087 C647.598,299.149 657.883,283.739 667.598,269.374 C677.297,254.992 686.672,241.817 693.914,230.036 C701.199,218.306 706.639,208.046 708.432,200.192 C709.376,196.291 709.342,193.078 708.925,190.978 C708.526,188.862 707.837,187.85 707.914,187.833" fill="#533220"/>
    <path d="M684.734,183.966 C684.649,184 685.398,184.935 685.942,187.068 C686.485,189.176 686.774,192.457 685.984,196.486 C684.471,204.553 679.617,215.305 672.596,227.29 C665.567,239.309 656.761,252.926 647.19,267.368 C637.628,281.818 627.521,297.262 618.214,313.174 C608.745,328.984 600.091,345.287 593.453,361.191 C586.831,377.086 582.003,392.505 579.836,406.13 C577.626,419.722 577.617,431.316 578.493,439.323 C578.893,443.335 579.36,446.48 579.776,448.605 C580.193,450.73 580.406,451.869 580.406,451.869 C580.406,451.869 580.125,450.747 579.581,448.647 C579.037,446.548 578.323,443.437 577.745,439.416 C576.555,431.418 575.781,419.671 577.685,405.799 C579.564,391.961 583.763,376.074 590.359,359.907 C596.93,343.757 605.497,327.208 614.89,311.219 C624.401,295.29 634.695,279.871 644.411,265.506 C654.117,251.133 663.484,237.949 670.744,226.177 C678.011,214.447 683.468,204.187 685.253,196.325 C686.188,192.432 686.162,189.219 685.729,187.111 C685.338,184.994 684.649,183.983 684.734,183.966" fill="#533220"/>
    <path d="M722.67,228.404 C722.577,228.446 723.359,229.432 723.877,231.685 C724.379,233.912 724.489,237.388 723.427,241.562 C721.429,249.943 715.87,260.993 708.101,273.352 C700.324,285.728 690.659,299.761 680.179,314.645 C669.698,329.537 658.597,345.474 648.253,361.862 C637.781,378.148 628.04,394.936 620.415,411.366 C612.714,427.763 607.019,443.768 604.172,457.972 C602.735,465.061 601.877,471.657 601.52,477.522 C601.137,483.404 601.307,488.555 601.681,492.771 C602.021,496.995 602.514,500.302 602.939,502.537 C603.364,504.764 603.585,505.963 603.585,505.963 C603.585,505.963 603.296,504.781 602.735,502.58 C602.191,500.361 601.435,497.089 600.933,492.856 C599.769,484.415 599.437,472.039 602.038,457.564 C604.605,443.114 609.705,426.607 617.364,409.964 C624.937,393.27 634.602,376.261 644.997,359.788 C655.554,343.4 666.825,327.514 677.45,312.707 C688.067,297.9 698.275,284.317 706.274,272.179 C714.298,260.083 720.426,249.535 722.704,241.366 C723.911,237.329 724.047,233.954 723.665,231.719 C723.299,229.492 722.577,228.429 722.67,228.404" fill="#533220"/>
    <path d="M734.961,233.231 C734.961,233.231 735.063,233.554 735.25,234.158 C735.428,234.778 735.785,235.671 735.981,236.912 C736.516,239.351 736.916,243.057 736.346,247.715 C735.326,257.057 730.864,269.866 723.495,284.053 C716.159,298.265 706.52,314.228 695.725,330.973 C684.947,347.726 673.259,365.457 662.167,383.528 C650.947,401.497 640.297,419.832 631.737,437.724 C623.135,455.566 616.497,472.906 612.927,488.35 C611.141,496.06 609.994,503.242 609.467,509.651 C608.932,516.069 609.016,521.696 609.305,526.32 C609.654,530.927 610.147,534.548 610.597,536.987 C611.073,539.435 611.311,540.736 611.311,540.736 C611.311,540.736 610.997,539.444 610.393,537.03 C609.824,534.607 609.084,531.012 608.557,526.379 C607.546,517.131 607.41,503.599 610.81,487.883 C614.099,472.192 620.143,454.367 628.703,436.279 C637.194,418.166 647.759,399.619 658.886,381.488 C670.165,363.443 682.014,345.788 692.92,329.154 C703.808,312.511 714.017,296.998 721.573,283.033 C725.331,276.054 728.594,269.543 730.974,263.568 C733.346,257.592 734.901,252.178 735.607,247.622 C736.321,243.057 736.185,239.394 735.777,236.954 C735.658,235.722 735.344,234.804 735.208,234.175 C735.046,233.554 734.961,233.231 734.961,233.231" fill="#533220"/>
    <path d="M763.937,243.857 C763.937,243.857 764.039,244.188 764.252,244.834 C764.439,245.48 764.779,246.415 764.974,247.716 C765.476,250.274 765.799,254.159 765.076,259.004 C763.767,268.736 758.812,281.988 750.975,296.735 C743.146,311.5 732.98,328.117 721.624,345.576 C710.277,363.035 697.994,381.506 686.273,400.316 C674.424,419.033 663.093,438.107 653.896,456.671 C644.648,475.218 637.321,493.196 633.25,509.252 C631.201,517.268 629.833,524.739 629.127,531.429 C628.422,538.127 628.396,544.009 628.626,548.837 C628.966,553.656 629.416,557.447 629.892,560.006 C630.385,562.556 630.64,563.924 630.64,563.924 C630.64,563.924 630.309,562.573 629.688,560.048 C629.102,557.507 628.371,553.741 627.878,548.896 C626.977,539.215 627.223,525.062 631.133,508.734 C634.941,492.414 641.682,473.952 650.887,455.192 C660.025,436.39 671.236,417.138 683,398.268 C694.909,379.483 707.353,361.08 718.828,343.732 C730.294,326.383 741.013,310.225 749.062,295.707 C753.074,288.439 756.534,281.665 759.152,275.468 C761.753,269.263 763.495,263.636 764.337,258.902 C765.204,254.142 765.153,250.308 764.77,247.75 C764.643,246.458 764.345,245.497 764.192,244.843 C764.022,244.197 763.937,243.857 763.937,243.857" fill="#533220"/>
    <path d="M758.149,303.756 C758.064,303.79 758.82,304.717 759.347,306.85 C759.9,308.95 760.189,312.239 759.39,316.268 C757.894,324.335 753.032,335.087 746.011,347.072 C738.981,359.091 730.175,372.7 720.613,387.15 C711.042,401.6 700.927,417.053 691.628,432.965 C682.15,448.775 673.514,465.069 666.867,480.973 C660.246,496.876 655.418,512.287 653.259,525.904 C651.04,539.504 651.032,551.098 651.907,559.105 C652.315,563.117 652.774,566.27 653.199,568.387 C653.607,570.512 653.82,571.651 653.82,571.651 C653.82,571.651 653.531,570.537 652.995,568.429 C652.443,566.338 651.729,563.219 651.168,559.198 C649.961,551.191 649.187,539.444 651.108,525.589 C652.978,511.743 657.177,495.856 663.765,479.698 C670.344,463.531 678.912,446.998 688.304,431.001 C697.824,415.072 708.118,399.653 717.825,385.288 C727.523,370.906 736.899,357.731 744.149,345.959 C751.425,334.229 756.874,323.969 758.667,316.115 C759.602,312.214 759.577,309.001 759.152,306.901 C758.752,304.785 758.064,303.773 758.149,303.756" fill="#533220"/>
    <path d="M785.188,298.928 C785.188,298.928 785.289,299.243 785.485,299.846 C785.664,300.467 786.021,301.359 786.216,302.592 C786.743,305.031 787.151,308.746 786.59,313.412 C785.562,322.745 781.091,335.546 773.721,349.733 C766.403,363.953 756.747,379.916 745.96,396.67 C735.182,413.415 723.486,431.137 712.402,449.217 C701.174,467.186 690.531,485.529 681.972,503.404 C673.37,521.254 666.723,538.603 663.153,554.03 C661.368,561.748 660.229,568.922 659.702,575.34 C659.158,581.757 659.252,587.376 659.532,592 C659.889,596.615 660.382,600.236 660.833,602.676 C661.3,605.115 661.555,606.424 661.555,606.424 C661.555,606.424 661.232,605.141 660.62,602.718 C660.05,600.296 659.32,596.709 658.784,592.068 C657.781,582.828 657.645,569.279 661.036,553.571 C664.326,537.88 670.378,520.047 678.938,501.968 C687.438,483.846 697.986,465.307 709.112,447.177 C720.392,429.131 732.25,411.485 743.146,394.842 C754.044,378.199 764.252,362.687 771.8,348.73 C775.565,341.743 778.821,335.232 781.201,329.256 C783.581,323.289 785.145,317.866 785.842,313.31 C786.565,308.754 786.42,305.074 786.012,302.643 C785.893,301.41 785.578,300.492 785.434,299.863 C785.273,299.243 785.188,298.928 785.188,298.928" fill="#533220"/>
    <path d="M804.516,322.107 C804.516,322.107 804.618,322.422 804.805,323.042 C804.984,323.654 805.341,324.538 805.536,325.779 C806.072,328.219 806.463,331.925 805.902,336.591 C804.882,345.924 800.419,358.742 793.041,372.92 C785.714,387.141 776.067,403.095 765.28,419.849 C754.494,436.602 742.806,454.325 731.714,472.396 C720.494,490.373 709.843,508.708 701.284,526.6 C692.69,544.433 686.043,561.782 682.482,577.218 C680.697,584.936 679.549,592.11 679.014,598.527 C678.478,604.945 678.572,610.563 678.861,615.187 C679.209,619.803 679.694,623.415 680.144,625.863 C680.62,628.311 680.867,629.612 680.867,629.612 C680.867,629.612 680.552,628.32 679.949,625.897 C679.371,623.483 678.631,619.888 678.113,615.247 C677.102,606.016 676.965,592.467 680.357,576.75 C683.646,561.059 689.69,543.235 698.258,525.155 C706.749,507.042 717.306,488.486 728.441,470.364 C739.721,452.319 751.561,434.664 762.475,418.021 C773.364,401.378 783.572,385.874 791.129,371.917 C794.886,364.922 798.141,358.419 800.513,352.444 C802.893,346.468 804.457,341.054 805.154,336.498 C805.876,331.933 805.732,328.261 805.332,325.83 C805.205,324.589 804.899,323.68 804.754,323.051 C804.602,322.422 804.516,322.107 804.516,322.107" fill="#533220"/>
    <path d="M843.157,361.709 C843.081,361.769 843.965,362.644 844.713,364.973 C845.427,367.243 845.911,370.881 845.223,375.318 C844.602,379.755 843.259,385.059 841.015,390.788 C838.848,396.559 836.06,402.892 832.617,409.547 C829.234,416.228 825.409,423.368 821.091,430.712 C816.824,438.082 812.328,445.834 807.457,453.671 C802.663,461.533 797.716,469.676 792.684,477.93 C787.686,486.183 782.595,494.522 777.707,502.962 C772.752,511.36 768.017,519.843 763.478,528.233 C759.033,536.682 754.664,544.978 750.924,553.223 C747.218,561.459 743.75,569.483 740.953,577.252 C738.208,585.038 735.87,592.493 734.162,599.488 C730.77,613.479 729.657,625.592 729.81,634.134 C729.861,638.401 730.039,641.801 730.286,644.088 C730.507,646.408 730.617,647.641 730.617,647.641 C730.617,647.641 730.201,646.468 729.419,644.283 C728.679,642.065 727.6,638.775 726.75,634.466 C725.857,630.173 724.973,624.852 724.735,618.69 C724.412,612.527 724.523,605.523 725.407,597.958 C726.231,590.402 727.685,582.25 729.937,573.844 C732.113,565.42 734.876,556.674 738.403,547.91 C741.888,539.138 745.696,530.162 750.15,521.365 C754.528,512.525 759.381,503.778 764.371,495.159 C769.445,486.574 774.673,478.117 780.028,469.948 C785.306,461.737 790.857,453.909 796.067,446.276 C801.269,438.617 806.548,431.418 811.41,424.516 C816.238,417.597 820.879,411.128 825.001,405.076 C833.195,392.955 839.536,382.568 842.248,374.638 C843.625,370.685 844.05,367.396 843.854,365.152 C843.684,362.916 843.072,361.701 843.157,361.709" fill="#99704F"/>
    <path d="M874.072,369.444 C873.995,369.495 874.871,370.371 875.628,372.691 C876.341,374.978 876.826,378.616 876.137,383.044 C875.508,387.498 874.165,392.794 871.938,398.514 C869.762,404.286 866.974,410.618 863.523,417.274 C860.149,423.963 856.324,431.095 852.006,438.439 C847.73,445.808 843.242,453.56 838.355,461.397 C833.569,469.268 828.631,477.403 823.599,485.656 C818.601,493.91 813.509,502.257 808.613,510.689 C803.667,519.078 798.932,527.57 794.393,535.959 C789.947,544.408 785.57,552.704 781.839,560.949 C778.115,569.194 774.656,577.21 771.868,584.987 C769.114,592.765 766.776,600.219 765.068,607.215 C761.693,621.214 760.571,633.318 760.724,641.861 C760.767,646.128 760.954,649.528 761.201,651.823 C761.421,654.135 761.532,655.367 761.532,655.367 C761.532,655.367 761.107,654.203 760.325,652.01 C759.602,649.791 758.514,646.502 757.664,642.192 C756.772,637.908 755.888,632.579 755.65,626.416 C755.327,620.254 755.429,613.25 756.321,605.685 C757.146,598.128 758.599,589.977 760.844,581.579 C763.019,573.147 765.782,564.4 769.301,555.637 C772.794,546.873 776.611,537.889 781.065,529.091 C785.443,520.251 790.296,511.505 795.285,502.886 C800.36,494.301 805.587,485.843 810.943,477.675 C816.221,469.464 821.754,461.635 826.982,453.994 C832.184,446.344 837.462,439.144 842.316,432.242 C847.152,425.323 851.785,418.855 855.916,412.803 C864.11,400.682 870.459,390.303 873.154,382.364 C874.531,378.412 874.964,375.114 874.769,372.878 C874.599,370.651 873.987,369.436 874.072,369.444" fill="#99704F"/>
    <path d="M924.298,388.756 C924.23,388.824 925.097,389.683 925.854,392.02 C926.576,394.29 927.052,397.928 926.372,402.365 C925.752,406.81 924.392,412.114 922.165,417.835 C919.989,423.606 917.201,429.947 913.75,436.594 C910.375,443.284 906.55,450.415 902.241,457.759 C897.974,465.129 893.469,472.881 888.598,480.718 C883.805,488.589 878.857,496.715 873.826,504.977 C868.836,513.239 863.736,521.569 858.857,530.001 C853.901,538.399 849.158,546.882 844.619,555.288 C840.174,563.729 835.805,572.033 832.065,580.27 C828.359,588.515 824.882,596.522 822.094,604.299 C819.34,612.077 817.02,619.531 815.294,626.535 C811.92,640.535 810.798,652.647 810.959,661.19 C811.002,665.457 811.18,668.84 811.427,671.143 C811.648,673.455 811.758,674.688 811.758,674.688 C811.758,674.688 811.342,673.523 810.56,671.322 C809.829,669.103 808.741,665.831 807.899,661.521 C806.998,657.229 806.115,651.899 805.876,645.737 C805.553,639.583 805.664,632.579 806.556,625.014 C807.381,617.44 808.826,609.297 811.07,600.891 C813.254,592.476 816.008,583.721 819.544,574.949 C823.038,566.185 826.837,557.201 831.292,548.412 C835.669,539.572 840.522,530.825 845.512,522.198 C850.586,513.613 855.814,505.164 861.169,496.995 C866.447,488.784 871.99,480.964 877.217,473.314 C882.419,465.664 887.689,458.456 892.551,451.571 C897.379,444.635 902.02,438.167 906.142,432.123 C914.336,420.002 920.677,409.607 923.38,401.685 C924.766,397.741 925.199,394.443 924.995,392.199 C924.826,389.972 924.214,388.756 924.298,388.756" fill="#99704F"/>
    <path d="M1005.448,408.068 C1005.372,408.136 1006.239,409.012 1007.003,411.332 C1007.718,413.61 1008.202,417.248 1007.513,421.685 C1006.893,426.122 1005.533,431.426 1003.315,437.155 C1001.13,442.918 998.342,449.259 994.891,455.906 C991.525,462.596 987.7,469.736 983.373,477.08 C979.115,484.449 974.61,492.201 969.74,500.038 C964.945,507.909 959.998,516.044 954.966,524.297 C949.977,532.551 944.885,540.889 939.998,549.321 C935.034,557.719 930.299,566.211 925.76,574.6 C921.315,583.049 916.938,591.345 913.214,599.59 C909.5,607.827 906.023,615.851 903.235,623.628 C900.49,631.406 898.161,638.86 896.435,645.856 C893.07,659.855 891.948,671.959 892.101,680.502 C892.143,684.769 892.33,688.16 892.568,690.455 C892.789,692.776 892.899,694.008 892.899,694.008 C892.899,694.008 892.492,692.835 891.701,690.642 C890.97,688.432 889.891,685.143 889.041,680.833 C888.148,676.541 887.255,671.211 887.026,665.057 C886.703,658.895 886.813,651.891 887.698,644.326 C888.522,636.769 889.976,628.618 892.211,620.211 C894.396,611.788 897.158,603.041 900.677,594.278 C904.179,585.506 907.979,576.53 912.441,567.732 C916.81,558.892 921.664,550.146 926.653,541.527 C931.736,532.942 936.955,524.484 942.31,516.316 C947.597,508.105 953.13,500.276 958.367,492.635 C963.56,484.985 968.83,477.785 973.692,470.883 C978.529,463.964 983.169,457.496 987.284,451.444 C995.477,439.323 1001.827,428.936 1004.53,421.005 C1005.907,417.053 1006.341,413.763 1006.136,411.519 C1005.966,409.292 1005.363,408.068 1005.448,408.068" fill="#99704F"/>
    <path d="M1047.948,419.67 C1047.871,419.738 1048.755,420.605 1049.504,422.926 C1050.226,425.204 1050.702,428.842 1050.014,433.279 C1049.393,437.724 1048.042,443.02 1045.814,448.757 C1043.639,454.503 1040.85,460.853 1037.391,467.508 C1034.033,474.198 1030.2,481.329 1025.882,488.673 C1021.615,496.034 1017.119,503.795 1012.24,511.632 C1007.454,519.494 1002.498,527.637 997.466,535.891 C992.477,544.144 987.385,552.483 982.498,560.915 C977.542,569.313 972.808,577.796 968.269,586.194 C963.823,594.643 959.438,602.93 955.714,611.175 C952,619.429 948.532,627.436 945.735,635.213 C942.99,642.991 940.669,650.445 938.944,657.441 C935.57,671.449 934.448,683.553 934.601,692.095 C934.643,696.362 934.839,699.754 935.076,702.049 C935.289,704.369 935.408,705.602 935.408,705.602 C935.408,705.602 934.992,704.437 934.209,702.236 C933.479,700.017 932.391,696.736 931.541,692.435 C930.648,688.134 929.764,682.813 929.534,676.642 C929.203,670.488 929.313,663.484 930.198,655.919 C931.022,648.354 932.476,640.211 934.719,631.813 C936.904,623.381 939.667,614.626 943.177,605.871 C946.679,597.099 950.479,588.115 954.941,579.317 C959.318,570.486 964.164,561.739 969.161,553.112 C974.236,544.527 979.455,536.069 984.81,527.901 C990.106,519.69 995.639,511.861 1000.867,504.228 C1006.06,496.578 1011.339,489.37 1016.192,482.468 C1021.029,475.549 1025.67,469.081 1029.792,463.029 C1037.978,450.908 1044.335,440.529 1047.03,432.59 C1048.416,428.646 1048.84,425.357 1048.645,423.113 C1048.475,420.877 1047.863,419.662 1047.948,419.67" fill="#99704F"/>
    <path d="M698.318,626.221 C682.983,564.851 734.077,487.416 779.152,419.093 C811.376,370.269 839.196,328.1 831.665,306.315 L835.329,305.057 C843.472,328.644 815.167,371.552 782.365,421.226 C739.951,485.537 687.14,565.556 702.066,625.277 L698.318,626.221" fill="#533220"/>
    <path d="M729.232,668.72 C713.898,607.359 763.946,530.799 804.168,469.276 C834.369,423.079 860.447,383.171 852.916,361.377 L856.579,360.119 C864.722,383.698 838.16,424.345 807.398,471.401 C767.593,532.287 718.055,608.064 732.972,667.777 L729.232,668.72" fill="#533220"/>
    <path d="M748.544,691.9 C733.235,630.598 783.938,549.797 828.673,478.516 C860.761,427.372 888.479,383.214 880.931,361.378 L884.586,360.12 C892.738,383.699 864.569,428.596 831.937,480.565 C789.811,547.706 737.375,631.261 752.292,690.965 L748.544,691.9" fill="#533220"/>
    <path d="M713.294,651.975 C697.119,587.256 749.402,506.965 787.567,448.349 C811.733,411.247 832.592,379.202 825.979,366.46 L829.413,364.684 C837.054,379.431 817.657,409.224 790.814,450.466 C753.023,508.487 701.267,587.953 717.034,651.04 L713.294,651.975" fill="#533220"/>
    <path d="M729.232,668.721 C713.898,607.342 765.96,529.261 811.903,460.394 C844.73,411.171 873.077,368.671 865.563,346.885 L869.21,345.627 C877.353,369.215 848.521,412.463 815.124,462.536 C771.876,527.366 718.054,608.056 732.972,667.777 L729.232,668.721" fill="#533220"/>
    <path d="M748.544,691.9 C733.184,630.437 789.973,550.333 840.08,479.647 C875.814,429.259 906.669,385.73 899.164,364.004 L902.81,362.738 C910.962,386.342 879.58,430.619 843.234,481.891 C796.067,548.42 737.375,631.21 752.292,690.965 L748.544,691.9" fill="#533220"/>
    <path d="M790.347,682.882 C775.021,621.588 828.155,537.438 875.032,463.208 C908.684,409.913 937.745,363.885 930.197,342.057 L933.861,340.791 C941.995,364.378 912.475,411.137 878.296,465.273 C834.13,535.203 779.169,622.251 794.087,681.947 L790.347,682.882" fill="#533220"/>
    <path d="M809.659,691.9 C794.325,630.496 854.429,541.781 907.46,463.513 C945.472,407.43 978.282,358.989 970.768,337.22 L974.423,335.962 C982.575,359.55 949.246,408.739 910.664,465.681 C860.685,539.444 798.49,631.235 813.416,690.965 L809.659,691.9" fill="#533220"/>
    <path d="M836.817,691.9 C820.607,627.028 880.43,540.26 924.103,476.91 C951.694,436.892 975.52,402.331 968.949,389.64 L972.383,387.864 C980.008,402.611 957.899,434.69 927.282,479.103 C884.017,541.858 824.781,627.785 840.565,690.965 L836.817,691.9" fill="#533220"/>
    <path d="M868.334,699.627 C853,638.274 903.048,561.714 943.262,500.183 C973.471,453.994 999.549,414.086 992.018,392.284 L995.681,391.026 C1003.824,414.613 977.262,455.252 946.5,502.308 C906.686,563.185 857.157,638.971 872.074,698.692 L868.334,699.627" fill="#533220"/>
    <path d="M887.647,722.815 C872.287,661.309 928.846,583.151 978.75,514.191 C1014.28,465.086 1044.965,422.68 1037.468,400.979 L1041.123,399.721 C1049.274,423.317 1018.045,466.48 981.878,516.452 C934.924,581.349 876.469,662.125 891.395,721.871 L887.647,722.815" fill="#533220"/>
    <path d="M1032.588,665.992 L1030.463,662.771 C1079.423,630.445 1204.271,492.439 1197.93,437.92 L1201.772,437.47 C1208.394,494.386 1083.503,632.375 1032.588,665.992" fill="#533220"/>
    <path d="M1063.503,665.992 L1061.369,662.77 C1110.066,630.615 1234.965,470.985 1228.607,416.228 L1232.44,415.794 C1239.096,473.008 1114.069,632.604 1063.503,665.992" fill="#533220"/>
    <path d="M947.308,713.235 L946.568,709.444 C1007.012,697.697 1056.15,612.476 1095.624,544 C1126.071,491.215 1152.353,445.613 1177.19,443.02 L1177.581,446.862 C1154.716,449.259 1128.885,494.063 1098.982,545.93 C1057.026,618.69 1009.477,701.148 947.308,713.235" fill="#533220"/>
    <path d="M930.453,695.402 L929.705,691.611 C993.633,679.184 1046.435,589.152 1084.991,523.413 C1112.012,477.343 1131.597,443.938 1148.087,443.938 C1148.256,443.938 1148.427,443.938 1148.588,443.938 L1148.435,447.805 C1148.307,447.797 1148.197,447.797 1148.087,447.797 C1133.823,447.797 1112.727,483.777 1088.332,525.359 C1049.393,591.744 996.089,682.643 930.453,695.402" fill="#533220"/>
    <path d="M900.022,682.661 L899.291,678.87 C959.709,667.123 1007.42,590.181 1045.755,528.36 C1075.377,480.582 1100.962,439.314 1125.782,436.722 L1126.182,440.564 C1103.24,442.961 1078.123,483.48 1049.044,530.392 C1010.31,592.858 962.106,670.591 900.022,682.661" fill="#533220"/>
    <path d="M863.115,686.554 L862.384,682.763 C922.811,671.016 973.802,586.398 1014.772,518.415 C1046.418,465.911 1073.737,420.563 1098.565,417.971 L1098.965,421.813 C1076.049,424.21 1049.189,468.792 1018.087,520.404 C974.567,592.62 925.233,674.484 863.115,686.554" fill="#533220"/>
    <path d="M680.986,626.68 C665.448,564.494 716.788,486.685 762.085,418.03 C792.693,371.646 821.61,327.828 814.385,306.944 L821.687,304.419 C830.161,328.916 802.961,370.124 768.536,422.289 C726.317,486.277 673.761,565.905 688.483,624.801 L680.986,626.68" fill="#99704F"/>
    <path d="M711.892,669.18 C696.362,607.011 746.674,530.06 787.083,468.223 C817.02,422.45 842.86,382.908 835.643,362.007 L842.945,359.491 C851.402,383.971 825.885,423.011 793.56,472.456 C753.958,533.027 704.675,608.413 719.389,667.31 L711.892,669.18" fill="#99704F"/>
    <path d="M731.221,692.367 C715.709,630.275 766.641,549.1 811.58,477.479 C842.087,428.884 870.893,382.967 863.651,362.006 L870.953,359.49 C879.402,383.945 852.363,427.04 818.125,481.593 C776.195,548.42 723.996,631.592 738.718,690.497 L731.221,692.367" fill="#99704F"/>
    <path d="M695.954,652.443 C679.592,586.908 732.13,506.209 770.499,447.304 C793.33,412.225 814.912,379.092 808.817,367.345 L815.668,363.792 C823.837,379.542 804.176,409.734 776.968,451.512 C739.381,509.235 687.896,588.302 703.451,650.573 L695.954,652.443" fill="#99704F"/>
    <path d="M711.892,669.18 C696.354,606.977 748.68,528.522 794.835,459.315 C826.03,412.556 855.491,368.382 848.274,347.514 L855.584,344.998 C864.05,369.478 836.34,411.026 801.269,463.607 C758.242,528.114 704.675,608.422 719.389,667.31 L711.892,669.18" fill="#99704F"/>
    <path d="M731.221,692.368 C715.649,630.037 772.709,549.551 823.046,478.533 C856.995,430.661 889.049,385.416 881.875,364.633 L889.185,362.109 C897.659,386.648 867.518,429.174 829.345,483.013 C782.408,549.211 723.996,631.61 738.718,690.498 L731.221,692.368" fill="#99704F"/>
    <path d="M773.016,683.349 C757.495,621.248 810.857,536.741 857.939,462.179 C889.933,411.511 920.151,363.647 912.917,342.686 L920.219,340.162 C928.676,364.625 900.337,409.496 864.476,466.302 C820.505,535.925 765.799,622.574 780.513,681.479 L773.016,683.349" fill="#99704F"/>
    <path d="M792.328,692.368 C776.781,630.122 837.156,541.034 890.409,462.426 C926.551,409.097 960.695,358.709 953.487,337.858 L960.797,335.334 C969.263,359.839 937.286,407.023 896.81,466.769 C847.042,540.201 785.12,631.601 799.824,690.498 L792.328,692.368" fill="#99704F"/>
    <path d="M819.493,692.367 C803.071,626.645 863.166,539.469 907.052,475.813 C933.164,437.945 957.814,402.177 951.779,390.541 L958.638,386.979 C966.815,402.747 944.418,435.234 913.418,480.199 C870.374,542.64 811.401,628.167 826.982,690.497 L819.493,692.367" fill="#99704F"/>
    <path d="M851.003,700.103 C835.474,637.917 885.768,560.975 926.194,499.129 C956.123,453.356 981.971,413.814 974.738,392.913 L982.056,390.397 C990.505,414.877 964.98,453.926 932.663,503.362 C893.07,563.933 843.778,639.319 858.5,698.224 L851.003,700.103" fill="#99704F"/>
    <path d="M870.315,723.274 C854.734,660.918 911.582,582.361 961.732,513.052 C995.486,466.412 1027.361,422.365 1020.187,401.617 L1027.488,399.092 C1035.963,423.632 1005.966,465.095 967.988,517.582 C921.255,582.165 863.107,662.533 877.82,721.412 L870.315,723.274" fill="#99704F"/>
    <path d="M1168.367,448.8 C1168.367,448.8 1168.495,449.888 1168.724,451.92 C1169.056,453.926 1169.056,456.943 1168.826,460.828 C1168.571,462.723 1168.393,464.857 1168.002,467.152 C1167.5,469.404 1167.101,471.912 1166.395,474.496 C1165.027,479.681 1163.242,485.503 1160.666,491.564 C1158.235,497.709 1155.116,504.135 1151.622,510.825 C1148.027,517.455 1144.151,524.408 1139.697,531.301 C1130.967,545.224 1120.631,559.368 1109.743,573.045 C1098.761,586.636 1087.269,599.811 1075.862,611.558 C1070.235,617.508 1064.548,623.033 1059.125,628.21 C1053.711,633.403 1048.415,638.138 1043.46,642.422 C1033.566,651.007 1024.726,657.475 1018.495,661.87 C1015.342,664.037 1012.792,665.618 1011.032,666.638 C1009.281,667.692 1008.338,668.245 1008.338,668.245 C1008.338,668.245 1009.196,667.573 1010.794,666.298 C1012.418,665.074 1014.653,663.077 1017.577,660.671 C1020.442,658.189 1023.901,655.146 1027.743,651.525 C1031.585,647.904 1035.818,643.714 1040.442,639.175 C1049.622,629.986 1060.026,618.987 1070.872,606.934 C1076.329,600.942 1081.735,594.533 1087.32,588.115 C1092.828,581.63 1098.37,575 1103.716,568.208 C1109.182,561.519 1114.443,554.676 1119.526,547.868 C1124.516,540.991 1129.539,534.31 1134.01,527.578 C1138.566,520.897 1142.774,514.327 1146.616,508.003 C1150.322,501.611 1153.841,495.55 1156.637,489.762 C1159.527,483.99 1161.814,478.55 1163.667,473.654 C1164.602,471.206 1165.214,468.843 1165.928,466.684 C1166.523,464.508 1166.914,462.46 1167.347,460.624 C1167.883,456.943 1168.401,453.994 1168.308,451.937 C1168.35,449.897 1168.367,448.8 1168.367,448.8" fill="#99704F"/>
    <path d="M1221.824,436.977 C1221.824,436.977 1221.934,438.124 1222.155,440.266 C1222.274,441.337 1222.444,442.646 1222.325,444.219 C1222.232,445.783 1222.334,447.661 1221.977,449.642 C1221.467,453.671 1220.498,458.533 1218.823,463.939 C1217.183,469.336 1214.99,475.363 1211.998,481.644 C1209.142,487.977 1205.606,494.624 1201.636,501.509 C1197.573,508.326 1193.221,515.491 1188.257,522.58 C1178.559,536.928 1167.203,551.455 1155.337,565.539 C1149.378,572.569 1143.216,579.411 1137.121,586.101 C1131.018,592.79 1124.762,599.157 1118.685,605.277 C1112.624,611.405 1106.564,617.134 1100.75,622.498 C1094.978,627.895 1089.326,632.8 1084.073,637.271 C1078.82,641.75 1073.847,645.686 1069.393,649.069 C1064.931,652.46 1060.953,655.316 1057.663,657.637 C1054.34,659.906 1051.662,661.606 1049.801,662.694 C1047.965,663.791 1046.979,664.386 1046.979,664.386 C1046.979,664.386 1047.88,663.68 1049.563,662.346 C1051.288,661.062 1053.643,658.954 1056.754,656.438 C1059.788,653.837 1063.452,650.65 1067.54,646.867 C1071.578,643.034 1076.125,638.699 1081.089,633.981 C1085.934,629.145 1091.187,623.9 1096.738,618.358 C1102.237,612.757 1107.915,606.747 1113.797,600.534 C1119.688,594.337 1125.544,587.716 1131.596,581.086 C1137.58,574.396 1143.607,567.545 1149.438,560.541 C1155.405,553.639 1161.151,546.576 1166.744,539.572 C1172.235,532.491 1177.751,525.606 1182.715,518.662 C1187.756,511.785 1192.439,505.011 1196.74,498.5 C1200.922,491.912 1204.841,485.648 1208.054,479.664 C1209.711,476.689 1211.182,473.782 1212.499,470.985 C1213.944,468.24 1215.058,465.52 1216.129,462.97 C1218.245,457.887 1219.622,453.263 1220.506,449.404 C1221.22,445.545 1221.832,442.451 1221.739,440.283 C1221.79,438.124 1221.824,436.977 1221.824,436.977" fill="#99704F"/>
    <path d="M1184.866,415.285 C1184.9,415.387 1183.268,415.421 1180.573,416.492 C1177.87,417.478 1174.147,419.62 1170.016,423.045 C1165.877,426.471 1161.312,431.205 1156.62,437.096 C1151.903,442.961 1146.99,449.905 1141.813,457.615 C1131.562,473.11 1120.504,491.81 1108.74,511.93 C1102.841,522.002 1096.738,532.406 1090.533,542.98 C1084.277,553.52 1077.868,564.213 1071.314,574.83 C1064.693,585.404 1057.927,595.91 1051.067,606.118 C1044.216,616.344 1037.068,626.153 1029.962,635.494 C1015.716,654.152 1000.883,670.523 986.552,682.839 C972.272,695.215 958.341,703.052 948.073,706.92 C942.956,708.926 938.748,709.903 935.892,710.532 C933.011,711.059 931.472,711.34 931.472,711.34 C931.472,711.34 932.977,710.906 935.782,710.133 C938.57,709.274 942.582,707.804 947.486,705.534 C957.355,701.097 970.19,692.274 983.577,679.541 C996.948,666.766 1010.862,650.165 1024.522,631.414 C1031.381,622.073 1038.071,612.111 1044.854,601.979 C1051.594,591.804 1058.233,581.315 1064.752,570.75 C1071.357,560.235 1077.817,549.619 1084.141,539.138 C1090.533,528.683 1096.84,518.398 1102.917,508.436 C1115.183,488.555 1127.006,470.161 1138.201,455.082 C1149.336,439.969 1160.088,428.281 1169.107,421.864 C1173.569,418.591 1177.615,416.874 1180.446,416.084 C1183.285,415.259 1184.883,415.387 1184.866,415.285" fill="#99704F"/>
    <path d="M1133.05,445.876 C1133.084,445.944 1131.665,445.817 1129.353,446.582 C1127.015,447.364 1123.998,449.395 1120.691,452.54 C1114.01,458.813 1106.717,469.855 1098.54,483.361 C1090.389,496.919 1081.447,513.103 1071.629,530.366 C1066.699,538.985 1061.659,547.944 1056.278,556.895 C1050.915,565.871 1045.364,574.932 1039.644,583.899 C1033.864,592.824 1027.871,601.63 1021.743,610.139 C1015.631,618.681 1009.214,626.799 1002.745,634.457 C989.8,649.732 976.225,662.873 963.152,672.299 C950.19,681.896 937.746,687.395 928.88,690.26 C924.435,691.696 920.831,692.427 918.383,692.869 C915.935,693.286 914.626,693.507 914.626,693.507 C914.626,693.507 915.901,693.15 918.289,692.461 C920.669,691.781 924.095,690.566 928.362,688.84 C932.595,687.038 937.627,684.624 943.084,681.292 C948.507,677.943 954.372,673.744 960.441,668.789 C972.553,658.827 985.193,645.465 997.501,630.122 C1003.697,622.489 1009.647,614.219 1015.665,605.804 C1021.649,597.363 1027.48,588.6 1033.15,579.717 C1038.896,570.877 1044.489,561.927 1049.895,553.044 C1055.309,544.153 1060.63,535.407 1065.773,526.941 C1076.058,509.966 1085.756,494.114 1094.817,480.964 C1103.827,467.798 1112.387,457.36 1119.714,451.418 C1123.343,448.409 1126.777,446.743 1129.234,446.182 C1131.741,445.647 1133.042,445.953 1133.05,445.876" fill="#99704F"/>
    <path d="M1110.533,438.643 C1110.533,438.643 1110.21,438.719 1109.573,438.855 C1108.953,439 1108,439.136 1106.836,439.578 C1104.49,440.292 1101.158,441.839 1097.418,444.465 C1093.669,447.083 1089.53,450.849 1085.246,455.6 C1080.953,460.343 1076.576,466.123 1071.96,472.515 C1062.823,485.427 1053.167,501.22 1042.856,518.228 C1037.688,526.711 1032.469,535.585 1026.944,544.476 C1021.436,553.384 1015.784,562.403 1009.995,571.353 C1004.122,580.253 998.078,589.05 991.916,597.576 C985.787,606.135 979.285,614.236 972.825,621.928 C959.854,637.254 946.126,650.344 933.003,659.77 C919.955,669.35 907.392,674.713 898.518,677.552 C894.039,678.972 890.426,679.694 887.978,680.136 C885.513,680.544 884.204,680.765 884.204,680.765 C884.204,680.765 885.479,680.408 887.885,679.728 C890.273,679.048 893.716,677.833 898,676.133 C902.258,674.356 907.324,671.959 912.807,668.67 C918.306,665.372 924.196,661.198 930.308,656.251 C942.488,646.289 955.255,632.987 967.581,617.585 C979.914,602.174 992.018,584.868 1003.535,567.12 C1009.358,558.289 1015.053,549.364 1020.62,540.532 C1026.23,531.709 1031.755,523.039 1037.11,514.641 C1047.897,497.879 1058.344,482.375 1068.442,469.855 C1078.429,457.283 1088.433,447.967 1096.61,443.199 C1100.682,440.759 1104.286,439.663 1106.742,439.17 C1107.966,438.864 1108.91,438.838 1109.564,438.745 C1110.202,438.677 1110.533,438.643 1110.533,438.643" fill="#99704F"/>
    <path d="M848.036,688.449 L846.557,680.867 C906.142,669.281 956.888,585.08 997.662,517.412 C1030.888,462.281 1057.128,418.744 1082.908,416.049 L1083.716,423.733 C1061.76,426.028 1033.838,472.362 1004.284,521.398 C960.551,593.971 910.987,676.209 848.036,688.449" fill="#99704F"/>
    <path d="M741.829,167.552 C719.423,126.013 721.438,63.385 803.063,68.536 C884.688,73.695 941.902,106.692 984.615,126.013 C1027.335,145.325 1098.412,192.984 1129.854,198.135 C1161.287,203.295 1175.457,263.186 1181.891,291.193 C1188.325,319.201 1205.606,417.435 1167.721,429.973 C1129.854,442.502 1112.344,438.983 1090.457,413.228 C1068.543,387.481 1021.768,380.494 984.615,367.243 C947.487,353.983 900.473,354.943 877.285,335.308 C854.105,315.665 842.206,243.857 813.059,225.505 C783.904,207.154 762.178,205.275 741.829,167.552" fill="#999EA0"/>
    <path d="M753.236,161.084 C747.958,120.777 754.622,82.221 836.23,87.372 C917.864,92.514 948.719,120.369 991.423,139.689 C1034.152,159.01 1083.163,196.852 1114.588,201.994 C1146.03,207.154 1163.59,260.287 1170.033,288.295 C1176.468,316.311 1206.516,402.747 1168.631,415.285 C1130.755,427.822 1097.367,426.59 1075.471,400.835 C1053.583,375.08 1044.939,384.353 1007.802,371.102 C970.666,357.842 923.661,358.819 900.464,339.167 C877.276,319.524 865.393,247.724 836.23,229.373 C807.092,211.013 758.804,203.592 753.236,161.084" fill="#C6C9CA"/>
    <path d="M797.869,178.611 C793.143,142.443 781.311,97.716 854.258,102.349 C927.214,106.973 972.595,145.435 1010.786,162.767 C1048.959,180.107 1092.768,214.056 1120.861,218.688 C1148.953,223.304 1164.661,270.98 1170.407,296.123 C1176.162,321.258 1203.022,398.837 1169.158,410.074 C1135.302,421.32 1105.467,420.215 1085.883,397.103 C1066.325,373.992 1058.607,382.322 1025.406,370.43 C992.222,358.53 950.206,359.397 929.483,341.777 C908.76,324.139 898.135,259.709 872.066,243.245 C846.022,226.772 802.85,216.759 797.869,178.611" fill="#F1F1F0"/>
    <path d="M842.843,10.302 C868.853,10.302 891.233,12.988 909.33,18.283 C947.469,29.452 974.397,48.016 1000.458,65.943 C1018.317,78.259 1035.198,89.887 1054.365,97.928 C1100.988,117.512 1162.001,144.398 1180.531,155.719 C1192.32,162.928 1203.336,188.827 1227.493,250.682 C1240.413,283.738 1253.758,317.934 1263.55,333.701 C1289.407,375.368 1281.298,397.145 1254.693,427.524 C1228.47,452.643 1191.068,468.428 1154.775,470.645 L1131.521,470.645 C1114.716,469.567 1099.842,463.16 1086.708,452.897 C1047.157,418.548 963.823,386.58 915.756,380.953 L912.126,380.528 C862.784,374.79 801.363,367.659 786.768,282.132 C779.662,240.567 753.491,225.462 728.169,210.859 C713.949,202.648 700.51,194.896 692.172,182.818 C667.666,147.347 690.744,55.403 716.533,33.2 C730.209,21.428 791.588,10.302 842.843,10.302 z M842.843,33.481 C789.038,33.481 738.497,45.696 731.569,50.847 C712.453,67.311 695.708,147.143 711.246,169.66 C716.618,177.429 727.345,183.617 739.755,190.781 C765.467,205.615 800.683,225.938 809.616,278.239 C821.304,346.638 866.711,351.917 914.812,357.493 L918.45,357.926 C969.977,363.961 1057.986,397.264 1101.914,435.387 C1111.698,443.878 1125.493,448.179 1142.944,448.179 C1181.287,448.179 1224.408,426.895 1237.251,412.241 C1257.957,388.594 1263.457,377.519 1243.847,345.924 C1232.95,328.355 1219.809,294.72 1205.903,259.114 C1193.816,228.191 1175.567,181.475 1168.138,175.304 C1152.124,165.529 1094.876,140.097 1045.389,119.306 C1024.003,110.33 1006.187,98.047 987.3,85.051 C962.761,68.144 937.388,50.668 902.81,40.536 C886.83,35.853 866.651,33.481 842.843,33.481 z" fill="url(#Gradient_9)"/>
    <path d="M588.472,460.836 L585.863,457.988 C591.328,453.016 578.187,430.329 568.591,413.754 C557.889,395.292 551.965,384.599 554.396,379.72 C554.863,378.768 555.858,377.595 557.957,377.34 C559.334,377.17 560.711,376.057 562.063,374.017 C571.098,360.298 573.334,311.193 567.681,291.728 C554.285,245.658 582.65,195.049 616.607,174.59 C634.959,163.523 632.885,152.787 630.003,137.946 C627.912,127.185 625.549,114.988 629.893,99.722 C637.152,74.256 660.892,70.66 676.6,68.289 C683.562,67.243 690.149,66.249 691.875,63.741 L695.062,65.926 C692.385,69.819 685.67,70.83 677.178,72.114 C661.572,74.468 640.186,77.698 633.607,100.776 C629.519,115.158 631.797,126.862 633.794,137.207 C636.735,152.354 639.268,165.444 618.596,177.888 C585.863,197.625 558.51,246.338 571.379,290.649 C576.768,309.162 575.722,360.315 565.284,376.15 C563.287,379.168 560.983,380.859 558.425,381.165 C557.949,381.225 557.881,381.369 557.847,381.437 C556.232,384.693 564.936,399.738 571.948,411.825 C584.426,433.389 596.233,453.755 588.472,460.836" fill="#99704F"/>
    <path d="M613.802,494.751 L611.201,491.895 C616.658,486.905 603.517,464.219 593.929,447.661 C583.227,429.19 577.294,418.497 579.725,413.618 C580.184,412.666 581.187,411.502 583.295,411.238 C584.664,411.077 586.041,409.955 587.384,407.915 C596.428,394.204 598.655,345.091 593.002,325.626 C579.615,279.565 607.979,228.956 641.928,208.488 C660.28,197.421 658.206,186.694 655.333,171.836 C653.242,161.083 650.879,148.886 655.222,133.611 C662.481,108.145 686.222,104.567 701.938,102.195 C708.891,101.141 715.47,100.147 717.204,97.639 L720.383,99.832 C717.714,103.717 710.999,104.728 702.516,106.012 C686.893,108.375 665.516,111.605 658.945,134.674 C654.857,149.064 657.118,160.769 659.115,171.105 C662.056,186.26 664.598,199.342 643.926,211.794 C611.201,231.523 583.839,280.245 596.717,324.547 C602.089,343.068 601.052,394.221 590.614,410.048 C588.616,413.066 586.304,414.766 583.754,415.08 C583.287,415.131 583.219,415.267 583.176,415.344 C581.553,418.599 590.274,433.636 597.269,445.714 C609.764,467.287 621.562,487.67 613.802,494.751" fill="#99704F"/>
    <path d="M676.013,600.355 L673.404,597.508 C678.87,592.518 665.729,569.832 656.132,553.265 C645.439,534.803 639.497,524.102 641.937,519.223 C642.404,518.279 643.399,517.115 645.498,516.843 C646.875,516.681 648.253,515.568 649.596,513.528 C658.648,499.809 660.867,450.713 655.214,431.248 C641.826,385.178 670.191,334.56 704.14,314.101 C722.5,303.034 720.417,292.298 717.544,277.457 C715.445,266.696 713.091,254.499 717.434,239.233 C724.685,213.767 748.433,210.18 764.141,207.8 C771.103,206.754 777.69,205.76 779.416,203.252 L782.595,205.437 C779.917,209.33 773.211,210.341 764.719,211.625 C749.105,213.979 727.727,217.209 721.148,240.295 C717.06,254.669 719.33,266.382 721.327,276.718 C724.268,291.873 726.801,304.955 706.138,317.407 C673.404,337.144 646.051,385.849 658.929,430.168 C664.309,448.681 663.263,499.834 652.826,515.653 C650.828,518.679 648.516,520.37 645.974,520.676 C645.49,520.736 645.422,520.872 645.388,520.948 C643.765,524.212 652.477,539.24 659.472,551.336 C671.976,572.909 683.774,593.283 676.013,600.355" fill="#99704F"/>
    <path d="M650.913,560.915 L648.303,558.059 C648.975,557.447 649.06,556.912 649.068,556.512 C649.102,553.095 642.617,546.924 635.74,540.405 C623.9,529.151 609.169,515.151 609.05,499.452 C608.991,491.878 612.425,484.645 619.276,477.947 C655.24,442.757 662.813,414.86 662.847,397.673 C662.864,384.362 658.282,372.198 650.258,364.302 C641.597,355.768 631.881,344.157 633.717,330.021 C635.494,316.319 647.538,303.255 670.548,290.097 C688.831,279.625 686.077,268.158 682.295,252.306 C679.524,240.729 676.379,227.596 680.807,212.024 C688.066,186.575 710.03,184.136 724.574,182.504 C731.34,181.756 737.18,181.11 738.896,178.619 L742.084,180.804 C739.372,184.748 733.031,185.462 724.999,186.346 C709.878,188.037 691.067,190.128 684.53,213.087 C680.365,227.681 683.391,240.287 686.052,251.405 C689.919,267.58 693.26,281.546 672.477,293.437 C650.887,305.805 639.141,318.274 637.551,330.514 C635.936,342.967 644.938,353.634 652.978,361.548 C661.725,370.167 666.732,383.333 666.706,397.673 C666.68,415.608 658.894,444.576 621.979,480.709 C615.833,486.727 612.858,492.856 612.909,499.426 C613.011,513.477 627.096,526.856 638.409,537.6 C646.552,545.335 652.978,551.446 652.927,556.555 C652.91,558.238 652.23,559.708 650.913,560.915" fill="#99704F"/>
    <path d="M735.301,681.088 L732.7,678.232 C738.157,673.251 725.016,650.565 715.419,634.007 C704.726,615.536 698.785,604.843 701.224,599.964 C701.683,599.012 702.686,597.848 704.786,597.584 C708.985,597.074 718.267,582.335 727.217,556.036 C737.213,526.677 742.976,492.669 734.655,484.475 C716.414,466.506 743.427,422.221 754.511,410.61 C769.165,395.242 767.193,384.243 764.694,370.303 C762.832,359.848 760.707,347.99 765.204,332.206 C772.446,306.757 794.418,304.3 808.962,302.685 C815.728,301.929 821.576,301.283 823.293,298.792 L826.472,300.985 C823.76,304.929 817.419,305.635 809.395,306.527 C794.274,308.21 775.455,310.301 768.918,333.26 C764.66,348.194 766.708,359.576 768.51,369.623 C771.077,384.039 773.313,396.491 757.299,413.27 C746.172,424.949 722.024,466.616 737.375,481.721 C748,492.193 740.52,528.964 730.881,557.286 C728.45,564.426 715.785,600.134 705.253,601.418 C704.786,601.477 704.718,601.613 704.675,601.681 C703.052,604.945 711.764,619.982 718.768,632.06 C731.263,653.633 743.061,674.008 735.301,681.088" fill="#99704F"/>
    <path d="M696.66,650.173 L694.059,647.326 C699.516,642.345 686.375,619.658 676.787,603.092 C666.085,584.621 660.152,573.928 662.583,569.049 C663.042,568.106 664.054,566.933 666.153,566.678 C668.746,566.355 672.953,561.833 676.948,550.094 C685.083,526.192 686.562,491.954 676.37,481.907 C657.789,463.615 706.562,389.453 715.87,379.703 C730.524,364.335 728.552,353.328 726.053,339.388 C724.191,328.933 722.066,317.075 726.563,301.291 C733.813,275.842 755.786,273.394 770.321,271.77 C777.087,271.014 782.935,270.368 784.652,267.886 L787.831,270.07 C785.119,274.014 778.778,274.72 770.754,275.612 C755.633,277.304 736.814,279.395 730.286,302.345 C726.027,317.279 728.067,328.669 729.861,338.708 C732.436,353.132 734.672,365.585 718.666,382.364 C705.984,395.658 664.428,464.729 679.082,479.153 C691.662,491.546 687.964,529.703 680.612,551.344 C677.781,559.648 673.055,569.712 666.612,570.511 C666.145,570.571 666.077,570.698 666.043,570.775 C664.419,574.03 673.132,589.067 680.127,601.145 C692.622,622.718 704.429,643.101 696.66,650.173" fill="#99704F"/>
    <path d="M945.463,695.751 L941.613,695.385 C942.607,684.93 965.991,682.134 990.734,679.159 C1004.606,677.501 1021.853,675.436 1023.493,672.18 C1023.527,672.104 1023.587,671.976 1023.349,671.56 C1018.062,662.363 1038.997,630.819 1043.247,624.58 C1060.103,599.862 1084.957,571.744 1099.772,573.997 C1121.116,577.193 1139.892,532.865 1142.536,516.953 C1146.335,494.08 1157.632,488.376 1170.713,481.78 C1179.817,477.182 1190.153,471.98 1199.537,459.612 C1213.961,440.598 1204.331,424.295 1196.604,411.196 C1192.482,404.243 1189.252,398.744 1190.773,394.205 L1194.437,395.429 C1193.468,398.302 1196.46,403.368 1199.919,409.233 C1207.357,421.821 1218.602,440.861 1202.614,461.941 C1192.686,475.023 1181.933,480.446 1172.447,485.231 C1159.816,491.615 1149.829,496.638 1146.344,517.582 C1143.709,533.418 1124.558,581.655 1099.203,577.813 C1087.83,576.113 1063.919,601.12 1046.435,626.756 C1030.786,649.698 1024.598,665.967 1026.706,669.639 C1027.76,671.466 1027.42,672.971 1026.944,673.914 C1024.496,678.785 1012.392,680.459 991.193,683.001 C972.187,685.279 946.16,688.39 945.463,695.751" fill="#99704F"/>
    <path d="M843.455,714.374 L839.613,714 C840.616,703.545 863.991,700.749 888.735,697.782 C902.598,696.125 919.862,694.059 921.494,690.795 C921.536,690.727 921.596,690.6 921.358,690.183 C918.119,684.556 923.33,674.739 928.277,667.488 C941.163,648.601 969.442,622.71 986.918,625.354 C1007.25,628.405 1037.519,553.69 1040.545,535.56 C1044.344,512.686 1055.641,507 1068.714,500.404 C1077.826,495.805 1088.153,490.586 1097.537,478.227 C1111.97,459.213 1102.34,442.91 1094.613,429.811 C1090.491,422.858 1087.252,417.359 1088.782,412.82 L1092.437,414.052 C1091.477,416.925 1094.469,421.983 1097.928,427.856 C1105.366,440.445 1116.611,459.485 1100.614,480.565 C1090.695,493.646 1079.934,499.069 1070.456,503.846 C1057.817,510.221 1047.838,515.262 1044.344,536.206 C1042.126,549.508 1012.078,633.021 986.357,629.17 C972.179,627.088 945.702,648.805 931.464,669.664 C924.486,679.906 923.398,685.984 924.715,688.254 C925.761,690.081 925.429,691.594 924.953,692.529 C922.505,697.408 910.401,699.083 889.202,701.624 C870.188,703.885 844.161,707.005 843.455,714.374" fill="#99704F"/>
    <path d="M867.603,728.697 L863.761,728.331 C864.756,717.876 888.131,715.08 912.883,712.113 C926.746,710.456 944.001,708.382 945.625,705.126 C945.667,705.058 945.735,704.922 945.497,704.506 C942.259,698.887 947.469,689.061 952.417,681.819 C965.302,662.941 993.582,637.041 1011.066,639.676 C1031.365,642.745 1061.658,568.021 1064.676,549.899 C1068.484,527.026 1079.781,521.322 1092.854,514.726 C1101.965,510.128 1112.302,504.926 1121.668,492.55 C1136.11,473.544 1126.479,457.249 1118.753,444.151 C1114.63,437.189 1111.383,431.698 1112.922,427.151 L1116.585,428.375 C1115.616,431.248 1118.609,436.314 1122.077,442.179 C1129.514,454.776 1140.751,473.807 1124.762,494.887 C1114.834,507.969 1104.082,513.392 1094.596,518.177 C1081.965,524.552 1071.978,529.584 1068.492,550.528 C1066.274,563.839 1036.277,647.335 1010.488,643.501 C996.336,641.41 969.841,663.119 955.612,683.987 C948.634,694.221 947.546,700.307 948.846,702.585 C949.9,704.412 949.56,705.917 949.093,706.86 C946.645,711.731 934.532,713.405 913.342,715.938 C894.336,718.225 868.309,721.336 867.603,728.697" fill="#99704F"/>
    <path d="M781.643,683.459 L777.792,683.094 C778.795,672.63 802.17,669.834 826.922,666.876 C840.786,665.21 858.041,663.144 859.673,659.88 C859.707,659.821 859.775,659.685 859.537,659.268 C856.298,653.65 861.517,643.824 866.456,636.573 C879.342,617.703 907.587,591.829 925.097,594.439 C945.353,597.456 975.698,522.784 978.715,504.662 C982.515,481.78 993.811,476.076 1006.893,469.48 C1016.005,464.89 1026.333,459.688 1035.708,447.321 C1050.141,428.298 1040.519,412.003 1032.784,398.896 C1028.67,391.952 1025.423,386.452 1026.961,381.905 L1030.625,383.137 C1029.647,386.01 1032.648,391.068 1036.116,396.941 C1043.545,409.53 1054.782,428.57 1038.785,449.65 C1028.865,462.731 1018.113,468.154 1008.635,472.94 C995.996,479.306 986.008,484.347 982.515,505.291 C980.313,518.593 950.308,602.055 924.528,598.255 C910.392,596.164 883.881,617.89 869.643,638.749 C862.665,648.983 861.577,655.069 862.886,657.347 C863.94,659.166 863.591,660.679 863.124,661.623 C860.676,666.493 848.58,668.168 827.373,670.709 C808.367,672.979 782.348,676.098 781.643,683.459" fill="#99704F"/>
    <path d="M889.857,762.221 L887.247,759.382 C892.721,754.401 879.58,731.714 869.984,715.148 C859.282,696.677 853.341,685.984 855.78,681.105 C856.248,680.162 857.251,678.989 859.342,678.725 C861.951,678.402 866.15,673.889 870.154,662.159 C878.28,638.248 879.75,604.002 869.559,593.963 C850.986,575.663 899.759,501.509 909.067,491.751 C923.712,476.391 921.749,465.384 919.258,451.444 C917.388,440.989 915.263,429.14 919.768,413.347 C927.019,387.889 948.983,385.441 963.518,383.826 C970.292,383.078 976.132,382.432 977.857,379.942 L981.036,382.126 C978.316,386.079 971.975,386.784 963.951,387.668 C948.83,389.351 930.019,391.442 923.474,414.401 C919.224,429.335 921.264,440.717 923.066,450.764 C925.642,465.18 927.877,477.632 911.863,494.42 C899.19,507.714 857.633,576.785 872.279,591.201 C884.859,603.594 881.17,641.759 873.8,663.4 C870.97,671.704 866.261,681.777 859.809,682.559 C859.342,682.618 859.274,682.754 859.24,682.831 C857.616,686.086 866.32,701.123 873.333,713.21 C885.819,734.774 897.617,755.149 889.857,762.221" fill="#99704F"/>
    <path d="M824.168,731.323 L821.567,728.467 C827.024,723.486 813.892,700.799 804.295,684.241 C793.602,665.762 787.669,655.069 790.092,650.19 C790.551,649.247 791.562,648.074 793.662,647.819 C796.254,647.487 800.462,642.974 804.457,631.235 C812.591,607.342 814.07,573.095 803.879,563.048 C785.298,544.756 834.062,470.602 843.378,460.836 C858.032,445.476 856.06,434.469 853.561,420.529 C851.7,410.082 849.575,398.225 854.071,382.432 C861.33,356.983 883.294,354.535 897.829,352.92 C904.595,352.172 910.452,351.509 912.16,349.027 L915.348,351.211 C912.636,355.164 906.287,355.869 898.254,356.753 C883.141,358.445 864.331,360.536 857.794,383.486 C853.544,398.429 855.576,409.819 857.378,419.857 C859.945,434.265 862.18,446.726 846.175,463.505 C833.493,476.799 791.936,545.87 806.582,560.294 C819.179,572.687 815.481,610.852 808.12,632.493 C805.29,640.789 800.564,650.862 794.121,651.652 C793.653,651.712 793.585,651.839 793.551,651.916 C791.919,655.171 800.64,670.216 807.636,682.286 C820.131,703.859 831.937,724.242 824.168,731.323" fill="#533220"/>
    <path d="M1014.696,216.971 C1014.696,233.691 1000.195,247.248 982.294,247.248 C964.393,247.248 949.892,233.691 949.892,216.971 C949.892,200.252 964.393,186.703 982.294,186.703 C1000.195,186.703 1014.696,200.252 1014.696,216.971" fill="#FFFFFE"/>
    <path d="M904.009,170.884 C904.009,187.604 889.5,201.153 871.599,201.153 C853.698,201.153 839.188,187.604 839.188,170.884 C839.188,154.165 853.698,140.624 871.599,140.624 C889.5,140.624 904.009,154.165 904.009,170.884" fill="#FFFFFE"/>
    <path d="M1054.672,310.191 C1054.672,326.91 1040.162,340.459 1022.253,340.459 C1004.369,340.459 989.851,326.91 989.851,310.191 C989.851,293.471 1004.369,279.922 1022.253,279.922 C1040.162,279.922 1054.672,293.471 1054.672,310.191" fill="#FFFFFE"/>
    <path d="M1074.154,255.034 C1074.154,262.395 1068.782,268.362 1062.152,268.362 C1055.539,268.362 1050.167,262.395 1050.167,255.034 C1050.167,247.665 1055.539,241.698 1062.152,241.698 C1068.782,241.698 1074.154,247.665 1074.154,255.034" fill="#FFFFFE"/>
    <path d="M969.008,94.172 C969.008,98.702 965.702,102.391 961.613,102.391 C957.542,102.391 954.227,98.702 954.227,94.172 C954.227,89.633 957.542,85.944 961.613,85.944 C965.702,85.944 969.008,89.633 969.008,94.172" fill="#FFFFFE"/>
    <path d="M868.13,60.809 C868.13,68.17 862.767,74.137 856.145,74.137 C849.524,74.137 844.152,68.17 844.152,60.809 C844.152,53.448 849.524,47.481 856.145,47.481 C862.767,47.481 868.13,53.448 868.13,60.809" fill="#FFFFFE"/>
    <path d="M1127.797,170.884 C1127.797,178.245 1122.433,184.221 1115.803,184.221 C1109.19,184.221 1103.827,178.245 1103.827,170.884 C1103.827,163.523 1109.19,157.556 1115.803,157.556 C1122.433,157.556 1127.797,163.523 1127.797,170.884" fill="#FFFFFE"/>
    <path d="M1138.745,296.03 C1138.745,308.117 1126.114,317.917 1110.533,317.917 C1094.944,317.917 1082.313,308.117 1082.313,296.03 C1082.313,283.934 1094.944,274.134 1110.533,274.134 C1126.114,274.134 1138.745,283.934 1138.745,296.03" fill="#FFFFFE"/>
  </g>
</svg>