<?xml version="1.0" encoding="UTF-8" standalone="no"?>
<!-- Created with Inkscape (http://www.inkscape.org/) -->

<svg
   xmlns:dc="http://purl.org/dc/elements/1.1/"
   xmlns:cc="http://creativecommons.org/ns#"
   xmlns:rdf="http://www.w3.org/1999/02/22-rdf-syntax-ns#"
   xmlns:svg="http://www.w3.org/2000/svg"
   xmlns="http://www.w3.org/2000/svg"
   xmlns:sodipodi="http://sodipodi.sourceforge.net/DTD/sodipodi-0.dtd"
   xmlns:inkscape="http://www.inkscape.org/namespaces/inkscape"
   width="436.15933mm"
   height="430.23959mm"
   viewBox="0 0 436.15933 430.23959"
   version="1.1"
   id="svg33791"
   inkscape:version="0.92.4 (5da689c313, 2019-01-14)"
   sodipodi:docname="newfries.svg">
  <defs
     id="defs33785" />
  <sodipodi:namedview
     id="base"
     pagecolor="#ffffff"
     bordercolor="#666666"
     borderopacity="1.0"
     inkscape:pageopacity="0.0"
     inkscape:pageshadow="2"
     inkscape:zoom="0.24748737"
     inkscape:cx="818.71845"
     inkscape:cy="640.66373"
     inkscape:document-units="mm"
     inkscape:current-layer="layer1"
     showgrid="false"
     inkscape:pagecheckerboard="true"
     fit-margin-top="0"
     fit-margin-left="0"
     fit-margin-right="0"
     fit-margin-bottom="0"
     inkscape:snap-global="false"
     inkscape:window-width="1810"
     inkscape:window-height="938"
     inkscape:window-x="0"
     inkscape:window-y="23"
     inkscape:window-maximized="0" />
  <metadata
     id="metadata33788">
    <rdf:RDF>
      <cc:Work
         rdf:about="">
        <dc:format>image/svg+xml</dc:format>
        <dc:type
           rdf:resource="http://purl.org/dc/dcmitype/StillImage" />
        <dc:title></dc:title>
      </cc:Work>
    </rdf:RDF>
  </metadata>
  <g
     inkscape:label="Layer 1"
     inkscape:groupmode="layer"
     id="layer1"
     transform="translate(242.58836,129.08447)">
    <g
       id="g34577"
       transform="matrix(0.26458333,0,0,0.26458333,-397.63095,-221.58332)">
      <g
         transform="translate(0,1747.6378)"
         id="layer1-7"
         inkscape:label="BG">
        <g
           transform="matrix(1.5875062,0,0,1.5875062,-1064.6223,109.40047)"
           id="g3706">
          <path
             inkscape:connector-curvature="0"
             id="path3154"
             d="m 1711.5,-948.9375 c -23.9085,14.16762 -47.076,29.64735 -70.7812,44.1875 -0.1106,15.37513 -0.2647,30.75007 -0.4063,46.125 -7.6616,-8.38047 -15.3452,-16.74118 -22.9687,-25.15625 -20.1203,18.40548 -39.3809,37.71268 -59.75,55.8125 -13.4503,-10.19892 -28.0975,-19.0001 -42.5938,-27.40625 -7.4863,-3.49649 -15.6538,-8.12322 -24.125,-7.03125 -10.0548,3.25098 -14.4718,13.61365 -22.4963,19.62132 -5.7882,5.75791 -11.5459,11.57857 -17.1599,17.50368 0.024,-6.40628 0.074,-12.81247 0.094,-19.21875 -27.0454,-14.11612 -53.3502,-30.34022 -81,-43.15625 -8.8412,-0.048 -11.3374,10.09805 -16.9043,15.18056 -18.9324,24.34133 -38.2425,48.38763 -57.6894,72.31944 1.2822,3.47878 2.5484,7.10507 2.5312,10.8125 -6.4778,2.04245 -15.8095,5.21747 -15.3438,13.5625 -2.265,14.84924 -5.1069,29.66401 -7.5937,44.5 -11.7902,-17.75172 -23.5347,-35.45717 -35.125,-53.28125 -36.6057,-7.01997 -73.1363,-14.42352 -109.7187,-21.5625 -1.8885,16.29857 -3.3794,32.63907 -4.9688,48.96875 -4.1003,-3.71587 -11.6082,-7.0255 -15.623,-1.33751 -18.0084,20.81213 -36.0911,41.51994 -53.377,62.93126 5.9515,11.55166 12.0432,23.03108 18.0938,34.53125 -11.6145,27.85421 -23.2298,55.70808 -34.8438,83.5625 49.035,58.65334 98.2482,117.15754 147.2812,175.8125 -5.6803,3.8299 -11.2747,7.7127 -16.8437,11.6875 66.4116,115.77164 99.6674,247.75633 112.875,379.84375 2.1322,20.346303 3.8133,40.735498 5.4687,61.125 26.3139,4.418689 49.8451,19.214627 76,23.75 133.0896,-30.002402 271.0022,-33.852641 406.7634,-23.871813 27.2092,2.329138 54.1685,7.158747 81.2935,10.07778 8.0143,-0.869409 16.0162,-1.86828 24.0681,-2.330967 -18.2046,-16.752508 -23.3532,-42.419874 -24,-66.09375 -2.9086,-72.132208 19.6704,-142.27114 47.957,-207.60756 17.8782,-39.72624 39.0795,-77.74756 61.2306,-115.23619 -4.5596,-7.98232 -8.8845,-16.0997 -12.8126,-24.40625 35.021,-29.5415 70.0409,-59.08434 105.0626,-88.625 3.0531,-20.54187 6.3023,-41.05459 9.375,-61.59375 -18.362,-8.97756 -36.8455,-17.70414 -55.25,-26.59375 13.6132,-23.06366 29.4964,-44.80943 43.625,-67.46875 2.4829,-9.80756 -7.2761,-16.58362 -9.4927,-25.46121 -5.606,-13.33109 -8.7563,-27.44327 -12.3823,-41.44504 14.8708,-20.04412 30.4165,-39.45305 48.1874,-57.03125 -10.3987,-35.57694 -15.1861,-73.82996 -34.1874,-106 -6.9857,-6.66813 -16.6609,-0.60656 -24.613,0.0701 -31.6214,6.69742 -63.2598,13.31816 -94.8246,20.27368 -10.4039,27.09059 -21.6045,53.8774 -32.4687,80.8125 0.6292,-14.27752 9.024,-26.27371 15.5625,-38.625 -2.8727,-7.44653 -8.2439,-15.41242 -4.7162,-23.54981 3.8316,-23.82192 7.634,-47.64875 11.5912,-71.45019 -20.1189,-23.13436 -40.2549,-46.25419 -60.2812,-69.46875 -30.2561,11.46614 -60.5412,23.05179 -90.7813,34.4375 -8.6804,-10.43886 -19.1451,-19.39381 -28.2245,-29.64182 -7.45,-7.84382 -14.9256,-15.66331 -22.4005,-23.48318 l -0.9029,0.42993 -0.4096,0.19507 z m -484.3125,365.03125 c 6.3542,6.97917 12.7083,13.95833 19.0625,20.9375 -1.3333,7.6875 -2.6667,15.375 -4,23.0625 -6.0144,-15.15942 -11.5604,-30.59682 -16.9375,-46.03125 0.625,0.67708 1.25,1.35417 1.875,2.03125 z m 99.8437,109.34375 c 1.3368,0.8814 -0.9017,1.45404 0,0 z"
             style="fill:#000000;stroke:none" />
          <path
             style="fill:#ff0000;stroke:none"
             d="m 1188.556,-385.76071 c 0,0 381.7932,-272.89243 721.3072,-25.62371 -93.5265,215.23906 -114.0254,270.33006 -135.8056,421.50986 -125.5561,-19.2176996 -324.1398,-35.8731 -472.7573,24.3426 -10.2495,-126.8374 -33.3108,-275.45484 -112.7443,-420.22875 z"
             id="path3148"
             inkscape:connector-curvature="0" />
          <path
             style="fill:#550000;stroke:none"
             d="m 1306.4251,38.95214 c 0,0 40.4235,13.9771 56.3721,21.1396 170.5823,-41.2315 408.0574,-30.1079 483.6474,-12.8119 -53.8098,-26.2642 -73.0276,-32.0296 -73.0276,-32.0296 0,0 -279.9389,-51.888 -466.9919,23.7019 z"
             id="path3150"
             inkscape:connector-curvature="0"
             sodipodi:nodetypes="ccccc" />
          <path
             style="fill:#800000;stroke:none"
             d="m 1783.0259,11.40664 c 0,0 -4.4786,-148.6996 133.1655,-409.73939 15.6007,48.28979 28.2638,66.38181 28.2638,66.38181 0,0 -139.6491,220.36388 -98.6512,371.54368 -34.592,-12.8118 -62.7781,-28.1861 -62.7781,-28.1861 z"
             id="path3152"
             inkscape:connector-curvature="0"
             sodipodi:nodetypes="ccccc" />
          <path
             style="fill:#ffff00;stroke:none"
             d="m 1116.5968,-739.91697 -43.4678,45.96291 147.2188,278.84375 c 10.4617,-6.05117 21.0338,-11.92615 31.75,-17.5625 z"
             id="path3260"
             inkscape:connector-curvature="0"
             sodipodi:nodetypes="ccccc" />
          <path
             style="fill:#f8cb0c;fill-opacity:1;stroke:none"
             d="m 1126.5665,-739.23531 128.125,305.21875 c 6.6106,-3.44938 13.2683,-6.81134 19.9687,-10.09375 -17.2469,-24.85236 -56.2665,-95.23672 -103.6874,-271.5625 -28.9899,-16.30683 -44.4063,-23.5625 -44.4063,-23.5625 z"
             id="path3262"
             inkscape:connector-curvature="0" />
          <path
             style="fill:#ffff00;stroke:none"
             d="m 1086.0978,-652.20406 -30.1563,72.34375 146.8437,175.21875 c 0.9843,-0.61979 1.9508,-1.26034 2.9376,-1.875 2.5498,-1.53823 5.1211,-3.04804 7.6874,-4.5625 -42.4715,-80.35864 -84.9325,-160.71772 -127.3124,-241.125 z"
             id="path3285"
             inkscape:connector-curvature="0" />
          <path
             style="fill:#ffff00;stroke:none"
             d="m 1330.4102,-788.17281 -33.5312,14.5 -46.4375,268.25 c 6.7453,14.67108 14.1169,29.05066 22.3437,42.96875 z"
             id="path3304"
             inkscape:connector-curvature="0" />
          <path
             style="fill:#f8cb0c;fill-opacity:1;stroke:none"
             d="m 1335.8478,-784.54781 -57.7813,330.75 c 1.293,2.06463 2.6026,4.11355 3.9375,6.15625 9.1554,-4.38413 18.3804,-8.6367 27.6875,-12.6875 l 58.7813,-278 z"
             id="path3306"
             inkscape:connector-curvature="0" />
          <path
             style="fill:#f8cb0c;fill-opacity:1;stroke:none"
             d="m 1142.4415,-785.48531 -4.1563,42.96875 c 14.4945,8.52946 31.9011,18.4431 39.5626,21.46875 7.9255,29.5408 16.2145,58.8779 25.4062,88.0625 0.3703,1.11369 0.755,2.22928 1.125,3.34375 l 49.9688,54.84375 c 3.1289,-18.12503 6.238,-36.25133 9.375,-54.375 z m 191.9063,247.3125 c -2.9321,13.85521 -5.8507,27.707 -8.7813,41.5625 l 19.8125,21.75 c 9.8644,-3.75641 19.7803,-7.35884 29.7812,-10.71875 z"
             id="path3330"
             inkscape:connector-curvature="0" />
          <path
             style="fill:#ffff00;stroke:none"
             d="m 1153.754,-787.26656 111.9062,146.96875 c 3.6812,-21.25992 7.3765,-42.52218 11.0626,-63.78125 l -45.0626,-67.78125 z m 193.3125,189.0625 c -3.5769,16.91014 -7.1714,33.80897 -10.75,50.71875 l 45.4687,59.71875 c 10.6676,-3.47818 21.4153,-6.71603 32.2188,-9.71875 z"
             id="path3332"
             inkscape:connector-curvature="0" />
          <path
             style="fill:#ffff00;stroke:none"
             d="m 1488.9415,-844.32906 c 0,0 -29.8857,29.88699 -60.6875,64.3125 -6.3384,57.04513 -10.5936,237.42414 -11.5625,281.78125 10.0158,-2.74356 20.0691,-5.27856 30.1875,-7.59375 4.7262,-80.88636 42.0625,-338.5 42.0625,-338.5 z"
             id="path3370"
             inkscape:connector-curvature="0" />
          <path
             style="fill:#f8cb0c;fill-opacity:1;stroke:none"
             d="m 1497.0978,-842.51656 c 0,0 -38.4938,256.92993 -42.5313,335 14.4368,-3.13732 28.9549,-5.84699 43.5625,-8.0625 3.3573,-42.5161 15.7289,-192.59869 51.5312,-301.5625 -32.6135,-19.93056 -52.5624,-25.375 -52.5624,-25.375 z"
             id="path3372"
             inkscape:connector-curvature="0" />
          <path
             style="fill:#ffff00;fill-opacity:1;stroke:none"
             d="m 1367.5665,-867.89156 c -31.7077,40.76706 -56.1875,70.65625 -56.1875,70.65625 0,0 1.0354,6.46332 1.2812,8 7.4477,-3.24294 14.9121,-6.46116 22.4063,-9.53125 2.7916,-0.4229 2.3438,2.1002 4.5625,4.9375 10.6966,16.83843 23.125,33.29967 34.7188,49.96875 -3.949,-49.20292 -6.7813,-94.899 -6.7813,-124.03125 z m 7.75,135.65625 c -8.6223,41.03157 -17.2633,82.07521 -25.9375,123.09375 14.7033,22.1575 29.4345,44.29389 44.1562,66.4375 -4.5943,-43.14293 -12.3173,-118.17823 -18.2187,-189.53125 z"
             id="path3413"
             inkscape:connector-curvature="0" />
          <path
             style="fill:#f8cb0c;fill-opacity:1;stroke:none"
             d="m 1375.7228,-869.70406 c 0,0 2.5113,201.51835 27.0937,341 2.1548,3.24064 4.3138,6.47807 6.4687,9.71875 2.263,-88.19321 3.7316,-176.46721 11.2188,-264.40625 5.8382,-6.53175 11.2956,-12.52656 16.5938,-18.25 0.051,-7.58646 0.2187,-34.53125 0.2187,-34.53125 z"
             id="path3415"
             inkscape:connector-curvature="0" />
          <path
             style="fill:#f8cb0c;fill-opacity:1;stroke:none"
             d="m 1524.6602,-673.95406 c -8.4933,52.04605 -13.8663,104.71479 -18.3437,157.1875 9.027,-1.25705 18.078,-2.30095 27.1563,-3.1875 z"
             id="path3437"
             inkscape:connector-curvature="0" />
          <path
             style="fill:#f8cb0c;fill-opacity:1;stroke:none"
             d="m 1541.129,-756.17281 c -5.1256,21.17588 -9.5177,42.52727 -13.3438,64 4.182,57.24868 11.3782,152.90437 12.7813,171.53125 8.8716,-0.76901 17.7771,-1.34849 26.6875,-1.75 l 5.0312,-203.25 z"
             id="path3439"
             inkscape:connector-curvature="0" />
          <path
             style="fill:#ffff00;fill-opacity:1;stroke:none"
             d="m 1613.0665,-860.64156 -49.8437,47.125 -0.7813,66.96875 c 5.9949,5.8743 11.9983,11.75493 17.9687,17.65625 -1.7114,68.7291 -3.4579,137.45656 -5.0937,206.1875 3.8544,-0.12468 7.7024,-0.22735 11.5625,-0.28125 6.7631,-0.11643 13.5215,-0.10156 20.2812,0.0312 l 5.9063,-337.6875 z"
             id="path3467"
             inkscape:connector-curvature="0" />
          <path
             style="fill:#f8cb0c;fill-opacity:1;stroke:none"
             d="m 1621.2228,-858.82906 -4.375,336.15625 c 13.0598,0.48611 26.0777,1.43088 39.0624,2.84375 l 5.1563,-295.5 z"
             id="path3469"
             inkscape:connector-curvature="0" />
          <path
             style="fill:#ffff00;fill-opacity:1;stroke:none"
             d="m 1860.379,-827.11031 -46.1875,8.15625 c 0,0 -120.8331,215.7253 -149.6875,264.59375 -0.1996,11.82053 -0.4027,23.64808 -0.5938,35.46875 8.0386,0.99394 16.046,2.1839 24.0313,3.53125 z"
             id="path3504"
             inkscape:connector-curvature="0" />
          <path
             style="fill:#f8cb0c;fill-opacity:1;stroke:none"
             d="m 1868.5352,-824.39156 -171.875,310.5625 c 15.2606,2.82845 30.3783,6.31411 45.3438,10.4375 l 150.0938,-263.9375 z"
             id="path3507"
             inkscape:connector-curvature="0" />
          <path
             style="fill:#ffff00;fill-opacity:1;stroke:none"
             d="m 1706.379,-929.48531 -51.6562,32.625 -0.625,62.15625 14.9687,16.375 c -1.3103,82.59897 -2.8651,165.18383 -4.2813,247.78125 11.8985,-20.94632 23.7795,-41.91649 35.6563,-62.875 z"
             id="path3529"
             inkscape:connector-curvature="0" />
          <path
             style="fill:#f8cb0c;fill-opacity:1;stroke:none"
             d="m 1713.629,-928.36031 -10.5938,290.375 c 21.3703,-37.71915 42.6774,-75.46803 63.9376,-113.25 l 4.625,-116.65625 z"
             id="path3531"
             inkscape:connector-curvature="0" />
          <path
             style="fill:#ffff00;stroke:none"
             d="m 1848.379,-913.61031 -74.3125,28.1875 -0.625,7.84375 6.2813,6.5625 c -1.3708,34.82306 -2.7489,69.64588 -4.125,104.46875 11.1727,-19.87839 22.3386,-39.7534 33.4687,-59.65625 10.1119,-1.78744 20.2279,-3.53226 30.3437,-5.3125 z m -32.375,296.375 c -22.0201,38.68882 -44.0501,77.3697 -66.0625,116.0625 7.0566,2.0607 14.0621,4.27465 21.0313,6.625 10.2276,3.50131 20.3666,7.3006 30.4062,11.375 z"
             id="path3562"
             inkscape:connector-curvature="0" />
          <path
             style="fill:#f8cb0c;fill-opacity:1;stroke:none"
             d="m 1857.3478,-905.92281 -8.3126,72.71875 c 4.5612,-0.82162 9.1038,-1.66751 13.6563,-2.53125 2.1308,-0.45188 4.8215,-0.86476 9.2813,-1.46875 5.7676,14.17324 11.6376,28.4524 17.5312,42.71875 l 10.125,-62.75 z m 21.3437,178.375 c -17.4033,30.6761 -34.8079,61.34569 -52.25,92 l -17.75,155.40625 c 9.44,3.98706 18.8011,8.23261 28,12.75 z"
             id="path3564"
             inkscape:connector-curvature="0" />
          <path
             style="fill:#ffff00;stroke:none"
             d="m 1945.5352,-735.61031 -71.2187,85.625 c -5.4574,34.37701 -11.1229,68.73982 -16.75,103.09375 l 148.6563,-168.78125 z"
             id="path3594"
             inkscape:connector-curvature="0" />
          <path
             style="fill:#f8cb0c;fill-opacity:1;stroke:none"
             d="m 2008.9415,-704.82906 -153.4063,170.28125 c -3.8581,23.61893 -7.6763,47.23335 -11.375,70.875 3.4999,1.78904 6.9816,3.59946 10.4376,5.46875 l 153.4374,-185 z"
             id="path3596"
             inkscape:connector-curvature="0" />
          <path
             style="fill:#ffff00;stroke:none"
             d="m 2028.6602,-816.54781 -93.8437,20 -47.4063,118.21875 c 17.9109,-22.10832 36.8877,-43.5153 54.7188,-65.53125 l 0.2188,-0.25 0.6562,-0.75 43.625,14.34375 z"
             id="path3626"
             inkscape:connector-curvature="0" />
          <path
             style="fill:#f8cb0c;fill-opacity:1;stroke:none"
             d="m 2036.504,-812.17281 -40.8438,84.625 21.4688,7.0625 -0.6875,49.4375 c 14.5508,-20.24459 29.9893,-39.31261 46.125,-56 -17.3787,-70.38371 -26.0625,-85.125 -26.0625,-85.125 z m -87.9062,253.125 c -22.7873,27.47626 -45.5636,54.96165 -68.3438,82.4375 -4.7928,5.27093 -9.0629,11.17952 -13.6875,16.65625 l -3.1875,6.65625 c 9.7643,5.53998 19.319,11.41558 28.6562,17.625 8.6566,-21.77252 28.4295,-69.42783 56.5626,-123.375 z"
             id="path3628"
             inkscape:connector-curvature="0" />
          <path
             style="fill:#f8cb0c;fill-opacity:1;stroke:none"
             d="m 2017.2852,-658.64156 c -0.3441,0.47904 -0.6876,0.95805 -1.0312,1.4375 l -0.2188,16.875 c -20.1769,24.31925 -31.137,39.26766 -51.3124,63.59375 l -7.5,16.0625 c -19.772,42.97671 -41.3839,85.32698 -58.4376,129.5625 7.0607,4.88063 13.99,9.96246 20.75,15.25 1.5951,5.64662 3.3151,11.27103 5.1563,16.84375 24.1147,-60.15914 75.3373,-151.91051 113.125,-203.34375 -9.0832,-13.62472 -16.3246,-38.86768 -20.5313,-56.28125 z"
             id="path3657"
             inkscape:connector-curvature="0" />
          <path
             style="fill:#ffff00;stroke:none"
             d="m 1995.5665,-522.01656 c -25.1954,42.73706 -47.47,87.1634 -66.3437,133.0625 l 117.4062,-108.53125 z"
             id="path3675"
             inkscape:connector-curvature="0" />
          <path
             style="fill:#f8cb0c;fill-opacity:1;stroke:none"
             d="m 2046.629,-487.04781 -115.25,106.71875 c 2.1439,5.5419 4.4179,11.02927 6.8125,16.46875 l 102.7813,-86.6875 z"
             id="path3677"
             inkscape:connector-curvature="0" />
          <path
             sodipodi:nodetypes="ccccc"
             style="fill:#000000;stroke:none;stroke-width:0.67544997"
             d="m 1288.1673,-340.55416 c 38.2192,-43.39898 261.5877,-138.73376 534.7018,-31.55863 -48.5296,106.50731 -49.005,133.50639 -77.1932,219.27447 -98.3018,-29.34281 -280.6795,-28.86253 -401.5292,12.39171 -18.9155,-69.1211 -26.788,-117.97369 -55.9794,-200.10755 z"
             id="path34907"
             inkscape:connector-curvature="0" />
          <path
             inkscape:connector-curvature="0"
             id="path34905"
             d="m 1299.2747,-335.95916 c 26.1387,-29.80256 251.3489,-133.60374 510.0509,-28.31385 -46.2923,95.55649 -46.7457,119.7796 -73.6344,196.72921 -93.7699,-26.32586 -267.7396,-25.89496 -383.0179,11.11762 -18.0434,-62.01423 -25.553,-105.84392 -53.3986,-179.53298 z"
             style="fill:#ffffff;stroke:none;stroke-width:0.62486261"
             sodipodi:nodetypes="ccccc" />
        </g>
      </g>
      <g
         style="display:inline"
         inkscape:label="Halaman"
         id="layer2">
        <g
           style="font-style:normal;font-variant:normal;font-weight:bold;font-stretch:normal;font-size:360.09094238px;line-height:1000%;font-family:Arial;-inkscape-font-specification:'Arial Bold';letter-spacing:0px;word-spacing:0px;fill:#0b2228;fill-opacity:1;stroke:none"
           id="g4275"
           transform="matrix(0.80086088,0,0,0.80086088,-1954.0007,1272.3658)" />
      </g>
    </g>
  </g>
</svg>
