<?xml version="1.0" encoding="UTF-8" standalone="no"?>
<!-- Created with Inkscape (http://www.inkscape.org/) -->

<svg
   version="1.1"
   id="svg4592"
   width="880"
   height="880"
   viewBox="0 0 880 880"
   sodipodi:docname="garlic-publicdomainvectors.org.svg"
   inkscape:version="1.2 (dc2aedaf03, 2022-05-15)"
   xmlns:inkscape="http://www.inkscape.org/namespaces/inkscape"
   xmlns:sodipodi="http://sodipodi.sourceforge.net/DTD/sodipodi-0.dtd"
   xmlns="http://www.w3.org/2000/svg"
   xmlns:svg="http://www.w3.org/2000/svg">
  <defs
     id="defs4596">
    <clipPath
       clipPathUnits="userSpaceOnUse"
       id="clipPath4608">
      <path
         d="M 0,660 H 660 V 0 H 0 Z"
         id="path4606" />
    </clipPath>
  </defs>
  <sodipodi:namedview
     id="namedview4594"
     pagecolor="#ffffff"
     bordercolor="#000000"
     borderopacity="0.25"
     inkscape:showpageshadow="2"
     inkscape:pageopacity="0.0"
     inkscape:pagecheckerboard="0"
     inkscape:deskcolor="#d1d1d1"
     showgrid="false"
     inkscape:zoom="0.95113636"
     inkscape:cx="440.52569"
     inkscape:cy="440.52569"
     inkscape:window-width="1920"
     inkscape:window-height="1017"
     inkscape:window-x="-8"
     inkscape:window-y="-8"
     inkscape:window-maximized="1"
     inkscape:current-layer="g4600">
    <inkscape:page
       x="0"
       y="0"
       id="page4598"
       width="880"
       height="880" />
  </sodipodi:namedview>
  <g
     id="g4600"
     inkscape:groupmode="layer"
     inkscape:label="Page 1"
     transform="matrix(1.3333333,0,0,-1.3333333,0,880)">
    <g
       id="g4602">
      <g
         id="g4604"
         clip-path="url(#clipPath4608)">
        <g
           id="g4610"
           transform="translate(117.9512,337.7881)">
          <path
             d="m 0,0 c 14.345,-2.046 34.563,-2.38 56.309,-1.771 29.586,0.832 61.67,3.402 85.777,5.808 l 4.417,0.442 0.658,-4.719 c 3.578,-25.665 4.526,-62.529 -4.881,-90.174 -6.901,-20.279 -19.338,-35.705 -40.28,-38.659 -18.472,-2.606 -42.452,2.558 -64.225,12.272 -21.66,9.663 -41.332,23.929 -51.546,39.684 -6.55,10.103 -6.84,23.038 -3.902,36.648 2.788,12.923 8.48,26.568 14.325,38.819 l 0.952,1.992 z"
             style="fill:#787251;fill-opacity:1;fill-rule:evenodd;stroke:none"
             id="path4612" />
        </g>
        <g
           id="g4614"
           transform="translate(176.1006,327.9482)">
          <path
             d="m 0,0 c -20.87,-0.585 -40.486,-0.292 -55.201,1.553 -5.341,-11.375 -10.407,-23.799 -12.919,-35.44 -2.509,-11.629 -2.484,-22.34 2.485,-30.002 9.057,-13.97 27.034,-26.859 47.03,-35.78 20.441,-9.12 42.796,-13.991 59.826,-11.589 18.212,2.569 29.172,16.413 35.379,34.657 8.45,24.829 8.146,57.616 5.226,82.027 C 58.02,3.123 27.758,0.78 0,0"
             style="fill:#f5ddbc;fill-opacity:1;fill-rule:evenodd;stroke:none"
             id="path4616" />
        </g>
        <g
           id="g4618"
           transform="translate(107.981,294.0615)">
          <path
             d="m 0,0 c -2.51,-11.629 -2.484,-22.34 2.484,-30.002 9.058,-13.971 27.034,-26.859 47.03,-35.78 20.442,-9.12 42.797,-13.991 59.826,-11.589 0.846,0.118 1.676,0.263 2.489,0.43 C 63.756,-74.906 25.018,-52.453 0,0"
             style="fill:#f0d3aa;fill-opacity:1;fill-rule:evenodd;stroke:none"
             id="path4620" />
        </g>
        <g
           id="g4622"
           transform="translate(125.6606,321.0654)">
          <path
             d="M 0,0 C 50.313,-110.395 128.215,-127.294 128.226,4.058 85.485,2.705 42.743,1.353 0,0"
             style="fill:#faf3e8;fill-opacity:1;fill-rule:evenodd;stroke:none"
             id="path4624" />
        </g>
        <g
           id="g4626"
           transform="translate(338.9258,144.1807)">
          <path
             d="m 0,0 c 125.386,0 227.652,33.647 227.652,74.904 0,41.255 -102.266,74.904 -227.652,74.904 -125.387,0 -227.651,-33.649 -227.651,-74.904 C -227.651,33.647 -125.387,0 0,0"
             style="fill:#e0d7dc;fill-opacity:1;fill-rule:evenodd;stroke:none"
             id="path4628" />
        </g>
        <g
           id="g4630"
           transform="translate(493.1328,239.5566)">
          <path
             d="m 0,0 c -0.178,-1.42 -0.411,-2.845 -0.7,-4.272 -3.2,-15.751 -9.895,-26.978 -18.244,-34.518 -6.395,-5.771 -13.76,-9.37 -21.283,-11.169 -7.478,-1.788 -15.1,-1.783 -22.066,-0.367 -7.1,1.442 -13.564,4.356 -18.567,8.347 -7.803,-14.491 -18.181,-25.052 -29.708,-31.827 -11.421,-6.71 -23.953,-9.693 -36.242,-9.097 -12.301,0.596 -24.353,4.78 -34.801,12.4 -9.473,6.909 -17.612,16.638 -23.39,29.064 -7.776,-8.835 -18.653,-14.255 -29.657,-15.88 -4.987,-0.735 -10.04,-0.689 -14.874,0.176 -4.886,0.875 -9.526,2.586 -13.637,5.175 -8.103,5.104 -14.112,13.506 -15.877,25.461 -0.412,2.791 -0.718,5.562 -0.931,8.313 -5.944,3.284 -11.407,8.054 -15.972,14.081 -7.716,10.185 -12.881,24.015 -13.452,40.369 -0.563,16.111 3.341,34.68 13.699,54.584 12.277,23.598 33.671,49.162 67.533,74.814 34.345,26.018 38.067,59.197 42.33,97.206 1.904,16.969 3.913,34.872 8.683,53.598 2.467,9.688 16.134,15.859 29.732,17.221 4.287,0.429 8.597,0.402 12.545,-0.126 4.122,-0.551 7.902,-1.66 10.944,-3.376 5.602,-3.163 8.733,-8.124 7.417,-15.131 -5.121,-27.252 -2.224,-53.118 6.991,-76.85 9.901,-25.502 27.126,-48.604 49.565,-68.375 C -21.783,136.183 5.097,107.378 16.566,80.214 28.278,52.473 24.157,26.754 0,0"
             style="fill:#94476d;fill-opacity:1;fill-rule:evenodd;stroke:none"
             id="path4632" />
        </g>
        <g
           id="g4634"
           transform="translate(374.2295,381.5898)">
          <path
             d="m 0,0 c 12.105,-48.071 64.561,-110.78 45.09,-167.76 -1.062,-3.107 -2.226,-6.085 -3.479,-8.933 4.14,-3.814 9.976,-6.616 16.542,-7.951 5.912,-1.202 12.373,-1.207 18.701,0.306 6.281,1.502 12.447,4.521 17.827,9.38 7.19,6.491 12.981,16.296 15.805,30.195 8.88,43.695 -46.895,89.217 -59.351,133.579 18.683,-36.882 63.944,-72.315 67.982,-118.269 16.354,21.529 18.47,42.385 9.098,64.579 -10.912,25.846 -37.126,53.815 -74.488,86.736 -23.348,20.572 -41.309,44.711 -51.696,71.462 -8.038,21.344 -12.48,44.573 -8.716,67.27 0.861,5.186 -12.438,2.107 -16.706,2.047 -6.945,-0.099 -24.638,4.234 -27.188,1.832 -3.865,-3.64 -7.804,-38.167 -8.517,-44.511 -4.467,-39.815 -8.367,-74.569 -45.416,-102.637 -32.832,-24.871 -53.496,-49.508 -65.282,-72.159 -9.693,-18.63 -13.352,-35.855 -12.834,-50.695 0.51,-14.598 5.07,-26.877 11.878,-35.863 2.773,-3.663 5.921,-6.769 9.313,-9.25 0.086,46.295 32.681,107.72 61.223,144.893 -25.128,-48.448 -60.317,-106.117 -52.12,-161.647 1.394,-9.443 6.032,-16.011 12.267,-19.936 3.243,-2.045 6.928,-3.4 10.827,-4.097 3.948,-0.706 8.14,-0.735 12.344,-0.114 10.534,1.554 20.903,7.205 27.404,16.476 -1.148,3.307 -2.142,6.772 -2.968,10.393 -14.531,63.709 28.532,109.43 40.363,161.451 -5.454,-54.372 -45.057,-105.453 -32.677,-159.72 4.496,-19.717 14.344,-34.227 26.696,-43.236 9.175,-6.691 19.751,-10.363 30.542,-10.886 10.802,-0.525 21.829,2.105 31.889,8.017 13.925,8.182 26.04,22.668 33.268,43.818 C 54.421,-116.071 5.12,-51.828 0,0"
             style="fill:#f5d7e7;fill-opacity:1;fill-rule:evenodd;stroke:none"
             id="path4636" />
        </g>
        <g
           id="g4638"
           transform="translate(374.2295,381.5898)">
          <path
             d="m 0,0 c 6.752,-26.816 26.058,-58.186 38.434,-90.576 18.276,8.303 29.524,23.556 20.485,49.999 -3.718,9.494 -6.761,16.632 -12.526,25.147 -1.606,2.154 -3.204,4.304 -4.851,6.426 -26.658,34.187 -47.02,51.029 -52.503,96.141 -1.483,14.178 0.221,64.433 -16.35,69.844 -18.857,6.157 -23.603,-17.113 -24.953,-30.275 -6.867,-66.998 -2.492,-86.522 -55.563,-135.78 -25.431,-23.403 -32.057,-40.394 -27.505,-52.88 10.649,21.045 23.234,40.729 35.118,56.205 -10.125,-19.522 -21.883,-40.544 -31.778,-62.317 8.096,-10.823 25.793,-17.575 45.814,-22.079 10.597,29.905 27.368,57.4 34.081,86.922 -3.028,-30.183 -16.578,-59.353 -25.917,-88.617 16.871,-3.233 34.654,-5.11 49.3,-6.635 17.021,-1.687 40.547,-1.243 59.39,4.902 C 19.467,-61.701 2.857,-28.919 0,0"
             style="fill:#fcedf5;fill-opacity:1;fill-rule:evenodd;stroke:none"
             id="path4640" />
        </g>
        <g
           id="g4642"
           transform="translate(287.0781,239.9023)">
          <path
             d="m 0,0 c 26.349,-37.612 106.636,-42.443 125.693,21.001 3.296,-15.635 3.814,-30.689 -0.921,-44.544 -7.227,-21.149 -19.342,-35.636 -33.268,-43.817 -10.06,-5.912 -21.087,-8.542 -31.889,-8.018 -10.791,0.524 -21.367,4.195 -30.542,10.887 -12.351,9.009 -22.2,23.518 -26.696,43.235 C 0.749,-14.122 0.027,-7.041 0,0 m -63.794,17.403 c -2.728,-14.382 -3.499,-28.819 -1.389,-43.112 1.394,-9.442 6.033,-16.011 12.267,-19.936 3.243,-2.044 6.929,-3.4 10.827,-4.096 3.948,-0.706 8.141,-0.736 12.344,-0.114 10.534,1.553 20.903,7.205 27.404,16.475 -1.147,3.308 -2.141,6.773 -2.968,10.394 -2.434,10.677 -3.246,20.849 -2.865,30.629 -20.708,-14.086 -39.315,-11.372 -55.62,9.76 m -28.528,44.902 c -2.484,-9.315 -3.436,-18.083 -3.155,-26.147 0.51,-14.597 5.071,-26.877 11.878,-35.863 2.774,-3.662 5.921,-6.769 9.313,-9.249 0.018,9.813 1.503,20.309 4.094,31.109 -19.523,-3.18 -24.867,12.977 -22.13,40.15 M 195.501,47.032 c 11.784,0.414 18.99,9.444 18.034,33.839 0.651,-1.357 1.264,-2.711 1.831,-4.058 9.372,-22.194 7.256,-43.049 -9.097,-64.579 -1.079,12.276 -5.1,23.797 -10.768,34.798 m -60.05,-31.874 c 1.974,-13.885 1.407,-27.719 -3.21,-41.23 -1.061,-3.108 -2.225,-6.085 -3.478,-8.934 4.139,-3.813 9.975,-6.616 16.542,-7.951 5.912,-1.201 12.373,-1.207 18.7,0.307 6.281,1.502 12.447,4.52 17.827,9.379 7.19,6.492 12.982,16.296 15.806,30.196 3.444,16.951 -2.844,34.177 -12.556,51.504 C 177.587,12.452 160.724,2.242 135.451,15.158"
             style="fill:#f0c5db;fill-opacity:1;fill-rule:evenodd;stroke:none"
             id="path4644" />
        </g>
        <g
           id="g4646"
           transform="translate(471.832,251.7598)">
          <path
             d="M 0,0 C 5.694,24.45 -9.795,38.306 -20.067,54.771 -11.855,38.8 -2.317,24.815 0,0 m -8.361,-23.412 c -4.878,56.721 -38.529,86.464 -51.007,140.06 20.94,-57.165 49.777,-82.029 51.007,-140.06 M -22.157,-45.989 C -22.89,-2.718 -38.882,31.565 -49.753,75.676 -34.472,31.381 -15.678,-3.553 -22.157,-45.989 m -13.798,8.779 C -30.612,1.416 -57.975,48.081 -68.984,90.727 -62.78,48.253 -34.631,3.345 -35.955,-37.21"
             style="fill:#db93b7;fill-opacity:1;fill-rule:evenodd;stroke:none"
             id="path4648" />
        </g>
        <g
           id="g4650"
           transform="translate(228.8477,251.7598)">
          <path
             d="M 0,0 C -5.694,24.45 9.797,38.306 20.069,54.771 11.855,38.8 2.319,24.815 0,0 m 8.362,-23.412 c 4.877,56.721 38.53,86.464 51.006,140.06 C 38.43,59.483 9.592,34.619 8.362,-23.412 M 22.159,-45.989 C 22.891,-2.718 38.883,31.565 49.753,75.676 34.473,31.381 15.679,-3.553 22.159,-45.989 m 13.798,8.779 C 30.612,1.416 57.975,48.081 68.985,90.727 62.782,48.253 34.632,3.345 35.957,-37.21"
             style="fill:#db93b7;fill-opacity:1;fill-rule:evenodd;stroke:none"
             id="path4652" />
        </g>
        <g
           id="g4654"
           transform="translate(347.7373,319.252)">
          <path
             d="M 0,0 C 14.051,0 25.512,9.33 25.512,20.77 25.512,32.211 14.051,41.542 0,41.542 -14.052,41.542 -25.513,32.211 -25.513,20.77 -25.513,9.33 -14.052,0 0,0"
             style="fill:#ffffff;fill-opacity:1;fill-rule:evenodd;stroke:none"
             id="path4656" />
        </g>
        <g
           id="g4658"
           transform="translate(348.0098,373.1689)">
          <path
             d="m 0,0 c 10.286,0 18.675,6.656 18.675,14.817 0,8.162 -8.389,14.819 -18.675,14.819 -10.286,0 -18.676,-6.657 -18.676,-14.819 C -18.676,6.656 -10.286,0 0,0"
             style="fill:#ffffff;fill-opacity:1;fill-rule:evenodd;stroke:none"
             id="path4660" />
        </g>
        <g
           id="g4662"
           transform="translate(347.1738,411.8594)">
          <path
             d="m 0,0 c 6.178,0 11.216,4.974 11.216,11.073 0,6.1 -5.038,11.074 -11.216,11.074 -6.179,0 -11.217,-4.974 -11.217,-11.074 C -11.217,4.974 -6.179,0 0,0"
             style="fill:#ffffff;fill-opacity:1;fill-rule:evenodd;stroke:none"
             id="path4664" />
        </g>
        <g
           id="g4666"
           transform="translate(304.0225,218.3955)">
          <path
             d="M 0,0 C -4.709,24.475 0.54,40.567 3.962,58.197 -1.3,39.518 -12.301,21.885 0,0 M 14.573,-20.143 C -0.465,35.922 20.274,67.854 24.402,128.593 27.4,73.645 3.404,35.683 14.573,-20.143 m 19.558,-17.82 C 22.739,3.789 28.513,41.176 26.622,86.565 24.329,39.766 16.048,0.971 34.131,-37.963 m 10.792,12.286 C 28.997,9.915 42.229,62.368 40.881,106.392 46.793,63.876 32.318,12.892 44.923,-25.677"
             style="fill:#db93b7;fill-opacity:1;fill-rule:evenodd;stroke:none"
             id="path4668" />
        </g>
        <g
           id="g4670"
           transform="translate(401.4932,237.1758)">
          <path
             d="M 0,0 C 10.473,22.815 -1.933,39.491 -8.702,57.679 -3.852,40.387 2.694,24.776 0,0 m -12.878,-21.267 c 6.571,56.55 -20.447,92.426 -21.949,147.436 9.077,-60.199 32.356,-90.33 21.949,-147.436 m -18.035,-19.359 c 7.942,42.544 -0.866,79.334 -2.691,124.727 6.11,-46.457 17.534,-84.445 2.691,-124.727 m -11.762,11.363 c 12.965,36.776 -4.508,87.972 -6.762,131.958 -2.417,-42.855 16.174,-92.488 6.762,-131.958"
             style="fill:#db93b7;fill-opacity:1;fill-rule:evenodd;stroke:none"
             id="path4672" />
        </g>
        <g
           id="g4674"
           transform="translate(205.584,307.0254)">
          <path
             d="M 0,0 C 7.324,23.821 19.51,35.57 30.805,49.533 17.393,35.507 -0.595,25.097 0,0 m 4.574,-38.423 c 2.3,42.867 27.817,73.24 51.8,113.492 C 36.745,34.1 14.104,3.794 4.574,-38.423"
             style="fill:#db93b7;fill-opacity:1;fill-rule:evenodd;stroke:none"
             id="path4676" />
        </g>
        <g
           id="g4678"
           transform="translate(494.71,313.832)">
          <path
             d="M 0,0 C -10.4,22.648 -24.029,32.688 -37.065,45.041 -21.921,32.904 -2.718,24.956 0,0 M 0.53,-38.691 C -7.4,3.499 -36.697,30.244 -65.777,66.985 -40.92,28.959 -14.482,1.901 0.53,-38.691"
             style="fill:#db93b7;fill-opacity:1;fill-rule:evenodd;stroke:none"
             id="path4680" />
        </g>
        <g
           id="g4682"
           transform="translate(104.543,270.7979)">
          <path
             d="m 0,0 c 14.345,1.008 34.563,4.979 56.309,10.219 27.629,6.657 54.983,14.556 82.142,22.948 2.087,0.645 4.144,0.357 5.977,-0.833 1.832,-1.191 2.929,-2.955 3.187,-5.125 3.419,-28.763 3.366,-59.909 -5.335,-87.33 -6.901,-21.749 -19.338,-39.822 -40.28,-47.235 -18.472,-6.54 -42.453,-6.481 -64.225,-1.403 -21.66,5.052 -41.332,15.13 -51.546,28.709 -6.55,8.708 -6.84,21.582 -3.903,35.82 2.789,13.515 8.481,28.371 14.326,41.866 l 0.952,2.195 z"
             style="fill:#787251;fill-opacity:1;fill-rule:evenodd;stroke:none"
             id="path4684" />
        </g>
        <g
           id="g4686"
           transform="translate(162.6919,273.3389)">
          <path
             d="m 0,0 c -20.869,-5.029 -40.485,-8.912 -55.201,-10.201 -5.341,-12.512 -10.407,-26.015 -12.919,-38.191 -2.509,-12.163 -2.483,-22.868 2.485,-29.472 9.057,-12.042 27.034,-21.104 47.03,-25.767 20.442,-4.767 42.797,-4.879 59.826,1.149 18.212,6.446 29.172,22.625 35.379,42.189 7.458,23.503 8.095,51.751 6.138,74.417 -0.564,6.511 -1.813,8.428 -9.159,6.192 C 51.259,13.527 24.643,5.938 0,0"
             style="fill:#f5ddbc;fill-opacity:1;fill-rule:evenodd;stroke:none"
             id="path4688" />
        </g>
        <g
           id="g4690"
           transform="translate(94.5723,224.9473)">
          <path
             d="m 0,0 c -2.509,-12.163 -2.483,-22.868 2.485,-29.473 9.057,-12.042 27.034,-21.103 47.03,-25.766 20.441,-4.768 42.796,-4.879 59.826,1.148 0.845,0.3 1.676,0.621 2.489,0.961 C 63.756,-61.331 25.019,-47.125 0,0"
             style="fill:#f0d3aa;fill-opacity:1;fill-rule:evenodd;stroke:none"
             id="path4692" />
        </g>
        <g
           id="g4694"
           transform="translate(112.2524,255.7168)">
          <path
             d="M 0,0 C 50.312,-99.684 128.215,-99.995 128.226,31.359 85.485,20.904 42.743,10.452 0,0"
             style="fill:#faf3e8;fill-opacity:1;fill-rule:evenodd;stroke:none"
             id="path4696" />
        </g>
      </g>
    </g>
  </g>
</svg>
