<?xml version="1.0" encoding="UTF-8"?>
<!DOCTYPE svg PUBLIC "-//W3C//DTD SVG 1.1//EN" "http://www.w3.org/Graphics/SVG/1.1/DTD/svg11.dtd">
<svg version="1.1" xmlns="http://www.w3.org/2000/svg" xmlns:xlink="http://www.w3.org/1999/xlink" x="0" y="0" width="1171.485" height="1039.116" viewBox="0, 0, 1171.485, 1039.116">
  <g id="Layer_1">
    <path d="M99.777,696.696 C98.865,698.94 98.205,701.244 97.389,703.512 C101.769,709.536 106.569,715.392 111.729,721.14 C107.145,713.172 103.113,705.036 99.777,696.696" fill="#DCA94A" id="path833"/>
    <path d="M111.873,864.612 C170.757,966.624 331.257,1039.116 603.897,1039.116 C876.525,1039.116 1037.049,966.624 1095.933,864.612 C1019.805,948.996 858.333,1006.308 603.897,1006.308 C349.473,1006.308 188.001,948.996 111.873,864.612" fill="#CB9C46" id="path835"/>
    <path d="M1108.053,696.696 C1104.705,705.036 1100.673,713.172 1096.077,721.14 C1101.273,715.392 1106.061,709.536 1110.429,703.512 C1109.613,701.268 1108.953,698.94 1108.053,696.696" fill="#DCA94A" id="path837"/>
    <path d="M603.909,896.052 C876.897,896.052 1037.409,823.368 1096.089,721.14 C1020.117,805.728 858.693,863.22 603.909,863.22 C349.113,863.22 187.701,805.728 111.729,721.14 C170.409,823.32 330.909,896.052 603.909,896.052" fill="#DCA94A" id="path839"/>
    <path d="M1110.441,703.512 C1106.073,709.536 1101.273,715.38 1096.089,721.14 C1037.409,823.368 876.897,896.052 603.909,896.052 C330.909,896.052 170.421,823.32 111.729,721.14 C106.569,715.38 101.769,709.536 97.401,703.512 C89.937,724.272 85.977,745.908 85.977,768.24 C85.977,802.2 94.593,834.648 111.885,864.612 C188.001,948.996 349.485,1006.296 603.909,1006.296 C858.321,1006.296 1019.793,948.996 1095.945,864.612 C1113.225,834.672 1121.817,802.2 1121.817,768.24 C1121.817,745.908 1117.893,724.272 1110.441,703.512" fill="#DCA94A" id="path841"/>
    <path d="M603.909,896.052 C898.233,896.052 1061.901,811.56 1108.065,696.696 C1061.901,581.808 898.233,497.328 603.909,497.328 C309.597,497.328 145.929,581.808 99.777,696.696 C145.929,811.56 309.597,896.052 603.909,896.052" fill="#E6B655" id="path843"/>
    <path d="M178.773,845.52 C185.877,861.408 184.497,892.62 199.029,898.68 C209.877,903.216 232.965,883.536 252.549,871.716 C251.997,826.86 267.393,786.78 282.885,746.712 C249.069,783.036 230.481,826.02 178.773,845.52" fill="#90C433" id="path845"/>
    <path d="M376.389,755.328 C338.121,794.796 299.913,845.136 292.569,897.612 C296.517,915.072 300.441,933.084 310.197,935.448 C327.813,939.72 350.805,934.068 369.573,937.488 C373.665,938.232 378.225,937.044 382.953,934.884 C358.377,875.136 346.893,812.58 376.389,755.328" fill="#90C433" id="path847"/>
    <path d="M429.141,910.044 C430.281,909.972 431.397,909.948 432.501,910.08 C450.777,912.552 466.281,934.944 485.157,936.588 C485.997,936.684 486.825,936.624 487.629,936.588 C453.045,875.592 441.921,807.552 441.825,739.572 C416.301,791.004 445.149,856.188 429.141,910.044" fill="#90C433" id="path849"/>
    <path d="M226.737,730.188 C174.765,729.912 114.813,750.264 61.641,727.356 C61.509,728.1 61.389,728.832 61.389,729.576 C61.413,746.004 55.185,772.296 63.405,787.14 C67.917,795.3 78.093,803.436 88.521,811.212 C103.857,767.268 186.309,757.944 226.737,730.188" fill="#90C433" id="path851"/>
    <path d="M674.337,939.72 C683.265,928.116 691.821,912.456 701.121,906.012 C669.741,858.732 655.401,810.6 647.589,756.948 C640.605,817.752 660.201,878.724 674.337,939.72" fill="#90C433" id="path853"/>
    <path d="M1122.177,676.632 C1117.869,665.64 1113.717,652.68 1106.385,643.188 C1057.329,669.144 999.741,687.672 946.773,710.22 C1003.605,710.592 1088.577,717.084 1122.177,676.632" fill="#90C433" id="path855"/>
    <path d="M498.129,885.264 C488.721,844.812 488.661,804.444 479.277,763.98 C488.661,804.444 488.721,844.812 498.129,885.264 C554.097,780.564 581.961,643.452 703.437,571.476 C581.961,643.452 554.097,780.564 498.129,885.264 M1154.421,717.996 C1104.945,755.676 1008.525,719.472 937.449,734.4 C1008.525,719.472 1104.945,755.676 1154.421,717.996 C1144.953,707.304 1132.533,696.66 1127.433,687.972 C1125.501,684.696 1123.821,680.796 1122.177,676.62 C1088.577,717.072 1003.605,710.58 946.773,710.208 C999.741,687.66 1057.329,669.132 1106.385,643.176 C1104.669,640.932 1102.797,638.808 1100.637,637.02 C1087.821,626.352 1036.905,656.772 1019.769,647.448 C1004.517,639.12 1014.921,588.48 996.741,581.256 C980.169,574.704 960.597,567.096 941.961,561.48 C924.549,556.248 896.637,577.2 877.773,572.82 C859.833,568.692 839.889,572.856 820.881,569.52 C802.581,566.316 789.357,534.804 770.241,532.392 C751.725,530.016 730.797,538.896 711.717,537.252 C692.949,535.656 674.517,519.516 655.437,518.664 C636.573,517.812 616.605,563.208 597.549,563.112 C578.829,562.98 560.361,540.852 541.881,541.44 C523.101,542.004 502.401,520.464 484.029,521.736 C465.237,523.044 452.169,565.788 433.977,567.816 C415.197,569.916 389.133,531.312 371.217,534.12 C352.497,537.096 341.517,569.652 323.925,573.408 C305.325,577.392 279.645,559.284 262.569,564.12 C244.233,569.4 238.377,600.168 222.117,606.408 C204.261,613.248 164.613,585.132 149.697,593.184 C132.957,602.196 153.321,651.024 140.877,661.488 C126.753,673.392 106.929,673.812 99.213,687.528 C91.413,701.352 64.137,712.08 61.641,727.344 C114.813,750.252 174.765,729.9 226.737,730.176 C186.309,757.932 103.857,767.256 88.521,811.2 C95.769,816.624 103.161,821.928 108.909,826.956 C121.257,837.876 155.865,828.024 172.473,837.612 C175.185,839.184 177.189,841.956 178.773,845.508 C230.481,826.02 249.069,783.024 282.885,746.7 C267.393,786.78 251.997,826.86 252.549,871.704 C262.221,865.848 271.089,861.876 277.149,863.82 C285.273,866.376 288.921,881.772 292.557,897.612 C299.913,845.136 338.109,794.796 376.377,755.328 C346.893,812.568 358.365,875.136 382.953,934.884 C397.857,928.02 415.101,911.04 429.141,910.032 C445.149,856.176 416.301,791.004 441.825,739.56 C441.921,807.54 453.045,875.58 487.629,936.576 C505.449,935.508 525.225,907.224 543.273,908.076 C551.169,908.436 558.861,918.204 566.517,929.256 C572.037,882.432 584.445,838.008 591.501,788.892 C591.573,843.96 584.961,904.812 600.381,961.668 C618.693,961.224 637.773,954 655.869,953.4 C662.385,953.208 668.445,947.328 674.337,939.72 C660.201,878.724 640.605,817.74 647.589,756.948 C655.389,810.588 669.741,858.732 701.121,906.012 C703.521,904.38 705.993,903.264 708.489,903.096 C727.593,901.704 745.317,903.096 763.845,900.948 C772.773,899.94 783.705,909.732 794.685,920.196 C769.329,873.732 769.257,826.44 769.161,773.784 C788.781,830.184 822.057,882.648 868.857,923.136 C873.273,920.724 877.701,918.804 882.321,917.784 C901.197,913.62 915.789,897.804 933.153,892.788 C938.985,891.144 943.353,886.908 947.121,881.604 C905.757,849.708 870.225,813.96 843.981,774.24 C870.225,813.96 905.757,849.708 947.121,881.604 C955.401,870.012 960.765,853.512 972.165,849.144 C990.345,842.22 1010.877,847.668 1026.117,839.64 C948.369,815.772 871.197,794.904 825.237,741.828 C871.197,794.904 948.369,815.772 1026.117,839.64 C1026.117,839.64 1026.141,839.64 1026.141,839.604 C1043.277,830.52 1051.749,819.996 1064.565,809.484 C1067.793,806.868 1072.605,805.392 1078.209,804.444 C1035.357,785.232 995.745,759.924 956.145,742.572 C995.745,759.924 1035.357,785.232 1078.209,804.444 C1098.033,801.24 1127.889,805.62 1134.213,794.904 C1142.913,780.156 1166.517,756.852 1166.493,740.22 C1166.493,733.248 1161.201,725.604 1154.421,717.996" fill="#55AA43" id="path857"/>
    <path d="M794.685,920.196 C807.249,932.1 819.861,944.844 829.605,943.248 C843.717,940.956 856.089,930.168 868.857,923.136 C822.057,882.648 788.781,830.184 769.161,773.784 C769.257,826.452 769.329,873.732 794.685,920.196" fill="#90C433" id="path859"/>
    <path d="M591.501,788.892 C584.445,838.008 572.037,882.432 566.517,929.256 C576.897,944.292 587.253,961.74 598.065,961.812 C598.821,961.812 599.613,961.704 600.381,961.668 C584.961,904.812 591.573,843.96 591.501,788.892" fill="#90C433" id="path861"/>
    <path d="M748.641,653.808 C748.641,792.528 597.093,904.944 410.121,904.944 C223.137,904.944 71.577,792.528 71.577,653.808 C71.577,515.1 223.137,402.672 410.121,402.672 C597.093,402.672 748.641,515.1 748.641,653.808" fill="#E84F2A" id="path863"/>
    <path d="M737.277,636.756 C737.277,756.852 593.337,854.208 415.797,854.208 C238.269,854.208 94.341,756.852 94.341,636.756 C94.341,516.636 238.269,419.268 415.797,419.268 C593.337,419.268 737.277,516.636 737.277,636.756" fill="#EF8638" id="path865"/>
    <path d="M252.513,799.212 C242.973,804.54 221.889,789.66 212.037,784.668 C195.897,776.532 180.489,767.616 167.373,753.516 C158.829,744.36 144.681,729.444 140.757,716.088 C129.765,678.468 185.121,669.54 203.997,660.732 C240.345,643.704 276.657,628.32 313.881,614.184 C338.577,604.86 366.369,593.112 392.553,593.7 C400.185,635.736 385.425,678.324 370.437,714.96 C360.957,738.168 347.457,772.992 331.977,791.46 C316.257,810.156 277.281,806.196 256.569,797.916" fill="#F29B56" id="path867"/>
    <path d="M665.661,607.392 C627.669,596.64 589.905,587.46 551.397,579.78 C530.325,575.568 509.085,570.504 487.629,570.996 C481.665,571.116 472.089,569.184 468.825,576.804 C466.233,582.948 468.933,592.044 471.069,597.78 C482.997,630.144 497.649,660.612 510.585,692.4 C514.029,700.872 517.089,709.884 521.145,717.936 C525.933,727.416 533.985,733.92 539.757,742.2 C545.361,750.252 548.601,762.276 554.469,770.904 C562.569,782.808 573.369,784.176 585.789,783.852 C601.773,783.36 614.709,772.344 627.381,761.856 C638.733,752.412 649.545,740.7 658.317,727.932 C663.177,720.828 667.605,713.52 673.581,707.664 C682.629,698.712 691.929,690.408 698.409,678.324 C706.017,664.152 711.393,649.884 715.725,633.972 C716.913,629.628 720.861,618.624 717.273,615.084 C711.513,609.456 700.917,615.828 694.293,614.628 C690.105,613.86 686.385,611.388 682.113,610.572 C676.617,609.528 671.073,608.94 665.661,607.392" fill="#F29B56" id="path869"/>
    <path d="M405.453,614.688 C398.481,640.224 397.449,668.976 396.069,695.544 C394.461,726.864 389.469,757.044 386.457,788.1 C385.413,798.696 382.401,813.204 388.617,821.112 C395.721,830.136 428.121,826.752 437.373,827.328 C449.361,828.036 458.421,827.268 470.049,823.416 C486.885,817.848 518.757,815.688 523.473,793.56 C529.461,765.552 500.289,730.188 488.361,710.652 C477.177,692.352 470.049,671.556 461.829,651.372 C456.285,637.74 445.569,600.54 433.641,593.94 C417.753,585.144 407.037,621.324 404.373,636.948" fill="#F29B56" id="path871"/>
    <path d="M1134.729,632.964 C1134.729,771.672 973.245,884.088 774.033,884.088 C574.869,884.088 413.385,771.672 413.385,632.964 C413.385,494.244 574.869,381.828 774.033,381.828 C973.245,381.828 1134.729,494.244 1134.729,632.964" fill="#E84F2A" id="path873"/>
    <path d="M1122.573,615.9 C1122.573,736.02 969.249,833.376 780.105,833.376 C590.961,833.376 437.637,736.02 437.637,615.9 C437.637,495.792 590.961,398.424 780.105,398.424 C969.249,398.424 1122.573,495.792 1122.573,615.9" fill="#EF8638" id="path875"/>
    <path d="M606.153,778.356 C595.977,783.684 573.525,768.852 563.037,763.812 C545.853,755.676 529.449,746.76 515.457,732.672 C506.361,723.528 491.265,708.588 487.089,695.244 C475.389,657.624 534.381,648.708 554.469,639.888 C593.193,622.86 631.881,607.464 671.517,593.352 C697.845,584.028 727.449,572.256 755.337,572.856 C763.485,614.88 747.753,657.468 731.781,694.104 C721.701,717.312 707.301,752.148 690.801,770.604 C674.061,789.312 632.541,785.352 610.497,777.06" fill="#F29B56" id="path877"/>
    <path d="M1046.289,586.56 C1005.825,575.808 965.589,566.616 924.549,558.936 C902.097,554.724 879.513,549.648 856.629,550.14 C850.281,550.308 840.057,548.34 836.589,555.96 C833.829,562.116 836.709,571.188 838.989,576.948 C851.697,609.324 867.297,639.756 881.097,671.556 C884.781,680.028 888.021,689.052 892.353,697.08 C897.441,706.56 906.021,713.064 912.153,721.368 C918.129,729.432 921.585,741.432 927.849,750.06 C936.477,761.964 947.985,763.32 961.209,762.996 C978.237,762.552 992.013,751.5 1005.513,741.012 C1017.621,731.556 1029.129,719.868 1038.489,707.088 C1043.637,699.996 1048.377,692.676 1054.725,686.82 C1064.397,677.868 1074.297,669.552 1081.197,657.468 C1089.261,643.32 1095.021,629.028 1099.653,613.116 C1100.901,608.784 1105.113,597.732 1101.273,594.24 C1095.153,588.624 1083.837,594.948 1076.805,593.772 C1072.353,593.028 1068.369,590.532 1063.821,589.728 C1057.989,588.684 1052.049,588.084 1046.289,586.56" fill="#F29B56" id="path879"/>
    <path d="M769.101,593.832 C761.649,619.356 760.533,648.12 759.105,674.688 C757.365,706.008 752.061,736.2 748.845,767.256 C747.729,777.84 744.525,792.336 751.161,800.256 C758.757,809.28 793.233,805.884 803.097,806.472 C815.853,807.18 825.501,806.4 837.897,802.548 C855.837,797.004 889.797,794.832 894.825,772.704 C901.173,744.696 870.117,709.344 857.397,689.784 C845.493,671.496 837.897,650.736 829.149,630.504 C823.257,616.884 811.821,579.684 799.125,573.084 C782.181,564.288 770.781,600.48 767.913,616.08" fill="#F29B56" id="path881"/>
    <path d="M1019.877,663.948 C1013.181,676.812 1015.773,701.46 1001.097,706.884 C990.117,710.94 965.601,696.36 945.009,687.876 C943.869,652.368 926.481,621.312 909.021,590.232 C945.177,617.544 965.961,650.736 1019.877,663.948" fill="#90C433" id="path883"/>
    <path d="M813.201,601.128 C854.049,630.708 895.281,668.916 904.881,710.124 C901.437,724.068 898.101,738.528 888.177,740.82 C870.225,744.96 846.369,741.468 827.193,745.02 C822.993,745.824 818.289,745.02 813.309,743.52 C836.301,695.184 845.709,645.192 813.201,601.128" fill="#90C433" id="path885"/>
    <path d="M764.853,725.868 C763.701,725.844 762.537,725.904 761.421,726.072 C742.737,728.772 727.629,747.168 708.273,749.304 C707.445,749.4 706.593,749.4 705.741,749.4 C738.945,699.66 747.789,645.312 745.281,591.48 C773.529,631.092 746.337,683.94 764.853,725.868" fill="#90C433" id="path887"/>
    <path d="M966.129,574.752 C1019.565,572.256 1082.013,585.732 1135.809,565.296 C1135.965,565.884 1136.121,566.484 1136.169,567.048 C1136.757,580.104 1144.173,600.636 1136.289,612.72 C1131.945,619.392 1121.829,626.256 1111.389,632.856 C1093.929,598.764 1008.765,594.948 966.129,574.752" fill="#90C433" id="path889"/>
    <path d="M513.849,759.996 C504.213,751.212 494.793,739.188 484.977,734.496 C515.457,695.712 528.333,656.988 534.345,614.172 C543.849,662.004 526.053,711.132 513.849,759.996" fill="#90C433" id="path891"/>
    <path d="M43.161,571.212 C47.193,562.368 50.961,551.904 58.137,544.056 C109.557,562.476 169.521,574.644 224.853,590.208 C166.413,592.956 79.293,601.812 43.161,571.212" fill="#90C433" id="path893"/>
    <path d="M469.761,469.836 C597.453,521.544 631.365,628.836 692.949,709.272 C701.097,676.848 699.585,644.88 707.709,612.468 C699.585,644.88 701.097,676.848 692.949,709.272 C631.365,628.836 597.453,521.544 469.761,469.836 M0.009,623.472 C0.633,636.684 25.797,654.084 35.325,665.376 C42.225,673.584 72.777,668.808 93.285,670.512 C136.617,653.412 176.385,631.644 216.429,616.248 C176.385,631.644 136.617,653.412 93.285,670.512 C99.069,670.98 104.097,671.952 107.505,673.872 C121.101,681.66 130.209,689.58 148.185,696.06 L148.197,696.06 C227.265,673.836 305.817,653.94 351.033,609.948 C305.817,653.94 227.265,673.836 148.197,696.06 C164.193,701.796 185.109,696.564 204.045,701.232 C215.937,704.208 222.069,717.012 231.069,725.844 C272.373,698.82 307.557,668.976 332.997,636.384 C307.557,668.976 272.373,698.82 231.069,725.844 C235.137,729.9 239.805,733.068 245.853,734.112 C263.901,737.304 279.513,749.232 299.097,751.644 C303.861,752.28 308.505,753.612 313.149,755.352 C359.721,721.272 391.917,678.288 409.917,632.796 C411.885,674.496 413.613,711.924 389.289,749.772 C400.221,741.036 411.093,732.804 420.273,733.224 C439.425,734.112 457.593,732.24 477.273,732.504 C479.889,732.54 482.445,733.296 484.977,734.496 C515.457,695.7 528.333,656.988 534.333,614.16 C543.837,662.004 526.041,711.12 513.849,759.996 C520.185,765.78 526.629,770.16 533.361,770.028 C551.997,769.728 571.905,774.6 590.745,774.168 C604.413,728.52 595.257,680.604 593.217,637.044 C602.349,675.6 616.833,710.208 624.309,747.06 C631.761,737.964 639.285,729.9 647.421,729.264 C665.961,727.8 687.333,749.304 705.741,749.4 C738.933,699.66 747.777,645.312 745.269,591.48 C773.517,631.092 746.325,683.94 764.841,725.868 C779.325,726.072 797.709,738.744 813.297,743.52 C836.289,695.172 845.709,645.18 813.201,601.116 C854.049,630.696 895.269,668.916 904.869,710.112 C907.965,697.404 911.145,685.08 919.413,682.692 C925.569,680.904 934.809,683.652 944.997,687.876 C943.857,652.368 926.469,621.312 909.009,590.232 C945.177,617.544 965.949,650.736 1019.865,663.948 C1021.365,661.068 1023.309,658.74 1026.057,657.408 C1042.761,649.092 1078.725,655.368 1091.025,646.224 C1096.749,641.988 1104.129,637.464 1111.389,632.856 C1093.929,598.764 1008.765,594.948 966.129,574.752 C1019.565,572.256 1082.013,585.732 1135.797,565.296 C1132.665,553.368 1104.201,546.06 1095.633,535.464 C1087.161,524.94 1066.761,525.456 1051.797,516.672 C1038.609,508.896 1057.665,469.416 1040.097,462.972 C1024.461,457.248 984.741,481.248 966.129,476.604 C949.185,472.356 941.961,448.272 922.881,444.9 C905.169,441.792 879.441,457.248 860.169,454.896 C841.929,452.676 829.377,427.38 810.021,425.88 C791.445,424.404 766.161,456.072 746.757,455.268 C727.989,454.44 712.881,421.176 693.501,420.936 C674.589,420.708 654.105,438.684 634.761,439.044 C615.765,439.38 597.597,457.716 578.337,458.628 C558.777,459.516 536.493,424.476 517.113,425.94 C497.517,427.488 479.181,441.036 459.957,443.1 C440.373,445.224 418.545,439.104 399.561,441.792 C380.013,444.576 367.593,470.064 348.921,473.4 C329.481,476.868 308.829,474.408 290.565,478.488 C271.281,482.748 241.785,467.388 224.085,472.284 C205.125,477.516 185.313,484.416 168.501,490.32 C150.081,496.8 162.729,536.448 147.357,543.684 C130.089,551.796 76.581,529.98 63.777,538.956 C61.653,540.456 59.829,542.232 58.125,544.068 C109.545,562.488 169.509,574.644 224.841,590.208 C166.401,592.956 79.281,601.812 43.149,571.212 C41.625,574.584 40.029,577.788 38.181,580.44 C33.273,587.544 20.913,596.484 11.577,605.376 C63.909,633.06 161.697,600.192 235.341,608.94 C161.697,600.192 63.909,633.06 11.577,605.376 C4.917,611.7 -0.243,617.988 0.009,623.472" fill="#55AA43" id="path895"/>
    <path d="M389.289,749.772 C376.845,759.756 364.353,770.352 354.297,769.524 C339.669,768.36 326.541,760.344 313.149,755.352 C359.721,721.272 391.917,678.288 409.917,632.796 C411.885,674.496 413.613,711.924 389.289,749.772" fill="#90C433" id="path897"/>
    <path d="M593.217,637.044 C602.361,675.612 616.845,710.22 624.321,747.06 C614.217,759.384 604.257,773.664 593.097,774.18 C592.329,774.216 591.513,774.18 590.745,774.18 C604.425,728.52 595.257,680.616 593.217,637.044" fill="#90C433" id="path899"/>
    <path d="M1073.349,517.488 C1069.305,514.224 1064.529,511.344 1059.321,508.56 C1059.693,510.132 1059.885,511.704 1059.885,513.3 C1059.885,527.364 1053.897,542.724 1043.277,554.508 C1035.153,563.532 1018.977,565.236 1003.941,572.868 C992.721,578.532 982.797,591.78 967.425,596.58 C955.017,600.492 940.401,602.088 925.137,605.472 C912.153,608.304 898.569,614.46 883.425,616.884 C870.129,618.984 855.465,618.54 840.417,620.328 C826.941,621.972 812.037,616.836 797.097,618.168 C783.441,619.404 769.305,621.192 754.449,622.2 C740.673,623.124 726.357,621.708 711.525,622.452 C697.713,623.1 683.661,628.5 668.889,628.992 C655.005,629.472 640.761,631.812 626.061,632.1 C612.129,632.412 597.813,635.136 583.125,635.304 C569.157,635.448 554.817,626.952 540.129,626.952 C525.669,626.952 511.629,626.352 497.889,626.22 C483.405,626.1 469.209,633.876 455.517,633.588 C441.009,633.288 426.861,634.152 413.229,633.708 C398.649,633.216 384.969,623.784 371.397,623.124 C356.781,622.368 342.477,627 328.941,626.076 C314.301,625.044 300.573,620.448 287.169,619.188 C272.445,617.82 257.781,622.464 244.521,620.832 C229.701,618.972 215.349,618.636 202.305,616.464 C187.377,613.968 175.521,601.344 162.813,598.452 C147.777,594.972 131.553,600.732 119.421,596.7 C104.337,591.66 93.981,579.612 83.121,573.78 C79.689,571.908 76.317,570.204 73.017,568.536 C75.909,576.144 80.265,583.488 85.629,589.956 C93.309,599.22 107.145,604.488 121.713,612.336 C132.573,618.216 142.929,630.288 158.025,635.304 C170.145,639.336 186.357,633.588 201.405,637.008 C214.113,639.948 225.981,652.548 240.885,655.044 C253.941,657.252 268.293,657.576 283.113,659.436 C296.373,661.068 311.049,656.436 325.773,657.792 C339.165,659.04 352.893,663.636 367.533,664.656 C381.045,665.616 395.373,660.972 409.989,661.68 C423.573,662.376 437.241,671.808 451.809,672.312 C465.453,672.768 479.601,671.904 494.121,672.168 C507.813,672.468 521.997,664.656 536.469,664.824 C550.221,664.956 564.273,665.532 578.733,665.532 C593.409,665.532 607.749,674.04 621.705,673.92 C636.417,673.752 650.733,670.992 664.629,670.692 C679.353,670.428 693.609,668.052 707.481,667.608 C722.265,667.116 736.305,661.68 750.129,661.02 C764.949,660.312 779.265,661.716 793.041,660.804 C807.909,659.784 822.021,657.984 835.677,656.784 C850.617,655.452 865.533,660.54 879.021,658.944 C894.057,657.144 908.709,657.6 922.041,655.476 C937.161,653.052 950.733,646.884 963.741,644.076 C979.005,640.692 993.597,639.108 1006.017,635.172 C1021.389,630.336 1031.313,617.1 1042.545,611.448 C1057.569,603.84 1073.757,602.136 1081.869,593.124 C1092.465,581.328 1098.489,565.956 1098.489,551.904 C1098.489,539.316 1086.885,528.276 1073.349,517.488" fill="#5F3724" id="path901"/>
    <path d="M119.421,596.712 C131.541,600.744 147.777,594.972 162.801,598.452 C175.521,601.356 187.377,613.956 202.293,616.452 C215.349,618.636 229.701,618.96 244.521,620.844 C257.769,622.452 272.433,617.82 287.169,619.2 C300.561,620.448 314.289,625.056 328.929,626.076 C342.465,627.012 356.781,622.38 371.397,623.124 C384.969,623.784 398.649,633.228 413.229,633.72 C426.861,634.152 441.009,633.288 455.505,633.588 C469.209,633.888 483.405,626.1 497.889,626.232 C511.629,626.364 525.669,626.952 540.129,626.952 C554.805,626.952 569.157,635.448 583.125,635.304 C597.813,635.136 612.129,632.412 626.049,632.1 C640.761,631.812 654.993,629.46 668.889,629.004 C683.661,628.512 697.713,623.1 711.513,622.452 C726.357,621.72 740.673,623.124 754.437,622.212 C769.305,621.204 783.429,619.404 797.085,618.18 C812.025,616.848 826.929,621.96 840.417,620.34 C855.453,618.552 870.129,618.984 883.425,616.896 C898.557,614.448 912.153,608.304 925.137,605.472 C940.401,602.1 955.005,600.504 967.425,596.592 C982.797,591.78 992.721,578.532 1003.929,572.868 C1018.965,565.248 1035.153,563.532 1043.277,554.52 C1053.897,542.736 1059.885,527.364 1059.885,513.312 C1059.885,511.704 1059.693,510.144 1059.321,508.572 C1052.529,504.948 1044.921,501.48 1036.485,497.748 C1024.785,492.552 1013.217,483.084 998.565,478.5 C985.953,474.552 971.709,472.62 957.165,469.128 C944.073,465.984 930.693,460.572 916.233,457.788 C902.877,455.244 887.973,458.64 873.585,456.42 C860.025,454.32 846.249,451.344 831.921,449.532 C818.193,447.888 804.633,442.032 790.317,440.628 C776.517,439.26 762.369,438.564 748.089,437.448 C734.205,436.416 720.105,434.532 705.861,433.728 C691.917,432.948 677.733,432.48 663.525,431.964 C649.509,431.448 635.193,438.504 620.997,438.216 C606.921,437.976 592.881,437.844 578.733,437.844 C563.661,437.844 548.697,434.196 533.793,434.484 C518.697,434.772 503.601,431.364 488.733,431.94 C473.601,432.516 458.961,440.196 444.177,441.048 C428.985,441.936 413.553,435.972 398.841,437.172 C383.613,438.372 369.093,444.78 354.501,446.316 C339.249,447.948 323.865,445.788 309.429,447.696 C294.093,449.808 279.945,456.54 265.677,458.988 C250.269,461.652 234.165,457.752 220.185,460.824 C204.669,464.22 192.165,475.992 178.677,479.916 C163.005,484.488 148.329,487.164 135.801,492.396 C119.865,499.104 104.637,503.016 94.581,510.804 C79.989,522 69.201,536.088 69.201,549.456 C69.201,555.804 70.617,562.272 73.005,568.548 C76.305,570.204 79.677,571.92 83.121,573.78 C93.981,579.612 104.337,591.672 119.421,596.712" fill="#6E3528" id="path903"/>
    <path d="M1014.789,460.032 C1011.117,456.792 1006.809,453.912 1002.105,451.14 C995.961,447.516 989.073,444.048 981.489,440.292 C970.893,435.132 960.441,425.652 947.193,421.08 C935.793,417.12 922.917,415.152 909.765,411.696 C897.945,408.552 885.861,403.104 872.793,400.344 C860.709,397.8 847.221,401.208 834.237,398.988 C821.997,396.888 809.541,393.912 796.581,392.148 C784.185,390.42 771.921,384.588 758.985,383.16 C746.517,381.816 733.701,381.132 720.837,380.052 C708.249,378.972 695.541,377.076 682.653,376.296 C670.041,375.516 657.225,375.048 644.385,374.532 C631.713,373.968 618.789,381.036 605.949,380.808 C593.241,380.544 580.533,380.412 567.753,380.412 C554.157,380.412 540.609,376.752 527.145,377.04 C513.501,377.304 499.833,373.944 486.417,374.508 C472.749,375.048 459.501,382.776 446.145,383.64 C432.417,384.528 418.461,378.552 405.177,379.728 C391.389,380.94 378.309,387.348 365.097,388.872 C351.297,390.48 337.413,388.32 324.369,390.288 C310.509,392.352 297.705,399.108 284.805,401.556 C270.885,404.208 256.329,400.32 243.717,403.392 C229.689,406.788 218.373,418.548 206.193,422.508 C192.021,427.044 178.773,429.708 167.445,435 C153.033,441.66 139.281,445.62 130.173,453.36 C116.997,464.568 107.253,478.656 107.253,492.024 C107.253,498.36 108.525,504.84 110.697,511.116 C113.313,518.724 117.237,526.044 122.085,532.524 C129.021,541.812 141.537,547.056 154.713,554.94 C164.517,560.784 173.889,572.856 187.521,577.848 C198.477,581.904 213.141,576.144 226.725,579.576 C238.221,582.528 248.937,595.14 262.413,597.612 C274.209,599.82 287.181,600.132 300.561,601.98 C312.561,603.636 325.809,598.968 339.117,600.336 C351.237,601.608 363.645,606.192 376.881,607.224 C389.085,608.148 402.045,603.54 415.233,604.248 C427.509,604.956 439.893,614.4 453.033,614.88 C465.357,615.336 478.173,614.424 491.277,614.748 C503.661,615.036 516.477,607.224 529.581,607.392 C541.977,607.536 554.673,608.088 567.753,608.088 C581.025,608.088 593.997,616.572 606.597,616.464 C619.869,616.32 632.829,613.536 645.393,613.284 C658.701,612.948 671.577,610.62 684.105,610.176 C697.473,609.684 710.169,604.248 722.661,603.612 C734.625,602.964 767.973,597.684 768.909,615.636 C769.545,627.984 772.209,641.94 780.513,651.78 C786.225,658.536 799.305,661.848 807.633,662.1 C829.557,662.76 833.505,644.496 833.505,627.408 C833.505,620.868 833.289,611.748 838.557,607.032 C841.917,604.056 849.717,603.24 853.989,602.196 C866.685,599.088 865.533,599.988 871.149,609.168 C876.765,618.24 887.613,623.472 896.481,613.488 C901.041,608.304 897.741,601.344 899.505,595.464 C901.737,587.82 908.805,588.276 915.693,586.608 C929.529,583.284 942.705,581.676 953.937,577.74 C967.821,572.916 976.773,559.668 986.901,554.004 C1000.497,546.408 1015.137,544.704 1022.481,535.692 C1032.069,523.896 1037.505,508.524 1037.505,494.472 C1037.505,481.86 1027.005,470.844 1014.789,460.032" fill="#AE473C" id="path905"/>
    <path d="M154.641,511.632 C161.925,524.184 160.473,548.928 175.413,553.668 C186.585,557.184 210.369,541.512 230.541,532.032 C230.037,496.536 245.949,464.664 261.897,432.852 C227.073,461.796 207.873,495.924 154.641,511.632" fill="#90C433" id="path907"/>
    <path d="M358.173,439.248 C318.717,470.712 279.345,510.792 271.677,552.396 C275.757,566.184 279.777,580.464 289.797,582.264 C307.917,585.588 331.581,580.992 350.889,583.596 C355.113,584.184 359.793,583.2 364.677,581.484 C339.465,534.288 327.741,484.764 358.173,439.248" fill="#90C433" id="path909"/>
    <path d="M412.257,561.612 C413.445,561.552 414.597,561.516 415.737,561.612 C434.529,563.472 450.453,581.172 469.893,582.36 C470.757,582.432 471.597,582.36 472.449,582.348 C436.917,534.204 425.541,480.336 425.541,426.444 C399.213,467.364 428.805,518.856 412.257,561.612" fill="#90C433" id="path911"/>
    <path d="M204.153,420.072 C150.657,420.072 88.917,436.44 34.209,418.56 C34.101,419.148 33.969,419.7 33.969,420.324 C33.969,433.368 27.513,454.224 35.937,465.924 C40.617,472.392 51.057,478.764 61.785,484.908 C77.637,450.012 162.489,442.188 204.153,420.072" fill="#90C433" id="path913"/>
    <path d="M664.605,583.932 C673.845,574.704 682.653,562.26 692.241,557.136 C659.997,519.804 645.297,481.728 637.329,439.248 C630.069,487.488 650.145,535.728 664.605,583.932" fill="#90C433" id="path915"/>
    <path d="M1125.957,373.392 C1121.529,364.728 1117.281,354.468 1109.733,346.98 C1059.225,367.776 999.897,382.74 945.369,400.848 C1003.869,400.848 1091.301,405.612 1125.957,373.392" fill="#90C433" id="path917"/>
    <path d="M483.309,541.644 C473.673,509.652 473.673,477.66 464.037,445.656 C473.673,477.66 473.673,509.652 483.309,541.644 C541.053,458.436 569.937,349.668 695.073,292.056 C569.937,349.668 541.053,458.436 483.309,541.644 M1159.113,406.044 C1108.113,436.152 1008.897,407.904 935.709,420.072 C1008.897,407.904 1108.113,436.152 1159.113,406.044 C1149.357,397.62 1136.589,389.22 1131.357,382.38 C1129.365,379.8 1127.637,376.692 1125.945,373.392 C1091.313,405.624 1003.857,400.86 945.357,400.86 C999.885,382.752 1059.225,367.776 1109.733,346.992 C1107.957,345.18 1106.049,343.56 1103.841,342.132 C1090.641,333.756 1038.225,358.068 1020.561,350.748 C1004.865,344.232 1015.653,304.044 996.969,298.452 C979.905,293.328 959.781,287.376 940.581,283.032 C922.677,278.976 893.937,295.704 874.509,292.308 C856.053,289.116 835.533,292.5 815.961,289.956 C797.145,287.496 783.549,262.632 763.905,260.772 C744.825,258.972 723.285,266.1 703.617,264.924 C684.321,263.748 665.361,251.028 645.741,250.452 C626.301,249.852 605.685,285.9 586.089,285.9 C566.829,285.9 547.833,268.476 528.813,269.004 C509.469,269.568 488.193,252.576 469.293,253.68 C449.925,254.796 436.425,288.744 417.693,290.412 C398.361,292.176 371.589,261.684 353.157,264.036 C333.849,266.46 322.533,292.308 304.425,295.392 C285.273,298.62 258.861,284.364 241.281,288.324 C222.381,292.536 216.309,316.98 199.569,321.984 C181.185,327.516 140.409,305.412 125.061,311.856 C107.793,319.08 128.697,357.672 115.857,366.048 C101.325,375.492 80.925,375.936 72.945,386.82 C64.905,397.848 36.801,406.476 34.209,418.56 C88.917,436.44 150.657,420.072 204.153,420.072 C162.489,442.188 77.625,450.012 61.785,484.908 C69.237,489.156 76.833,493.308 82.749,497.292 C95.445,505.86 131.073,497.916 148.161,505.404 C150.969,506.64 153.009,508.872 154.641,511.644 C207.873,495.924 227.061,461.808 261.897,432.852 C245.949,464.676 230.037,496.548 230.541,532.032 C240.513,527.364 249.621,524.196 255.849,525.696 C264.213,527.688 267.981,539.856 271.665,552.396 C279.333,510.804 318.717,470.724 358.173,439.26 C327.741,484.776 339.465,534.3 364.677,581.484 C380.049,575.988 397.809,562.464 412.257,561.612 C428.805,518.868 399.201,467.364 425.541,426.444 C425.541,480.336 436.917,534.204 472.437,582.348 C490.785,581.424 511.173,558.936 529.737,559.488 C537.873,559.752 545.781,567.468 553.653,576.192 C559.413,539.028 572.253,503.796 579.573,464.844 C579.573,508.464 572.661,556.752 588.465,601.728 C607.305,601.26 626.937,595.44 645.573,594.912 C652.305,594.696 658.533,590.016 664.605,583.932 C650.145,535.728 630.069,487.488 637.317,439.26 C645.297,481.74 659.997,519.816 692.241,557.136 C694.725,555.84 697.233,554.94 699.825,554.784 C719.493,553.608 737.733,554.628 756.813,552.864 C765.957,551.964 777.225,559.716 788.529,567.924 C762.465,531.252 762.465,493.776 762.465,452.064 C782.565,496.608 816.741,538.056 864.849,569.94 C869.397,567.984 873.993,566.424 878.721,565.608 C898.161,562.272 913.197,549.624 931.113,545.592 C937.089,544.236 941.601,540.84 945.477,536.64 C902.949,511.572 866.433,483.408 839.469,452.064 C866.433,483.408 902.949,511.572 945.477,536.64 C954.033,527.4 959.577,514.332 971.313,510.804 C989.997,505.2 1011.153,509.484 1026.849,503.016 C946.833,484.512 867.453,468.312 820.221,426.444 C867.453,468.312 946.833,484.512 1026.849,503.016 L1026.873,503.016 C1044.537,495.72 1053.249,487.332 1066.461,478.968 C1069.785,476.88 1074.765,475.656 1080.525,474.912 C1036.425,459.876 995.697,440.004 954.969,426.444 C995.697,440.004 1036.425,459.876 1080.525,474.912 C1100.925,472.26 1131.669,475.596 1138.185,467.1 C1147.161,455.376 1171.485,436.8 1171.485,423.6 C1171.485,418.08 1166.049,412.056 1159.113,406.044" fill="#55AA43" id="path919"/>
    <path d="M788.529,567.924 C801.429,577.296 814.401,587.328 824.421,586.02 C838.977,584.172 851.733,575.532 864.849,569.94 C816.741,538.044 782.565,496.608 762.465,452.064 C762.465,493.764 762.465,531.252 788.529,567.924" fill="#90C433" id="path921"/>
    <path d="M579.585,464.844 C572.265,503.796 559.413,539.028 553.653,576.192 C564.321,588.06 574.941,601.824 586.089,601.824 C586.893,601.824 587.685,601.752 588.477,601.728 C572.673,556.752 579.585,508.464 579.585,464.844" fill="#90C433" id="path923"/>
    <path d="M1073.349,360.252 C1069.305,357 1064.529,354.144 1059.321,351.36 C1059.693,352.896 1059.885,354.468 1059.885,356.064 C1059.885,370.116 1053.897,385.476 1043.277,397.272 C1035.153,406.296 1018.977,408.024 1003.941,415.608 C992.721,421.296 982.797,434.532 967.425,439.38 C955.017,443.256 940.401,444.9 925.137,448.236 C912.153,451.08 898.569,457.212 883.425,459.636 C870.129,461.76 855.465,461.304 840.417,463.104 C826.941,464.736 812.037,459.612 797.097,460.944 C783.441,462.192 769.305,463.992 754.449,464.964 C740.673,465.876 726.357,464.472 711.525,465.192 C697.713,465.876 683.661,471.276 668.889,471.756 C655.005,472.212 640.761,474.576 626.061,474.864 C612.129,475.164 597.813,477.912 583.125,478.068 C569.157,478.2 554.817,469.704 540.129,469.704 C525.669,469.704 511.629,469.116 497.889,468.984 C483.405,468.852 469.209,476.64 455.517,476.364 C441.009,476.04 426.861,476.928 413.229,476.46 C398.649,475.98 384.969,466.56 371.397,465.876 C356.781,465.132 342.477,469.764 328.941,468.816 C314.301,467.808 300.573,463.236 287.169,461.964 C272.445,460.584 257.781,465.252 244.521,463.584 C229.701,461.76 215.349,461.4 202.305,459.216 C187.377,456.732 175.521,444.144 162.813,441.204 C147.777,437.736 131.553,443.496 119.421,439.476 C104.337,434.436 93.981,422.376 83.121,416.52 C79.689,414.66 76.317,412.968 73.017,411.324 C75.909,418.908 80.265,426.228 85.629,432.732 C93.309,441.984 107.145,447.252 121.713,455.124 C132.573,460.98 142.929,473.028 158.025,478.068 C170.145,482.088 186.357,476.328 201.405,479.808 C214.113,482.712 225.981,495.324 240.885,497.808 C253.941,499.992 268.293,500.328 283.113,502.2 C296.373,503.856 311.049,499.188 325.773,500.556 C339.165,501.828 352.893,506.4 367.533,507.42 C381.045,508.368 395.373,503.724 409.989,504.48 C423.573,505.128 437.241,514.572 451.809,515.064 C465.453,515.52 479.601,514.644 494.121,514.932 C507.813,515.232 521.997,507.444 536.469,507.588 C550.221,507.72 564.273,508.296 578.733,508.296 C593.409,508.296 607.749,516.792 621.705,516.672 C636.417,516.504 650.733,513.756 664.629,513.468 C679.353,513.168 693.609,510.816 707.481,510.36 C722.265,509.868 736.305,504.48 750.129,503.784 C764.949,503.064 779.265,504.48 793.041,503.568 C807.909,502.584 822.021,500.748 835.677,499.536 C850.617,498.204 865.533,503.34 879.021,501.696 C894.057,499.896 908.709,500.364 922.041,498.24 C937.161,495.816 950.733,489.672 963.741,486.828 C979.005,483.492 993.597,481.86 1006.017,477.948 C1021.389,473.1 1031.313,459.864 1042.545,454.224 C1057.569,446.628 1073.757,444.9 1081.869,435.876 C1092.465,424.068 1098.489,408.72 1098.489,394.668 C1098.489,382.08 1086.885,371.064 1073.349,360.252" fill="#5F3724" id="path925"/>
    <path d="M119.421,439.476 C131.541,443.496 147.777,437.736 162.801,441.204 C175.521,444.144 187.377,456.72 202.293,459.216 C215.349,461.4 229.701,461.76 244.521,463.584 C257.769,465.252 272.433,460.584 287.169,461.964 C300.561,463.224 314.289,467.808 328.929,468.816 C342.465,469.764 356.781,465.132 371.397,465.876 C384.969,466.56 398.649,475.98 413.229,476.46 C426.861,476.928 441.009,476.04 455.505,476.364 C469.209,476.64 483.405,468.864 497.889,468.972 C511.629,469.116 525.669,469.704 540.129,469.704 C554.805,469.704 569.157,478.2 583.125,478.068 C597.813,477.912 612.129,475.164 626.049,474.864 C640.761,474.576 654.993,472.212 668.889,471.756 C683.661,471.288 697.713,465.876 711.513,465.204 C726.357,464.472 740.673,465.876 754.437,464.964 C769.305,463.98 783.429,462.204 797.085,460.956 C812.025,459.612 826.929,464.724 840.417,463.116 C855.453,461.304 870.129,461.76 883.425,459.636 C898.557,457.212 912.153,451.08 925.137,448.224 C940.401,444.9 955.005,443.256 967.425,439.38 C982.797,434.532 992.721,421.296 1003.929,415.62 C1018.965,408.036 1035.153,406.296 1043.277,397.284 C1053.897,385.476 1059.885,370.116 1059.885,356.064 C1059.885,354.468 1059.693,352.896 1059.321,351.372 C1052.529,347.7 1044.921,344.232 1036.485,340.5 C1024.785,335.304 1013.217,325.824 998.565,321.252 C985.953,317.328 971.709,315.372 957.165,311.88 C944.073,308.736 930.693,303.312 916.233,300.576 C902.877,297.984 887.973,301.38 873.585,299.196 C860.025,297.096 846.249,294.12 831.921,292.332 C818.193,290.628 804.633,284.784 790.317,283.368 C776.517,282 762.369,281.328 748.089,280.248 C734.205,279.168 720.105,277.296 705.861,276.48 C691.917,275.7 677.733,275.244 663.525,274.716 C649.509,274.2 635.193,281.244 620.997,280.992 C606.921,280.728 592.881,280.596 578.733,280.596 C563.661,280.596 548.697,276.972 533.793,277.236 C518.697,277.536 503.601,274.128 488.733,274.68 C473.601,275.268 458.961,282.96 444.177,283.836 C428.985,284.724 413.553,278.736 398.841,279.912 C383.613,281.148 369.093,287.532 354.501,289.116 C339.249,290.7 323.865,288.54 309.429,290.472 C294.093,292.56 279.945,299.328 265.677,301.752 C250.269,304.392 234.165,300.504 220.185,303.576 C204.669,306.972 192.165,318.78 178.677,322.704 C163.005,327.24 148.329,329.916 135.801,335.184 C119.865,341.844 104.637,345.804 94.581,353.544 C79.989,364.764 69.201,378.84 69.201,392.208 C69.201,398.544 70.617,405.012 73.005,411.324 C76.305,412.968 79.677,414.66 83.121,416.532 C93.981,422.376 104.337,434.448 119.421,439.476" fill="#6E3528" id="path927"/>
    <path d="M1122.573,307.248 C1120.185,308.976 1117.065,310.872 1112.925,313.032 C988.017,378.036 849.009,427.188 721.353,488.868 C702.393,498.024 682.389,506.22 663.717,515.664 C652.821,521.16 637.413,534.612 623.853,536.496 C613.773,537.864 617.373,538.644 610.137,536.94 C597.453,533.964 575.505,518.532 562.449,513.384 C459.861,472.956 357.765,432.192 256.605,389.28 C195.117,363.204 134.373,335.16 74.493,306.948 C66.357,303.132 57.549,297.24 48.465,294.888 C46.041,294.276 44.181,294.276 42.405,293.616 C39.873,294.528 37.821,295.644 37.137,296.892 C35.745,299.472 37.773,302.904 39.849,304.896 C42.525,307.476 44.853,306.888 48.465,307.836 C57.549,310.164 66.357,316.068 74.493,319.896 C134.373,348.072 195.117,376.104 256.605,402.192 C357.765,445.104 459.861,485.856 562.449,526.32 C575.505,531.456 597.453,546.864 610.137,549.852 C617.373,551.532 613.773,550.776 623.853,549.396 C637.413,547.56 652.821,534.096 663.717,528.576 C682.389,519.132 702.393,510.948 721.353,501.768 C849.009,440.136 988.017,390.948 1112.925,325.944 C1130.373,316.86 1131.357,312.084 1122.573,307.248" fill="#FAC933" id="path929"/>
    <path d="M74.493,306.948 C134.373,335.148 195.117,363.204 256.605,389.28 C357.753,432.192 459.861,472.956 562.449,513.372 C575.493,518.532 597.453,533.952 610.137,536.94 C617.373,538.632 613.761,537.864 623.853,536.472 C637.413,534.612 652.809,521.148 663.717,515.652 C682.389,506.208 702.393,498.024 721.353,488.868 C849.009,427.176 988.017,378.036 1112.925,313.032 C1117.065,310.872 1120.185,308.964 1122.573,307.236 C1117.341,304.368 1108.653,301.452 1097.961,297.636 C993.501,260.148 880.617,235.068 774.993,199.056 C734.181,185.1 692.829,171.996 651.801,158.424 C637.389,153.66 613.293,142.128 597.285,141.264 C554.697,139.044 496.365,168.66 458.481,183.072 C362.853,219.516 257.781,263.148 150.501,275.124 C117.597,278.796 87.801,285.492 55.425,290.4 C52.509,290.868 46.737,291.972 42.405,293.616 C44.181,294.276 46.029,294.276 48.465,294.876 C57.549,297.228 66.357,303.12 74.493,306.948" fill="#FEDA38" id="path931"/>
    <path d="M770.121,349.608 C790.209,349.608 820.353,359.244 850.497,359.244 C880.653,349.608 910.809,291.852 930.873,311.1 C996.873,358.524 1056.081,302.208 1114.065,307.116 C1113.945,304.596 1113.945,302.052 1113.741,299.568 C1100.085,132.36 917.517,-0 588.249,-0 C258.957,-0 76.413,132.36 62.733,299.568 C62.193,306.3 61.821,313.092 61.821,319.932 C61.821,320.22 61.857,320.508 61.857,320.82 C301.125,321.624 530.685,378.3 770.121,349.608" fill="#DCA94A" id="path933"/>
    <path d="M930.885,311.088 C910.809,291.84 880.653,349.596 850.509,359.244 C820.353,359.244 790.209,349.596 770.133,349.596 C530.685,378.288 301.137,321.612 61.869,320.808 C61.929,334.236 63.477,347.436 66.177,360.42 C216.765,392.448 395.949,411.036 588.249,411.036 C780.561,411.036 959.745,392.448 1110.321,360.42 C1113.081,347.136 1114.653,333.684 1114.653,319.92 C1114.653,315.612 1114.329,311.364 1114.077,307.104 C1056.093,302.208 996.885,358.524 930.885,311.088" fill="#E6B655" id="path935"/>
    <path d="M171.057,191.808 C169.041,204.384 176.865,233.136 194.373,215.064 C209.073,199.908 178.305,181.956 169.029,176.472 C162.249,193.308 169.629,205.464 176.205,220.044" fill="#F3E4BA" id="path937"/>
    <path d="M1021.965,220.332 C1020.177,231.648 1027.161,257.364 1042.833,241.188 C1055.985,227.616 1028.469,211.572 1020.153,206.676 C1014.105,221.712 1020.705,232.596 1026.585,245.628" fill="#F3E4BA" id="path939"/>
    <path d="M778.089,237.3 C768.177,232.368 742.341,231.384 752.757,250.572 C761.517,266.652 784.341,245.832 791.289,239.556 C779.109,229.62 767.145,232.56 753.357,234.264" fill="#F3E4BA" id="path941"/>
    <path d="M692.301,127.128 C689.469,116.016 672.657,95.1 664.725,116.28 C658.053,134.088 689.853,137.844 699.489,139.02 C699.045,122.712 688.581,115.368 677.925,105.684" fill="#F3E4BA" id="path943"/>
    <path d="M759.609,163.992 C750.033,159.24 725.073,158.328 735.177,176.832 C743.685,192.36 765.645,172.224 772.341,166.152 C760.569,156.54 749.037,159.444 735.741,161.076" fill="#F3E4BA" id="path945"/>
    <path d="M795.669,121.176 C785.121,115.584 757.305,113.868 768.033,134.808 C777.045,152.364 802.185,130.524 809.829,123.948 C796.977,112.92 783.993,115.776 769.101,117.228" fill="#F3E4BA" id="path947"/>
    <path d="M927.021,261.84 C924.957,251.484 910.605,231.42 902.217,250.512 C895.209,266.52 924.249,271.548 933.033,273.12 C933.429,258.12 924.225,250.836 914.889,241.38" fill="#F3E4BA" id="path949"/>
    <path d="M869.637,161.412 C879.453,155.136 894.393,132.336 871.377,131.316 C852.081,130.5 858.525,162.42 860.397,172.104 C876.009,166.548 879.837,154.092 885.813,140.724" fill="#F3E4BA" id="path951"/>
    <path d="M820.281,213.504 C823.197,202.776 819.081,177.096 802.209,191.148 C788.049,202.944 813.105,221.34 820.629,226.98 C828.069,213.012 822.777,201.804 818.433,188.532" fill="#F3E4BA" id="path953"/>
    <path d="M878.565,186.048 C889.365,187.944 914.241,181.548 898.857,166.248 C885.969,153.432 870.201,179.712 865.353,187.656 C879.765,193.656 890.289,187.464 902.937,181.956" fill="#F3E4BA" id="path955"/>
    <path d="M814.929,157.452 C824.805,151.764 840.393,130.14 817.965,128.172 C799.185,126.504 804.045,157.956 805.449,167.484 C820.917,162.708 825.225,150.756 831.657,137.976" fill="#F3E4BA" id="path957"/>
    <path d="M932.121,117.228 C938.193,126.564 960.105,140.724 960.921,118.728 C961.605,100.26 931.113,106.608 921.873,108.468 C927.297,123.336 939.201,126.936 951.993,132.588" fill="#F3E4BA" id="path959"/>
    <path d="M914.241,63.456 C906.981,53.976 882.345,40.812 883.377,64.344 C884.241,84.156 916.281,74.7 926.001,71.928 C918.897,56.496 905.853,53.688 891.693,48.792" fill="#F3E4BA" id="path961"/>
    <path d="M969.609,208.308 C973.353,219.12 991.677,238.536 997.857,216.864 C1003.065,198.66 971.193,197.496 961.533,197.1 C963.297,213.252 974.265,219.72 985.629,228.444" fill="#F3E4BA" id="path963"/>
    <path d="M848.829,46.932 C838.605,45.6 815.529,52.548 830.529,66.276 C843.129,77.844 856.941,52.548 861.141,44.928 C847.425,39.84 837.753,46.08 826.113,51.732" fill="#F3E4BA" id="path965"/>
    <path d="M766.521,69.468 C759.801,77.304 753.081,100.452 772.773,95.388 C789.333,91.104 775.653,65.748 771.549,58.02 C759.777,66.78 759.765,78.288 758.157,91.14" fill="#F3E4BA" id="path967"/>
    <path d="M741.345,8.232 C730.521,3.42 702.861,3.648 714.933,23.616 C725.085,40.392 748.437,17.052 755.565,9.984 C742.089,-0.036 729.441,3.72 714.765,6.144" fill="#F3E4BA" id="path969"/>
    <path d="M651.981,32.676 C654.801,44.436 672.213,66.792 680.937,44.58 C688.257,25.872 654.729,21.432 644.577,20.028 C644.793,37.248 655.725,45.18 666.837,55.548" fill="#F3E4BA" id="path971"/>
    <path d="M449.505,40.056 C457.977,48.36 483.981,57.936 479.721,34.932 C476.145,15.624 445.977,29.244 436.797,33.324 C445.905,47.544 459.081,48.492 473.685,51.372" fill="#F3E4BA" id="path973"/>
    <path d="M460.809,125.892 C470.469,131.544 496.509,134.256 487.257,114.192 C479.493,97.356 455.073,116.832 447.645,122.724 C459.261,133.572 471.525,131.388 485.565,130.632" fill="#F3E4BA" id="path975"/>
    <path d="M452.517,184.872 C464.037,183.072 486.885,168.132 466.197,158.016 C448.845,149.508 441.957,181.356 439.785,190.992 C456.321,192.096 464.817,182.268 475.641,172.416" fill="#F3E4BA" id="path977"/>
    <path d="M498.213,220.668 C503.085,209.544 502.737,181.188 482.325,193.632 C465.153,204.132 489.213,227.988 496.461,235.236 C506.697,221.376 502.809,208.404 500.217,193.404" fill="#F3E4BA" id="path979"/>
    <path d="M608.097,178.404 C605.433,166.956 588.789,145.236 580.197,166.704 C572.985,184.716 605.361,189.252 615.177,190.692 C615.069,174.024 604.581,166.284 593.913,156.144" fill="#F3E4BA" id="path981"/>
    <path d="M678.417,272.592 C681.357,262.656 678.093,238.644 662.085,251.376 C648.645,262.032 671.553,279.756 678.441,285.144 C685.665,272.304 680.997,261.744 677.241,249.3" fill="#F3E4BA" id="path983"/>
    <path d="M720.453,112.356 C716.745,122.88 718.989,148.896 736.905,136.056 C751.917,125.304 728.217,105.036 721.101,98.868 C712.629,112.296 717.093,123.888 720.489,137.496" fill="#F3E4BA" id="path985"/>
    <path d="M566.577,110.556 C557.925,103.86 533.097,97.92 539.481,118.5 C544.833,135.756 570.969,120.036 578.925,115.296 C569.061,103.308 556.893,103.86 543.225,102.804" fill="#F3E4BA" id="path987"/>
    <path d="M578.877,23.46 C567.189,23.028 541.917,33.396 560.337,47.244 C575.769,58.92 588.597,28.956 592.557,19.86 C576.501,15.624 566.277,23.688 553.761,31.296" fill="#F3E4BA" id="path989"/>
    <path d="M409.113,24.672 C419.469,29.016 445.641,28.332 433.869,9.636 C423.969,-6.084 402.261,16.428 395.637,23.208 C408.573,32.508 420.489,28.728 434.313,26.136" fill="#F3E4BA" id="path991"/>
    <path d="M343.773,55.392 C348.825,64.536 368.409,79.212 370.605,58.692 C372.441,41.436 343.509,45.384 334.713,46.524 C338.829,60.816 349.749,64.968 361.365,71.076" fill="#F3E4BA" id="path993"/>
    <path d="M252.489,65.424 C249.321,75.66 252.429,100.428 269.097,87.492 C283.065,76.644 259.653,58.14 252.585,52.488 C244.989,65.652 249.681,76.608 253.437,89.484" fill="#F3E4BA" id="path995"/>
    <path d="M160.029,148.152 C171.621,147.72 195.897,135.66 176.685,123.24 C160.569,112.824 150.009,143.4 146.745,152.652 C162.933,155.736 172.473,147.012 184.329,138.576" fill="#F3E4BA" id="path997"/>
    <path d="M266.913,209.88 C275.205,202.428 285.729,178.596 263.889,181.212 C245.553,183.444 256.581,212.556 259.869,221.376 C273.729,213.696 275.385,201.384 278.961,187.848" fill="#F3E4BA" id="path999"/>
    <path d="M113.385,253.836 C121.365,246.48 131.277,223.116 110.061,225.996 C92.229,228.408 103.389,256.584 106.701,265.14 C120.081,257.46 121.533,245.436 124.821,232.236" fill="#F3E4BA" id="path1001"/>
    <path d="M389.397,235.14 C393.753,224.916 393.141,199.02 374.601,210.624 C359.025,220.332 381.237,241.908 387.933,248.484 C397.149,235.704 393.453,223.896 390.969,210.204" fill="#F3E4BA" id="path1003"/>
    <path d="M343.473,171.552 C355.113,175.14 383.385,171.648 368.649,152.652 C356.289,136.704 335.181,163.368 328.737,171.42 C343.737,180.072 356.217,174.72 370.905,170.472" fill="#F3E4BA" id="path1005"/>
    <path d="M435.741,278.58 C437.541,289.932 452.325,312.384 462.237,291.984 C470.553,274.848 439.197,268.152 429.693,266.028 C428.613,282.336 438.357,290.676 448.077,301.332" fill="#F3E4BA" id="path1007"/>
    <path d="M591.705,223.212 C592.209,211.452 581.949,185.952 567.861,204.384 C556.053,219.888 586.149,232.98 595.233,237 C599.649,220.896 591.549,210.528 583.953,197.88" fill="#F3E4BA" id="path1009"/>
  </g>
</svg>