<?xml version="1.0" encoding="UTF-8"?>
<!DOCTYPE svg PUBLIC "-//W3C//DTD SVG 1.1//EN" "http://www.w3.org/Graphics/SVG/1.1/DTD/svg11.dtd">
<svg version="1.1" xmlns="http://www.w3.org/2000/svg" xmlns:xlink="http://www.w3.org/1999/xlink" x="0" y="0" width="336" height="684" viewBox="0, 0, 336, 684">
  <g id="Layer_1">
    <path d="M168.197,681.04 C259.546,681.04 334.05,654.939 334.05,622.934 C334.05,590.929 259.546,564.825 168.197,564.825 C76.845,564.825 2.34,590.929 2.34,622.934 C2.34,654.939 76.845,681.04 168.197,681.04" fill="#D4E8CE"/>
    <path d="M146.693,652.731 C223.634,652.731 286.389,583.57 286.389,498.775 C286.389,413.981 223.634,344.822 146.693,344.822 C69.749,344.822 6.994,413.981 6.994,498.775 C6.994,583.57 69.749,652.731 146.693,652.731" fill="#F1B254"/>
    <path d="M146.928,344.826 C223.971,344.968 286.389,413.837 286.389,498.775 C286.389,583.717 223.971,652.587 146.928,652.729 L146.928,344.826" fill="#E3A545"/>
    <path d="M174.087,583.095 L192.58,607.515 L174.087,631.931 L155.595,607.515 L174.087,583.095 z M126.437,583.095 L144.932,607.515 L126.437,631.931 L107.947,607.515 L126.437,583.095 z M78.789,583.095 L97.281,607.515 L78.789,631.931 L60.297,607.515 L78.789,583.095 z M222.449,527.03 L240.941,551.449 L222.449,575.868 L203.958,551.449 L222.449,527.03 z M174.798,527.03 L193.291,551.449 L174.798,575.868 L156.306,551.449 L174.798,527.03 z M127.148,527.03 L145.643,551.449 L127.148,575.868 L108.658,551.449 L127.148,527.03 z M79.5,527.03 L97.992,551.449 L79.5,575.868 L61.008,551.449 L79.5,527.03 z M246.273,555.477 L264.765,579.896 L246.273,604.316 L227.781,579.896 L246.273,555.477 z M198.625,555.477 L180.133,579.896 L198.625,604.316 L217.117,579.896 L198.625,555.477 z M150.975,555.477 L169.466,579.896 L150.975,604.316 L132.482,579.896 L150.975,555.477 z M103.326,555.477 L121.816,579.896 L103.326,604.316 L84.832,579.896 L103.326,555.477 z M55.676,555.477 L37.183,579.896 L55.676,604.316 L74.168,579.896 L55.676,555.477 z M246.273,499.888 L264.765,524.304 L246.273,548.723 L227.781,524.304 L246.273,499.888 z M198.625,499.888 L180.133,524.304 L198.625,548.723 L217.117,524.304 L198.625,499.888 z M150.975,499.888 L132.482,524.304 L150.975,548.723 L169.466,524.304 L150.975,499.888 z M103.326,499.888 L84.832,524.304 L103.326,548.723 L121.816,524.304 L103.326,499.888 z M55.676,499.888 L37.183,524.304 L55.676,548.723 L74.168,524.304 L55.676,499.888 z M245.93,443.191 L264.42,467.61 L245.93,492.029 L227.439,467.61 L245.93,443.191 z M198.28,443.191 L216.772,467.61 L198.28,492.029 L179.788,467.61 L198.28,443.191 z M150.629,443.191 L132.137,467.61 L150.629,492.029 L169.122,467.61 L150.629,443.191 z M102.981,443.191 L121.471,467.61 L102.981,492.029 L84.487,467.61 L102.981,443.191 z M55.331,443.191 L73.823,467.61 L55.331,492.029 L36.838,467.61 L55.331,443.191 z M222.104,471.638 L240.596,496.058 L222.104,520.477 L203.612,496.058 L222.104,471.638 z M174.456,471.638 L192.948,496.058 L174.456,520.477 L155.961,496.058 L174.456,471.638 z M126.805,471.638 L145.297,496.058 L126.805,520.477 L108.313,496.058 L126.805,471.638 z M79.155,471.638 L97.649,496.058 L79.155,520.477 L60.663,496.058 L79.155,471.638 z M31.505,471.638 L49.997,496.058 L31.505,520.477 L13.015,496.058 L31.505,471.638 z M222.104,416.049 L203.612,440.468 L222.104,464.887 L240.596,440.468 L222.104,416.049 z M174.456,416.049 L155.961,440.468 L174.456,464.887 L192.948,440.468 L174.456,416.049 z M126.805,416.049 L145.297,440.468 L126.805,464.887 L108.313,440.468 L126.805,416.049 z M79.155,416.049 L60.663,440.468 L79.155,464.887 L97.649,440.468 L79.155,416.049 z M175.167,359.983 L156.675,384.402 L175.167,408.822 L193.659,384.402 L175.167,359.983 z M127.516,359.983 L109.024,384.402 L127.516,408.822 L146.008,384.402 L127.516,359.983 z M198.991,388.431 L217.483,412.85 L198.991,437.269 L180.499,412.85 L198.991,388.431 z M151.34,388.431 L169.834,412.85 L151.34,437.269 L132.851,412.85 L151.34,388.431 z M103.692,388.431 L85.2,412.85 L103.692,437.269 L122.184,412.85 L103.692,388.431 z M56.043,388.431 L74.535,412.85 L56.043,437.269 L37.549,412.85 L56.043,388.431 z M86.954,359.578 L103.692,381.678 L122.184,357.26 L115.66,348.64 C105.64,351.147 96.029,354.84 86.954,359.578 z M74.682,366.832 C76.991,365.299 79.345,363.841 81.738,362.454 L98.36,384.402 L79.868,408.822 L61.375,384.402 L74.682,366.832 z M56.027,381.658 L56.129,381.564 L56.043,381.678 L56.027,381.658 z M15.974,444.376 L31.505,464.887 L49.997,440.468 L31.505,416.049 L22.863,427.461 C20.271,432.915 17.969,438.562 15.974,444.376 z M7.157,491.339 C7.76,477.411 10.042,463.97 13.786,451.254 L26.173,467.61 L7.681,492.029 L7.157,491.339 z M12.724,542.521 L26.519,524.304 L8.026,499.888 L7.021,501.215 C7.223,515.544 9.2,529.397 12.724,542.521 z M17.125,556.423 C16.297,554.164 15.517,551.88 14.784,549.569 L31.851,527.03 L50.342,551.449 L31.851,575.868 L17.125,556.423 z M48.806,608.604 C41.935,601.163 35.755,592.948 30.39,584.085 L31.14,583.095 L49.631,607.515 L48.806,608.604 z M65.339,623.941 C61.016,620.52 56.875,616.84 52.94,612.911 L54.963,610.238 L65.339,623.941 z M111.216,647.717 L121.105,634.657 L102.615,610.238 L84.121,634.657 L86.429,637.707 C94.311,641.864 102.6,645.23 111.216,647.717 z M136.779,652.34 C130.471,651.853 124.276,650.91 118.225,649.53 L126.437,638.688 L136.779,652.34 z M155.296,652.43 L168.755,634.657 L150.264,610.238 L131.771,634.657 L145.444,652.714 C145.859,652.719 146.276,652.731 146.691,652.731 C149.583,652.731 152.448,652.623 155.296,652.43 z M181.148,648.008 C175.679,649.538 170.083,650.712 164.379,651.508 L174.087,638.688 L181.148,648.008 z M215.149,632.998 L197.915,610.238 L179.419,634.657 L187.938,645.905 C197.487,642.657 206.595,638.309 215.149,632.998 z M227.411,624.443 C225.03,626.304 222.588,628.078 220.103,629.773 L203.247,607.515 L221.738,583.095 L240.228,607.515 L227.411,624.443 z M280.967,541.383 L270.1,527.03 L251.608,551.449 L268.631,573.931 C273.814,563.738 277.979,552.838 280.967,541.383 z M285.998,510.351 C285.455,518.403 284.349,526.28 282.727,533.938 L275.432,524.304 L285.998,510.351 z M286.299,493.487 L269.754,471.638 L251.262,496.058 L269.754,520.477 L286.387,498.512 C286.384,496.831 286.351,495.156 286.299,493.487 z M281.658,458.934 C283.419,466.209 284.712,473.697 285.496,481.355 L275.086,467.61 L281.658,458.934 z M266.744,420.024 L251.262,440.468 L269.754,464.887 L279.731,451.711 C276.478,440.54 272.101,429.922 266.744,420.024 z M245.498,389.942 C252.316,397.464 258.431,405.764 263.73,414.704 L246.641,437.269 L228.15,412.85 L245.498,389.942 z M217.983,366.364 L204.323,384.402 L222.815,408.822 L240.831,385.032 C233.832,377.993 226.176,371.733 217.983,366.364 z M185.382,350.811 C195.047,353.875 204.285,358.055 212.967,363.222 L198.991,381.678 L180.499,357.26 L185.382,350.811 z M146.691,344.823 C151.531,344.823 156.312,345.094 161.02,345.623 L169.834,357.26 L151.34,381.678 L132.851,357.26 L142.201,344.911 C143.692,344.858 145.189,344.823 146.691,344.823" fill="#DD9B37"/>
    <path d="M174.087,583.095 L155.595,607.515 L174.087,631.931 L192.58,607.515 L174.087,583.095 z M222.449,527.03 L203.958,551.449 L222.449,575.868 L240.941,551.449 L222.449,527.03 z M174.798,527.03 L156.306,551.449 L174.798,575.868 L193.291,551.449 L174.798,527.03 z M246.273,555.477 L264.765,579.896 L246.273,604.316 L227.781,579.896 L246.273,555.477 z M198.625,555.477 L180.133,579.896 L198.625,604.316 L217.117,579.896 L198.625,555.477 z M246.273,499.888 L264.765,524.304 L246.273,548.723 L227.781,524.304 L246.273,499.888 z M198.625,499.888 L217.117,524.304 L198.625,548.723 L180.133,524.304 L198.625,499.888 z M245.93,443.191 L264.42,467.61 L245.93,492.029 L227.439,467.61 L245.93,443.191 z M198.28,443.191 L216.772,467.61 L198.28,492.029 L179.788,467.61 L198.28,443.191 z M222.104,471.638 L240.596,496.058 L222.104,520.477 L203.612,496.058 L222.104,471.638 z M174.456,471.638 L155.961,496.058 L174.456,520.477 L192.948,496.058 L174.456,471.638 z M222.104,416.049 L203.612,440.468 L222.104,464.887 L240.596,440.468 L222.104,416.049 z M174.456,416.049 L155.961,440.468 L174.456,464.887 L192.948,440.468 L174.456,416.049 z M175.167,359.983 L156.675,384.402 L175.167,408.822 L193.659,384.402 L175.167,359.983 z M198.991,388.431 L217.483,412.85 L198.991,437.269 L180.499,412.85 L198.991,388.431 z M181.148,648.008 L174.087,638.688 L164.379,651.508 C170.083,650.712 175.679,649.538 181.148,648.008 z M215.149,632.998 L197.915,610.238 L179.419,634.657 L187.938,645.905 C197.487,642.657 206.595,638.309 215.149,632.998 z M227.411,624.443 C225.03,626.304 222.588,628.078 220.103,629.773 L203.247,607.515 L221.738,583.095 L240.228,607.515 L227.411,624.443 z M280.967,541.383 L270.1,527.03 L251.608,551.449 L268.631,573.931 C273.814,563.738 277.979,552.838 280.967,541.383 z M285.998,510.351 C285.455,518.403 284.349,526.28 282.727,533.938 L275.432,524.304 L285.998,510.351 z M286.299,493.487 L269.754,471.638 L251.262,496.058 L269.754,520.477 L286.387,498.512 C286.384,496.831 286.351,495.156 286.299,493.487 z M281.658,458.934 C283.419,466.209 284.712,473.697 285.496,481.355 L275.086,467.61 L281.658,458.934 z M266.744,420.024 L251.262,440.468 L269.754,464.887 L279.731,451.711 C276.478,440.54 272.101,429.922 266.744,420.024 z M245.498,389.942 C252.316,397.464 258.431,405.764 263.73,414.704 L246.641,437.269 L228.15,412.85 L245.498,389.942 z M217.983,366.364 L204.323,384.402 L222.815,408.822 L240.831,385.032 C233.832,377.993 226.176,371.733 217.983,366.364 z M185.382,350.811 C195.047,353.875 204.285,358.055 212.967,363.222 L198.991,381.678 L180.499,357.26 L185.382,350.811 z M146.928,431.44 L146.928,394.261 L151.34,388.431 L169.834,412.85 L151.34,437.269 L146.928,431.44 z M146.928,487.14 L146.928,448.082 L150.629,443.191 L169.122,467.61 L150.629,492.029 L146.928,487.14 z M146.928,543.379 L146.928,505.23 L150.975,499.888 L169.466,524.304 L150.975,548.723 L146.928,543.379 z M146.928,598.97 L146.928,560.823 L150.975,555.477 L169.466,579.896 L150.975,604.316 L146.928,598.97 z M146.928,652.731 L146.928,614.645 L150.264,610.238 L168.755,634.657 L155.296,652.43 C152.525,652.618 149.738,652.726 146.928,652.731 z M146.928,344.823 C151.686,344.833 156.389,345.102 161.02,345.623 L169.834,357.26 L151.34,381.678 L146.928,375.849 L146.928,344.823" fill="#CD8A30"/>
    <path d="M141.377,250.314 L179.824,132.702 L211.572,140.897 L192.85,280.962 L141.377,250.314" fill="#167E4F"/>
    <path d="M139.138,239.15 L53.659,99.176 L94.965,278.577 L139.138,239.15" fill="#18A96A"/>
    <path d="M117.859,234.712 L100.869,53.729 L167.14,244.991 L117.859,234.712" fill="#148652"/>
    <path d="M138.312,246.691 L165.172,1.577 L183.01,266.624 L138.312,246.691" fill="#187447"/>
    <path d="M162.942,243.196 L257.154,97.686 L209.408,272.307 L162.942,243.196" fill="#129E63"/>
    <path d="M276.717,255.149 C280.431,245.958 263.908,237.433 246.786,227.661 C232.008,219.223 226.395,200.626 206.981,212.82 C185.176,244.609 163.375,276.397 141.567,308.186 C156.745,317.397 171.918,326.61 187.095,335.821 C216.97,308.929 246.842,282.038 276.717,255.149" fill="#13975D"/>
    <path d="M246.786,227.661 C231.645,218.654 218.207,207.807 206.981,212.82 C185.176,244.609 163.375,276.397 141.567,308.186 L162.568,320.932 L246.786,227.661" fill="#18A96A"/>
    <path d="M290.552,251.05 C285.658,225.197 266.133,237.255 246.786,227.661 C233.208,220.926 232.232,198.991 206.981,212.82 L302.048,311.759 L290.552,251.05" fill="#20AA6E"/>
    <path d="M246.786,227.661 C233.208,220.925 232.232,198.991 206.981,212.82 L302.048,311.759 C272.253,259.165 275.486,243.987 246.786,227.661" fill="#50B482"/>
    <path d="M206.981,212.82 L235.387,292.348 L261.13,269.177 L206.981,212.82" fill="#167E4F"/>
    <path d="M221.931,255.186 L234.412,241.366 L206.981,212.82 L221.931,255.186" fill="#13975D"/>
    <path d="M33.498,261.491 C30.148,253.207 46.61,247.147 62.04,238.339 C75.359,230.735 80.417,213.974 97.917,224.964 C117.566,253.614 137.217,282.263 156.868,310.915 C143.193,319.217 129.515,327.519 115.837,335.821 L33.498,261.491" fill="#18A96A"/>
    <path d="M62.041,238.339 C75.686,230.222 87.799,220.446 97.917,224.964 C117.566,253.614 137.217,282.263 156.868,310.915 L137.943,322.403 L62.041,238.339" fill="#13975D"/>
    <path d="M18.38,241.134 C26.129,219.016 38.092,236.184 55.528,227.537 C67.766,221.469 75.157,212.501 97.917,224.964 L5.729,277.237 L18.38,241.134" fill="#50B482"/>
    <path d="M55.529,227.537 C67.767,221.466 75.157,212.501 97.917,224.964 L5.729,277.237 C24.441,247.271 36.882,237.34 55.529,227.537" fill="#20AA6E"/>
    <path d="M97.917,224.964 L69.258,293.773 L33.498,261.491 L97.917,224.964" fill="#13975D"/>
    <path d="M82.779,261.308 L66.201,242.947 L97.917,224.964 L82.779,261.308" fill="#167E4F"/>
    <path d="M105.331,233.082 C111.868,214.779 176.769,213.101 187.351,233.082 L161.86,342.835 L127.643,342.835 L105.331,233.082" fill="#148652"/>
    <path d="M105.331,233.082 C111.868,214.779 176.766,213.101 187.351,233.082 L146.925,271.257 L105.331,233.082" fill="#129E63"/>
    <path d="M146.925,218.725 C164.609,218.875 182.261,223.472 187.351,233.082 L161.86,342.835 L146.925,342.835 L146.925,218.725" fill="#187447"/>
    <path d="M146.925,218.725 C164.609,218.875 182.261,223.472 187.351,233.082 L146.925,271.257 L146.925,218.725" fill="#148652"/>
    <path d="M105.331,233.082 L146.925,285.893 L146.925,271.257 L105.331,233.082" fill="#187447"/>
    <path d="M146.925,271.257 L187.351,233.082 L146.925,285.893 L146.925,271.257" fill="#145C38"/>
    <path d="M251.93,317.617 C254.936,312.238 241.565,307.247 227.711,301.525 C215.751,296.584 211.213,285.696 195.503,292.835 C177.861,311.447 160.216,330.058 142.575,348.671 C154.854,354.064 172.697,355.831 184.976,361.225 C209.15,345.481 227.755,333.362 251.93,317.617" fill="#187447"/>
    <path d="M227.711,301.525 C215.458,296.252 204.585,289.9 195.503,292.835 C177.861,311.447 160.216,330.058 142.575,348.671 L159.568,356.133 L227.711,301.525" fill="#148652"/>
    <path d="M251.927,317.617 C255.531,301.533 243.365,307.141 227.711,301.525 C216.723,297.582 215.935,284.739 195.503,292.835 L242.458,342.038 L251.927,317.617" fill="#148652"/>
    <path d="M227.711,301.525 C216.723,297.581 215.935,284.739 195.503,292.835 C211.154,309.235 226.807,325.636 242.458,342.038 C242.466,327.653 240.068,313.7 227.711,301.525" fill="#129E63"/>
    <path d="M195.503,292.835 L216.824,336.55 L231.717,330.783 L195.503,292.835" fill="#145C38"/>
    <path d="M207.602,317.64 L214.16,312.385 L195.503,292.835 L207.602,317.64" fill="#187447"/>
    <path d="M56.398,322.281 C53.687,317.432 65.738,312.933 78.225,307.776 C89,303.325 93.095,293.511 107.252,299.946 C123.153,316.72 139.053,333.493 154.955,350.267 C143.888,355.128 132.82,359.989 121.754,364.849 C99.967,350.66 78.184,336.47 56.398,322.281" fill="#148652"/>
    <path d="M78.225,307.776 C89.268,303.024 99.066,297.3 107.252,299.946 C123.153,316.72 139.053,333.493 154.955,350.267 L139.641,356.994 L78.225,307.776" fill="#187447"/>
    <path d="M56.398,322.281 C53.15,307.784 64.116,312.84 78.225,307.776 C88.126,304.224 88.837,292.648 107.252,299.946 L64.933,344.29 L56.398,322.281" fill="#129E63"/>
    <path d="M78.225,307.776 C88.126,304.223 88.837,292.648 107.252,299.946 C93.146,314.727 79.042,329.509 64.933,344.29 C64.926,331.326 67.089,318.751 78.225,307.776" fill="#148652"/>
    <path d="M107.252,299.946 L88.036,339.344 L74.615,334.145 L107.252,299.946" fill="#187447"/>
    <path d="M96.349,322.302 L90.437,317.564 L107.252,299.946 L96.349,322.302" fill="#145C38"/>
    <path d="M118.233,304.698 C122.728,293.983 167.362,293 174.639,304.698 C171.036,326.117 167.429,347.536 163.826,368.957 C151.551,368.957 139.275,368.957 126.999,368.957 C124.078,347.536 121.156,326.117 118.233,304.698" fill="#148652"/>
    <path d="M118.233,304.698 C122.728,293.984 167.362,293 174.639,304.698 L146.837,327.05 L118.233,304.698" fill="#129E63"/>
    <path d="M146.837,296.293 C159,296.381 171.138,299.073 174.639,304.698 C171.036,326.117 167.429,347.537 163.826,368.957 L146.837,368.957 L146.837,296.293" fill="#187447"/>
    <path d="M146.837,296.293 C159,296.381 171.138,299.073 174.639,304.698 L146.837,327.05 L146.837,296.293" fill="#148652"/>
    <path d="M118.233,304.698 L146.837,335.619 L146.837,327.05 L118.233,304.698" fill="#187447"/>
    <path d="M146.837,327.05 L174.639,304.698 L146.837,335.619 L146.837,327.05" fill="#145C38"/>
    <path d="M164.134,348.374 C221.697,336.581 208.212,346.445 243.089,385.067 C201.477,376.261 212.975,364.848 178.992,361.722 C174.039,357.273 169.087,352.824 164.134,348.374" fill="#129E63"/>
    <path d="M129.543,348.374 C76.865,342.169 90.349,341.416 55.472,380.038 C97.088,371.232 80.705,364.848 114.686,361.722 C119.639,357.273 124.593,352.824 129.543,348.374" fill="#187447"/>
    <path d="M178.992,361.722 L146.837,382.206 L114.686,361.722 C114.688,336.095 178.995,336.273 178.992,361.722" fill="#129E63"/>
    <path d="M178.992,361.722 L146.837,382.206 L146.837,342.568 C162.917,342.59 178.995,348.998 178.992,361.722" fill="#148652"/>
    <path d="M30.302,488.812 L31.983,492.385 L34.68,494.791 L32.064,497.086 L30.302,500.769 L28.622,497.194 L25.926,494.791 L28.542,492.493 L30.302,488.812" fill="#FBE2A9"/>
    <path d="M75.524,490.486 L77.205,494.059 L79.902,496.465 L77.285,498.76 L75.524,502.443 L73.843,498.871 L71.146,496.465 L73.762,494.17 L75.524,490.486" fill="#FBE2A9"/>
    <path d="M125.541,488.935 L127.223,492.509 L129.919,494.914 L127.302,497.21 L125.541,500.892 L123.861,497.32 L121.164,494.914 L123.781,492.619 L125.541,488.935" fill="#FBE2A9"/>
    <path d="M150.029,631.293 L151.711,634.868 L154.406,637.271 L151.791,639.569 L150.029,643.253 L148.347,639.677 L145.653,637.271 L148.27,634.976 L150.029,631.293 z M196.881,624.341 L198.561,627.913 L201.257,630.319 L198.643,632.617 L196.881,636.298 L195.2,632.724 L192.505,630.319 L195.12,628.024 L196.881,624.341 z M223.6,604.099 L225.283,607.672 L227.98,610.078 L225.363,612.373 L223.6,616.056 L221.921,612.484 L219.224,610.078 L221.838,607.783 L223.6,604.099 z M175.223,605.877 L176.903,609.452 L179.6,611.855 L176.983,614.15 L175.223,617.834 L173.542,614.262 L170.844,611.855 L173.461,609.56 L175.223,605.877 z M151.513,573.725 L153.195,577.301 L155.889,579.706 L153.272,582.001 L151.513,585.684 L149.831,582.112 L147.136,579.706 L149.751,577.408 L151.513,573.725 z M175.358,544.453 L177.037,548.026 L179.734,550.434 L177.12,552.729 L175.358,556.41 L173.675,552.838 L170.978,550.434 L173.595,548.137 L175.358,544.453 z M199.709,574.572 L201.389,578.145 L204.085,580.551 L201.469,582.846 L199.709,586.529 L198.028,582.957 L195.331,580.551 L197.948,578.256 L199.709,574.572 z M247.388,574.572 L249.071,578.145 L251.767,580.551 L249.151,582.846 L247.388,586.529 L245.709,582.957 L243.012,580.551 L245.626,578.256 L247.388,574.572 z M222.99,544.772 L224.672,548.345 L227.367,550.751 L224.752,553.046 L222.99,556.727 L221.311,553.157 L218.614,550.751 L221.228,548.453 L222.99,544.772 z M270.399,544.785 L272.081,548.358 L274.778,550.763 L272.161,553.059 L270.399,556.742 L268.719,553.17 L266.022,550.763 L268.639,548.469 L270.399,544.785 z M247.388,517.206 L249.071,520.778 L251.767,523.184 L249.151,525.479 L247.388,529.163 L245.709,525.59 L243.012,523.184 L245.626,520.889 L247.388,517.206 z M222.112,379.307 L223.793,382.881 L226.491,385.286 L223.874,387.581 L222.112,391.264 L220.432,387.692 L217.736,385.286 L220.352,382.99 L222.112,379.307 z M173.969,379.509 L175.649,383.081 L178.345,385.487 L175.731,387.782 L173.969,391.466 L172.287,387.892 L169.592,385.487 L172.208,383.192 L173.969,379.509 z M198.404,518.88 L200.085,522.455 L202.78,524.861 L200.166,527.156 L198.404,530.84 L196.724,527.267 L194.027,524.861 L196.642,522.563 L198.404,518.88 z M245.016,407.045 L246.698,410.617 L249.395,413.023 L246.778,415.318 L245.016,419 L243.336,415.429 L240.64,413.023 L243.257,410.726 L245.016,407.045 z M196.874,407.245 L198.555,410.818 L201.252,413.223 L198.635,415.518 L196.874,419.202 L195.194,415.63 L192.498,413.223 L195.112,410.929 L196.874,407.245 z M150.49,406.299 L152.172,409.871 L154.869,412.277 L152.252,414.573 L150.49,418.256 L148.811,414.683 L146.116,412.277 L148.731,409.981 L150.49,406.299 z M152.072,518.595 L153.751,522.167 L156.448,524.573 L153.833,526.868 L152.072,530.552 L150.39,526.978 L147.693,524.573 L150.31,522.277 L152.072,518.595 z M270.167,435.184 L271.846,438.757 L274.543,441.163 L271.928,443.459 L270.167,447.141 L268.485,443.568 L265.791,441.163 L268.405,438.868 L270.167,435.184 z M222.024,435.386 L223.704,438.959 L226.401,441.365 L223.784,443.66 L222.024,447.344 L220.342,443.77 L217.645,441.365 L220.262,439.068 L222.024,435.386 z M175.641,434.438 L177.323,438.012 L180.017,440.417 L177.403,442.714 L175.641,446.397 L173.961,442.824 L171.264,440.417 L173.879,438.122 L175.641,434.438 z M246.175,461.315 L247.855,464.887 L250.551,467.294 L247.937,469.589 L246.175,473.272 L244.494,469.699 L241.799,467.294 L244.414,464.999 L246.175,461.315 z M198.033,461.515 L199.712,465.089 L202.409,467.494 L199.794,469.79 L198.033,473.472 L196.351,469.9 L193.657,467.494 L196.271,465.199 L198.033,461.515 z M151.649,460.568 L153.329,464.143 L156.028,466.549 L153.412,468.845 L151.649,472.527 L149.97,468.955 L147.271,466.549 L149.887,464.252 L151.649,460.568 z M271.746,489.742 L273.425,493.314 L276.123,495.72 L273.507,498.015 L271.746,501.699 L270.064,498.127 L267.37,495.72 L269.984,493.426 L271.746,489.742 z M223.603,489.943 L225.283,493.515 L227.98,495.924 L225.363,498.22 L223.603,501.902 L221.921,498.327 L219.224,495.924 L221.841,493.627 L223.603,489.943 z M177.22,488.998 L178.902,492.57 L181.596,494.976 L178.982,497.271 L177.22,500.955 L175.541,497.382 L172.843,494.976 L175.458,492.681 L177.22,488.998" fill="#ECD094"/>
    <path d="M102.528,518.223 L104.208,521.796 L106.904,524.202 L104.29,526.497 L102.528,530.18 L100.846,526.607 L98.149,524.202 L100.766,521.907 L102.528,518.223" fill="#FBE2A9"/>
    <path d="M49.954,462.059 L51.633,465.632 L54.33,468.038 L51.714,470.333 L49.954,474.016 L48.273,470.444 L45.576,468.038 L48.191,465.743 L49.954,462.059" fill="#FBE2A9"/>
    <path d="M99.973,460.509 L101.652,464.081 L104.346,466.487 L101.734,468.782 L99.973,472.466 L98.291,468.893 L95.594,466.487 L98.211,464.192 L99.973,460.509" fill="#FBE2A9"/>
    <path d="M28.723,434.253 L30.404,437.826 L33.101,440.231 L30.485,442.528 L28.723,446.21 L27.042,442.637 L24.347,440.231 L26.963,437.936 L28.723,434.253" fill="#FBE2A9"/>
    <path d="M73.945,435.929 L75.625,439.503 L78.32,441.907 L75.706,444.204 L73.945,447.886 L72.264,444.314 L69.567,441.907 L72.183,439.612 L73.945,435.929" fill="#FBE2A9"/>
    <path d="M123.964,434.38 L125.644,437.952 L128.34,440.356 L125.723,442.653 L123.964,446.337 L122.282,442.763 L119.585,440.356 L122.202,438.061 L123.964,434.38" fill="#FBE2A9"/>
    <path d="M48.795,407.789 L50.477,411.361 L53.173,413.767 L50.556,416.062 L48.795,419.746 L47.115,416.173 L44.418,413.767 L47.034,411.472 L48.795,407.789" fill="#FBE2A9"/>
    <path d="M98.813,406.238 L100.493,409.81 L103.192,412.217 L100.575,414.512 L98.813,418.195 L97.134,414.623 L94.435,412.217 L97.052,409.921 L98.813,406.238" fill="#FBE2A9"/>
    <path d="M53.829,519.14 L55.508,522.713 L58.205,525.119 L55.589,527.414 L53.829,531.097 L52.148,527.524 L49.451,525.119 L52.067,522.824 L53.829,519.14" fill="#FBE2A9"/>
    <path d="M75.909,378.502 L77.588,382.074 L80.286,384.48 L77.671,386.775 L75.909,390.459 L74.227,386.886 L71.531,384.48 L74.147,382.184 L75.909,378.502" fill="#FBE2A9"/>
    <path d="M127.586,378.561 L129.268,382.135 L131.965,384.541 L129.348,386.837 L127.586,390.519 L125.906,386.946 L123.209,384.541 L125.824,382.245 L127.586,378.561" fill="#FBE2A9"/>
    <path d="M126.555,545.043 L128.235,548.616 L130.929,551.021 L128.315,553.316 L126.555,557 L124.874,553.428 L122.176,551.021 L124.793,548.726 L126.555,545.043" fill="#FBE2A9"/>
    <path d="M78.315,545.043 L79.994,548.616 L82.688,551.021 L80.074,553.316 L78.315,557 L76.633,553.428 L73.936,551.021 L76.552,548.726 L78.315,545.043" fill="#FBE2A9"/>
    <path d="M30.919,547.078 L32.6,550.65 L35.295,553.056 L32.68,555.351 L30.919,559.035 L29.238,555.462 L26.542,553.056 L29.157,550.762 L30.919,547.078" fill="#FBE2A9"/>
    <path d="M53.552,574.685 L55.233,578.261 L57.93,580.667 L55.314,582.962 L53.552,586.645 L51.871,583.073 L49.176,580.667 L51.79,578.369 L53.552,574.685" fill="#FBE2A9"/>
    <path d="M102.538,574.315 L104.218,577.887 L106.917,580.294 L104.3,582.589 L102.538,586.272 L100.859,582.699 L98.159,580.294 L100.776,577.999 L102.538,574.315" fill="#FBE2A9"/>
    <path d="M77.208,601.135 L78.887,604.71 L81.583,607.113 L78.969,609.411 L77.208,613.092 L75.525,609.519 L72.83,607.113 L75.445,604.818 L77.208,601.135" fill="#FBE2A9"/>
    <path d="M126.236,604.2 L127.918,607.772 L130.615,610.179 L127.998,612.476 L126.236,616.157 L124.557,612.585 L121.86,610.179 L124.477,607.884 L126.236,604.2" fill="#FBE2A9"/>
    <path d="M101.044,630.733 L102.724,634.306 L105.423,636.713 L102.806,639.01 L101.044,642.691 L99.365,639.118 L96.665,636.713 L99.282,634.417 L101.044,630.733" fill="#FBE2A9"/>
  </g>
</svg>
