<?xml version="1.0" encoding="UTF-8" standalone="no"?>
<!-- Created with Inkscape (http://www.inkscape.org/) -->

<svg
   version="1.1"
   id="svg5108"
   width="880"
   height="880"
   viewBox="0 0 880 880"
   sodipodi:docname="peeled-potato--publicdomainvectors.org.svg"
   inkscape:version="1.2 (dc2aedaf03, 2022-05-15)"
   xmlns:inkscape="http://www.inkscape.org/namespaces/inkscape"
   xmlns:sodipodi="http://sodipodi.sourceforge.net/DTD/sodipodi-0.dtd"
   xmlns="http://www.w3.org/2000/svg"
   xmlns:svg="http://www.w3.org/2000/svg">
  <defs
     id="defs5112">
    <clipPath
       clipPathUnits="userSpaceOnUse"
       id="clipPath5124">
      <path
         d="M 0,660 H 660 V 0 H 0 Z"
         id="path5122" />
    </clipPath>
  </defs>
  <sodipodi:namedview
     id="namedview5110"
     pagecolor="#ffffff"
     bordercolor="#000000"
     borderopacity="0.25"
     inkscape:showpageshadow="2"
     inkscape:pageopacity="0.0"
     inkscape:pagecheckerboard="0"
     inkscape:deskcolor="#d1d1d1"
     showgrid="false"
     inkscape:zoom="0.95113636"
     inkscape:cx="440.52569"
     inkscape:cy="440.52569"
     inkscape:window-width="1920"
     inkscape:window-height="1017"
     inkscape:window-x="-8"
     inkscape:window-y="-8"
     inkscape:window-maximized="1"
     inkscape:current-layer="g5116">
    <inkscape:page
       x="0"
       y="0"
       id="page5114"
       width="880"
       height="880" />
  </sodipodi:namedview>
  <g
     id="g5116"
     inkscape:groupmode="layer"
     inkscape:label="Page 1"
     transform="matrix(1.3333333,0,0,-1.3333333,0,880)">
    <g
       id="g5118">
      <g
         id="g5120"
         clip-path="url(#clipPath5124)">
        <g
           id="g5126"
           transform="translate(399.6094,186.8594)">
          <path
             d="M 0,0 C 114.893,0 208.601,13.015 208.601,28.972 208.601,44.93 114.893,57.944 0,57.944 -114.892,57.944 -208.599,44.93 -208.599,28.972 -208.599,13.015 -114.892,0 0,0"
             style="fill:#bad526;fill-opacity:1;fill-rule:evenodd;stroke:none"
             id="path5128" />
        </g>
        <g
           id="g5130"
           transform="translate(53.812,389.5547)">
          <path
             d="m 0,0 c -25.423,-23.769 -13.203,-155.539 38.633,-165.143 12.393,1.93 33.621,6.231 46.015,8.162 C 40.547,-148.781 4.997,-17.402 70.99,36.186 47.327,24.125 23.663,12.061 0,0"
             style="fill:#f2cd5c;fill-opacity:1;fill-rule:evenodd;stroke:none"
             id="path5132" />
        </g>
        <g
           id="g5134"
           transform="translate(156.7324,361.4961)">
          <path
             d="m 0,0 c 6.319,85.576 80.709,116.713 153.937,138.239 104.872,30.829 238.581,24.393 303.181,-75.832 l 4.541,-7.045 C 496.668,-7.01 473.783,-65.357 420.534,-107.553 342.164,-166.237 221.324,-157.939 131.891,-132.419 64.66,-113.236 5.689,-75.833 0,0"
             style="fill:#f5e8a9;fill-opacity:1;fill-rule:evenodd;stroke:none"
             id="path5136" />
        </g>
        <g
           id="g5138"
           transform="translate(502.9844,504.7827)">
          <path
             d="m 0,0 c 44.319,-13.181 83.704,-38.737 110.866,-80.88 l 4.541,-7.044 c 35.009,-62.372 12.124,-120.72 -41.125,-162.915 -78.37,-58.685 -199.21,-50.387 -288.643,-24.867 -17.837,5.09 -35.093,11.462 -50.924,19.495 20.127,-2.801 41.606,-4.188 67.223,-3.625 l 10.16,0.249 c 51.768,1.423 107.061,4.601 155.602,24.124 51.039,20.529 104.985,76.896 99.349,135.927 C 62.556,-52.478 36.101,-20.683 0,0"
             style="fill:#ebdc92;fill-opacity:1;fill-rule:evenodd;stroke:none"
             id="path5140" />
        </g>
        <g
           id="g5142"
           transform="translate(485.0068,382.9585)">
          <path
             d="m 0,0 c 49.092,33.358 25.025,95.866 -35.391,112.701 -67.031,15.721 -219.814,-14.167 -252.177,-79.466 -29.229,-58.974 53.291,-57.757 87.387,-54.084 48.52,5.228 63.314,8.613 113.674,7.473 C -56.708,-14.05 -26.587,-14.864 0,0"
             style="fill:#fff5c2;fill-opacity:1;fill-rule:evenodd;stroke:none"
             id="path5144" />
        </g>
        <g
           id="g5146"
           transform="translate(400.6797,515.4741)">
          <path
             d="m 0,0 c 82.49,4.64 166.143,-18.609 213.171,-91.571 l 4.541,-7.045 c 35.009,-62.372 12.124,-120.719 -41.125,-162.915 C 143.31,-286.447 102.377,-299.285 59.442,-303.86 124.445,-248.069 81.175,-45.821 0,0"
             style="fill:#c9a128;fill-opacity:1;fill-rule:evenodd;stroke:none"
             id="path5148" />
        </g>
        <g
           id="g5150"
           transform="translate(482.0381,381.3726)">
          <path
             d="m 0,0 c -11.549,46.796 -32.849,91.332 -60.291,118.01 10.307,-0.582 19.725,-1.813 27.869,-3.723 C 27.993,97.452 52.06,34.944 2.969,1.586 1.985,1.035 0.993,0.509 0,0"
             style="fill:#d6ac2d;fill-opacity:1;fill-rule:evenodd;stroke:none"
             id="path5152" />
        </g>
        <g
           id="g5154"
           transform="translate(502.9922,504.7778)">
          <path
             d="m 0,0 c 44.316,-13.178 83.697,-38.734 110.858,-80.875 l 4.541,-7.044 c 35.009,-62.373 12.124,-120.72 -41.125,-162.915 -33.276,-24.916 -74.21,-37.754 -117.144,-42.33 16.744,14.373 26.289,38.476 29.866,67.108 44.383,25.374 84.971,74.93 80.045,126.525 C 62.548,-52.477 36.096,-20.682 0,0"
             style="fill:#ba921a;fill-opacity:1;fill-rule:evenodd;stroke:none"
             id="path5156" />
        </g>
        <g
           id="g5158"
           transform="translate(393.3691,514.9985)">
          <path
             d="m 0,0 c 5.328,0.406 10.666,0.696 16.005,0.868 1.301,-0.959 2.535,-1.941 3.734,-2.969 4.688,-4.014 8.693,-8.574 14.291,-15.119 2.822,-3.3 6.107,-6.483 9.364,-9.639 4.487,-4.349 8.931,-8.653 12.446,-13.458 l 0.017,-0.018 c 3.23,-4.459 6.44,-9.047 9.302,-13.899 2.911,-4.937 5.439,-10.122 7.216,-15.673 0.869,-2.717 1.266,-3.99 1.632,-5.165 2.601,-8.349 3.546,-11.386 9.593,-20.977 6.496,-10.305 8.7,-18.018 11.835,-28.988 l 0.389,-1.367 v -0.018 l 0.321,-1.139 c 2.758,-9.832 3.055,-15.032 3.486,-22.599 0.118,-2.089 0.25,-4.385 0.501,-7.578 0.451,-5.731 1.824,-10.473 3.179,-15.155 1.472,-5.09 2.926,-10.117 3.401,-16.266 0.626,-8.382 -0.168,-13.933 -1.117,-20.573 -0.322,-2.253 -0.665,-4.64 -0.964,-7.266 -0.505,-4.431 -0.368,-8.822 -0.234,-13.147 0.179,-5.764 0.355,-11.424 -0.789,-17.241 l -0.017,-0.036 c -1.756,-8.623 -4.581,-14.167 -8.289,-21.445 l -0.509,-1 c -2.628,-5.168 -4.345,-9.12 -5.849,-12.584 -3.312,-7.632 -5.709,-13.15 -11.58,-19.629 -5.044,-0.708 -10.124,-1.291 -15.229,-1.765 11.841,9.722 14.349,15.503 18.469,24.994 1.66,3.824 3.554,8.189 6.062,13.12 l 0.51,0.998 c 3.406,6.687 6.003,11.782 7.494,19.092 l -0.009,0.001 c 0.968,4.922 0.81,10.037 0.648,15.246 -0.147,4.69 -0.296,9.451 0.268,14.394 0.32,2.803 0.668,5.246 0.998,7.551 0.872,6.095 1.602,11.192 1.047,18.614 -0.408,5.303 -1.718,9.829 -3.045,14.411 -1.499,5.185 -3.019,10.438 -3.535,16.973 -0.207,2.645 -0.361,5.338 -0.501,7.792 -0.396,6.96 -0.668,11.743 -3.164,20.639 l -0.316,1.122 -0.004,-0.001 -0.391,1.366 c -2.933,10.264 -4.993,17.48 -10.765,26.635 -6.703,10.631 -7.74,13.961 -10.591,23.116 -0.58,1.865 -1.237,3.97 -1.597,5.095 -1.537,4.801 -3.783,9.39 -6.396,13.82 -2.666,4.518 -5.736,8.901 -8.838,13.185 -3.075,4.206 -7.231,8.231 -11.429,12.3 -3.409,3.303 -6.847,6.634 -9.936,10.245 -5.319,6.22 -9.102,10.534 -13.292,14.122 C 10.14,-5.86 6,-3.144 0,0"
             style="fill:#f2cd5c;fill-opacity:1;fill-rule:evenodd;stroke:none"
             id="path5160" />
        </g>
        <g
           id="g5162"
           transform="translate(426.2861,499.0776)">
          <path
             d="m 0,0 1.113,-1.299 c 2.822,-3.3 6.107,-6.483 9.364,-9.639 4.487,-4.349 8.931,-8.653 12.446,-13.458 l 0.016,-0.018 c 3.231,-4.459 6.441,-9.047 9.303,-13.899 2.911,-4.937 5.439,-10.122 7.216,-15.673 0.869,-2.718 1.266,-3.99 1.632,-5.165 2.601,-8.349 3.546,-11.386 9.593,-20.977 6.496,-10.306 8.7,-18.018 11.835,-28.988 l 0.389,-1.367 v -0.018 l 0.321,-1.139 c 0.09,-0.324 0.179,-0.643 0.264,-0.957 -1.508,-1.205 -3.093,-2.382 -4.771,-3.522 -1.086,-0.607 -2.178,-1.186 -3.278,-1.742 -0.282,1.175 -0.607,2.421 -0.983,3.762 l -0.316,1.122 -0.004,-10e-4 -0.391,1.366 c -2.933,10.264 -4.993,17.48 -10.765,26.635 -6.703,10.63 -7.74,13.96 -10.591,23.116 -0.581,1.865 -1.237,3.969 -1.597,5.095 -1.537,4.801 -3.783,9.39 -6.396,13.82 -2.666,4.518 -5.736,8.901 -8.838,13.185 -3.075,4.205 -7.231,8.231 -11.429,12.3 -3.409,3.303 -6.847,6.634 -9.936,10.245 -2.579,3.017 -4.799,5.586 -6.879,7.841 C -8.312,0.525 -4.08,0.316 0,0"
             style="fill:#fad567;fill-opacity:1;fill-rule:evenodd;stroke:none"
             id="path5164" />
        </g>
        <g
           id="g5166"
           transform="translate(497.8086,283.4727)">
          <path
             d="m 0,0 c 0.157,-5.289 0.222,-10.508 -0.832,-15.86 l -0.017,-0.036 C -2.604,-24.52 -5.43,-30.063 -9.138,-37.341 l -0.509,-1 c -2.627,-5.168 -4.344,-9.12 -5.848,-12.584 -3.313,-7.633 -5.709,-13.15 -11.58,-19.629 -5.044,-0.708 -10.124,-1.292 -15.23,-1.765 11.841,9.721 14.35,15.503 18.469,24.994 1.66,3.824 3.555,8.189 6.063,13.12 l 0.509,0.998 c 3.407,6.686 6.003,11.782 7.494,19.092 l -0.008,10e-4 c 0.557,2.839 0.741,5.742 0.765,8.691 C -5.987,-3.724 -2.979,-1.916 0,0"
             style="fill:#e8c24f;fill-opacity:1;fill-rule:evenodd;stroke:none"
             id="path5168" />
        </g>
        <g
           id="g5170"
           transform="translate(430.7363,209.7295)">
          <path
             d="m 0,0 c 7.524,143.62 -32.364,239.827 -117.552,290.737 -30.134,1.506 -55.597,-8.328 -76.718,-28.712 C -107.311,203.047 -62.957,122.943 -83.594,6.22 -55.041,-1.555 -27.265,-6.391 0,0"
             style="fill:#ba921a;fill-opacity:1;fill-rule:evenodd;stroke:none"
             id="path5172" />
        </g>
        <g
           id="g5174"
           transform="translate(312.1338,500.5142)">
          <path
             d="m 0,0 c 9.036,-9.932 11.064,-14.279 26.094,-21.757 4.297,-2.139 8.628,-4.294 13.238,-8.267 6.891,-5.936 11.829,-10.827 16.12,-16.2 4.293,-5.377 8.001,-11.324 12.421,-19.366 l 0.008,0.004 c 4.143,-7.589 5.719,-12.007 8.066,-18.602 0.637,-1.786 1.328,-3.729 2.047,-5.684 v -0.017 c 2.004,-5.402 4.735,-10.139 7.405,-14.77 3.485,-6.044 6.857,-11.892 7.875,-18.719 l 0.008,0.001 c 3.519,-25.758 13.56,-36.67 17.278,-67.933 l 0.288,-2.405 c 2.267,-19.111 6.771,-30.856 4.931,-50.167 -0.353,-3.726 -0.73,-7.695 -0.82,-12.668 -0.067,-3.73 -0.116,-7.468 -0.165,-11.181 -0.098,-7.685 -0.263,-16.119 -0.554,-23.995 3.04,0.038 6.145,0.982 9.179,1.093 0.27,7.643 0.366,15.163 0.465,22.796 0.048,3.649 0.095,7.328 0.164,11.144 0.081,4.555 0.446,8.371 0.785,11.954 1.969,20.69 -2.532,31.875 -4.932,52.092 l -0.288,2.406 c -3.731,31.381 -13.917,43.201 -17.32,68.129 v 0.053 c -1.269,8.487 -5.078,15.096 -9.018,21.927 -2.426,4.211 -4.908,8.517 -6.725,13.416 l -0.007,-0.002 c -0.806,2.194 -1.429,3.942 -2.005,5.56 -2.479,6.961 -4.139,11.622 -8.68,19.935 v 0.018 c -4.667,8.489 -8.622,14.818 -13.276,20.648 -4.657,5.833 -9.954,11.086 -17.296,17.412 -5.556,4.786 -10.358,7.177 -15.128,9.549 C 21.02,-9.048 16.143,-5.248 9.753,2.34 6.496,1.483 3.208,0.93 0,0 m -76.218,-29.051 c 3.016,2.602 3.501,4.303 6.64,5.773 18.254,-13.046 36.564,-26.267 50.308,-45.733 3.015,-4.269 5.55,-7.697 8.196,-11.022 2.721,-3.42 5.486,-6.658 8.896,-10.472 l 0.036,-0.018 c 8.185,-9.289 9.958,-14.667 12.467,-22.283 0.886,-2.692 1.877,-5.69 3.301,-9.22 2.228,-5.182 5.026,-9.089 7.834,-13.013 2.863,-4.001 5.742,-8.019 8.306,-13.569 3.032,-6.565 5.903,-13.424 8.094,-20.537 2.22,-7.203 3.716,-14.627 3.94,-22.208 0.104,-3.059 0.3,-6.198 0.488,-9.241 0.417,-6.729 0.804,-12.982 0.25,-20.83 l -0.139,-1.95 c -0.779,-10.97 -1.169,-16.425 -0.002,-27.981 1.157,-11.506 -0.445,-23.401 -2.192,-34.593 -3.008,0.462 -5.806,1.481 -8.784,1.991 1.65,10.593 2.971,21.29 1.922,31.71 -1.249,12.398 -0.846,18.081 -0.033,29.515 l 0.138,1.95 c 0.516,7.297 0.147,13.25 -0.25,19.653 -0.178,2.891 -0.364,5.879 -0.487,9.491 v 0.017 c -0.194,6.661 -1.543,13.297 -3.548,19.802 -2.032,6.603 -4.766,13.112 -7.669,19.397 -2.171,4.702 -4.815,8.396 -7.447,12.073 -3.093,4.32 -6.174,8.624 -8.798,14.724 l -0.036,0.088 c -1.581,3.909 -2.618,7.058 -3.549,9.879 -2.168,6.578 -3.697,11.221 -10.649,19.111 l 0.01,0.009 c -3.668,4.104 -6.547,7.468 -9.229,10.837 -2.76,3.471 -5.395,7.031 -8.516,11.451 -13.854,19.624 -30.214,31.496 -49.498,45.199"
             style="fill:#f2cd5c;fill-opacity:1;fill-rule:evenodd;stroke:none"
             id="path5176" />
        </g>
        <g
           id="g5178"
           transform="translate(281.9805,231.0391)">
          <path
             d="m 0,0 c 6.072,38.574 -31.49,126.971 -72.957,172.664 -25.987,28.637 -50.576,29.947 -76.021,24.481 -26.617,-5.717 -51.456,-23.078 -79.191,-38.629 39.895,13.901 79.418,25.479 115.962,-14.421 C -79.925,108.848 -47.526,24.2 -54.335,-1.799 -32.256,-10.836 -13.065,-12.856 0,0"
             style="fill:#ba921a;fill-opacity:1;fill-rule:evenodd;stroke:none"
             id="path5180" />
        </g>
        <g
           id="g5182"
           transform="translate(276.6602,226.8105)">
          <path
             d="m 0,0 9.813,3.533 c 3.161,20.09 -4.803,52.63 -18.858,85.89 -14.006,33.15 -34.106,67.265 -55.224,90.536 -13.641,15.033 -27.044,22.927 -40.458,26.365 -13.403,3.436 -24.871,0.071 -38.185,-2.788 l -11.383,-5.063 c 12.131,2.606 35.573,2.058 47.321,-0.953 11.739,-3.008 23.624,-10.089 35.968,-23.692 20.446,-22.531 39.952,-55.673 53.585,-87.934 C -3.968,54.053 2.893,18.393 0,0 m -211.912,169.816 c 20.342,7.087 28.185,10.807 48.371,10.438 20.618,-0.377 40.748,-7.839 60.005,-28.864 16.257,-17.751 32.472,-47.553 43.902,-76.367 11.952,-30.136 18.727,-59.585 15.021,-73.732 l -8.804,2.28 c 3.217,12.282 -3.35,39.573 -14.666,68.101 -11.078,27.93 -26.666,56.675 -42.155,73.586 -17.287,18.876 -35.192,25.574 -53.445,25.907 -18.683,0.34 -39.614,-1.609 -59.165,-8.421 z"
             style="fill:#f2cd5c;fill-opacity:1;fill-rule:evenodd;stroke:none"
             id="path5184" />
        </g>
        <g
           id="g5186"
           transform="translate(138.4595,232.5732)">
          <path
             d="M 0,0 C 14.463,6.394 19.673,17.65 6.658,63.573 2.556,78.049 -11.554,72.56 -13.42,62.096 -19.544,27.757 -23.215,-0.405 -46.014,-8.161 -30.676,-5.44 -15.338,-2.72 0,0"
             style="fill:#ba921a;fill-opacity:1;fill-rule:evenodd;stroke:none"
             id="path5188" />
        </g>
        <g
           id="g5190"
           transform="translate(137.3662,232.8027)">
          <path
             d="m 0,0 c 5.838,2.581 9.545,9.443 10.718,16.844 1.378,8.687 -1.032,22.973 -7.35,45.27 -0.767,2.707 -1.872,4.293 -3.082,5.015 -0.637,0.38 -1.359,0.51 -2.088,0.435 -0.877,-0.088 -1.787,-0.46 -2.633,-1.052 -1.664,-1.164 -2.986,-3.102 -3.401,-5.43 L -8.857,55.304 C -14.697,22.143 -20.853,-0.204 -44.921,-8.391 l -1.462,4.314 c 18.944,6.441 23.222,30.733 28.543,60.949 l 1.022,5.779 c 0.856,4.799 3.648,8.839 7.179,11.31 2.103,1.471 4.495,2.409 6.945,2.657 2.595,0.264 5.229,-0.24 7.649,-1.682 3.095,-1.845 5.713,-5.183 7.18,-10.362 C 18.83,40.949 18.996,26.702 17.408,16.685 15.614,5.379 8.988,2.12 0.242,-0.365 Z"
             style="fill:#f2cd5c;fill-opacity:1;fill-rule:evenodd;stroke:none"
             id="path5192" />
        </g>
        <g
           id="g5194"
           transform="translate(612.0059,343.1953)">
          <path
             d="m 0,0 c 3.491,0 6.337,3.471 6.337,7.727 0,4.255 -2.846,7.726 -6.337,7.726 -3.489,0 -6.336,-3.471 -6.336,-7.726 C -6.336,3.471 -3.489,0 0,0"
             style="fill:#c9a128;fill-opacity:1;fill-rule:evenodd;stroke:none"
             id="path5196" />
        </g>
        <g
           id="g5198"
           transform="translate(612.0059,345.9746)">
          <path
             d="M 0,0 C 2.235,0 4.059,2.222 4.059,4.947 4.059,7.672 2.235,9.895 0,9.895 -2.233,9.895 -4.058,7.672 -4.058,4.947 -4.058,2.222 -2.233,0 0,0"
             style="fill:#8a6c11;fill-opacity:1;fill-rule:evenodd;stroke:none"
             id="path5200" />
        </g>
        <g
           id="g5202"
           transform="translate(549.0537,435.665)">
          <path
             d="m 0,0 c 4.268,0 8.234,-3.459 8.863,-7.727 0.627,-4.267 -2.321,-7.726 -6.589,-7.726 -4.267,0 -8.235,3.459 -8.864,7.726 C -7.218,-3.459 -4.268,0 0,0"
             style="fill:#d6ac2d;fill-opacity:1;fill-rule:evenodd;stroke:none"
             id="path5204" />
        </g>
        <g
           id="g5206"
           transform="translate(549.4619,432.8857)">
          <path
             d="M 0,0 C 2.732,0 5.273,-2.215 5.676,-4.947 6.078,-7.68 4.189,-9.894 1.457,-9.894 c -2.733,0 -5.273,2.214 -5.676,4.947 C -4.621,-2.215 -2.731,0 0,0"
             style="fill:#8a6c11;fill-opacity:1;fill-rule:evenodd;stroke:none"
             id="path5208" />
        </g>
        <g
           id="g5210"
           transform="translate(533.9668,274.3867)">
          <path
             d="m 0,0 c 4.268,0 6.429,-3.459 4.829,-7.727 -1.6,-4.266 -6.356,-7.727 -10.624,-7.727 -4.268,0 -6.429,3.461 -4.829,7.727 C -9.023,-3.459 -4.268,0 0,0"
             style="fill:#c9a128;fill-opacity:1;fill-rule:evenodd;stroke:none"
             id="path5212" />
        </g>
        <g
           id="g5214"
           transform="translate(532.9248,271.6084)">
          <path
             d="m 0,0 c 2.732,0 4.115,-2.217 3.092,-4.948 -1.025,-2.733 -4.07,-4.948 -6.803,-4.948 -2.732,0 -4.117,2.215 -3.092,4.948 C -5.778,-2.217 -2.733,0 0,0"
             style="fill:#8a6c11;fill-opacity:1;fill-rule:evenodd;stroke:none"
             id="path5216" />
        </g>
        <g
           id="g5218"
           transform="translate(332.9707,410.0713)">
          <path
             d="m 0,0 c 5.254,0 9.538,4.284 9.538,9.537 0,5.252 -4.284,9.537 -9.538,9.537 -5.253,0 -9.536,-4.285 -9.536,-9.537 C -9.536,4.284 -5.253,0 0,0"
             style="fill:#c9a128;fill-opacity:1;fill-rule:evenodd;stroke:none"
             id="path5220" />
        </g>
        <g
           id="g5222"
           transform="translate(332.9707,413.502)">
          <path
             d="M 0,0 C 3.364,0 6.108,2.743 6.108,6.106 6.108,9.47 3.364,12.213 0,12.213 -3.363,12.213 -6.105,9.47 -6.105,6.106 -6.105,2.743 -3.363,0 0,0"
             style="fill:#8a6c11;fill-opacity:1;fill-rule:evenodd;stroke:none"
             id="path5224" />
        </g>
        <g
           id="g5226"
           transform="translate(402.1436,275.3525)">
          <path
             d="m 0,0 c 4.255,0 7.725,3.471 7.725,7.726 0,4.256 -3.47,7.726 -7.725,7.726 -4.257,0 -7.728,-3.47 -7.728,-7.726 C -7.728,3.471 -4.257,0 0,0"
             style="fill:#c9a128;fill-opacity:1;fill-rule:evenodd;stroke:none"
             id="path5228" />
        </g>
        <g
           id="g5230"
           transform="translate(402.1436,278.1309)">
          <path
             d="M 0,0 C 2.724,0 4.946,2.222 4.946,4.947 4.946,7.672 2.724,9.896 0,9.896 -2.727,9.896 -4.948,7.672 -4.948,4.947 -4.948,2.222 -2.727,0 0,0"
             style="fill:#8a6c11;fill-opacity:1;fill-rule:evenodd;stroke:none"
             id="path5232" />
        </g>
        <g
           id="g5234"
           transform="translate(176.1602,400.8979)">
          <path
             d="m 0,0 c 4.256,0 7.725,2.847 7.725,6.337 0,3.49 -3.469,6.337 -7.725,6.337 -4.256,0 -7.728,-2.847 -7.728,-6.337 C -7.728,2.847 -4.256,0 0,0"
             style="fill:#c9a128;fill-opacity:1;fill-rule:evenodd;stroke:none"
             id="path5236" />
        </g>
        <g
           id="g5238"
           transform="translate(176.1602,403.1782)">
          <path
             d="M 0,0 C 2.725,0 4.947,1.822 4.947,4.057 4.947,6.292 2.725,8.114 0,8.114 -2.726,8.114 -4.948,6.292 -4.948,4.057 -4.948,1.822 -2.726,0 0,0"
             style="fill:#8a6c11;fill-opacity:1;fill-rule:evenodd;stroke:none"
             id="path5240" />
        </g>
        <g
           id="g5242"
           transform="translate(240.2451,282.9551)">
          <path
             d="m 0,0 c 3.36,0 6.102,2.74 6.102,6.101 0,3.36 -2.742,6.1 -6.102,6.1 -3.36,0 -6.101,-2.74 -6.101,-6.1 C -6.101,2.74 -3.36,0 0,0"
             style="fill:#c9a128;fill-opacity:1;fill-rule:evenodd;stroke:none"
             id="path5244" />
        </g>
        <g
           id="g5246"
           transform="translate(240.2451,285.1494)">
          <path
             d="M 0,0 C 2.153,0 3.908,1.754 3.908,3.906 3.908,6.058 2.153,7.812 0,7.812 -2.15,7.812 -3.904,6.058 -3.904,3.906 -3.904,1.754 -2.15,0 0,0"
             style="fill:#8a6c11;fill-opacity:1;fill-rule:evenodd;stroke:none"
             id="path5248" />
        </g>
      </g>
    </g>
  </g>
</svg>
