<?xml version="1.0" encoding="UTF-8"?>
<!DOCTYPE svg PUBLIC "-//W3C//DTD SVG 1.1//EN" "http://www.w3.org/Graphics/SVG/1.1/DTD/svg11.dtd">
<svg version="1.1" id="Layer_1" xmlns="http://www.w3.org/2000/svg" xmlns:xlink="http://www.w3.org/1999/xlink" x="0px" y="0px" viewBox="-28 -40.6445 1378 2000.2889" enable-background="new -28 -40.6445 1378 2000.2889" xml:space="preserve">
<g>
	<path fill="#010101" d="M731.5612,1.5188l1.1196,0.0293c44.0256,3.0335,88.0821,5.6577,132.1057,8.7711   c6.5881,71.597,12.8054,143.2143,18.5015,214.878c1.2099,10.7153,1.2761,21.5608,3.1184,32.1927   c22.1572-2.6609,44.7311-3.6603,66.8568-0.15c12.9116,2.3988,26.4324,6.3641,35.8113,16.0829   c5.7553,5.9827,8.8519,14.1766,9.0461,22.4245c4.1935,49.9669,11.3858,99.6322,18.0479,149.3036   c0.2078,26.4445,0.2756,52.8853,0.0934,79.3296c40.6216,39.0568,76.4457,83.2997,104.7483,132.0873   c-2.1294-8.0785-2.1458-17.002,1.496-24.6593c3.1854-7.0391,8.8905-12.8917,15.9087-16.1691   c13.5475-6.2175,27.1711-12.293,40.7277-18.4803c13.8062-7.6912,32.7969-4.413,42.5182,8.2659   c3.3071,3.978,5.1497,8.8678,7.2885,13.5255c9.0386,20.0435,18.178,40.0496,27.1858,60.1122   c6.6523,15.2794-0.49,34.7591-15.4379,42.1203c-11.5756,5.4088-23.2748,10.5743-34.8879,15.8922   c-7.0708,2.9959-13.9948,7.2561-21.9265,7.2184c-8.6061,0.5049-17.0848-2.7081-23.6539-8.1819   c17.3716,42.5693,29.3851,87.2891,36.4086,132.7086c0.6586,4.6488,1.4271,9.3005,1.6639,14.0083   c2.3643-10.8318,9.6161-20.7354,20.0309-24.9842c6.4513-3.0222,13.7183-2.8119,20.6611-2.45   c18.3127,0.5196,36.6295,0.8792,54.9397,1.4987c15.8573,1.0755,29.3455,15.0734,30.1716,30.8904l-3.5361,135.0436   c-1.8005,15.6582-15.9387,28.7726-31.7609,29.0286c-20.6844-0.4817-41.3752-1.1034-62.0594-1.595   c-11.429-0.1893-22.2227-7.0643-27.8265-16.9243c-4.3004,36.2499-12.1112,72.0876-23.0963,106.902   c8.2424-5.7161,19.0881-8.083,28.78-4.9683c8.9391,2.825,17.8656,5.7496,26.7386,8.803   c15.3254,5.7231,24.4249,23.8175,19.8417,39.5428c-7.0455,21.8932-14.349,43.7095-21.4938,65.5698   c-1.5343,5.1117-3.3796,10.2551-6.7804,14.4475c-8.1431,10.7006-23.1254,15.5601-35.9622,11.4525   c-7.8859-2.5573-15.7511-5.134-23.6056-7.7405c-6.6077-2.0836-12.655-6.0834-16.8207-11.6543   c-6.0941-7.9423-8.3051-18.6338-5.9098-28.3545c-31.1714,62.6755-73.6466,119.6232-124.3561,167.8423   c2.2843,25.4585,4.428,50.9434,6.652,76.4103c0.6932,6.0002-0.165,12.0298-0.3223,18.0377   c-2.278,47.2667-4.1473,94.584-4.0362,141.913c-0.4863,9.0204-5.2589,17.4585-12.1115,23.2009   c-10.34,8.6523-23.5533,12.8079-36.5206,15.5894c-19.8226,4.0426-40.1796,4.8099-60.3448,3.9818   c-1.355,28.4442-2.4807,56.9146-4.056,85.363c-1.348,21.6821-1.9991,43.4926-5.8016,64.9304   c-4.9894,32.0004-9.929,64.0121-15.0779,95.9882c-44.4949-0.0146-88.9713,0.031-133.454-0.0635   c0.5613-4.627,1.1523-9.243,1.6531-13.8514c-6.9764,4.739-15.5075,6.1963-23.7983,5.739   c-78.0186,0.0677-156.037,0.1355-234.0456,0.2035c-6.1649,0.1086-12.338-1.3835-17.6479-4.5135   c0.0545,2.1221,0.1187,4.2545,0.2021,6.4175l-6.2178-0.1628c-42.2561-3.3773-84.5137-6.6946-126.7724-9.9719   c-6.0985-73.8649-11.275-147.7958-16.281-221.7422c-11.4338,1.1412-22.9208,2.0208-34.4187,1.7897   c-14.1012-0.1392-28.3622-1.0529-41.9727-5.0304c-8.5779-2.4855-17.0625-6.2389-23.5603-12.5211   c-5.3204-5.021-8.8616-11.896-9.822-19.1537c-3.5656-48.73-9.678-97.2366-15.8618-145.6851   c-1.8771-11.213-0.749-22.5873-0.8533-33.8839c-0.0336-19.7277,0.3435-39.4746,0.47-59.208   c-59.4171-52.8435-108.5158-117.3308-143.0011-189.0182c-40.1182-82.7285-60.3437-174.8495-59.3175-266.7541l0.4738-18.0938   c2.9522-70.717,18.2759-140.9499,45.6348-206.2561c30.1665-72.4352,74.9158-138.6765,130.4646-194.0613   c1.5242-26.4992,2.9487-53.011,4.6623-79.4852c8.9121-47.3329,18.1933-94.6262,25.0442-142.3232   c0.9084-5.6581,1.1021-11.5251,3.2538-16.9106c2.6132-6.964,7.6801-12.8934,13.9943-16.7894   c10.8578-6.6481,23.9393-8.0661,36.4082-8.2397c14.3285,0.2451,28.6404,2.2705,42.5108,5.8748   c-0.0246-39.1741,2.1412-78.3308,3.2465-117.4853c1.1745-16.9651,1.3109-34.0173,3.3438-50.9099   c5.1199-35.8383,10.1698-71.6784,15.4491-107.4924c44.4611-0.6064,88.9275-1.0325,133.3833-1.8191   c-0.3554,4.0221-0.6608,8.0455-1.2554,12.0313c5.7233-3.8715,12.4236-6.467,19.3977-6.5345   c80.65,0.6714,161.3072,1.0729,241.9559,1.7943c4.9278,0.149,9.7111,1.6148,14.1477,3.7116   C731.8398,7.3081,731.6855,4.413,731.5612,1.5188 M739.4066,9.4369c2.2334,46.1243,4.5959,92.2819,3.6465,138.4729   c0.5663,36.0572,3.2853,72.0407,6.1053,107.9868c12.6788,0.212,25.3466-0.3066,38.02-0.2648   c18.815-0.3276,37.6343-0.0549,56.4261-1.0233c11.4919-0.6894,23.0245-1.0177,34.5447-1.6363   c-2.9072-34.9081-5.7344-69.814-8.6617-104.7226c-3.4676-43.6857-7.7374-87.3025-11.4959-130.9558   C818.4707,14.5183,778.9291,12.1524,739.4066,9.4369 M330.8345,8.3713c-5.0124,34.7907-10.0248,69.5814-14.9378,104.3947   c-2.3555,26.5374-2.6538,53.2088-4.0901,79.7903c-0.5724,22.6228-1.5047,45.2361-1.9571,67.862   c21.4956-0.3174,42.9901-0.2047,64.4794-1.0425c22.1075-1.1417,44.2281-2.0229,66.3419-3.0244   c-0.2492-8.4394-0.4081-16.8865-0.687-25.3367c-0.5615-37.3875-2.0224-74.8086-0.2534-112.1851   c2.4099-37.3997,6.0277-74.7078,9.815-111.9915C409.9793,7.3128,370.4113,7.8672,330.8345,8.3713 M599.7646,13.0327   c-35.3054-0.2543-70.6517-0.4796-105.9642-0.8441c-7.4778,0.5845-15.0441-0.8041-22.4709,0.502   c-6.442,1.5219-13.0519,5.2501-16.0721,11.3332c-1.2226,13.0725-2.5746,26.1216-3.6676,39.2074   c-1.7455,13.9391-1.0542,28.032-1.4811,42.0456c0.4471,9.665-0.3566,19.3473,0.0403,29.021   c0.9029,12.5079,12.0741,23.304,24.6617,23.5636c80.079,0.7065,160.1452,1.1325,240.2266,1.749   c7.7062,0.2418,15.4-3.238,20.3757-9.1198c1.021-27.9128,0.1543-55.9351-0.8851-83.8619   c-0.7662-15.8155-0.9006-31.6944-2.2985-47.4564c-4.5384-3.1799-9.8942-5.3208-15.4959-5.3275   C677.7374,13.564,638.7614,13.2836,599.7646,13.0327 M446.4836,147.8265c-0.3698,37.043,0.7607,74.0953,1.7217,111.1232   c97.6537-0.774,195.309-1.9881,292.9643-2.8221c0.1349-0.1865,0.3848-0.5601,0.5197-0.7467   c-2.5051-31.5464-4.9896-63.1122-5.6616-94.7507c-3.4252,1.6809-6.6235,3.8679-10.3316,4.8912   c-4.7773,1.7455-9.9124,1.491-14.8939,1.4806c-78.6934-0.5201-157.3743-1.13-236.0572-1.6698   C463.0596,165.0063,452.0786,158.0264,446.4836,147.8265 M888.6489,264.581c5.4769,57.8732,11.3245,115.7261,17.0217,173.5951   c34.548,28.4141,68.8586,57.1121,103.293,85.6633c0.1065-16.2928-0.1471-32.5851,0.0197-48.8863   c-0.7074-12.3327,0.9096-24.8047-1.2512-37.0255c-6.6429-48.1104-13.225-96.2491-17.3394-144.6534   c-0.5502-7.2569-4.7291-13.8485-10.5193-18.1216c-8.4294-6.2428-18.8393-9.0562-29.0497-10.7041   C930.2466,261.0087,909.2733,262.3902,888.6489,264.581 M825.2974,262.662c-171.7058,1.7959-343.4259,3.3713-515.1333,5.2272   c0.1066,6.2449-0.8854,12.4211-0.8089,18.6652c-1.2382,47.2838-3.2658,94.5369-4.364,141.8244   c32.1434-26.0675,69.0536-45.8381,107.576-60.7048c42.4695-16.2338,87.3411-26.0226,132.6484-29.5278   c38.9233-3.0522,78.0833-1.3965,116.8279,3.1393c43.8353,5.3393,87.22,15.2784,128.5332,30.9752   c36.2532,13.7237,70.9993,31.8995,101.7594,55.6028c-4.4367-55.1951-8.7632-110.3972-12.8892-165.6142   C861.4022,262.187,843.3451,262.6044,825.2974,262.662 M222.4809,289.4013c-5.7047,5.4525-7.8545,13.439-8.3746,21.078   c-6.5825,46.2336-15.3364,92.1101-24.0995,137.9564c-2.2631,8.4937-1.8245,17.3382-2.5923,26.0311   c-0.8543,17.3436-2.1779,34.6548-2.8623,52.0029c37.4594-30.4299,74.948-60.8289,112.485-91.1667   c0.9426-50.5127,1.5461-101.0642,2.218-151.5539c-15.247-3.7504-31.0079-5.8337-46.725-5.0049   C241.8573,279.4751,230.5692,281.9305,222.4809,289.4013 M542.162,345.8789c-64.0732,5.3946-127.2845,23.7162-183.4388,55.237   c-17.2754,9.9112-34.271,20.5999-49.3775,33.639c33.9113-18.7087,69.5325-34.3316,106.3964-46.2207   c73.8831-23.9842,152.4732-33.2701,229.9107-27.5811c80.0688,5.6779,158.9504,27.6603,230.4065,64.2733   c-34.6199-24.5246-73.7426-42.1248-114.0389-55.014c-45.0134-14.2132-91.8824-22.1228-138.9539-24.9759   C596.1131,343.8705,569.0571,343.3621,542.162,345.8789 M546.4902,369.3102c-87.7371,7.906-173.5493,35.8993-249.1775,81.0651   c-14.6906,8.9985-29.588,17.8716-42.8235,28.989c-17.0278,13.829-34.0849,27.6272-51.1225,41.446   c-11.1371,8.5314-20.9732,18.5673-30.7099,28.6259c-29.9458,31.1567-56.5156,65.563-79.0093,102.4669   c-43.4134,70.9979-71.4256,151.3221-81.6608,233.9025c-13.6205,107.9505,2.9612,219.6527,48.2652,318.6526   c31.4844,69.3881,76.628,132.4913,131.8639,184.9453c5.8905,5.406,11.5017,11.1648,18.0629,15.7881   c26.8503,19.4396,53.6794,38.9286,80.5297,58.368c5.4715,3.8346,10.6511,8.1217,16.5176,11.3864   c46.1159,26.3562,95.8187,46.3842,147.2933,59.4861c93.4607,23.7346,192.6738,24.532,286.4556,2.0093   c78.8397-18.8228,153.6319-54.217,218.3705-102.9791c62.5429-47.049,115.7479-106.5166,155.3488-174.0331   c44.8665-76.0615,72.1453-162.3771,79.3014-250.3799c1.2457-11.6614,0.9531-23.4131,1.949-35.081   c-0.4479-10.0151,0.4049-20.0463-0.1228-30.0735c-1.828-72.3026-17.0997-144.257-44.911-211.038   c-30.7509-74.1003-76.8976-141.6815-134.3216-197.6738c-0.0998,1.5179-0.1795,3.0363-0.2593,4.5547   c-29.6022-24.7534-59.3695-49.311-89.0235-73.9957c-4.3419-3.4248-8.3317-7.3006-12.964-10.3329   c-36.0775-22.3421-74.5787-40.7562-114.6032-54.8588C718.9095,371.9746,631.8353,361.4416,546.4902,369.3102 M1190.6487,600.8917   c-2.2617,0.4209-4.4146,1.2649-6.5002,2.2206c-15.0066,6.9295-30.251,13.3927-45.0864,20.6669   c-9.496,5.8334-14.4819,18.2171-11.1514,28.938c1.798,5.4489,4.5865,10.5037,6.8394,15.7745   c7.9691,17.7147,16.0292,35.3917,24.0183,53.0969c4.1177,9.311,14.0719,15.7737,24.3065,15.3515   c6.4918,0.02,12.2046-3.4517,18.0015-5.9308c12.0083-5.5076,24.092-10.8431,36.0812-16.3812   c11.4618-5.6519,16.9983-20.342,12.2865-32.1794c-9.5634-21.3876-19.3296-42.6706-28.9337-64.0293   c-1.7045-4.056-3.8612-8.0339-7.1742-11.0116C1207.3694,601.8497,1198.6863,599.1815,1190.6487,600.8917 M1226.8597,863.0094   c-8.4127,1.5203-15.8704,7.4471-19.1978,15.3227c-1.9943,4.3393-2.2106,9.1653-2.1837,13.8676   c-1.1202,41.6349-2.1008,83.2836-3.271,124.9172c-0.1813,11.8893,9.0299,23.0443,20.6963,25.2404   c10.3381,0.9709,20.7227,0.5526,31.0895,1.1942c8.3541-0.0513,16.6691,0.6366,25.0356,0.4955   c6.6473,0.5642,13.781,0.9011,19.8866-2.2902c8.4821-4.1693,14.2498-13.1715,14.4574-22.6293   c1.1361-43.005,2.3325-86.0184,3.3488-129.0266c0.2522-13.458-11.4797-25.7593-24.9703-25.9125   c-13.6755-0.3481-27.3407-0.7159-41.0162-1.0641C1242.7809,863.1762,1234.7759,862.1163,1226.8597,863.0094 M1191.884,1141.6394   c-9.6765,1.267-18.217,8.4359-21.1119,17.7533c-7.5665,23.0699-15.2025,46.1179-22.7191,69.1991   c-3.7151,12.3669,3.614,26.6338,15.7037,31.0016c8.3888,2.8306,16.8202,5.5623,25.2411,8.3136   c9.2361,2.9429,19.9755,0.053,26.4958-7.1388c5.2694-5.2539,6.5391-12.8633,8.9857-19.5815   c6.3816-19.4596,12.8029-38.9082,19.1545-58.3685c3.2933-9.6371-0.1117-20.9501-7.8641-27.4553   c-5.4824-4.9452-13.0364-6.0332-19.7026-8.5587C1208.1307,1144.6556,1200.3639,1140.2308,1191.884,1141.6394 M913.7652,1492.8495   c-0.5899,58.0543-0.8397,116.1077-1.5098,174.17c20.0708,0.6156,40.3626-0.3335,59.9965-4.8112   c11.1384-2.8492,22.6719-6.6488,31.0991-14.8409c5.1492-4.8668,8.1451-11.9309,7.8608-19.0308   c-0.455-50.9994,2.4594-101.9406,4.4933-152.8748c-1.8544-22.7764-3.8389-45.5461-5.9041-68.298   C977.8314,1435.767,945.832,1464.359,913.7652,1492.8495 M209.6306,1414.2803c-0.2037,20.0016-0.2574,40.007-0.5112,60.0172   c0.1529,8.677-0.7964,17.4252,0.8092,26.0201c5.6066,43.7518,11.0723,87.5399,14.8027,131.5026   c0.9399,8.0374-0.0486,16.7545,4.2735,23.9901c4.7694,8.1075,13.5827,12.6798,22.209,15.6067   c12.8774,4.0885,26.4476,5.4042,39.8948,5.6863c12.1616,0.0984,24.3686-0.3922,36.4266-2.0671   c-3.6156-60.9556-6.9106-121.9326-10.2355-182.9106c-21.9484-16.01-43.9802-31.8922-65.9597-47.863   C237.3954,1434.324,223.7527,1423.9333,209.6306,1414.2803 M861.7012,1501.4895   c-80.9349,38.8546-170.7135,59.0215-260.4667,58.7318c-91.2915,0.0103-182.5855-20.8966-264.5182-61.2151   c6.7517,4.9883,13.919,9.3875,21.1184,13.7074c36.5094,21.5131,76.3889,36.9523,117.3445,47.588   c48.489,12.5135,98.6059,18.2574,148.6449,18.5675c87.3083,0.4456,175.5816-22.2115,249.2323-69.7899   c14.5169-9.6233,28.9077-19.7799,40.9629-32.4287c0.0571,2.0222,0.0345,4.0322,0.0405,6.093   c13.2413-12.0974,26.755-23.9077,40.0739-35.9132C924.8244,1467.4302,894.0948,1486.1122,861.7012,1501.4895 M849.0486,1531.9788   c-37.1151,19.9553-77.1462,34.3723-118.3131,43.2677c-47.2249,10.2673-95.9246,13.0535-144.0965,9.8214   c-48.9784-2.9932-97.7545-11.423-144.4524-26.6305c-41.5261-13.6818-81.8217-32.3329-117.0397-58.4639   c2.9562,53.6659,5.9326,107.3221,8.9588,160.9897c31.7563-0.5889,63.5482-0.6267,95.3006-1.0657   c157.2285-1.7048,314.4623-3.2294,471.6929-5.0143c1.1204-42.7853,2.6803-85.5491,4.0206-128.3287   c0.0902-10.7012,1.3099-21.373,0.6398-32.0742C888.265,1508.9474,868.9885,1521.167,849.0486,1531.9788 M814.5024,1663.1794   c-14.2337,0.3374-28.4998,0.384-42.7415,0.6414c0.2834,33.1088,0.8773,66.2056,0.4001,99.3245   c0.0236,25.0792-2.052,50.0934-4.5255,75.0272c-2.3561,25.037-5.1412,50.0226-8.0759,74.9943   c28.1634-0.1428,56.364,0.2056,84.5215-0.0975c11.3813,0.098,22.8145,0.1273,34.2303,0.0562   c5.3682-33.8611,10.6467-67.7345,15.9053-101.6085c1.52-10.2937,1.7525-20.7012,2.6435-31.0414   c2.3312-39.3625,4.2531-78.7556,5.655-118.1625C873.1844,1662.7253,843.8372,1662.9972,814.5024,1663.1794 M471.1176,1666.8918   c2.1098,30.2156,3.5682,60.4741,4.2955,90.7635c5.5655-3.5756,12.0961-5.8053,18.7528-5.5909   c79.713-0.2135,159.4185-0.1471,239.1296-0.2905c13.1536-0.3457,26.3921,7.9036,31.0684,20.3303   c0.7853-12.0337,0.3218-24.1299,0.5672-36.1776c-0.2106-24.0437-0.2006-48.1117-0.6715-72.1523   C666.5375,1664.8667,568.8289,1665.8292,471.1176,1666.8918 M421.397,1667.4104c-28.8958,0.2239-57.7762,0.6279-86.6641,0.9319   c5.2613,76.4238,10.3718,152.8738,16.8058,229.2084c39.4278,2.8931,78.8356,6.1659,118.26,9.189   c-1.4519-40.822-2.9935-81.6565-2.2438-122.5109c0.657-11.3365,0.2636-22.6709,0.2003-34.0063   c-0.6715-27.8372-2.2141-55.6471-4.0976-83.4259C449.5888,1667.3285,435.4773,1667.199,421.397,1667.4104 M699.106,1759.3317   c-68.0394-0.1512-136.0795,0.1078-204.1226,0.0967c-7.2464-0.2299-14.6756,2.6967-19.559,8.1107   c-1.6138,43.6727,0.0321,87.4008,1.5196,131.0647c4.7021,4.1846,10.92,6.6381,17.2325,6.6234   c79.6906-0.1239,159.379-0.168,239.078-0.2317c7.9496,0.118,16.6462-3.4554,20.8875-10.3268   c2.1415-17.2198,3.8242-34.4918,5.5866-51.7516c0.278-16.3483-0.094-32.7036,0.0441-49.0557   c-0.1073-5.8347,0.5612-11.8794-1.5236-17.4559c-3.4793-10.0044-13.5917-17.3016-24.2196-17.1398   C722.386,1759.251,710.7269,1759.0657,699.106,1759.3317z"/>
	<path fill="#FFFFFF" d="M739.4066,9.4369c39.5225,2.7155,79.0641,5.0814,118.585,7.8569   c3.7585,43.6533,8.0283,87.2701,11.4959,130.9558c2.9272,34.9086,5.7545,69.8146,8.6617,104.7226   c-11.5201,0.6186-23.0527,0.9469-34.5447,1.6363c-18.7918,0.9684-37.6111,0.6957-56.4261,1.0233   c-12.6733-0.0418-25.3412,0.4768-38.02,0.2648c-2.8201-35.9461-5.5391-71.9296-6.1053-107.9868   C744.0026,101.7188,741.64,55.5611,739.4066,9.4369z"/>
	<path fill="#FFFFFF" d="M330.8345,8.3713c39.5768-0.5042,79.1448-1.0586,118.7108-1.533   c-3.7873,37.2836-7.4051,74.5917-9.815,111.9915c-1.769,37.3765-0.308,74.7976,0.2534,112.1851   c0.2789,8.4502,0.4378,16.8972,0.687,25.3367c-22.1138,1.0015-44.2344,1.8827-66.3419,3.0244   c-21.4893,0.8377-42.9837,0.7251-64.4794,1.0425c0.4524-22.6259,1.3847-45.2393,1.9571-67.862   c1.4363-26.5815,1.7346-53.2529,4.0901-79.7903C320.8097,77.9528,325.8221,43.1621,330.8345,8.3713z"/>
	<path fill="#FFFFFF" d="M599.7646,13.0327c38.9968,0.2509,77.9728,0.5313,116.9688,0.8122   c5.6017,0.0066,10.9575,2.1476,15.4959,5.3275c1.3978,15.762,1.5322,31.641,2.2985,47.4564   c1.0394,27.9268,1.9061,55.9491,0.8851,83.8619c-4.9756,5.8818-12.6694,9.3616-20.3757,9.1198   c-80.0814-0.6165-160.1476-1.0425-240.2266-1.749c-12.5876-0.2596-23.7588-11.0557-24.6617-23.5636   c-0.3969-9.6737,0.4068-19.356-0.0403-29.021c0.427-14.0136-0.2643-28.1066,1.4811-42.0456   c1.0929-13.0859,2.4449-26.1349,3.6676-39.2074c3.0203-6.083,9.6301-9.8113,16.0721-11.3332   c7.4268-1.306,14.993,0.0825,22.4709-0.502C529.113,12.5531,564.4592,12.7784,599.7646,13.0327z"/>
	<path fill="#FFFFFF" d="M446.4836,147.8265c5.5949,10.2,16.576,17.1798,28.2614,17.5058   c78.6829,0.5399,157.3638,1.1497,236.0572,1.6698c4.9814,0.0104,10.1165,0.2649,14.8939-1.4806   c3.7081-1.0233,6.9064-3.2103,10.3316-4.8912c0.6721,31.6384,3.1566,63.2043,5.6616,94.7507   c-0.1349,0.1865-0.3848,0.5601-0.5197,0.7467c-97.6553,0.834-195.3105,2.0481-292.9643,2.8221   C447.2443,221.9218,446.1138,184.8695,446.4836,147.8265z"/>
	<path fill="#FFFFFF" d="M888.6489,264.581c20.6245-2.1908,41.5978-3.5723,62.1748-0.1325   c10.2104,1.6479,20.6202,4.4613,29.0497,10.7041c5.7902,4.273,9.9691,10.8647,10.5193,18.1216   c4.1143,48.4043,10.6965,96.5431,17.3394,144.6534c2.1608,12.2208,0.5438,24.6927,1.2512,37.0255   c-0.1668,16.3012,0.0868,32.5934-0.0197,48.8863c-34.4344-28.5512-68.745-57.2492-103.293-85.6633   C899.9734,380.3071,894.1258,322.4542,888.6489,264.581z"/>
	<path fill="#FFFFFF" d="M825.2974,262.662c18.0477-0.0576,36.1049-0.4751,54.1494-0.4127   c4.126,55.2169,8.4525,110.4191,12.8892,165.6142c-30.7601-23.7033-65.5062-41.8791-101.7594-55.6028   c-41.3132-15.6968-84.6979-25.6359-128.5332-30.9752c-38.7446-4.5358-77.9046-6.1914-116.8279-3.1393   c-45.3073,3.5052-90.1789,13.2939-132.6484,29.5278c-38.5224,14.8667-75.4326,34.6373-107.576,60.7048   c1.0982-47.2875,3.1259-94.5406,4.364-141.8244c-0.0765-6.2441,0.9155-12.4203,0.8089-18.6652   C481.8715,266.0333,653.5916,264.4579,825.2974,262.662z"/>
	<path fill="#FFFFFF" d="M222.4809,289.4013c8.0883-7.4708,19.3765-9.9262,30.0493-10.657   c15.7171-0.8289,31.478,1.2544,46.725,5.0049c-0.6719,50.4897-1.2754,101.0412-2.218,151.5539   c-37.537,30.3378-75.0256,60.7368-112.485,91.1667c0.6843-17.3481,2.0079-34.6593,2.8623-52.0029   c0.7678-8.6929,0.3292-17.5374,2.5923-26.0311c8.7631-45.8463,17.517-91.7229,24.0995-137.9564   C214.6264,302.8403,216.7762,294.8538,222.4809,289.4013z"/>
	<path fill="#FFFFFF" d="M542.162,345.8789c26.8951-2.5168,53.951-2.0085,80.9045-0.6424   c47.0715,2.8531,93.9405,10.7627,138.9539,24.9759c40.2964,12.8893,79.4191,30.4894,114.0389,55.014   c-71.4561-36.613-150.3376-58.5954-230.4065-64.2733c-77.4376-5.689-156.0276,3.5969-229.9107,27.5811   c-36.8639,11.8891-72.485,27.512-106.3964,46.2207c15.1065-13.0391,32.1021-23.7278,49.3775-33.639   C414.8776,369.5951,478.0888,351.2735,542.162,345.8789z"/>
	<path fill="#FFFFFF" d="M546.4902,369.3102c85.3452-7.8686,172.4193,2.6643,253.249,31.24   c40.0245,14.1026,78.5257,32.5167,114.6032,54.8588c4.6323,3.0323,8.6221,6.9081,12.964,10.3329   c29.654,24.6847,59.4213,49.2423,89.0235,73.9957c0.0798-1.5184,0.1595-3.0369,0.2593-4.5547   c57.424,55.9923,103.5707,123.5735,134.3216,197.6738c27.8113,66.7809,43.083,138.7354,44.911,211.038   c0.5277,10.0272-0.3251,20.0584,0.1228,30.0735c-0.9958,11.6679-0.7032,23.4196-1.949,35.081   c-7.1561,88.0028-34.4349,174.3184-79.3014,250.3799c-39.601,67.5165-92.8059,126.9841-155.3488,174.0331   c-64.7386,48.7621-139.5308,84.1564-218.3705,102.9791c-93.7817,22.5227-192.9949,21.7253-286.4556-2.0093   c-51.4747-13.1019-101.1774-33.1299-147.2933-59.4861c-5.8665-3.2646-11.0461-7.5518-16.5176-11.3864   c-26.8503-19.4395-53.6794-38.9285-80.5297-58.368c-6.5612-4.6233-12.1724-10.3821-18.0629-15.7881   c-55.2358-52.454-100.3795-115.5573-131.8639-184.9453c-45.304-98.9999-61.8857-210.7021-48.2652-318.6526   c10.2352-82.5804,38.2475-162.9047,81.6608-233.9025c22.4937-36.9038,49.0635-71.3101,79.0093-102.4669   c9.7366-10.0586,19.5727-20.0945,30.7099-28.6259c17.0376-13.8188,34.0946-27.617,51.1225-41.446   c13.2355-11.1173,28.1329-19.9904,42.8235-28.989C372.9409,405.2096,458.7531,377.2162,546.4902,369.3102 M585.829,418.767   c-87.536,2.1393-174.492,25.6811-251.0235,68.2823c-69.6338,38.5804-130.6782,92.5809-177.4116,157.0397   c-49.974,68.6453-83.4154,149.2476-96.4863,233.1542c-10.8208,68.6503-8.4513,139.3766,7.191,207.1092   c10.4857,45.3801,26.9091,89.395,48.6788,130.569c35.9411,68.0442,86.5017,128.2784,147.2155,175.5338   c65.1993,50.9242,142.1284,86.7303,223.1239,103.6262c93.2086,19.6067,191.5495,14.7493,282.1814-14.6984   c74.2604-23.8741,143.1277-64.1252,200.6751-116.757c57.5162-52.5824,103.7136-117.5853,133.9949-189.4373   c36.8628-86.7249,50.0231-183.2134,38.6365-276.7035c-10.1527-84.8348-41.0718-167.0323-89.048-237.7125   c-52.9774-78.3436-126.6413-142.5739-211.5809-184.1917C762.8123,435.4756,674.0389,416.4852,585.829,418.767z"/>
	<path fill="#010101" d="M585.829,418.767c88.21-2.2817,176.9833,16.7086,256.1467,55.8143   c84.9396,41.6177,158.6036,105.848,211.5809,184.1917c47.9762,70.6801,78.8953,152.8776,89.048,237.7125   c11.3866,93.4901-1.7737,189.9786-38.6365,276.7035c-30.2813,71.8519-76.4786,136.8549-133.9949,189.4373   c-57.5474,52.6317-126.4147,92.8828-200.6751,116.757c-90.6319,29.4476-188.9728,34.3051-282.1814,14.6984   c-80.9955-16.8959-157.9246-52.702-223.1239-103.6262c-60.7138-47.2554-111.2744-107.4896-147.2155-175.5338   c-21.7697-41.174-38.1931-85.1888-48.6788-130.569c-15.6423-67.7326-18.0117-138.4589-7.191-207.1092   c13.0709-83.9066,46.5123-164.5089,96.4863-233.1542c46.7334-64.4588,107.7778-118.4593,177.4116-157.0397   C411.3369,444.4481,498.293,420.9063,585.829,418.767 M589.0967,426.155c-68.8483,1.3282-137.434,15.9279-200.7549,43.0196   c-72.21,30.7603-137.5376,77.5663-189.9061,136.0355c-54.402,60.4866-94.818,133.5337-116.7768,211.8958   c-25.5376,90.4925-26.623,187.7174-3.0577,278.7455c11.3415,44.022,28.4543,86.5444,50.5826,126.2474   c36.4424,65.3263,86.703,122.8816,146.4761,167.8617c70.9611,53.606,155.418,89.209,243.3856,102.2963   c23.4292,3.7744,47.1383,5.2656,70.8213,6.226c5.6432-0.4325,11.2932,0.0256,16.9486-0.1064   c46.7293-0.5068,93.4059-7.0272,138.4293-19.5531c80.731-22.2842,156.0258-63.8876,217.9816-120.215   c57.9934-52.47,104.3487-117.7689,134.5579-189.9327c34.8623-82.9059,48.0005-174.7335,38.2368-264.1096   c-9.1724-86.7499-40.3883-170.9759-89.6003-242.9788c-52.2772-76.8148-124.7655-139.7138-208.2453-180.5431   C761.1415,443.1245,674.8947,424.3003,589.0967,426.155z"/>
	<path fill="#FFFFFF" d="M589.0967,426.155c85.798-1.8547,172.0448,16.9694,249.0786,54.8889   c83.4798,40.8293,155.9681,103.7283,208.2453,180.5431c49.212,72.0029,80.428,156.2289,89.6003,242.9788   c9.7637,89.3762-3.3745,181.2037-38.2368,264.1096c-30.2092,72.1638-76.5645,137.4628-134.5579,189.9327   c-61.9557,56.3274-137.2505,97.9308-217.9816,120.215c-45.0233,12.5259-91.7,19.0463-138.4293,19.5531   c-5.6555,0.1321-11.3054-0.326-16.9486,0.1064c-23.683-0.9603-47.3921-2.4515-70.8213-6.226   c-87.9676-13.0873-172.4245-48.6903-243.3856-102.2963c-59.773-44.9801-110.0336-102.5354-146.4761-167.8617   c-22.1283-39.703-39.241-82.2255-50.5826-126.2474c-23.5652-91.0281-22.4798-188.253,3.0577-278.7455   c21.9588-78.3621,62.3748-151.4091,116.7768-211.8958c52.3685-58.4692,117.6961-105.2752,189.9061-136.0355   C451.6627,442.0829,520.2484,427.4832,589.0967,426.155 M581.879,485.5664c-23.0709,0.8764-46.0923,3.3046-68.7991,7.4716   c-81.7348,14.7755-159.2974,51.6778-222.4604,105.5929c-61.6703,52.3035-109.7148,120.6093-137.711,196.5024   c-29.3883,79.0078-36.8468,165.9523-21.8925,248.8823c14.7549,82.9045,52.5107,161.4899,107.6338,225.1246   c53.7045,62.4171,123.9296,110.512,201.6105,137.8547c93.2076,33.0212,196.7642,36.0331,291.7283,8.4695   c76.2607-21.9512,146.7335-63.5408,202.9487-119.5383c55.4858-54.8865,97.1119-123.7203,119.6757-198.4453   c13.365-43.9452,20.1998-89.882,20.2517-135.7964c0.8263-87.7084-23.9271-175.3864-70.0303-249.9788   C953.256,627.6867,874.8994,560.4424,783.9246,522.378C720.3258,495.524,650.8243,483.2104,581.879,485.5664z"/>
	<path fill="#010101" d="M581.879,485.5664c68.9453-2.356,138.4468,9.9576,202.0456,36.8116   c90.9748,38.0645,169.3314,105.3087,220.9097,189.3276c46.1032,74.5924,70.8566,162.2704,70.0303,249.9788   c-0.0519,45.9144-6.8867,91.8512-20.2517,135.7964c-22.5637,74.725-64.1899,143.5588-119.6757,198.4453   c-56.2151,55.9976-126.6879,97.5872-202.9487,119.5383c-94.9641,27.5636-198.5207,24.5518-291.7283-8.4695   c-77.6808-27.3428-147.9059-75.4376-201.6105-137.8547c-55.1231-63.6348-92.8789-142.2201-107.6338-225.1246   c-14.9543-82.9299-7.4958-169.8745,21.8925-248.8823c27.9962-75.8931,76.0407-144.1989,137.711-196.5024   c63.163-53.915,140.7256-90.8174,222.4604-105.5929C535.7867,488.871,558.8082,486.4428,581.879,485.5664 M599.5577,492.7217   c-68.8901-0.1334-137.8116,15.0677-200.1144,44.5369c-70.2993,33.0511-132.0823,83.9312-178.057,146.5392   c-49.0357,66.4292-79.8534,146.1597-87.9873,228.335c-6.8249,65.8038,0.5771,133.0607,21.6627,195.774   c13.5948,40.4897,32.821,79.0864,56.9265,114.3395c43.6206,63.9636,103.3154,116.8945,172.1612,152.3387   c83.7685,43.5579,180.961,60.3977,274.5473,48.3934c84.1416-10.421,165.1042-44.6034,231.4867-97.3137   c61.5524-48.5654,110.6025-112.8734,140.9758-185.1831c18.7701-44.4539,30.4258-91.8851,34.5951-139.9424   c7.7183-86.5476-9.3274-175.1842-49.0673-252.491c-40.8921-80.298-105.5969-148.195-183.7396-193.0459   C762.4005,514.2318,681.0067,492.6837,599.5577,492.7217z"/>
	<path fill="#FFFFFF" d="M599.5577,492.7217c81.449-0.0379,162.8428,21.5101,233.3897,62.2808   c78.1427,44.8509,142.8475,112.7479,183.7396,193.0459c39.7399,77.3068,56.7856,165.9434,49.0673,252.491   c-4.1693,48.0573-15.825,95.4885-34.5951,139.9424c-30.3733,72.3097-79.4235,136.6177-140.9758,185.1831   c-66.3825,52.7103-147.3451,86.8927-231.4867,97.3137c-93.5863,12.0043-190.7788-4.8356-274.5473-48.3934   c-68.8458-35.4442-128.5406-88.3751-172.1612-152.3387c-24.1054-35.2531-43.3317-73.8497-56.9265-114.3395   c-21.0856-62.7134-28.4875-129.9702-21.6627-195.774c8.1339-82.1753,38.9516-161.9058,87.9873-228.335   c45.9747-62.608,107.7577-113.4881,178.057-146.5392C461.7461,507.7893,530.6677,492.5883,599.5577,492.7217 M593.2515,573.8644   c0.9752,2.4863,2.0513,4.9453,3.0359,7.452c5.1018-3.0575,10.5782-6.2853,16.7695-5.873   c5.9587-0.2542,12.2427,3.1115,14.0176,9.0601c2.5178,8.1387-1.1148,16.5965-6.2017,22.9055   c-9.1117,11.4054-20.595,20.5479-31.1303,30.5456c-0.0463,2.1495-0.0931,4.319-0.1196,6.4791   c16.3851,0.399,32.7792,0.8384,49.1634,1.2774c0.0967-2.9285,0.1736-5.8674,0.2201-8.7873   c-11.4858-0.3107-22.9632-0.5612-34.4474-0.932c9.064-8.0555,18.3563-16.045,25.7911-25.6837   c5.6921-7.2634,9.3994-16.6596,7.6427-25.9788c-1.1745-7.4833-6.8049-14.0329-14.0804-16.2142   C613.5431,564.9025,601.8259,567.3166,593.2515,573.8644 M537.4899,575.1051c0.7435,2.5504,1.2755,5.1552,1.8175,7.7603   c4.8199-1.8445,9.2525-4.5594,13.9214-6.7479c-0.4579,22.4557-1.2356,44.893-1.6633,67.3395   c3.3404,0.0275,6.679,0.1249,10.0276,0.2226c0.6727-25.6912,1.3253-51.3729,2.028-77.0634   c-3.0803-0.0306-6.1626-0.3615-9.2302-0.1116C548.7067,569.2668,542.9837,571.9779,537.4899,575.1051 M790.9972,572.8005   c-8.1755,24.9344-16.4305,49.8469-24.6457,74.7704c-4.1493,13.2859-9.1526,26.3395-12.7657,39.7795   c1.1696-2.2603,2.5067-4.4259,3.9125-6.5399c19.3812-30.353,38.5754-60.821,58.0155-91.1326   C807.3484,584.0423,799.1829,578.4166,790.9972,572.8005 M366.4256,594.0437c25.4707,32.778,51.0945,65.4399,76.3816,98.3531   c-0.1532-0.6442-0.4696-1.9329-0.6227-2.5771c-15.043-38.6671-30.2675-77.2788-45.2294-115.9838   C386.5165,580.1349,376.5567,587.2566,366.4256,594.0437 M819.6315,735.7458c-65.5852,62.7547-131.1999,125.4886-196.8145,188.2225   c-13.911-6.2562-31.0446-4.4341-43.0861,5.0139c-17.9445-11.1436-35.5125-22.9075-53.3104-34.2973   c-57.3579-37.1241-114.7573-74.1894-172.0839-111.3628c-1.1065-0.5291-2.3565-2.0723-3.632-1.1154   c-2.1341,3.1852-4.0814,6.4954-6.2552,9.6696c-0.9077,1.4267-2.1739,2.7941-2.1816,4.6145   c30.5651,19.3067,60.7435,39.2435,91.1727,58.7767c44.904,29.0854,89.8399,58.1016,134.7336,87.1968   c-7.3241,13.813-6.3287,31.5751,2.8619,44.2801c-68.1185,73.542-136.364,146.9707-204.5411,220.4612   c-6.1254-4.8419-12.0129-9.9778-18.2527-14.6527c-4.9197,15.5865-9.9188,31.151-14.8485,46.7373   c-0.8236,2.4192-1.196,5.1804-3.1548,7.0198c-6.8317,7.2338-13.4973,14.6217-20.3488,21.8448   c1.3426,1.0656,3.1413,4.1936,4.9288,2.0198c7.7394-8.2803,15.4298-16.6018,23.1103-24.9237   c1.6597-1.8772,4.1201-2.6229,6.3173-3.6357c13.7771-6.2015,27.4879-12.5448,41.2744-18.7261   c-4.8257-4.4279-10.0955-8.3271-15.138-12.5005c67.862-73.2987,135.8995-146.4229,203.8007-219.6904   c7.5682,8.1909,18.3762,13.3755,29.5831,13.639c13.1268,0.6739,26.3704-5.4016,34.4642-15.7532   c7.1737-8.8352,10.3858-20.7152,8.7696-31.9614c-0.996-8.1888-4.7462-15.8697-10.0236-22.15   c98.5568-94.0923,196.9678-188.3485,295.4763-282.5021c-4.0538-4.1075-7.8102-8.4973-12.0188-12.4288   C886.6776,671.4489,853.2227,703.6741,819.6315,735.7458 M960.8451,731.731c-30.5119,22.2089-60.9079,44.5809-91.5161,66.6472   c4.6144-0.8695,8.8518-3.0093,13.3014-4.4633c31.2472-11.3259,62.392-22.9446,93.685-34.1093   c-3.6403-9.9687-9.4137-19.0829-13.4678-28.9124C962.3521,731.1002,961.3506,731.5241,960.8451,731.731 M216.1737,764.439   c28.7251,10.1154,57.3851,20.4192,86.0891,30.574c11.0172,3.6896,21.7817,8.243,32.974,11.3571l0.7636,1.4005   c0.1168-0.257,0.3603-0.7708,0.4868-1.0176c-1.8616-1.1091-3.7337-2.1984-5.5125-3.4154   c-33.8326-22.8835-67.7901-45.5802-101.5711-68.5223C224.9244,744.6613,220.4451,754.5074,216.1737,764.439 M945.39,925.0226   c1.1068,2.4298,1.5562,5.1325,2.9152,7.4789c6.6845-4.2864,15.6419-6.3627,23.0604-2.7673   c6.2264,3.2741,7.2878,12.7852,2.2018,17.5337c-5.2299,5.2749-13.2537,5.3149-20.165,4.8938   c-0.0986,2.6183-0.1671,5.2374-0.236,7.8665c5.9887,0.1268,12.3312,0.1128,17.7355,3.0753   c7.9293,3.5688,10.1171,14.7599,4.8217,21.3936c-4.512,5.7438-12.7177,6.6194-19.4244,5.2634   c-4.5172-0.5485-8.4043-3.0011-12.6299-4.3722c-0.9591,2.6259-1.9579,5.2406-2.828,7.9088   c6.1302,3.5117,13.1299,5.5256,20.2221,5.5313c7.694,0.3315,15.8378-1.616,21.6674-6.8752   c7.1412-6.4453,9.1466-18.0868,4.0305-26.3235c-3.0443-4.8413-8.1656-7.9164-13.5892-9.3789   c3.611-1.5161,7.2295-3.3219,9.8192-6.3351c6.217-6.6795,6.0521-18.3379-0.6861-24.6064   c-5.4901-5.4155-13.7266-6.4215-21.0853-5.8039C955.6794,920.2103,949.8824,921.5491,945.39,925.0226 M206.8362,943.7659   c-10.9895,7.0948-15.2576,22.6284-9.7245,34.4273c2.6298,5.7708,8.0067,10.1631,14.1798,11.6552   c8.7115,2.3488,18.6135-0.2729,24.5956-7.1486c-1.6328,8.4902-5.7745,16.9047-13.0676,21.8954   c-6.4871,4.7718-14.8294,5.8939-22.6735,5.5684c-0.0544,2.8396-0.129,5.6886-0.2038,8.5475   c12.6662,0.6918,26.4187-2.6593,35.0494-12.5068c8.7778-9.7336,11.9728-23.2545,11.8283-36.0728   c-0.2442-8.6293-2.4749-17.8009-8.7733-24.0579C229.9136,938.0581,216.1793,937.6584,206.8362,943.7659 M877.2581,1107.9518   c29.6289,24.1139,59.7947,47.5917,89.4133,71.7152c4.1276-9.025,8.1967-18.1016,11.9681-27.276   C944.771,1137.7594,911.1585,1122.5143,877.2581,1107.9518 M234.0442,1162.7131c4.3331,9.1067,8.6759,18.2235,12.796,27.4445   c1.808-0.663,3.2039-2.0168,4.7137-3.1377c31.0614-23.715,62.1418-47.3895,93.2032-71.1046   C307.8091,1131.4034,270.9449,1147.1239,234.0442,1162.7131 M766.926,1227.6847c0.749,3.871,2.5969,7.4105,3.8801,11.1254   c11.7701,30.3285,23.1559,60.817,35.1586,91.0515c7.8702-5.6359,15.8176-11.1597,23.813-16.6123   c-7.9663-11.7025-16.7674-22.8567-25.0596-34.3376C792.1104,1261.8457,779.5031,1244.7698,766.926,1227.6847 M417.8306,1280.2445   c-9.8055,14.5983-20.1332,28.8928-29.5846,43.7205c5.4796,3.1445,10.781,6.5946,16.2078,9.8478   c2.3664,1.3124,4.4965,3.2488,7.2432,3.7908c10.7834-28.6376,21.9731-57.1343,32.9149-85.7078   c2.9148-8.1665,6.653-16.0713,9.0121-24.4125C442.0437,1245.2964,429.6963,1262.6091,417.8306,1280.2445 M590.715,1290.7437   c-8.7834,7.2726-13.7552,18.3563-15.118,29.5244c-1.2554,9.7405-0.473,20.3545,5.0586,28.7722   c7.4413,11.8888,25.3926,14.7498,36.504,6.4377c10.7231-8.0021,13.604-24.0421,7.7495-35.7893   c-3.647-7.4181-11.873-11.885-20.0409-11.6887c-7.1526-0.3773-13.9853,3.0751-18.6651,8.3542   c1.4177-8.2957,5.9948-16.1486,13.0312-20.886c6.4314-4.5532,14.4921-6.0027,22.2394-5.7998   c0.0541-2.8296,0.1276-5.6387,0.2112-8.4474C610.7241,1280.7241,599.2545,1283.6147,590.715,1290.7437z"/>
	<path fill="#010101" d="M593.2515,573.8644c8.5744-6.5479,20.2916-8.9619,30.661-5.7495   c7.2755,2.1813,12.9059,8.7309,14.0804,16.2142c1.7567,9.3192-1.9506,18.7154-7.6427,25.9788   c-7.4348,9.6387-16.7271,17.6282-25.7911,25.6837c11.4843,0.3708,22.9617,0.6213,34.4474,0.932   c-0.0464,2.9199-0.1234,5.8588-0.2201,8.7873c-16.3842-0.439-32.7783-0.8784-49.1634-1.2774   c0.0265-2.16,0.0733-4.3295,0.1196-6.4791c10.5353-9.9977,22.0186-19.1402,31.1303-30.5456   c5.0869-6.309,8.7195-14.7668,6.2017-22.9055c-1.7749-5.9485-8.059-9.3142-14.0176-9.0601   c-6.1913-0.4122-11.6677,2.8156-16.7695,5.873C595.3028,578.8098,594.2267,576.3508,593.2515,573.8644z"/>
	<path fill="#010101" d="M537.4899,575.1051c5.4938-3.1272,11.2167-5.8383,16.901-8.6005c3.0676-0.2498,6.1499,0.081,9.2302,0.1116   c-0.7027,25.6904-1.3552,51.3721-2.028,77.0634c-3.3486-0.0977-6.6872-0.1951-10.0276-0.2226   c0.4277-22.4465,1.2053-44.8838,1.6633-67.3395c-4.6689,2.1885-9.1014,4.9034-13.9214,6.7479   C538.7654,580.2603,538.2335,577.6555,537.4899,575.1051z"/>
	<path fill="#010101" d="M790.9972,572.8005c8.1857,5.6161,16.3513,11.2418,24.5166,16.8775   c-19.4401,30.3115-38.6343,60.7795-58.0155,91.1326c-1.4058,2.114-2.743,4.2796-3.9125,6.5399   c3.6131-13.4401,8.6165-26.4936,12.7657-39.7795C774.5667,622.6474,782.8217,597.7349,790.9972,572.8005z"/>
	<path fill="#010101" d="M366.4256,594.0437c10.1312-6.7871,20.091-13.9088,30.5295-20.2078   c14.9619,38.705,30.1864,77.3167,45.2294,115.9838c0.1532,0.6442,0.4695,1.9329,0.6227,2.5771   C417.5201,659.4836,391.8963,626.8217,366.4256,594.0437z"/>
	<path fill="#FFFFFF" d="M1190.6487,600.8917c8.0376-1.7102,16.7207,0.958,22.6874,6.5161   c3.313,2.9777,5.4697,6.9556,7.1742,11.0116c9.6041,21.3587,19.3704,42.6417,28.9337,64.0293   c4.7118,11.8373-0.8247,26.5275-12.2865,32.1794c-11.9891,5.5381-24.0729,10.8736-36.0812,16.3812   c-5.7969,2.4791-11.5096,5.9507-18.0015,5.9308c-10.2346,0.4222-20.1888-6.0405-24.3065-15.3515   c-7.9891-17.7052-16.0492-35.3823-24.0183-53.0969c-2.2528-5.2708-5.0414-10.3256-6.8394-15.7745   c-3.3306-10.7209,1.6554-23.1046,11.1514-28.938c14.8354-7.2742,30.0798-13.7374,45.0864-20.6669   C1186.2341,602.1566,1188.387,601.3126,1190.6487,600.8917z"/>
	<path fill="#010101" d="M819.6315,735.7458c33.5911-32.0717,67.0461-64.2969,100.8029-96.2042   c4.2086,3.9315,7.965,8.3213,12.0188,12.4288c-98.5084,94.1536-196.9194,188.4098-295.4763,282.5021   c5.2774,6.2803,9.0276,13.9612,10.0236,22.15c1.6162,11.2462-1.5959,23.1262-8.7696,31.9614   c-8.0938,10.3517-21.3374,16.4271-34.4642,15.7532c-11.207-0.2635-22.015-5.4481-29.5831-13.639   c-67.9012,73.2676-135.9387,146.3917-203.8007,219.6904c5.0425,4.1733,10.3122,8.0726,15.138,12.5005   c-13.7865,6.1813-27.4973,12.5245-41.2744,18.7261c-2.1972,1.0128-4.6576,1.7585-6.3173,3.6357   c-7.6805,8.3219-15.3709,16.6434-23.1103,24.9237c-1.7875,2.1738-3.5863-0.9542-4.9288-2.0198   c6.8514-7.2231,13.5171-14.6111,20.3488-21.8448c1.9588-1.8394,2.3312-4.6006,3.1548-7.0198   c4.9297-15.5863,9.9288-31.1508,14.8485-46.7373c6.2397,4.6749,12.1273,9.8108,18.2527,14.6527   c68.1771-73.4905,136.4226-146.9192,204.5411-220.4612c-9.1906-12.705-10.186-30.4671-2.8619-44.2801   c-44.8937-29.0952-89.8296-58.1115-134.7336-87.1968c-30.4291-19.5332-60.6076-39.47-91.1727-58.7767   c0.0077-1.8204,1.2739-3.1878,2.1816-4.6145c2.1738-3.1742,4.1211-6.4843,6.2552-9.6696c1.2755-0.9569,2.5255,0.5863,3.632,1.1154   c57.3266,37.1734,114.726,74.2386,172.0839,111.3628c17.7979,11.3898,35.366,23.1537,53.3104,34.2973   c12.0414-9.4481,29.175-11.2701,43.0861-5.0139C688.4316,861.2344,754.0463,798.5005,819.6315,735.7458 M601.019,938.1226   c-9.1148,1.592-16.9749,8.7487-19.3699,17.699c-3.947,12.4409,4.3893,26.824,16.8854,30.1923   c11.9148,3.7932,25.7867-3.3561,29.8858-15.1129c4.0524-9.9673,0.09-22.1553-8.5604-28.3638   C614.5857,938.4278,607.5385,937.0828,601.019,938.1226z"/>
	<path fill="#010101" d="M960.8451,731.731c0.5056-0.2069,1.507-0.6308,2.0026-0.8379c4.0541,9.8295,9.8275,18.9437,13.4678,28.9124   c-31.293,11.1647-62.4378,22.7834-93.685,34.1093c-4.4496,1.454-8.687,3.5938-13.3014,4.4633   C899.9372,776.3119,930.3332,753.9399,960.8451,731.731z"/>
	<path fill="#010101" d="M216.1737,764.439c4.2714-9.9316,8.7507-19.7777,13.23-29.6238   c33.781,22.9421,67.7385,45.6388,101.5711,68.5223c1.7787,1.217,3.6509,2.3063,5.5125,3.4154   c-0.1265,0.2468-0.37,0.7606-0.4868,1.0176l-0.7636-1.4005c-11.1923-3.1141-21.9568-7.6674-32.974-11.3571   C273.5588,784.8582,244.8987,774.5544,216.1737,764.439z"/>
	<path fill="#FFFFFF" d="M1226.8597,863.0094c7.9161-0.8931,15.9211,0.1668,23.8751,0.115   c13.6755,0.3481,27.3407,0.7159,41.0162,1.0641c13.4906,0.1532,25.2225,12.4545,24.9703,25.9125   c-1.0162,43.0081-2.2126,86.0215-3.3488,129.0266c-0.2076,9.4578-5.9753,18.46-14.4574,22.6293   c-6.1056,3.1913-13.2393,2.8544-19.8866,2.2902c-8.3666,0.1411-16.6815-0.5468-25.0356-0.4955   c-10.3668-0.6416-20.7513-0.2233-31.0895-1.1942c-11.6664-2.1962-20.8776-13.3511-20.6963-25.2404   c1.1702-41.6336,2.1508-83.2822,3.271-124.9172c-0.0269-4.7023,0.1895-9.5283,2.1837-13.8676   C1210.9894,870.4565,1218.447,864.5297,1226.8597,863.0094 M1221.0737,873.8616c-0.016,0.6099-0.0377,1.8196-0.0536,2.4294   c27.0922,0.6494,54.1525,1.7582,81.2264,2.7272c-0.014-0.6105-0.0225-1.8212-0.0365-2.4318   c-3.896-0.5823-7.8623-0.396-11.769-0.5683C1267.3115,875.3125,1244.1979,874.3872,1221.0737,873.8616 M1220.7804,884.2975   c0.0033,0.6403,0.0095,1.9309,0.0123,2.5812c27.1113,0.6899,54.2024,1.7694,81.3013,2.5491   c-0.0636-0.6319-0.2002-1.9059-0.2637-2.5377C1274.7996,886.1823,1247.8014,884.9951,1220.7804,884.2975 M1220.5874,892.8154   c-0.026,0.6095-0.058,1.8292-0.0836,2.4286c27.0417,0.6681,54.0625,1.7558,81.0875,2.6835   c0.047-0.6489,0.1615-1.9664,0.2089-2.6254C1274.7296,894.5833,1247.6599,893.4543,1220.5874,892.8154 M1220.3314,902.9722   c-0.0258,0.5996-0.0674,1.8089-0.0931,2.4084c27.033,1.3881,54.1318,1.7876,81.2043,2.8066   c0.0166-0.6298,0.0396-1.8896,0.0558-2.5094C1274.4435,904.7493,1247.3771,903.8705,1220.3314,902.9722 M1220.0874,912.289   c-0.0165,0.6298-0.0497,1.8994-0.0562,2.5294c27.0612,0.6886,54.119,1.8873,81.1909,2.5562   c-0.004-0.6103,0.0078-1.8304,0.0135-2.4305c-11.623-0.0343-23.1787-1.1171-34.7894-1.2411   C1250.991,913.3184,1235.5432,912.6537,1220.0874,912.289 M1219.8418,920.9055c-0.016,0.6099-0.0382,1.8397-0.0541,2.4495   c27.0349,0.928,54.0638,1.7058,81.0825,2.8735c0.0278-0.6795,0.0734-2.0388,0.1012-2.7183   C1273.9222,922.7419,1246.8801,921.7036,1219.8418,920.9055 M1219.6616,928.9336c-0.0363,0.6193-0.0881,1.8383-0.1141,2.4479   c27.0664,0.8688,54.1244,2.0674,81.2059,2.7466c0.0165-0.6298,0.0394-1.8896,0.0559-2.5194   C1273.755,930.6602,1246.7079,929.8119,1219.6616,928.9336 M1219.4017,938.8602c-0.0262,0.6195-0.0687,1.8588-0.095,2.4783   c27.0696,0.7489,54.1068,1.9771,81.1677,2.6757c0.0072-0.6601,0.0215-1.9702,0.0289-2.6301   C1273.4634,940.6459,1246.431,939.618,1219.4017,938.8602 M1219.2261,946.3281c-0.0267,0.6395-0.0804,1.9286-0.1075,2.5781   c27.064,0.9688,54.1412,1.8079,81.2096,2.6068c0.006-0.6101,0.0077-1.8204,0.0037-2.4308   c-16.2913-0.5466-32.5734-1.063-48.8685-1.4597C1240.7452,946.6415,1229.9661,946.8495,1219.2261,946.3281 M1219.0022,956.7859   c-0.0365,0.6292-0.1191,1.8775-0.1656,2.5065c27.0743,0.5688,54.1018,1.7868,81.1388,2.6348   c0.0176-0.6697,0.0422-1.9896,0.0596-2.6494C1273.0228,958.6205,1246.0131,957.4932,1219.0022,956.7859 M1218.6825,965.9407   c-0.0259,0.6095-0.0679,1.8288-0.0839,2.4387c27.0551,1.3086,54.1536,1.7181,81.2344,2.8074   c-0.0227-0.6608-0.0781-1.9827-0.1011-2.6335C1272.7119,967.8156,1245.6987,966.8182,1218.6825,965.9407 M1218.4542,974.6577   c-0.0254,0.5895-0.0663,1.7689-0.0918,2.3584c27.0605,1.0988,54.1414,1.8079,81.2054,2.7667   c0.0165-0.6298,0.0494-1.8894,0.066-2.5192C1272.566,976.4447,1245.5139,975.4062,1218.4542,974.6577 M1218.1578,985.2135   c26.9784,0.7965,53.9563,1.613,80.9158,2.7491c0.1355-0.9768,0.2909-1.9431,0.4657-2.8889   c-27.0886-1.1694-54.1757-2.0188-81.2837-2.8287C1218.21,983.2242,1218.174,984.2136,1218.1578,985.2135 M1217.9089,995.1004   c25.4058,1.2554,50.865,1.2419,76.2452,2.7067c1.5537-0.1193,3.291,0.3864,4.7849-0.1248   c0.0763-0.6182,0.2189-1.8649,0.2853-2.4934c-27.0757-0.899-54.1351-2.0378-81.2266-2.7172   C1217.9553,993.331,1217.9222,994.2104,1217.9089,995.1004 M1217.7317,1001.8681c-0.0062,0.6201-0.0387,1.8596-0.0448,2.4796   c27.0942,0.5695,54.1348,2.0478,81.2271,2.6972c-0.0237-0.6208-0.0613-1.8622-0.075-2.4828   C1271.819,1003.4445,1244.7705,1002.6461,1217.7317,1001.8681 M1217.5802,1010.327c-0.037,0.6493-0.121,1.9475-0.158,2.5968   c27.0641,0.9588,54.1317,1.7876,81.1996,2.6064c0.0056-0.6001,0.0374-1.8096,0.0533-2.4194   C1271.6261,1012.3425,1244.6166,1011.205,1217.5802,1010.327 M1217.3093,1018.3826c-0.0165,0.6298-0.0594,1.8891-0.0757,2.5089   c27.0712,1.069,54.1588,1.8983,81.2365,2.7274c-0.0135-0.6305-0.0311-1.8715-0.0349-2.4918   C1271.3893,1020.239,1244.3511,1019.4309,1217.3093,1018.3826 M1217.0493,1028.3092c-0.017,0.6498-0.041,1.9496-0.058,2.5995   c27.0677,0.8187,54.1445,1.6779,81.208,2.6666c-0.0035-0.6304-0.0306-1.8915-0.0341-2.5217   C1271.1213,1030.0853,1244.0867,1029.1473,1217.0493,1028.3092z"/>
	<path fill="#010101" d="M1221.0737,873.8616c23.1241,0.5256,46.2378,1.4509,69.3673,2.1566   c3.9067,0.1723,7.873-0.014,11.769,0.5683c0.014,0.6105,0.0225,1.8212,0.0365,2.4318c-27.074-0.9691-54.1343-2.0778-81.2264-2.7272   C1221.036,875.6813,1221.0577,874.4715,1221.0737,873.8616z"/>
	<path fill="#010101" d="M1220.7804,884.2975c27.021,0.6976,54.0192,1.8848,81.0499,2.5926   c0.0635,0.6318,0.2001,1.9058,0.2637,2.5377c-27.0989-0.7797-54.1899-1.8592-81.3013-2.5491   C1220.7899,886.2285,1220.7837,884.9379,1220.7804,884.2975z"/>
	<path fill="#010101" d="M1220.5874,892.8154c27.0725,0.6389,54.1422,1.7679,81.2128,2.4868   c-0.0474,0.659-0.1619,1.9765-0.2089,2.6254c-27.025-0.9277-54.0458-2.0154-81.0875-2.6835   C1220.5294,894.6446,1220.5614,893.4249,1220.5874,892.8154z"/>
	<path fill="#010101" d="M1220.3314,902.9722c27.0457,0.8983,54.1121,1.7772,81.167,2.7057   c-0.0162,0.6198-0.0392,1.8796-0.0558,2.5094c-27.0725-1.019-54.1714-1.4185-81.2043-2.8066   C1220.264,904.7811,1220.3057,903.5718,1220.3314,902.9722z"/>
	<path fill="#010101" d="M1220.0874,912.289c15.4558,0.3647,30.9036,1.0294,46.3589,1.4141   c11.6107,0.124,23.1664,1.2068,34.7894,1.2411c-0.0057,0.6-0.0176,1.8202-0.0135,2.4305   c-27.0719-0.6689-54.1298-1.8676-81.1909-2.5562C1220.0377,914.1884,1220.0709,912.9188,1220.0874,912.289z"/>
	<path fill="#010101" d="M1219.8418,920.9055c27.0383,0.7981,54.0804,1.8364,81.1296,2.6047   c-0.0278,0.6795-0.0734,2.0388-0.1012,2.7183c-27.0187-1.1677-54.0476-1.9454-81.0825-2.8735   C1219.8036,922.7452,1219.8258,921.5154,1219.8418,920.9055z"/>
	<path fill="#010101" d="M945.39,925.0226c4.4924-3.4736,10.2895-4.8123,15.8299-5.5175   c7.3586-0.6176,15.5952,0.3884,21.0853,5.8039c6.7382,6.2686,6.9031,17.9269,0.6861,24.6064   c-2.5897,3.0132-6.2083,4.8191-9.8192,6.3351c5.4236,1.4625,10.5449,4.5376,13.5892,9.3789   c5.1161,8.2368,3.1107,19.8783-4.0305,26.3235c-5.8297,5.2592-13.9734,7.2067-21.6674,6.8752   c-7.0922-0.0057-14.0919-2.0196-20.2221-5.5313c0.8701-2.6682,1.8689-5.2829,2.828-7.9088   c4.2256,1.3711,8.1127,3.8237,12.6299,4.3722c6.7068,1.356,14.9125,0.4805,19.4244-5.2634   c5.2955-6.6337,3.1076-17.8248-4.8217-21.3936c-5.4043-2.9625-11.7468-2.9485-17.7355-3.0753   c0.0688-2.6291,0.1374-5.2482,0.236-7.8665c6.9114,0.4211,14.9351,0.3811,20.165-4.8938   c5.086-4.7485,4.0246-14.2596-2.2018-17.5337c-7.4185-3.5954-16.3759-1.5191-23.0604,2.7673   C946.9462,930.1552,946.4968,927.4525,945.39,925.0226z"/>
	<path fill="#010101" d="M1219.6616,928.9336c27.0463,0.8783,54.0934,1.7266,81.1477,2.6751   c-0.0165,0.6298-0.0394,1.8896-0.0559,2.5194c-27.0815-0.6792-54.1395-1.8779-81.2059-2.7466   C1219.5735,930.7719,1219.6254,929.5529,1219.6616,928.9336z"/>
	<path fill="#010101" d="M1219.4017,938.8602c27.0293,0.7578,54.0616,1.7858,81.1017,2.5239c-0.0074,0.66-0.0217,1.97-0.0289,2.6301   c-27.0609-0.6987-54.0981-1.9268-81.1677-2.6757C1219.333,940.719,1219.3755,939.4797,1219.4017,938.8602z"/>
	<path fill="#010101" d="M1219.2261,946.3281c10.74,0.5214,21.5192,0.3134,32.2372,1.2943   c16.2952,0.3967,32.5773,0.9131,48.8685,1.4597c0.004,0.6104,0.0023,1.8207-0.0037,2.4308   c-27.0684-0.7988-54.1456-1.6379-81.2096-2.6068C1219.1456,948.2567,1219.1993,946.9677,1219.2261,946.3281z"/>
	<path fill="#5A5555" d="M601.019,938.1226c6.5194-1.0397,13.5667,0.3052,18.8409,4.4147   c8.6505,6.2086,12.6128,18.3965,8.5604,28.3638c-4.0991,11.7567-17.971,18.9061-29.8858,15.1129   c-12.4962-3.3683-20.8325-17.7514-16.8854-30.1923C584.0442,946.8712,591.9042,939.7145,601.019,938.1226z"/>
	<path fill="#010101" d="M1219.0022,956.7859c27.0109,0.7073,54.0206,1.8347,81.0327,2.492   c-0.0173,0.6598-0.042,1.9796-0.0596,2.6494c-27.037-0.848-54.0645-2.066-81.1388-2.6348   C1218.8831,958.6634,1218.9657,957.4151,1219.0022,956.7859z"/>
	<path fill="#010101" d="M206.8362,943.7659c9.3431-6.1075,23.0773-5.7078,31.2103,2.3079   c6.2984,6.257,8.5291,15.4285,8.7733,24.0579c0.1445,12.8182-3.0505,26.3392-11.8283,36.0728   c-8.6307,9.8475-22.3832,13.1986-35.0494,12.5068c0.0749-2.8589,0.1495-5.7079,0.2038-8.5475   c7.8442,0.3254,16.1864-0.7966,22.6735-5.5684c7.2932-4.9908,11.4348-13.4053,13.0676-21.8954   c-5.982,6.8757-15.8841,9.4974-24.5956,7.1486c-6.1731-1.4921-11.5499-5.8843-14.1798-11.6552   C191.5787,966.3943,195.8468,950.8607,206.8362,943.7659 M216.7137,948.1961c-10.9342,3.455-14.3235,18.2813-9.1062,27.621   c4.3216,7.6358,15.1406,8.5793,22.1466,4.2412c3.135-2.0587,6.5052-5.0814,6.3821-9.1661   c0.032-6.5714-0.8192-13.7962-5.3877-18.8775C227.33,948.0939,221.6086,946.9238,216.7137,948.1961z"/>
	<path fill="#010101" d="M1218.6825,965.9407c27.0162,0.8775,54.0294,1.8749,81.0494,2.6125   c0.0229,0.6508,0.0784,1.9727,0.1011,2.6335c-27.0808-1.0892-54.1793-1.4988-81.2344-2.8074   C1218.6146,967.7695,1218.6566,966.5502,1218.6825,965.9407z"/>
	<path fill="#FFFFFF" d="M216.7137,948.1961c4.895-1.2723,10.6163-0.1022,14.0348,3.8187   c4.5685,5.0813,5.4197,12.3061,5.3877,18.8775c0.1231,4.0847-3.2472,7.1074-6.3821,9.1661   c-7.006,4.3381-17.825,3.3946-22.1466-4.2412C202.3902,966.4774,205.7795,951.6511,216.7137,948.1961z"/>
	<path fill="#010101" d="M1218.4542,974.6577c27.0597,0.7485,54.1118,1.787,81.1797,2.6059   c-0.0166,0.6298-0.0496,1.8893-0.066,2.5192c-27.0641-0.9588-54.1449-1.6679-81.2054-2.7667   C1218.3879,976.4265,1218.4288,975.2472,1218.4542,974.6577z"/>
	<path fill="#010101" d="M1218.1578,985.2135c0.0161-0.9999,0.0521-1.9893,0.0978-2.9684   c27.108,0.8099,54.1951,1.6592,81.2837,2.8287c-0.1748,0.9458-0.3302,1.912-0.4657,2.8889   C1272.1141,986.8265,1245.1362,986.01,1218.1578,985.2135z"/>
	<path fill="#010101" d="M1217.9089,995.1004c0.0133-0.89,0.0464-1.7694,0.0889-2.6286   c27.0914,0.6794,54.1509,1.8182,81.2266,2.7172c-0.0664,0.6285-0.209,1.8752-0.2853,2.4934   c-1.4939,0.5111-3.2312,0.0054-4.7849,0.1248C1268.7739,996.3423,1243.3147,996.3558,1217.9089,995.1004z"/>
	<path fill="#010101" d="M1217.7317,1001.8681c27.0388,0.778,54.0873,1.5764,81.1073,2.694   c0.0137,0.6206,0.0513,1.8621,0.075,2.4828c-27.0923-0.6494-54.1328-2.1277-81.2271-2.6972   C1217.693,1003.7277,1217.7255,1002.4882,1217.7317,1001.8681z"/>
	<path fill="#010101" d="M1217.5802,1010.327c27.0364,0.8781,54.0459,2.0155,81.095,2.7838   c-0.016,0.6098-0.0477,1.8193-0.0533,2.4194c-27.0679-0.8188-54.1355-1.6476-81.1996-2.6064   C1217.4592,1012.2745,1217.5432,1010.9763,1217.5802,1010.327z"/>
	<path fill="#010101" d="M1217.3093,1018.3826c27.0417,1.0483,54.08,1.8563,81.1259,2.7446   c0.0038,0.6203,0.0214,1.8613,0.0349,2.4918c-27.0776-0.8291-54.1653-1.6584-81.2365-2.7274   C1217.2499,1020.2717,1217.2928,1019.0125,1217.3093,1018.3826z"/>
	<path fill="#010101" d="M1217.0493,1028.3092c27.0374,0.8381,54.072,1.7761,81.116,2.7444   c0.0034,0.6302,0.0305,1.8914,0.0341,2.5217c-27.0635-0.9888-54.1403-1.8479-81.208-2.6666   C1217.0083,1030.2588,1217.0323,1028.959,1217.0493,1028.3092z"/>
	<path fill="#010101" d="M877.2581,1107.9518c33.9004,14.5625,67.5129,29.8076,101.3815,44.4392   c-3.7715,9.1744-7.8405,18.251-11.9681,27.276C937.0528,1155.5435,906.887,1132.0657,877.2581,1107.9518z"/>
	<path fill="#010101" d="M234.0442,1162.7131c36.9007-15.5892,73.7649-31.3097,110.713-46.7979   c-31.0614,23.7151-62.1418,47.3896-93.2032,71.1046c-1.5098,1.1208-2.9058,2.4747-4.7137,3.1377   C242.7201,1180.9366,238.3773,1171.8198,234.0442,1162.7131z"/>
	<path fill="#FFFFFF" d="M1191.884,1141.6394c8.4799-1.4086,16.2467,3.0162,24.1831,5.1647   c6.6663,2.5255,14.2202,3.6135,19.7026,8.5587c7.7524,6.5052,11.1575,17.8182,7.8641,27.4553   c-6.3517,19.4603-12.7729,38.9089-19.1545,58.3685c-2.4467,6.7183-3.7163,14.3276-8.9857,19.5815   c-6.5204,7.1918-17.2598,10.0817-26.4958,7.1388c-8.4209-2.7513-16.8523-5.483-25.2411-8.3136   c-12.0897-4.3678-19.4188-18.6346-15.7037-31.0016c7.5166-23.0812,15.1526-46.1292,22.7191-69.1991   C1173.667,1150.0753,1182.2075,1142.9064,1191.884,1141.6394z"/>
	<path fill="#010101" d="M766.926,1227.6847c12.5771,17.0851,25.1844,34.161,37.7921,51.2269   c8.2922,11.481,17.0933,22.6351,25.0596,34.3376c-7.9954,5.4526-15.9427,10.9764-23.813,16.6123   c-12.0026-30.2345-23.3884-60.723-35.1586-91.0515C769.5229,1235.0952,767.675,1231.5557,766.926,1227.6847z"/>
	<path fill="#010101" d="M417.8306,1280.2445c11.8657-17.6354,24.2131-34.9481,35.7934-52.7612   c-2.3591,8.3412-6.0973,16.246-9.0121,24.4125c-10.9417,28.5735-22.1315,57.0702-32.9149,85.7078   c-2.7467-0.542-4.8768-2.4784-7.2432-3.7908c-5.4267-3.2532-10.7282-6.7032-16.2078-9.8478   C397.6973,1309.1373,408.0251,1294.8428,417.8306,1280.2445z"/>
	<path fill="#010101" d="M590.715,1290.7437c8.5396-7.1289,20.0092-10.0195,30.9699-9.5226   c-0.0836,2.8087-0.1572,5.6178-0.2112,8.4474c-7.7473-0.2029-15.808,1.2466-22.2394,5.7998   c-7.0364,4.7374-11.6135,12.5903-13.0312,20.886c4.6798-5.2792,11.5125-8.7316,18.6651-8.3542   c8.1679-0.1963,16.3939,4.2706,20.0409,11.6887c5.8545,11.7472,2.9736,27.7872-7.7495,35.7893   c-11.1114,8.312-29.0626,5.451-36.504-6.4377c-5.5316-8.4177-6.314-19.0317-5.0586-28.7722   C576.9598,1309.1,581.9316,1298.0162,590.715,1290.7437 M595.9918,1316.9108c-4.6479,1.7689-8.5495,5.5981-10.1539,10.3276   c-0.8883,6.4191,0.3708,13.3444,4.0908,18.7435c4.425,6.358,14.243,8.0957,20.4586,3.3768   c4.6956-3.5884,6.6762-9.6986,6.736-15.4191c0.2348-4.7655-1.0049-9.7596-4.2114-13.3748   C608.7294,1316.0239,601.6719,1314.6887,595.9918,1316.9108z"/>
	<path fill="#FFFFFF" d="M595.9918,1316.9108c5.6801-2.222,12.7375-0.8868,16.9201,3.6542   c3.2065,3.6151,4.4462,8.6093,4.2114,13.3748c-0.0598,5.7205-2.0404,11.8307-6.736,15.4191   c-6.2156,4.7189-16.0336,2.9812-20.4586-3.3768c-3.7199-5.3992-4.9791-12.3245-4.0908-18.7435   C587.4423,1322.5089,591.3439,1318.6797,595.9918,1316.9108z"/>
	<path fill="#FFFFFF" d="M913.7652,1492.8495c32.0668-28.4905,64.0662-57.0825,96.0359-85.6855   c2.0652,22.7518,4.0497,45.5216,5.9041,68.298c-2.0339,50.9342-4.9484,101.8754-4.4933,152.8748   c0.2842,7.0999-2.7116,14.1639-7.8608,19.0308c-8.4272,8.1921-19.9608,11.9917-31.0991,14.8409   c-19.6339,4.4777-39.9257,5.4268-59.9965,4.8112C912.9255,1608.9572,913.1753,1550.9038,913.7652,1492.8495z"/>
	<path fill="#FFFFFF" d="M209.6306,1414.2803c14.1221,9.6531,27.7648,20.0437,41.7095,29.9822   c21.9795,15.9708,44.0113,31.853,65.9597,47.863c3.3249,60.978,6.6199,121.9551,10.2355,182.9106   c-12.058,1.6749-24.265,2.1655-36.4266,2.0671c-13.4472-0.2821-27.0174-1.5978-39.8948-5.6863   c-8.6263-2.9269-17.4397-7.4991-22.209-15.6067c-4.3221-7.2356-3.3336-15.9528-4.2735-23.9901   c-3.7305-43.9626-9.1961-87.7507-14.8027-131.5026c-1.6056-8.595-0.6562-17.3431-0.8092-26.0201   C209.3732,1454.2872,209.4269,1434.2819,209.6306,1414.2803z"/>
	<path fill="#FFFFFF" d="M861.7012,1501.4895c32.3936-15.3773,63.1232-34.0593,92.4324-54.6592   c-13.3188,12.0055-26.8326,23.8158-40.0739,35.9132c-0.006-2.0608,0.0166-4.0708-0.0405-6.093   c-12.0552,12.6488-26.446,22.8054-40.9629,32.4287c-73.6507,47.5784-161.924,70.2355-249.2323,69.7899   c-50.039-0.3101-100.1558-6.054-148.6449-18.5675c-40.9556-10.6357-80.8351-26.075-117.3445-47.588   c-7.1994-4.3199-14.3667-8.7191-21.1184-13.7074c81.9326,40.3185,173.2266,61.2253,264.5182,61.2151   C690.9877,1560.511,780.7663,1540.3441,861.7012,1501.4895z"/>
	<path fill="#FFFFFF" d="M849.0486,1531.9788c19.9399-10.8118,39.2164-23.0314,56.7111-37.4984   c0.6701,10.7012-0.5496,21.373-0.6398,32.0742c-1.3403,42.7797-2.9003,85.5435-4.0206,128.3287   c-157.2305,1.7849-314.4644,3.3094-471.6929,5.0143c-31.7524,0.439-63.5443,0.4768-95.3006,1.0657   c-3.0262-53.6676-6.0027-107.3239-8.9588-160.9897c35.218,26.131,75.5136,44.7821,117.0397,58.4639   c46.6979,15.2075,95.474,23.6373,144.4524,26.6305c48.1719,3.2321,96.8716,0.4459,144.0965-9.8214   C771.9025,1566.3511,811.9336,1551.9341,849.0486,1531.9788z"/>
	<path fill="#FFFFFF" d="M814.5024,1663.1794c29.3348-0.1823,58.682-0.4541,88.0128-0.8665   c-1.402,39.4069-3.3239,78.7999-5.655,118.1625c-0.891,10.3402-1.1235,20.7477-2.6435,31.0414   c-5.2585,33.874-10.537,67.7474-15.9053,101.6085c-11.4158,0.0712-22.8489,0.0419-34.2303-0.0562   c-28.1575,0.3031-56.3581-0.0453-84.5215,0.0975c2.9347-24.9717,5.7197-49.9573,8.0759-74.9943   c2.4735-24.9338,4.5491-49.948,4.5255-75.0272c0.4772-33.1189-0.1167-66.2157-0.4001-99.3245   C786.0026,1663.5635,800.2687,1663.5168,814.5024,1663.1794z"/>
	<path fill="#FFFFFF" d="M471.1176,1666.8918c97.7113-1.0626,195.42-2.0251,293.142-3.1176   c0.4709,24.0406,0.4609,48.1086,0.6715,72.1523c-0.2454,12.0477,0.2181,24.1439-0.5672,36.1776   c-4.6763-12.4268-17.9149-20.676-31.0684-20.3303c-79.7111,0.1434-159.4166,0.077-239.1296,0.2905   c-6.6566-0.2144-13.1873,2.0154-18.7528,5.5909C474.6858,1727.366,473.2274,1697.1074,471.1176,1666.8918z"/>
	<path fill="#FFFFFF" d="M421.397,1667.4104c14.0803-0.2114,28.1918-0.0819,42.2605-0.6139   c1.8835,27.7788,3.426,55.5887,4.0976,83.4259c0.0633,11.3354,0.4568,22.6698-0.2003,34.0063   c-0.7497,40.8544,0.7919,81.6888,2.2438,122.5109c-39.4244-3.0231-78.8322-6.2959-118.26-9.189   c-6.434-76.3346-11.5445-152.7845-16.8058-229.2084C363.6207,1668.0383,392.5012,1667.6343,421.397,1667.4104z"/>
	<path fill="#FFFFFF" d="M699.106,1759.3317c11.6209-0.266,23.28-0.0807,34.9236-0.0659   c10.6279-0.1619,20.7403,7.1354,24.2196,17.1398c2.0848,5.5765,1.4163,11.6212,1.5236,17.4559   c-0.1381,16.3521,0.2339,32.7074-0.0441,49.0557c-1.7625,17.2598-3.4451,34.5317-5.5866,51.7516   c-4.2413,6.8713-12.9379,10.4448-20.8875,10.3268c-79.699,0.0637-159.3874,0.1078-239.078,0.2317   c-6.3126,0.0146-12.5305-2.4388-17.2325-6.6234c-1.4875-43.6639-3.1334-87.392-1.5196-131.0647   c4.8834-5.4141,12.3125-8.3406,19.559-8.1107C563.0264,1759.4395,631.0666,1759.1804,699.106,1759.3317z"/>
</g>
</svg>